/* XPM */
static char *result[] = {
/* columns rows colors chars-per-pixel */
"64 64 145 2 ",
"   c #000404",
".  c #00070B",
"X  c #00090F",
"o  c #000910",
"O  c #091213",
"+  c #1D1D14",
"@  c #1D1F19",
"#  c #20150C",
"$  c #211714",
"%  c #221916",
"&  c #241E1A",
"*  c #29251D",
"=  c #2A291E",
"-  c #1C2324",
";  c #283031",
":  c #273338",
">  c #46331D",
",  c #433524",
"<  c #463B26",
"1  c #493C27",
"2  c #4B3D28",
"3  c #5C3C24",
"4  c #5F3E28",
"5  c #623F25",
"6  c #52412A",
"7  c #5D4B2E",
"8  c #454032",
"9  c #4E4338",
"0  c #664327",
"q  c #64412A",
"w  c #654C2D",
"e  c #734C2E",
"r  c #654D31",
"t  c #6C4E32",
"y  c #724E33",
"u  c #715333",
"i  c #7E5433",
"p  c #7A5F38",
"a  c #474946",
"s  c #504E4A",
"d  c #464E52",
"f  c #4B5255",
"g  c #615D57",
"h  c #5A5E60",
"j  c #6B6F73",
"k  c #805735",
"l  c #825835",
"z  c #8C5A34",
"x  c #865C3A",
"c  c #905E37",
"v  c #905E38",
"b  c #9B6337",
"n  c #90603B",
"m  c #906B3E",
"M  c #9C6E3F",
"N  c #A0653A",
"B  c #A46A3D",
"V  c #A9793E",
"C  c #B1703F",
"Z  c #E25E21",
"A  c #E46226",
"S  c #E3642C",
"D  c #E26633",
"F  c #E56C36",
"G  c #EC6F30",
"H  c #E66F39",
"J  c #EB7336",
"K  c #EB743B",
"L  c #EE783D",
"P  c #9B7550",
"I  c #A56C41",
"U  c #AA6F43",
"Y  c #A67744",
"T  c #AC7043",
"R  c #A47844",
"E  c #AA7D46",
"W  c #B57443",
"Q  c #B97642",
"!  c #BD7A45",
"~  c #B4794C",
"^  c #BF7B49",
"/  c #C07C47",
"(  c #C27E4B",
")  c #EA7744",
"_  c #EA7841",
"`  c #E97B4A",
"'  c #B08148",
"]  c #A18563",
"[  c #C5814D",
"{  c #CE8649",
"}  c #C98E4E",
"|  c #C68451",
" . c #CC9351",
".. c #EE8042",
"X. c #FE8945",
"o. c #EF904B",
"O. c #FF9647",
"+. c #FF954D",
"@. c #FF994F",
"#. c #ED8254",
"$. c #EC8B5D",
"%. c #E89A52",
"&. c #EE975D",
"*. c #E79C58",
"=. c #F79850",
"-. c #FCAB53",
";. c #F3A558",
":. c #F2A85A",
">. c #FCAE5C",
",. c #FFB35D",
"<. c #FFB85F",
"1. c #EA916B",
"2. c #FD9E64",
"3. c #FA9C77",
"4. c #FFB460",
"5. c #73818B",
"6. c #958E8D",
"7. c #9D958A",
"8. c #898B90",
"9. c #9F9A99",
"0. c #9E9DA1",
"q. c #9BA1A8",
"w. c #A1A8B1",
"e. c #A6AFBB",
"r. c #FAAA82",
"t. c #EEBA87",
"y. c #FFBF84",
"u. c #E8B09C",
"i. c #FBB59B",
"p. c #FFBA9E",
"a. c #C6ABA3",
"s. c #EFBDAC",
"d. c #E9D1BE",
"f. c #FFD3B7",
"g. c #BEBEC5",
"h. c #DEC8C6",
"j. c #C0C8D4",
"k. c #E7DCDE",
"l. c #FFE5DF",
"z. c #E5E2E9",
"x. c #FFEBE7",
"c. c #FFEDEE",
"v. c #ECEDF8",
"b. c #FFF3F2",
"n. c #F4F5FF",
/* pixels */
"[ [ [ ! [ [ [ [ [ [ [ [ [ [ [ [ [ [ [ [ [ [ | [ [ [ [ { | { ( | | ( | ( | ( ( | / ( ( ( { | | | ( | ( ( ( ( ( ( ( | | | | ( | | ",
"| [ [ ! ( [ [ [ [ [ | [ | [ [ [ ( [ | | | | ( ( ( [ ( ( ( ( ( ( ( { ( { ( { ( | / ( ( | ( ( | ( | ( ( ( ( ( ( ( | ( ( | | | | ( ",
"| | [ ! [ [ [ [ [ [ | | | [ [ [ [ | | | | | { | [ | | | | | | ( ( ( | ( | ( | | / ( | ( | ( ( | ( | ( | | ( | ( ( | | | [ ( ( | ",
"[ [ [ ! ( [ [ ( [ [ [ [ [ [ [ [ [ ( | ( ( [ ( | | | | | | | | ( | | ( | ( | | | ( ( ( | ( | { ( ( ( | { | | | | | | | ( [ | | ` ",
"[ ^ ^ ! ( [ [ ( / / ( | | | | [ [ [ ( / / ( ( [ | [ | | [ [ | { ( | ( ( { ( | | / ( ( | | | | ( | ( | | ( ( ( ( ^ ( ^ ^ ^ [ [ [ ",
"[ ( [ ! [ [ [ ( ( ( [ | [ | | [ ( ( | ( ( ( [ | [ [ ( ( ( ( ( ( { ( | | ( | ( | ( ( { ( | | ( ( ( | | ( { ( ( ( ( / ( | ( | [ [ ",
"| | | ! ( [ [ [ ( ( ( ( ( [ [ [ | | | | | | [ [ ( ( ( / / ( / | ( | ( | | | | | ( ( ( { ( | ( ( | ( ( ( ( ( ( ( ( | [ | | | [ [ ",
"[ [ [ ! ( [ | | | | / ^ / ( [ [ ( | ( ( ^ ( ( ( / ( [ [ ( ( ( ( ( ( { ( | | ( | ( ( ( ( | ( ( / ( { ( ( ( ( ( ( [ ( [ [ [ [ ( [ ",
"/ / / Q ! ^ / ( ( / ^ Q ! ! ! ^ / / / ! Q / ! C Q ! / / ! / / / ( / / / / / / / Q / / / / / / / ! / ! ! ! ! ! / ^ ! / ! / / / / ",
"! ! ! ^ ! ( ( ( / ( / / ^ / ^ ! / / ! ! / ! ! / Q ! ! / ! / ! / / / / / / ( / / Q Q Q Q / / / / ! / ! ! ! ! ! / ! Q ! ( ! ! ! ! ",
"( ( ( ( | | | | | | | | | | | | [ ( [ [ ( [ ( ( ! ( [ [ ( [ ( [ ( ( / ( | ( ( | ( ( ( / ( ( ( ( [ [ [ [ ( [ [ [ / ! ( ( [ [ [ [ ",
"( ( / / | ( ( | | ( | | [ [ | ( [ [ [ [ [ [ [ ( / [ [ [ [ [ [ [ | { | ( ( ( { ( ( ( ( ( ( ( ( ( [ [ [ [ [ [ [ [ ( Q [ [ | | | | ",
"[ ( / ( ( ( | | | | | ( [ [ [ [ [ [ [ [ [ [ [ ( Q [ [ [ ( ( ( | ( | ( ( ( ( ( ( ( ( ( ( ( ( ( ( [ [ | | [ [ [ [ [ C [ [ | [ | | ",
"| [ [ ( ( ( ( | | | ( ( [ ( [ [ [ ( [ [ [ [ [ ( Q [ [ ( / / [ ( ( ( ( ( ( ( ( ( ( ( { ( ( ( ( ( ( | | | [ [ [ [ ( Q [ [ [ [ [ [ ",
"[ ( ( ( / / ( ( ( [ ( ( / / ( [ [ [ | | | | | ( Q [ [ [ [ ( [ [ | ( | ( ( ( | ( ( | ( | ( ( | ( [ [ [ [ [ [ [ [ ( ! [ [ [ [ [ [ ",
"[ | | | | ( ( [ [ [ ( ( ( ( ( [ [ ( [ | [ | [ ( Q [ [ [ | | | [ { ( ( ( ( ( ( { | | | | | | ( | [ [ | [ | | | [ / ! [ [ | | [ [ ",
"[ | | | | [ [ ( ( ( ( ( ( ( [ [ [ | | [ | | ( ( W e %           . X X X X * t ! | | | | | [ [ [ [ [ | | | | | | ( Q [ [ | [ | [ ",
"[ [ [ [ [ [ ( ( ^ ( ^ ^ ( | [ ( | | | | | | | ( T t * O O O O O O O O O O * t ~ [ [ [ [ [ [ [ [ [ [ [ [ [ [ [ [ ( ! [ [ [ [ [ [ ",
"[ [ [ ( [ | | | | | | ( ( | ( [ ( [ [ [ [ [ ^ N l u s d d d a a 8 1 1 2 1 6 t n I ^ [ [ | | | | [ [ [ [ [ [ [ [ [ ! [ [ [ [ [ [ ",
"/ / / / ( ( ( ( ( ( ( / ( / ( / ( / / / ^ ! z 3 , g 8.w.e.w.q.7.] R V E E m u = 3 z ! ^ ^ ^ ( ( ( / / / / / / / ! Q / / / / / / ",
"! ! / C / / ! ! / / ! / / / / / ! ! ! ! ! B 6 # - j g.v.n.v.z.h.t.:.-.,.>.} u @ + 5 B ! ! ! ! ! ! ! ! ! ! ! ! ! Q Q Q ! / ! ! ! ",
"( [ [ ! ( ( [ ( | ( ( ( ( ( ( ( [ [ ( ^ T x 2 ; f 6.h.x.b.c.l.f.y.>.-.,.,.%.I 6 * 1 x U ^ [ [ [ [ [ [ [ [ ( ! ^ ! ^ ! ^ [ [ [ [ ",
"[ [ [ ! ( [ [ [ { ( [ | | ( ( | [ [ ! c 0 9 h 5.0.a.u.i.p.p.t.r.2.+.O.O.+.o.{ Y p 7 2 q n ~ [ [ [ [ [ [ [ [ [ ( ( ( ( [ | | [ [ ",
"[ [ [ / ( [ [ [ ( ( ( ( ( ( ( { [ [ U 5 $ : 5.j.k.s.1.` ) ` #.` _ K K J L _ =.;. .p = & 4 I ( ( [ [ [ [ [ [ [ [ | | [ ( | [ [ [ ",
"[ [ [ C ( [ [ [ / / / ^ ( ( ( ( ^ ~ x > + a 9.k.l.i.#.Z Z A G S D F D D D L @.,.:.Y 6 @ = n T ^ ( | | | | | | | | | ( / ( ( ( | ",
"[ [ { C [ [ [ [ [ ( ( ( ( ( ( | u y t w u P 1.d.i.3._ A Z A A D D F D S D K X.@.=.{ I u r u t t | | ( | ( | ( ( [ [ [ ( ( ( ( ( ",
"| [ [ Q ( [ [ [ [ [ | | ( ( ( ( & * 2 m } *.&.$.#.` H D G S F F D F D F F H J L _ o.%.} P 6 * * ( | | ( ( ( ( ( ( [ [ [ | | | { ",
"| | [ Q ( [ [ [ [ | | [ ( ( / ( X O 2 E >.,.+.J D D D H F F F H H H H H H F D D K +.,.>.V < O X ( ( ( | ( ( ( ( ( ( [ ( ( ( ( ( ",
"[ [ [ C [ [ [ [ [ [ [ [ [ [ ( [ X O 2 ' 4.<.O.G A S F F F F H F H F F F F F D D K @.<.,.~ 2 O X { ( | ( | | | | | | ( / / ( ( ( ",
"[ [ [ ! ( [ [ [ | | | | [ [ [ { X O < E >.,.+.J D D F F H F F F F F H F H F D D K +.,.>.E 1 O X ( | | | | ( ( | | ( ( ( ( ( | | ",
"( / ( Q / / / [ ( [ ( [ ^ ( ^ ' X O 1 Y :.>.+.K D F F F F H F F F F F H H F D D K +.>.:.R < O . / / ( ( / / / / ( / / / / / ( / ",
"/ ! ! Q ! ! ! ! ! ! ^ ! ! ! ! ! X O < Y :.>.+.K F D F F F F F H F H F H F F D F K +.>.:.R < O . / / / / ! ! ^ ! / Q ! ! / / / / ",
"( ( ( ( ( ( ( ( ( ( ( ( [ ( [ ( X O < R :.>.+.K D F F H H F F H F H F J F F D F L +.>.:.R < O X [ [ ( [ [ [ [ [ / ! [ ( [ ( [ ( ",
"| | | | { | | ( ( { ( ( ( ( [ [ X O < R :.>.+.K F D F F F F H F F F F H F F D F K +.>.:.R < O X [ [ [ [ | | [ [ [ C [ [ [ [ [ [ ",
"( { | | ( ( ( ( ( ( ( ( / ( [ | X O < E >.,.+.K D D F F H F H F F F H F H H D D L +.,.:.E < O X [ [ [ | | | | [ / ! [ [ [ [ [ [ ",
"( | | | | ( ( ( ( ( ( | ( [ ( | o O 6 ' ,.4.@.J D D F F H F F F H F F H F D D D K @.4.4.' 2 O X ( [ [ [ [ [ [ [ [ C [ [ [ [ [ [ ",
"( | ( | { ( ( ( | | | | | | { ( o O < E ,.,.+.K D D F F F F H F F H F H F F D D K +.,.>.E 2 O o [ [ [ / [ [ [ [ ( C [ ( [ [ [ } ",
"| | | ( ( ( | ( | | | | | | | ( * * 6 m } %.o...L K F F H D F F F H D F F H J L ..o.%.} P 6 * & [ [ [ [ [ [ [ | ( / [ [ [ [ | [ ",
"| | { ( | | ( | | ( ( ( [ ( ( ( y y t r u M { =.@.X.K D D D D F D D D D D K X.@.@.{ M u 7 t t y [ [ [ [ [ | | [ ( / [ [ [ [ ( [ ",
"| ( | ( | | | | | ( { ( [ ( | | ^ ~ x , @ 6 Y ;.,.@.L D D D F D F F D D D L @.,.;.R 6 @ , l W ^ [ [ [ [ [ [ [ [ ( C [ [ [ ( [ [ ",
"( | ( ( | { ( | [ [ [ [ [ [ { ( [ [ I 4 % = p  .;.=...K K K K K K K K K K _ =.;. .p = % 4 I [ [ [ [ [ ( | ( { ( { Q [ [ [ [ [ [ ",
"( ( / / ( ( ( ( ( ( ( ( ( ( ' ! ( ( W z q 1 7 p Y { o.+.+.+.+.+.+.+.+.+.=.o.{ R p 7 2 0 v W ( ( ( ( ( ( / ( ( / ( Q ( ( ( / / [ ",
"/ / / / ! / / ! ! ! ! / ! ! ! ! ! ! ! C N i 1 = 6 M %.,.<.,.>.>.>.>.,.4.<.%.I 6 * 1 k B Q ! / / / / / Q / ! / / Q C / Q ! ! ! ! ",
"( ( / / ( ( ( ( [ | [ | | [ ^ [ ( ( ! ( ( U q % @ u } >.,.>.:.:.:.:.>.4.>.} u @ % q U [ ( ( ( ( ( ( ( ( ( / ( ( ( ( { ( / ( ( [ ",
"[ [ ( ! ( [ [ | | | | | | [ [ [ [ [ [ [ [ ^ v 5 , r P E ~ E R Y Y R E ' E m r , 3 z ^ ( ( ( ( ( [ [ [ | | | | | ( | | ( [ [ [ [ ",
"( [ [ / ( [ [ ( ( ( ( ( [ [ [ [ [ ( [ [ [ [ ^ I x t 2 < 6 < < 1 < < < 6 2 6 t x b T / / ( | | | [ [ | | | | | ( [ [ ( ( [ [ [ [ ",
"[ [ [ Q ( [ [ ( / ^ / ( [ [ [ [ [ [ [ [ [ [ | | ~ t * O O O O O O O O O O * t W Q / ( [ | | | | [ [ [ [ ( ( | ( [ ( / / / / [ [ ",
"[ | ( Q ( [ [ ( ( ( ( [ [ [ [ [ [ [ [ ^ ^ ^ ( ( ^ y * X X X X X X X X o X * y ^ Q / [ [ ( | ( ( ( [ [ [ ( / / / ( [ ( ( ( / [ ( ",
"[ [ [ Q ( [ [ [ [ [ ( ( ( ( ( ( [ [ ( / ( ( ( ( ( ( ( ( ( ( ( ( ( ( ( | | ( ( | / ( ( | ( ( ( ( [ | [ [ ( ( ( ( ( ( | ( | | | ( ",
"[ [ [ / [ [ [ [ [ [ / / / ( ( | [ [ [ [ ( ( ( ( | ( | | | | | | ( { | ( ( ( | | / ( | | ( ( ( ( [ | | | | | | | | ( | ( ( | | { ",
"| | | Q ( [ [ [ [ [ [ [ ( ( ( | [ [ ( ( ( / ( ( | ( | | [ [ [ [ | | | ( ( | ( ( Q / ( ( ( ( / ( [ [ | [ ( ( ( / ( ( | ( ( ( ( | ",
"| | [ Q [ [ [ [ [ [ [ [ ( ( ( ( [ [ [ ( ( ( ( ( | ( { ( [ [ [ ( | ( | ( | ( ( ( / / { ( ( ( ( ( [ [ [ [ ( ( ( ( ( | ( | | { | ( ",
"[ ( ( ! / ( ( ( ( / ( / ( ! ! / / ( ( ( ( ( ( / ( ( / ( ( ( ( ( ( ( ( ( ( ( ( / / / / ( ( ( ( ( ( [ ( ( ( [ ( ( ( / ( ( ( ( ( ( ",
"! / ! Q ! ! ! Q ! ! / / / ! ! ! ! / / ! ! ! ! ! / / / / / / / / ( / / / Q / / / W Q / / ( ( ( / ! ! ! ! ! ! ! ! ! Q / / / / ! ! ",
"/ / ( ( / ! ! ^ ! / ( ( ( ( ( / ( ( ( ( ! ! ( ^ Q ( ( ( / ( ( ( ( ( / / ( / ( ( ( ( / / ( ( ( ( ( ( ( ( ! ! ! ^ / Q ( ( ( ( ( / ",
"[ [ [ [ [ [ ( / ( ( | | | ( | ( | ( | ( ( ( ( ( / ( ( | ( | ( [ ( ( / / ( ( ( ( ( ( ( ( | | ( | [ [ [ [ [ ( ( ( ( / ( ( ( ( | ( ",
"( | ( ( | | | ( ( ( | | | | | | [ [ | | | | | ( ^ | | $.| | ( | ( ( | ( { ( ( | ( | | | | | { ( ( ( ( ( [ | | | ( / ( ( ( ( ( | ",
"| | ( ( | ( | | ( | [ ( [ [ | [ [ [ | [ ( | ( ( ^ ( ( ( ( | | ( | | | | ( | ( | ( ( ( | ( | ( | | ( ( / ( [ [ | / Q ( ( ( | | | ",
"` | ( ( ( ( ( | | | | | | ( ( ( [ ( [ ( [ ( ( / ~ ( ( | | ( ( { { | | | | ( | ( ( ( ( ( ( | ( ( { ( ( ( ( [ [ ( / Q / ( ( | | | ",
"| ( ( ( ( ( ( ( | | | | [ | ( { [ ( | | | ( / / ^ ( ( { ( | ( ( ( ( ( ( ( | ( { ( ( ( ( ( | ( | | ( [ [ [ | [ [ ( Q / / ( ( ( ( ",
"| ( ( [ ( | { ( ( ( ( ( ( ( ( | [ ( | | | | ( ( Q ( ( | | ( | { ( ( ( ( | | | | | ( ( ( ( ( ( ( ( | ( | | | | | ( Q ( ( | ( | | ",
"( | [ [ ( | ( ( ( ( ( ( / ( / ( [ [ { ( | { [ ( Q ( ( | | | | ( ( ( ( ( ( | ( { { | ( ( ( ( ( ( | ( { ( [ [ | | ( / | { | | | ( ",
"[ [ [ [ ( ( | | | ( { ( ( ( ( ( [ [ [ ( ( ( [ ( / [ ( | ( ( ( ( | ( ( ( ( ( ( ( ( | ( ( ( ( | ( ( | ( | | | [ ( ( / | ( | | | ( ",
"[ [ [ [ { ( | | | | ( ( ( | ( ( [ [ [ | ( | ( / / [ [ [ ( ( ( ( | ( / / ( ( ( ( ( ( ( { ( ( | ( | | | | | | [ ( ( / ( | ( | ( { "
};
