/* XPM */
static char *result[] = {
/* columns rows colors chars-per-pixel */
"64 64 140 2 ",
"   c #000404",
".  c #000608",
"X  c #00090F",
"o  c #0A0E0D",
"O  c #000910",
"+  c #091213",
"@  c #151716",
"#  c #1B1E19",
"$  c #221A11",
"%  c #221C19",
"&  c #25241C",
"*  c #28261D",
"=  c #2A291F",
"-  c #31261F",
";  c #292A24",
":  c #292F2E",
">  c #342B20",
",  c #4F3423",
"<  c #463A26",
"1  c #483C27",
"2  c #4B3D28",
"3  c #533723",
"4  c #573826",
"5  c #5C3D23",
"6  c #533E2A",
"7  c #5B3C2A",
"8  c #603D27",
"9  c #613F2A",
"0  c #53402A",
"q  c #5A422B",
"w  c #4A4234",
"e  c #65422C",
"r  c #69452E",
"t  c #654B2C",
"y  c #684A2A",
"u  c #734C2E",
"i  c #72542E",
"p  c #6A4630",
"a  c #6C4B30",
"s  c #724F33",
"d  c #6B5433",
"f  c #725334",
"g  c #7C5435",
"h  c #765834",
"j  c #7F5F35",
"k  c #7E6139",
"l  c #434A4D",
"z  c #504D4A",
"x  c #454D52",
"c  c #6E5744",
"v  c #7F6442",
"b  c #6B6360",
"n  c #707377",
"m  c #835634",
"M  c #8E5B37",
"N  c #895C3A",
"B  c #915F3C",
"V  c #85643B",
"C  c #8D633C",
"Z  c #9E663C",
"A  c #A26A3F",
"S  c #A96F3F",
"D  c #BB7F3E",
"F  c #E4662C",
"G  c #E56C36",
"H  c #EB763C",
"J  c #EF793E",
"K  c #F07533",
"L  c #F17C3E",
"P  c #81725E",
"I  c #A36B43",
"U  c #A96E43",
"Y  c #AE7244",
"T  c #A47844",
"R  c #AB7B45",
"E  c #B67442",
"W  c #B97642",
"Q  c #BD7A45",
"!  c #B27749",
"~  c #B4794C",
"^  c #BF7B49",
"/  c #C07C47",
"(  c #C27E4B",
")  c #E97D4E",
"_  c #F37F41",
"`  c #BA8349",
"'  c #AB8A65",
"]  c #C5814D",
"[  c #CA8D4D",
"{  c #C8904F",
"}  c #D39047",
"|  c #D2924C",
" . c #D8974C",
".. c #C68451",
"X. c #C89050",
"o. c #D39551",
"O. c #D79953",
"+. c #D89A53",
"@. c #F48243",
"#. c #F98A47",
"$. c #FF9746",
"%. c #FF954D",
"&. c #FF9A4B",
"*. c #F38C57",
"=. c #E49F56",
"-. c #FF9E52",
";. c #FFA354",
":. c #FFAB55",
">. c #F3A85B",
",. c #FCAD5C",
"<. c #FFB15D",
"1. c #D8A063",
"2. c #FFAB68",
"3. c #FFB760",
"4. c #FFBB63",
"5. c #FFBA71",
"6. c #FFC165",
"7. c #FFC277",
"8. c #8B8B90",
"9. c #A3988C",
"0. c #9DA2AB",
"q. c #9EA8B5",
"w. c #A4ABB8",
"e. c #DDB996",
"r. c #FFBA8A",
"t. c #F9B398",
"y. c #FEC48B",
"u. c #FFD38E",
"i. c #FFC1A7",
"p. c #FFDBB4",
"a. c #FFDDBC",
"s. c #DACBC4",
"d. c #F1D6C1",
"f. c #FFE3DE",
"g. c #E5E2E9",
"h. c #FFF8EF",
"j. c #EBEBF7",
"k. c #FFF0F1",
"l. c #F3F3FF",
"z. c #FFFDF9",
/* pixels */
"] ] ] Q ] ] ] ] ] ] ] ] ] ] ] ] ..( ..( ] ] ] ] ] ] ] ] ....( ( } ( ] ] ] ] ] ] Q ( ( ] ] ] ....] ] ( / ( / / ( ( ........( ....",
"..] ] Q ( ] ] ] ] ] ..] ..] ] ] ( ..........] ] ] ( ] ] ( ( ( ..( ( ] ] ] ] ( ] / ( ] ] ] ] ] ] ( ] ( ( ( ( ( ( ..( ( ........( ",
"....] Q ] ] ] ] ] ] ......] ] ] ] ..........] ] ] ..] ] ......( ) ....] ] ....] / ( ..( ] ] ] ] ] ] ] ] ......( ( ......] ] ( ..",
"] ] ] Q ( ] ] ( ] ] ] ] ] ] ] ] ( ( ..( ( ] ] ................( ..( ( ] ] ....../ ( ] ] ] ] ] ] ] ....................( ] ] ] ) ",
"] ^ ^ Q ( ] ] ( / ( ( ............( ( ( ( ( ( ] [ ( ..] ] ] ( ( ] ] ( ] ] ] ] ] / ( ] ..........] ] ] ] ..] ( ( ( ^ ^ ^ Q ] ] ] ",
"] ( ] Q ] ] ] ( ( ( ( ........] ( ....( ( ( ( ....( ( ( ( ( ( } ] ] ] ] ] ..] ../ ( ] ........( ] ( ( ] ] ( / ( ( ^ ] ] ] ] ] ] ",
"......Q ( ] ] ] ( ( ( ( ( ] ] ] ( ............( ( ( ( ( ( ( ( ( ] ] ] ........../ ( ..] ] ] ( ..] ] ] ( ] ( ( ( ] ] ] ....] ] ] ",
"] ] ] Q ( ] ......../ / / / ( ] ( ..( ( ^ ^ / / / ( ..( ( ( ( ( ] ] ] ] ..] ] ] / ( ( ] ] ( ( ( ] ] ( / / / ( ..] ] ] ] ] ] ( ] ",
"/ / / W W / ( ( ( / ^ W W W / / / / / Q Q Q Q W W Q / / / / / / / / / Q / / / Q D / / / ( / / / / / / Q Q Q / / Q Q Q / Q / Q / ",
"/ W ^ / / / / ( ( / / / ( / / ^ / / Q Q Q Q / / W Q Q / Q Q / / / / / Q / / / / D W W W W W W ^ Q Q / / W / Q / Q E Q Q Q / Q Q ",
"( ( ( ( ........................] ] ] ( ( ( ] ( Q ( ] ] ( ( ( ] ] ] ( ( ] ] ] ( / / / / ( ( ( ( ( ( ] ( ( ] ( ] ( Q ] ] ] ] ] ] ",
"( ( / ( ( ....( ..( ......] ..( ] ] ] ] ] ] ] ( / ] ] ] ] ] ] ] ] ] ] ] ] ] ] ..( ( ( ( ( ( ( ( ] ] ] ] ] ] ] ] ^ W ] ] ........",
"] ( ( ( ( ( ..........( ] ] ] ] ] ] ] ] ] ] ] ( W ] ] ] ( ( ( ..] ] ] ( ( ( ( ( ( ( ..( ( ( ( ( ] ..] ....( ] ] / D ] ] ..] ....",
"] ] ] ( ( ( ( ......( ( ( ( ] ] ] ] ] ] ] ( ..( Q ( ] ( / ( ( ( ] ] ( ( ( / / ( ( ( ( ..( ( ( ( ( ........] ] ] ( W ] ] ] ] ] ] ",
"( ( ] / ( / ( ( ( ..( ( / / ( ] ] ] ..........( Q ] ] ] ( ] ( ..] ] ( ( ( ( ] ] ( ( ..( ( ( ..( ] ] ] ] ] ] ] ] ( W ] ] ] ] ] ] ",
"..........( ( ( ] ] ( ( ( ( ( ] ( ] ( ] ....] / W ] ] ] ........] ] ( ( ( ] ..( ) ..........( ..] ] ............( W ] ] ....] ] ",
"] ..........( ( ( ( ( ( ( ( ] ( ....] ..] ..] ( Y u $         . X X - m ( ( ] ( ......] ..] ] ] ] ] ....] ....] ( Q ] ] ......] ",
"] ] ] ] ( ..] ( / ( ( / ( ....( ] ............( Y s & + + + + + + + - g ~ ( ( ] ] ] ] ] ] ] ] ] ] ] ] ] ] ] ] ] ( Q ] ] ] ] ] ] ",
"] ] ] ( ] ......] ] ..] ( ( ] ] ] ] ] ] ] ( W I N c z x x x l w w 1 0 i B U W ( ] ] ] ] ........] ( ] ] ] ] ] ( ] Q ] ] ] ] ] ] ",
"/ / / / / ( ( ( ( ( ( / ( ( ( / / / / / / S m 5 2 b 8.q.w.w.0.9.' T M y 6 e M E Q Q ] ^ ^ ^ ( ( ( / ( ( / / / / Q W / / / / / / ",
"/ / W D / / / Q / / Q Q / / / / Q Q Q Q Q A 5 $ : n s.g.l.j.g.d.y.>.D y # * r S E W Q Q ~ ^ ^ ^ / Q Q Q Q Q Q Q Q W W Q / Q Q Q ",
"( ( ( D ( ( ( ( ] ] ( ] ( ( ( ( ] ] ] ] ( A , o : n s.h.z.k.f.a.u.4.} i # @ 9 E Q ( ] ] ....( ( ( ] ] ] ] ( / / Q Q ^ / ] ] ( ] ",
"( ( ] / ( ] ] ] ] ] ] ] ] ] ] ] ] ] ] ] ] A 3 o ; P e.p.p.i.t.r.7.4.| f # @ e Y Q ( ] ........( ] ] ] ] ] ] ( ( ( ( ( ] ....] ] ",
"( ..] Q ] ] ] ] ( ( ( ( ( ( ] ..] ] ] ] ] I 4 @ ; v 1.5.2.*.) %.,.<.{ d # % y ! W ] ..] ) ( ( ( ] ] ] ] ] ] ] ..] ..] ( ] ] ..] ",
"( ..( / ( ] ] ] ( ( ( / ( ( ( ( ] ........U 7 @ ; j  .:.$.K F L ;.,.{ d # % y ! W / ( ( ( ( ( ( ( ..................( ( ( ( ( ( ",
"..( ( W ( ] ] ] ( ( ( ( ( ( ..( ] ] ] ] ..I 7 @ ; j  .:.$.K F L ;.<.{ d # % r U E / ( ( ( ( ........( ..( ..( ( ..( ] ( ( ( ( ..",
"( ( ( / ( ] ( ..( ....( ( ( ( ( ( ( ( ( ( U q @ * k O.,.&.L G @.;.,.{ d # % r Y D / ( ..( ......( ( ..( ( ( ( / ( ] ] ..] ....( ",
"..( ( D ( ] ..( ( ......( / / ( ( / / ( ( I 9 @ * k O.<.;.L G @.;.<.{ d # % p U / ( ....( ( ( ( ( ..( ..( ( ( ( ( ( ( ( ( ( ( ..",
"( ..( W ( ( ( ....] ] ] ( ] ( ] ( ( ] ] ( I 7 @ * k O.<.;.J G @.;.<.{ d # % r U E / ( ( ( ( ( ( ....( } ............( / / ( ( ..",
"..( ( / ( ( ] ( ..........] ] ( ] ..] ( ] I 7 @ * k O.<.;.J G @.;.,.{ d # % p U / ( ( ( ( ( ( ( ..( ( ( ( ( ........( / ( ( ] ] ",
"( ( / W ( ( ( ( ( ( ( ( ( / / / ( ( ( ( / Z 4 @ * k O.<.-.L G @.;.<.X.d # % r U W / / / ( ( / / / / ( ( / / / / / / / / / / ( ( ",
"( / / W / / / W / / / / / / / / Q Q Q Q Q Z 4 @ * k O.<.-.J G @.;.<.X.d # $ r S W W / / / / W / / / / / / W / / W / Q Q / / / / ",
"] ( ] ] ] ( ( ( ( ( ( ( ( ( ( ( ] ( ] ( ( I 6 @ * k O.<.-._ G @.;.<.X.d # % y Y ] ] ] ] ] ` ( ( ( ( ( ( ( ] ( ] ( / ( ( ( ( ( ( ",
"] ] ] ] ] ) ..( ] ..( ( ( ] ] ......] ..] I 7 @ * k O.<.-._ G @.;.<.X.d # % p ! ....] ^ / ( / ( ( ..........] ] / Q ( ....} ( ( ",
"] ] ..] ] ] ( ( ( ] ( / / ( ] ] ..........I 7 @ * k O.<.-.J G @.;.,.X.d # % p ! ....] ^ / ^ ^ ^ ( ..] ........] / D / ( ..( ( ( ",
"] ........( ( ( ( ( ] ( ] ] ] ] ] ] ] ] ( I 7 @ * k O.,.-._ G @.;.3.X.d # % p Y ] ] ] ] / / ^ ^ ( ] ] ] ] ] ] ] ( Q ( ( ( ..( ..",
"] ] ] ....( ( ( ..............] ] ( ] ] ] I 7 @ ; k O.<.-._ G @.;.<.X.d # % r Y ] ] ] ] ] ] ] ] ( ..( ] ] ] ( ] ( W ] ] } ......",
"] ] ] ] ( ( ....] ......( [ ] ( ] ] ] ] ..I 7 @ & k O.<.-.J G @.;.<.X.d # % p ! ..] ] ] ] ] ] ] ..( ] ] ] ] ..] ( W ] ] ( ) ....",
"....] ] ....( ( ( ( ( ( ] ( ] ] ] ........I q @ * k O.<.-.J G L ;.<.X.d @ % p ! ............] ] ] ] ] ] ] ......( Q ( ] ( ..( ( ",
"] ] ] ] ..........} ( ] ] ( ] ] ] ] ] ] ] I 7 @ * k O.<.&.J G @.;.,.X.d # % p Y ] ] ] ] ] ] ] ] ] ] ] ( ] ] ..] ( W ..( ..( ..( ",
"] ] ] ] ] ] ] ] ..( ( ] ] ] ] ] ] ] ..( ] I 4 @ * k +.<.;.@.H #.:.<.X.d # % r Y ] ] ] ] ] ] ] ] ] ] ] ] ] ] ] ( ( Q ..( ] ] ] ] ",
"^ ( Q ] ] ` ( ( / / ( ( ( ( ( ( ( ( / W / I 4 + = V =.4.<.;.%.;.3.4.o.f # @ 9 U ( ( ( ( ^ ( ] ^ ( / ( / ( ( ( / / Q ( ( ( ( ( ( ",
"Q W Q Q W Q / Q / / / / / / Q Q Q Q W D D B , + ; V =.6.6.<.<.4.6.4.o.f & @ 8 I W W Q Q Q Q Q Q / Q Q Q / Q / / W D W W Q Q / / ",
"] ] ] W ( ] ( ] ..] ( ....( ( ( ( ( ] / / I 9 % & h { >.<.,.>.>.3.>.` t % % s E Q / ( ( ( ] ( ( ] / ( ( ( ( ( ( ( ( / ( ( ( ( ( ",
"] ..( / ] ] ] ] ..........] ] ] ....( ..( ! M 7 2 a I T R T T R R T C a 0 e N ~ Q Q ( ( ( ] ] ] ] ] [ ( ........( ....( ] ] ] ] ",
"( ( ] W ] ] ] ] ( ( ( ( ] ] ] ] ( ( ] ..( ( ~ I I a 1 < 2 1 < 1 2 1 q f I U ^ ( W Q ( ^ ] ] ( ..] ] ..........( ..( ( ( ( ( ] ] ",
"] ] ( W ( ] ] / ( / ( ( ] ] ] ] ..( ( ( ( ( ( ..~ f ; + + + + + + + > g ~ ..] ] W ^ ] ] ] ........] ..( ( ( ( ( ( ( / / / / ] ] ",
"] ..( D ( ] ] ( ( ( ( ( ] ] ] ] ( ..( ( ( ( ( ..^ g % O O O O O O O > m ^ ] ` ] W Q ] ] ] ..] ( ( ( ] ( / ( ( ( ( ..( ( ( ( ] ] ",
"] ..] Q ( ] ] ] ] ] ( ( ( ( ( ..] ] ( ( / / ( ( ..( ( ( ( ( ( ( ( ....( ( ( ..( / / ] ] ] ..( ( ( ( ..( ( ( ( ^ ( ..] ] ] ..] ] ",
"] ] ( Q ] ] ] ] ] ] ( / / / ( ( ] ] ] ] ] ( ( ( ( ............] ( ( ....( ( ..../ / ] ] ( ( ( ( ..[ ..................( ] ....] ",
"......Q ( ] ] ] ] ] ] ( ( ( ( ..] ] ] ( / ( / ( ..( ..( ] ] ] ] ....( ( ..( ( ..D / ] ] ( / / ( ( ....( ( ^ ( ^ ^ ] ] ] ] ] ] ] ",
"..] ( Q ] ] ] ] ] ] ] ] ..( ( ( ] ] ] ( ( ( ( ( ( ..( ..] ] ] ] ] ) ....( ..( ( W / ] ..( ( / ( ....( ..] ( ( ^ ( ] ] ] ] ] ] ] ",
"( ( ( Q / ( ( ( ( ( ( ( ( / W ( ( ( ] ] ( ( ( ( ( ( / ( ( ( ( ( / ( ] / ( ( ( ( / / ( ( / ( ( / ( ( ] ] Q ] ] ( ( W ] ( ( ( ] ( ",
"Q / Q W Q Q Q W Q Q / / W / / W Q Q W Q Q Q Q Q / / / / Q / Q / Q Q Q W / W W / E W / / / / / Q / / Q Q Q W W Q W D Q Q Q Q Q Q ",
"/ ( ( ( / Q Q ^ Q / ( ( ( ( ( / ( ( ( ( Q ^ ^ W Q ( ( ( / ( ( ( ( ( Q Q / / ( ( ( ( / / ( ( ( ( ( Q ] Q ^ Q Q ^ ( Q ( ( ( ( ( ( ",
"] ] ] ] ] ( ( ( / ( ] ....( ..] ] ] ..( ( ( ( ( Q ( ] ] ] ] ] ] ] ] ( ( ( ( ( ( ..( ( ( ......( ( ) ] ] ] ] ( ] ( Q ] ( ( ( ] ] ",
"..( ..) ( ( ..( ( ] ............( ] ..........( W ..........] ] ] ] ] ] ] ] ] ................( ..( ( ( ........( / ( ( ( ( ( ..",
"( ..( ( ( } ( ..] ( ] ] ] ] ] ] ] ] ] ] ] ..] ( / ..] ] ] ] ] ] ........] ] ] ] ( ( ..( ......( ] ( ( / ( ] ] ] / W ( ( ( ......",
"..( ( ( ( ( ( ....] ....] ] ( ] ] ] ] ] ] ( ( / W ] ] ] ] ] ] ] ] ] ] ] ] ] ] ] ( ( ( / ( ......] ( ( ( ( ( ] ] / W / ( ( ......",
"( ..( ( ( ( ( ..........] ] ] ] ] ] ] ] ] ] / ^ W ( ] ] ] ] ] ] ] ] ] ] ] ] ] ] ( ( / ( ( ( ( ( ] ] ] ] ] ..] ] ( W / / ( ( ( ( ",
"..( ..( ( ( ..( ( / ( ( ] ( ( ] ] ] ] ....] ] ( W / ......] ] ] ] ] ] ] ] ........] ] ( ] ^ ^ ) ] ] ( ..........( Q ] ( ..( ....",
"( ..( ..( ( ( ( ( ( ..( ( ( ( ( ] ] ] ] ] ] ] ( Q ( ] ] ] ] ] ] ] ] ] ] ] ] ] ] ] ] ( / ^ ( ( ( ] ] ] ] ] ] ....( / ] ] ......( ",
"] ] ..( } ( ....( ....( ( ( ( ( ] ] ] ] ] ] ] ( / ] ( ] ( ] ( ( ] ] ( ( ( ( ] ^ ] ] ( ( ( ( ( ..( ( ] ....] ] ( ( / ] ] ........",
"..] ] ..( ( ........( ( ( ..( ( ] ] ] ] ] ] ( ( / ] ] ] ..( ^ / ( ] ^ Q ^ ^ ^ ^ ( ] ] ( ] ] ..( ..[ ........] ( ( / ] ( ..( ..( "
};
