/* XPM */
static char *result[] = {
/* columns rows colors chars-per-pixel */
"64 64 208 2 ",
"   c #00070C",
".  c #030C0D",
"X  c #110F0E",
"o  c #07100F",
"O  c #020D13",
"+  c #080F10",
"@  c #031314",
"#  c #0C1414",
"$  c #0C191A",
"%  c #131615",
"&  c #141916",
"*  c #1A1C16",
"=  c #131619",
"-  c #151B1C",
";  c #1C1D19",
":  c #211714",
">  c #231C19",
",  c #1F201C",
"<  c #24231C",
"1  c #2B241D",
"2  c #33251D",
"3  c #3B251D",
"4  c #35291C",
"5  c #392D1F",
"6  c #161D24",
"7  c #1B1F20",
"8  c #0B2525",
"9  c #1D2323",
"0  c #192927",
"q  c #232522",
"w  c #292A27",
"e  c #24262A",
"r  c #252B2A",
"t  c #2C2C2C",
"y  c #352D22",
"u  c #3A2E21",
"i  c #312F2F",
"p  c #2B312D",
"a  c #3B3429",
"s  c #2A2A31",
"d  c #292A33",
"f  c #332F3C",
"g  c #2E3B33",
"h  c #353335",
"j  c #373935",
"k  c #34313D",
"l  c #393639",
"z  c #3C393C",
"x  c #4A251A",
"c  c #66271D",
"v  c #402B22",
"b  c #552821",
"n  c #443423",
"m  c #4B3523",
"M  c #4D3925",
"N  c #493828",
"B  c #533B25",
"V  c #573C27",
"C  c #533E2A",
"Z  c #433A3E",
"A  c #533631",
"S  c #652D21",
"D  c #653723",
"F  c #733023",
"G  c #6F3E32",
"H  c #3A403C",
"J  c #3A493F",
"K  c #57412C",
"L  c #5C432C",
"P  c #4C4431",
"I  c #63452D",
"U  c #69472C",
"Y  c #724A2E",
"T  c #6D4E3A",
"R  c #7C4039",
"E  c #755134",
"W  c #7B5432",
"Q  c #7E5837",
"!  c #2D2E41",
"~  c #353342",
"^  c #3A3542",
"/  c #3C3945",
"(  c #393B48",
")  c #433B44",
"_  c #403F49",
"`  c #513C41",
"'  c #3D4C42",
"]  c #3A5147",
"[  c #3F5349",
"{  c #464244",
"}  c #494246",
"|  c #424D44",
" . c #434148",
".. c #4C454A",
"X. c #4E4B4C",
"o. c #554344",
"O. c #524B4D",
"+. c #4B554B",
"@. c #4D5A4C",
"#. c #565A4D",
"$. c #574F51",
"%. c #4E5955",
"&. c #535552",
"*. c #5B5354",
"=. c #545B55",
"-. c #595D55",
";. c #5A5F58",
":. c #614846",
">. c #7F4540",
",. c #67584D",
"<. c #7A5F50",
"1. c #556657",
"2. c #596057",
"3. c #53655B",
"4. c #5B6259",
"5. c #55695C",
"6. c #5C6D5D",
"7. c #5D705E",
"8. c #72604F",
"9. c #6B6857",
"0. c #616D5D",
"q. c #7D6451",
"w. c #64715E",
"e. c #6D775F",
"r. c #797052",
"t. c #5E6E60",
"y. c #557363",
"u. c #5F7260",
"i. c #5D7A66",
"p. c #606F60",
"a. c #617562",
"s. c #657966",
"d. c #6F7961",
"f. c #697D68",
"g. c #717B62",
"h. c #893A28",
"j. c #9E3C2D",
"k. c #A23929",
"l. c #B93D29",
"z. c #8D453A",
"x. c #9A4C3A",
"c. c #895C36",
"v. c #8C5E39",
"b. c #935D34",
"n. c #AD4829",
"m. c #A54E3E",
"M. c #AD503C",
"N. c #B95838",
"B. c #8F603A",
"V. c #966137",
"C. c #94633D",
"Z. c #99663D",
"A. c #9B683E",
"S. c #A4683C",
"D. c #B06B3C",
"F. c #AB703D",
"G. c #B3753F",
"H. c #CA4D34",
"J. c #D85734",
"K. c #E85735",
"L. c #F55935",
"P. c #C6713A",
"I. c #E26A3E",
"U. c #FF6339",
"Y. c #EC7C3E",
"T. c #8D5F46",
"R. c #965A43",
"E. c #A05944",
"W. c #946640",
"Q. c #9D6446",
"!. c #9E6941",
"~. c #9F7447",
"^. c #866552",
"/. c #877957",
"(. c #A46D42",
"). c #A96E42",
"_. c #AA7147",
"`. c #AD7245",
"'. c #B47443",
"]. c #B97642",
"[. c #BD7A45",
"{. c #B67748",
"}. c #BD7B49",
"|. c #DF6A42",
" X c #C07C47",
".X c #CA7E47",
"XX c #C27E4B",
"oX c #DE7041",
"OX c #EC7940",
"+X c #FB7841",
"@X c #FF7946",
"#X c #9A845C",
"$X c #A38B5F",
"%X c #BC8451",
"&X c #AB8E60",
"*X c #CF8146",
"=X c #C5814D",
"-X c #D6804A",
";X c #C68451",
":X c #CF8B52",
">X c #D79455",
",X c #E4864A",
"<X c #FF8847",
"1X c #E9924D",
"2X c #F8954E",
"3X c #EB9D5A",
"4X c #FF9A52",
"5X c #F0A05A",
/* pixels */
"=X=X=X[.XX=X=X=X=X=X=X=X=X=X=X=X=X=X=X=X=X=X=X=X=X=X=X=X=X=X=X=X=X=X=X=X=X=X=X=X X=X=X=X=X=X;X=X=X=X=X[. X}.[.XX;XXX:X;X;XXX;XXX",
";X=X=X[.=X=X=X=X=X=X;X;X;X=X=X=X=X=X;X;X;X=X=X=XXX=X=X=X=X=X=X=X=X=X=X=X=X=X=X=XG.=X=X=X=X=X=X=X=X=X=X XXXXXXXXX;X;XXX;XXX;XXX:X",
";X;X=X[.XX=X=X=X=X=X;X;X;X=X=X=XXX;X;X;X;X;X=X=X;X=X=X=X=X=X;X=X=X=X=X=X=X=X=X=X[.=X=X=X=X=X=X=X=X=X=X=X;X;X;XXXXX;X;X;X:XXXXXXX",
"=X=X=X[.XX=X=X=X=X=X=X=X=X=X=X=X=X=X;XXX=X=X=X;X;X;X;X;X;X;X;X=X=X=X=X=X=X;X;X:X}.=X=X=X=X=X=X=X=X=X;X;X;X;X;X;X;X;X;XXXXXXXXX:X",
"=X}.XX[.XX=X=XXX X X=X=X;X;X;X;XXX=XXX X X}.XX=X;X=X=X;X=X=X;XXX=X=X=XXXXX=X=X=X[.=X=X;X;X;X=X=X=X=X=X=X=X=XXXXXXXXXXXXXXXXXXX:X",
"=XXXXX[.XX=X=XXXXXXXXX;X;X;X;X=XXX;X;XXXXX=X=X;X=X=XXXXXXXXXXX=X=X=X=X;X;X;X=X;X[.}.=X=X;X=X;X=X=X=X=X=X=X=X XXXXXXXXXXXXXXXXXXX",
";X;X;X[.=X=X=X=XXX;XXXXXXX=X=X=XXX;X;X;X;X;X=X=X=XXX=X XXXXXXXXX=X=X=X;X;X;X;X;X[.=X=X=X=X=X=X=X=X=X=XXX=XXXXX=XXXXXXX;X;XXXXX;X",
"=X=X=X}.XX=X=X;X;X;XXX}. X[..X=X=XXX;XXXXX}.}.}. X X=X=XXX=XXX.X=X=XXX=X;X=X=X=X[.=X=X=X=X=X=X=X=X=XXX[.}. XXX=XXXXX;XXX;X:XXXXX",
" X X X].[. XXXXX X X[.[.].[.[.[.}.[. X X[.G.[.[.].[.[.}. X X X X X X X X}.}.[..XG. X X X[.{.'.'.'.'.'.G.'.'.[.}.XXXX X X X X X X",
"[.[.[. X}. X XXXXX XXXXXXX}. X}.[.}.[.[. X X[.].].[.[.[.[.[.[.[. X X X[.[.[.%XG.G. X XG.S.V.B.c.B.V.v.B.C.S.`.[.}.].XXXX X[.[.[.",
"XXXXXXXX;X;X;X;X;X;X;X;X;X;X;X;XXXXX=X.X=X=X=X=X[.=X=X=X=X=X=X=XXX=XXXXX=X=X=X=XXX[. X].v.K u 5 u n a u B E (.}.XX[.XXXX;XXXXXXX",
"XXXX XXX=XXX;XXXXX;X;XXX;X=X;XXX=X=X=X%X}.}.}.].G.}.}.[.[.[.}.}.}.}.}.[.[.[.[.}.{.XX[.).Y 4 * & ; * * & < K !.}.XX].XXXX;X;X;X;X",
"=XXXXXXXXXXX;X;X;X;X;XXXXX=X=XXX=X=X=X'.S.Z.Z.Z.V.A.A.A.Z.Z.A.A.A.A.Z.Z.Z.Z.Z.Z.(.(.S.v.C q 9 9 9 7 ; $ & n Z.}. X].=X=X;X;X;X;X",
"=X=X=XXXXXXXXX;X;X;XXXXXXX=X=X=X=X=X}.V.I n n m n M B m m m M m M M M m m m m m m B m N y h l z j h r - ; n !.}.XX[.=X=XXX=XXX.X",
"=XXXXXXXXX XXXXXXX;XXXXX X XXX=X=X}._.E 4 ; * * ; < ; ; < ; ; ; > > ; < ; < ; < : ; ; < h Z ......) i 9 ; n Z.}. X[.=X=X=X=X;XXX",
"=X;X;X;X;XXXXXXX=X=XXXXXXXXXXX=X%X_.B.K w 0 0 9 9 9 9 q 0 q 0 q 9 0 q 0 9 9 9 9 9 9 9 r j { O.*.$.} j 7 - y Q (.).[.=X=X;X;X;X=X",
"=X;X;X;X;X=X=XXXXXXXXXXXXX;X;X}.Z.U M j H J [ J J J J J J J J J J ' J J J J J J ' J J ' | ..O.$.*.O.h 7 # ; n L U ].=X=X=X;X;X=X",
"=X=X=X=X=X=X=XXX X}.}. XXXXX}.`.U y 9 g @.1.7.1.1.4.1.1.1.1.1.1.4.1.1.1.1.1.1.1.1.1.1.2.&.O...O.O.} h - # # ; < < }.=X=X=X=X=X;X",
"=XXX=XXX=X;X;X;X;X;X;X=X=XXX`.v.N 9 p ' 6.s.f.s.a.a.s.a.s.s.a.a.a.a.a.a.s.a.a.s.s.s.s.0.-.O.o.} ) z i q - = $ # % [.=X=X=X=X=X=X",
"XX X.X[. XXXXXXXXX X%X}.[.b.Y C a g ' 1.u.f.f.s.s.s.s.a.s.s.s.s.s.s.s.s.s.s.s.a.s.s.s.a.4.O.) l s t t s t q - = # ].}.[. X X X=X",
"].[.[.].[.[.[.[.[.[.[.].S.I 4 q H @.6.u.w.a.a.a.a.a.a.a.a.a.a.a.a.a.a.u.u.a.a.a.u.a.a.u.2.O.Z t , - e z Z h 7 # @ ].[.[.G.}.[.[.",
"=X=X=X[.XXXX=X=X=X=X}.`.B.a , r J 6.s.f.a.u.u.u.u.0.u.u.u.u.u.u.w.u.u.u.u.w.u.u.u.i.w.6.4.&...p 7 - r { ..z 9 % . [.[.[.*X=X=X=X",
"=X=X=X[.XX=X=X=XXX'.Z.E K y r j @.7.f.s.w.u.u.u.u.u.u.u.6.a.0.u.u.u.u.a.u.u.u.u.u.w.u.u.6.-.O.H p t z X.O.Z q # . XXXX=X;X;X=X=X",
"=X;X=X].=X=X=X=X}.A.L 5 q r z ..1.7.w.i.a.u.u.u.u.u.u.u.u.w.u.u.w.u.u.u.u.u.u.u.u.u.u.u.u.u.4.@...{ } O...z 9 # + ;X=X=X;X=X=X=X",
"=X=X=XG.XX=X=X=X{.v.u ; 7 h } *.4.u.a.u.u.u.u.u.u.u.u.u.u.u.u.u.u.u.u.u.u.u.u.u.u.u.u.u.a.u.u.=.X.} ) ..) h 9 # # =XXX}. XXXXX;X",
"=X=X.XG.XX=X=X=X[.B.5 & q h ..*.4.u.i.a.u.u.a.u.u.w.u.u.u.u.u.u.u.u.u.u.u.w.u.u.u.a.u.w.s.s.u.@.H h h j h r - # # =X=XXXXXXXXX=X",
";X;X=X].XX=X=X=X}.Z.n ; 7 h } #.4.w.a.w.u.u.u.u.u.u.u.u.u.w.u.a.u.u.u.u.u.u.u.u.u.u.u.a.s.f.6.' w - = - ; - & $ # =X=X=X=X=X=X=X",
";X;XXX].XX=X=X=X{.W.n ; - h } $.2.6.u.i.u.u.u.u.a.u.u.w.u.u.u.a.u.u.u.u.w.u.u.w.u.u.u.u.a.a.1.J 9 # o # # # * ; ; =X=XXX=XXX=X=X",
"=X=X=X].XX=X=X=X{.W.n ; , h } O.-.2.5.6.u.y.i.u.a.s.s.u.i.u.y.y.u.y.u.a.a.a.a.s.a.i.y.7.6.6.=.{ t - % # # * 5 n C ;XXX X XXXXX=X",
"=X=X=X].XX=X=X=X%XW.N ; 9 h ) O.O.O.&.2.y.i.i.s.s.s.s.s.i.i.y.y.y.y.i.i.s.s.f.s.s.i.i.y.3.=.X...{ j r = & 4 E Z.(.;X=XXXXXXX=X=X",
"XXXX X]. X XXX=X{.C.n * - h { O.O...O.-.4.w.w.7.6.6.6.7.6.0.w.w.a.0.w.u.6.6.6.6.6.w.0.0.-.O...O...{ h 7 ; n B.'.}.}. X XXXXXXXXX",
"[.[.[.].[.[.[.[.'.B.n * 9 h { X.} ) ..,.q.q.,.+.[ ] [ +.#.8.^.^.^.q.8.#.+.[ ] [ +.,.q.<.,.} ) ..O...h 9 ; n Z.].[.].[.[.[.[.[. X",
"=XXX=XXXXX=XXX=X{.C.n > 9 h  ..._ ) ` >.m.x.U y 8 8 0 p C z.M.N.N.M.z.C p 8 8 8 p G x.x.R ` ) _ ....l 9 ; m Z.}.}.[.=X=XXXXX=X.X",
"=X=X=X=X=X=X=X=X}.Z.n ; 9 h { ..( ~ ` h.H.H.h.4 $ @ @ * b j.H.K.K.H.j.b - @ @ $ 4 h.H.H.z.` ^ ( .._ l 7 ; N Z.}.=X].=X=X=X=X=X=X",
"=X=X;X=X=X=XXXXX{.C.n ; 9 h } ..( ! ` E.H.J.n.D 4 % . X x n.K.U.U.K.n.x X . % 4 D n.J.J.x.` ! ( ..} h 7 ; N W.{.}.G.=X=X=X=X=X=X",
"=X;X;X;X;X=X X}.'.C.n ; 7 h }  .( ~ P m.I.Y.Y.P.b.B X + x N.Y.<X<XOXN.x X X B b.P.OX+XoXR.` ! ^ ..} h 7 ; n W.}.=XG.=X=X=X=X=X=X",
"=X=X=X=X=X=X=XXX{.W.n 9 9 h } ..( ~ ` R.*X2X4X2XP.W < * n D.,X4X2X1XF.M * 1 c.P.2X4X2X-XR.o.~ ^ ..) j 7 ; n C.{.XX].=X=X=X=X;X;X",
"=X;X=X=XXX=X=X=X}.W.n ; 7 j } ..( ^ ` ^.=X>X5X5X>XC.H w P ~.>X3X3X>XF.P w H B.:X5X5X1X%X^...^ _ ..} l 9 * n W.}..XG.=X=X=X=X=X;X",
";X;X=X=X=X;X=X=X{.B.5 & 9 l ..O._ _ O.9./.$X&X&X#Xr.P @.#./.#X&X$X#Xr.#.P @.r.#X$X&X$X/.8.X.) } $.} l 9 - y W.{.XX].=X=X=X=X=X=X",
"=X=X=X=X;X;X;X;X%XC.n ; < l } O.O...O.*.e.e.g.g.e.w.7.y.6.a.s.d.e.s.e.7.y.7.w.e.g.g.e.w.-.O.....O.} h 9 * n C.}.XX].=X=X=X=X=X=X",
"=X=X=X=X=X=X=X=X}.!.L y q h z ) ` O.X.=.3.5.5.y.y.t.t.p.t.y.y.%.1.y.5.7.p.p.t.5.y.3.3.3.=.O...} { Z i q y L !.}.=X].=X=X=X=X=X=X",
"XX=X X=X=X=X}.=X}.'.Z.E K a t h ) O.$.&.%.%.%.%.%.=.-.;.-.&.%.%.@.%.%.1.;.;.=.%.%.%.%.%.&.$.X.) h t a K E C.'.}. X].XX.XXX X X=X",
"].].[.].].[.[.[.}.[.{._.c.N < q f } O.O.O.X...X.X.O.O.O.X.O.X.X.X.X.X.X.O.O.....O.O.X.X.O.O.} f 9 < m c.F.].}.[.].].[.G.[.[.[.[.",
"=X=XXX[.=X}.=X=XXX;XXXXX(.C * $ r l ) ..} } } ) ` ..) ) ) ..} } } } } } ....) ` } ) ..) { { l d = * B (.}.XXXXXX=X X=X%X XXX=XXX",
"=X=X=X[.=X=X=X=XXX;X;X;X{.V * @ 6 6 s f ^ ) ) ) ) ) ^ ) ) ) ) ) / ) ) ) ) ) ) ) ) ) ) ^ f t 0 $ @ * K '.;X;X;XXX=X=X=X=X=X=X=X=X",
"=XXX=X[.=X=X=X%XXXXXXXXX).C * # @ # 6 e k ^ / ^ ^ ^ ^ ^ k ~ ~ ^ ~ ~ ^ ~ ^ ~ ^ ^ ^ / ) k e 6 # O @ ; K _.XX;X;XXXXX=XXXXX=X=X=X=X",
"=X=XXX]..X=X=X X}.[.}.`.C.V 2 : : * > t k ^ ^ ^ ^ ^ ^ ^ ^ ^ / ^ ^ / ^ / ~ ~ ~ ^ ^ ^ ^ k e > : : : 2 K C.`.XXXXXX=XXX X X}. X=X=X",
"=X=X=XG.XX=X=X X}.'.W.E I D S c c c b A ) ( ^ ^ ~ ^ ) ) ) ) ) ) ) ) ) ) ) ) ^ ~ ^ ^ ( ) A b c c S S D I E C.'.}.XX=XXXXXXX X=XXX",
"=X;X=X[. X=X=X=X}.!.L y x F k.l.l.l.j.G ` ` ( ^ ~ / ) ..} O...} ..........) ) ~ ^ ( _ ` G j.l.l.l.k.F u u V Q.}.}.;X=X=X=X;X;X=X",
"=X=XXX[.=X=X=X=X}.C.u ; y h.H.L.L.K.H.R.:._ ( ^ ^ / ) ..} } } } } } } } ..) ^ ^ ^ ( ..:.E.H.K.L.L.H.h.3 ; u W.}.;X;X=X=X=X;X;X=X",
";X;X=X].=X=X=X=X{.B.y # x b.|.@X@X@X|.R.:._ ~ ~ ~ / ) } ) l h h h h l ) ) ) ) ~ ~ ~ _ :.R.|.+X@X+XI.x.v % 1 v.{.}.=X=XXX=X=X=X=X",
";X=X=X[. X=X=X=X{.B.2 = a m.,X4X4X2X,XQ.o.^ ! ~ ~ ^ ) / h r - - - ; q f ) ) ^ ~ ~ ! ( ` Q.OX2X4X4X,XM.v = y v.].XX=X=X=X=X=X=X=X",
"=XXXXX].XX=XXX=X].C.N < u V.*X1X2X1X.XT.` ~ ! ~ ^ ^ ^ ~ s 7 # + # # - s ~ ^ ^ ^ ~ ! ! ` T..X1X2X1X*Xc.5 1 m C.].XX.X=XXXXXXXXXXX",
"[.[.[.].[.].[.[.{.A.Y B B W Z.G.G.F.C.T ) ~ ! ~ ^ ^ ~ ~ e = +     o = s ~ ^ ^ ^ ~ ! ~ ) T C.).].G.A.W K B Y A.].].G.[.[. X[.[.[.",
" XXXXXXX X}.[.[.[.].`.Z.c.L M M m n N v k ^ ~ ~ ^ ^ ^ f d = X + . # - d f ^ ^ ~ ^ ^ ~ l Z v m m M K L Q V.S.].[. X].XXXXXXXXXXXX",
"=X=X=X=X=X=XXX}.XXXX=X}.A.K < * = = 6 e f ^ ^ ^ ^ ^ ^ ^ d 6 # O . # - d ~ ^ ^ ^ ^ ^ ^ f e - = = * < K A.[.=X%XXX=X}.=XXXXXXX=X=X",
";X;X;XXX:X;X;XXXXX=X;X;X_.V = O     @ 6 f ^ / ^ ^ ) ^ ^ d 6 = # @ # 7 s k ^ ^ ^ ^ ) ^ ! 6 O O   O = V ).XX;X;X;X X[.=X}.XX}.XX;X",
"XXXXXXXXXX=X=X=X=X=X=X=X=X;X=XXX.X=X;XXXXX;XXXXX].;XXX;X;XXXXX.X;X;X;X;X=X=X=X=XXXXXXXXXXXXX:XXXXXXX}. XXX;X=X=XXXG.=XXX;X;X;X;X",
":XXX XXXXXXXXX;X;X;X=X;X=X=X=X=X=X=X=X=XXXXX X X[.XXXXXXXXXXXX;X=X=X=X=X=X=XXX=XXXXXXXXXXXXX:XXXXXXXXXXXXX=X=X=X.X].XXXXXX;X;X=X",
"XXXXXXXXXX XXX;X=X;X;X;X=X=X=X=X=X=X=X=X;X;XXX[.].XX;XXX;X;XXXXX=X=X=X=XXX=X=X;XXXXXXXXXXX;XXXXX=X;X=X=X;X=X=X=X}.].[. XXX=X=XXX",
".X;XXXXXXX;X=XXXXX.XXX=X=XXX=XXX=XXX;X;X;X;XXXXX]. XXX;X;XXXXXXXXXXXXXXX=X;X;X;XXXXX;XXXXXXXXXXX=X=XXX=X;X;X;X;XXXG.=X=XXX=X=X=X",
";XXX;X;XXX;X.XXXXXXX=XXX X XXXXX=X=X=X=X=X;X=XXX XXX;XXXXX:X;X:XXX:XXXXX=X;X;X=X:XXXXXXXXXXXXXXX=X=X=X=X=X=X;X;XXX X=X=X;X;X;X=X",
";X;XXX;X;XXX;XXXXX;X=XXXXXXXXXXX=X=X=X=XXX=X=X.X X=XXXXXXXXXXXXX:XXXXXXXXXXXXXXXXXXXXXXXXXXX;X;XXXXX;X=X;X;X=X.XXX X=X=X;X;X;X=X",
"XXXX;X.X;XXX;X;X:XXX=XXXXXXX;XXX=X=X=X=X=X=XXXXX X=X=X;XXXXXXXXXXXXX}.[.XX X X[.XX:XXXXX.XXXXXXX;X:X;X:X;X;XXX=XXX X=X=X=X=X=X=X"
};
