/* XPM */
static char *result[] = {
/* columns rows colors chars-per-pixel */
"64 64 200 2 ",
"   c #030C0D",
".  c #0A0C0D",
"X  c #07110F",
"o  c #000D11",
"O  c #041213",
"+  c #0B1313",
"@  c #0E1B1A",
"#  c #121615",
"$  c #171615",
"%  c #141915",
"&  c #141B1C",
"*  c #1B1D1C",
"=  c #201B17",
"-  c #2C1E1A",
";  c #1D241E",
":  c #2A241A",
">  c #2D291E",
",  c #3B261C",
"<  c #32291F",
"1  c #171C20",
"2  c #1A1F24",
"3  c #0C2626",
"4  c #1B2322",
"5  c #1A2826",
"6  c #222423",
"7  c #23262B",
"8  c #272628",
"9  c #242B2A",
"0  c #2C2C2D",
"q  c #3A2D21",
"w  c #322E29",
"e  c #2A322C",
"r  c #3E3122",
"t  c #39352D",
"y  c #272931",
"u  c #2B2A31",
"i  c #312F37",
"p  c #312F3B",
"a  c #2F3C34",
"s  c #343335",
"d  c #3A3935",
"f  c #35323D",
"g  c #39363A",
"h  c #3C3A3C",
"j  c #4D271A",
"k  c #52281F",
"l  c #65261B",
"z  c #402B21",
"x  c #5B2821",
"c  c #453423",
"v  c #4A3624",
"b  c #4C3925",
"n  c #4A3929",
"m  c #523925",
"M  c #543E2A",
"N  c #593E2A",
"B  c #4E363F",
"V  c #423B3F",
"C  c #543731",
"Z  c #672A20",
"A  c #722F23",
"S  c #673724",
"D  c #6F3F32",
"F  c #39433C",
"G  c #3A493F",
"H  c #56412D",
"J  c #5C432C",
"K  c #4F4632",
"L  c #62462D",
"P  c #68462C",
"I  c #724B2E",
"U  c #6D4E38",
"Y  c #794537",
"T  c #755234",
"R  c #7B5534",
"E  c #2D2E40",
"W  c #312F41",
"Q  c #2F3142",
"!  c #353342",
"~  c #3A3442",
"^  c #373847",
"/  c #3C3945",
"(  c #3B3C48",
")  c #423B44",
"_  c #4E3C42",
"`  c #413F49",
"'  c #3E4C42",
"]  c #3A5146",
"[  c #3E5348",
"{  c #454244",
"}  c #4A4246",
"|  c #434249",
" . c #4D454A",
".. c #4E4B4C",
"X. c #5C4645",
"o. c #544548",
"O. c #524B4D",
"+. c #485445",
"@. c #495549",
"#. c #4D5B4F",
"$. c #57594C",
"%. c #574F51",
"&. c #4E5955",
"*. c #545452",
"=. c #545B55",
"-. c #5A5855",
";. c #595D56",
":. c #614847",
">. c #7E4641",
",. c #67574C",
"<. c #7D5F50",
"1. c #556358",
"2. c #5B6359",
"3. c #55695B",
"4. c #5C6D5D",
"5. c #5E715F",
"6. c #72604F",
"7. c #6F6150",
"8. c #7B6951",
"9. c #63725E",
"0. c #5E6F60",
"q. c #567362",
"w. c #5F7260",
"e. c #5D7966",
"r. c #617462",
"t. c #6A7660",
"y. c #647965",
"u. c #6B7962",
"i. c #697D68",
"p. c #863726",
"a. c #9E3C2A",
"s. c #A33B2C",
"d. c #B93D29",
"f. c #8D453A",
"g. c #984B39",
"h. c #835633",
"j. c #8A5D36",
"k. c #8B5D39",
"l. c #945E35",
"z. c #9E5E38",
"x. c #AC492A",
"c. c #A44E3B",
"v. c #B75738",
"b. c #8E613C",
"n. c #936037",
"m. c #93633C",
"M. c #9A663D",
"N. c #A46A3D",
"B. c #AB6D3D",
"V. c #AE723F",
"C. c #B1743E",
"Z. c #CC4D33",
"A. c #D14C32",
"S. c #CA5037",
"D. c #E65134",
"F. c #E85934",
"G. c #F35735",
"H. c #C26F3A",
"J. c #E86B3F",
"K. c #FF6439",
"L. c #E77A3E",
"P. c #985540",
"I. c #A05944",
"U. c #936245",
"Y. c #9D6940",
"T. c #9E6348",
"R. c #9E7347",
"E. c #846451",
"W. c #887957",
"Q. c #A46C42",
"!. c #A86F43",
"~. c #A77046",
"^. c #AD7245",
"/. c #B57443",
"(. c #B97642",
"). c #BD7A45",
"_. c #B47749",
"`. c #BF7B49",
"'. c #C07C47",
"]. c #C27E4B",
"[. c #E06B42",
"{. c #E07141",
"}. c #FB7742",
"|. c #FD7B43",
" X c #9E865C",
".X c #A78C5E",
"XX c #BE8552",
"oX c #AC8F60",
"OX c #C5814D",
"+X c #D8854A",
"@X c #C68451",
"#X c #D48E53",
"$X c #D99556",
"%X c #EA844A",
"&X c #FF8646",
"*X c #F4934E",
"=X c #FE944E",
"-X c #E79D5A",
";X c #EE9F5A",
":X c #FE9B51",
/* pixels */
"OXOXOX).].OXOXOXOXOXOXOXOXOXOXOXOXOXOXOXOXOXOXOXOXOXOXOXOXOXOXOXOXOXOXOXOXOXOXOX).OXOXOXOXOX@XOXOXOX'.`.].].`.].].@X@X@X@X@X@X].",
"@XOXOX).OXOXOXOXOX@X@X@X@XOXOXOXOXOX@X@X@XOXOXOXOX].OXOX].OXOXOXOXOXOXOXOXOXOXOX).'.OXOXOXOXOXOXOXOXOX'.].].].].@X].@X@X@X].].@X",
"@X@XOX).].OX].OXOXOX@X@X@XOXOXOX].@X@X@X@X@XOXOXOX@XOXOXOX@X@XOXOXOXOXOXOX].OXOX).OXOXOXOXOXOXOXOXOX@XOX@X].@X].@X@X@X].OXOX@X].",
"OXOXOX).].OX@XOXOX].OXOXOXOXOXOXOX].@X].OXOXOX@X@X@X@X@X@X@X@XOXOXOXOXOXOX@X@X#X).OXOXOXOXOXOXOXOX@X@X@X@X@X@X@X@X@X@X].OXOXOXOX",
"].'.`.).].@XOX'.].].].@X@X@X@XOXOXOX].'.`.`.`.@XOX@X@X@XOXOX@X].OXOXOX].].].@XOX).OXOX@X@X@X@XOXOXOXOXOX@XOX].].].].].'.].].].OX",
"@X].].).'.OXOX'.].].].OX@X@X@X@X].OX@X].].].OXOXOXOX].'.].].].OXOXOXOX@X@X@XOX@X).'.OX@XOX@X@XOXOX'.OXOXOX].'.].].].].].].@X].+X",
"@X@X@X).OXOXOX@X].].].].OX].OXOXOX@X@X@X@X@X@X@XOX].OX'.'.].'.OXOXOXOX@X@X@X@X@X`.OXOXOXOXOXOXOXOXOXOXOX].].@X@X].].OX@X@X@X@XOX",
"OXOXOX).].OX@X@X@XOX].'.'.'.].OX].@X].@X`.`.`.`.'.'.OXOX].OX].].OXOX].OX@XOXOXOX).'.OXOXOXOXOXOXOXOX'.`.'.'.'.].].].OXOX@XOXOX].",
"'.'.).(.`.'.'.].].].'.).).).).).'.).'.).).).).(.(.).).'.).'.).'.'.'.'.'.'.'.).'.C.'.'.'.).).'.).'.).).(.).).).).].`.'.'.).'.'.'.",
").).).`.`.'.'.].'.].'.'.`.`.'.).).).).).).).).).(.'.).'.).'.).).'.'.'.'.'.'.).).(.'.'.C.B.n.j.j.n.j.b.b.m.M./.).).(.'.'.).).).).",
"].OX].].@X@X@X@X@X@X@X@X@X@X@X].'.OXOXOXOXOXOXOX).].OX].OXOXOXOXOX].'.].OXOXOX].].].'.(.j.H c z c c c c H T Q.OX'.).].].OXOX].OX",
"OX'.'.].OX].@X].].@X@XOX@X].@X@XOXOXOXOXOXOXOX'.'.OXOXOXOXOXOX].OXOXOXOXOXOXOXOX].].]./.I : O O + # + + % H M.OX].(.].@X@X@X@X@X",
"].'.].'.].].@X@X].@X].].OXOXOXOXOXOXOX/.N.m.M.m.n.M.M.M.M.m.M.M.N.M.M.M.m.m.m.M.Y.Q.N.j.H 4 4 4 4 ; & @ + c U.OX'.(.OXOX@X@X@XOX",
"@XOX@X].].].].@X@X@X@X].].].].OXOXOX].m.L v v b v m b m b v m m m m b b m m b b m m m b t 0 g g d i 9 & + v M.OX].(.OXOXOXOXOXOX",
"OX].].].'.].].].@X].].].].'.].OXOX'._.T : + X # # % $ $ % % % % $ % % # $ # $ % $ # # * w V  .O. .{ s * % b M.OX].'.OXOXOXOXOX].",
"OX@X@X@X@X].].].OX@X].].].].OXOXXX^.b.J 6 4 5 5 4 4 5 4 ; 5 4 ; 4 4 4 5 4 4 4 5 2 1 1 9 g } O.-.%. .s 4 + r R !.^.(.OXOX@X@X@XOX",
"OX@X@X@X@XOXOX].].].].].@X].OX`.m.P b F F G G G G G G G G G G G G G G G G G G G G G G ' }  .%.%.%.O.s * + = b L L ).OXOXOXOXOXOX",
"OXOXOXOXOXOXOX].`.`.`.`.].@XOX^.P : & a @.4.5.5.2.1.3.3.3.3.3.3.3.3.3.3.3.3.3.3.3.3.2.1.=...o.O.%. .s 1 X + % * = ).OXOXOXOXOXOX",
"OX].OX].OX@X@X@X@X@X@XOX].@X_.b.M & e +.5.i.i.u.y.y.y.y.u.r.i.y.u.r.y.y.u.u.y.y.u.y.y.r.;...} { { V s 4 & + @ + + ).OXOXOXOXOXOX",
"].'.'.'.'.].].].].].'.'.(.l.P M t a ] #.5.i.i.y.y.y.r.y.r.i.r.y.y.r.y.y.y.r.y.y.y.i.y.w.2.O._ g w 9 0 u u 6 & + + (.XX'.'.'.'.OX",
"'.'.'.C.).'.).).).).).'.N.L : ; F #.5.5.5.r.r.e.r.r.r.r.r.r.r.r.r.r.r.r.r.r.w.r.5.r.y.5.;.O.V 0 1 & 8 h V s 4 + O /.).).).).).).",
"].].].).].].OX].OX].OX_.j.c + 9 G 5.i.i.5.5.5.9.w.w.4.r.4.r.4.w.5.w.5.5.5.r.w.5.5.e.5.5.2.*.{ e & # 9 { O.h 6 + . `.).`.OXOXOXOX",
"OXOXOX).OXOXOXOXOX/.m.T H q 8 d #.5.i.i.r.w.5.w.r.5.w.w.r.w.r.5.9.w.w.w.w.5.w.w.w.r.5.5.2.2.*.F u 0 g O.O.V 6 + O ].'.OX@X@XOXOX",
"OXOXOX).].OXOXOX].M.L < 6 u h ..=.5.r.r.r.5.r.5.5.5.r.5.r.5.w.r.w.w.5.r.w.w.w.w.9.5.5.5.5.5.2.*. .{ } O.O.g 4 + X OXOXOXOXOXOXOX",
"OXOXOXC.].OXOXOX].k.c O 2 s o.%.2.5.e.9.w.w.r.r.5.r.5.5.w.w.w.4.w.w.r.5.w.5.5.r.5.5.r.5.r.r.5.1.O.} }  .{ s 4 + O OX].'.'.].].@X",
"OXOX].(.].OXOXOXOXm.q + 2 s } -.2.5.r.r.5.r.5.5.w.w.5.r.w.w.5.r.w.w.5.5.w.r.w.5.r.w.5.r.r.i.5.#.h i s s s 9 * @ + OXOXOX].].OX].",
"OX@XOX(.].OXOXOXOXm.v + * s { *.2.5.y.e.w.w.5.w.5.r.w.w.9.w.9.r.w.r.5.r.w.5.w.r.5.w.r.r.y.i.5.G 9 & & * * & + + # ].OXOXOXOX@X].",
"@X@X].(.'.OXOXOXOXm.b # 2 s { %.2.5.5.9.5.r.w.w.r.4.r.w.w.w.0.r.5.w.w.w.w.r.5.5.r.5.5.r.y.r.3.G ; X . O + + + % % OXOX].].].OXOX",
"OXOXOX(.].OXOXOXOXm.b # ; i { %.=.2.2.4.q.e.e.r.r.y.y.r.y.q.q.q.w.q.q.w.r.r.y.r.r.w.e.q.4.4.=.{ 0 1 @ + + : q M N @X].'.].].].OX",
"OXOXOX(.].OXOXOXOXU.c # ; s { O.O.O.=.1.4.q.e.y.y.y.y.y.e.w.q.q.q.q.e.y.y.i.y.i.y.e.q.q.3.=... .K p 7 & + < U m.Q.@X].].].].OXOX",
"].'.'.(.'.'.'.OXOXb.c % & s } ..o. ...-.4.0.r.9.9.w.w.w.w.9.r.9.r.5.r.r.w.w.9.4.0.r.9.9.=.O. . .O.{ s 4 # v m.'.].`.'.'.'.'.].].",
"'.'.'.(.).).).).).b.c % 4 s } ..} ) } ,.8.8.,.@.' ] [ @.$.6.E.E.E.E.6.$.@.[ ] ' @.,.<.<.,.} )  .O. .g 4 # v m.).(./.).).).'.'.'.",
"OX'.'.XX`.OXOXOXOXm.c # 5 s }  .` ~ _ >.c.c.P q 3 3 5 e N f.I.v.v.I.f.H e 3 3 3 q D c.c.Y _ ^ ` O. .f 6 % v m.OXOXC.OX].OX'.OX].",
"OXOXOXOXOXOXOXOXOXm.v # 4 s }  .( W _ f.Z.Z.p.: O O   # x s.A.D.D.A.a.k % O o O - p.Z.Z.p.B W ( ` o.s 2 + b U.OXOX).OXOXOXOXOXOX",
"OXOXOX@XOXOXOX`.'.m.c # 4 s  .} ( Q B g.A.F.x.S < #   . j x.F.K.K.F.x.j .   % , S x.F.F.P._ W ^  .} s 2 % n m.OX'.(.OXOXOXOXOXOX",
"OX@X@X@X@XOX`.).`.m.v + 4 s }  .( E _ g.L.L.L.H.l.m +   j v.}.&X|.}.v.j   # m n.C.L.%X{.P._ E ^  .} s 4 + b m.OX'.(.OXOXOXOXOXOX",
"OXOXOXOXOXOXOXOX@Xm.v + * s }  .^ W _ U.+X=X:X:X+Xh.: + v B.*X:X:X*XC.b . : R +X:X:X=X+XP._ W ^ }  .s 4 # v m.OX].(.OXOXOXOX@X@X",
"OX@XOXOXOXOXOXOXOXU.v + 4 s  . .( ~ o.E.XX$X;X;X+Xm.t 5 K R.#X-X-X$XN.K > t b.$X;X;X$X@XE.o.~ (  . .g 4 O c b.@X].C.OXOXOXOX@XOX",
"@X@XOXOXOX@XOX@XOXb.r + 6 g  .O. .) } 6. X XoXoX X8.$.G $.W. XoX.X X8.3.K #.8. XoXoX.XW.7...) } O. .g 4 + c b.@X].'.OXOXOXOXOXOX",
"OXOXOXOX@X@X@X@X@Xm.r + 4 g } O...{ O.;.9.u.u.u.u.9.5.5.4.r.r.t.u.9.e.5.5.5.9.9.9.u.u.9.;... . .O. .s 4 + c m.OX].C.OXOXOXOXOXOX",
"OXOXOXOXOXOXOX@X@XY.L 8 > w V }  .o.O.=.1.q.3.3.3.0.0.0.0.q.3.3.3.3.3.e.r.0.0.q.1.3.3.1.=..... .{ V w 6 < J M.OX].'.OXOXOXOXOXOX",
"'.OXOX'.OX`.).OX'.^.l.T J t 9 s )  .%.*.&.&.&.&.&.;.;.2.;.*.&.&.#.#.&.1.;.2.=.&.&.&.&.&.*.%. .) s 0 t H T m./.'.'.H.OX`.'.OXOX).",
").(.).).'.C.).).`.).]./.k.v & 4 s  .O.%.O...| ..O.O...........O.O.O...O.O.O.....O.O.....O.%.{ f 6 * v j.C.(.'.'.).(.).).H.C.(.).",
"OXOX'.).'.XXOXOX@X].].@X!.M # & 9 h { { ` } } | ` } { _ } } } ` { { { { } _ ` _ } ` | | } { h y @ # N N.].].].].OX'.'.OXOXXXOXOX",
"OXOXOX).OXOXOXOX].@X].@X_.H @ O @ 5 u W ~ ) ) ) ) ) ) ) ) ~ ) ) ) ) ) ) ~ ) ) ) ) ) ) ~ p y 5 1 O + J /.@X@X@XOXOXOXOXOXOXOXOXOX",
"OXOX].'.].OXOXOX].].].@X!.H + o O O 1 7 f ~ ~ ) ~ ~ ~ ~ ~ ~ ~ ~ ~ ~ ~ ~ f ~ ~ ~ ~ ~ ) p 7 & + o O + H ~.@X@X@X].OXOXOX].OXOXOXOX",
"OXOX].(.].OXOX'.].].]._.m.N - = $ $ $ 8 W ~ ~ ! ! f ~ ~ ~ ~ ~ ~ ~ ~ ~ ~ ~ ~ ! f ~ ~ ~ f 7 = $ $ * - H m._.OXOXOX].].`.`.`.'.OXOX",
"OXOXOX(.].OXOX].].^.k.T P S Z Z Z l x C _ ) / ! ~ ~ / ) ) ) ) ) ) ) ) ` ) ) ~ ! ~ ^ ` ) C x l l Z Z S P T k.^.].'.OX].OX'.'.OXOX",
"OXOXOX(.OXOXOXOXOXY.L 8 , A s.d.d.d.s.D _ ` ( ! ! ) `  . . . ...o... . ._ ) ) ! ! ( | X.D s.d.d.d.s.A , > H Y.`.].].OXOXOX@XOXOX",
"OXOXOX'.OXOXOXOXOXb.q O , p.A.G.G.D.S.P.:. .( ~ ~ ~ _  ...} } } } } } } ..) ) ~ ! ( | :.P.S.D.G.G.A.p., + q m.@X@X@XOXOXOX@X@XOX",
"@X@X@X(.'.OXOXOXOXk.q O j z.J.|.|.}.[.I.:.( ^ ~ ~ / ` { V g s s s s g V ) ` ) ! ! ^ ( :.I.[.}.|.|.J.g.z + w k.].].@X].OXOX@XOXOX",
"@X@XOX(.OXOXOXOXOXk.q O r c.%X:X:X=X%XT.X.! E W ~ ~ ) ~ i 9 1 & & & 7 p ) ) ~ ~ ! Q ^ X.T.{.=X:X:X%Xc.c o q k.'.].].@X].OXOXOXOX",
"OX].'.).'.OX].].OXn.c % q n.+X:X:X*XOXU._ W E ! ! ~ ~ ! u 1 + . . O * y ! ) ! ! ! E E _ U.+X*X:X:X+Xn.q % c m.'.].].].].].].OX].",
").).).(.).).).(.).M.I b H T M.V./.B.m.U ) W W ! ~ ~ ~ f 7 & o .   O 1 7 ! ~ ~ ~ f E W ) :.l.B./.C.M.R H b I M.).'.C.).'.'.(.).'.",
"'.].'.].'.).).`.).(.^.m.R L b b m n n z f ~ ! ~ ~ ~ ~ ! y 1 . o . + & y f ~ ~ ~ ~ ~ ~ f g c v C b b L R m.N./.).'.C.].].].].'.'.",
"OXOXOXOXOXOX].`.`.OX@X@XQ.H % X o o 1 7 p ~ ~ ~ W ~ ~ ~ u 1 + . o + 1 y W ~ ~ ~ ~ ~ ~ p 7 # O O + % H N.OXOXOXOX].'.OX].].].OXOX",
"@X@X@X].].#XOX].OXOX@X@X~.H + o     o 2 p / ) ! ~ ~ ) ~ u 1 # # O # 1 u ! ~ ~ ~ ) ) ~ W 2 O o . o + N !.OX@X@X@X].'.].'.].].].].",
"].].].].].OXOXOXOXOXOXOXOXOXOX@XOXOX@X].].].].].'.].].OX].].].OX@X@X@X@XOXOXOXOX].].].].].].].].].].].'.].OXOXOX].C.@X].@X@X@X@X",
"@X].].].].].OX@XOXOX@X@XOXOXOXOXOXOXOXOX@X].].'.).].OX].].OXOXOXOXOX@XOXOXOX].OX].].].].].@X].#X].].].].].OXOXOX].(.'.].].@X@X@X",
"@X].].].].].].OXOX@X@X@XOXOXOXOXOXOXOXOX@X].].].(.].OXOX@XOXOXOXOX].OXOXOXOXOXOX].'.'.].].].].].@X].OXOX@XOX@XOX].H.'.].'.@X].].",
"@X].].].OXOXOX].'.].].OXOX].OX].OXOXOX@X@XOX].].(.].].@X@XOXOXOX].@X].].OX@X@X@X@X@X].].].].].].@XOXOX@X@X@X@X@X].(.OXOX].@XOXOX",
"].+X@X@XOXOXOX].].].OX].'.'.].].OXOXOXOXOXOXOX].).].].@XOX@XOXOX@X].@X].OXOXOX@XOX@X].].].].].].].].].OX@XOXOX@X].'.OXOX@X@X@XOX",
"OXOX].@XOX].@X@X@X].OX].].].].].OXOXOXOXOXOXOX].'.OX].@XOX].].].].OX].].].].].].@X].].].].].OXOX@X@X@XOX@XOXOX].].'.OXOX@X@X@XOX",
"OXOXOX].OX].@X@X@X@XOX].].].@X].OXOXOXOXOXOX].].'.OX@X].].].].].OX].`.`.`.'.'.'.].].].+X].].OX].@X@X@X@X@XOXOXOX].'.OXOX].OXOXOX"
};
