/* XPM */
static char *result[] = {
/* columns rows colors chars-per-pixel */
"64 64 219 2 ",
"   c #040C0D",
".  c #0A0D0E",
"X  c #0B110F",
"o  c #000F12",
"O  c #041112",
"+  c #0C1413",
"@  c #0B161F",
"#  c #111715",
"$  c #141916",
"%  c #1A1A16",
"&  c #141A1B",
"*  c #1B1E1C",
"=  c #231C19",
"-  c #2C1D1A",
";  c #301E1A",
":  c #18221F",
">  c #232017",
",  c #242119",
"<  c #2D241B",
"1  c #39251C",
"2  c #332A1C",
"3  c #3E301F",
"4  c #0D1723",
"5  c #161C21",
"6  c #1A1F21",
"7  c #121A29",
"8  c #0F2B2A",
"9  c #1C2122",
"0  c #1D212B",
"q  c #132B2A",
"w  c #19302C",
"e  c #212423",
"r  c #262827",
"t  c #22252A",
"y  c #262A2A",
"u  c #2C2C2D",
"i  c #382E27",
"p  c #2E362F",
"a  c #3E3123",
"s  c #3B342A",
"d  c #262933",
"f  c #2C2B33",
"g  c #2B2B39",
"h  c #302E35",
"j  c #312E3B",
"k  c #2E3233",
"l  c #2D3A32",
"z  c #343335",
"x  c #323C35",
"c  c #36323D",
"v  c #3A3639",
"b  c #3D3A3D",
"n  c #4E271A",
"m  c #5A281E",
"M  c #4A341E",
"N  c #522920",
"B  c #453524",
"V  c #493624",
"C  c #4B3925",
"Z  c #42352A",
"A  c #4E3B29",
"S  c #5D3323",
"D  c #543C26",
"F  c #533E29",
"G  c #5A3E29",
"H  c #4A373B",
"J  c #4E363F",
"K  c #413C3F",
"L  c #68362E",
"P  c #7E3324",
"I  c #36443B",
"U  c #3A493F",
"Y  c #4F432F",
"T  c #56422F",
"R  c #5B412B",
"E  c #574236",
"W  c #60432B",
"Q  c #66492E",
"!  c #6A482D",
"~  c #704C2F",
"^  c #6D4933",
"/  c #765336",
"(  c #7D5534",
")  c #2E3041",
"_  c #333242",
"`  c #3A3443",
"'  c #373947",
"]  c #3C3945",
"[  c #3B3B48",
"{  c #433C44",
"}  c #4D3D42",
"|  c #433D48",
" . c #3F4640",
".. c #3C4C41",
"X. c #3F564A",
"o. c #454245",
"O. c #4A4346",
"+. c #454C46",
"@. c #45424A",
"#. c #4C4549",
"$. c #4D4B4D",
"%. c #594343",
"&. c #51464A",
"*. c #514B4D",
"=. c #5C4B4B",
"-. c #455648",
";. c #4E544D",
":. c #4C5A4D",
">. c #58574C",
",. c #584D51",
"<. c #4B5252",
"1. c #4D5A55",
"2. c #535251",
"3. c #5A5253",
"4. c #545C55",
"5. c #5A5D56",
"6. c #565E58",
"7. c #654B48",
"8. c #7B4944",
"9. c #64524C",
"0. c #79594B",
"q. c #675450",
"w. c #4E6051",
"e. c #546656",
"r. c #556857",
"t. c #55655A",
"y. c #5B6259",
"u. c #546B5E",
"i. c #5C6D5D",
"p. c #5E705F",
"a. c #6A6251",
"s. c #7A6453",
"d. c #776850",
"f. c #65735D",
"g. c #69735E",
"h. c #5A6E60",
"j. c #567462",
"k. c #5F7260",
"l. c #5D7966",
"z. c #617562",
"x. c #657965",
"c. c #6C7962",
"v. c #697D68",
"b. c #727B61",
"n. c #873526",
"m. c #9C3D2B",
"M. c #86552F",
"N. c #8A463B",
"B. c #96473B",
"V. c #895B35",
"C. c #8C5E3A",
"Z. c #985738",
"A. c #A74529",
"S. c #BE452F",
"D. c #B05730",
"F. c #8D613C",
"G. c #93633D",
"H. c #99663E",
"J. c #9D693F",
"K. c #A26A3F",
"L. c #AB6F3F",
"P. c #B46938",
"I. c #C2452E",
"U. c #C94A34",
"Y. c #C4503C",
"T. c #DA5533",
"R. c #E34F35",
"E. c #E65834",
"W. c #FD6038",
"Q. c #E1743B",
"!. c #F6773F",
"~. c #974F44",
"^. c #875C46",
"/. c #975943",
"(. c #A65241",
"). c #B65641",
"_. c #87624C",
"`. c #8A6349",
"'. c #936546",
"]. c #9D6A42",
"[. c #816754",
"{. c #956950",
"}. c #847653",
"|. c #957D58",
" X c #A36D42",
".X c #A76E48",
"XX c #A87347",
"oX c #AC7245",
"OX c #B57443",
"+X c #B97642",
"@X c #B67847",
"#X c #BD7A45",
"$X c #B57849",
"%X c #BF7B49",
"&X c #DF6D40",
"*X c #C07C47",
"=X c #C27E4B",
"-X c #A6875B",
";X c #AC8D5E",
":X c #B6915F",
">X c #C5814D",
",X c #D38246",
"<X c #D7864D",
"1X c #DA844A",
"2X c #C68451",
"3X c #D88E52",
"4X c #DA9354",
"5X c #E28B4B",
"6X c #E88E4E",
"7X c #FF8245",
"8X c #EF924D",
"9X c #F6904C",
"0X c #FD954D",
"qX c #FF9B4F",
"wX c #E99B57",
"eX c #FF9D52",
"rX c #F49E59",
"tX c #FFA354",
"yX c #F5A058",
/* pixels */
">X>X>X#X>X>X>X>X>X>X>X>X>X>X>X>X>X>X>X>X>X>X>X>X>X>X>X>X>X>X>X>X>X>X>X>X>X>X>X>X*X*X>X>X>X>X2X>X>X>X=X*X=X=X#X=X=X2X2X2X2X=X2X2X",
"2X>X>X#X=X>X>X>X>X>X2X2X2X>X>X>X=X>X2X2X2X>X>X>X>X>X=X>X=X>X>X>X>X>X>X>X>X>X>X>X*X=X>X>X>X>X>X>X>X>X=X=X=X=X=X=X2X=X=X2X2X2X2X=X",
"2X2X>X#X>X>X>X>X>X>X2X2X2X>X>X>X>X2X2X2X2X2X>X>X2X>X>X>X2X>X>X>X>X>X>X>X>X>X>X2X*X=X>X>X>X>X>X>X>X>X>X>X2X2X2X=X=X2X2X2X>X>X=X<X",
">X>X>X#X=X>X>X=X>X>X>X>X>X>X>X>X>X>X>X=X>X>X>X2X2X2X2X2X2X2X2X>X>X>X>X>X>X2X2X2X*X=X>X>X>X>X>X>X>X2X2X2X2X2X2X2X2X2X2X=X=X=X2X=X",
">X%X%X#X>X>X>X=X=X=X=X2X2X2X2X>X>X>X=X%X=X%X%X>X>X>X>X>X>X>X2X>X>X>X>X>X>X>X>X2X*X*X>X2X2X2X2X>X>X>X>X>X>X>X=X=X%X=X=X=X=X=X2X=X",
">X=X=X#X=X>X>X=X=X=X=X2X2X2X2X>X>X>X2X=X=X=X>X2X>X>X>X=X=X=X=X>X>X>X>X>X2X>X>X>X*X=X>X2X2X2X2X2X=X>X>X>X>X>X=X=X=X=X=X=X=X2X,X2X",
"2X2X2X#X>X>X>X>X=X=X=X=X=X=X>X>X=X2X2X2X2X2X2X>X>X>X=X#X=X*X*X>X2X>X>X2X2X2X2X2X*X=X>X>X=X>X>X>X>X>X>X=X=X=X=X=X=X=X>X2X2X2X=X2X",
">X>X>X#X=X>X2X2X2X2X*X*X*X*X>X>X>X=X2X>X%X%X%X#X=X=X>X>X>X>X=X=X>X>X>X>X>X2X>X>X*X=X>X=X>X>X=X=X>X>X=X*X*X*X=X2X=X2X>X>X>X>X>X=X",
"#X*X#X+X#X*X*X=X=X=X#X#X#X#X#X#X#X#X#X#X#X#X#X#X+X#X*X#X*X*X*X#X*X*X*X*X*X*X#X*XP.#X#X#X*X#X*X#X*X#X#X#X#X#X#X#X*X#X*X*X*X*X#X*X",
"#X%X#X%X%X=X*X=X*X*X=X*X%X%X*X#X#X#X#X%X#X#X#X#X+X#X#X#X#X#X#X#X*X*X*X#X#X*X#X*X#X#X#X#X#X#X#X#X#X#X#X#X#X#X#X#X#X+X#X*X#X#X#X#X",
">X=X=X=X2X2X2X2X2X2X2X2X2X2X2X2X>X>X>X=X>X>X>X=X#X>X>X>X>X>X>X=X=X>X*X=X>X>X>X>X%X%X%X%X*X=X*X=X>X>X>X>X>X>X>X>X*X%X=X=X>X>X>X>X",
">X=X*X=X>X=X>X2X2X=X2X>X2X>X2X=X>X>X>X>X>X>X>X=X#X>X>X>X>X>X>X>X>X>X>X>X>X>X>X>X>X=X=X>X=X=X=X=X>X>X>X>X>X>X>X>X=X+X=X2X2X2X2X2X",
"=X=X=X=X=X=X=X2X2X2X2X=X=X>X>X>X>X>X>X>X>X>X>X=X#X>X>X>X=X=X=X>X>X>X>X=X=X=X=X=X>X>X>X>XOXJ.H.G.H.].].]. XoX%X>X=X+X>X>X2X>X2X2X",
">X>X>X=X=X=X=X2X2X2X=X=X=X>X=X>X>X>X>X>X>X>X>X=X+X>X>X>X%X%X>X>X>X>X=X=X*X*X=X=X>X>X>X=XG.R V B A F A A R (  X>X=X+X>X>X>X>X>X>X",
">X>X>X*X=X=X=X=X=X>X=X=X*X*X=X>X>X=X>X2X2X2X2X>X+X>X>X>X2X>X>X>X>X>X=X>X=X=X>X=X>X>X>X@X~ 2 + O # $ + + : G H.>X*X#X>X>X>X>X>X>X",
">X>X2X2X2X=X=X>X>X>X=X=X=X=X>X>X>X>X>X$X.X XK.K.H. XK. X X.X X XL. XK.K. X X X X.XoXoX'.T : * 9 9 : & # + B '.>X=X#X>X>X2X2X>X>X",
">X2X2X2X2X>X>X=X=X=X=X=X=X=X=X=X2X2X*XH.! D D D D G G G R R G R G G D D G G G G G G R Y Z u z z z f y & + V ].>X=X#X>X>X2X2X>X>X",
">X>X>X>X>X>X>X=X=X=X=X*X=X=X2X=X,X2X:X/ 1 + X $ % % % % % % % % % % % % % % % % % $ % , u K #.&.O.o.k : + A ].>X%X#X>X>X>X>X>X>X",
">X>X>X=X>X2X2X2X=X=X>X>X=X=X2X=X=X+X'.T e 9 9 : : : : : : : : : : : : : * : : : : % & 9 z O.,.3.,.#.z : + a V.oX@X#X>X>X>X>X>X>X",
"*X*X*X*X*X=X=X=X*X*X:X#X=X=X=X*XH.~ D Z x U U I I I I I I I I I I I I I I I I U I I I U +.#.*.,.3.*.z * O > C Q ^ #X#X#X*X*X*X>X",
"*X*X*XL.#X*X#X#X#X#X#X#X#X#X#XL.! < : l :.r.i.r.e.e.e.e.e.r.e.r.e.e.e.e.t.e.e.e.r.r.r.e.2.$.#.*.,.#.z *   + % , < P.+X+X#X#X#X#X",
"=X=X>X#X=X=X=X>X>X>X>X>X>X>X#XG.D $ y ..r.v.v.x.x.z.z.x.z.x.z.z.z.z.z.x.z.z.x.z.x.x.x.i.y.*.O.#.O.{ z 9 $ + # + # *X*X*X>X>X>X>X",
">X>X>X#X=X>X>X>X>X>X>X>X%XH./ R s p ..w.p.v.v.v.z.x.x.x.x.x.x.x.v.z.x.x.z.v.x.z.x.v.x.z.5.*.} v z u u u y 9 & + + =X:X*X2X2X>X>X",
">X2X>X#X>X>X>X>X=X=X=X=XoX! 2 e l :.r.p.k.z.z.z.z.z.z.f.z.z.z.z.f.z.z.z.z.z.z.z.z.z.z.p.y.*.{ u & & r v { z 9 + . 2X>X>X>X>X>X>X",
">X>X>XP.=X>X>X>X=X#X*X@XC.V # t ..i.v.v.f.k.k.p.k.k.p.k.k.k.k.p.k.k.k.p.z.k.k.k.k.k.z.i.y.2.{ u & # y o.#.b e + O 2X=X*X*X=X=X2X",
">X>X>X#X*X>X>X>X>X@X'.V.R a e z :.k.v.v.z.z.k.k.k.k.p.z.k.k.k.k.k.k.k.z.p.f.h.k.k.k.k.k.i.5.2.I y r v &.,.b t + . >X>X>X=X=X>X=X",
">X2X>XP.>X>X>X>X>X].Q a r u v +.e.i.z.z.z.p.k.p.p.p.p.z.k.k.k.k.k.i.z.i.p.z.z.p.k.k.p.p.p.i.y.2.O.{ O.*.&.b 9 + O =X>X>X>X>X>X>X",
"2X2X>X#X=X>X>X>X=X'.B . * z #.3.y.p.l.k.p.p.z.k.z.z.p.p.k.k.k.k.k.k.k.z.z.i.z.k.f.p.z.p.z.z.i.5.$.#.#.#.O.z 6 + + =X>X=X=X=X>X>X",
">X>X>XL.>X>X>X>X>XG.a + 9 z #.3.a.h.z.z.p.z.k.k.p.f.p.k.k.k.k.k.p.z.k.k.p.p.p.z.p.p.z.z.x.x.k.:.Y c z v z y * + + 2X=X*X=X=X=X2X",
">X>X,X#X>X>X>X>X2XG.B X * z O.3.y.k.x.z.k.p.k.k.k.k.z.k.p.z.k.k.z.i.z.k.p.z.f.p.z.p.p.z.x.x.i.+.w 5 & 6 6 * & + # 2X=X=X=X=X>X>X",
">X:X#X#X*X*X*X=X>XG.B # 6 h O.2.y.h.z.z.k.k.k.k.k.p.k.k.p.k.k.k.i.z.i.z.k.z.k.k.z.k.k.k.x.z.e.U 9 X . + + + + + + *X*X*X*X*X=X=X",
"#X#X+XP.#X#X*X#X#XV.B # 6 z O.*.4.y.y.h.k.k.l.k.z.x.z.z.z.k.k.k.k.k.l.z.z.z.z.z.z.l.j.k.k.i.e.o.y & + +   % i B B +X#X#X#X#X*X*X",
">X=X>X>X=X>X=X>X=XG.V # 6 z O.*.,.2.4.t.j.l.l.x.x.x.x.x.z.l.j.j.j.j.k.l.x.x.x.x.z.l.l.j.t.4.2.O.K z r $ + 2 Q F.G.#X>X>X*X>X>X*X",
">X>X>X>X>X>X>X>X>XG.B # 6 z O.$.#.#.*.4.i.k.k.k.z.k.z.k.k.k.l.k.k.k.p.z.k.z.z.z.z.l.k.h.6.*.#.#.&.o.z 9 # C G.>X=X+X>X>X>X>X>X>X",
">X>X>X>X>X>X=X=X=XG.V # 6 z O.#.#.| } 9.s.s.a.;.-.X.:.:.5.a.s.[.s.s.d.e.1.-.-.X.;.a.s.s.9.} | #.,.#.z 9 $ C ].>X%X#X>X>X>X>X>X>X",
">X2X2X2X2X>X%X%X*XG.V # 9 z O.$.| ` } 8.(.Z.^ p q 8 w l E N.).D.).(.N.E p w 8 8 i ^ Z.~.8.} ] | #.$.z 9 # C ].>X>XL.>X>X>X>X>X>X",
">X>X2X>X>X>X=X>X=X'.V # 9 z O.$.[ ' { m.I.I.P - O o O & N m.U.R.R.U.m.N $ O o O < P I.U.m.J _ [ $.O.z 9 + V G.>X>X*X>X>X>X2X2X2X",
">X>X>X>X>X>X>X>X>XH.V $ 9 z O.#.[ ) } ~.T.R.A.S < +   . n A.E.W.W.E.A.n .   + < S A.T.T.~.} _ [ $.O.z 9 $ C G.>X>XP.>X>X>X>X2X2X",
"2X2X>X>X>X2X>X>X>XG.B $ 9 z @.#.` ) J ~.Q.!.Q.P.M.M X   n D.!.7X7X!.D.n . X M M.P.Q.!.&X~.{ ) ' @.O.z 9 + C G.2X*XP.>X>X>X*X>X>X",
">X>X>X>X2X2X2X2X2XG.B # 9 z O.$.' ) } /.1X0XqX0X,XM., X M L.9XtXeX9XP.M X , M.,X0XeXeX&X/.} ) ' #.O.c 9 $ C G.>X*X:X>X>X>X>X>X>X",
">X>X>X>X>X>X2X>X>XG.V # : z o.@.[ _ } `.2XwXyXrX3XG.s e Y XX4XwXrX4X XY : s F.4XrXyXwX>X_.O.c [ #.#.z 9 + B G.>X*X#X,X>X>X>X>X>X",
"%X>X>X#X>X#X%X>X*XF.V # 9 k @.@.@.] #.s.|.;X:X:X-Xd.-.U >.}.-X:X;X-X}.>.U ;.d.;X:X:X;X|.d.&.{ O.*.#.v 9 + 3 F.=X*X+X*X*X=X=X*X=X",
"#X#X#X#X+X+X#X#X#XF.B + 9 j @.$.@.O.*.4.g.c.c.b.c.f.i.i.i.f.g.g.b.g.f.p.t.i.f.c.b.b.g.g.5.#.O.&.*.#.v 9 + 3 V.#X#X+X#X*X#X#X*X#X",
">X>X#X#X*X:X>X>X>XF.C # 9 Z %.9.=.&.$.4.r.u.u.u.u.h.k.z.p.i.i.u.u.u.u.p.z.p.h.h.u.j.u.r.4.*.#.#.@.Y f , , R H.=X*X*X*X=X>X*X>X=X",
">X>X>X#X*X>X>X>X2X'.B # < L B.~.8.,.<.<.1.1.1.1.1.t.y.y.t.4.1.1.1.w.4.t.y.y.t.1.1.1.1.1.2.$.O.b c u s R ^ '.oX>X>X>X>X>X>X>X>X>X",
">X>X>X>X=X,X>X>X2XZ.B # 1 n.U.Y.~.7.@.+.$.$.$.$.$.*.$.*.$.$.$.#.$.$.*.*.*.$.$.*.$.$.$.$.*.*.O.z 0 : A F.$X2X2X=X>X>X=X=X=X>X>X>X",
">X>X2XP.=X>X>X=X=XC.B + 1 n.S.S.~.} o.@.O.#.O.O.O.O.O.#.#.#.#.#.#.#.#.O.#.O.O.O.O.O.O.O.*.*.O.z & # F  X=X=X2X=X=X>X*X%X*X*X>X>X",
">X2X2XP.=X>X>X=X=XC.i O = m P P S h k ] O.#.O.{ { } O.#.#.&.&.&.*.&.&.#.#.O.] ` ' ] | @.#.&.{ k & # D  X=X*X*X*X=X>X=X=X=X=X>X*X",
">X2X>XP.>X>X>X>X>XG.B + $ = ; - = & e z o.&.} { ` { } #.&.*.&.&.*.*.*.#.&.O.` j ) `  .@.#.&.o.z & $ F J.=X=X=X=X=X2X2X=X2X2X2X=X",
">X>X>X>X=X>X>X>X>XH.G : + + $ + O O $ u o.#.| ` ` ] | $.#.O.O.O.O.O.O.O.#.| } { } O.*.=.3.&.o.f : $ F ].<X=X=X2X2X=X2X=X=X2X2X2X",
">X>X2XP.>X>X>X>X>XoX( R A A F a %   & d K | | ` ` ` { { H j h f u z z ] | &.9.0.^.`.`._.0.3.O.k : + C H.=X=X*X=X=X2X2X=X>X=X2X=X",
">X>X,X:X>X>X>X>X>X#XoX].]. X].( a . & y c | | ` ` ] ] ` h 0 % & $ & 0 g ` 7./.=X<X1X<X%X{.q.@.k & + V H.=X=X=X=X=X=X=X2X>X<X=X2X",
">X>X>XP.>X>X>X>X=X*X=X=X%X#X#X XW , & t j ` ` ` _ ` { j d 5 . . O + 5 0 j =..X6XeXqXqX<X.X9.[ d & % R H.:X#X=X=X>X>X=X*X=X*X=X=X",
"#X#X#XOX#X#XP.#X*X#X*X*X#X#X#XOXM.G a u r d j c ` ` ` _ f 0 5 & & & 4 7 t E .X8XtXtXtX5X'.%.k y a T ( K.#X+X+X*X#XP.#X*X*X*X#X#X",
"#X>X>X#X:X*X*X*X#X*X=X=X:X>X%X%XOX].( A e 6 d j _ ` _ c j f f d g d 0 4 & Z H.6XeXtXqX1XC.i e Z / H.oX#X*X*X#X*X*X#X=X=X=X=X=X=X",
">X>X>X>X*X*X*X*X=X=X=X=X=X>X>X>X2X2XoXQ = & 0 j { ` ` ` ` ` ` ` ] ` d 4 X 1 G.1XeXtXeX,XM.< $ G  X>X>X>X*X=X=X=X>X#X>X=X=X=X>X>X",
"2X=X2X=X2X2X>X=X=X=X2X2X2X2X2X2X>X>X%X~ > + 0 z ` { ` ` ` ` ` { | ` d @ O 1 G.5XeXtXeX<X( = % G OX=X=X=X>X2X2X>X*X#X=X=X=X*X>X>X",
"2X2X=X=X2X>X>X>X>X,X>X>X2X>X2X=X>X>X2X>X>X2X>X=X#X>X=X2X=X2X=X>X2X2X2X2X=X>X>X>X=X=X=X=X=X2X>X=X2X=X=X*X=X>X>X>X=X+X>X>X>X2X2X2X",
"=X=X=X=X=X=X>X2X>X2X2X>X>X>X=X>X>X=X>X>X>X>X%X%X+X=X>X=X=X>X>X>X=X2X2X2X>X>X*X>X=X=X=X=X=X>X>X2X=X=X=X=X=X>X>X>X*XL.=X=X>X>X2X2X",
",X2X=X*X=X=X=X>X2X>X2X2X>X>X>X>X>X>X>X2X>X>X%X#X#X=X>X>X>X2X>X>X=X2X=X=X>X>X>X>X=X*X=X=X=X2X=X=X>X2X>X>X>X2X2X>X=XOX*X=X=X>X=X=X",
"=X=X>X>X=X>X>X=X*X=X=X2X>X=X>X=X>X>X>X2X2X2X2X=X+X=X=X2X2X=X>X>X=X2X=X=X>X2X2X2X2X>X=X=X=X=X=X=X>X>X>X2X2X2X2X2X=X+X>X>X=X>X>X>X",
"2X>X>X>X>X>X>X=X=X=X>X=X*X*X=X=X>X>X>X>X,X2X=X=X#X=X2X=X<X=X>X>X2X2X=X=X>X>X>X2X2X>X=X=X=X=X=X=X>X=X=X>X>X2X2X2X=X*X>X>X2X2X2X>X",
">X>X>X>X<X=X2X2X=X2X>X=X=X=X=X=X>X>X=X>X=X>X=X=X*X2X=X=X=X2X=X=X=X=X=X=X=X*X=X=X=X>X=X=X=X=X>X2X2X2X2X>X>X>X>X>X=X*X>X>X2X2X2X>X",
">X>X>X>X=X=X2X2X2X2X>X=X=X=X=X2X>X>X>X>X>X>X=X*X*X2X=X2X=X=X=X=X=X2X=X%X=X*X*X*X=X<X=X=X=X=X>X>X>X2X2X2X2X2X=X>X=X#X>X>X>X>X>X>X"
};
