/* XPM */
static char *result[] = {
/* columns rows colors chars-per-pixel */
"64 64 218 2 ",
"   c #020A0D",
".  c #0E120F",
"X  c #16120F",
"o  c #021113",
"O  c #0B1313",
"+  c #0E1816",
"@  c #07131B",
"#  c #0C161A",
"$  c #0C191B",
"%  c #121614",
"&  c #1A1615",
"*  c #161915",
"=  c #191B16",
"-  c #101719",
";  c #141B1B",
":  c #1A1D1D",
">  c #221412",
",  c #281B16",
"<  c #17231F",
"1  c #1B211E",
"2  c #212017",
"3  c #23221B",
"4  c #2A241A",
"5  c #332A1E",
"6  c #3A2C1F",
"7  c #151D23",
"8  c #1A1F21",
"9  c #0D2B28",
"0  c #1C2222",
"q  c #1B2A27",
"w  c #1D222B",
"e  c #232422",
"r  c #222A26",
"t  c #292927",
"y  c #24252B",
"u  c #232C2B",
"i  c #2C2B2D",
"p  c #352D27",
"a  c #3A2D27",
"s  c #2D302F",
"d  c #3E3122",
"f  c #36302D",
"g  c #3C342B",
"h  c #3D3B2E",
"j  c #242631",
"k  c #272B32",
"l  c #2B2B33",
"z  c #2E2C38",
"x  c #312F32",
"c  c #322F3C",
"v  c #2D3233",
"b  c #2E3B33",
"n  c #333234",
"m  c #373737",
"M  c #313E36",
"N  c #34323C",
"B  c #3A353C",
"V  c #3D3A3D",
"C  c #4A1D16",
"Z  c #46251B",
"A  c #57271C",
"S  c #69281D",
"D  c #76281B",
"F  c #61331E",
"G  c #432C28",
"H  c #502621",
"J  c #443423",
"K  c #493624",
"L  c #4C3925",
"P  c #42352A",
"I  c #48362B",
"U  c #4D3B29",
"Y  c #533B25",
"T  c #553925",
"R  c #533D2A",
"E  c #43333F",
"W  c #44383F",
"Q  c #5C3838",
"!  c #653C2A",
"~  c #66373A",
"^  c #7B3938",
"/  c #354338",
"(  c #3D433D",
")  c #3A493F",
"_  c #57422E",
"`  c #5C432B",
"'  c #5C4430",
"]  c #62452B",
"[  c #67472C",
"{  c #6A4A2E",
"}  c #724F2E",
"|  c #6E4D30",
" . c #754936",
".. c #745234",
"X. c #7A5435",
"o. c #2F3343",
"O. c #353342",
"+. c #3A3543",
"@. c #353A46",
"#. c #3C3A45",
"$. c #433D45",
"%. c #453D49",
"&. c #533F43",
"*. c #344E44",
"=. c #3D4C42",
"-. c #3C5448",
";. c #444145",
":. c #4A4346",
">. c #414E44",
",. c #45454A",
"<. c #4D4649",
"1. c #444C4D",
"2. c #4E4A4B",
"3. c #524649",
"4. c #524B4D",
"5. c #435144",
"6. c #43554A",
"7. c #4E544C",
"8. c #4C5C4F",
"9. c #52514F",
"0. c #5B564C",
"q. c #564E50",
"w. c #4B5452",
"e. c #4E5D54",
"r. c #545451",
"t. c #5A5654",
"y. c #545D55",
"u. c #5A5D57",
"i. c #535F58",
"p. c #674744",
"a. c #754A44",
"s. c #645647",
"d. c #516354",
"f. c #586057",
"g. c #566159",
"h. c #5B645A",
"j. c #566A5B",
"k. c #5C6C5D",
"l. c #5E715F",
"z. c #77624F",
"x. c #616359",
"c. c #636C5E",
"v. c #786A58",
"b. c #63725E",
"n. c #68735F",
"m. c #5B6F61",
"M. c #577563",
"N. c #5F7260",
"B. c #617562",
"V. c #647965",
"C. c #697B66",
"Z. c #677E68",
"A. c #697D68",
"S. c #8A2E1E",
"D. c #843528",
"F. c #983727",
"G. c #843A39",
"H. c #B43E29",
"J. c #C83E26",
"K. c #9A4838",
"L. c #835836",
"P. c #855A35",
"I. c #8C5E37",
"U. c #8B5E3A",
"Y. c #925F39",
"T. c #AD462C",
"R. c #A74536",
"E. c #B54333",
"W. c #AA523B",
"Q. c #8F6037",
"!. c #8E613C",
"~. c #936037",
"^. c #93633C",
"/. c #9A663E",
"(. c #9E683E",
"). c #A46B3C",
"_. c #AA6D3F",
"`. c #B06B3C",
"'. c #B1743F",
"]. c #C9432B",
"[. c #DC482E",
"{. c #C74934",
"}. c #D34A31",
"|. c #DB4E32",
" X c #C75939",
".X c #D45339",
"XX c #E2492D",
"oX c #E45032",
"OX c #F35736",
"+X c #C7713D",
"@X c #F26E3E",
"#X c #8E5043",
"$X c #975848",
"%X c #B55941",
"&X c #87634D",
"*X c #946640",
"=X c #9D6941",
"-X c #826652",
";X c #966852",
":X c #A46D42",
">X c #A96F42",
",X c #AD7245",
"<X c #AF7649",
"1X c #B47443",
"2X c #B97642",
"3X c #BD7A45",
"4X c #B57848",
"5X c #BF7B49",
"6X c #AB6950",
"7X c #857B64",
"8X c #C07C47",
"9X c #C27E4B",
"0X c #FE7742",
"qX c #79826B",
"wX c #C5814D",
"eX c #C68451",
"rX c #F38F4D",
"tX c #FF9C53",
/* pixels */
"wXwXwX3XwXwXwXwXwXwXwXwXwXwXwXeXwXwXwXwXwXwXwXwXwXwXwXwXwXwXwXwXwXwXwXwXeXwXwXwX3X8XwXwXwXeXeXeXwXwX9X8X8X8X8X9X9XeXeXeXeXeX9XeX",
"eXwXwX3X9XwXwXwXwXwXeXeXeXwX9XwX9XwXeXeXeXwXwXwXwX9XwXwXwXwXwXwXwXwXwXwXwXwXwXwX8X9XwXwXwXwXwXwXwXwX9X8X9X9X8X9XeX9XeXeXeX9X9XeX",
"eXeXwX3XwXwXwXwXwXwXeXeXeXwXwXwXwXeXeXeXeXeXwXwXwXwXwXwXwXwXwXwXwXwXwXwXwXeXwXwX8X8XwXwXwX9XwXwXwXwXwXwXeXeXeX9XeXeX9XeXwXwXeX9X",
"wXwXwX3X9XwXwX9XwXwXwXwXwXwXwXwXwXwXwXwXwXwXwXeXeXeXeXeXeXeXeXwXwXwXwXwXwXeXeXeX8X9XwXwXwXwXwXwXwXeXeXeXeXeXeXeXeXeXeX9X9XwX9XeX",
"wX5X5X3XwXwXwX8X9X9X9XeXeXeXeXwXwXwX9X5X5X5X5XwXeXwXwXwXwXwXwXwXwXwXwX9XwXeXwXwX3X8XeXeXeXeXeXwX9XwXwXwXeXwX9X9X9X9X9X9X9X9XwXwX",
"wX9X9X3X9XwXwX9X9X9X9XeXeXeXeXwX9XwXwX9XwX5XeXwXwXwXwX9X9XwX9XwXwXwXwXeXwXwXwXeX8X9XwXeXeXeXeXwXwXwXwXwXwX9X9X9X9X9X9X9X9XeXwXwX",
"eXeXeX3XwXwXwXwX9X9X9X9X9X9XwXwXwXeXeXeXeXeXeXwXwXwXwX3X5X5X8XwXwXwXwXeXeXeXeXeX8X9XwXeXwXwXeXwXwXwX9X9X9X9X9X9X9X9XwXeXeXeXwXwX",
"wXwXwX3X9XwXeXeXeXeX8X8X8X8XwXwX9XwXeXwX5X5X5X5X5X5XwXwX9XwXwX9XwXwXwXwXwXwXwXeX8X9XwX9X9XwX9X9XwXwX9X8X8X8X9XeX9X9XwXwXwXwXwXwX",
"3X8X8X2X8X8X8X9X9X8X3X3X3X3X3X3X3X3X5X3X3X3X3X3X2X3X8X8X3X8X8X8X8X8X8X8X3X8X3X3X3X3X3X3X8X5X8X3X3X3X3X3X3X3X3X3X9X8X8X8X8X8X2X8X",
"3X3X8X8X3X8X9X8X8X8X8X8X5X8X5X5X3X5X3X3X3X3X3X3X2X3X3X3X3X3X3X1X).I.P.I.I.I.I.I.~._.3X3X2X3X3X3X3X3X3X3X3X3X3X3X8X+X8X8X8X8X8X8X",
"9X9X9X9X9XeXeXeXeXeXeXeXeXeXeX9X5XwXwXwXwXwXwX8X3XwXwXwXwXwX9X>X} K Z J K J 6 J ` Y.3X5X9X9X8X9XwXwXwXwXwXwXwX9X9X8X9X9XwXwX9X9X",
"9X9X8X9X9XeXeXeX9XeXeXeXeXwXwXeXwXwXwXwXwXwXwXwX3XwXwXwXwXwX9X^.L + O O * O O O 5 ..4X9X9X9X9X9XwXwXwXwXwXwXwXwX8X2X9XeXeXeXeXeX",
"9X9X9X9X9XeX9XeXeXeX9X9X9XwXwX9XwXwXwX1X)./././.~./././.).)./...p < e 8 8 0 8 0 e ' !.:X:X/.=X,X9XeXeXeXwXwXwXwXwX+XwXwXeXeXeXwX",
"eXeX9X9X9X9X9XeXeXeXeX9X9XwX9XeXwXwX9X^.] K J K K T T U L T L P f n m n x n B x x P R R L K ` P.4XeXeXeXeXwXwXwX9X'.wXwXwX9XwXwX",
"9X9X9X9X9X9X9X9X9XeX9X8X8X8X9XeXwXwX4X| 4 . . % % % % % + . * q m :.2.<.:.:.<.:.W i 1 * O O 3 { ,XwXeXwXwXwXwXwX9X3XwXwXwXwXwXwX",
"eXeXeXeX9X9X9X9XeX9X9X9X9X9X9XwX9X,X!._ r 0 q q 1 q 0 0 0 < q k W 2.4.r.q.r.t.t.,.i * O + : 1 U U.,XwXeXeXeXeXwX3X3XwXwXeXeXwXwX",
"wXeXeXeXeXwXwX9X9X9X9X9X9XeXwX5X^.{ U h / =.=.=.( =.) ) ) ) ( _ :.3.q.t.u.h.c.c.7.s - O 0 n n g L ] ^.5XeXeXeXeXwX2XwXwXeXeXeXwX",
"wX9XwXwXwXwX9X9X5X5X5X5X9X9XwX,X[ 4 = M 8.k.l.j.j.j.j.j.j.j.j.y.2.<.4.y.m.B.V.B.e.b + O t $.:.x : 2 ' >XwXwXwXwX9X3XwXwXwXwXwXwX",
"wXwXwX9XwXeXeXeXeXeXeX9XwXwX4X!.U = u -.k.Z.Z.V.B.A.V.B.V.V.V.k.t.2.r.j.B.B.V.B.e./ 0 ; i $.;.m q + I P.4X5XwXwXwX3XwXwXwXwXwXwX",
"9X8X8X8X9X9X9X9X9X9X9X9X2XY.{ R g M =.d.N.C.A.V.A.B.V.B.V.V.V.c.f.y.f.c.B.B.c.f.7.( l i t t i l n i f _ { P.,X3X3X2X3X3X8X8X3XwX",
"8X'.8X'.+X3X3X3X8X3X3X8X).] 4 1 b e.k.N.N.B.B.B.B.B.B.B.B.N.N.b.N.k.m.B.B.k.y.4.<.<.$.V t - - t V $.n 0 4 _ ~.3X2X2X3X3X3X3X3X3X",
"wXwXwX3XwXwXwXwX9X9XwX4XI.J * u =.k.C.A.B.N.B.N.l.B.k.B.N.N.N.N.N.N.B.B.B.h.r.3.:.4.4.:.s : = v :.<.B e . d U.3X3X3X3X5XwXwXwXwX",
"wXeXwX3XwXwXwXwX9X4X^...R a y m 8.B.Z.C.B.N.k.B.k.B.l.N.N.N.l.N.B.B.B.B.B.j.9.:.:.9.u.y.>.M M =.4.3.m 0 O d Q.wX9X9XwX5XeXeXwXwX",
"wXwXwX'.wXwXwXwX8X=X] 5 e i V <.y.l.B.B.B.B.k.B.B.l.B.N.N.N.B.l.N.B.B.B.B.h.9.<.3.r.k.c.j.d.e.r.9.:.n 1 O K ^.wXeXeXwXwXwXwXwXwX",
"wXwXwX'.9XwXwXwX9XI.J O 8 n <.t.h.l.B.B.N.l.N.l.l.l.B.l.l.l.B.B.l.B.B.B.N.h.r.2.4.f.l.B.qXM.b.f.r.;.x 8 + I *XeXeXeX9X8X8X9X9XeX",
"wXwXwX+X9XwXwXwXwXI.5 O 0 B 2.t.x.B.B.B.N.N.N.B.B.l.l.B.B.l.l.l.N.l.l.B.N.l.f.y.y.h.l.B.M.qXV.x.r.:.x 0 * L ^.wXwXwXwXwX9X9X9X9X",
"eXeXwX'.9XwXwXwXwX!.d O e m 2.t.x.B.V.N.l.N.b.l.B.l.l.B.l.B.l.B.l.B.l.l.N.l.k.h.k.l.N.B.M.qXl.h.r.$.x : + K !.5X9X9XwXwXeXeXeXeX",
"eXeXwX2X9XwXwXwX9X/.U * : x $.9.f.k.N.B.N.N.N.l.l.B.l.l.l.B.l.B.B.l.l.B.N.b.b.M.N.l.N.N.B.M.j.j.r.:.n 1 O K !.9X9XwXwX9X9X9X9X9X",
"wXwXwX'.9XeXwXwXwX>XX.U g g n V 6.y.m.m.B.B.V.V.B.B.M.M.B.B.B.B.b.B.B.b.B.M.V.B.M.V.B.l.k.j.y.t.q.$.n : % L ^.eXeXeXwX3X8X9X9XeX",
"wXwXwX3X9XwXwXwXeX5X<X=XX.I e u N 1.w.h.B.A.Z.V.Z.N.M.M.M.B.B.B.B.B.B.M.B.B.V.B.V.B.B.b.j.r.q.4.4.:.n e O K ^.eXwXwXwXwX9X9XwX9X",
"8X8X8X2X8X8X8X9XeX5XwXwX/.Y * : l $.q.u.m.N.N.N.N.l.l.l.B.b.l.N.N.N.l.l.b.b.b.l.b.B.B.k.y.4.<.3.4.:.n 8 % K !.5X5X3X8X9X9X8X9X9X",
"8X3X3X2X8X3X3X3X3X3X4X3X).Y . * G  .a.s.4.6.-.-.6.0.z.-Xv.x.y.d.j.h.h.h.h.j.h.j.h.h.j.u.9.<.<.<.3.:.n 0 % J Q.3X3X2X3X3X3X+X8X8X",
"5XwXwXwXwXwXwX5XwX9XwX9X>XT O , S K.K.^ g u 9 9 j Q #X%X$Xq.,.=.7.7.9.r.r.9.r.9.9.r.r.9.4.<.<.3.4.;.n 8 % J ^.9X9X3X9XwX9X9XwX9X",
"wXwXwXwXwXwXwXwXwXwX9X9X(.U % 4 D.{.].D., o o   & S H.}.H.~ O.O.#.<.2.<.<.<.<.2.<.<.<.<.<.<.<.3.4.:.n 0 % L *XwX9X2XwXwXwXwXwXwX",
"wXwXwXeXwXwXwX9X9X4X,X~...h u L K.[.].D >     > C S.J.XXR.~ O.o.#.<.<.<.3.:.<.:.:.3.:.:.<.<.<.4.4.:.n 0 + J /.wX9X2XwXwXwXwXwXwX",
"wXwXeXeXeX5X5X5X5X>X.._ P / 6.s.W.[.J.D X   > S F.J.oXJ.R.~ o.O.%.<.<.:.:.:.<.:.<.:.<.<.<.<.2.4.4.:.n 8 * J ^.wX9X2XwXwXwXwXwXwX",
"wXwXwXwXwXwX5XwXwX*XL & q *.j.v.,X.X].S & % A H.[.oXoX}.R.Q O.O.;.<.<.<.<.<.3.<.2.<.<.<.<.<.3.4.4.:.n 0 % K ^.wX9X'.wXwXwXwXwXeX",
"wXeXwXwXwXwXwXwXeXU.a O u -.M.qX6X%XR.! t t ! W. X.X{.E.G.Q #.@.;.<.3.4.<.<.<.<.3.<.<.<.<.<.<.4.4.:.n 0 + J !.eX9X'.wXwXwXwXeXeX",
"eXeXwXwXeXwXwXwXwX!.5 . u 6.B.qX7X;X&Xs.5.5.s.&X6X$X#Xa.p.&.$.%.,.<.<.<.<.<.<.<.<.<.<.<.<.<.<.4.4.<.m 0 O d !.eXwX+XwXwXwXwXwXwX",
"wXwXwXwXeXeXeXeXeX!.Z O q >.N.C.C.n.b.k.k.k.B.V.c.x.0.3.3.<.<.<.<.<.<.<.<.<.2.<.<.<.<.<.<.2.<.4.q.<.B : O J ^.wX8X3XwXwXwXwXwXwX",
"wXwXwXwXwXeXwXeXwX=X] 5 r / 8.j.k.j.m.N.N.B.m.m.j.e.1.,.,.<.3.3.<.<.<.<.<.<.<.<.3.<.<.2.4.3.3.<.,.V i 3 5 ` (.wXwX3XwXwXwXwXwXwX",
"9XwX9X8X9X9X9X8X9X,XY...` h b =.6.y.g.h.u.h.i.i.y.w.1.,.,.4.2.2.2.<.<.2.<.<.2.2.<.<.3.2.4.4.2.$.n t f _ ..^.,X8X3X3XwX3X8X9X9X9X",
"3X3X3X3X3X3X3X3X3X3X3X1XP.I - r m 2.r.q.4.4.q.4.4.2.<.%.<.2.3.<.<.<.3.2.<.<.3.&.<.3.<.2.4.4.:.m 0 * K P.'.3X3X3X3X2X3X3X3X3X3X3X",
"9X9X8X3X8X9X9XwXeXeX9XeX,X] 4 : t B :.:.:.<.%.,.:.%.<.&.<.,.<.:.:.:.,.:.<.%.<.%.<.<.%.<.:.:.V i : 4 ] _.9X9XwXwX3X5XwX9X8X9XwX8X",
"wXwXwX3XwXwXwXeXeXeXeXeX5X/.{ R p t x +.$.$.%.$.$.$.$.$.$.%.%.%.#.#.+.@.#.#.%.%.%.%.%.$.B x x P _ | /.5XwXeXwXwXwXwXwXwXwXwXwXwX",
"wXwXwX3X9XwXwXwX9X9X9X9X9X9X4XU.U & w l +.#.$.+.+.+.O.+.+.+.+.+.@.@.O.O.@.O.+.$.$.#.#.c j 8 3 R !.<XeXeXeXeXeXwXwXwX9XwXwXwXwXwX",
"wXwXwX'.9XwXwX8X9X8X8X9X9XeXeX1X| 4 & 8 z c O.O.O.O.+.+.O.c c O.B E E E $.E c c c O.#.c y - = ] ,XwXwXwXwXwXwXwXwX9X3X5X5X3XwXwX",
"wXwXwX2X9XwXwX9X9X9X9X9XeX9X9X8X^.{ K a y j z c +.+.$.$.N j j a Q ^ G.G.^ ~ G y j c $.B i # = R ,XwXwXwX5X5X5X5X5XwXwX5XwX8XwXwX",
"wXeXwX'.9XwXwXwXwXwX9X9X9X9X9XwX9X,X!.R 3 7 y z +.%.<.:.N 9 ; Z D.H.J.}.E.F.H = 0 v :.;.v ; = ` :XeXwXwX9X9X9X9X9X9XeX9XeXeXeXwX",
"wXwXwX8X9XwXwXwXwXwX9X3X8X5X9XwXwXwX1X{ 2 - w z #.%.2.:.v $ O Z F.|.OXOXoXT.A X @ k :.:.n = = ` :XeXeXeXeXeXeXeXeX9XeX9X9XeXeXwX",
"eXeXwX3XwXwXwXwXwXwXwXwX9X9X9XeXwXwX4X] % + w N +.%.%.%.k $ O A W.@X@XrX0XE.F X o k $.;.v : % Y =XwXeXwX9X9X5X9X9X9XeX9XwXwXwXwX",
"eXwXwX3X9XwXwXwXwXwXwXwX9X9X9X9XwXwX,X] % = y N %.%.%.#.q @ O H `.rXtXtXtX+X] % o w +.#.k ; O _ :XwXwXwX9X9X9X9X9XeX9XeXwXwXwXwX",
"wXwXwX3X3XwX5XwXwX9X9X9X9X3X5X5X9X9X,X] 3 % w x O.+.+.c j @ % K ).rXtXtXrX2X] * @ w o.z y ; , ` :XwX5XwXwX8X9XwX9XwX3XwX9X9X9X9X",
"3X3X3X'.3X3X3X3X3X3X3X3X3X3X2X3X3X3X'.L.` G p i l c +.O.j # . a } ).'.`.).L.U t 7 w j l p P R X.:X3X3X3X3X3X3X3X3X'.3X3X8X8X3X+X",
"3XwX3XwX3X3X3X3X3X3X9X9X9X9X9X9X9X9X5X1X/.L.R t 8 j O.c j - O & 5 K K K J P n l j y 7 e U X.).1X3XwX5XwX3X3X3X4X3X3X9X9X3XwXwX3X",
"wXwXwXwXwXwX5X9X9X9XwXeXwXeXwXwX9XwXeX9X9X1X} 4 - w c +.z 8 O O O O . o . : l O.O.j $ , | ,X9XeXwXwXwXwXwXwX5XwX8X3XwX9XwXwXwXwX",
"eXeXeXeXeXeXwXwXwX9XeXeXeXeXeXeX9XwXeXeXeXeXX.4 % e c B x 8 % .           @ j +.$.y & , | 5XeX9XeX9X9X9XwXeXeXeXwX3X9X9X9X9X9XeX",
"9X9X9X9XwXwXwXwXwXwXwXwXeXwXwXwXwXwXwXwX9XeX9X9X3XeX9XeX9X9X9XwXeXeXeXeXwXwXwXeX9X9X9X9X9XeXeX9X9X9X8X8X9XwXwXwX9X'.9X9X9XeXeXeX",
"eX9X9X8X9X9X9XeXwXeXeXwXwXwXwXwXwXwXwXwX9X9X9X8X3X9X9X9XeX9XwXwXeXwXwXwXwXwXwXwX9X8X9X9X9XeX9X9XeX9X9X9X9XwXwXwX9X'.9X9X9XeXeXeX",
"wX9X8X8X9X9X9XeXeXwXeXeXwXwXwXwXwX9XwXeXeXwX8X8X2X9XeXeX9XeXwXwXwXwXwXwXwXwXwXwX9X8X9X9X9XeX9XeX9XeXwXeXwXwXeXeX9X'.9X9X9X9X9X9X",
"eX9XwXwXwX9XwX9X8X8X9X9XwX9XwX9XwXwXwXeXeXeXwX9X2X9X9XeXeXwXwXwX9XeXeX9XwXeXeXeXeXeX9X9X9X9X9X9XwXwXwXeXeXeXeXeXwX+X9XwXeX9XeX9X",
"wXwX9XeXwXwXwX9X9X9XeX9X8X8X9X9XwXwXwXwXwXeXwX9X3X9XeX9X9XeXwXwXeX9XeX9XwXwXwXeXwXwX9X9X9X9X9X9XwX9XwXwXwXeXwXwXwX8XwXwXeXeXeXwX",
"wXwXeX9XeX9XeXeX9XeXeX9X9X9X9X9XwXwXwX9X9XwX9X9X8XeX9X9X9XeX9X9X9X9X8X9X9X8X9X9XwXwX9X9X9X9XwXwXwXeXwXeXwXwXwXwX9X8XwXwXeXeXeXwX",
"wXwXwXwX9X9XeXeXeXeX9XeX9X9XwX9XwXwXwXwXwXwX9X8X8XeX9XeX9X9X9X8XwXwX5X5X5X5X5X5X9XwX9XwX9X9XwX9XeXeXeXeXeXeXwXwX8X3XwXwXwXwXwXwX"
};
