/* XPM */
static char *result[] = {
/* columns rows colors chars-per-pixel */
"64 64 190 2 ",
"   c #060D0F",
".  c #080E0F",
"X  c #020E11",
"o  c #080F10",
"O  c #061213",
"+  c #0C1313",
"@  c #031218",
"#  c #0B161B",
"$  c #0E181A",
"%  c #111615",
"&  c #1D1713",
"*  c #141916",
"=  c #181B15",
"-  c #121719",
";  c #131B1B",
":  c #1B1D1A",
">  c #231D16",
",  c #291A15",
"<  c #16211D",
"1  c #1A211E",
"2  c #232017",
"3  c #22221A",
"4  c #2B241D",
"5  c #2E281E",
"6  c #34231C",
"7  c #3B231D",
"8  c #342A1E",
"9  c #3A2A1D",
"0  c #161C20",
"q  c #1A1E21",
"w  c #172125",
"e  c #1B2121",
"r  c #1F2A26",
"t  c #1C232C",
"y  c #232222",
"u  c #212A25",
"i  c #2B2822",
"p  c #23252B",
"a  c #232B2B",
"s  c #292A2C",
"d  c #342C23",
"f  c #392E21",
"g  c #322C28",
"h  c #25312B",
"j  c #2A352F",
"k  c #3D3123",
"l  c #32322D",
"z  c #3E322E",
"x  c #393B2F",
"c  c #272830",
"v  c #2A2A33",
"b  c #2D2D3A",
"n  c #302E31",
"m  c #312E3A",
"M  c #2A3332",
"N  c #2E3539",
"B  c #343335",
"V  c #373833",
"C  c #35333D",
"Z  c #393639",
"A  c #3B3B3C",
"S  c #52261D",
"D  c #432F21",
"F  c #453423",
"G  c #4A3624",
"H  c #4A3926",
"J  c #443728",
"K  c #4D3A29",
"L  c #503625",
"P  c #563E27",
"I  c #5B3E27",
"U  c #543D28",
"Y  c #583E2B",
"T  c #4B3A3B",
"R  c #583632",
"E  c #7C2F20",
"W  c #673525",
"Q  c #733225",
"!  c #7B3223",
"~  c #35433A",
"^  c #3A473D",
"/  c #394A3D",
"(  c #55412D",
")  c #5D442C",
"_  c #464635",
"`  c #574438",
"'  c #63442C",
"]  c #64492F",
"[  c #6C4A2D",
"{  c #714D2E",
"}  c #654930",
"|  c #6D4D32",
" . c #765134",
".. c #7B5231",
"X. c #7F5835",
"o. c #2F3343",
"O. c #363342",
"+. c #3A3542",
"@. c #3D3A45",
"#. c #4D3740",
"$. c #423C44",
"%. c #4C3D43",
"&. c #453E48",
"*. c #3E4544",
"=. c #3E4D42",
"-. c #454245",
";. c #4A4346",
":. c #404F44",
">. c #474148",
",. c #4D4649",
"<. c #4E4A4B",
"1. c #584547",
"2. c #50474B",
"3. c #524A4D",
"4. c #425145",
"5. c #47574A",
"6. c #4D564D",
"7. c #47594B",
"8. c #4B5A4E",
"9. c #52514F",
"0. c #564D50",
"q. c #545451",
"w. c #595554",
"e. c #565C54",
"r. c #595D57",
"t. c #5A5F58",
"y. c #674946",
"u. c #4F6051",
"i. c #556556",
"p. c #576558",
"a. c #5A6459",
"s. c #5C6C5C",
"d. c #5E705F",
"f. c #5F7260",
"g. c #617562",
"h. c #647965",
"j. c #687C67",
"k. c #6A7E6A",
"l. c #843424",
"z. c #933928",
"x. c #825633",
"c. c #865934",
"v. c #8C5C36",
"b. c #845A39",
"n. c #8B5C39",
"m. c #925F3A",
"M. c #AE412E",
"N. c #BA442D",
"B. c #A54737",
"V. c #BC4937",
"C. c #8E603B",
"Z. c #936037",
"A. c #94633C",
"S. c #9C663C",
"D. c #9D693F",
"F. c #A56B3E",
"G. c #AC6F3F",
"H. c #C9452B",
"J. c #D24A30",
"K. c #D94D33",
"L. c #E24F33",
"P. c #984B40",
"I. c #8B5E48",
"U. c #956541",
"Y. c #946444",
"T. c #9C6A43",
"R. c #A46C42",
"E. c #A96E42",
"W. c #AC7245",
"Q. c #B57443",
"!. c #B97642",
"~. c #BD7A45",
"^. c #B3784B",
"/. c #BE7B49",
"(. c #C07C47",
"). c #CD7F45",
"_. c #C27E4B",
"`. c #C87D4C",
"'. c #6C806C",
"]. c #C5814D",
"[. c #DF894A",
"{. c #C68451",
"}. c #E58D4C",
"|. c #EB904D",
" X c #F1944F",
".X c #FB9951",
"XX c #FFA354",
"oX c #FFA956",
"OX c #FFAD5A",
"+X c #FFB25B",
/* pixels */
"].].].~._.].].].].].].].].].].].].].].].].].].].].].].].].].].].].].].].].].].].~.(.].].].{.{.].].]._.(./././._.{.{.{.{.{.].].].",
"{.].].~.].].].].].].{.].{.].].].].].{.{.{.].].].].]._.].].].].].].].].].].].].].(._.].].].].].].].]._.(._./._._.{.{.].{.{.].].].",
"{.{.].~._.].].].].{.{.{.{.].].].].].{.{.{.].].{.].].].].].].].].].].].].].].].].~._.].].].].].].].].].].{.`.{.{.].{.].].].].].].",
"].].].~._.].]._.].].].].].].].].].].].{.].].].{.{.{.{.{.{.{.{.].].].].].].{.{.{.(._.].].].].].].].{.{.{.{.{.{.{.{.{.{.`.].].].].",
"]././.~.].].]._.(.~.].].{.{.{.]._.]._./.(._._.].{.].].].].].].].].].].].].].].].~._.{.{.{.{.{.].].].].].].]._./._././././.].].].",
"]._._.~.].].]._.(._.].].{.{.{.].].].]./._._.].{.].].]._._.]._.].].].].].].{.].{.(.(.].{.{.{.{.]._.].].].].].(._._._._.].].].].].",
"{.{.{.~._.].].].{.`.].].].].].].`.{.{.{.{.{.{.{.].].].~./.~._.].].].].{.{.{.{.{.~._.].].].].].].].].]._._.`._.].].].].{.{.{.].].",
"].].].~._.].{.{.{.U.H % + o . . o o > } Q./.(.]././.].].].].]._.].].].].{.].].].(._.].].].]._._.].]._.(.(.(._.].]._.].].].]._.].",
"(.~.~.!.~.~./././.A.H % + + + + + + 2 ] F.~.~.G.G.(.(.(.(.(.~.(.(.(.(.(.(.(.(.(.G.(.(.(.(.(.~.(.(.~.~.~.~.~.~.~./.!.(.(.~._.~.(.",
"~.(.~.!././._././.A.H * ; e r h h h l ) x.Z.Z.Z.v.v.v.v.v.v.v.v.v.v.v.v.v.v.v.v.v.v.c.m.R.!.~.~.~.~.~.~.(.~.(.(.~.!.~.~.~.~.~.~.",
"].].].].{.{.{.{.{.T.U * e j =.7.8.5.4._ H F G F G G F F F F F F F F F F D F F F D D D L c././._.].].).]._._.].]._.~.]._.].].].].",
"]._./._.].].{.].].A.G + r =.p.h.h.g.a.~ 1 % + + % & % % % % % $ % % % % % % % % . + . 4 | ^._.`.].].].].].].].]._.!.].].{.{.{.{.",
"_._._._.].].].W.D...8 + r =.h.'.k.j.r.^ s ; ; : : 1 r r h r r r u u u r r r r r u u u u ( b.F.!.].].{.].].].].].].G.].].{.].{.].",
"].].]._.]._._.) ( k &   e =.f.'.j.a.q.>.Z n n n B A =.=.=.=.=.=.:./ =.=.=.=.=.=.4.4.4.~ x F I v./.{.{.{.{.].].].].~.].].].].].].",
"].].].~./././.: = % o o r =.d.f.a.3.,.>.-.%.%.$.;.9.i.d.s.s.s.s.s.s.s.s.s.a.s.s.s.d.d.u.~ < 2 ' W.].].].].].].]._.~.].].].].].].",
"].{.{.].]._._.+ + $ ; < j 4.p.s.e.,.;.<.0.q.q.3.q.r.s.g.g.h.h.h.h.h.h.h.h.h.h.h.h.'.'.s.=.h < H b.W.].{.{.{.{.{.].G.].].{.{.].].",
"].{.{.{.].].].+ + w j / 4.8.q.q.3.;.;.9.r.a.a.a.a.r.r.a.s.d.h.h.h.h.h.h.h.h.h.h.h.h.j.d.i.4.A x K ] A./.{.{.{.].].!.].].{.{.{.].",
"].].].].].].].o + r / i.s.e.2.,.,.;.2.e.s.f.g.f.s.r.9.<.q.s.f.h.f.f.f.f.f.f.f.f.g.g.g.g.d.d.u.~ < 3 ) E.].].].]._.~.].].].].].].",
"].].].].].{.{.  + h 7.h.h.t.0.2.;.;.3.i.d.h.h.h.f.r.<.;.3.a.f.f.f.f.f.f.d.f.f.f.f.f.d.g.h.'.d.4.a - F b.^./.].].].~.].].].].].].",
"~._.(.~.~._._.  + h 7.h.k.g.t.r.3.2.3.e.d.h.h.h.f.i.<.` 3.a.f.g.f.f.f.f.f.f.f.f.f.f.g.g.h.h.f.6.A s g K [ v.G.~.~.!.~.~.(.(.~.].",
"G.).].G.~.~.~.  + h 4.h.'.k.g.s.q.<.<.e.s.h.h.h.f.e.<.,.9.p.f.g.f.f.f.f.f.f.f.f.f.f.f.f.h.g.s.a.<.A s y 4 P A.~.~.!.~.~.~.~.~.~.",
"{.].].G._.].].  + r =.i.d.s.s.i.9.<.<.q.s.d.d.d.s.e.9.<.q.p.f.g.g.f.f.f.f.f.f.f.f.f.f.f.f.f.d.t.w.,.B e O F v.~.~.~.~./.].].].].",
"].{.].].].].].O + e j / =./ ^ ^ _ ,.<.9.e.e.e.e.e.e.q.e.p.s.f.g.f.f.f.f.f.f.f.f.f.f.f.g.g.h.f.s.w.2.B y + k C.]._._.]./.{.{.].].",
"].{.].G.].].].+ + $ < e e < ; r N -.2.3.<.<.<.<.9.q.a.s.d.f.f.f.f.f.f.f.f.f.f.f.f.f.f.f.g.h.f.t.q.>.n q + F A.].].{.].].].].].].",
"].].].!.(.].].< < % + . .   + : B -.2.3.3.<.;.<.<.e.s.g.g.g.f.f.f.f.f.f.f.f.f.f.g.d.f.g.g.d.s.r.q.>.B e $ H U.{.{.{._./././.].].",
"].].[.G.].].].) ( k 2 . + - q s Z ;.2.9.q.q.q.q.q.p.f.g.h.g.g.f.h.f.f.f.h.f.f.f.g.g.g.d.s.p.e.e.3.-.n : % H A.].{.].].]._.`.].].",
"{.{.].G.].].].G.D. .k + ; s Z $.;.;.3.e.a.s.s.s.s.d.g.g.g.g.g.g.f.h.f.g.g.f.h.f.g.g.h.d.p.9.9.3.3.>.B q + F C.].(._.`.].].].].].",
"{.{.{.G.(.].].].].S.G % q V ;.3.;.<.<.e.s.g.g.g.f.f.d.d.d.d.d.s.d.d.d.d.f.d.d.f.d.f.f.s.e.2.;.2.3.>.V 1 % G C._._.{.]._.]._.].].",
"].].].G.].{.].].].D.( + 1 V ,.0.3.;.<.9.p.a.s.a.a.p.a.a.a.a.a.a.p.a.a.a.p.a.p.a.a.a.a.p.9.<.;.2.3.;.B : % H A.{.{.{._.~./._.].].",
"].].[.G.].].].{.{.D.H % e V ;.3.2.2.<.3.9.9.9.9.9.9.9.9.9.3.9.9.3.9.9.9.3.9.9.9.9.9.9.9.3.2.;.2.3.;.B e % G A.{.].].].]._._.].].",
"].].).~.].].~.(.].C.F % e B -.3.3.<.;.<.<.,.,.,.<.<.,.,.;.,.,.,.,.,.,.,.,.,.,.,.2.;.;.<.;.<.2.2.2.;.B q % F C./._.~.~.].].(././.",
").G.G.~.G.).~.~.~.C.F % e B ;.3.2.2.<.;.;.;.;.,.;.;.;.,.,.;.,.;.,.;.%.,.,.;.,.;.,.;.;.,.;.;.2.2.3.>.B e % F v.~.~.!.~.~.~.~.~.~.",
"/.].]._._.]._.].].C.G % e B >.3.1.<.,.,.;.,.,.;.,.,.;.,.,.;.,.,.;.,.,.,.;.,.;.,.;.,.;.,.,.,.,.1.2.;.V q % F A.].].~.].].].(.].].",
"].].].].].].].].].A.G * 1 B ;.3.3.,.,.,.,.,.,.,.,.,.,.,.,.,.,.,.,.,.,.,.,.,.,.,.,.,.,.,.,.,.,.3.3.;.B e % H A.].].G.].].].].].].",
"].].].].].].`._._.A.G + q Z ;.3.3.<.,.,.,.,.,.,.,.,.,.,.,.,.,.,.,.,.,.,.,.,.,.,.,.,.,.,.,.,.<.3.0.;.V q + J A.].].~.].].].(.].].",
"].{.{.{.{.]./././.A.G % : Z <.0.3.;.,.,.,.,.,.,.,.,.,.,.,.,.,.,.,.,.,.,.,.,.,.,.,.,.<.,.,.,.,.0.0.,.Z e + k C.].(.G.].].].].].].",
"].].].{.].]._.].].A.H $ 1 V >.3.3.<.;.<.;.<.,.,.,.,.,.,.,.,.<.,.,.,.,.,.,.,.,.,.;.<.,.,.,.,.<.3.0.>.B e + F A.].).~.].].].{.{.{.",
"{.].].].].].].].].U.H % w a Z $.;.,.;.<.<.;.<.,.,.,.,.,.,.,.,.,.,.,.,.,.,.,.1.,.<.;.,.,.2.2.,.;.$.A B i 9 ] T.{.(.G.].].].].{.].",
"{.{.].].].].].{.{.A.H * $ ; w r o.*.<.<.<.<.<.,.,.<.,.1.,.2.2.2.,.<.,.<.<.2.<.,.2.<.2.2.3.3.<.A B s J } X.T.^.{.].G.].].].].].].",
"].].].].{.{.{.{.{.A.H * # O @ ; M *.<.<.1.,.,.,.<.;.<.<.,.<.;.,.1.,.<.<.;.2.;.<.2.;.<.3.3.3.;.B 1 : H A./.{.].].].~.].].].].].].",
"].].].].].].].].].A.H $ % & , 7 T R y.0.&.&.>.>.>.>.>.>.>.;.>.;.;.>.;.;.>.>.;.;.>.>.>.&.-.$.Z a % % ( R.].].].].].G.].].].].].].",
"_._.(._.]._._.].(.C.k @ 2 S ! z.B.B.P.y.%.&.@.&.$.$.$.$.$.$.$.$.$.@.@.$.@.$.$.$.&.@.+.O.b t w ; + % ( F._.(.]./.(.).].].].].~.).",
"~.~.~.~.~.!.~.~.~.b.k @ 6 ! N.L.L.K.V.P.%.o.o.O.+.+.+.+.C +.C +.+.+.C C +.+.+.+.+.O.O.b t # O O + = K S.~.~.~.~.G.G.).G.).G.G.].",
"_._.(.~._.]._.].].T.( 4 7 ! N.J.K.H.M.l.#.O.o.O.O.+.C +.+.+.+.+.+.+.+.+.+.+.O.O.+.%.;.$.z 5 > & % = U D.~.].]./.].].].].].].].].",
"].].].~.].].].].{.^.Y.| I W Q l.l.E Q R %.@.@.+.O.+.$.$.&.&.&.&.$.$.&.&.&.$.+.O.%.y.I.Y.m.c.{ F 1 % K T.{.{.].].].].].].].].].].",
"].].].~.].].].]._._./.W.m.P , 4 , , i z $.;.&.+.O.@.%.,.,.2.%.&.;.;.,.<.,.>.O.o.1.Y.`.}.}.}.!...5 % K T.{.{.{.`.].]._._.].].].].",
"].].].!._.].].~./././._.E.} 1 O X X $ a $.,.&.+.+.@.&.,.,.,.%.&.2.,.,.;.;.@.N o.%.R.}..XoXXX}.v.f + H D.`.{.].].].).(.(.].G.].].",
"].{.].G._.].].]._._._._./.A.' F : + # a @.>.&.+.O.+.&.%.&.&.&.&.,.>.$.Z B s t t T F. XoX+XoX XS.f . F A.(.(.(.~._.].(.].].].(.].",
"].{.].G.].].].].].].].(._.~.W.c.H % $ p C @.$.+.O.+.+.+.$.$.O.#.&.@.C s : % @ # D m.|.oXOXoX|.m.f X D U._._._./._.{.].].].{.{.].",
"].].].].].].].].].].(.~.(.(._.W.' : ; p m +.+.O.O.O.+.O.O.O.O.O.O.O.v y ; + + + d c.).|..X X).x.8 : Y T.{.{.{.{.{._.].].].{.{.].",
"{.{.].G.].].].].].].].].].].].W.) * ; p C +.+.+.O.O.O.O.O.O.O.O.b c p k U P I U I { c.F.F.F.c.[ Y ) b.W.]./._./._.`.].].].].].].",
"{.{.{.(.].].].].].].].]._._._.F.P % ; p C @.$.O.O.O.O.+.$.O.$.m p 0 i } S.E.W.R.c.) f k F F f ) b.R./._._._._./._.{.].].].].].].",
"].].].G.].].{.].].].].]./.~.~.F.) 2 ; p m O.+.O.O.$.O.O.O.+.O.c 0 + f v._._.]._.F.' : + O O : ' E._.]._._.]./.].(.].]._._._._.].",
").G.~.G.~.~.G.).~.G.~.~.~.~.~.F.X.I k g s b m C O.O.O.O.O.b v s d F [ S.!.~.~.~.G...G 9 6 f L x.Q./.~.~.~.~.~.~.~.G.~.~.~.~.~.~.",
"].].(.].).G.].G.~.(.]././._._.~.W.D.b.K y y p C O.O.O.O.v p 0 f } A.F.Q./.!.~._./.E.A.n.c.n.A.E./._./._.~.~.~./.(.G._._._.].~._.",
"].].].].].].].(.(.].{.].{.].{.].].{.W.} > - p m $.$.#.O.v 0 + D n.`.(.(._._.(.].].].{.`.].{.].].].].].].]./._.].].].]._._._.].].",
"].].{.{.{.{.].].].].].{.{.{.{.{.].].^.| 2 $ p b O.@.@.O.s ; + D A.].].].].]./.{.{.{.{.{.{.{.].].].]._.].{.{.{.{.(.(.`._.(./.].].",
"].].].].].].].].].].].].{.].].].].].].].].].]._./.].`.].].].].].{.{.{.{.].].].].].].{.`.{.{.]._.]._./././.].].].].G.]._.{.{.{.{.",
"].]._._._._.].].].{.{.{.].].].].].].].].].].(.~.!.].].].].].].].{.].{.].].].].]._._._._._.].].].]._./.].].].].].].~.)._.].].].{.",
"].`./._././.`.].].].{.{.].].].].].].].].].].(.~.!._.].].].].].].].].].].].].].]._./././._.]._.].].].].].].].].].(.G.(.(./.].].`.",
"].].].].].].]._.(.(._.].].`.].].].].].{.{.{.]./.!._.].{.{.].].].].].].].].{.{.{.{.].].`.`._./._.].].].].{.{.{.{.].!.].].].].].].",
"].].].].].]._._._._.]._./.(././.].].].].].].]./.~._._.{.].].].].].].].].].].].].].]._.(./._._.].].].].].].].{.{./.~.].].{.{.{.].",
"].].].].].].{.{.{.`.]._.(._._._.].].].].].].].].~.].].`.].]._._.`.]._._._._.]./.].]._./._._.].].{.{.].].{.].].].].~.].].].{.{.].",
"].].].].]._.{.{.{.{.].]._.].].].].].].].].].]._.~.].].].]._././.].]./.~././././._.].].].].].].].].{.{.{.{.].].]._.~.].].].].].]."
};
