/* XPM */
static char *result[] = {
/* columns rows colors chars-per-pixel */
"64 64 138 2 ",
"   c #020706",
".  c #030A0B",
"X  c #030B10",
"o  c #181B17",
"O  c #171F1E",
"+  c #1A1C18",
"@  c #1A201F",
"#  c #2B2216",
"$  c #2C251D",
"%  c #3B2F21",
"&  c #3C3123",
"*  c #3A3229",
"=  c #453724",
"-  c #4F3D27",
";  c #463928",
":  c #4E3E28",
">  c #503D28",
",  c #514027",
"<  c #514129",
"1  c #5E462C",
"2  c #43403C",
"3  c #504637",
"4  c #664529",
"5  c #63462C",
"6  c #63492D",
"7  c #654630",
"8  c #6B4B31",
"9  c #614F3E",
"0  c #704D33",
"q  c #6F5035",
"w  c #725233",
"e  c #7E5533",
"r  c #7D5B35",
"t  c #4E4A47",
"y  c #5E554D",
"u  c #4E5355",
"i  c #5E5D5E",
"p  c #615141",
"a  c #6F5A47",
"s  c #6F645C",
"d  c #6B6761",
"f  c #777575",
"g  c #875735",
"h  c #845835",
"j  c #895935",
"k  c #855B3A",
"l  c #8C5C3B",
"z  c #915E37",
"x  c #846137",
"c  c #856238",
"v  c #8E673B",
"b  c #9A653D",
"n  c #9A693A",
"m  c #A36C3E",
"M  c #AA6E3F",
"N  c #A0713E",
"B  c #E4662C",
"V  c #E36731",
"C  c #E46C36",
"Z  c #E56E39",
"A  c #EA7637",
"S  c #E6713A",
"D  c #EA763B",
"F  c #EA793E",
"G  c #845D40",
"H  c #9A6641",
"J  c #9E6841",
"K  c #9F7441",
"L  c #98724F",
"P  c #A36E44",
"I  c #A96E42",
"U  c #A27442",
"Y  c #AE7245",
"T  c #AE7448",
"R  c #B67442",
"E  c #B97642",
"W  c #BD7A45",
"Q  c #BF7B49",
"!  c #C07C46",
"~  c #C27E4B",
"^  c #EA7B43",
"/  c #E97D4D",
"(  c #BC8348",
")  c #9C8061",
"_  c #BE9076",
"`  c #C5814D",
"'  c #D68C4B",
"]  c #DC924E",
"[  c #C68451",
"{  c #D58F53",
"}  c #E98042",
"|  c #E38847",
" . c #E78C4A",
".. c #F48343",
"X. c #F78E4A",
"o. c #F89047",
"O. c #F6904B",
"+. c #F9904B",
"@. c #E98255",
"#. c #E9855B",
"$. c #E39C53",
"%. c #EA9D52",
"&. c #E1905C",
"*. c #F89C52",
"=. c #E4A055",
"-. c #EBA055",
";. c #FDA455",
":. c #FCA75F",
">. c #F69A65",
",. c #E49474",
"<. c #F09674",
"1. c #F4A57E",
"2. c #7E7F82",
"3. c #817F81",
"4. c #878485",
"5. c #938887",
"6. c #9A8C83",
"7. c #979698",
"8. c #96989E",
"9. c #BB9D96",
"0. c #999CA5",
"q. c #B2ACAF",
"w. c #B4AFB4",
"e. c #DCA996",
"r. c #E0AF80",
"t. c #E0AF9E",
"y. c #F1AD94",
"u. c #F4B299",
"i. c #CDB5B3",
"p. c #D3BEBB",
"a. c #F6C3A8",
"s. c #EFC7BD",
"d. c #DACDCD",
"f. c #D6CED3",
"g. c #DCD5DD",
"h. c #F3D0C6",
"j. c #F0D2CD",
"k. c #F9DAD7",
/* pixels */
"` ` ` W ` ` ` ` ` ` ` ` ` ` ` ` ` ` ` ` ` ` ` ` ` ` ` ` [ ~ ` ` ` ` ' ! ~ [ [ ~ ! ~ ~ [ ~ ' { ~ ~ [ ~ ~ ~ ~ ~ ~ ~ ~ { ~ [ ~ [ [ ",
"[ ` ` W ~ ` ` ` ` ` [ ` [ [ ` ` ~ [ [ [ [ ` ~ ` ` ` ` ` ` ~ ` ~ ` ` ` ` ~ ~ ` ` ! ~ ~ ~ ~ ~ [ ~ ~ ~ ~ ~ ~ ~ ~ ~ [ [ ~ [ [ ~ [ ~ ",
"[ [ ` W ` ` ` ` ` ` [ [ [ ` ` ` ~ [ [ [ [ [ ` ` [ ` ` ` ~ [ ' [ ` ` ` ` ` ` ` [ ~ ~ [ ~ ~ ~ ~ [ [ ~ ~ [ [ ~ ~ ~ ~ ~ [ [ [ ~ ~ { ",
"` ` ` W ~ ` ` ~ ` ` ` ` ` ` ` ` ~ [ [ ~ ` ` ` [ [ [ [ [ [ [ ~ ~ [ ` [ ` ` [ [ [ ~ ~ ~ [ [ [ [ ~ ~ [ [ [ [ [ [ ' { ~ [ ~ ~ ~ ~ ~ ",
"` Q Q W ~ ` ` ~ ~ ! ~ [ [ [ [ ` [ [ ! ~ ~ ~ ~ ~ ` [ [ ` ` ` [ [ [ ~ ~ ~ ` ` [ ` ~ ~ ~ [ [ [ [ ~ ~ [ [ [ [ ~ ~ ~ ~ ~ ~ ~ ~ ~ ~ { ",
"` ~ ` W ` ` ` ~ ~ ~ ~ [ [ [ [ ` ~ ~ ~ ~ ~ ~ ~ [ ` ` ~ ~ ~ ~ ~ ~ ~ [ [ [ [ ` ` [ ~ ~ ~ [ [ [ [ ~ [ ~ ~ ~ [ ~ ~ ~ ~ ~ ~ ~ ~ [ ~ ~ ",
"[ [ [ W ~ ` ` ` ~ ~ ~ ~ ` ~ ` ` [ [ [ [ [ [ ~ [ ` ~ ` ! ~ ~ ~ ` ' ~ ` [ [ [ [ [ ~ ~ ~ ~ ~ ~ ~ ~ ~ ~ ~ ~ ~ ~ ~ ~ ~ ~ [ [ ~ { ~ ~ ",
"` ` ` W ~ ` [ [ [ [ ! ! ! ! ~ ` ~ ~ [ ~ Q Q ! W ! ! [ ~ ~ ~ ~ ~ ~ ~ ` ` ` ` ` ` ~ ~ ~ ~ ~ { ~ ~ ' ~ ~ ~ ~ ! ~ ~ ~ ~ ~ ~ ~ [ [ ~ ",
"~ W ! R W ! ! ~ ~ ! W W W W W W ! W ! W W W W W E W ! W ! W ! ! ~ ! ! ! ~ ! ! ! R W ! ! ! ! ! ! ! ! ! ! E ! ! ! ~ ~ ~ ! ! ! ! ! ",
"W ! W W Q ! ~ ~ ~ ~ ~ ~ W Q Q Q ! ! W W W W ! W E Q W ! W W Q ! ! ! ! ! ~ ! ! W E W W E ! ~ ! E ! ! ! ~ ! ! ! ~ Q Q ~ ~ ! E Q Q ",
"~ ~ ~ ~ [ [ [ [ [ [ [ [ [ [ [ [ ` ` ` ~ ~ ~ ` ~ W ~ ` ` ` ~ ~ ` ~ ~ ! ~ ~ ~ ~ [ ~ ~ ! ! ~ ~ ~ ~ ! ~ [ ~ ! ~ [ ~ ~ ~ ~ ~ ~ ~ ~ ~ ",
"~ ! ~ ~ [ ~ ` ` ~ ~ [ [ [ ` [ ~ ` ` ` [ ` [ ` ~ ! ` ` ` ` ` ` ` [ [ ~ ~ ' ~ [ ~ ~ ~ ~ ~ ~ ~ ~ ~ ~ ~ ~ [ ~ ~ ~ [ ~ T ~ ~ [ [ [ ~ ",
"~ ! ~ ! ~ ~ [ [ [ [ ~ ~ ~ ` ` ~ ` ` ` ~ ~ ` ` ~ W ` ` ` ! ~ ~ ` ` ` [ ~ ~ ~ ~ ~ ~ ~ { ~ ~ ~ ~ ~ ~ [ [ [ [ ~ [ ~ ! E ~ ~ [ [ [ [ ",
"[ [ [ ~ ~ ~ ~ [ [ [ [ ~ ~ ` ~ [ ` ` ` ` [ ` ` ~ E ~ ` ` ! ! [ ~ ~ ` ~ ~ ! ~ ~ ~ ~ ~ ~ [ ~ ~ ~ ~ ~ [ [ [ [ ~ ~ [ ~ ! ~ ' [ ~ [ ~ ",
"[ ~ ~ ~ ~ ~ ! ~ ~ [ ~ ~ ! ! ~ [ ` ` [ [ [ [ [ ~ E ` ` ~ ` ` ` ` [ ~ ~ ~ ~ ~ ' ~ ~ ~ [ ~ ~ ~ [ ~ ! ' [ ~ ~ [ ~ ~ ~ ! [ ~ ~ [ ~ [ ",
"[ [ [ ~ ~ ~ ~ [ ` ~ ~ ~ ~ ~ ~ ` ~ ` ` ` [ ` [ ~ E ` ` ` [ [ [ ` ` [ ~ ~ ~ ~ ~ ~ ~ [ [ [ ~ ~ ~ [ ~ [ [ [ [ [ [ ~ ~ W ~ [ [ [ [ ~ ",
"~ [ [ [ [ ` ` ~ ~ ~ ~ ~ ~ ~ [ ~ ` [ [ ~ [ [ [ ! n 4 # .       . . X X . . $ 8 I ` [ [ [ [ ` ` ` ~ [ [ [ [ [ [ [ ~ ! ~ [ [ [ [ ` ",
"` ` ` ` ~ ` [ ~ W ~ ~ Q ~ [ [ ~ [ [ [ [ [ [ [ ! n q * @ O @ O @ O o + + + % 8 U Q ` ` ` ` ` ` ` ~ [ ~ ~ ~ ~ ~ [ ~ ! [ ~ ~ ` ~ [ ",
"` ~ ` ~ ` [ [ ` [ [ [ ~ ~ ~ [ ~ ~ [ ~ [ ~ W Y b k a y u u u u t 3 < < < < 1 w h H T Q ` [ [ [ [ [ ~ [ [ ~ ~ ~ ~ ~ ! ~ ~ ' ~ [ ~ ",
"~ ! ~ ! ~ ~ ~ ~ ~ ~ ~ ! ~ ! ! ! ~ ! ! ! W M g 4 3 s 4.8.0.0.7.6.) K N N K v w 1 5 j I Q Q ~ ~ ~ ~ ! ! ! ! ~ ! ! ! E ! ! ! ! ~ ~ ",
"! ! ! M ! ! ! ! ! ! ! ! ! ! ! ! W W W W W b 4 % 2 f q.f.g.g.d.a.r.=.-.%.] ( r = % 5 b R Q W W Q ! ! ! ! E ! ! ! W R ! ! ! ! ! W ",
"~ ` ~ ! ~ ~ ~ ~ ` ` ~ ~ ~ ~ ~ ` ` ~ Q R H G 9 t i 5.i.j.k.j.h.a.y.:.;.;.;.' n 6 - 5 k J T Q ( ~ ~ ~ ' ~ ! ~ ~ ! Q ! W ~ ! ~ ~ ~ ",
"` [ ` ! ~ ` ~ [ ` ` ~ [ ~ [ ` ` ` ~ I l 7 p d 3.7.9.e.y.u.u.y.1.>.+.o.o.O.| ! N x q 6 8 l T ~ ` ~ ~ [ ~ ~ ~ ~ ~ ~ ~ ~ ~ [ [ [ ~ ",
"` ` ~ ! ` ` ` ~ ~ ~ ~ ~ ~ ~ ~ [ ` Q H 5 & t 2.w.p.t.,.#.@.@.@.@.} F F F F }  .] ( x : & 7 H Q ~ ~ [ [ [ ~ [ [ [ ~ ~ [ ~ ~ [ [ ~ ",
"` ` ` M ~ ` ` ` ~ ~ ! ! ~ ~ ~ ~ T P c 5 ; y 6.p.s.y.#.Z B C C C S C C V Z F +.*.] m 6 = 1 h J Y ~ [ [ [ [ [ [ [ [ ~ ~ ~ ~ ~ ~ ~ ",
"~ ` ` W ~ ` ` ` ` ~ ~ ~ ~ ~ ~ [ w 8 w w r L _ e.y.<./ V B B B C V C Z V C D ..+. .! n r w w w w [ ~ [ [ ~ [ ~ ~ ~ [ ~ ~ ~ ~ ~ ' ",
"[ [ ~ E ~ ` ~ [ ~ [ [ ~ ~ ~ ~ ~ $ % 1 v Q { &.&.#./ S Z V C C C C C C Z Z C D F ^ ' ' ( v 1 & $ ~ [ [ ~ ~ ~ ~ ~ ~ [ ~ [ [ ~ ~ ~ ",
"[ ` ` E ~ ~ [ ~ ` [ [ [ ~ ~ ! ~ X + > K $.;.X.^ Z V Z Z C C C C C S Z V Z C C C F X.;.$.N < + X [ ~ ~ [ ~ ~ ~ ~ ~ ~ [ ~ ~ ~ [ ~ ",
"` ` ~ E ! ` ~ [ ` ` [ ~ ~ [ ~ ` X + < K =.;.o.A V V Z Z Z V C C C Z Z C C C V C F O.;.=.U < + X ~ [ ~ [ [ [ [ [ [ ~ ~ ! ~ ~ ~ [ ",
"` ` ` E ` ` ~ [ [ [ [ [ ~ [ ` ` . + < K =.;.+.D Z V V C Z Z Z C Z Z C Z C C V C F +.;.=.U > + X [ ~ [ ~ ~ ~ ~ [ ~ ~ ~ ~ ~ ~ ' ~ ",
"! ! ~ ! ! ! ! ! ~ ~ ~ ~ ~ ! ! ! X + > K =.;.+.F Z C Z C Z C Z Z C Z Z C C C C C F X.;.$.K < + . ! ! ~ ~ ~ ~ ~ ~ ~ ~ ! ~ ! ~ ~ ~ ",
"! ! ! M ! ! ! ! ! ! ! ! ! ! W W X + < K $.;.+.F C V C Z Z C C C C C C Z C C C C F +.;.$.K < + . ! W W ! E W W W Q Q W W Q W Q ~ ",
"` ~ ` ~ [ ~ ~ ~ ~ ` ~ ~ ` ` ` ` . @ < N $.;.O.F Z Z V C Z C Z C C C C C S C C C F O.;.$.N < o . ` ` ( ` ` ` ~ ` ~ W ` ~ ` ~ ~ ` ",
"` ` ` ~ ~ ~ [ [ ` ` ~ ~ W ` ` ` . @ < K $.;.+.F V V Z Z Z Z C Z C C C S C C C C F O.;.$.K < o X ` ` ` [ ` [ ` ` ~ E ` ` ` ` ` ` ",
"` ` [ [ ` [ ~ ~ ~ ` ~ Q Q ~ ` ` . @ < K =.;.+.F Z V Z Z V Z Z C S C S C C C C C F O.;.$.K < @ X ` ` ` [ [ [ [ ` ~ E ` ` ! ` ` ` ",
"` [ [ [ [ ~ ! ! ! ~ ` ` ` ` ` ` . o < U =.;.+.D C C V C Z Z Z C C C C C C C C V F O.;.$.K < o . ~ ` ` ` ` ` ` ` ! E ` ` ` ` ` ` ",
"` ` [ ` [ ~ ~ ~ ` [ [ [ [ [ ` ` X @ , N $.;.X.D Z C C Z C C C C C C C C C C C C F O.;.$.K > + X ` ` ` ` ~ ` ` ` ! W ` ` ` [ [ [ ",
"` ` ` ` ` ~ [ ` [ [ [ ` ` ` ` ` $ & 1 v ( ' ' F F D S V C C C C C C C C C S D F } | ' ( v 1 = $ ` ` ` ` ` ` ` [ ` M ` ` ` [ [ [ ",
"[ [ ` ` ` ` [ ` ` ` ` ~ ~ ` ` ` 0 w q w r n !  .X...D C C C V C C C V V C D ..+. .` n r w w 0 0 ` ` ` ~ ` [ [ [ ! W ` ` ` ` ` ` ",
"` ` ` ` [ [ [ [ [ ` ` ` ` ` ` ` Y U c 1 = 6 m ] *.+.F Z V Z Z Z C C C C C F X.*.] n 6 ; 5 k P T ` ` ` ` ` ` ` ` ! E ` ` ` ~ ` ` ",
"` ` ` ` [ ` ` [ [ ~ ` ` ` ` ` ` ~ ~ b 5 = : c ( ]  .} F F F F F ^ D F F D ^  .] ( x - & 7 H ~ ~ ` ` ~ ~ ` ` ~ ~ ` W ` ` ` ` ` ` ",
"` ! ! ! ! ` ~ ~ ~ ~ ~ ~ ~ ~ ~ ~ ~ Q I g 5 1 w c N ! | O.+.+.+.+.+.+.+.+.o.' ! N x w 5 8 j I ! ~ ~ ~ ~ ! ~ ~ ~ ~ ! E ! ! ! ` ` ! ",
"! ! M ! M ! ! ! W W W ! W W W W W W R m v h 5 : 1 n ' ;.;.;.;.;.;.;.;.;.;.' n 6 - 5 e n I R ! ! ! ! ! ! ! ! ! ! W M ! W W W W W ",
"~ ~ ` ! ` ~ ~ ` [ [ ~ [ [ ~ ~ ~ ~ ~ ~ Q Q b 7 % = r ( $.-.-.$.$.$.$.%.-.$.( r = % 5 J W ~ ~ ! ~ ~ ~ ~ ~ ~ ! ~ ~ ~ ~ ` ` ~ ` ~ ~ ",
"` ` ` ! ` ` ` ` [ [ [ [ [ ` ` ` ` ` ` ` ~ R l 7 1 w v K U U N U U U K U K v w 1 5 h I ~ ~ ~ [ [ ~ ` [ [ [ [ [ [ ` ` [ ~ ` ` ` ` ",
"` ` ` ! ` ` ` ` ~ ~ ~ ~ ` ` ` ` ` ` ` ` ~ Q Y H l q 1 < < < > > > < < < < 1 w k z m W ! ~ [ ~ [ ` [ [ [ [ [ [ ~ ` ~ ~ ! ~ ` ` ` ",
"` ` ` M ` ` ` ~ ! ! ! ~ ` ` ` ` ` ` ` ` ` ` ~ [ P q & + + o + + o o o o + & q P M ! ~ ~ [ [ [ [ ` ` ` ` ~ ~ [ ~ ` ~ ! ! ! ~ ` ` ",
"` ` ~ W ! ` ` ! ~ ~ ~ ` ` ` ` ` ` ` ~ Q Q Q Q [ P 8 $ X X . X X X X X X X $ 8 I ! ! ~ [ ~ [ ~ ~ ~ ` ` ! ~ ! ~ ! ~ ` ~ ~ ~ ~ ` ! ",
"` ' ~ W ~ ` ` ` ` ` ~ ~ ~ ~ ~ ~ ` ` ~ ~ ~ ! ~ ~ ~ ~ ~ ~ ~ ~ ~ ! ~ ` ` [ [ ~ ~ [ W ! [ ~ ` [ ~ ~ [ ` ` [ ~ ~ ~ ~ ~ ~ [ ~ [ [ [ ~ ",
"` ` ~ W ~ ~ ` ` ` ` ~ ~ ! ~ ~ ~ ` ` ` ` ~ ~ ~ ~ ~ [ [ [ [ [ [ [ [ ` ` ~ ~ ~ [ [ W ! ` [ ~ ~ ~ ~ ` [ [ [ [ ~ [ [ [ ~ [ ~ ~ [ [ [ ",
"[ [ [ R ~ [ ~ ~ ` ` ` ` ~ ~ ~ [ [ ~ ~ ~ ~ ~ ~ ~ [ ~ [ ~ [ ~ ~ [ ~ [ [ ~ ~ [ ~ [ R ! [ ~ ~ ! ~ ~ ` ` [ [ ~ ~ ~ ~ ~ ~ [ ~ [ ~ [ ~ ",
"[ [ ~ W ~ [ [ ~ ` ` ` ` ~ ~ ~ ~ ~ [ ~ ~ ~ ~ ~ ~ ~ ~ ~ ' ` ` [ ~ ~ [ ~ [ [ ~ ~ ~ W ! ~ [ ~ ~ ~ ~ ` ` ` ~ ~ ~ ~ ~ ~ [ ~ [ [ [ ~ [ ",
"~ ~ ! ! ! ~ ~ ~ ~ ! ~ ~ ~ ! ! ~ ~ ~ ~ ~ ! ~ ~ ~ ~ ~ ~ ~ ~ ~ ~ ~ ~ ~ ~ ~ ~ ! ~ ~ W ~ ! ~ ~ ~ ~ ~ ~ ~ ! ~ ` ~ ~ ~ ~ ! ~ ~ ~ ~ ~ ~ ",
"W ! ! M W ! W W W ! ! ! ~ ! ! E ~ ! ! W ! W W W ! ~ ~ ~ W ! W ! ! ! W ! W W W W R W W W W W Q W ! ! E ! ! ! W W ! E ! ! ! ! W ! ",
"! ~ ~ ! ! ! W W W ~ ~ ~ ~ ~ ~ ~ ~ ~ ~ ~ W Q ~ ~ ! ~ ~ ~ ! ~ ~ ~ ~ ! ! ! Q W ~ ~ ! ~ ! ~ ~ ~ ~ ~ ! ~ ~ ~ ! ! W W ! E ~ ~ ~ ~ ! ! ",
"~ [ [ [ [ ~ ! ~ ~ ~ [ [ [ ~ ~ ! ~ ~ ~ ~ ~ ~ ~ ~ W ~ ~ ~ ~ [ ~ [ ~ ~ ! ! ~ ~ ! ~ [ [ [ ~ [ [ [ ~ ~ [ ` ` ~ ~ ~ ~ ! ! [ ~ ~ ~ ~ ~ ",
"~ ~ ~ ~ [ [ [ ~ ~ ~ [ [ [ [ [ [ ~ [ ' [ [ [ ~ ~ ~ [ [ [ [ [ [ [ ~ [ ` [ ~ ~ ~ [ / [ [ [ [ [ [ ~ ~ ~ ~ ~ [ [ [ [ ~ ! ~ ~ ~ ~ ~ ~ ",
"~ { ~ ~ [ [ ~ [ ~ ~ ~ [ [ ~ ~ [ ~ [ ~ ~ ~ [ ~ ~ ~ [ ~ [ ~ [ ~ ~ [ [ [ [ ' ~ [ ~ ~ ~ [ ~ [ [ [ ~ ~ ~ ~ ! ~ ~ [ [ ~ M ~ ~ ~ [ [ [ ",
"~ ~ ~ ~ ~ ~ ~ [ [ [ [ [ [ ~ ` ` [ ~ [ ~ [ ~ ~ ~ ! ~ ~ [ [ ~ ~ ~ [ [ [ [ ` ` ~ ~ ~ ~ ~ ~ ~ [ [ [ ~ ~ ~ ~ ~ ~ ` ~ ~ E ! ~ ~ ' [ [ ",
"~ [ ~ ~ ~ ~ ~ ~ [ [ ~ [ [ ` ` ` ~ [ ~ [ [ ~ ~ ~ E ~ ~ ~ ~ ' ~ ' ~ ~ ~ ` ` ` ` [ ~ ~ ~ ~ ~ ~ ~ ~ ~ [ ' ~ [ [ ~ [ ~ W ! ! ~ [ ~ ~ ",
"{ ~ ~ ~ ~ ~ ' ~ ~ ~ ~ ~ ~ ~ ~ ~ ~ ~ ' [ [ [ ~ ~ E ~ ~ ~ [ ~ [ ~ [ ~ ~ ~ ` [ [ [ [ ~ ~ ~ ~ ~ ~ ~ [ ~ ' ~ [ [ [ [ ~ ! [ ~ ~ ~ [ ~ ",
"~ ~ ~ [ [ ~ ~ ~ ~ ~ ~ ~ ~ ~ ~ ~ [ ~ ~ ~ [ ~ [ ~ ! ~ ~ ~ [ ~ ~ [ ~ ~ ~ ~ ` ` [ ` ~ ~ ~ ~ ~ ~ ~ ~ ~ [ ~ ~ [ ~ [ [ ~ ~ ~ [ ~ [ [ [ ",
"~ [ { ~ ~ [ [ ~ ~ ~ ~ ~ ~ ~ ~ ~ [ [ [ ~ ~ ~ ~ ~ ~ [ ~ ~ ~ ~ ~ ~ [ ~ ~ ~ ~ ~ ~ ~ ~ { ~ ~ ~ ~ ~ ' ~ [ [ [ [ [ ~ ~ ~ ~ [ ~ ~ ' [ ~ ",
"{ ~ ~ ~ [ ~ [ [ [ ' ' ~ ~ ~ [ ~ ~ [ ~ ~ ~ ' ~ ~ ~ ~ [ [ ~ ~ ~ ~ ' ~ ! ! ! ! ~ ~ ~ ~ ~ ~ ~ ~ [ ~ [ [ [ [ [ [ ~ ~ ~ ! ~ [ ~ [ ~ [ "
};
