/* XPM */
static char *result[] = {
/* columns rows colors chars-per-pixel */
"64 64 219 2 ",
"   c #040908",
".  c #15130F",
"X  c #020D11",
"o  c #0A1414",
"O  c #151916",
"+  c #1A1A16",
"@  c #241D17",
"#  c #351F1A",
"$  c #25231C",
"%  c #2B251C",
"&  c #38251B",
"*  c #3A2B1D",
"=  c #111921",
"-  c #1A2120",
";  c #232423",
":  c #362D24",
">  c #3B3123",
",  c #31312B",
"<  c #2E2A31",
"1  c #2B2A3D",
"2  c #312E3E",
"3  c #2C3334",
"4  c #3A3A36",
"5  c #3B313E",
"6  c #47241C",
"7  c #56351F",
"8  c #65311E",
"9  c #4F2E22",
"0  c #592E21",
"q  c #433324",
"w  c #4B3422",
"e  c #483728",
"r  c #4E3C29",
"t  c #543A25",
"y  c #5A3E27",
"u  c #573A28",
"i  c #4C373A",
"p  c #59393C",
"a  c #643924",
"s  c #783425",
"d  c #743C38",
"f  c #55442E",
"g  c #5D442D",
"h  c #48433D",
"j  c #59463A",
"k  c #63462C",
"l  c #6B462C",
"z  c #654B33",
"x  c #714F33",
"c  c #754C34",
"v  c #7C5434",
"b  c #795539",
"n  c #2E3042",
"m  c #353140",
"M  c #3A3441",
"N  c #4A3B41",
"B  c #563C40",
"V  c #46454E",
"C  c #5C4542",
"Z  c #5D474D",
"A  c #48504D",
"S  c #565148",
"D  c #454450",
"F  c #4B4950",
"G  c #4D5152",
"H  c #535857",
"J  c #6C4C42",
"K  c #675647",
"L  c #775843",
"P  c #6C6456",
"I  c #73655C",
"U  c #5D666D",
"Y  c #67686A",
"T  c #62696D",
"R  c #6D6E69",
"E  c #6C7976",
"W  c #7A7978",
"Q  c #8A3726",
"!  c #903A2C",
"~  c #9C3F34",
"^  c #AC3E2A",
"/  c #884C26",
"(  c #914F25",
")  c #97472A",
"_  c #9E4E29",
"`  c #94542B",
"'  c #9D532B",
"]  c #995529",
"[  c #894C30",
"{  c #974437",
"}  c #825634",
"|  c #865735",
" . c #8B5B36",
".. c #845C3B",
"X. c #8A5E3C",
"o. c #965D33",
"O. c #9A5E34",
"+. c #995939",
"@. c #A7482B",
"#. c #BA442C",
"$. c #B44B2B",
"%. c #B3552E",
"&. c #A74433",
"*. c #BA4833",
"=. c #AB5A37",
"-. c #B85532",
";. c #8D613D",
":. c #93623D",
">. c #9A6439",
",. c #9A643B",
"<. c #A6683C",
"1. c #B86936",
"2. c #B0703F",
"3. c #C8482E",
"4. c #CA4A2E",
"5. c #C14631",
"6. c #C74932",
"7. c #CC4B31",
"8. c #D24B31",
"9. c #DA4F32",
"0. c #C95835",
"q. c #D65334",
"w. c #D95535",
"e. c #E05A36",
"r. c #D5653C",
"t. c #D3713E",
"y. c #E5683D",
"u. c #865645",
"i. c #8C6644",
"p. c #936643",
"a. c #9E6B42",
"s. c #97785A",
"d. c #A26C42",
"f. c #AA6E42",
"g. c #A46B49",
"h. c #AF684E",
"j. c #A27145",
"k. c #AB7144",
"l. c #A3754C",
"z. c #A97249",
"x. c #B57443",
"c. c #B97642",
"v. c #BD7A45",
"b. c #B6794A",
"n. c #BE7B49",
"m. c #A6695D",
"M. c #A87B54",
"N. c #C17C46",
"B. c #C27E4B",
"V. c #D37B45",
"C. c #EA7742",
"Z. c #F07F46",
"A. c #A4805C",
"S. c #AB815C",
"D. c #90887C",
"F. c #A48563",
"G. c #AD8361",
"H. c #AC8F6E",
"J. c #B29275",
"K. c #C5814D",
"L. c #CD804B",
"P. c #DB874A",
"I. c #C68451",
"U. c #ED8A4B",
"Y. c #F3934F",
"T. c #F5954F",
"R. c #7C8682",
"E. c #888989",
"W. c #958B88",
"Q. c #918D90",
"!. c #849394",
"~. c #8D9B98",
"^. c #999799",
"/. c #A79987",
"(. c #BA9B86",
"). c #A6A18C",
"_. c #A9A997",
"`. c #9E9CA1",
"'. c #98A9A5",
"]. c #9EB2AB",
"[. c #A7A2A4",
"{. c #A7B4AA",
"}. c #ABB8AF",
"|. c #ABBAB1",
" X c #ACBFBB",
".X c #B7B6BA",
"XX c #C19F88",
"oX c #C2A18C",
"OX c #CBAF9D",
"+X c #D3BBAF",
"@X c #ADC0BC",
"#X c #B3C1BC",
"$X c #DAC5BD",
"%X c #C1BCC0",
"&X c #B6C7C4",
"*X c #B6C9C5",
"=X c #B5CCC9",
"-X c #CBC6C9",
";X c #DCC9C3",
":X c #D4CED4",
">X c #C6D6D5",
",X c #CAD5D5",
"<X c #CBD8D7",
"1X c #CCD9D8",
"2X c #DAD4D9",
"3X c #D3DBDC",
"4X c #E7D9D9",
"5X c #D6DFE1",
"6X c #D7E0E1",
"7X c #DEE3E5",
"8X c #E5E2E7",
"9X c #E9E1E5",
"0X c #E7E5EA",
"qX c #EBE6EB",
"wX c #EDE9EE",
"eX c #F0EBF0",
"rX c #F4EDF3",
"tX c #F7F0F7",
"yX c #FAF2FA",
/* pixels */
"K.K.K.v.B.K.K.K.K.K.K.K.K.K.K.K.K.K.K.K.K.K.K.K.K.K.K.K.K.K.K.K.K.K.K.K.K.K.K.K.K.K.K.K.K.K.K.K.K.K.K.v.n.n.n.B.I.I.I.I.I.K.K.K.",
"I.K.K.v.K.K.K.K.K.K.I.I.I.K.K.K.K.K.I.K.I.I.K.K.K.K.K.K.K.K.K.K.K.K.K.K.K.K.K.K.2.K.K.K.K.K.K.K.K.K.K.N.B.n.N.B.I.B.I.I.I.B.K.K.",
"I.I.K.v.B.K.B.K.K.K.I.I.I.K.K.K.K.K.K.K.I.K.K.I.K.K.K.K.K.I.K.K.K.K.K.K.K.K.K.K.v.K.K.K.K.K.K.K.K.K.K.K.I.I.I.I.I.I.I.B.K.K.K.K.",
"K.K.K.v.K.K.K.K.K.K.K.K.K.K.K.K.K.K.K.K.K.K.K.I.I.I.I.I.I.I.L.K.K.K.K.K.K.I.I.I.n.K.K.K.K.K.K.K.K.K.I.K.I.I.I.I.I.I.I.B.B.K.I.L.",
"K.n.n.v.K.K.K.B.B.N.B.I.I.I.I.K.K.K.K.N.S.N.K.K.I.K.K.K.K.K.K.K.K.K.K.K.K.K.I.K.v.K.K.I.I.I.K.K.K.K.K.K.K.K.n.B.B.B.B.B.B.K.B.K.",
"K.B.B.v.B.K.K.B.B.B.K.I.I.I.I.K.K.K.K.K.V.K.K.K.K.K.K.K.N.K.K.K.K.K.K.K.K.K.K.I.n.N.K.K.I.I.K.K.K.K.K.K.K.K.N.N.B.N.B.B.B.I.K.K.",
"I.I.I.v.K.K.K.K.B.B.B.B.B.B.K.K.K.K.K.K.K.K.L.L.S.L.K.N.2.K.S.K.K.K.K.I.I.I.I.I.v.K.K.K.K.K.K.K.K.K.K.B.K.B.K.K.B.B.K.I.I.I.K.K.",
"K.K.K.n.B.K.K.I.I.I.N.N.N.N.K.K.K.K.K.V.S.N.S.N.N.N.K.K.L.K.V.N.K.K.K.K.I.K.K.K.v.K.K.K.K.K.K.K.K.K.K.v.v.n.B.K.I.B.K.K.K.K.K.K.",
"N.n.n.c.n.N.B.n.B.n.v.v.v.c.v.N.t.S.N.2.2.2.2.2.2.2.2.2.c.c.v.n.N.v.v.2.2.2.v.2.2.2.2.2.c.n.v.v.v.N.v.v.c.v.v.v.N.v.v.N.v.N.v.N.",
"v.v.v.c.n.n.n.B.n.N.B.n.n.n.n.v.K.2.2.<.o.o.v v } | | | ,.2.v.n.N.v.2.>.| v | | } v } >.<.x.v.v.v.v.v.v.n.N.v.n.v.x.n.N.v.n.v.v.",
"K.K.K.K.K.I.I.I.I.I.I.I.I.I.I.I.L.K.k.;.y r q w w w e g v ,.n.K.K.N.,.v f w w w w w w a | k.n.B.K.K.K.K.K.K.K.K.N.v.B.B.K.K.K.K.",
"K.n.B.n.K.K.K.K.I.I.I.B.I.K.K.K.L.S.k.b q % $ $ $ $ $ > g ;.n.K.K.S.;.k : $ $ ; $ $ % > x g.n.B.K.K.K.K.K.K.K.K.B.v.B.I.I.I.I.I.",
"K.N.K.n.B.K.K.K.K.K.K.K.K.K.K.n.k.,.;.L S G G G A G G S S L u.,.>.:.b K F G F F A G F S K ;.,.f.v.K.I.K.K.K.K.K.B.c.K.K.I.K.I.I.",
"K.K.K.K.B.B.K.I.I.I.K.B.K.B.K.k.} z j R Q.^.`.`.^.^.`.Q.s.S r w w t K W Q.`.`.`.`.'.^.W.R j k } k.I.I.I.K.K.K.K.B.c.K.K.K.K.K.K.",
"K.K.K.v.n.n.n.K.K.K.B.n.n.n.n.<.l > i W .X:X2X:X:X2X2X-XQ.P , + + , P ^.+X:X2X:X:X2X:X.XW h > k d.K.K.K.K.K.K.K.B.v.K.K.K.K.K.K.",
"K.I.K.K.I.B.B.K.K.K.K.B.B.B.K.a.t - 3 W -X9XrXrXrXtXrX2X.XW A 4 4 h W |.5XtXyXrXrXrX9X-XW 3 % t <.K.I.I.I.I.I.K.B.c.K.K.I.I.K.K.",
"K.K.K.I.I.K.K.K.K.B.K.B.K.K.K.,.t $ 3 E @X3XwXrXyXyXyXeX:X.X^.E.E.^.}.:XeXyXyXyXrXwX3X@XE 3 $ 7 a.K.I.I.I.I.I.I.K.2.K.K.I.I.K.K.",
"K.K.K.K.K.K.K.N.n.n.n.n.B.K.K.,.f $ 3 T ].=X6X0XeXrXrXeX9X4X:X:X:X:X4X9XeXrXrXeX0X6X=X].T 3 $ g ,.K.K.K.K.K.K.K.K.N.K.L.K.K.K.K.",
"K.K.K.K.K.I.I.I.K.I.K.K.n.b.k.;.g > 4 T '.*X>X6XwXwX0XwX8X0X0X0X0XqX9X0X9XwXwX0X6X<X#X].R 4 > f ;.2.b.S.K.K.K.K.K.K.K.N.L.L.K.L.",
"K.n.N.v.n.n.B.B.n.K.K.n.k.| x k t g K D.].*X=X<X1X1X1X1X1X6X6X6X6X6X6X6X1X1X1X<X1X=X@X].R.K g f k x  .2.N.N.N.N.v.2.t.S.N.N.N.S.",
"N.N.L.2.n.c.v.v.v.v.v.c.:.g > > z L A.J.{.@X@X=X@X=X#X#X#X#X#X#X*X*X*X*X#X#X=X#X=X#X@X{.J.s.L f * > g :.2.K.2.N.v.2.t.N.v.v.v.v.",
"K.K.K.2.K.K.K.K.K.n.v.j.v w $ % f L A.H._.@X@X@X|.|.@X@X@X@X@X@X|.|.}.}.@X].@X@X@X@X@X_./.A.i.g % $ q v 2.c.v.N.v.v.v.N.N.K.K.K.",
"K.K.K.N.K.K.K.K.K.k.>.c t $ . $ z :.A.H.).).J.).).).).).J.).).).).).).).).).).)._._.J.J.H.M.:.k % . % t v >.2.N.K.S.K.S.I.I.K.K.",
"K.K.K.2.K.K.K.K.v.:.k q @ . O % z :.A.A.A.F.F.F.F.F.F.F.F.F.F.F.F.F.F.F.F.F.F.F.F.F.F.F.S.l.p.z % o . @ > z :.S.L.L.K.K.K.K.K.K.",
"K.K.K.2.K.K.K.c.<.;.j 4 2 3 3 h P F.G.S.l.l.l.l.l.A.j.l.A.l.l.A.l.l.l.l.l.l.l.l.l.l.l.M.S.S.M.I h 3 3 < 4 z ;.l.c.K.K.N.N.N.K.K.",
"K.K.L.2.N.K.K.} b L P R T T Y W D.(.J.H.S.j.<.j.j.<.j.<.<.j.<.<.j.j.j.j.j.j.j.<.d.d.j.M.G.(.XXD.W Y Y Y R P L v v K.K.K.S.V.K.N.",
"I.I.K.2.V.N.K.* e P D.'..X.X.X+X$X$X$XoXS.l.j.<.l.l.l.j.l.l.l.l.j.l.j.j.j.l.j.j.z.g.M.M.oX$X$X-X+X.X.X.X].E.P 4 * K.K.K.K.K.K.K.",
"I.I.I.2.S.K.K.  - H ^.-X0XeX0XeXeXeX4X+XJ.S.S.S.S.G.F.A.S.S.S.S.S.G.G.G.G.G.G.G.G.M.G.J.+X4XqXeXwX0XeXqX-X^.H -   K.K.K.K.K.K.K.",
"L.I.K.c.N.K.K.  - H ~.:XwXtXtXyXyXtX9X;XOXoXoXoXoXoXoXoXoXoXoXoXoXoXoXoX(.oXoXoXXXXXXXOX;XqXyXyXyXtXyXeX<X~.H -   K.N.N.N.2.L.K.",
"K.K.N.v.K.K.K.  - H !.@X7XwXrXtXtXtXeX4X;X;X$X$X$X$X$X$X$X$X$X$X$X$X$X$X;X$X;X$X$X$X;X;X4XwXtXyXyXtXwX7X=XR.H -   K.L.L.K.K.K.K.",
"K.S.N.N.N.N.K.. - A E '.*X3X8XwXwXwXwX9X9X9X9X9X0X9X9X9X9XwX0X9X9X9X8X8X9X0X9X9X9X9X9X9XqXqXqXqXqX8X1X&X'.E A $ . N.N.S.N.N.K.S.",
"N.v.N.1.v.v.v.w f S H R.~.#X<X6X7X6X7X7X0X8X7X7X7X7X7X7X7X7X7X7X7X7X7X0X7X7X7X7X7X7X7X8X6X8X7X7X5X,X&X~.E P j r q v.v.v.v.c.t.N.",
"B.B.K.K.K.B.B.| b x S H E '.&X>X1X>X>X1X1X1X1X3X,X1X1X1X,X1X,X,X1X1X>X>X1X>X>X<X3X1X1X1X>X>X,X1X>X&X`.E H S x b ..c.B.K.N.K.K.B.",
"K.K.K.K.K.K.K.N.z.v r , D R.'.%X=X@X@X=X X@X@X@X X X X@X X@X X X@X@X=X=X&X@X@X@X@X.X X X X X@X%X#X'.R.A , r b b.b.c.K.K.K.K.K.K.",
"K.K.I.K.K.K.N.B.n...9 @ 4 I /./.`.!.~.R.R.~.~.!.!.!.!.!.!.!.!.!.!.R.!.R.!.!.!.!.~.!.~.Q.R.~.~.`.[.s.Y 4 $ w ..b.B.c.K.K.K.K.K.K.",
"K.I.I.I.I.B.N.N.c.| e - 6 L m.m.s.U U U U U T U T T T T U U U U U U T T U T T T U U U U U U T W m.m.u.: @ w  .n.B.c.K.K.K.K.K.K.",
"K.K.I.K.K.K.K.S.b.u.f $ 6 Q *.-.u.Z D D N N D N D N D D D V F F F D D D D D D D N D D D N B Z u.h.5.Q 6 @ 9 X.n.K.2.K.K.K.K.I.I.",
"I.K.K.K.K.K.K.K.B...r $ 6 Q ^ 3.~ d B N m m n n m n n M i C J J J J C i M 2 2 2 m 2 n m N p d ~ 5.5.Q 6 @ r ..n.L.2.K.K.K.K.I.K.",
"I.I.K.K.K.K.I.K.n. .r $ 6 Q 3.3.5.~ d p i 1 1 1 1 1 n M j u.j.c.x.h.u.C 5 1 1 1 1 1 2 5 p d ~ ^ 8.5.Q 6 ; r i.n.K.2.K.K.K.K.K.K.",
"K.K.K.K.I.I.I.I.n.X.r % 6 Q ^ 9.8.5.^ d N M m m M m m N L g.L.P.P.V.g.L N 5 m m m m m B d *.5.8.8.^ Q 6 # r X.b.S.t.K.K.K.K.K.K.",
"K.K.K.K.K.K.K.I.t.,.z e w s ~ ^ 6.8.5.~ d B B B J C C J u.a.t.N.N.t.,.u.J C C J C p p d ~ 6.8.3.#.) s 7 q k >.S.K.2.K.K.K.K.K.K.",
"K.B.N.K.K.n.B.K.S.k.:.v l a 8 s ^ 5.8.^ ~ ~ { m.g.g.g.a.p.b l x x x v ;.a.z.l.g.p.u.u.~ ^ 3.3.^ s 8 a l v >.2.N.N.N.N.K.K.N.N.S.",
"v.v.v.c.v.c.v.c.v.c.2.2.} t & 6 Q ^ 8.8.5.5.0.V.P.P.P.N.,.k & @ $ * k ,.B.P.P.P.V.0.6.6.3.8.3.Q 6 & t v <.x.v.v.N.2.N.v.v.v.t.c.",
"N.K.N.v.K.K.K.K.I.K.K.S.:.r $ & Q ^ 5.8.8.q.r.C.U.U.U.P.=.l & @ @ & l <.V.U.U.U.C.e.9.8.8.3.@.s # % t o.N.S.N.K.N.K.K.N.N.K.K.N.",
"K.K.K.N.K.L.K.K.K.I.K.K.;.e + @ a ) $.7.8.9.e.C.y.C.y.t.-.~ s 8 8 s ) -.y.C.C.y.C.w.9.8.4.$.! 8 @ @ w :.K.K.K.K.K.K.K.K.K.K.K.K.",
"K.K.K.N.S.L.K.K.B.K.K.n.:.t $ $ 8 / _ $.6.q.8.9.w.w.w.w.7.5.^ ^ ^ ^ 5.7.q.q.w.w.q.8.8.4.-._ / 7 @ % r p.K.K.I.K.K.K.K.K.K.K.K.K.",
"K.K.K.2.N.K.K.t.n.v.c.j.;.f : > a / ] $.6.6.6.6.3.3.3.3.6.5.*.*.3.^ 6.7.6.3.3.3.6.3.3.5.%.' / g * * r ..2.S.S.N.K.N.N.K.N.N.K.K.",
"K.K.K.2.K.K.L.S.n.k.;.v g f f g v ;.>.=.$.*.5.^ $.$.$.$.&.&.{ ~ ~ ~ ~ &.$.$.$.$.*.*.$.%.%.O.;.v g f f z v o.1.t.S.K.L.N.N.S.N.K.",
"K.L.K.2.N.K.K.K.S.>.l q e z b i.a.a.a.>.' @._ _ _ ' _ ) [ d p B B B d [ ) ' _ _ _ ' @.' O.a.a.p.i.b z e q l u.b.B.B.K.K.K.I.I.K.",
"K.K.K.N.K.K.K.c.2.} u * w c p.z.z.g.a.,.O.` ` ` ` ` ] | c i 5 m m M i c [ ] ] ` ` ` ` o.,.d.l.z.l.p.b w : u | z.b.B.K.K.K.I.I.K.",
"I.I.I.v.K.K.K.v v x a 8 s [ =.h.f.<.,.,.:.>.o.>.>.>.>.| b C M n n M j x  .>.>.>.>.o.O.:.,.a.<.f.h.=.{ s 8 8 l c ..I.B.B.K.K.K.K.",
"I.I.I.2.K.K.K.> q 7 s Q &.*.0.0.=.O.:.,.,.j.a.a.a.d.a.p.L C M n n M C L p.a.d.a.a.a.a.a.,.O.O.=.-.0.*.@.! s a q > B.K.K.K.K.K.K.",
"K.K.N.c.N.K.K.o + 9 Q *.w.w.w.0.%.` ` +.a.a.j.j.j.j.z.p.L C 2 1 1 5 j L p.j.z.l.j.j.j.a.>.` ] $.0.q.e.w.6.Q 9 + o N.B.B.B.B.B.B.",
"v.v.c.t.c.v.v.  + 0 ` 0.y.y.y.0.%.' ` o.,.a.a.a.d.,.,.:.b i 1 ; ; 2 i c :.a.a.,.a.a.a.,. .` ] %.0.y.y.y.0.` 9 + X 2.N.v.N.N.v.v.",
"N.N.K.S.N.v.v.o O 0 ] t.Z.Z.C.t.1.] ( ` o.o.O.O.>.O.>.| l q @ = = ; e l } o.O.O.O.O.o.o.` ` ] 1.t.C.U.y.V.' t + X v.B.B.B.B.B.B.",
"K.K.K.K.K.K.S.  + y >.V.Y.T.U.P.1.] ` ( ` ] ` ( ( ] ( / k * O o o O * a / ` ` ` ( ` ` ( ( ` ] 1.P.U.T.Y.V.>.u + X N.K.B.B.B.K.K.",
"K.K.K.K.I.I.K.X + y ,.P.T.T.T.P.1.O.( ( ( ( ( ( ( ( ( / a & . X X o & a / ( ( ( ` ( ( ` ( ` ' t.P.Y.T.T.P.>.g + X v.K.N.N.B.B.I.",
"K.K.K.V.K.K.K.K.K.K.K.K.K.K.K.I.K.K.K.K.K.K.K.K.v.K.K.K.K.K.K.K.I.I.I.I.K.K.K.K.B.B.B.B.B.B.K.B.K.K.K.n.n.K.K.K.K.2.K.B.I.I.I.I.",
"K.K.S.N.K.K.K.K.I.I.K.I.K.K.K.K.K.K.K.K.K.K.B.v.v.K.K.K.K.K.K.K.I.K.I.K.K.K.K.K.B.B.B.N.B.B.I.I.K.K.B.B.B.K.K.K.N.2.B.B.B.I.I.B.",
"K.K.N.t.S.N.K.K.I.I.I.I.K.K.K.K.K.K.K.K.K.K.n.v.2.B.K.K.K.K.K.B.K.K.B.K.K.K.K.K.B.B.N.B.B.I.B.B.K.K.K.K.K.K.K.I.B.c.B.N.N.I.B.K.",
"K.K.K.K.K.K.K.N.t.S.K.K.K.K.K.K.K.K.K.I.I.K.K.N.c.B.K.K.I.K.K.K.K.K.K.K.K.K.K.I.I.K.K.B.K.B.n.K.K.K.K.K.I.I.I.I.B.x.K.K.B.I.K.K.",
"K.K.K.K.K.K.K.K.N.N.K.K.S.t.t.S.K.K.K.K.K.K.K.B.N.B.K.K.I.K.K.K.K.K.K.B.K.K.K.K.K.K.B.B.v.B.B.K.K.K.K.K.K.I.I.K.B.N.K.K.I.I.I.K.",
"K.K.K.K.K.K.K.I.K.K.K.N.S.N.N.K.K.K.K.K.K.K.K.B.N.K.K.K.I.B.B.B.K.B.B.B.B.B.K.K.K.K.B.B.B.B.K.K.K.I.K.K.K.K.K.K.B.N.K.K.I.I.I.K.",
"K.K.K.K.K.K.I.I.I.K.K.N.V.K.K.K.K.K.K.K.K.K.K.B.v.K.K.K.B.B.B.N.K.K.n.v.n.n.n.v.B.K.B.K.K.K.K.K.K.I.I.K.I.I.K.K.B.v.K.K.B.K.K.K."
};
