/* XPM */
static char *result[] = {
/* columns rows colors chars-per-pixel */
"64 64 90 1 ",
"  c #2E0000",
". c #310000",
"X c #3C0002",
"o c #360906",
"O c #390E0B",
"+ c #3D120C",
"@ c #420004",
"# c #4B0005",
"$ c #550006",
"% c #520008",
"& c #590008",
"* c #5A090B",
"= c #40150E",
"- c #63000D",
"; c #68000E",
": c #64140F",
"> c #6C0011",
", c #6A0812",
"< c #740014",
"1 c #780016",
"2 c #7B0019",
"3 c #6B1313",
"4 c #6D1B16",
"5 c #771A1B",
"6 c #562719",
"7 c #5D2B1A",
"8 c #6B2315",
"9 c #6C2219",
"0 c #663522",
"q c #6E3922",
"w c #7A4227",
"e c #84001E",
"r c #89021F",
"t c #830D1F",
"y c #870320",
"u c #8B0521",
"i c #8E0923",
"p c #930D25",
"a c #881321",
"s c #971127",
"d c #991227",
"f c #9C1529",
"g c #9F1B2B",
"h c #A21C2C",
"j c #8A2525",
"k c #9D232B",
"l c #9D2B2C",
"z c #823722",
"x c #883526",
"c c #9F342E",
"v c #923E2E",
"b c #983C2F",
"n c #A6212E",
"m c #A9232F",
"M c #A1292E",
"N c #A33230",
"B c #AB3734",
"V c #A43C31",
"C c #A83934",
"Z c #804427",
"A c #8C4529",
"S c #984F32",
"D c #935733",
"F c #9B5334",
"G c #9C5A36",
"H c #985B38",
"J c #A44133",
"K c #A94536",
"L c #A74A35",
"P c #B04539",
"I c #AB5137",
"U c #AC5338",
"Y c #A15C39",
"T c #AD593C",
"R c #B4533D",
"E c #B45B3E",
"W c #A6653C",
"Q c #B1693D",
"! c #B95E42",
"~ c #B76E42",
"^ c #BC6E44",
"/ c #BD6F49",
"( c #B67442",
") c #B97543",
"_ c #BD7A45",
"` c #BF7B49",
"' c #C07C47",
"] c #C27E4B",
"[ c #C5814D",
"{ c #C68451",
/* pixels */
"[[[_[[[[[[[[[[[[{{][[[[[[[[[]{{[[[[[[[[[''[[[{{[[[[)```]{{{{{[{]",
"{[[_'[[[[[{{[[[[][{{{{][[[[[{]]][[[[[[[[_'[[[[[[[[[]]]]]{{{[{[[{",
"{{[_[[[[[[[{{[[[[{{{{{[[[{[[]{{{[[[[[[[{_[[[[[[[[[[[{[[[]{{[[[[[",
"[[[_][[[[[[[[[[[][[]][[{{{{{{{{][[[[[{{{_[[[[[[[[[{{{{{{{{{][][[",
"[```[[[]]]]{{{{[]{]]]]]{[{[[{[]][[]][[{['[[{{{{[[[[[[[]`]]]']][[",
"[]`_[[[]]]]]{{{[]{{]]]]][[]']]]][[{{{[[{)[[{{{{[[[[[[[]]]]]]]{[[",
"{{{`'[[[]]]]][[[]{{]{{{{[][']''][[]{{]{{''[[[[[[[[[]]]][]][{{{[[",
"[[[`[[[{{{]])EPNhhhghhhhhhnBR''RPmhhhhhmhhhhfi1-3zF(`]][{][[[[[[",
"'''Q````]]))~INkhhhhhghhhgglVTQLBnghhhhfhfhhdr1-*8AQ)___'')'''''",
"_''_```]''//!KNkgggghhhhgggkcLIJMnghghhhhhhhhr1-*4xU^___'Q'''_')",
"[[[[[{{{]]/!RCMkhgfhhhhhhhgkcVCNkgghhhgghhhhfr<;&3jK!^`[]'][[[[[",
"['`][[[{]'!CNkghggghfhhhhhggkllkkgggghhghhhmfr1-*<tlKE/`])[[{{{[",
"[']]]{[`(TKMfggghhhhffffffghhghgghgggghhhhhhhr1--1yfNL!~'Q[[{[{[",
"[[[]]]]YFvjaupsfnhhhdpuipsfhhhgggghhhhhhhhhhfr1--1yfklbSG)[[[[[[",
"[[[]```z94,,2rpfhhhhpr22rpfhhhgggghhhhhhhhhhfu1--1udfa58z'[[[[[[",
"[[{[{]]3***&>1rphhhfi2<;1rdnhhhhgggghhhhfhhhfr1;-1rsa2,*:_[[{{[[",
"[{{{{[[*&$$$&>2ysggfu1-&>ydhhhhhhgfsspdfhhhnfu<;-<ere1-&$_[[[{{[",
"[[[[[[[$&$$$&->2rpffu1--<edhhhhhhgdiyyupfhnhdi<;&;<11;-&$_[[[[[[",
"[[[[[{{&&$$$$&->1ypfu1;-<rdhhhhhhgsy212ushhhfu1-&&-;;-&&$[[[[[[[",
"''__`]]%$&$$&&&&>2upy1--<rdhmhhhhgi2>-<2shnhfu1;&&$&&$&&$Q''Q[_[",
"[Q[Q___###$%$$$&-<1e2>--<ufhnhhnhhp2;&>yphmmfu1-&$$$$$$&*Q[Q[___",
"[[[)[[[X@@#%$$$$&-><>-&-1yfnnnhhmhp2>&>yshmmfi2-&%$$$$$&*''_[[[[",
"[{[`][[.XX##$&$$&&---&&;1rfhhhhhhgu2>->yshhnfu1-&$%$$$$&$[[[{{[[",
"[{[)[[[  X@#$&&&$&&$$$&-<ridddpsdpy<;->2usfspe<-&$$$&&&&$[[[[[[[",
"[[[Q][[  .X#$&&&&$&$$$&->12rreeey21;---<2rrr21;-&$$$&&&&${]'']]{",
"[[[_][[  oX#$&&$$$$$$&&&-;><<<><<<>--&--;1<<>>-&&$&$&$&$&[[[]][]",
"{{[Q][[ .X@#$&$&$$$$$$$&&&&&&-&&&&&&&&&$&&&&&&&&&$$&$&&&&[[[[[[[",
"{{[_][[ .o@#$&&&$$$##########################%%$&&&$&&&$&[[]]][[",
"[[[_'[[ .X@#$&&&$##@@@@@@@X@X@X@X@@@@@@@@XX@@@#%$&$&&&$&&{]''']{",
"[[[)'[{ ..@#$&&&%#@XX..XX.X.X.X.X.X..XX.X..XX@#%&&&&&&&&&[[[][[[",
"'''_''' .X@#$$&%#@X............ .. .. .......X@#%%%%$$$$&_''']]]",
"''_)__' .X@#$$%#@X..                       ...X@##@##%$&&)')'')'",
"[][`][] .X@#$%#@X..                          .XXX@X@@#$&&)[['['[",
"[[[[[[[  X@#%#@X....                        ........@@#&&)[[[[[[",
"[[[{[[[ ..@@#@X..   ............ ...........  .   ..XX##$([[[[[[",
"[{{{{{` ..XX@XX.    ........ ................      ..XX@@_[[[[[[",
"[[{[[[] ..XXX... .  .................. . ... .      ..XX@Q[[[[{{",
"[[[[[[[...... ...... ............................ ......oQ[[[[{{",
"{{[[[[[..      ............ ....... ..................  oQ[[][[[",
"[[[[{{{...   .  ............. ................ ... ..   o[[[[[[[",
"[[[[[[[ .  .    ................. ..................     )[[[[[[",
"]]]']][.................................. .............. _''[]]'",
"_______ . ............. .... ......... ........ . ...... Q'_____",
"]]]_`[[........... ..... ................................[[[]]]]",
"[[[_[[[ ....................... ........................ [[[[[[[",
"[[[_'[[.. ... ... .............. ... .... ... .......... [[][][[",
"[[[)[[[............... .......................... .......[]`''[[",
"[{[Q[[[................. ........................... ... []]]'[[",
"[{[Q[[[ .. ........................ ... ............ ....[[{[[[{",
"[[['[[[ ................... .............................[[[[{{[",
"{{{Q[[[..... .... ............................... ..... .[[][{[[",
"{{{'[[[o............. ...... ....................... o..o[[[[[[[",
"[[')[[[6++oo....................... ................ooO+7{[[][[[",
"__')_)_wq7=o.......... ............................ o=7qZQQ)'Q__",
"'[''''_WDw6+... . .................. ...............+6wDQQ'[['['",
"[[[[[[''_H0+o............ ... ......................+0H`[[[]'[[[",
"]{{]{{[[`Ww6o....................... ...........   o7wW'[_[__'[[",
"{]{]{[[][[[[[{[[[[[[[[[]'{{[{[{[{{{{[[[[]]{]{{[[[[]_][{[[Q[[[[{{",
"]{]]]]{{[[{{{][[[[[[[]]`){][][[[[[{[[[[[]]]]]{[[[[']][[[[Q[[[[{{",
"[]]'''][{{{{[[[[[[[[[[]_Q][[{[[][[[][[[[]`]]]]]][[[[{[{{')'['[[[",
"[[][][[]']][[]]{[[[{{{[')][{{[[[[[[[[{{{{[[][]`][[[[{{{{{Q[[[[[[",
"[[[[[{[]]][]']'][[[[[[[]'[[[{[[[{[[][[[{[[]]_][[[[[[[{{{[_[[{{{[",
"{[[{[]{{[[]]']]][[[[[[[]'[[[{]]]][]]]]]][[]]]][[[{[[[[[[['[[[{{[",
"][[[[[{{{[{]]{]][[[[[[[[)[[[]]]]][``````][[][[[[{{{{{[[[''[[[[[["
};
