/* XPM */
static char *result[] = {
/* columns rows colors chars-per-pixel */
"64 64 116 2 ",
"   c #C4804E",
".  c #C37F4D",
"X  c #BC7947",
"o  c #C27E4C",
"O  c #BD7947",
"+  c #C17D4B",
"@  c #C58251",
"#  c #C68454",
"$  c #C48150",
"%  c #C17D4C",
"&  c #BD7849",
"*  c #BE794A",
"=  c #C07B4C",
"-  c #C68353",
";  c #C58353",
":  c #C3804E",
">  c #C4814F",
",  c #C4804D",
"<  c #C4804F",
"1  c #C27E4D",
"2  c #C17C4B",
"3  c #C17C4C",
"4  c #C58252",
"5  c #C47F4E",
"6  c #C58352",
"7  c #BD7A48",
"8  c #C37F4E",
"9  c #BD7A49",
"0  c #BF7A4A",
"q  c #BB7846",
"w  c #C07B4B",
"e  c #C58250",
"r  c #C07C4C",
"t  c #C47F4D",
"y  c #BF7B4C",
"u  c #BF7B4B",
"i  c #C17E4E",
"p  c #C17D4E",
"a  c #BB7847",
"s  c #C58150",
"d  c #C38050",
"f  c #C27F4F",
"g  c #C37E4D",
"h  c #C07C4B",
"j  c #C48252",
"k  c #C48151",
"l  c #BE7A4B",
"z  c #BE7A48",
"x  c #B77443",
"c  c #BE7B4A",
"v  c #BE7C4B",
"b  c #BE7B49",
"n  c #BC7847",
"m  c #BB7746",
"M  c #BB7747",
"N  c #BA7646",
"B  c #B87445",
"V  c #B87544",
"C  c #BE7B48",
"Z  c #BD7948",
"A  c #B87545",
"S  c #BF7A4B",
"D  c #C07D4B",
"F  c #BA7746",
"G  c #C27F4E",
"H  c #C48251",
"J  c #B87444",
"K  c #BE7A4A",
"L  c #C27E4E",
"P  c #C17D4D",
"I  c #C07D4C",
"U  c #B77444",
"Y  c #B97645",
"T  c #C27D4C",
"R  c #C07C4A",
"E  c #C17E4C",
"W  c #C48152",
"Q  c #BF7B49",
"!  c #BF7D4C",
"~  c #BF7C4A",
"^  c #BC7948",
"/  c #BF7C4B",
"(  c #B67343",
")  c #BA7645",
"_  c #BD7949",
"`  c #BA7745",
"'  c #C27F50",
"]  c #B77343",
"[  c #BF7B4A",
"{  c #C27E4F",
"}  c #C07C4D",
"|  c #B77344",
" . c #B97644",
".. c #C07E4D",
"X. c #C17F4E",
"o. c #BE7A49",
"O. c #BC7846",
"+. c #C17E4F",
"@. c #C07D4A",
"#. c #BC7946",
"$. c #C3804F",
"%. c #C38150",
"&. c #C38151",
"*. c #C17E4B",
"=. c #C27F4D",
"-. c #C37F4F",
";. c #C07D4E",
":. c #B87646",
">. c #BC7848",
",. c #BC7748",
"<. c #BD7848",
"1. c #BE7B4B",
"2. c #BE7949",
"3. c #C17F4F",
"4. c #C17E4D",
"5. c white",
/* pixels */
"    . X o                                                                       O +     . @ # $ .   % & * * & = # - - # ;       ",
"@ @ : X o       . $ @ @ @ > .   . > @ @ @ $ . . . . . . . . . .           . . , O +     . > $ < . , 1 2 3 3 2 1 $ $ $ $ $       ",
"4 4   X o   5   , @ 6 4 6 > . . . $ 6 6 6 @   > > > > > > > >             > > $ 7 +   . . . . . .   > > > > $ > > > > , , ,     ",
"  8 . X o     . . . :           .   : 8 8 . < ; ; ; ; ; ; ; 6             4 ; - 9 +             . $ ; ; ; ; ; ; ; ; 4 . . .     ",
". 0 0 q o     w 0 0 o e 6 6 6 $ . , % 0 0 0 r > > > > > > > >       t . . < < > 7 + @ 6 6 6 6 $ .   > > > 8 y y y y y 0 u . t   ",
"$ i p a o   t 2 w w 1 s @ @ @ > . < d p i p f $ , , . 2 2 2 3 .       $ $ $ $ s 7 + s @ @ @ @ > . . t , , g w w w w h p i $     ",
"; ; 6 X o     < <   . 1 1 1 .   t $ ; 4 j j j k 1 . . 0 0 0 0 .       4 ; ; ; ; 9 +                 . 1 1 1 .         ; ; 6     ",
"    : X o . 4 ; ; > w * * * %   .     1 l l l l * u . . . . . . . . .           O +   . . . . . .   % * * * w   . . :       . . ",
"z z 7 x X z c v v b n m m m X z z z z O m m M N B n z z z z z z z z z z z z z z V n b C C C C z z z Z M M M n z Z m z z z z z z ",
"7 7 7 N 9 c c c c c c c c c c 9 7 7 7 7 7 7 7 q V 7 7 7 7 7 7 7 7 7 7 7 7 7 7 7 A N m m m m m X 7 7 7 7 7 7 7 7 a x 7 7 7 7 7 7 ",
". . . . 4 ; ; ; ; ; ; ; ; ; ; $ . . . . . . . + X . . . . . . . . . . . . . . . 0 * * * * * * 3 . . . . . . . . + n . . : : : : ",
". u 0 S : > > > < < > > > > >                 + O                               g 1 1 1 1 1 1 .   , , ,         D A     6 6 6 6 ",
". h h h . , , $ $ $   , , , t .     . . . . , h F     . h 3 .       . 3 h h h .         o 3 3 h G @ @ @ $ .     h x     @ @ @ @ ",
"  , , 1 1 1 1 H 6 ; : 1 1 1 .     .   < < < > h J     . 0 S . . t   . u 0 0 0 1   . .   h K 0 * L ; 6 6 @ . .   h V   . . . . . ",
"    8 S * * * 1     w * * * %     . $ ; ; ; - i J     . . .       . . . . . . .         . . . . 8               + n           t ",
"  @ 4 d d P % .     1 % % % 1   . .   $ $ $ s I U   .   4 4 4 @     w w .     t @ 4 4 4 4 > ,   t > 4 @ 4 4 4 @ D Y     4 4 @   ",
"  @ 4 4 4   , T % % % % .     . < $ $ $ $ $ > R Y   .   4 4 4 @ : % * & 3 % . t @ 4 4 4 4 > . . . > 4 4 4 4 4 @ D Y     4 4 @   ",
"              w l l l * %     . $ ; ; ; ; ; @ + X               . 0 * * * * 1                                   E X             ",
"          4 ; j W W j 8 .         < < < < < < + O                 1 1 1 1 1 .         t @ ; ; ; $ t             E X             ",
"Q Q b n b ! I I I I I ~ Q Q Q Q b b b b b b Q X V Q Q Q Q Q Q Q Q Q Q Q Q Q Q Q ^ z Q b / I I I / b Q Q Q Q Q Q 7 V Q Q Q Q Q Q ",
"X X X ( q X X X X X X X X X X X X X X X X X X q Y O X X X X X X X X X X X X X X x F X X X X X X X X X X X X m q ) U m q X X X X ",
". . . q E . . . . . . . . . . . . . . . . . . . o . . . . . . . . . . . . . . . X R . . . . . . . . . . . % & _ _ & _ K . . . . ",
"  @   X o                         , , , , ,   g u u u w   4 6 4                 7 + @ 6 6 6 s       , ,   . T T T T T 1 6 6 4   ",
"  @ : ` o       T % % % % 1   . < $ $ $ $ $ > g w w w h   @ @ @                 q R e d ' ' 1 2 o < $ $ $ $ s s s $ . P ' d @   ",
".   . ] %       w * * * * %   . $ ; ; ; ; ; @ . . . . .           . . . . . .   V [   h K S S l % $ ; ; ; ; ; ; ; 4 g * * 0 .   ",
". . . ( %       . 1 1 1 1 .   ,   < < < < <   1 K K u     , , ,   . 0 K K K K g V [   . d j j j $   < < < < < < <   . 1 1 g . , ",
"@ @ 8 ] %     .   s @ > % w w o o w w w 1 @ @ k { L h w w w w h . . 3 3 3 3 3 . V [   , $ @ @ @ > . . t o w w w 2 .             ",
"6 4 : ( %     . . @ 6 > 2 0 0 % % 0 0 0 P 6 6 6 6 @ . 0 0 0 0 S .       1 1 1 1 U [     1 T . t .       1 y y y } < . o o 1 .   ",
"    . x %   t           . . . . . . . . .           . . . . . . .     . 0 * * * | [     h * %         . > ; ; ; ; 4 g * * 0 .   ",
"      F o     @ 6 6 6 6 >                                               1 1 1 1 q D     g T .             s $ $ s > 8 1 1 1     ",
"~ ~ ~  .b R ~ ..i i i X.D ~ ~ ~ ~ ~ ~ ~ ~ ~ R [ o.R R ~ Z Z Z Z ~ ~ ~ ~ R R R R ` 7 R ~ R R R ~ ~ ~ ~ ~ ~ ~ ~ ~ Q 9 R R R R ~ ~ ",
"X X X U q X X X X X X X X X X X X X X X X X X ` x X X q x x x x O.X X X X X X X V F X X X X X X X X X X X X X X F x X X X X X X ",
"o o o E o o o o o o o o o o o o o o o o o o o R q o o o % % % % o o o o o o o o E o o o o o o o o o o o o o o o R q o o o o o o ",
"                    % w w 1   $ 4 @ @ 4 s     D Y h w w 3       h w w .     @ 4 4 4 > % w h w 1     > 4 @ 4 e   + Y             ",
"  > > > > 8 1 T T . h 0 0 T , $ 6 4 4 6 $ .   ~ ( S S S w     . u 0 0 . . . @ 6 4 6 > 2 * & & u . t > 6 4 6 @   h U     . . . . ",
"  6 ; ; ; +.l * * 1   8 8                 .   ~ J . . . . . .   8 8 8                 . w * * * 3               h U   ,         ",
". < > > > 8 1 o d 4 6 6 6 6 $ . . . . . . .   ~ U   . 0 0 0 u 4 6 6 6 6 6   . . . . . , g o o o .   . . . . .   h U   .   6 6 6 ",
"$ $   . . t , , s @ @ @ @ @ > . . < s $ $ $ $ h `   . w w w h H @ @ @ @ @   $ $ $ $ $ $ e @ >     .   . < $ $ $ + )   .   @ @ @ ",
"; 6   .   < < < <   . . . . .   . $ ; ; ; ; @ + X     < < < <   . . . . . . 4 ; ; ; ; ; ; ; $ .       . > ; ; @ + q     t . . . ",
"        4 ; ; ; ; < . . . . .   .             + X     ; ; ; 6   . . . . . .                   .       .         h V     , . . . ",
"        s s s s s                             E O     s s s s                                                   + F             ",
"D D D + D D D @.@.D D D D D D D D + R b b [ + b ` + D D D D D D D D D D D D D D [ R D D D D D D D D D D D D D + Q ` + D D D D D ",
"O.O.O.q q O.O.X X X X X X X O.O.O.X Y ( ( V X ` x #.O.O.O.O.O.O.O.O.O.O.O.O.O.X x ` X O.O.O.O.O.O.O.O.O.O.O.O.#.F x O.O.O.O.O.O.",
"E E + q D E E $.%.%.%.%.&.G + E E E + h h D E + D E E E E E E *.+ + + + E E E o q Q o E E E E E E E + + + + *.E + h E E E E E E ",
"      X =.    e @ @ @ @ @ >                                   @ @ @ @ @         m o.3 3 g         > @ @ @ @ s                   ",
"t . . q o     g 1 1 1 . t .       8           < < < < < <     6 6 6 W W   .     V M 0 K 1 > < <   $ ; 6 6 ; @ t   . 1 1 1 1 .   ",
"    . x %     u * * * T   t         . . . . < ; ; ; ; ; 4 8 .       S l .       V c . . k ; ; ; $             . . 1 * * * 0 .   ",
"  @ 8 ( %     T % % % .       .     o u u u % $ $ $.} } } u u w . . % % . , .   V [     < $ L } 1 t t T 0 0 0 S h . % % % % . . ",
"  @ 8 V o   .       1 % % % 1       o u w u 3 , . . } } } } } w .       G L < s A [   : , , % 0 1 $ $ -.} } } } P         $ $   ",
"    : q o           w * * * %       . . . . . . . < ; ; ; ; 6 : .     8 p ;.j - :.[     . . . . $ ; ; ; ; j 4 4 H .   .   ; 6   ",
"6 6 4 V E           . 1 1 1 .   . 8   T 0 0 0 w     < < < < <         8 8 8 < > A [     h K K %   < < > L u y y r     .   < <   ",
"@ @ @ Y o               1 3 r 1       g 3 3 3 T                                 m h     1 3 3 1         g 2 3 2 %               ",
"+ + + ` h E E E E E E o K >.>.[ o E E E o o o + D E E E E E E E E E E E E E E o q Q o E E E E E E E E E E o o o + h E E E E E E ",
"O.O.q ( q q q q q q O.O.q q q q O.O.O.q q q q ` x #.O.O.O.O.O.O.O.O.q q q q q O.x ` X O.O.O.O.O.O.O.O.O.q q q q F x O.O.O.O.O.O.",
"D D D [ R Z >.>.>.[ D D D + + D D D + Q ,.>.>.M ` D D D D D D D D D <.>.>.>.>.~ [ R D D D D D D D D D + [ ,.>._ Q ` + + + + D D ",
"    s e s i = w w g $ s s s s >   > e $.p p p 1.a e s s s s         h w w w w < e s s s s s >           8 p p L o O 8 % % T     ",
"    6 ; ; ;   . . . @ ; ; ; ; $ . $ ; ; ; ; - i Y ; ; ; ; 6             : . . 4 ; ; ; ; ; ; $ .   . . g < ; ; @ + n . K S u     ",
"      < < <   , , .   < < < <   .   < < < < > E n < < < <       6 ; ; 6   ,     < < < < < <   .   % * * r < < < h V . 8 j j 6 ; ",
"  . h w w w . e @ @ @ @ < . . .   . . . . o w 2.F   . . . . .   $ $ $ $   . . . 2 w w w o ,       1 3 2 T . . t R ( w r L e $ $ ",
"  . u 0 0 0 g d &.&.4 6 > ,     . .   > > G 0 >.U 1   > <     . . . . . . < > > P S 0 0 o . T .         > > > > I ( 0 0 u . . . ",
"  . . . . . , u * * 1   . . . .   . $ ; ; @ . ~ ] u   ; 6                 4 ; ; ; < . . . h * 3     . $ ; ; ; - 3.U . . 8       ",
"            t o T T . 2 0 S 0 %   .   > > <   + m 1   > >                 > > > >   3 S 0 3 T g , . .   > > > $ 4.q     6 4 4   ",
"          . $ s e     % w w w T     . . . .   + O   . . . . % % . . % 3 3 3 3 3 .   % w w 1   , < $ $ $ $ > . t *.X     @ @ @   ",
"          . 6 # # > . . . . .                 + X         . * * . . * & * * * & o   . . .     . $ # - - # 4 .   E X             "
};
