/* XPM */
static char *result[] = {
/* columns rows colors chars-per-pixel */
"64 64 199 2 ",
"   c #000C0E",
".  c #000E10",
"X  c #121514",
"o  c #2F231F",
"O  c #38261C",
"+  c #3D2A1D",
"@  c #332620",
"#  c #3A2621",
"$  c #362A23",
"%  c #3D2B23",
"&  c #3D3327",
"*  c #432E1F",
"=  c #4A311F",
"-  c #412E22",
";  c #453326",
":  c #4E3623",
">  c #4F3827",
",  c #423529",
"<  c #4C3529",
"1  c #4D3B2B",
"2  c #503724",
"3  c #543A27",
"4  c #53362C",
"5  c #5A372E",
"6  c #553C2A",
"7  c #5A3D2B",
"8  c #5C3D31",
"9  c #633E33",
"0  c #6B3F34",
"q  c #4E402E",
"w  c #52412F",
"e  c #5B412C",
"r  c #4D4533",
"t  c #534432",
"y  c #584733",
"u  c #5A4935",
"i  c #63442C",
"p  c #6A462D",
"a  c #66482F",
"s  c #6B492E",
"d  c #7F522E",
"f  c #644434",
"g  c #6C4335",
"h  c #644B34",
"j  c #6C4C31",
"k  c #694B3A",
"l  c #6D4C3A",
"z  c #704B30",
"x  c #794F30",
"c  c #734639",
"v  c #734D3B",
"b  c #7C4B3C",
"n  c #68533E",
"m  c #7E5433",
"M  c #78513C",
"N  c #665A42",
"B  c #6E5842",
"V  c #725A42",
"C  c #6D6248",
"Z  c #73664A",
"A  c #79654A",
"S  c #766A4C",
"D  c #7A6D4F",
"F  c #7C7251",
"G  c #82542F",
"H  c #834C3D",
"J  c #8D4B3D",
"K  c #914D3E",
"L  c #845633",
"P  c #865835",
"I  c #8C5C36",
"U  c #84523F",
"Y  c #855938",
"T  c #8C5D39",
"R  c #905E37",
"E  c #925E39",
"W  c #94623B",
"Q  c #9B663D",
"!  c #9E683E",
"~  c #A66B3E",
"^  c #AB6C3D",
"/  c #B1713F",
"(  c #894F40",
")  c #914F40",
"_  c #815541",
"`  c #8C5442",
"'  c #835843",
"]  c #8D5D46",
"[  c #965544",
"{  c #995744",
"}  c #945A45",
"|  c #9B5A46",
" . c #9E5D48",
".. c #A15B47",
"X. c #A25D49",
"o. c #AA5E49",
"O. c #88684C",
"+. c #9D6A42",
"@. c #946149",
"#. c #9E624B",
"$. c #9E6C51",
"%. c #827554",
"&. c #957353",
"*. c #9B7655",
"=. c #9C7957",
"-. c #A46C41",
";. c #AC6E41",
":. c #A4634B",
">. c #A9654D",
",. c #A3694E",
"<. c #AC694F",
"1. c #B1694F",
"2. c #AE7244",
"3. c #B47545",
"4. c #BA7644",
"5. c #BD7A46",
"6. c #B77A4A",
"7. c #BC7B4A",
"8. c #A66B51",
"9. c #AD6B51",
"0. c #B26D52",
"q. c #B96C52",
"w. c #A77355",
"e. c #AD7355",
"r. c #A77558",
"t. c #A47E5B",
"y. c #AC7A5A",
"u. c #B57255",
"i. c #BA7556",
"p. c #BD7857",
"a. c #B67658",
"s. c #BC7758",
"d. c #B47C5B",
"f. c #BE7A59",
"g. c #C07C47",
"h. c #C27E4B",
"j. c #C17657",
"k. c #C17758",
"l. c #C17C5B",
"z. c #91835D",
"x. c #A6815C",
"c. c #AD845E",
"v. c #B3815E",
"b. c #BB825E",
"n. c #A78D64",
"m. c #B38461",
"M. c #BA8561",
"N. c #B78B63",
"B. c #BC8B63",
"V. c #AB976B",
"C. c #B99368",
"Z. c #B59C6E",
"A. c #B69E70",
"S. c #BBA372",
"D. c #BDAA77",
"F. c #C5814D",
"G. c #C68351",
"H. c #C4815D",
"J. c #C9825E",
"K. c #C98661",
"L. c #C38C64",
"P. c #CA8F66",
"I. c #C59167",
"U. c #CF9067",
"Y. c #C79569",
"T. c #C9966A",
"R. c #C49D6F",
"E. c #CB9A6C",
"W. c #D19469",
"Q. c #D39D6F",
"!. c #C39F70",
"~. c #CC9F70",
"^. c #D79F70",
"/. c #CCA06F",
"(. c #D4A16F",
"). c #C6A272",
"_. c #CDA473",
"`. c #CEAA77",
"'. c #CFAC78",
"]. c #D5A373",
"[. c #DBA372",
"{. c #D2A976",
"}. c #DBA977",
"|. c #D2AD79",
" X c #DBAD79",
".X c #CFB17B",
"XX c #D3B37D",
"oX c #DAB37D",
"OX c #D3B87F",
"+X c #E1A674",
"@X c #D9B780",
"#X c #D6BA81",
"$X c #DBBB82",
"%X c #E3BB83",
"&X c #DEC387",
"*X c #DFC588",
"=X c #E1C186",
"-X c #E6C78A",
";X c #EBCA8B",
/* pixels */
"F.F.F.5.F.F.F.F.F.F.F.F.F.F.F.F.F.F.F.F.F.F.F.F.F.F.F.F.F.F.F.F.F.F.F.F.F.F.F.F.5.F.F.F.F.F.G.G.F.F.7.5.7.7.g.h.G.G.G.G.G.F.F.F.",
"G.F.F.5.h.F.F.F.F.F.G.G.G.F.F.F.g.F.F.F./ W P P R R R R T T R I R R T T R T R R P G Q / F.F.F.F.F.F.F.h.h.h.h.h.G.G.F.G.G.G.F.F.",
"G.G.F.5.F.F.F.F.F.G.G.F.G.F.h.g.5.b.b.2.P e * * 3 2 = 2 : : 2 2 2 : : : : 2 : 2 * + i T 2.7.5.F.b.F.F.F.G.F.F.F.F.G.F.F.F.F.F.F.",
"F.F.F.5.h.F.F.h.F.h.F.F.F.7.~ ! ! ~ W m a 1 & & , , , & , , , , , , , ; , , , , & & 6 s Y Q -.2.4.F.G.G.G.G.G.G.G.G.G.h.F.h.F.F.",
"h.g.7.5.h.F.F.h.g.h.h.G.G.2.l i i p i i h M C M n C n V V B V B B B B B n n V V V A n n e i z Y ~ 5.F.F.F.F.h.h.h.h.h.h.h.F.F.F.",
"G.h.h.5.h.F.F.h.h.g.h.G.6.T 6 , , ; : y A =.c.c.t.x.x.x.t.t.t.t.t.t.t.t.x.x.t.t.c.N.*.M w , < a I 2.7.2.2.3.g.7.h.g.h.h.h.F.F.F.",
"G.G.G.5.F.F.F.h.h.h.h.3.T h y u y w u C =.I.Q.[.T.T.Q.T.E.E.E.E.W.E.E.E.E.E.E.E.Q.[.B.&.V u t y j P T L x I 3.F.h.h.F.G.G.G.F.F.",
"F.F.F.5.h.F.G.G.G.G.3.T e t O.&.&.&.&.x.b.E.[.[.Q.Q.Q.Q.Q.Q.Q.Q.^.^.Q.Q.Q.Q.Q.Q.(.[.E.N.x.=.O.V u > ; ; & e W 4.h.h.F.F.F.F.h.F.",
"5.g.5.4.5.5.7.h.h.;.W a w n B.E.E.T.Y.T.T.E.E.E.E.E.E.E.E.E.T./.E.E.E.E.E.E.E.E.E.T.T.E.Q.E.B.=.n q , r r y j R 3.4.5.5.5.g.g.5.",
"5.5.g.4.5.7.h.7.3.W j w n c.Q.[.}.[.[.(.E.T.I.I.I.Y.I.Y.I.I.Y.I.Y.I.Y.Y.Y.Y.P.Y.I.I.Y.^.[.+X].B.=.D S %.z.S u j E ^ 7.5.5.5.5.5.",
"F.h.F.F.G.G.G.6.@.j w n c.[.T.T.T.T.T.T.T.Y.Y.Y.Y.Y.Y.Y.Y.Y.Y.Y.Y.Y.Y.Y.Y.Y.Y.Y.Y.Y.Y.Y.Y.Y.Y.Y.E./.'.#X-XS.C w j R 3.h.F.F.F.F.",
"h.h.7.h.F.F.3.E a y n t.E.(.Y.Y.Y.I.Y.Y.Y.T.Y.Y.Y.Y.Y.Y.Y.Y.Y.T.Y.Y.Y.Y.Y.Y.Y.Y.Y.Y.Y.Y.Y.Y.Y.U./.].oX*X;XOXV.S h f T 3.F.G.G.F.",
"F.h.g.h.h.3.W j w n =.E.Q.T.Y.Y.Y.Y.Y.Y.Y.Y.Y.T.Y.Y.Y.Y.Y.Y.Y.Y.Y.Y.Y.Y.Y.Y.Y.Y.Y.Y.Y.Y.Y.Y.Y.Y.T./.|.$X#X=X$Xn.N q s Q b.G.G.G.",
"F.F.F.h.3.T s 6 f O.b.[.Q.Y.Y.Y.Y.Y.T.Y.Y.Y.Y.Y.Y.Y.Y.Y.Y.T.Y.Y.Y.Y.Y.Y.Y.Y.Y.Y.Y.Y.Y.Y.Y.Y.I.Y.T./.|.OXXX=X;XA.Z q a T / F.F.F.",
"F.F.F.4.E 9 < 6 M w.P.(.E.Y.Y.Y.Y.Y.Y.T.Y.Y.Y.Y.Y.Y.Y.T.Y.Y.Y.T.Y.Y.Y.Y.Y.Y.Y.Y.Y.Y.Y.Y.Y.Y.Y.I.Y.).`.OXXX=X;XA.Z w i W 5.F.F.F.",
"F.G.G.6.T 2 - 5 ` u.U./.T.Y.Y.Y.Y.Y.Y.Y.Y.Y.Y.Y.Y.Y.Y.Y.Y.Y.Y.Y.Y.Y.Y.Y.Y.Y.Y.Y.Y.Y.Y.Y.Y.Y.Y.Y.Y.E./.|..X=X;XV.Z q i Q 7.F.F.F.",
"F.F.F.7.Y < % 5 ` a.P.E.E.Y.Y.Y.Y.Y.Y.Y.Y.Y.Y.E.T.Y.Y.Y.Y.T.Y.Y.Y.Y.Y.Y.Y.Y.T.Y.Y.Y.Y.Y.Y.Y.Y.Y.Y.Y.E./.'.$X;XV.Z q i W 7.G.G.F.",
"F.F.F.7.P 2 - f  .d.U.E.Y.Y.Y.Y.Y.Y.Y.Y.Y.Y.Y.Y.Y.Y.Y.Y.Y.Y.Y.Y.Y.Y.Y.Y.Y.Y.Y.Y.Y.T.Y.Y.Y.T.Y.Y.Y.Y.Y.E.'.%X%Xn.N 1 s ! 7.F.F.F.",
"F.F.F.4.I 6 < k w.L.Q.T.Y.Y.Y.Y.Y.Y.Y.Y.Y.Y.Y.Y.Y.Y.Y.T.Y.Y.Y.Y.Y.Y.T.Y.Y.Y.Y.Y.Y.Y.Y.Y.Y.Y.Y.Y.Y.Y.Y.Y.'.$X Xt.n < i W 5.h.F.F.",
"h.g.g.3.L 6 1 B c.E.^.Y.Y.Y.Y.Y.Y.Y.Y.Y.Y.Y.Y.Y.Y.Y.Y.Y.Y.Y.T.Y.Y.T.Y.Y.Y.Y.Y.Y.T.Y.Y.T.Y.Y.T.Y.Y.Y.Y.Y.'.oX^.r.l 6 i L ~ 7.g.h.",
"5.5.5./ G 3 q Z C.}.].Y.I.Y.Y.Y.Y.Y.Y.Y.Y.Y.Y.Y.Y.Y.Y.Y.Y.T.Y.Y.Y.Y.Y.Y.T.Y.Y.Y.Y.Y.Y.Y.Y.Y.Y.Y.Y.Y.Y.E..X|.U.a.} l 8 j L ^ 7.4.",
"F.F.F./ P e t D Z.|.}.L.I.Y.Y.Y.Y.Y.Y.T.Y.Y.Y.Y.Y.Y.Y.Y.Y.Y.Y.Y.Y.Y.Y.Y.Y.Y.Y.Y.Y.Y.T.Y.Y.Y.Y.Y.Y.Y.Y.E.XX`.P.K.u.@.f 6 a W 5.F.",
"F.F.F./ G e t F A. X}.I.I.Y.Y.Y.Y.Y.Y.Y.Y.Y.Y.Y.Y.Y.Y.Y.Y.Y.Y.Y.Y.Y.Y.Y.Y.Y.Y.Y.Y.Y.Y.Y.Y.Y.Y.Y.Y.Y.Y.E.XX`.M.l.l.,.v < 6 Y 6.F.",
"F.F.F./ L e t D A.|.}.I.I.Y.Y.Y.Y.Y.Y.Y.Y.Y.Y.Y.T.Y.Y.Y.Y.Y.Y.Y.Y.Y.Y.T.Y.Y.Y.Y.T.Y.Y.Y.Y.Y.Y.Y.Y.Y.Y.T.XX).d.s.k.<.v 1 2 L 6.F.",
"F.F.F.^ L 7 w D Z.oXoXT.I.Y.Y.Y.T.Y.Y.Y.Y.Y.Y.Y.T.Y.Y.Y.Y.Y.Y.Y.Y.Y.Y.Y.Y.Y.Y.Y.Y.Y.Y.Y.Y.Y.Y.Y.Y.Y.Y.E.$X).r.0.u.:.v < 3 L 7.F.",
"F.F.F./ I 3 w S Z.oXoX/.Y.Y.Y.Y.Y.Y.Y.Y.Y.Y.Y.Y.Y.Y.Y.Y.Y.Y.T.Y.Y.Y.Y.Y.Y.T.Y.Y.Y.Y.Y.Y.Y.Y.Y.Y.Y.Y.Y.E.#X).r.0.<.#.l 1 7 L 4.F.",
"F.F.F.~ L e y F S.&X-X|.~.L.Y.Y.Y.Y.Y.Y.T.Y.Y.T.Y.Y.Y.Y.Y.Y.Y.T.Y.Y.Y.Y.T.Y.Y.Y.Y.Y.Y.Y.Y.Y.Y.Y.Y.Y.Y.E.XXR.w.0.u.#.l 1 e P 4.F.",
"G.F.~ p 7 f O.C.XX*X*XoX`.~.Y.L.I.I.Y.Y.I.Y.Y.T.Y.T.Y.Y.Y.Y.Y.Y.Y.T.Y.Y.Y.Y.Y.Y.Y.Y.Y.Y.Y.Y.Y.Y.E.~.E.E.B.w. .<.0.,.l 6 3 P 6.F.",
"F.F.R = = M r.T.|.oXXXXXXX'.~.Y.Y.Y.T.T.Y.Y.I.I.I.I.I.I.I.T.Y.Y.Y.Y.Y.Y.Y.Y.Y.E.T.E.E.E.E.E.Y.Y.I.I.L.B.9.} [ >.1.#.v < 3 G 4.F.",
"F.F.G + < Y d.W.(.E.~._.@X#X`.~._.`._./.T.Y.I.I.I.Y.I.I.Y.T.Y.Y.Y.Y.E.Y.Y.Y.Y.E.E.R.E.E.E.E.E.I.M.d.e.e.X.` J o.1.#.l < 3 I 6.F.",
"b.F.G O , ' a.K.K.K.L.Y.`.@X'.|.XXXXXX|.`.E.T.E./.E.E./.T.T.E.T.E.R.E.Y.E.T.Y.Y.I.I.Y.I.Y.T.I.M.e.#. .#.[ K [ 1.i.,.n 6 3 L 4.7.",
"/ g.G + ; v ,.k.l.l.f.L.R.'.#X#XOX#XOXOX|.`.`./._.{._._././.T.E.E.T.E.E.E.E.E.B.b.d.b.b.b.M.d.w.:.[ [ { ) [ ,.b.L.x.M w 3 G 3.5.",
"h.h.L - & g #.q.k.k.f.f.L.E.XXOX#X@X#XXX|.`._.`.`.|.'.`./.Y.T.I.I.T.E.T.T.Y.Y.v.9.8.8.8.8.9.8.:.{ [ J [ K  .d._.{.C.A t 6 I 3.h.",
"F.F.Y - % 9 [ 0.k.k.f.s.f.P._.|.'.`.).).).).).).).).).).Y.L.M.L.B.b.B.H.B.B.b.2.{ { { { { } { [ [ [ K [ [ 8.Y.$X$XS.D t 6 P 7.F.",
"F.F.Y - % 9 } 9.k.H.l.p.i.f.Y.Y.Y.B.m.m.v.c.v.m.m.m.v.v.y.e.r.e.e.e.e.e.e.e.w.:.K K K K [ K [ K { K [ [ ..u.).-X-XD.F t 3 I 7.h.",
"F.G.Y % # 9 ` 0.l.l.f.p.p.f.f.H.l.a.8.:.#.:.:.X.#.#.#.#.#.#. .{ #.| | | #.| | [ [ [ [ [ [ K [ [ { } }  .<.b.~.%X$XS.S r 3 L 7.F.",
"F.F.T - % 9 } 0.k.l.l.f.s.p.i.j.i.0.o...{ { [ K J J K J J J [ ) ) ) ) J K K K [ { } [ { [ [ [ [ { {  .<.i.H.U.}.E.n.B 1 3 T 6.G.",
"G.F.P % # 9 } 0.k.H.k.p.f.s.p.f.s.s.f.s.p.u.>.{ J [ [ [ [ [ [ [ [ { { { [ [ [ } [ [ [ [ } [ [ [ K #.<.f.f.f.J.l.u.` 8 - 3 T 6.G.",
"G.G.P * # 5 J :.u.b.I.~.E.Y.K.l.f.K.l.l.i.9.:.{ [ [ { [ { [ [ { [ [ { [ [ { [ [ { [ K [ K [ [ [ :.<.i.l.H.f.6.q.>.H 4 % 2 T 7.F.",
"F.7.L * - 9 H ..9.m.E.oXXX~.f.f.f.l.f.s.<.X.[ [ [ [ [ { [ { } [ [ { [ { { [ [ { [ [ [ [ [ [ [ :.1.i.f.l.H.i.>.>.{ H 4 ; 7 Y 4.F.",
"F.W j w f b | >.9.d.C.!.R.B.a.9.0.u.0.8.:.{ [ [ { [ { [ [ { { [ [ [ { [ [ { [ [ {  .:.:.:.:.:.<.i.l.H.f.i.9.X.| [ ) g e e v ! 7.",
"F.> e l ] ,.u.1.0.e.e.r.r.e.>.X.:.:.:. . .[ [ [ [ { [ { } [ [ [ { [ { [ [ { [ [ { ,.9.0.u.u.0.u.f.l.l.f.9.o.{ [ [ { } _ l f s ! ",
"4.X 1 ] e.f.l.f.i.9.9. .| } | } { { { { [ [ [ [ { [ { [ [ { [ { { [ } { [ [ { ` { >.0.u.u.u.u.u.u.a.u.u.:.{ ) ) [ o.9.#.M 6 = I ",
"F.  < @.l.J.J.H.s.u.>.| [ ) [ [ { [ [ [ [ [ [ [ [ { [ { { [ { [ [ [ { [ { { { [ { :.>.9.<.<.<.<.<.<.>.>.{ [ ) [ ..q.j.0.' 1 + d ",
"F.  & ] i.H.J.l.f.f.u.>.| ) ) [ [ ) [ [ [ } [ [ [ [ [ [ { [ [ [ [ { [ { [ [ { [ { { {  . . .{  .| { { { [ [ {  .u.l.J.a.' < + m ",
"h.  # U <.f.l.l.l.f.s.a.9. .{ ) [ [ [ [ { [ { [ [ [ [ [ [ [ { { [ [ [ { [ { { } { { [ [ [ [ [ [ [ [ [ [ ) { 8.c.L.W.P.d.' < + Y ",
"F.  O l :.u.l.l.l.f.l.f.a.9.| | [ } [ [ [ [ [ { [ [ [ [ [ [ } { [ [ { { { { [ [ { [ [ [ ` [ ` [ [ [ [ [ ) :.m.).|. XE.d.M < - L ",
"F.  o g { u.k.l.l.f.s.l.f.u.:.:.X. .{ [ [ [ ) [ [ [ [ [ [ [ { K [ [ [ } [ [ [ { [ [ [ [ [ { [ [ [ { {  .{ w.!.#X*X$X^.r.v - * L ",
"F.. O 0 | 0.f.l.l.f.f.f.l.f.0.u.0.>.| [ [ K [ [ [ [ [ [ [ [ [ { [ [ [ [ } [ [ { [ { [ [ [ { [ } [ | >.u.1.d._.$X*X#XY.$.g % % P ",
"F.  o g { 0.s.f.l.l.l.f.f.f.f.k.f.0.>. .| |  .X.|  ...|  .X. .| | [ [ [ [ { [ [ { [ [ [ } {  . . .>.0.l.f.H.E.|.|.).m.@.9 # - P ",
"G.. @ g ` X.0.a.f.l.l.f.f.f.l.l.l.i.0.1.<.<.<.<.9.8.<.<.1.9.1.1.>.| [ [ ) { { [ [ { [ [ { X.>.9.0.u.a.H.l.H.I.I.L.b.8.` 9 % - P ",
"G.. @ c [ { o.9.u.i.f.f.f.l.f.H.H.H.b.b.b.l.f.f.s.s.f.f.d.f.f.a.e.:. .{ { | [ [ [ { [ [ | :.0.a.p.i.i.f.s.f.f.a.9.>. .( 9 % - Y ",
"h.. % c [ { ..X.>.<.0.0.f.l.l.L.Y.E.]._.(.E.P.H.l.l.H.l.H.l.H.l.s.a.9.>.>.X.} [ { [ [ [ { X.>.9.0.<.<.<.9.<.<.:.....{ H 9 - - P ",
"g.. % c [ | | { { {  .>.i.f.p.L._.|.XXXXXX_.T.H.j.j.l.f.l.l.l.l.s.s.s.s.0.>.} [ [ { [ [ } } | | |  .{ } | | | { { | | J 9 % % m ",
"h.e 6 7 0 H [ { } { } X.<.1.<.a.N.C.C.C.C.b.d.e.<.9.9.9.9.9.9.<.9.9.9.0.9.:.[ [ { [ [ { [ [ [ [ [ [ [ [ } [ [ K [ ....[ g % O x ",
"F.-.j , 4 c [ { { [ [ {  .X.#.:.<.,.w.w.w.8.,.:.....X.X.X.X.:. .X.:.X.X. .| [ [ [ } [ [ { [ [ [ [ [ [ [ [ [ [ [ { ....` f % * Y ",
"F.F.m O % g ` ....| [ [ { [ [ [ { { } | | } { { [ [ [ [ [ [ [ [ { { [ { [ [ [ [ [ [ { { [ [ [ [ [ [ [ [ [ [ { | ....[ g 6 < s ! ",
"F.F.P % % 9 ` X...| [ { [ [ [ [ K K K K K [ K { [ [ [ [ [ [ [ [ [ { [ [ [ [ { [ { [ [ [ { } [ { [ [ { [ { { { ....{ c 5 6 l +.7.",
"F.F.W 7 < 5 b { ....{ [ [ K [ [ [ [ [ [ [ K } K [ K [ K [ ` [ [ [ [ [ ) [ [ [ { { { { [ { [ [ [ { [ { [ { {  ...[ c 8 6 j W 6.F.",
"F.F.;.L e 2 9 b [ ..{ { [ [ [ [ [ [ [ [ [ [ { [ [ [ [ [ [ [ [ [ [ [ [ [ [ [ { [ } [ [ [ [ { { [ { [ [ { { {  .[ c 8 4 i Y 3.h.F.",
"F.F.h.2.L e 4 9 b { ..{ [ [ { [ [ { [ [ [ { { [ { { [ [ [ [ { [ [ { [ [ [ [ } [ { [ { { [ [ [ { [ [ [ { { { | b 8 < i T 2.h.F.F.",
"F.F.F.7.-.m 7 2 9 H [ { { [ [ { { [ } [ [ [ [ } [ [ [ { } [ [ { { [ { [ [ [ [ [ { } [ [ } { [ [ [ { [ [ { [ H 5 4 7 Y 3.G.G.G.F.",
"F.F.F.F.h.~ m 7 4 f H X.{ } { [ { { { [ { [ [ { [ [ [ { [ { [ { [ { { } { [ { [ [ [ { [ { { { [ } [ { [ ..` 5 < e L 3.h.G.G.G.h.",
"F.F.F.F.F.7.+.h ; < b o.X.[ [ { [ { [ { [ { { [ { { [ [ { [ { [ { [ [ { [ { [ { { [ [ [ { [ [ { { [ { [ :.b $ , m ^ F.F.F.h.F.G."
};
