/* XPM */
static char *result[] = {
/* columns rows colors chars-per-pixel */
"64 64 176 2 ",
"   c #000505",
".  c #00070A",
"X  c #00090F",
"o  c #000B11",
"O  c #031013",
"+  c #091314",
"@  c #141715",
"#  c #1D1C17",
"$  c #1D1E19",
"%  c #211917",
"&  c #241D1A",
"*  c #2A231C",
"=  c #2B291E",
"-  c #33241B",
";  c #3D2A1E",
":  c #2F2B20",
">  c #332A21",
",  c #40281A",
"<  c #572D1A",
"1  c #53311B",
"2  c #63321C",
"3  c #7A3613",
"4  c #402F24",
"5  c #443424",
"6  c #4A3626",
"7  c #463B26",
"8  c #4B3B27",
"9  c #45342B",
"0  c #4B3D29",
"q  c #523422",
"w  c #5C3521",
"e  c #5B3A25",
"r  c #533C28",
"t  c #5D3E28",
"y  c #623F27",
"u  c #6D3A23",
"i  c #783C24",
"p  c #4C4029",
"a  c #52412A",
"s  c #5E4B2F",
"d  c #4B473B",
"f  c #65432C",
"g  c #6B462E",
"h  c #684C2C",
"j  c #704A2F",
"k  c #71522B",
"l  c #634730",
"z  c #654D31",
"x  c #6C4D32",
"c  c #724E33",
"v  c #725334",
"b  c #7D5535",
"n  c #755538",
"m  c #7A5F38",
"M  c #454B4B",
"N  c #93441F",
"B  c #A4461A",
"V  c #834225",
"C  c #8A4528",
"Z  c #85492B",
"A  c #8D4A2C",
"S  c #924828",
"D  c #825834",
"F  c #8B5B35",
"G  c #855B3A",
"H  c #8C5E3B",
"J  c #905E39",
"K  c #A44D29",
"L  c #A9522C",
"P  c #A15A32",
"I  c #94623C",
"U  c #906B3E",
"Y  c #986839",
"T  c #9C6E3F",
"R  c #A46A3D",
"E  c #A56A3D",
"W  c #BB6633",
"Q  c #BB6838",
"!  c #B1703F",
"~  c #E15D23",
"^  c #D1632C",
"/  c #CB6132",
"(  c #D26333",
")  c #DC6532",
"_  c #D46A36",
"`  c #DB6835",
"'  c #D46B3B",
"]  c #E3642C",
"[  c #E26633",
"{  c #E46B36",
"}  c #E56E38",
"|  c #EB7837",
" . c #E6723D",
".. c #EA743B",
"X. c #EC7A3D",
"o. c #F47A3E",
"O. c #FC7D3F",
"+. c #966541",
"@. c #9F654D",
"#. c #A46C42",
"$. c #A96E42",
"%. c #A57744",
"&. c #AB7042",
"*. c #A47844",
"=. c #AA7D46",
"-. c #AA7F48",
";. c #B57443",
":. c #B97642",
">. c #BD7A45",
",. c #B37648",
"<. c #B4794C",
"1. c #BF7B49",
"2. c #B8765B",
"3. c #C86D44",
"4. c #C07C47",
"5. c #C27E4B",
"6. c #EC7E41",
"7. c #E57A4E",
"8. c #EA813F",
"9. c #AA804D",
"0. c #B08248",
"q. c #AD9576",
"w. c #CD8845",
"e. c #C5814D",
"r. c #CE8649",
"t. c #C98E4E",
"y. c #C68451",
"u. c #CC9351",
"i. c #ED8243",
"p. c #EB8847",
"a. c #FE8140",
"s. c #F28C47",
"d. c #FE8946",
"f. c #ED924B",
"g. c #F6964E",
"h. c #FF954D",
"j. c #F79A4E",
"k. c #FF994F",
"l. c #E78257",
"z. c #E89A52",
"x. c #EF905D",
"c. c #F79A51",
"v. c #FD9C51",
"b. c #FEA355",
"n. c #F3A558",
"m. c #FFA759",
"M. c #F2A85A",
"N. c #FEAD5C",
"B. c #FFB25E",
"V. c #FFB85F",
"C. c #F98E60",
"Z. c #E8916C",
"A. c #EB9370",
"S. c #FFA46A",
"D. c #FDB564",
"F. c #FFB961",
"G. c #FFAB77",
"H. c #9D8986",
"J. c #A2A29D",
"K. c #9AA0A9",
"L. c #EA9E81",
"P. c #ECA387",
"I. c #E1A38C",
"U. c #FFB18D",
"Y. c #F7B69C",
"T. c #ECB8A7",
"R. c #FEBFA9",
"E. c #FFD199",
"W. c #FFD0A0",
"Q. c #EBC4BB",
"!. c #FFC7B1",
"~. c #F2CFC7",
"^. c #FCD4C9",
"/. c #F0E3D9",
"(. c #E5E2EA",
"). c #F3E4E7",
/* pixels */
"e.e.e.>.5.e.e.e.e.e.e.e.e.e.e.e.e.e.e.e.e.e.e.e.e.e.e.e.e.e.e.e.e.e.e.e.e.e.e.e.:.5.e.e.e.e.y.e.e.e.e.4.4.5.4.5.5.5.y.y.y.5.y.5.",
"y.e.e.>.e.e.e.e.e.e.y.e.y.e.e.e.5.e.y.y.y.e.e.e.e.e.e.5.e.e.e.e.e.e.e.e.e.e.5.r.4.5.e.e.e.e.e.e.e.e.5.5.5.5.5.5.y.y.y.5.y.y.y.y.",
"y.y.e.>.5.e.e.e.e.e.y.y.y.e.e.e.e.y.y.y.y.y.e.e.e.y.e.e.e.e.y.e.e.e.e.e.e.y.y.e.4.5.e.e.e.e.e.e.e.e.e.e.y.y.y.5.5.y.y.y.y.5.5.y.",
"e.e.e.>.5.e.e.e.e.e.e.e.e.e.e.e.5.e.y.5.e.e.e.y.y.y.y.y.y.y.y.e.e.e.e.e.e.y.y.y.4.5.e.e.e.e.e.e.e.e.y.y.y.y.y.y.y.y.y.5.5.5.r.5.",
"e.1.1.>.e.e.e.5.4.4.e.e.y.y.y.e.5.e.5.5.5.4.5.e.e.e.e.e.e.e.e.e.e.e.e.5.5.e.e.y.4.4.e.y.y.y.y.e.e.e.e.e.e.e.5.5.5.5.5.5.5.5.y.5.",
"e.5.5.>.5.e.e.5.5.5.5.y.e.y.y.e.e.5.y.5.5.5.e.e.e.e.5.5.5.5.5.e.e.e.e.y.y.e.y.e.4.5.e.y.y.y.y.y.e.e.e.e.e.e.5.5.5.5.5.5.5.y.5.r.",
"y.y.y.>.e.e.e.e.5.y.5.5.e.e.e.e.5.y.y.y.y.y.y.y.e.e.5.4.5.5.4.5.e.e.e.y.y.y.y.y.4.5.e.e.e.e.y.5.e.e.e.5.5.5.5.5.5.5.5.y.y.r.y.5.",
"e.e.e.1.5.e.e.y.y.e.5.1.>.5.e.e.y.5.y.5.1.1.5.5.5.5.e.e.e.5.5.e.e.e.e.e.e.e.e.e.4.5.e.e.e.5.5.5.5.e.5.4.4.4.5.y.5.5.y.5.y.5.y.5.",
"4.4.1.:.>.1.4.5.5.4.>.>.:.>.>.>.4.4.:.:.4.:.:.:.:.>.4.4.4.4.4.4.5.4.4.4.4.4.4.4.:.4.4.4.4.4.4.>.>.4.4.>.Q 4.5.4.5.5.4.4.4.4.4.4.",
">.>.>.:.1.1.1.4.5.4.1.1.4.1.5.1.4.4.4.4.4.4.4.:.:.4.:.>.>.>.>.4.4.4.4.:.4.4.4.4.:.:.:.>.4.3.>.>.1.4.>.:.4.4.4.4.4.:.4.5.4.4.4.:.",
"e.5.5.y.y.y.y.y.y.y.y.y.y.y.y.e.e.5.e.e.e.e.e.5.>.e.e.e.e.5.e.5.e.e.5.5.5.5.e.5.5.5.4.4.5.5.5.5.e.e.e.e.e.e.e.e.5.4.5.5.y.5.5.5.",
"e.5.4.4.e.e.y.e.5.y.y.y.e.y.e.e.e.e.e.e.e.e.e.4.4.e.e.e.e.e.e.e.e.e.e.e.y.5.r.e.5.5.5.5.5.5.5.5.e.e.e.e.e.e.e.e.5.:.5.5.y.y.y.y.",
"5.5.5.5.5.5.y.y.y.y.e.e.e.e.e.e.e.e.5.e.e.e.e.5.:.e.e.e.5.5.5.e.e.e.5.4.5.5.5.5.5.5.y.5.5.5.5.5.e.y.e.y.y.e.e.e.4.:.e.5.y.y.y.y.",
"e.e.e.5.5.5.5.y.y.y.e.5.e.5.e.e.e.e.e.e.e.e.e.5.:.e.e.e.>.5.e.e.e.e.r.5.4.4.5.5.5.5.5.y.5.5.5.5.5.e.y.y.y.5.5.e.4.>.e.r.5.e.5.5.",
"e.e.e.4.4.5.4.5.5.e.5.4.1.1.5.e.e.e.e.y.y.y.y.e.! e.e.e.e.e.e.e.e.e.5.5.5.5.5.e.y.5.y.5.5.y.5.5.e.e.e.e.y.5.5.5.5.4.e.e.e.e.e.e.",
"e.e.y.y.y.5.5.e.e.e.5.5.5.5.5.e.e.e.e.y.e.e.e.e.:.e.e.e.y.y.y.e.e.e.5.4.5.y.y.5.y.y.y.y.r.5.y.5.e.e.y.y.y.y.y.y.5.:.e.e.y.y.y.e.",
"e.y.y.y.y.e.e.5.5.5.5.5.5.5.e.5.e.y.y.y.5.y.y.4.! v * X .     . o o > b 5.5.e.5.e.y.y.y.y.e.5.e.e.e.y.y.y.y.y.e.e.:.e.e.e.y.y.e.",
"e.e.e.e.5.e.e.5.5.1.1.1.5.y.e.e.y.y.y.y.y.y.y.5.! x * O + + o + + + > b ,.4.5.e.e.e.e.e.e.e.e.y.e.e.e.e.e.e.e.e.e.>.e.e.e.e.e.e.",
"e.e.e.e.e.y.y.y.y.y.y.5.5.e.e.e.e.e.e.e.e.e.1.R b k p p d M M d 9 , 1 g H $.>.e.e.e.e.e.y.y.y.y.e.e.e.e.e.e.e.e.5.4.e.e.e.e.e.e.",
"4.4.4.>.5.5.5.5.5.5.5.4.5.4.4.4.4.4.4.4.1.;.F e ; h U 9.q.J.K.H.@.N 3 < 5 f I 1.>.4.4.1.5.5.5.5.5.4.4.4.4.4.4.4.1.! 4.4.4.4.4.e.",
":.4.4.! >.>.>.>.4.4.4.4.4.4.5.5.>.>.>.>.>.R y % # k w.D.W./.(.~.A.) B < @ * j ;.:.>.>.>.1.>.>.>.1.>.:.>.>.>.:.>.:.;.>.>.>.:.4.>.",
"e.e.e.4.5.5.e.e.e.e.5.5.5.5.5.5.e.5.e.1.&.G 0 = r R f.F.E.^./.!.U.C.' b 4 * e J E 1.e.e.y.5.5.5.e.e.e.e.e.e.>.>.>.>.>.>.e.e.e.e.",
"e.e.e.:.5.e.e.e.e.e.e.5.5.r.e.e.e.e.1.H f r s m %.r.f.v.S.U.Y.R.!.R.I.2.A 2 1 8 g I e.y.y.y.y.5.e.e.e.e.e.e.e.e.5.5.e.e.y.y.e.e.",
"e.e.e.:.e.e.e.e.5.5.5.5.5.5.y.5.e.e.#.t % = m u.n.g.6.......l.P.~.).~.L.' B < # * g ,.e.y.5.5.5.e.e.e.e.e.e.e.e.e.y.e.e.e.e.e.e.",
"e.e.e.! 5.e.e.e.4.>.1.1.5.5.5.e.1.<.G 7 $ a =.n.B.k.X.] ~ ~ ] Z.Q.(.^.U.d.^ V ; # 8 I ,.1.4.4.1.5.y.y.y.y.y.y.y.y.y.5.4.5.5.5.y.",
"e.e.e.:.5.e.e.e.e.e.e.5.5.5.y.5.v c x z v T e.j.k.d...[ ~ ] ] l.P.T.T.G.k.6.W Z w e f n +.<.y.y.y.5.y.y.y.y.5.5.y.e.e.5.5.5.5.5.",
"y.e.e.! 5.e.e.e.e.e.y.e.5.4.5.e.$ * a +.t.z.f.i.o...} { { [ {  .7.l.x.b.m.v.i._ L u ; > l #.y.y.y.5.y.5.5.5.5.5.5.e.e.e.r.e.y.e.",
"y.e.e.4.e.e.e.e.e.y.y.e.5.4.4.5.X + 7 9.N.B.h...[ [ { { { } { { ] ] X.c.B.N.k.O.( V - + 5 J 5.e.y.5.5.5.5.5.5.5.5.5.e.5.5.5.5.e.",
"e.e.e.! e.r.e.e.e.e.e.e.e.e.e.5.o + 0 0.B.V.k...[ ) { { } }  .] ] ] | j.B.B.v.a.) C - o 4 J 5.e.5.e.e.e.y.y.y.y.y.y.5.4.5.5.5.5.",
"e.e.e.:.e.e.e.e.y.y.y.y.e.e.e.5.X + 7 =.N.B.k...[ [ { } } } { { ] [ X.c.B.m.k.6.( C - + 6 I 5.5.e.e.e.e.y.5.5.y.y.5.5.5.5.5.y.y.",
"e.e.4.>.4.4.e.e.e.e.5.e.1.0.5.4.X + 7 *.M.N.h...{ [ { { { } { [ [ { 6.c.B.m.h.o./ i - + 6 I 4.4.4.4.5.5.4.4.4.4.5.4.4.4.4.4.4.5.",
"4.:.>.! :.4.:.>.>.>.>.>.>.>.4.4.X + 7 *.M.N.h...{ { { } } { } { [ { i.c.N.m.h.o./ V - @ 6 J 4.:.4.4.4.5.>.>.1.4.>.:.4.4.4.:.4.5.",
"5.5.5.5.5.5.5.5.e.5.5.5.e.5.e.e.X + 7 *.M.N.h.X.{ [ { } } { { { { { i.c.N.N.h.o./ V - @ 6 I 5.5.5.5.5.y.5.5.5.5.5.4.5.5.e.5.r.5.",
"e.e.e.y.y.5.r.e.e.e.5.5.4.e.e.e.X + 7 *.M.N.h...{ { { { { } { { [ { i.c.N.m.h.o./ V & @ 6 I 5.5.5.5.y.y.y.y.y.y.5.:.e.e.e.e.y.5.",
"e.y.y.y.y.5.5.5.5.e.5.4.4.5.e.e.X + 7 =.N.B.h...[ [ { } } { } { [ { 8.c.N.N.k.O./ V - + 9 J >.5.e.5.e.y.y.r.y.e.4.:.5.e.e.e.5.5.",
"y.r.y.y.y.5.4.5.4.5.e.5.e.e.e.e.o + 0 0.B.F.h...[ [ { { } } } [ [ [ X.v.B.B.k.a.` C ; o 4 H 4.4.5.e.y.5.e.e.e.e.5.:.e.e.e.e.e.e.",
"5.5.y.e.y.5.e.5.y.y.y.y.y.y.y.e.X + 0 =.N.V.h...[ [ { } } { } { [ [ 6.c.B.N.k.6.( C - O 5 I e.5.5.e.5.e.e.r.5.e.4.:.e.e.e.y.y.y.",
"y.y.e.5.5.e.e.e.y.y.e.y.e.e.e.e.& * a U t.z.f.6.X...} { [ [ { }  ...s.v.m.v.s._ L u ; : l #.e.e.e.e.e.e.y.5.e.y.5.4.e.e.e.y.y.y.",
"y.y.e.e.y.5.e.e.y.e.5.5.5.e.e.e.c v x z v T r.c.v.d...[ [ [ [ ..s.g.v.v.h.p.Q Z w e l n +.<.y.5.e.e.e.e.5.y.y.y.5.4.e.e.5.e.r.5.",
"e.e.e.e.y.y.y.y.y.e.e.e.e.e.5.e.1.,.G 5 $ a %.n.N.h.X.[ ) [ { i.c.N.m.h.a.( Z , $ 0 I 1.e.e.e.e.e.e.e.e.y.5.y.e.4.:.e.e.e.e.5.5.",
"e.e.r.5.e.e.e.y.y.5.y.5.e.e.e.e.e.e.E y % = m u.n.j.i...} ..X.s.b.N.v.p.` K < # * c ,.5.5.e.e.e.e.e.5.5.5.r.e.5.4.4.5.y.5.e.e.e.",
"5.5.5.5.5.5.5.5.4.4.5.5.5.5.5.4.1.5.:.F y 8 s m %.t.g.h.h.h.h.j.v.v.p.Q S 2 q 8 g J 4.5.5.4.5.5.5.5.5.4.5.5.5.4.4.:.5.4.5.5.5.5.",
"5.4.4.4.4.:.4.:.4.4.4.4.4.4.:.4.>.5.:.! E D 8 = p +.z.B.V.V.m.b.h.6./ b 4 & t H E :.1.>.4.>.4.4.4.4.4.4.4.4.5.4.>.:.4.4.:.>.4.>.",
"5.5.5.! 4.e.e.e.y.5.5.y.y.5.5.e.e.0.5.5.1.$.f % $ v t.B.V.B.M.g.6.` K < @ * c ,.>.4.5.5.5.5.4.5.5.5.5.5.4.4.5.5.4.4.4.5.e.5.5.5.",
"e.e.e.:.e.e.e.e.y.y.5.y.y.e.e.e.e.e.e.e.4.5.J y 9 z +.=.0.-.%.R P S i q 5 l Y 5.>.4.5.5.5.5.5.y.5.e.y.y.y.y.y.y.5.y.y.5.e.e.e.e.",
"e.e.e.4.e.e.e.e.5.5.5.y.e.e.e.e.e.5.e.e.5.5.,.#.G x a p p 8 7 6 5 , q c H $.1.e.:.>.4.4.5.y.y.y.e.e.y.y.y.y.y.5.e.5.5.5.e.5.e.e.",
"e.e.e.! 5.e.e.4.4.5.4.5.e.e.e.e.e.e.5.y.5.5.y.y.<.v * + + + + + + + > b 1.e.e.e.:.1.5.e.y.y.y.y.e.e.e.e.5.5.e.5.e.5.4.4.4.4.e.e.",
"e.e.e.:.5.e.e.5.5.5.5.e.e.e.e.e.e.e.5.5.5.4.5.y.1.c & X o X o o o o > G 5.e.5.y.:.1.5.e.y.5.5.5.e.e.e.5.4.5.4.5.5.e.5.5.5.5.e.e.",
"e.r.e.:.e.e.e.e.e.e.5.5.5.5.5.y.e.e.5.5.5.4.5.5.5.y.5.5.5.5.5.4.5.y.r.y.5.5.y.y.4.5.5.y.y.5.5.5.5.y.e.y.5.5.5.5.5.5.y.e.e.y.y.5.",
"e.e.e.>.5.e.e.e.e.e.5.>.4.4.5.5.e.e.e.e.5.5.5.5.y.5.y.y.y.y.y.e.y.5.5.5.5.5.y.y.:.5.y.5.5.5.5.5.e.y.y.y.y.y.y.y.y.5.5.y.e.y.y.e.",
"y.y.y.:.e.e.e.e.e.e.e.5.5.5.e.e.5.e.5.5.5.5.4.5.5.y.5.y.e.e.e.e.5.y.y.5.5.y.5.y.:.4.r.5.5.5.4.5.e.y.e.e.5.5.4.4.5.5.y.5.e.e.e.e.",
"e.y.y.>.5.e.e.e.e.e.e.e.y.5.5.5.y.5.y.5.5.5.5.5.y.5.r.5.e.e.e.5.r.5.5.y.5.y.5.5.4.5.y.5.5.5.5.5.e.e.e.e.5.5.5.5.5.y.5.y.e.e.e.e.",
"5.5.e.>.4.e.5.5.5.5.5.5.4.>.1.4.4.5.5.4.5.5.5.5.5.5.4.5.5.5.5.5.5.5.5.5.4.5.5.5.:.4.5.5.5.5.5.4.5.e.e.5.5.e.5.e.5.5.5.4.5.5.5.5.",
">.>.:.;.>.>.>.>.>.:.4.4.>.>.>.>.4.4.4.>.>.>.4.:.4.5.4.4.4.4.4.5.4.4.4.4.4.:.:.4.:.:.4.4.4.5.4.4.:.4.:.4.4.! 4.:.4.! 4.4.5.4.4.4.",
"5.5.5.5.1.:.>.>.>.5.5.5.5.5.4.4.5.5.5.5.4.:.4.4.4.5.5.5.5.5.5.5.5.5.4.:.4.4.4.5.5.5.4.4.5.5.5.5.5.5.5.5.5.4.:.4.4.:.4.5.5.5.5.5.",
"e.e.e.e.e.e.5.5.4.5.y.5.y.y.y.5.y.5.y.5.5.5.5.5.:.5.5.y.5.5.e.e.5.5.5.4.5.5.5.5.y.y.5.5.5.y.r.5.e.e.e.e.e.e.5.5.5.4.r.5.5.5.5.5.",
"5.y.y.5.y.y.r.5.5.e.y.y.y.y.y.y.e.y.y.y.y.y.y.5.4.y.y.y.y.r.e.e.5.y.y.5.y.5.e.y.y.y.y.y.y.y.5.y.e.5.e.5.e.y.y.y.5.4.e.>.4.1.e.e.",
"y.5.5.5.y.5.5.y.e.e.e.e.y.e.e.e.5.5.y.5.5.y.5.5.4.y.e.y.y.e.e.e.y.y.y.r.5.y.e.e.5.5.5.5.y.y.y.5.e.5.4.1.5.e.e.e.5.! e.e.y.y.y.y.",
"y.5.5.5.5.5.5.y.y.y.y.e.e.e.5.e.e.r.5.e.e.5.5.4.:.5.5.e.5.y.5.e.y.y.y.y.e.e.5.e.5.5.5.5.5.y.y.y.e.e.5.5.5.e.e.e.5.>.5.5.5.e.y.y.",
"r.5.5.5.5.5.5.y.y.e.y.y.e.e.e.e.e.e.e.y.y.5.5.4.:.5.5.y.y.5.e.e.5.5.5.5.5.e.e.y.5.5.5.5.5.5.5.5.e.e.e.e.y.e.y.e.5.Q 1.4.5.e.e.5.",
"5.5.y.5.5.r.5.5.5.5.5.e.e.5.y.5.e.e.e.y.y.y.5.5.:.4.5.y.y.e.e.e.e.y.5.y.r.y.y.y.r.y.5.5.5.5.4.5.e.e.e.e.y.y.y.y.e.:.e.5.e.e.e.e.",
"y.5.5.r.y.5.5.5.5.5.e.5.4.4.4.5.e.e.e.e.e.e.y.5.4.4.5.y.e.y.e.e.e.5.y.5.5.y.y.y.e.e.5.5.5.5.5.5.e.e.e.e.y.e.e.y.5.>.e.e.y.y.y.e.",
"y.5.y.5.5.y.y.y.5.r.y.5.5.5.5.5.e.e.e.e.5.e.5.5.4.r.5.y.5.5.5.5.5.e.5.5.5.5.5.5.5.e.5.5.5.5.e.e.e.y.y.e.e.e.5.e.5.>.e.e.y.y.y.e.",
"5.r.5.y.y.5.y.y.y.5.5.5.5.5.y.5.e.e.e.e.e.e.5.5.4.5.y.5.y.5.4.5.e.5.1.1.3.4.4.4.5.y.5.5.y.5.e.5.y.y.y.y.y.y.e.e.e.>.e.e.e.e.e.e."
};
