/* XPM */
static char *result[] = {
/* columns rows colors chars-per-pixel */
"64 64 176 2 ",
"   c #000506",
".  c #00090E",
"X  c #000D11",
"o  c #071013",
"O  c #091314",
"+  c #141916",
"@  c #1B1916",
"#  c #271D16",
"$  c #231E1A",
"%  c #2C1D19",
"&  c #1F211A",
"*  c #23221C",
"=  c #2A261D",
"-  c #2E291F",
";  c #31261F",
":  c #3F271B",
">  c #342B20",
",  c #373122",
"<  c #3A3324",
"1  c #42291C",
"2  c #4C2E1C",
"3  c #552F1B",
"4  c #642F15",
"5  c #6A3219",
"6  c #442D22",
"7  c #4A2F20",
"8  c #433424",
"9  c #4B3323",
"0  c #453A27",
"q  c #463A2C",
"w  c #4D3C29",
"e  c #553724",
"r  c #5D3925",
"t  c #5E3E2B",
"y  c #633420",
"u  c #6A3520",
"i  c #653822",
"p  c #7E3F24",
"a  c #4C4029",
"s  c #5E4627",
"d  c #57422A",
"f  c #5B442D",
"g  c #5E492E",
"h  c #4B4537",
"j  c #64432D",
"k  c #69452B",
"l  c #67492E",
"z  c #724A2E",
"x  c #614B30",
"c  c #684C31",
"v  c #704F33",
"b  c #685232",
"n  c #735135",
"m  c #7D5434",
"M  c #725A35",
"N  c #7B5E37",
"B  c #454948",
"V  c #803714",
"C  c #804226",
"Z  c #8F4D2C",
"A  c #904627",
"S  c #974A25",
"D  c #954B2A",
"F  c #9B4B29",
"G  c #90502E",
"H  c #825736",
"J  c #8B5B37",
"K  c #875C3A",
"L  c #8C5D3A",
"P  c #955236",
"I  c #915E3A",
"U  c #B34F24",
"Y  c #B2552D",
"T  c #8B6234",
"R  c #8B633C",
"E  c #94613C",
"W  c #98633A",
"Q  c #936C3F",
"!  c #A56A3D",
"~  c #A56C3D",
"^  c #B1703F",
"/  c #E25D22",
"(  c #E05E28",
")  c #C56D39",
"_  c #D76533",
"`  c #DE6834",
"'  c #D66D39",
"]  c #DD6D38",
"[  c #D7703A",
"{  c #E3632B",
"}  c #E26532",
"|  c #E46B36",
" . c #E56E39",
".. c #E97233",
"X. c #E6713B",
"o. c #EB743B",
"O. c #EC7A3E",
"+. c #F0793D",
"@. c #976440",
"#. c #977141",
"$. c #9D7443",
"%. c #9F6D59",
"&. c #A36B42",
"*. c #A96E42",
"=. c #AB7042",
"-. c #A57A45",
";. c #B57543",
":. c #B97642",
">. c #BD7A45",
",. c #B3774B",
"<. c #B4794C",
"1. c #BF7B49",
"2. c #C07C47",
"3. c #C27E4B",
"4. c #D97449",
"5. c #E6794B",
"6. c #E97C4B",
"7. c #F37E41",
"8. c #F87F40",
"9. c #BA803F",
"0. c #B58449",
"q. c #BE8A4C",
"w. c #AE916D",
"e. c #C58246",
"r. c #C5814D",
"t. c #DB8E45",
"y. c #DA924F",
"u. c #C68451",
"i. c #EE8344",
"p. c #EC8C47",
"a. c #ED8D4A",
"s. c #F18544",
"d. c #FF8543",
"f. c #F88B48",
"g. c #EF934D",
"h. c #F4954D",
"j. c #FE964E",
"k. c #FF994F",
"l. c #E7855B",
"z. c #ED8D5D",
"x. c #FF8C54",
"c. c #E59C54",
"v. c #F19B52",
"b. c #FE9C51",
"n. c #E6A257",
"m. c #EEA659",
"M. c #EFA85A",
"N. c #FEA254",
"B. c #FFA65A",
"V. c #F5AC5C",
"C. c #FEAD5B",
"Z. c #FFB25E",
"A. c #FF9567",
"S. c #EA9B7D",
"D. c #FFA265",
"F. c #FEB560",
"G. c #FFBA61",
"H. c #9C8F90",
"J. c #A5A097",
"K. c #9BA2AA",
"L. c #FFAC81",
"P. c #EAAA93",
"I. c #F9B398",
"U. c #FFB99A",
"Y. c #ECB9A8",
"T. c #F8BBA4",
"R. c #FFCC8E",
"E. c #FFCB94",
"W. c #FFC3AE",
"Q. c #F9C7B6",
"!. c #E7CBCA",
"~. c #FFD6CC",
"^. c #F4DAD5",
"/. c #F9E0C9",
"(. c #E5E4EB",
"). c #F6E3E2",
/* pixels */
"r.r.r.>.3.r.r.r.r.r.r.r.r.r.r.r.r.r.r.r.r.r.u.r.e.3.u.3.r.r.r.r.r.r.r.r.r.r.r.r.2.2.3.r.r.r.u.u.r.r.3.2.3.3.2.3.3.u.u.u.u.u.3.u.",
"u.r.r.>.r.r.r.r.r.r.u.u.u.r.r.r.r.r.u.u.u.r.3.r.3.u.3.u.r.r.r.r.r.r.r.r.r.r.r.r.2.0.r.r.r.r.r.r.r.r.3.3.3.3.3.3.u.3.3.u.u.u.u.3.",
"u.u.r.>.3.r.r.r.r.r.u.u.u.r.r.r.r.u.u.u.u.u.r.r.u.u.u.e.r.u.r.r.r.r.r.r.r.u.r.r.>.r.r.r.r.r.r.r.3.r.r.r.u.u.3.u.3.u.u.u.e.u.3.u.",
"r.r.r.>.3.r.r.r.r.r.r.r.r.r.r.r.3.r.r.3.r.3.u.u.u.u.u.u.u.u.r.r.r.r.r.r.r.u.u.u.>.r.r.r.r.r.r.r.r.u.u.u.u.u.u.3.u.u.u.3.3.3.u.3.",
"r.1.1.>.r.r.r.3.2.3.3.u.u.u.u.r.u.3.3.3.3.3.3.r.u.3.u.u.r.u.r.r.r.r.r.r.r.r.r.r.1.r.r.u.u.u.u.u.r.r.r.r.r.r.3.3.1.3.3.3.4.r.r.r.",
"r.3.3.>.3.r.r.3.3.3.3.u.u.u.u.r.3.3.u.3.3.3.3.r.u.e.3.3.3.3.3.r.r.r.r.u.u.r.u.u.>.e.r.r.u.u.u.u.3.r.r.r.r.3.3.3.3.2.3.3.r.u.r.r.",
"u.u.u.>.r.r.r.r.3.3.3.3.3.3.r.r.u.u.u.u.u.u.u.u.3.3.3.3.3.2.2.3.r.r.r.u.u.u.u.u.2.4.r.r.3.u.3.3.r.r.r.3.r.3.3.u.3.u.r.u.u.u.r.r.",
"r.r.r.1.3.r.r.u.u.u.3.2.2.2.e.r.3.u.3.3.1.1.2.3.3.3.3.3.4.r.r.r.r.e.r.r.r.r.r.r.2.3.r.r.3.3.3.3.r.r.3.2.3.2.3.3.3.3.r.r.r.r.r.r.",
">.2.>.:.>.1.2.3.3.2.>.>.:.>.>.>.2.2.>.>.:.:.:.:.:.>.2.2.2.2.2.2.2.2.>.2.2.2.2.2.^ 2.2.2.2.2.2.2.2.2.>.>.>.>.>.2.2.>.3.2.>.2.2.2.",
">.2.>.1.1.2.3.3.3.3.3.3.3.1.1.1.2.2.>.2.2.2.2.2.:.>.>.2.>.>.2.2.>.2.>.>.2.3.2.2.2.^ ) 2.2.2.:.:.>.>.>.>.>.1.>.>.>.:.>.2.>.>.>.>.",
"3.r.3.3.u.u.u.u.u.u.u.u.u.u.u.u.r.r.r.3.3.r.r.3.>.3.r.r.3.3.3.r.3.r.r.r.e.3.3.3.2.3.1.2.3.2.2.3.r.r.r.e.r.3.r.r.3.>.3.3.r.r.r.r.",
"3.3.2.3.r.3.u.3.3.u.u.3.u.r.r.3.r.r.r.r.r.r.r.2.2.r.r.r.r.r.r.r.r.r.r.r.3.u.u.u.3.3.3.3.3.3.3.3.r.r.r.r.r.r.r.r.3.:.r.r.u.u.u.u.",
"r.3.3.3.3.3.u.u.u.u.3.3.r.r.r.r.r.r.r.r.3.r.r.3.:.r.r.r.3.3.3.u.r.r.3.3.3.3.3.3.u.3.r.r.3.3.3.3.r.u.r.u.r.r.r.r.3.:.r.r.u.r.r.u.",
"r.r.r.3.3.3.3.u.u.u.u.3.3.r.3.r.r.r.r.r.r.r.r.3.:.r.r.r.2.2.r.3.r.r.r.3.3.2.3.3.u.3.r.r.3.3.3.2.3.u.u.u.u.r.r.r.3.:.r.r.r.r.r.r.",
"r.3.r.2.3.2.2.r.3.r.3.3.2.2.3.r.r.r.u.u.u.u.u.r.:.r.r.r.3.r.r.r.r.r.r.3.3.r.3.e.r.r.r.3.3.r.3.3.r.r.r.r.r.r.r.r.3.>.r.r.r.r.r.r.",
"r.u.u.u.u.3.3.3.r.r.3.3.3.3.r.r.3.r.r.r.u.u.r.3.:.r.3.r.u.u.u.r.r.r.2.2.3.r.u.3.u.u.u.u.u.r.u.u.r.r.u.u.u.u.u.r.3.:.r.r.u.u.r.r.",
"r.u.u.u.u.r.r.3.3.3.3.3.3.r.r.r.r.r.r.r.u.u.r.3.^ n * X .       . . - m 3.3.r.3.r.u.u.u.u.r.r.r.r.r.u.u.u.u.u.u.3.:.r.r.u.u.u.r.",
"r.3.r.r.r.r.r.3.1.1.1.1.3.r.r.3.u.u.u.u.u.u.r.3.^ v = o O O O O O O ; m :.2.3.r.r.r.r.r.r.r.r.r.r.r.r.r.r.r.r.r.3.2.r.r.r.r.r.r.",
"r.r.r.3.r.u.u.u.u.u.u.r.r.r.r.r.r.r.r.r.r.r.<.~ H j 2 > q B B B h 0 d v L *.>.r.r.r.r.r.u.u.u.u.r.r.r.r.r.r.r.r.3.2.r.r.r.r.r.r.",
"3.2.2.2.2.3.3.3.3.3.3.2.3.2.2.2.3.>.3.1.1.:.J t 6 4 V S %.H.K.J.w.-.J s 8 j I 2.1.1.1.1.1.3.3.3.3.2.2.2.2.2.2.2.1.^ 2.2.2.2.2.2.",
">.>.2.^ >.2.>.>.2.2.>.>.>.2.2.2.>.2.>.>.>.~ j @ @ 5 U ] S.!.(./.E.V.9.s + % z ;.^ >.>.>.>.>.>.>.>.>.>.>.>.>.>.:.>.:.>.>.2.2.^ e.",
"r.r.r.>.3.3.r.3.r.r.3.r.3.r.3.3.3.3.r.2.=.K e * 6 P 4.A.U.~.)./.R.Z.t.T 0 - d R ^ >.r.r.r.3.r.r.r.r.r.r.r.3.1.>.>.>.>.2.r.r.r.r.",
"r.r.r.>.r.r.r.r.r.r.r.r.r.r.r.r.r.r.<.I l 9 3 5 P u.P.Q.W.T.I.L.D.k.p.e.$.M s w k W 0.u.u.u.u.3.r.r.r.r.r.r.r.r.3.3.3.3.u.u.u.r.",
"r.u.r.>.3.r.r.r.3.3.3.3.3.3.r.r.r.r.&.f $ # 5 U 4.P.^.).Q.S.6.X.o.o.i.b.m.q.b * % k ,.r.u.3.3.3.3.r.r.r.r.r.r.r.u.3.r.r.r.r.r.r.",
"r.r.r.^ 3.r.r.r.3.3.2.2.3.3.3.r.1.<.K q @ 7 S } x.U.^.).Y.z.{ / ( | 8.b.Z.c.#.8 * w E ;.1.1.1.1.3.u.u.u.u.u.u.u.u.u.3.3.3.3.3.3.",
"r.3.e.^ 3.r.r.r.r.3.3.3.3.3.u.3.n n l r i G ) s.b.L.T.Y.S.5.{ / { } +.f.b.h.e.Q b g c n E ,.u.u.r.u.3.u.3.u.u.3.u.3.3.3.3.3.3.u.",
"u.u.u.2.3.r.r.r.u.3.u.r.3.3.3.3.$ = 9 C Y [ p.N.B.M.z.l.5.X.| | } | o.o.O.i.g.c.q.N < = j &.u.u.r.3.3.u.3.3.2.3.3.u.3.u.r.r.u.3.",
"u.u.r.^ 3.r.r.3.3.u.u.u.2.2.2.3.X o 1 S ` d.b.C.C.g...{ { | | | | | | } | O.b.Z.M.#.< o 8 I 3.r.3.u.3.u.3.3.3.3.3.3.r.3.r.r.4.u.",
"e.3.3.:.3.r.r.r.u.3.r.r.r.r.r.r.X O 6 F | d.N.F.C.h...{ { | | X. .| } ` } +.b.G.V.$.< o 6 I 3.r.u.e.3.u.r.u.u.u.u.u.3.>.1.1.r.r.",
"e.u.3.2.3.r.r.u.u.u.u.u.r.r.r.r.X O 1 D ` d.b.C.C.h.o.{ { |  .|  . .| | } O.b.F.n.#.< o 7 I 3.3.u.3.u.3.r.r.u.r.r.r.r.r.r.r.r.r.",
"3.2.3.:.2.2.2.3.3.3.3.3.3.2.3.2.X O : A _ 8.b.C.C.h.o.| | | | | |  .| } | 7.b.Z.n.#., + 7 I 2.3.2.2.3.2.2.2.2.0.1.1.2.r.1.e.1.2.",
"2.2.2.^ 2.2.2.:.2.2.2.2.2.>.>.>.X O : A _ 8.j.C.C.h.O.| } | | X. .| | } | O.k.Z.n.@., O 9 I :.2.2.2.2.2.>.2.2.1.:.:.>.>.>.>.>.>.",
"r.1.r.r.r.2.r.r.3.3.3.3.3.r.3.e.X O 1 A _ 8.b.C.C.h.o.| | | |  .|  .| } | O.b.C.n.Q > O 9 E 3.3.3.3.3.3.r.r.r.r.e.:.r.r.e.3.3.r.",
"r.r.r.r.r.r.r.r.u.r.3.3.3.3.r.u.X o 1 A _ 8.b.C.C.v.o.| } | X.|  .|  .} | 7.b.Z.n.#., O 9 E 3.3.3.u.r.u.r.u.r.r.r.:.r.r.r.r.r.r.",
"r.r.r.r.r.r.r.2.3.3.3.3.2.3.r.r.X O 1 D ` 8.b.C.C.h.O.| } | |  . . .| } } +.b.Z.V.#., o 6 I 1.1.r.r.u.u.u.u.u.r.1.:.r.r.r.r.r.3.",
"r.u.u.u.u.r.1.1.3.3.r.r.3.r.r.r.X o 1 F | d.N.Z.Z.h.o.} } |  .|  . .| { } +.N.G.V.$.< X 6 L 1.1.3.r.r.r.r.r.r.r.2.:.r.r.r.r.r.r.",
"r.r.r.u.r.r.r.r.r.u.u.u.u.u.u.r.X O 1 D ] d.b.Z.C.h.O.} ` | | |  . .| } | +.b.F.V.#., o 9 E r.r.3.u.3.3.r.r.r.r.3.:.r.3.r.u.u.u.",
"r.r.r.r.r.4.r.r.u.u.u.u.r.u.r.r.* = 9 C Y [ a.N.B.h.i.O.X. .| | | |  .+.O.i.g.c.q.N < - j @.r.r.u.3.u.3.r.u.u.r.3.:.r.e.r.r.u.r.",
"u.u.r.r.u.u.3.u.3.u.3.3.r.3.r.r.v v l r i D ) p.k.k.b.h.i.X.} } { } +.f.b.g.e.Q b x c m E <.r.r.e.u.3.u.u.u.u.u.3.>.r.r.r.r.r.r.",
"r.r.r.r.u.u.u.u.u.u.3.e.r.3.r.r.2.,.K 8 @ 9 D ' d.k.B.B.h.7.} } } } +.N.Z.c.#.8 * w R <.r.r.r.r.u.3.e.3.4.r.r.r.3.:.r.r.r.r.r.r.",
"r.r.r.r.r.r.r.u.r.r.r.r.r.r.r.r.3.r.*.t $ $ u Y ] a.B.C.b.s.o...o.o.s.b.m.q.b & % k ;.r.r.r.r.r.r.r.r.3.r.r.r.3.2.:.r.r.r.r.r.r.",
"3.0.3.2.3.3.3.3.3.3.r.1.1.r.3.2.3.3.:.J j 9 e u D ) a.b.b.k.x.j.j.j.a.r.$.M g w l W 1.3.3.3.3.1.3.3.3.2.3.3.3.3.2.>.3.3.3.1.2.3.",
"2.2.>.>.>.>.>.>.>.>.>.2.1.>.:.2.2.>.:.^ ! m 9 # 7 Z ' d.k.B.F.F.Z.Z.y.R 0 - d J ! :.>.>.>.>.>.>.2.>.2.2.2.2.2.2.:.^ 2.>.>.>.>.>.",
"3.3.2.>.2.3.r.r.r.u.r.r.r.r.r.0.3.3.3.3.1.*.l @ + y Y | s.v.M.F.G.V.0.g + % z >.:.1.3.3.3.3.3.3.3.2.3.2.2.2.3.3.r.3.r.e.e.1.r.r.",
"r.r.r.>.r.r.r.r.u.u.u.u.u.r.r.r.r.r.r.r.u.1.L i 8 r p F W ~ -.<.0.-.R g 8 l W r.>.1.3.3.3.r.u.r.r.r.u.u.u.u.u.u.r.r.r.r.r.r.r.r.",
"r.r.r.>.r.r.r.r.3.3.3.3.r.r.r.r.r.r.r.r.3.r.<.&.K l 7 1 2 0 0 w a 0 f b L *.<.r.^ >.3.2.3.r.3.u.r.r.u.u.u.u.u.3.r.r.3.3.3.3.r.r.",
"r.r.r.^ 3.r.r.2.2.1.1.3.r.r.r.r.r.r.r.r.r.r.u.u.<.n = o O O O O O O > m 1.r.r.r.>.3.r.r.u.u.u.u.r.r.r.r.3.3.u.3.r.3.1.2.1.>.r.r.",
"r.u.r.:.3.r.r.3.3.3.3.r.r.r.r.r.r.r.r.1.1.1.r.u.0.n * o X . . . . . ; H r.r.3.u.^ e.r.r.r.r.r.3.3.r.r.r.3.2.2.2.3.r.3.3.3.3.r.r.",
"r.u.r.^ r.r.r.r.r.r.3.3.3.3.3.3.r.r.3.2.2.2.3.3.3.u.3.3.3.3.3.3.r.r.r.r.r.3.r.u.:.3.r.r.r.r.3.>.r.r.r.r.3.3.3.3.3.3.r.r.r.u.u.3.",
"r.r.r.2.3.r.r.r.r.r.3.2.2.2.3.u.r.r.r.r.r.3.3.3.u.3.u.u.u.u.u.u.3.r.r.r.3.3.u.u.:.3.r.r.r.r.r.e.r.u.u.u.u.u.u.u.u.3.r.u.r.u.u.r.",
"u.u.u.^ r.r.r.r.r.r.r.3.3.3.3.u.r.r.r.3.3.2.3.3.u.u.3.u.r.r.r.r.r.r.r.r.u.3.r.r.:.3.r.r.3.>.2.r.r.r.u.r.3.3.1.3.3.3.u.3.r.u.r.r.",
"u.u.r.2.3.r.r.3.r.r.r.r.3.3.3.3.r.r.r.r.3.3.3.3.3.3.u.3.r.r.r.3.r.r.r.r.3.u.r.r.:.3.r.r.3.3.r.r.r.r.r.r.3.3.3.3.3.u.u.3.r.r.r.r.",
"e.2.3.>.2.3.3.3.3.3.3.3.3.>.>.2.3.3.3.3.3.3.3.3.3.3.3.3.3.3.2.3.r.3.3.r.3.3.r.r.>.2.3.r.3.3.4.r.r.r.2.r.3.3.3.3.e.3.3.2.3.3.3.3.",
"2.2.>.:.>.>.>.>.>.:.2.2.2.2.>.>.>.>.>.>.>.>.>.:.2.2.2.2.2.2.2.2.>.>.:.>.>.:.>.:.:.:.>.>.2.2.>.^ >.>.>.>.:.>.>.>.2.^ 2.2.2.2.:.2.",
"2.2.3.2.2.>.>.1.2.2.3.3.3.3.2.3.3.3.3.3.>.>.1.1.^ 2.3.3.2.3.3.3.3.3.>.>.>.1.>.3.3.3.3.3.3.3.3.3.3.3.3.3.2.>.>.1.2.:.3.3.3.3.2.3.",
"r.r.r.u.r.r.2.3.2.3.u.u.u.3.u.3.r.r.u.3.3.3.3.3.2.u.u.e.3.r.3.u.r.r.3.3.2.3.3.r.r.r.r.r.u.3.u.u.r.r.r.r.r.r.3.3.3.2.r.3.3.3.r.r.",
"r.r.u.u.u.u.r.r.3.3.u.u.u.u.u.u.r.r.u.u.u.u.u.3.2.u.u.u.u.u.e.3.r.r.r.r.r.r.r.u.u.u.u.u.u.u.u.3.r.r.r.r.r.u.u.u.2.2.3.3.3.2.3.3.",
"r.r.u.3.r.r.r.r.r.r.r.3.u.r.r.r.r.r.r.r.r.r.r.3.2.3.u.u.u.3.u.u.u.u.u.u.r.r.r.r.3.3.3.u.u.3.u.3.r.3.1.1.r.r.r.r.3.:.3.3.u.u.u.u.",
"r.3.2.3.3.3.r.r.u.u.u.r.r.r.3.r.r.3.r.r.r.r.3.2.2.3.u.3.3.u.3.u.r.r.u.r.r.r.r.r.3.3.3.3.3.3.u.u.r.3.3.3.3.r.r.r.2.^ 3.3.3.u.u.u.",
"u.r.3.2.2.1.r.r.u.u.u.u.r.r.r.r.r.r.r.u.r.r.2.>.) 3.3.e.u.3.r.r.r.r.3.r.r.r.r.r.3.2.2.3.3.u.3.3.r.r.r.r.r.r.r.u.3.:.3.2.3.3.r.3.",
"r.3.r.r.r.r.r.2.1.1.3.u.r.3.3.3.r.3.r.u.u.r.3.3.:.2.3.u.u.r.r.r.r.r.r.u.r.u.u.u.u.r.r.3.3.2.2.3.r.r.r.r.u.u.u.u.r.^ r.r.u.3.u.u.",
"r.r.r.r.r.r.r.r.r.r.4.3.3.3.3.3.r.r.r.r.u.r.r.3.>.3.u.u.r.u.r.r.r.r.r.3.r.r.r.r.u.r.3.3.3.3.3.r.r.r.r.r.r.u.u.r.r.>.r.u.u.u.u.3.",
"r.r.r.r.r.r.r.u.r.r.3.3.3.3.3.3.r.r.r.r.r.r.r.3.2.r.3.3.3.r.3.3.3.r.3.2.3.3.3.3.r.r.3.3.3.3.r.r.r.u.r.u.r.r.r.r.r.>.4.r.u.u.u.3.",
"r.r.r.r.r.r.u.u.u.r.u.3.3.3.u.3.r.r.r.r.r.r.r.3.2.r.r.r.r.3.2.3.3.r.1.1.1.1.1.1.3.r.3.3.u.3.r.3.u.u.u.u.u.r.r.r.e.>.u.3.u.3.e.u."
};
