/* XPM */
static char *result[] = {
/* columns rows colors chars-per-pixel */
"26 53 9 1 ",
"  c #4E2D17",
". c #663F1B",
"X c #753D1E",
"o c #724418",
"O c #A2661F",
"+ c #915027",
"@ c #B36933",
"# c #C88629",
"$ c None",
/* pixels */
"$$$$$$$$$$$$$$$$$$$$$$$$$$",
"$$$$$$$$$$$$$$$$$$$$$$$$$$",
"$$      $$$$$$$$$$$$$$$$$$",
"$$ @@@@@     $$$$$$$$$$$$$",
"$$ +++++@@@@@      $$$$$$$",
"$$ ++++++++++@@@@@@     $$",
"$$ ++++++++++++++++@@@@ $$",
"$$ ++++++++++++++++++++ $$",
"$$ ++++++++++++++++++++ $$",
"$$ ++++++++++++++++++++ $$",
"$$ ++++++++++++++++++++ $$",
"$$ ++++++++++++++++++++ $$",
"$$ ++++++++++++++++++++ $$",
"$$ ++++++++++++++++++++ $$",
"$$ ++++++++++++++++++++ $$",
"$$ ++++++++++++++++++++ $$",
"$$ ++++++++++++++++++++ $$",
"$$ ++++++++++++++++++++ $$",
"$$ ++++++++++++++++++++ $$",
"$$ ++++++++++++++++++++ $$",
"$$ ++++++++++++++++++++ $$",
"$$ ++++++++++++++++++++ $$",
"$$ ++++++++++++++++++++ $$",
"$$ ++++++++++++++++++++ $$",
"$$ ++++++++++++++++++++ $$",
"$$ ++++++++++++++++++++ $$",
"$$ ++++++++++++++++++++ $$",
"$$ ++++++++++++++++..++ $$",
"$$ +++++++++++++...##.+ $$",
"$$ ++++++++++++.O#.oO.+ $$",
"$$ +++++++++++++..#Oo.+ $$",
"$$ ++++++++++++++X..O.+ $$",
"$$ +++++++++++++++.Oo.+ $$",
"$$ ++++++++++++++++..++ $$",
"$$ ++++++++++++++++++++ $$",
"$$ ++++++++++++++++++++ $$",
"$$ ++++++++++++++++++++ $$",
"$$ ++++++++++++++++++++ $$",
"$$ ++++++++++++++++++++ $$",
"$$ ++++++++++++++++++++ $$",
"$$ ++++++++++++++++++++ $$",
"$$ ++++++++++++++++++++ $$",
"$$ ++++++++++++++++++++ $$",
"$$ ++++++++++++++++++++ $$",
"$$ ++++++++++++++++++++ $$",
"$$ ++++++++++++++++++++ $$",
"$$ XXXXX+++++++++++++++ $$",
"$$      XXXXX++++++++++ $$",
"$$$$$$$$     XXXXXX++++ $$",
"$$$$$$$$$$$$$      XXXX $$",
"$$$$$$$$$$$$$$$$$$$     $$",
"$$$$$$$$$$$$$$$$$$$$$$$$$$",
"$$$$$$$$$$$$$$$$$$$$$$$$$$"
};
