/* XPM */
static char *result[] = {
/* columns rows colors chars-per-pixel */
"30 49 9 1 ",
"  c #4E2D17",
". c #663F1B",
"X c #753D1E",
"o c #724418",
"O c #834E18",
"+ c #A2661F",
"@ c #915027",
"# c #C88629",
"$ c None",
/* pixels */
"$$$$$$$$$$$$$$$$$$$$$$$$$$$$$$",
"$$                          $$",
"$$ @@@@@@@@@@@@@@@@@@@@@@@@ $$",
"$$ @@@@@@@@@@@@@@@@@@@@@@@@ $$",
"$$ @@@@@@@@@@@@@@@@@@@@@@@@ $$",
"$$ @@@@@@@@@@@@@@@@@@@@@@@@ $$",
"$$ @@@@@@@@@@@@@@@@@@@@@@@@ $$",
"$$ @@@@@@@@@@@@@@@@@@@@@@@@ $$",
"$$ @@@@@@@@@@@@@@@@@@@@@@@@ $$",
"$$ @@@@@@@@@@@@@@@@@@@@@@@@ $$",
"$$ @@@@@@@@@@@@@@@@@@@@@@@@ $$",
"$$ @@@@@@@@@@@@@@@@@@@@@@@@ $$",
"$$ @@@@@@@@@@@@@@@@@@@@@@@@ $$",
"$$ @@@@@@@@@@@@@@@@@@@@@@@@ $$",
"$$ @@@@@@@@@@@@@@@@@@@@@@@@ $$",
"$$ @@@@@@@@@@@@@@@@@@@@@@@@ $$",
"$$ @@@@@@@@@@@@@@@@@@@@@@@@ $$",
"$$ @@@@@@@@@@@@@@@@@@@@@@@@ $$",
"$$ @@@@@@@@@@@@@@@@@@@@@@@@ $$",
"$$ @@@@@@@@@@@@@@@@@@@@@@@@ $$",
"$$ @@@@@@@@@@@@@@@@@@@@@@@@ $$",
"$$ @@@@@@@@@@@@@@@@@@@@@@@@ $$",
"$$ @@@@@@@@@@@@@@@@@@@@..@@ $$",
"$$ @@@@@@@@@@@@@@@@@@@.##.@ $$",
"$$ @@@@@@@@@@@@@@@@@@..oo.@ $$",
"$$ @@@@@@@@@@@@@@@@@.+##+.@ $$",
"$$ @@@@@@@@@@@@@@@@@@..oo.@ $$",
"$$ @@@@@@@@@@@@@@@@@@X.O+.@ $$",
"$$ @@@@@@@@@@@@@@@@@@@@..@@ $$",
"$$ @@@@@@@@@@@@@@@@@@@@@@@@ $$",
"$$ @@@@@@@@@@@@@@@@@@@@@@@@ $$",
"$$ @@@@@@@@@@@@@@@@@@@@@@@@ $$",
"$$ @@@@@@@@@@@@@@@@@@@@@@@@ $$",
"$$ @@@@@@@@@@@@@@@@@@@@@@@@ $$",
"$$ @@@@@@@@@@@@@@@@@@@@@@@@ $$",
"$$ @@@@@@@@@@@@@@@@@@@@@@@@ $$",
"$$ @@@@@@@@@@@@@@@@@@@@@@@@ $$",
"$$ @@@@@@@@@@@@@@@@@@@@@@@@ $$",
"$$ @@@@@@@@@@@@@@@@@@@@@@@@ $$",
"$$ @@@@@@@@@@@@@@@@@@@@@@@@ $$",
"$$ @@@@@@@@@@@@@@@@@@@@@@@@ $$",
"$$ @@@@@@@@@@@@@@@@@@@@@@@@ $$",
"$$ @@@@@@@@@@@@@@@@@@@@@@@@ $$",
"$$ @@@@@@@@@@@@@@@@@@@@@@@@ $$",
"$$ @@@@@@@@@@@@@@@@@@@@@@@@ $$",
"$$ XXXXXXXXXXXXXXXXXXXXXXXX $$",
"$$                          $$",
"$$$$$$$$$$$$$$$$$$$$$$$$$$$$$$",
"$$$$$$$$$$$$$$$$$$$$$$$$$$$$$$"
};
