/* XPM */
static char *result[] = {
/* columns rows colors chars-per-pixel */
"64 64 199 2 ",
"   c #02090C",
".  c #020E12",
"X  c #051112",
"o  c #0D1415",
"O  c #111514",
"+  c #121817",
"@  c #1B1A16",
"#  c #1F1C1A",
"$  c #231E1B",
"%  c #1F211A",
"&  c #27211A",
"*  c #29211C",
"=  c #34261F",
"-  c #39251A",
";  c #312A1F",
":  c #3A2A1E",
">  c #1B1B20",
",  c #372721",
"<  c #332B21",
"1  c #392921",
"2  c #36272C",
"3  c #3A3328",
"4  c #2D2531",
"5  c #3D3E32",
"6  c #462E1F",
"7  c #54311F",
"8  c #422B24",
"9  c #462D26",
"0  c #453424",
"q  c #493425",
"w  c #4E3128",
"e  c #463929",
"r  c #553422",
"t  c #5A3722",
"y  c #513B27",
"u  c #523329",
"i  c #543C29",
"p  c #5D3A2C",
"a  c #53353C",
"s  c #623A2D",
"d  c #6A3D28",
"f  c #753E24",
"g  c #673C34",
"h  c #57412C",
"j  c #5F412A",
"k  c #534334",
"l  c #5E533F",
"z  c #64442C",
"x  c #6C4229",
"c  c #66492E",
"v  c #6A4A2E",
"b  c #724228",
"n  c #7C4228",
"m  c #6A4C31",
"M  c #694834",
"N  c #754234",
"B  c #794434",
"V  c #734C31",
"C  c #68553E",
"Z  c #755134",
"A  c #7D5434",
"S  c #785538",
"D  c #463241",
"F  c #57394D",
"G  c #5D3C4E",
"H  c #663D47",
"J  c #623F4D",
"K  c #5F4050",
"L  c #6C4147",
"P  c #64404D",
"I  c #6C424A",
"U  c #754546",
"Y  c #7A4542",
"T  c #7F4944",
"R  c #724449",
"E  c #77494B",
"W  c #7B5A5D",
"Q  c #736249",
"!  c #776C53",
"~  c #7C755B",
"^  c #824628",
"/  c #8A492A",
"(  c #944C29",
")  c #984D2A",
"_  c #97502D",
"`  c #824837",
"'  c #864B38",
"]  c #8C4D3A",
"[  c #914F3E",
"{  c #815635",
"}  c #885A37",
"|  c #835B3B",
" . c #8B5D3A",
".. c #94513E",
"X. c #9A533E",
"o. c #9A583B",
"O. c #A8542C",
"+. c #B2582E",
"@. c #A2563E",
"#. c #AA553A",
"$. c #A35C3F",
"%. c #AC5A3C",
"&. c #B55A31",
"*. c #BB5C30",
"=. c #B45D3C",
"-. c #B95E3B",
";. c #94633D",
":. c #9A643C",
">. c #9D693F",
",. c #A1693C",
"<. c #B2643A",
"1. c #BB603D",
"2. c #C65F35",
"3. c #C56134",
"4. c #CD6334",
"5. c #C5623A",
"6. c #CC643A",
"7. c #D56635",
"8. c #D86635",
"9. c #DC6936",
"0. c #D26739",
"q. c #D3693B",
"w. c #DA6B39",
"e. c #E4652E",
"r. c #E56933",
"t. c #E46C36",
"y. c #E96E36",
"u. c #EB7037",
"i. c #E4723C",
"p. c #ED7138",
"a. c #844B43",
"s. c #8C4E41",
"d. c #945342",
"f. c #9C5442",
"g. c #9D5940",
"h. c #885751",
"j. c #A65641",
"k. c #A45C40",
"l. c #B65E42",
"z. c #9F6B42",
"x. c #93604B",
"c. c #9B624A",
"v. c #8A6D52",
"b. c #85605C",
"n. c #986455",
"m. c #A46545",
"M. c #AC6741",
"N. c #A46D44",
"B. c #AC6A43",
"V. c #B46A4A",
"C. c #A67147",
"Z. c #AD7245",
"A. c #AF7549",
"S. c #B67443",
"D. c #B97642",
"F. c #BD7A45",
"G. c #B4754B",
"H. c #B97549",
"J. c #BE7B49",
"K. c #A76B52",
"L. c #AB745C",
"P. c #BA7A59",
"I. c #C07C47",
"U. c #C27E4B",
"Y. c #CC7A4B",
"T. c #D67C4D",
"R. c #D17B50",
"E. c #E57741",
"W. c #E67A44",
"Q. c #E87A42",
"!. c #B3815A",
"~. c #9B8260",
"^. c #A78A77",
"/. c #B19574",
"(. c #C5814D",
"). c #C68351",
"_. c #E9844D",
"`. c #EC925B",
"'. c #CC926B",
"]. c #DC996B",
"[. c #C59772",
"{. c #D29F76",
"}. c #ED9761",
"|. c #E69865",
" X c #ED9963",
".X c #E49E6C",
"XX c #F09A63",
"oX c #EFAC75",
"OX c #E3AF7E",
"+X c #BDAA81",
"@X c #CDB18C",
"#X c #D7B58A",
"$X c #EEB681",
"%X c #EAB986",
"&X c #E3B889",
"*X c #F2B681",
"=X c #F5B983",
"-X c #EAC492",
";X c #EBC592",
/* pixels */
"(.(.(.F.(.(.(.(.(.(.(.(.(.(.(.(.(.(.(.(.(.(.(.(.(.(.(.(.(.(.(.(.(.(.(.(.(.(.(.(.(.(.(.(.(.(.).(.(.(.(.F.F.I.q.I.).).).).).(.(.(.",
").(.(.F.U.(.(.(.(.(.(.).).).(.(.(.(.).(.).).(.(.(.(.(.(.(.(.(.(.(.(.(.(.(.(.(.(.<.(.(.(.(.(.(.(.(.(.!.(.!.(.!.I.(.).(.(.).(.(.(.",
").).(.F.(.(.(.(.(.(.).).).(.(.(.U.).).).).(.(.(.).(.(.(.(.).(.(.(.(.(.(.(.(.(.).I.I.(.(.(.(.(.(.(.(.(.(.(.).(.(.).(.).(.(.(.(.(.",
"(.(.(.F.U.(.(.U.(.(.(.(.(.(.(.(.(.(.).U.(.(.(.).).).).).).).(.(.(.(.(.(.(.).).).I.(.(.(.(.(.(.(.(.(.(.(.).).).).).).).(.(.(.(.(.",
"(.I.J.F.U.(.(.U.I.I.(.(.).).).(.(.(.U.I.I.I.(.(.).(.(.(.(.).(.(.(.(.(.(.(.(.(.).(.(.).).).).(.(.(.(.(.(.(.(.I.(.(.(.(.I.I.(.(.(.",
").U.U.F.(.(.(.U.U.U.U.).).).).(.(.(.(.U.U.!.(.(.(.(.Y.U.U.(.U.(.(.(.(.).).(.).(.<.(.).).).).).(.(.(.(.(.(.(.(.I.I.I.I.(.(.).(.(.",
").).).F.U.(.(.(.U.).Y.(.U.U.(.(.(.(.).).).).(.(.(.U.(.I.J.F.U.(.(.(.(.).).).).).F.(.(.(.(.(.(.(.(.(.(.(.I.(.(.(.(.(.(.).).).(.(.",
"(.(.(.F.U.(.).).).).I.I.I.I.(.(.(.(.(.U.I.I.J.J.I.U.U.(.(.(.U.(.(.(.(.(.(.(.(.(.F.(.(.(.(.(.(.(.(.(.I.I.I.(.q.!.(.(.(.(.(.(.(.(.",
"I.F.F.D.F.J.J.U.I.J.F.F.F.F.F.F.J.F.F.S.} e + X . . .   . . . .   X . .   X . . o ; v >.F.J.J.F.I.F.F.F.F.F.F.I.<.I.I.I.I.I.F.I.",
"F.F.J.D.J.J.J.U.U.J.J.J.J.J.U.F.J.J.F.,.} y & o O O O O O O O O O O O O O O o O @ < v :.D.F.D.F.F.F.I.I.F.I.F.I.F.F.I.I.I.F.I.F.",
"(.(.(.(.(.).).).).).).).).).).(.J.F.B.;.A j 6 - - - - - - - - - - - - - - - - - : r v } >.B.S.U.I.(.(.(.I.(.(.(.(.I.(.(.(.(.I.(.",
"(.I.U.U.(.(.(.(.(.(.).(.).(.(.(.S.>.{ v z b f f f f f f f f f f f f f f f f n b f b x v Z ;.C.J.(.(.(.(.(.(.(.(.!.<.(.(.).).(.(.",
"(.I.U.U.(.(.(.).).(.(.(.(.(.(.J.C.{ i 0 t ^ O.+.&.+.+.+.+.+.+.+.+.+.+.+.+.+.+.*.+.( d 7 0 c ;.G.(.(.).).(.(.(.(.I.D.(.(.).(.).).",
"(.(.(.U.U.U.U.).).).(.U.(.U.J.G.z.m e 3 s _ 2.9.y.r.9.9.9.9.9.9.9.r.9.9.9.9.r.r.7.+.f 6 : y { ,.I.).).).).(.(.(.(.F.(.(.(.(.(.(.",
"(.(.(.J.I.J.J.(.(.(.U.F.J.J. . .| C l C | <.8.p.p.p.t.p.y.p.p.p.y.u.u.u.u.u.p.p.t.3.( d t j V } >.Z.!.(.(.(.(.(.I.I.(.(.(.(.(.(.",
"(.(.).(.(.U.U.(.(.(.(.U.U.(.y h l Q v.~.!.Y.i.p.p.p.y.p.p.y.y.p.u.u.u.u.u.u.p.p.t.7.*.O./ b z j m >.<.(.).).).(.I.D.(.(.).).(.(.",
"(.).).).).(.(.U.(.I.(.).(.(.@ ; k ! /.@XOX`.E.9.r.t.t.t.t.t.t.t.t.t.t.y.t.t.t.t.y.9.e.4.*./ 7 - e S ,.!.(.).).).!.6.(.(.(.(.(.(.",
"(.(.(.(.(.(.(.U.(.(.I.<.(.(.  + 5 ~ +X;X%X XQ.9.r.t.t.t.r.E.r.E.t.i.t.t.t.t.t.t.t.y.u.u.4.) 7 & < c ,.).(.(.(.(.!.I.(.(.(.(.(.(.",
"(.(.(.(.(.).).).(.(.).(.(.(.  + 5 ~ {.;X=X XQ.i.r.t.t.t.t.t.t.t.t.y.t.t.t.t.t.t.t.u.p.p.7.) 7 & ; c ,.).(.(.(.(.I.I.(.(.(.(.(.(.",
"I.I.I.F.I.U.U.U.I.I.!.I.(.I.  + 5 ~ /.;X=X XQ.t.r.t.t.t.t.t.t.t.t.t.t.t.i.t.t.t.t.u.u.u.4.( 7 $ ; c ,.!.I.I.I.I.I.D.I.I.(.I.I.I.",
"!.F.(.<.F.F.F.F.<.I.I.I.F.F.  + 5 ~ {.;X*X XQ.t.r.t.t.t.t.t.t.t.t.t.i.t.t.t.t.i.t.u.u.t.4.( 7 & ; c :.<.I.I.F.F.D.D.F.F.I.F.F.F.",
"I.(.(.F.(.(.U.(.(.(.(.(.(.(.  + 5 ~ +X;X=XXXE.t.e.r.t.r.t.r.t.t.t.t.t.t.t.t.t.t.t.u.u.u.4.( 7 $ ; v >.(.(.(.F.I.I.F.F.I.(.(.I.(.",
"(.(.(.F.(.(.(.(.(.(.(.(.(.(.  + 5 ~ +X;X*X XQ.e.e.r.r.r.r.r.r.t.t.t.y.t.t.t.t.t.t.u.u.u.4.) 7 $ : m ,.(.(.(.(.(.I.(.(.(.).).(.(.",
"(.(.(.D.U.(.(.(.I.(.(.I.(.(.  + 5 ~ /.;X*X`.Q.t.r.r.t.t.t.t.t.t.t.t.t.t.t.i.t.9.t.u.u.t.4.) 7 $ ; m z.!.(.(.(.(.(.(.(.(.).(.(.(.",
"(.(.(.<.(.(.(.(.I.I.I.I.I.!.  O 5 ! /.#X*X}.W.W.W.E.W.W.W.W.W.E.i.t.y.t.t.t.t.t.t.t.i.9.3./ 7 $ < m ,.!.).).).).).).I.I.I.I.(.(.",
"(.(.(.F.I.(.(.(.(.(.(.(.(.(.  @ 5 l ~.[.{..X.X}.}.}.|. X X X}._.Q.i.r.y.y.y.y.y.t.t.w.6.&.^ 6 $ 3 m ,.(.(.(.(.(.(.(.(.(.(.(.(.(.",
").).(.<.I.(.(.(.(.(.(.(.(.I.  O < k v.!.'.{.$X$X=X%X*X$X%X=XoX}._.i.y.r.y.u.y.y.t.w.6.-.X.d 8 $ ; m ,.(.(.!.(.I.(.(.(.(.(.(.(.(.",
").).(.I.(.(.(.(.(.(.(.(.I.I.X O * q Z z.P.{.&X%X;X-X%X-X-X&X%X.X_.i.r.9.r.9.t.t.9.0.5.%.] s 1 $ < m ,.I.(.I.(.I.!.(.(.I.(.I.(.(.",
"(.(.I.D.(.(.(.(.(.(.(.(.(.(.X O & 8 g s.L.'.$X&X%X&X#X#X@X@X@X[.R.q.6.2.5.5.6.0.6.5.-.@.' p - % < m ,.!.(.).).).).(.(.I.q.I.(.(.",
"(.(.(.F.I.(.(.(.).).).).(.(.X O > 2 a E n.P.]..X{.{.[./.^.^.L.L.V.l.=.#.f.f.j.l.-.=.%.X.' s ; % < m ,.(.(.(.).).(.(.(.(.!.I.(.(.",
"I.I.I.D.I.I.I.!.(.(.(.(.!.I.X O > 4 D I h.V.T.T.R.H.K.n.b.W W h.f.j.f.a.E E a.d.@.#.@.X.' s : % < v ,.!.I.I.I.I.!.F.I.I.I.I.I.(.",
"I.I.I.D.I.I.F.F.I.I.<.(.I.I.X O > 4 D H d.l.E.0.6.l.d.a.J J J E a.s.a.R J J I a...X.X...' s : % < c ,.<.F.I.I.I.I.<.I.F.I.F.I.I.",
"(.U.(.(.(.(.Y.U.I.(.I.(.(.(.X o > 2 F R d.-.7.8.2.+.[ Y H F G L a.s.a.H G F P T [ X.X.X.` s , # , M >.J.(.(.(.(.I.F.(.(.(.(.(.I.",
"(.(.(.(.(.(.(.).(.(.U.I.J.(.X o $ 2 g a.j.5.7.8.2.#.[ Y H F F L a.s.a.R J G J a.d.X.X.X.' s , $ < M z.(.).).(.(.(.<.(.(.(.(.(.(.",
"(.(.).(.(.(.U.U.(.(.J.J.J.(.X O * w g f.l.5.w.8.5.%...T L G G I a.d.a.U G G I a.[ X.X.d.' s 1 # < m z.).).).(.(.(.<.).(.(.(.(.(.",
"(.).).).).U.I.I.I.U.(.(.(.(.X + $ w f X.=.0.w.w.2.%...a.H G J I a.s.a.H G G I a.[ X.X.X.' s 1 $ < m ,.!.(.(.(.(.(.F.(.(.(.(.(.(.",
"(.(.(.).(.(.U.U.(.).).).).).X o * u B X.-.6.9.w.5.%.d.T I G G I a.s.a.R G G I a.[ X.@.X.' s = # < m ,.!.(.(.(.(.I.D.(.(.(.(.).).",
"(.(.(.(.(.(.(.(.(.).).).(.(.X o * w N X.-.0.9.w.5.&...T P G G I a.s.a.R J G I a.[ X.X.X.' s , $ < m ,.I.(.(.).(.I.F.(.(.(.(.(.).",
").).(.(.(.).(.(.(.(.(.(.(.(.X O $ w N X.=.5.0.0.5.%...a.I J J R s.s.a.R G G I a.[ X.X.X.' s , $ < m ,.(.(.(.).).I.I.(.(.(.(.(.(.",
"(.(.(.(.).).).).).(.(.U.(.(.X O $ u N [ =.1.5.5.=.#...a.Y I I T s.d.a.R G G I T d.X.X.X.' s = # < m C.!.(.(.(.(.I.D.(.(.(.(.(.(.",
"(.(.(.(.(.(.(.(.(.(.(.(.(.(.X o * r B X.@.%.=.%.%.X.X.[ ' a.a.] s.[ a.R G G I a.s.X.X.X.' s 1 $ < m ,.!.(.(.(.(.I.I.(.(.(.(.(.(.",
"I.!.I.I.(.(.(.(.J.(.(.J.J.(.X O $ u B [ @.@.@.@.X.X.[ [ s.s.[ [ X.s.a.R G G I a.d.X.X.X.' s , $ < v ,.(.!.I.(.I.I.F.I.I.(.I.I.(.",
"q.F.F.F.F.F.<.I.F.F.F.F.F.F.X O $ u f s.X.f.[ X.X...X...X...X.X.X...a.I G G I a.d.X.X.X.' s , # < c ,.<.F.F.F.F.D.D.I.I.F.F.F.F.",
"!.(.I.F.I.(.(.).(.).(.(.(.(.X o = u B d.X.X.[ [ ......X.X.X.X.X.X...a.I G G I T [ X.X.X.' s , # < m ,.I.I.I.(.(.I.I.I.(.I.(.I.(.",
"(.(.I.F.(.(.(.(.).).(.).).(.X O * u N [ X.X.[ [ ......X...X.X.X.X.[ a.I G G I a.[ X.@.X.' s , $ < m ,.(.(.).(.(.(.(.(.(.(.(.(.(.",
"(.(.(.I.(.(.(.(.U.U.(.(.(.(.X O * r N ..f.X.X.X.o.X.............X.[ a.R G G I a.d.X.X.[ ' s , # < m Z.!.).(.).(.(.(.(.(.(.!.(.(.",
"(.(.(.F.!.(.(.I.J.J.J.(.(.Y.. O * u B ..f.X.X.[ X.....[ s.s.' s.[ d.a.I G G I T [ X.j.X.' s 1 $ < m ,.!.(.(.(.!.(.(.I.I.I.I.(.(.",
"(.(.(.<.I.(.(.(.U.U.U.(.(.(.X O $ u B X.X.X.X.X.......s.T U U T ] s.a.R G G I a.[ X.@.f.] s 1 $ < m ,.I.(.I.I.q.(.I.I.(.I.I.(.(.",
"(.(.(.I.I.(.(.(.(.(.(.I.(.(.X O * u B ..X.X.X...X.X...' R P P Y s.[ a.R G G I a.[ X.@.X.' s : # < m z.!.(.(.(.(.!.(.(.(.(.(.(.(.",
"(.(.(.F.(.(.(.(.(.(.I.I.I.I.& & < u N ` ] ......X...[ a.L G K R a.[ a.U I P R a.[ [ [ ] B p 1 ; y S Z.(.).(.(.).(.(.(.(.(.(.).(.",
").).(.F.(.(.(.(.(.(.(.(.(.I.h h i p i z N ' ] X.X...d.T L K K I a.[ s.a.U U T s...] B g s i h h m ;.D.I.(.I.I.I.I.(.(.(.(.(.(.(.",
").(.(.D.(.(.(.(.(.(.(.(.I.!. .} A z w 6 u N ] X.X.X...T P K K R a.d.d.s.a.a.s.d.[ ` d 9 8 i m | >.D.I.!.(.(.I.I.I.(.(.(.(.(.(.(.",
"(.(.(.F.I.I.I.I.(.I.I.(.I.F.D.,.:.c 3 & 8 s ' X.@.X.d.a.I P K E a.f.X...f...X.X...B r = ; y | Z.I.!.I.I.(.(.I.!.(.(.(.I.(.(.I.(.",
"F.F.F.D.F.F.F.F.F.F.I.I.q.F.F.!.,.A h 0 i V o.$.$.$.g.d.T E E E d.o.$.k.$.j.$.k.o.' s 0 0 z  .<.F.F.F.F.F.F.F.F.I.<.F.I.I.I.F.q.",
"I.I.(.I.I.F.F.F.F.I.(.I.I.(.I.I.<.>.A V A  .$.B.<.B.B.m.c.x.x.c.m.B.B.B.M.M.B.B.B.:.| Z Z  .,.F.I.I.I.(.I.F.F.I.I.D.(.I.I.(.!.I.",
"(.(.(.(.(.(.!.I.!.(.(.(.).(.).(.!.S.Z.N.N.V.H.H.S.J.J.P.P.A.A.G.H.F.H.H.H.H.H.H.J.G.Z.B.C.A.J.I.(.(.(.(.(.(.I.(.I.I.(.I.(.I.(.(.",
"(.(.).(.).(.(.(.I.(.).).).).).).U.(.(.).!.(.).U.F.).).).).).U.U.U.).(.(.(.U.U.).(.(.).(.).).(.(.(.(.(.I.(.).).(.I.I.(.I.I.I.(.(.",
"(.(.(.(.(.(.(.(.(.(.(.(.(.(.(.(.(.(.(.(.(.(.(.U.F.(.Y.(.(.(.(.(.).).).).(.(.(.(.(.(.(.(.(.(.(.(.(.I.I.I.(.).(.(.I.F.(.(.(.).).).",
"(.(.I.I.(.!.(.(.(.(.(.).(.(.(.(.(.(.(.(.(.(.I.I.F.(.(.(.(.U.(.(.).).).(.(.(.(.(.I.I.(.(.(.(.(.(.(.(.(.!.(.(.(.(.I.<.(.(.(.(.(.).",
"(.(.I.!.F.q.(.(.(.(.(.).(.(.(.(.(.(.(.(.(.(.U.F.S.J.(.(.).(.(.(.U.U.U.(.(.(.(.(.I.!.I.(.(.(.(.(.(.(.(.(.(.(.).(.!.D.I.I.!.(.(.(.",
"(.(.(.(.(.(.(.(.I.I.(.(.(.(.(.(.(.(.(.).).(.(.I.D.J.(.).).(.(.(.).U.R.U.(.).).).).(.(.).(.I.q.(.(.(.(.(.).).).).(.I.(.(.(.(.(.(.",
"(.(.(.(.(.(.(.I.(.(.I.(.(.(.I.I.(.(.(.(.(.(.(.(.F.U.(.(.).(.(.(.U.).).U.(.(.).(.(.(.(.<.I.(.!.(.(.(.(.(.(.(.).).(.I.(.(.(.(.(.(.",
"(.(.(.(.(.(.).).(.(.(.I.q.(.(.(.(.(.(.(.(.(.(.U.F.(.(.(.U.U.U.U.(.U.U.U.U.U.U.U.(.(.(.I.(.(.(.(.).(.(.(.(.(.(.(.I.I.(.(.(.(.(.(.",
"(.(.(.(.(.(.).).).(.(.(.!.I.(.(.(.(.(.(.(.(.(.U.J.(.(.(.).U.I.J.(.(.I.F.I.J.I.I.I.(.(.(.(.(.(.(.(.).).(.).(.(.(.I.I.(.(.(.(.(.(."
};
