/* XPM */
static char *result[] = {
/* columns rows colors chars-per-pixel */
"64 64 221 2 ",
"   c #4E2910",
".  c #512B11",
"X  c #532B11",
"o  c #582E12",
"O  c #5A3012",
"+  c #5A3013",
"@  c #663616",
"#  c #683717",
"$  c #673D12",
"%  c #673814",
"&  c #6F3817",
"*  c #693D16",
"=  c #6C3F17",
"-  c #733917",
";  c #743917",
":  c #6A4013",
">  c #6D4012",
",  c #6C4214",
"<  c #734413",
"1  c #774512",
"2  c #714416",
"3  c #734516",
"4  c #744517",
"5  c #7A4712",
"6  c #7C4710",
"7  c #7B4913",
"8  c #7D4A17",
"9  c #7B4C16",
"0  c #7C4C14",
"q  c #7E4D14",
"w  c #714018",
"e  c #714118",
"r  c #724118",
"t  c #764219",
"y  c #7B401A",
"u  c #7E431B",
"i  c #784418",
"p  c #794418",
"a  c #7F461C",
"s  c #7B4B18",
"d  c #7F491B",
"f  c #734422",
"g  c #744524",
"h  c #754624",
"j  c #754725",
"k  c #764624",
"l  c #754726",
"z  c #754826",
"x  c #80461C",
"c  c #81461C",
"v  c #80471C",
"b  c #83471E",
"n  c #86461E",
"m  c #88461E",
"M  c #814D18",
"N  c #82491C",
"B  c #884B1F",
"V  c #8A4A1F",
"C  c #8B4A1F",
"Z  c #845114",
"A  c #875214",
"S  c #845217",
"D  c #885317",
"F  c #8F5817",
"G  c #8F5B1A",
"H  c #905714",
"J  c #915B18",
"K  c #925D1B",
"L  c #955E18",
"P  c #A5681A",
"I  c #A86C1B",
"U  c #8A4B20",
"Y  c #8B4B20",
"T  c #8C4C20",
"R  c #8D4C20",
"E  c #8D4D20",
"W  c #8D4C21",
"Q  c #8E4D21",
"!  c #8F4D21",
"~  c #8F4E21",
"^  c #904E21",
"/  c #914E21",
"(  c #924F22",
")  c #934F22",
"_  c #8B562E",
"`  c #8C572F",
"'  c #8D572F",
"]  c #8E582F",
"[  c #945022",
"{  c #8D5731",
"}  c #8D5831",
"|  c #8E5931",
" . c #8E5932",
".. c #8F5932",
"X. c #905932",
"o. c #905A32",
"O. c #915A32",
"+. c #915B32",
"@. c #905A33",
"#. c #915A33",
"$. c #915B33",
"%. c #925B32",
"&. c #925B33",
"*. c #925C33",
"=. c #945C33",
"-. c #905A34",
";. c #905B34",
":. c #915C35",
">. c #925C34",
",. c #915C36",
"<. c #945C34",
"1. c #B47721",
"2. c #BA7B21",
"3. c #BB7C21",
"4. c #BD7E22",
"5. c #A5693C",
"6. c #A56A3C",
"7. c #AF7041",
"8. c #B77441",
"9. c #B17345",
"0. c #B87441",
"q. c #B87541",
"w. c #B87542",
"e. c #B97642",
"r. c #B97643",
"t. c #BA7742",
"y. c #BA7743",
"u. c #BB7743",
"i. c #BB7744",
"p. c #BB7843",
"a. c #BB7844",
"s. c #BC7844",
"d. c #BC7944",
"f. c #BD7944",
"g. c #BC7845",
"h. c #BC7945",
"j. c #BD7945",
"k. c #BE7944",
"l. c #BD7A44",
"z. c #BD7A45",
"x. c #BE7A45",
"c. c #BD7846",
"v. c #BD7946",
"b. c #BE7947",
"n. c #BE7A46",
"m. c #BE7B46",
"M. c #BF7B46",
"N. c #BE7A47",
"B. c #BE7B47",
"V. c #BF7C47",
"C. c #BF7A49",
"Z. c #BF7B49",
"A. c #BF7B4A",
"S. c #BF7C49",
"D. c #BF7D4A",
"F. c #C07C47",
"G. c #C07B49",
"H. c #C07B4A",
"J. c #C07C49",
"K. c #C07D49",
"L. c #C17D49",
"P. c #C17E49",
"I. c #C07C4A",
"U. c #C17C4A",
"Y. c #C17D4A",
"T. c #C07C4B",
"R. c #C17C4B",
"E. c #C17D4B",
"W. c #C27D4A",
"Q. c #C27D4B",
"!. c #C17E4A",
"~. c #C07E4B",
"^. c #C17E4B",
"/. c #C27E4A",
"(. c #C27F4A",
"). c #C27E4B",
"_. c #C37E4B",
"`. c #C27F4B",
"'. c #C37F4B",
"]. c #C17D4C",
"[. c #C17F4C",
"{. c #C27E4C",
"}. c #C27F4C",
"|. c #C37F4C",
" X c #C27E4D",
".X c #C27F4D",
"XX c #C37F4D",
"oX c #C27F4E",
"OX c #C47F4C",
"+X c #C4804B",
"@X c #C3804C",
"#X c #C2804D",
"$X c #C3804D",
"%X c #C2804E",
"&X c #C3804F",
"*X c #C4804C",
"=X c #C5804C",
"-X c #C5814C",
";X c #C4804D",
":X c #C5804D",
">X c #C4814D",
",X c #C5814D",
"<X c #C4804E",
"1X c #C4814E",
"2X c #C5814E",
"3X c #C4814F",
"4X c #C5824E",
"5X c #C4824F",
"6X c #C5824F",
"7X c #C6824F",
"8X c #C6834F",
"9X c #C48250",
"0X c #C58350",
"qX c #C58251",
"wX c #C58351",
"eX c #C68350",
"rX c #C68351",
"tX c #C68451",
"yX c #C68452",
"uX c #C78452",
"iX c #C78553",
/* pixels */
",X,X*Xz.'.,X,X,X,X,X,X,X,X,X,X,X,X,X,X,X,X,X,X,X,X,X,X,X,X,X,X,X,X,X,X,X,X,X,X,Xx./.,X,X*XeXiX6X*X,X).b.C.C.b.R.iXuXuXiXyX,X,X,X",
"eXeX>Xz.'.,X,X,X*X6XeXeXeX4X*X,X'.>X6X6X6X1X'.'.'.'.'.'.'.'.'.'.*X*X*X*X*X'.'.+Xk.L.*X*X'.>X1X;X'.-X|.W.Q.Q.W.|.6X6X6X6X6X,X,X,X",
"rXrX,Xz.'.,X:X,X-XeXtXrXtX4X*X5.k l z z z l j j j j j j j j j j j j j j j j j l f g j h h h h h k 6.4X4X4X4X6X4X4X4X4X-X-X-X,X,X",
",X;X*Xz.'.,X,X*X*X*X>X,X,X,X,X&.. @ # # # # # # # # # # # # # # # # # # # # # # # # # # # # # @ . >.yXyXyXyXyXyXyXyXrX*X*X*X,X,X",
"*XG.G.d.'.,X,XU.G.G.'.8XtXtXtX;.+ R ) ( ( ( ( ( ( ( ( ( ( ( ( ( ( ( ( ( ( ( ( ( ( ( ( ( ( ( ) R + @.4X4X4X;XT.T.T.T.T.G.I.*X=X,X",
"6X.X Xh.'.,X=XW.U.U.|.7XeXeXeX;.O T ) ( ( ( ( ( ( ( ( ( ( ( ( ( ( ( ( ( ( ( ( ( ( ( ( ( ( ( ) T O o.=X-X-XOXU.U.U.U.Y. X.X6X,X,X",
"yXyXtXz.'.,X,X2X2X,X*X|.|.|.*X@.O T ) ( ( ( ( ( ( ( ( ( ( ( ( ( ( ( ( ( ( ( ( ( ( ( ( ( ( ( ) T O @.*X|.|.|.*X,X,X,X,XyXyXtX,X,X",
",X,X>Xz.'.*XrXyXyX4XU.C.C.C.).@.O T ) ( ( ( ( ( ( ( ( ( ( ( ( ( ( ( ( ( ( ( ( ( ( ( ( ( ( ( ) T O @.).C.C.C.U.,X*X*X>X,X,X,X*X*X",
"M.M.m.q.z.M.S.D.D.V.j.s.s.s.z.' O T ) ( ( ( ( ( ( ( ( ( ( ( ( ( ( ( ( ( ( ( ( ( ( ( ( ( ( ( ) T O ' n.g.g.g.j.M.n.s.M.M.M.M.M.M.",
"m.m.m.i.B.S.S.S.S.S.S.S.S.S.S.` O T ) ( ( ( ( ( ( ( ( ( ( ( ( ( ( ( ( ( ( ( ( ( ( ( ( ( ( ( ) T O ` m.m.m.m.m.m.h.q.m.m.m.m.m.m.",
"*X*X*X*XrXyXyXyXyXyXyXyXyXyXyX;.O T ) ( ( ( ( ( ( ( ( ( ( ( ( ( ( ( ( ( ( ( ( ( ( ( ( ( ( ( ) T O o.*X*X*X*X*X*X/.j.*X*X>X>X>X>X",
"*XI.G.H.>X4X4X4X2X2X4X4X4X4X4X@.O T ) ( ( ( ( ( ( ( ( ( ( ( ( ( ( ( ( ( ( ( ( ( ( ( ( ( ( ( ) T O o.-X-X,X,X,X,X!.r.,X,XtXtXtXtX",
"*XY.Y.Y.*X-X-X6X6X6X,X-X-X-X=Xo.O T ) ( ( ( ( ( ( ( ( ( ( ( ( ( ( ( ( ( ( ( ( ( ( ( ( ( ( ( ) T O :.eXeX6X*X,X,XY.q.,X,XeXeXeXeX",
",X-X-X|.|.|.|.0XtXyX>X|.|.|.*X@.O T ) ( ( ( ( ( ( ( ( ( ( ( ( ( ( ( ( ( ( ( ( ( ( ( ( ( ( ( ) T O ,.tXtXeX*X*X,XY.e.,X*X*X*X*X*X",
",X,X;XH.C.C.C.|.,X,XU.C.C.C.).@.O T ) ( ( ( ( ( ( ( ( ( ( ( ( ( ( ( ( ( ( ( ( ( ( ( ( ( ( ( ) T O @.,X,X,X,X,X,X/.j.,X,X,X,X,X=X",
",XeXrX3X3X{.).*X,X,X|.).).).|.@.O T ) ( ( ( ( ( ( ( ( ( ( ( ( ( ( ( ( ( ( ( ( ( ( ( ( ( ( ( ) T O ;.rXeXrXrXrXeX!.y.,X,XrXrXeX,X",
",XeXrXrXrX,X-X_.).).).).*X,X,Xo.O T ) ( ( ( ( ( ( ( ( ( ( ( ( ( ( ( ( ( ( ( ( ( ( ( ( ( ( ( ) T O ;.rXrXrXrXrXeX!.y.,X,XrXrXeX,X",
",X,X,X,X,X,X,XU.A.A.A.C.).,X,Xo.O T ) ( ( ( ( ( ( ( ( ( ( ( ( ( ( ( ( ( ( ( ( ( ( ( ( ( ( ( ) T O @.,X,X,X,X,X,X`.z.,X,X,X,X,X,X",
",X,X,X,X,XrXyXwXqXqXwX;X*X,X,X@.O T ) ( ( ( ( ( ( ( ( ( ( ( ( ( ( ( ( ( ( ( ( ( ( ( ( ( ( ( ) T O o.,X,X,X,X,X,X`.z.,X,X,X,X,X,X",
"F.F.V.j.V.~.^.^.^.^.^.K.F.F.F.' O T ) ( ( ( ( ( ( ( ( ( ( ( ( ( ( ( ( ( ( ( ( ( ( ( ( ( ( ( ) T O ' F.F.F.F.F.F.m.e.F.F.F.F.F.F.",
"z.z.z.8.d.z.z.z.z.z.z.z.z.z.z._ O T ) ( ( ( ( ( ( ( ( ( ( ( ( ( ( ( ( ( ( ( ( ( ( ( ( ( ( ( ) T O _ z.z.z.z.s.d.u.w.s.d.z.z.z.z.",
"*X*X*Xd.`.*X*X*X*X*X*X*X*X*X*Xo.O T ) ( ( ( ( ( ( ( ( ( ( ( ( ( ( ( ( ( ( ( ( ( ( ( ( ( ( ( ) T O o.*X*X*X).b.N.N.b.N.Z.*X*X*X*X",
",XeX,Xz.'.,X,X,X,X,X,X,X,X,X,X@.O T ) ( ( ( ( ( ( ( ( ( ( ( ( ( ( ( ( ( ( ( ( ( ( ( ( ( ( ( ) T O @.-X-X,X*X_._._._._.|.tXtXrX,X",
",XeX>Xp.'.,X,X,X_.).).).).|.,Xo.O T ) ( ( ( ( ( ( ( ( ( ( ( ( ( ( ( ( ( ( ( ( ( ( ( ( ( ( ( ) T O -.6X6X6X6X7X7X7X6X*X{.&X3XeX,X",
"*X,X*X0.).,X,X,XU.C.C.C.C.).,Xo.O T ) ( ( ( ( ( ( ( ( ( ( ( ( ( ( ( ( ( ( ( ( ( ( ( ( ( ( ( ) T O ;.yXyXyXyXyXyXyXrXOXC.C.G.*X,X",
"*X*X*X8.).,X,X,X*X|.|.|.|.*X,Xo.O T ) ( ( ( ( ( ( ( ( ( ( ( ( ( ( ( ( ( ( ( ( ( ( ( ( ( ( ( ) T O @.2X2X2X2X2X2X2X,X*X|.|.OX*X-X",
"eXeX;X0.).,X,X*X,X7XeX4X).U.U...O T ) ( ( ( ( ( ( ( ( ( ( ( ( ( ( ( ( ( ( ( ( ( ( ( ( ( ( ( ) T O o.*X=X'.U.U.U.W.*X,X,X,X,X,X,X",
"tXrX>X8.).,X,X*X*XeXtX4XW.G.G. .O T ) ( ( ( ( ( ( ( ( ( ( ( ( ( ( ( ( ( ( ( ( ( ( ( ( ( ( ( ) T O @.,X,X|.T.T.T.].2X*X'.'.|.*X,X",
",X,X*Xq.).,X=X,X,X,X,X,X*X*X*Xo.O T ) ( ( ( ( ( ( ( ( ( ( ( ( ( ( ( ( ( ( ( ( ( ( / ( ) ) ( ) T O @.,X*X4XyXyXyXyXrXOXC.C.G.*X,X",
",X,X,Xa.'.,X,XeXtXtXtXtX4X,X,X@.O T ) ( ( ( ( ( ( ( ( ( ( ( ( ( ( ( ( ( ( ( ( ( / ( ~ b c U [ T O @.,X,X,X7X6X6X7X4X;X|.|.|.,X,X",
"K.K.K.t.V.L.K.[..X.X.X#X!.K.K.} O T ) ( ( ( ( ( ( ( ( ( ( ( ( ( ( ( ( ( ( ( ( ( ( ^ B 4 2 d ^ T + } K.K.K.K.K.K.F.B.L.L.L.L.K.K.",
"z.z.z.w.d.z.z.z.z.z.z.z.z.z.z._ O T ) ( ( ( ( ( ( ( ( ( ( ( ( ( ( ( ( ( ( ( ( ( ) x s 1.4.K t Y + _ z.z.z.z.z.z.a.q.z.z.z.z.z.z.",
"'.'.'.`.'.'.'.'.'.'.'.'.'.'.'...O T ) ( ( ( ( ( ( ( ( ( ( ( ( ( ( ( ( ( ( / ( ) a * : F L 9 w Y + ..'.'.'.'.'.'.L.d.'.'.'.'.'.'.",
",X,X,X,X,X,X,X,X,X,X).U.U.|.,X;.O T ) ( ( ( ( ( ( ( ( ( ( ( ( ( ( ( ( ( ( ( ~ N 8 S G J A < r Y + @.4XrXeXrX8X,X/.y.,X,X,X,X,X,X",
",X4X4X4X4X;X|._._.*XY.G.G._.-X;.O T ) ( ( ( ( ( ( ( ( ( ( ( ( ( ( ( ( ( ( ( E r D I 3.2.P q e Y + o.4XtXrXtXeX,XY.w.,X,X*X*X*X*X",
",XtXyXyXyXoXA.C.C.|.,X;X;X,X,X@.O T ) ( ( ( ( ( ( ( ( ( ( ( ( ( ( ( ( ( ( ( / E i , 3 7 5 > r Y + @.,X,X,X,X,X,XY.w.,X-X,X,X,X,X",
"*X2X4X4X4X;X|.'.3XrXtXtXtXtX6Xo.O T ) ( ( ( ( ( ( ( ( ( ( ( ( ( ( ( ( ( ( / ( ( y % $ 6 H 0 w Y + @.*X*X*X*X*X,XY.w.,X*X,XtXtXtX",
"6X6X,X*X*X=X-X-X7XeXeXeXeXeX4Xo.O T ) ( ( ( ( ( ( ( ( ( ( ( ( ( ( ( ( ( ( ( ( / m u p 1 Z M v Y + o.,X*X2X6X6X6X/.u.,X*X,XeXeXeX",
"yXtX,X*X,X2X2X2X2X,X*X*X*X*X*X@.O T ) ( ( ( ( ( ( ( ( ( ( ( ( ( ( ( ( ( ( ( ( ( ( ) T r = v [ T O @.,X*X4XyXyXeX/.d.,X,X=X*X*X*X",
",X,X,X,XrXyXyXyXyX2X*X*X*X*X*X@.O T ) ( ( ( ( ( ( ( ( ( ( ( ( ( ( ( ( ( ( ( ( ( ( ( / ! Q ^ ) T O @.,X*X,X,X,X,XY.e.,X,X-X*X*X*X",
",X,X,X,X7X7X7X7X7X,X,X,X,X,X,X@.O T ) ( ( ( ( ( ( ( ( ( ( ( ( ( ( ( ( ( ( ( ( ( ( / ( ( ( ( ) T O @.,X,X,X,X,X,X/.a.,X,X,X,X,X,X",
"!.!.!./.!.!.!.P.P.!.!.!.!.!.!.| O T ) ( ( ( ( ( ( ( ( ( ( ( ( ( ( ( ( ( ( ( ( ( ( ( ( ( ( ( ) T O | !.!.!.!.!./.F.p./.!.!.!.!.!.",
"f.f.f.d.d.f.f.z.z.z.z.z.z.z.f._ O T ) ( ( ( ( ( ( ( ( ( ( ( ( ( ( ( ( ( ( ( ( ( ( ( ( ( ( ( ) T O _ f.f.f.f.f.l.a.q.f.f.f.f.f.f.",
"`.`./.d.!.`.`.1X5X5X5X5X9X$X/. .O T ) ( ( ( ( ( ( ( ( ( ( ( ( ( ( ( ( ( ( ( ( ( ( ( ( ( ( ( ) T O  ././././.(.`./.Y.`.`.`.`.`.`.",
",X,X,Xz.@X,X,X8XeXeXeXeXeX4X,X@.O T ) ( ( ( ( ( ( ( ( ( ( ( ( ( ( ( ( ( ( ( ( ( ( ( ( ( ( ( ) T O ;.eXeXeXeX7X,X,X,X,X,X,X,X,X,X",
"=X*X*Xd.'.,X,XOX|.|.|.*X=X*X,X@.O T ) ( ( ( ( ( ( ( ( ( ( ( ( ( ( ( ( ( ( ( ( ( ( ( ( ( ( ( ) T O ;.yXtXtXyXeX=X,X*X|.|.|.|.*X,X",
",X,X*Xq.).,X,XI.C.C.C._.,X=X,X@.O T ) ( ( ( ( ( ( ( ( ( ( ( ( ( ( ( ( ( ( ( ( ( ( ( ( ( ( ( ) T O @.,X,X,X,X,X*X*X|.C.C.C.G.*X,X",
",XeX;X8.).,X,X_.).).).*X,X,X,Xo.O T ) ( ( ( ( ( ( ( ( ( ( ( ( ( ( ( ( ( ( ( ( ( ( ( ( ( ( ( ) T O o.=X_.G.G.G.H.Y.*X).).).).*X*X",
",XeX;Xe.'.,X*X,X,X,X|.).).).|.@.O T ) ( ( ( ( ( ( ( ( ( ( ( ( ( ( ( ( ( ( ( ( ( ( ( ( ( ( ( ) T O ;.6X<X].].].].{.,X,X,X,X6X6X,X",
",X,X>Xd.'.,X,X,X,X,XU.C.C.C.).@.O T ) ( ( ( ( ( ( ( ( ( ( ( ( ( ( ( ( ( ( ( ( ( ( ( ( ( ( ( ) T O ,.yXyXyXwXrXrX0X*X,X*X,XyXtX,X",
"tXtXrXe.`.,X,X,X,X,X*X|.|.|.*X@.O T ) ( ( ( ( ( ( ( ( ( ( ( ( ( ( ( ( ( ( ( ( ( ( ( ( ( ( ( ) T O -.2X4XXXI.T.T.E.,X,X*X,X2X2X,X",
"eXeXeXy.'.,X,X,X,X,X,X,X|.Q.E...O T ) ( ( ( ( ( ( ( ( ( ( ( ( ( ( ( ( ( ( ( ( ( ( ( ( ( ( ( ) T O @.,X,XOXW.Q.W.).,X,X,X,X,X,X,X",
"/././.p.Y.`.`.`.`.`.`.'.Z.v.v.{ O T ) ( ( ( ( ( ( ( ( ( ( ( ( ( ( ( ( ( ( ( ( ( ( ( ( ( ( ( ) T O  .`.`.`.'.'.'./.Y.`.`.`.`.`.`.",
"f.f.d.8.d.d.d.d.d.d.f.f.d.d.d._ O T ) ( ( ( ( ( ( ( ( ( ( ( ( ( ( ( ( ( ( ( ( ( ( ( ( ( ( ( ) T O _ f.f.d.d.d.d.a.q.f.f.f.f.f.f.",
"!.!.!.J.L.n.v.v.v.J.!.!.!././.| O T ) ( ( ( ( ( ( ( ( ( ( ( ( ( ( ( ( ( ( ( ( ( ( ( ( ( ( ( ) T O | !./.J.c.v.N.F.p././././.!.!.",
",X,X7X8X7X.XR.U.U.OX6X7X7X7X7X;.O T ) ( ( ( ( ( ( ( ( ( ( ( ( ( ( ( ( ( ( ( ( ( ( ( ( ( ( ( ) T O @.,X,X;X X XXX'.x.;X).)._.,X,X",
",X,XtXyXyXyX,X*X*X*XeXyXyXyXyX;.O T ) ( ( ( ( ( ( ( ( ( ( ( ( ( ( ( ( ( ( ( ( ( ( ( ( ( ( ( ) T O o.*XOX2XyXyXeX/.j.*XZ.H.I.,X,X",
",X,X,X2X2X2X,X-X-X*X,X2X2X2X2X@.O T ) ( ( ( ( ( ( ( ( ( ( ( ( ( ( ( ( ( ( ( ( ( ( ( ( ( ( ( ) T O  .C.C.E.2X2X2XY.e.*X;XwXwXtXyX",
",X*XY.U.U.U.*X8XeXeXeXeX2X*X*Xo.+ W [ ( ( ( ( ( ( ( ( ( ( ( ( ( ( ( ( ( ( ( ( ( ( ( ( ( ( ( [ W + ..Q.W._.*X*X=XL.8.U.E.XX8X6X6X",
",X*XI.G.G.G.OX3X9X9XrXtX4X-X,X@.o n C V V V V V V V V V V V V V V V V V V V V V V V V V V V C n o @.,X,X4X4X4X4X^.8.G.G.I.*X*X*X",
",X*X*X*X*X*X-XI.C.C.|.,X*X*X*X+.X & ; - - - - - - - - - - - - - - - - - - - - - - - - - - - ; & X $.*X6XyXyXyXuX%Xw.*X*X;X,X,X,X",
",X,X,X,X,X,X=X'._._.*XW.G.H.G.o.  X X X X X X X X X X X X X X X X X X X X X X X X X X X X X X X   %.*X,X4X4X4X6X}.d.,X,XtXrXrX,X",
",X,X,X,X,X*X6X7X8X,X,X).U.U.U.7.=.>.&.&.&.&.>.O.] >.&.&.&.&.#.#.&.&.#.#.#.#.#.#.&.>.#.X.X.$.>.*.<.9.6X6X6X4X*X=X(.z.,X,XeXeXeX,X",
",X,X,X,X,X*XtXiXiX4X*X*X*X*X*X,X,X,X,X,X,X,X,X/.z.,X,X,X,X*XC.C.*X*XC.b.C.C.C.b.'.,X*X*X*X,X,X*X6XiXuXuXiXrX*X,X`.z.,X,X,X,X,X,X"
};
