/* XPM */
static char *result[] = {
/* columns rows colors chars-per-pixel */
"64 64 217 2 ",
"   c #040D0E",
".  c #060E13",
"X  c #0B1413",
"o  c #0B1515",
"O  c #131616",
"+  c #161B17",
"@  c #281E1A",
"#  c #1D2317",
"$  c #17221A",
"%  c #1D2119",
"&  c #212717",
"*  c #242A16",
"=  c #282C17",
"-  c #2B241C",
";  c #352319",
":  c #31241A",
">  c #39251A",
",  c #2D3317",
"<  c #2E3119",
"1  c #313519",
"2  c #363719",
"3  c #2D2620",
"4  c #3C2E22",
"5  c #253826",
"6  c #3C3123",
"7  c #37342D",
"8  c #373630",
"9  c #452B1D",
"0  c #452B22",
"q  c #413225",
"w  c #4B3525",
"e  c #473927",
"r  c #4B3729",
"t  c #4E3A29",
"y  c #583728",
"u  c #523C2A",
"i  c #473E34",
"p  c #513732",
"a  c #63362A",
"s  c #653E30",
"d  c #28482B",
"f  c #2B522E",
"g  c #2F5832",
"h  c #375431",
"j  c #4E4F1A",
"k  c #57571A",
"l  c #5D5D1C",
"z  c #615F1E",
"x  c #5F601E",
"c  c #62621C",
"v  c #68671C",
"b  c #6C6A1E",
"n  c #71701F",
"m  c #74721E",
"M  c #79761F",
"N  c #7C7A1F",
"B  c #584727",
"V  c #47512F",
"C  c #5C5322",
"Z  c #505821",
"A  c #474139",
"S  c #594332",
"D  c #63442B",
"F  c #654B2D",
"G  c #6A4F2C",
"H  c #7B4328",
"J  c #625425",
"K  c #684A32",
"L  c #7A4332",
"P  c #784C35",
"I  c #6C5239",
"U  c #765235",
"Y  c #7B5436",
"T  c #42663A",
"R  c #526A31",
"E  c #6B6721",
"W  c #6E782A",
"Q  c #584D43",
"!  c #585244",
"~  c #665449",
"^  c #576B47",
"/  c #4C7C45",
"(  c #537F46",
")  c #726C49",
"_  c #804528",
"`  c #994C28",
"'  c #854836",
"]  c #8D4C39",
"[  c #924B37",
"{  c #934E3A",
"}  c #8A5B36",
"|  c #865B3A",
" . c #95513E",
".. c #9A533E",
"X. c #985B38",
"o. c #A14E29",
"O. c #A3512B",
"+. c #AF552D",
"@. c #B3562D",
"#. c #A65937",
"$. c #A6573C",
"%. c #AB593C",
"&. c #B65C38",
"*. c #BC5F39",
"=. c #807D20",
"-. c #8F603B",
";. c #94633C",
":. c #9A663E",
">. c #9A683F",
",. c #A66C3E",
"<. c #BE613C",
"1. c #C96136",
"2. c #C3633C",
"3. c #CD6538",
"4. c #D56737",
"5. c #DC6937",
"6. c #DA6938",
"7. c #E3662E",
"8. c #E66A33",
"9. c #E56C35",
"0. c #E46D38",
"q. c #E6723D",
"w. c #EA723C",
"e. c #9A5642",
"r. c #A25D46",
"t. c #9C6740",
"y. c #9C6941",
"u. c #8B725C",
"i. c #AB6345",
"p. c #A36C43",
"a. c #A96F43",
"s. c #A76648",
"d. c #A3614C",
"f. c #B76848",
"g. c #AB7245",
"h. c #AB7346",
"j. c #B47444",
"k. c #B97642",
"l. c #BD7A45",
"z. c #B4774A",
"x. c #BF7B49",
"c. c #A86C57",
"v. c #B4755C",
"b. c #907661",
"n. c #A37C65",
"m. c #BC7B62",
"M. c #C07C47",
"N. c #CD734C",
"B. c #CE774D",
"V. c #C27E4B",
"C. c #E57643",
"Z. c #E87945",
"A. c #E97C4A",
"S. c #6E8D3C",
"D. c #799139",
"F. c #5C8947",
"G. c #53864B",
"H. c #5A8549",
"J. c #568A4C",
"K. c #648B43",
"L. c #7B8643",
"P. c #858123",
"I. c #8E8921",
"U. c #9A9522",
"Y. c #999827",
"T. c #9D9824",
"R. c #929429",
"E. c #849736",
"W. c #A39D23",
"Q. c #AE9E3D",
"!. c #A6A024",
"~. c #ABA424",
"^. c #AAA626",
"/. c #B1AA24",
"(. c #8B8255",
"). c #B6A94B",
"_. c #979B6E",
"`. c #B7856C",
"'. c #AB8B75",
"]. c #AE917B",
"[. c #A7A173",
"{. c #C5814D",
"}. c #C68451",
"|. c #D8835A",
" X c #EF804C",
".X c #EB8656",
"XX c #C6866A",
"oX c #D98963",
"OX c #CB8B70",
"+X c #D2997E",
"@X c #EE8F61",
"#X c #EE9468",
"$X c #F59465",
"%X c #F1996D",
"&X c #EC9D76",
"*X c #F39D71",
"=X c #F4A67C",
"-X c #BB9B83",
";X c #C69C83",
":X c #D59D82",
">X c #D99F83",
",X c #C9A58A",
"<X c #D6A58A",
"1X c #D9B089",
"2X c #E3AB8C",
"3X c #F5AB81",
"4X c #FAAE84",
"5X c #FBB288",
"6X c #EDB595",
"7X c #ECB898",
"8X c #F6BA96",
"9X c #FAC19D",
"0X c #F6C5A4",
"qX c #FCC4A2",
"wX c #FEC9A6",
"eX c #FECCAB",
"rX c #FFD3B3",
/* pixels */
"{.{.{.l.V.{.{.{.{.{.{.{.{.{.{.{.{.{.{.{.{.{.{.{.{.{.{.{.{.{.{.{.{.{.{.{.{.{.{.{.l.{.{.{.{.{.}.{.{.{.V.l.l.V.l.V.}.V.}.}.}.V.}.V.",
"}.{.{.l.V.{.{.{.{.{.{.}.}.{.{.{.{.{.}.}.}.{.{.{.{.{.V.{.{.{.{.V.{.{.{.{.{.{.{.{.l.V.{.{.{.{.{.{.{.{.V.V.V.V.V.V.}.}.V.}.}.}.}.}.",
"}.}.{.l.{.{.{.{.{.}.}.}.}.{.{.{.{.}.}.}.}.}.{.{.}.}.{.{.{.{.}.{.{.{.{.{.{.{.{.}.l.{.{.{.{.{.{.{.{.{.{.{.}.}.V.}.V.}.}.}.{.{.B.{.",
"{.{.{.l.V.{.{.V.{.{.{.{.{.{.{.{.V.{.}.V.{.V.{.}.}.}.}.}.}.}.}.{.{.{.{.{.{.}.}.}.l.{.{.{.{.{.{.{.{.}.}.}.}.}.}.}.}.}.}.V.{.{.{.}.",
"{.x.x.l.{.{.{.V.V.V.V.}.}.}.}.}.V.{.V.M.x.x.V.{.{.}.{.{.{.}.}.{.{.{.{.{.{.{.{.}.l.V.{.}.}.}.}.{.{.{.{.{.{.{.V.V.x.V.V.M.M.{.{.{.",
"{.V.V.l.{.{.{.V.V.V.V.}.}.}.}.{.{.{.}.V.V.V.{.{.{.{.V.V.V.V.V.V.{.{.{.{.}.{.}.{.l.{.{.}.}.}.}.{.{.{.{.{.{.{.M.M.V.x.V.{.{.{.{.{.",
"}.}.}.l.V.{.{.{.V.V.V.V.{.V.{.{.V.}.}.}.}.}.}.}.{.V.{.V.V.M.V.{.{.{.{.}.}.{.}.}.l.V.{.{.{.{.{.{.{.{.V.{.V.V.{.{.V.}.{.}.}.{.{.{.",
"{.{.{.l.V.{.}.}.}.{.M.M.M.M.V.{.V.}.}.V.x.x.x.V.M.M.{.V.V.{.V.V.V.{.{.{.{.P @ X . w a.{.{.{.{.V.{.{.V.l.x.x.V.{.V.V.{.{.{.{.{.{.",
"{.l.l.j.l.l.V.x.V.V.l.l.l.l.l.l.M.l.M.l.l.l.l.k.k.l.M.l.M.l.l.l.l.M.l.j.:.G 2 1 1 B } ,.j.M.M.l.M.M.l.l.l.l.l.l.M.l.M.l.M.M.M.M.",
"l.l.l.l.{.x.x.x.M.M.M.M.x.M.V.l.l.l.l.l.l.l.l.l.k.l.l.l.l.x.l.x.l.l.k.| w B M =.N c t D ,.l.l.l.l.l.l.l.l.M.l.l.l.k.x.M.l.l.l.l.",
"{.{.{.{.{.}.}.}.}.}.}.}.}.}.}.V.{.V.{.{.{.{.{.V.l.{.{.{.{.{.V.{.V.j.p.F 2 z U./.~.m = q :.x.x.V.{.{.{.V.{.{.{.{.V.l.V.V.{.{.{.{.",
"{.l.x.x.{.{.{.{.}.V.}.}.}.}.}.V.{.{.{.{.{.{.{.V.l.{.{.{.{.{.{.}.x.| B B m I.W./.~.m = q p.V.V.{.{.{.{.{.{.{.{.{.V.k.{.{.}.}.}.}.",
"{.M.V.V.{.{.{.}.}.}.V.V.V.V.{.V.{.{.V.V.{.V.V.V.l.{.{.{.V.V.{.x.p.F 2 c T.^.~./.~.m = q ,.x.V.x.{.{.}.}.{.{.{.{.V.k.{.{.{.}.{.}.",
"{.{.{.{.V.V.{.{.}.}.}.V.V.}.{.{.{.{.{.}.}.{.}.V.k.{.{.{.x.x.x.| B C E I.~.^.W.~.!.m = 6 y.x.x.x.V.}.}.}.}.{.{.{.V.k.{.{.{.{.{.{.",
"{.{.{.l.x.x.B.V.V.}.V.M.M.V.V.{.{.{.}.}.V.z.z.g.,.j.j.h.j.x.x.D & k U.^.~.~.W./.!.m * 9 p.{.{.{.{.{.{.{.{.{.{.{.V.l.{.{.{.{.{.{.",
"{.}.}.{.{.V.{.V.}.V.V.V.V.V.{.{.{.V.{.}.z.Y u r w u u u S y.z.K % l W./.W.~.~.^.~.m = q p.{.{.{.{.{.}.}.}.{.}.{.{.k.{.{.}.}.{.{.",
"{.{.}.}.}.{.{.V.x.{.x.{.{.{.{.{.{.{.{.x.y.B # # & & & # < Y a.S & k T./.~.W.~.~.!.n = q p.{.{.{.{.{.}.}.}.}.}.}.V.k.{.{.}.}.}.{.",
"{.{.{.{.{.{.{.V.x.x.x.x.V.{.{.{.}.}.z.Y S Z x c l l l c z J u @ O k T./.~.~.~.~.^.M = q y.{.{.{.{.{.{.{.{.{.{.{.{.l.{.{.{.{.{.{.",
"{.{.{.{.{.}.}.}.{.}.{.{.{.{.{.{.{.x.t.e 2 m W.W.W.W.W.W.U.l & O & l U.~.W.~.!.~.W.b < e h.}.}.}.{.{.{.{.{.{.{.{.V.l.{.{.{.{.{.{.",
"V.M.l.l.l.V.V.V.{.x.{.M.l.l.V.M.l.F F C b R./././.~././.W.=.z k c W D.Y.W./.~.I.v J G | h.{.x.{.V.M.M.M.M.M.M.M.l.k.M.M.M.M.M.M.",
"2.M.{.,.l.l.l.l.l.l.l.l.l.l.l.l.l.O 2 M W.~.~.!.~.~.~.~.~.W.T.W.U.D.S.D.!.^.!.m , q -.j.k.l.l.l.l.l.l.l.l.l.l.k.k.k.l.l.M.l.l.l.",
"}.{.{.k.{.{.{.{.{.{.{.{.{.{.V.{.{.  1 P././.~./.~./.~.~.~./././.^.D.F.K.D.E.D.R + @ B P K Y h.{.{.{.{.{.{.{.x.l.x.l.l.x.{.{.{.{.",
"}.}.{.l.V.{.{.{.{.{.{.{.{.{.{.{.{.. , N W.!.W.W.W.W.W.W.W.W.W.~.!.D.F.J.F.F.J.T # O @ % # S y.{.{.{.{.{.{.{.V.{.V.V.V.V.}.}.{.{.",
"{.}.{.k.{.{.{.{.V.V.V.V.V.V.{.{.{.X # j b b v b v v v v v v n I.!.E.F.G.G.G.G.R Z j j j j C U U V.{.{.{.{.{.{.{.{.}.{.{.{.{.{.{.",
"{.{.{.,.{.{.{.{.2.{.{.Q.l.V.{.{.{.o + # & & & & & & & & & + < b Y.E.F.G.G.G.G.S.R.U.U.U.U.m 2 @ V.}.}.}.}.}.}.}.}.}.{.M.M.V.V.}.",
"{.{.B.Q.{.{.{.{.{.{.x.N.{.{.{.{.{.u t t r e r r e r r t u u u J b S.G.J.G.G.G.D.!./.!././.N 1 . {.{.}.{.}.{.}.{.{.{.{.V.V.V.V.V.",
"}.}.B.,.M.{.{.{.{.}.V.{.{.x.l.x.V.a.a.a.p.h.h.h.p.a.a.a.a.a.>.D < h ( J.J.G.G.D.T.^.~.^.~.N 1 . {.{.{.{.V.V.V.V.V.V.V.{.{.{.}.}.",
"}.}.}.2.{.{.{.{.V.}.}.{.V.V.x.{.V.M.l.x.{.}.}.}.}.}.x.t.} } Y 0 o d ( J.F.F.S.E.!./.~./.^.N 1 . V.{.{.{.V.x.x.V.V.}.{.V.{.{.{.B.",
"}.{.{.,.{.{.{.{.{.{.{.{.{.{.{.{.V.{.{.{.{.{.{.{.}.{.z.K 3 - 3 O O f ( J.G.S.Y.!.!.~.~.^.^.N 1 . {.{.{.{.{.}.}.}.}.}.V.l.l.V.V.{.",
"{.{.{.{.{.{.{.{.}.}.}.}.{.{.{.{.{.{.{.{.{.{.x.,.;.} | I Q Q Q Q ! ^ ( / T L.).Q.P.M N N =.l = . {.{.{.{.{.{.{.}.}.{.{.{.{.V.{.{.",
"{.M.M.k.{.{.M.{.{.V.{.{.x.x.{.x.V.V.x.x.M.l.g.S - - e u.,X<X,X<X,X_.J.g 5 ) 1X[.B * , , 1 = O X V.x.V.V.x.V.x.V.M.l.M.V.V.M.V.V.",
"Q.N.<.k.,.M.M.M.l.l.l.l.l.l.l.l.l.l.l.l.j.,.| K A A ~ '.2X7X7X7X6X[.H.f % ~ +X`.y > 9 @ O O 3 2 l.l.l.l.l.l.l.l.l.k.l.l.l.l.l.l.",
"{.V.{.V.V.{.V.{.l.{.x.{.{.{.{.{.V.{.V.{.a.D S b.;X,X;Xm.v.v.v.v.v.(.( g $ p c.c.&.@.+.s ; ; U >.V.{.V.{.{.{.{.{.l.l.{.{.{.M.{.{.",
"{.{.{.{.{.{.{.{.{.{.{.{.l.{.{.{.}.}.{.}.s.4 8 '.eXwX2Xm.e.{ { ' L ^ ( g + 0 ' &.3.0.0.O.> q :.V.{.{.{.{.{.}.{.{.{.k.{.{.{.{.{.{.",
"{.{.}.{.{.{.V.V.{.{.l.x.z.{.{.{.}.}.{.}.y.6 8 ].0X>Xv.r.{ { ' a 4 V / g + > ' e.%.2.0.O.> 6 ;.V.{.{.{.}.}.}.}.{.x.,.}.}.{.M.{.{.",
"{.}.}.}.}.{.x.x.l.{.{.{.{.{.{.{.{.{.{.{.p.4 7 ].0Xm...[ ..e.e.0 + d T h 3 y [ e.e.<.4.O.> > :.x.V.{.{.{.{.{.{.{.V.j.}.{.{.{.{.{.",
"{.{.{.}.{.{.V.{.{.}.}.}.}.}.{.{.{.{.V.{.y.4 8 ].7Xm.e.[ ..e.[ 0 o o 5 r s ' e.] { &.4.O.: 6 >.x.{.{.{.V.{.{.{.{.N.Q.{.{.{.{.}.}.",
"{.{.{.{.{.V.{.{.{.}.}.}.{.{.{.{.{.{.{.{.p.q 8 '.6XOXd.e...e.[ a 3 O @ a ] e.{ e.$.<.6.O.; 6 y.{.{.{.{.{.{.{.{.}.M.3.{.{.{.{.}.{.",
"}.}.{.{.{.}.{.{.{.{.{.V.{.{.{.{.{.}.}.}.y.6 3 r.@X3X:Xv.e.[ ..s a y a s [ { e.$.2.5.9.o.; > t.{.{.{.{.{.{.}.}.{.M.l.{.{.{.{.{.{.",
"{.{.{.{.}.}.}.}.}.{.{.{.{.{.{.{.{.{.{.x.X.w 9 [ C.3X8Xm.d.r.r.d.d.d.d.d.r.r...&.5.9.5.#.t A t.j.{.{.{.{.{.{.{.{.M.k.{.{.{.{.{.{.",
"{.{.{.{.{.{.{.{.{.{.{.{.{.{.{.{.{.{.h.U D H ` O.*.A.%X>X:X:X:X>X>X>X>X>X>XXXN.4.8.6.*.i.n.u.I u {.{.{.{.{.{.}.V.V.l.V.{.{.{.{.{.",
"{.V.{.{.l.{.{.{.l.{.{.{.{.x.l.{.V.V.>.0 > O.4.f.r.N.C.&X8X9X9X8X9X9X9X0X8X*XC.7.5.1.%.m.7X-XA X {.M.{.M.M.{.B.M.M.k.V.V.V.V.V.V.",
"k.k.k.l.k.k.k.k.l.l.l.l.k.l.l.k.l.l.-.4 > O.C.oXOXf.*.B.*X*X*X*X*X*X*X*X%X.XC.4.*.@.*.oX8X-Xi   k.l.l.l.l.l.M.M.l.k.l.l.l.l.l.l.",
"{.{.{.k.{.{.{.{.}.{.}.{.{.{.{.{.V.V.:.2 > O.A.4X6XXXi.N.C.w.q.q.q.q.q.C.q.q.8.1.%.%.C.@X9X-X8   {.{.M.M.{.M.V.V.M.V.V.V.M.V.{.V.",
"{.{.{.{.{.{.{.{.{.{.}.{.}.{.{.{.{.}.>.6 > o.A.5X0X1XOXN.7.7.7.7.7.7.7.7.8.8.9.3.2.N.#X5XqX-Xi . {.{.{.{.}.}.}.}.{.}.}.V.{.{.{.{.",
"{.{.{.{.{.{.{.{.{.{.{.{.{.{.{.{.{.{.>.6 > o.A.4XeXeX8X#XC.0.q.q.q.q.q.q.9.9.9.9.0..X8XeXwX-Xi   {.{.}.}.}.}.}.V.{.V.V.V.{.V.{.{.",
"{.{.{.<.{.{.{.l.k.l.l.B.{.{.{.{.{.{.:.6 > O. X5XeXrXeX4X%X#X%X%X#X%X#X.XC.8.9.8.0.#X9XwX4Xv.q . {.{.{.{.V.V.}.V.V.{.x.M.M.M.{.{.",
"{.{.{.,.{.{.{.{.{.{.{.{.{.{.{.{.{.{.:.q > ` A.3XeXeXeXwX9XqX9X9XqXqX9X*XC.7.9.9.9.@X8X5X.X#.9 X {.{.{.{.M.M.V.M.V.{.V.V.V.M.{.{.",
"{.{.{.,.V.{.{.{.{.{.V.V.V.V.V.}.{.{.g.U B s #.|.3X8XrXrXrXrXrXrXrXrXeX=Xq.8.0.8.0. X*X|.#.H y B {.{.}.{.x.V.V.V.V.}.{.{.{.}.{.{.",
"{.{.{.M.{.{.{.{.{.{.V.M.M.M.V.V.{.{.M.l.;.y 9 #..X3XwXeXeXeXeXeXeXeXwX=XC.8.9.9.0.w.C.,.9 e ;.j.{.}.}.}.}.}.}.}.}.V.}.V.{.}.}.{.",
"}.}.}.Q.V.{.{.{.{.{.{.V.V.V.V.}.{.{.{.{.,.2 @ ` w.$X3X3X3X3X3X3X3X3X=X@Xq.0.9.0.0.w.9.O.; > ;.{.{.{.{.}.{.x.x.x.V.V.{.{.{.{.{.{.",
"}.{.}.2.{.{.{.{.{.{.{.{.V.V.V.V.{.{.{.{.:.0 ; ` 9.Z.A.A.A.Z.Z.Z.A.A.Z.w.0.0.0.q.9.8.0.O.> 6 :.{.{.{.{.{.{.V.V.V.V.}.{.{.{.{.{.{.",
"{.V.V.l.M.V.V.V.V.V.V.V.V.l.l.M.{.V.{.{.g.U y H O.*.1.5.8.8.8.8.9.8.8.9.9.9.9.5.4.*.O._ y F h.{.{.x.{.{.{.{.x.{.{.{.{.V.V.V.{.V.",
"l.l.l.k.l.l.l.k.l.k.M.M.M.l.l.l.l.l.k.k.j.,.} u 0 H %.3.9.8.9.8.9.9.9.9.0.0.9.4.%.L 9 y | ,.k.k.l.l.l.k.k.k.l.l.2.,.l.l.l.l.l.l.",
"M.V.V.M.M.l.l.x.l.M.V.V.M.V.V.V.{.x.V.V.l.l.a.D w P r.2.3.3.3.3.3.3.3.3.3.3.3.2.%.P t F a.{.M.{.{.x.{.l.{.k.l.l.{.Q.V.V.V.V.V.V.",
"{.{.{.}.{.{.M.V.V.V.}.V.}.}.}.V.{.{.{.{.V.V.x.a.:.j.k.i.$.%.$.%.$.$.$.$.$.%.$.i.z.j.p.g.{.{.{.}.{.{.{.{.{.x.{.{.M.N.{.V.V.V.{.{.",
"}.V.}.}.}.}.{.{.V.{.}.}.}.}.}.}.V.{.}.}.}.}.}.V.k.}.V.s. . . . . . . . . . . .s.V.}.}.}.}.}.B.{.{.{.{.V.}.}.}.}.M.l.V.V.V.V.V.V.",
"B.}.V.V.}.{.{.{.{.{.{.V.{.}.{.V.{.{.{.{.{.}.{.V.l.{.}.{.{.{.{.{.}.}.}.}.{.{.{.{.V.V.}.V.}.}.}.V.{.V.M.x.V.{.{.{.M.k.V.V.V.}.}.|.",
"{.{.V.M.V.V.{.{.}.{.}.}.{.V.{.{.{.{.{.{.{.{.x.x.l.{.{.{.{.{.{.{.{.{.{.{.{.{.{.{.V.V.M.M.V.}.}.}.{.V.V.V.V.{.{.{.M.j.M.V.V.}.}.}.",
"{.{.M.V.M.V.V.{.}.}.}.}.{.{.{.{.{.{.{.{.{.{.M.l.j.V.{.{.{.{.{.{.{.{.{.{.{.{.{.{.V.V.M.M.V.V.V.V.{.}.{.{.{.{.{.{.V.k.M.M.x.V.}.V.",
"{.{.{.{.{.{.{.V.M.M.V.{.{.V.V.{.{.{.{.}.}.{.{.V.k.V.{.}.}.{.{.{.{.{.{.{.{.}.}.}.}.}.{.{.V.V.M.V.{.{.{.{.}.}.}.}.V.k.{.{.}.{.{.{.",
"{.{.{.{.{.{.V.V.V.V.{.V.V.V.V.V.{.{.{.{.{.{.{.V.l.V.{.{.{.{.{.{.{.{.{.{.{.{.}.{.}.B.V.M.V.V.V.{.{.V.{.{.{.{.}.}.V.l.{.{.}.}.}.{.",
"{.{.{.{.{.{.}.}.}.V.{.M.V.B.V.V.{.{.{.{.{.{.{.V.M.{.{.V.{.V.V.V.{.{.V.V.{.x.{.x.V.}.V.V.V.V.{.{.}.}.}.{.}.{.{.{.V.l.{.{.{.}.}.{.",
"{.{.{.{.{.{.}.}.}.{.{.{.{.}.V.V.{.{.{.{.{.{.{.V.l.{.{.{.{.{.x.x.V.{.x.l.x.x.x.l.V.}.V.}.V.V.{.V.{.}.}.}.}.}.V.{.{.l.{.{.{.{.{.{."
};
