/* XPM */
static char *result[] = {
/* columns rows colors chars-per-pixel */
"64 64 222 2 ",
"   c #0F1A1B",
".  c #101A1B",
"X  c #111A1B",
"o  c #121A1B",
"O  c #131A1B",
"+  c #131B1B",
"@  c #141B1A",
"#  c #151B1A",
"$  c #141B1B",
"%  c #161B1A",
"&  c #171B1A",
"*  c #191B19",
"=  c #1A1B19",
"-  c #1B1B19",
";  c #181B1A",
":  c #191B1A",
">  c #1C1B18",
",  c #1D1B18",
"<  c #1C1B19",
"1  c #1E1B18",
"2  c #1C1C19",
"3  c #1D1C19",
"4  c #1E1C18",
"5  c #1F1C18",
"6  c #1E1C19",
"7  c #221C17",
"8  c #251C16",
"9  c #241C17",
"0  c #251D17",
"q  c #261C16",
"w  c #271C16",
"e  c #261D17",
"r  c #271D17",
"t  c #291C16",
"y  c #281D16",
"u  c #291D16",
"i  c #281D17",
"p  c #291D17",
"a  c #2A1D16",
"s  c #2B1D16",
"d  c #2E1D15",
"f  c #2F1E15",
"g  c #2C1D16",
"h  c #2D1D16",
"j  c #2E1E16",
"k  c #201C18",
"l  c #211C18",
"z  c #221C18",
"x  c #231C18",
"c  c #241C18",
"v  c #301D14",
"b  c #311D14",
"n  c #321D14",
"m  c #301E15",
"M  c #311E15",
"N  c #321E15",
"B  c #331E15",
"V  c #341E14",
"C  c #351E14",
"Z  c #361E14",
"A  c #361F14",
"S  c #371F14",
"D  c #381C11",
"F  c #3A1D11",
"G  c #3B1E11",
"H  c #391F13",
"J  c #3B1E12",
"K  c #3A1F13",
"L  c #3B1F13",
"P  c #3C1E12",
"I  c #3D1E12",
"U  c #3C1F12",
"Y  c #3D1F12",
"T  c #3C1F13",
"R  c #3D1F13",
"E  c #3E1F12",
"W  c #3F1F12",
"Q  c #3E1F13",
"!  c #381F14",
"~  c #391F14",
"^  c #3B1F14",
"/  c #3C2013",
"(  c #3D2013",
")  c #3F2012",
"_  c #3E2013",
"`  c #3F2013",
"'  c #3B2014",
"]  c #3C2014",
"[  c #402012",
"{  c #412012",
"}  c #402013",
"|  c #412013",
" . c #412113",
".. c #422012",
"X. c #422113",
"o. c #432113",
"O. c #442213",
"+. c #422114",
"@. c #432114",
"#. c #432214",
"$. c #442214",
"%. c #452214",
"&. c #452314",
"*. c #462214",
"=. c #462314",
"-. c #472314",
";. c #462315",
":. c #472315",
">. c #472415",
",. c #482415",
"<. c #492415",
"1. c #492515",
"2. c #4A2515",
"3. c #4B2515",
"4. c #4A2516",
"5. c #4B2516",
"6. c #4B2616",
"7. c #4C2516",
"8. c #4C2616",
"9. c #4D2616",
"0. c #4D2716",
"q. c #4D2717",
"w. c #4E2716",
"e. c #4F2716",
"r. c #4E2717",
"t. c #4F2717",
"y. c #502717",
"u. c #502817",
"i. c #512817",
"p. c #532917",
"a. c #512818",
"s. c #512918",
"d. c #522918",
"f. c #532918",
"g. c #532A18",
"h. c #542918",
"j. c #542A18",
"k. c #552A18",
"l. c #552A19",
"z. c #552B19",
"x. c #562A18",
"c. c #562B18",
"v. c #572B18",
"b. c #562B19",
"n. c #572B19",
"m. c #572C19",
"M. c #582C19",
"N. c #5A2C19",
"B. c #582C1A",
"V. c #592C1A",
"C. c #592D1A",
"Z. c #5A2D1A",
"A. c #5B2D1A",
"S. c #5B2E1A",
"D. c #5C2E1A",
"F. c #5C2E1B",
"G. c #5D2E1B",
"H. c #5E2F1B",
"J. c #5F2F1B",
"K. c #5F2F1C",
"L. c #602F1C",
"P. c #61301B",
"I. c #60301C",
"U. c #61301C",
"Y. c #62301C",
"T. c #62311C",
"R. c #63311C",
"E. c #64311C",
"W. c #65311C",
"Q. c #65321C",
"!. c #64321D",
"~. c #65321D",
"^. c #66321D",
"/. c #67321D",
"(. c #66331D",
"). c #67331E",
"_. c #68331E",
"`. c #68341E",
"'. c #69341E",
"]. c #6A341E",
"[. c #6A351E",
"{. c #6A351F",
"}. c #6B351F",
"|. c #6C351F",
" X c #6C361F",
".X c #6D361F",
"XX c #6E361F",
"oX c #6E3720",
"OX c #6F3720",
"+X c #703720",
"@X c #703820",
"#X c #713820",
"$X c #723820",
"%X c #723821",
"&X c #723921",
"*X c #733921",
"=X c #743921",
"-X c #743A21",
";X c #753A21",
":X c #753A22",
">X c #763A22",
",X c #773B22",
"<X c #783B22",
"1X c #783C22",
"2X c #793C22",
"3X c #793C23",
"4X c #7A3C23",
"5X c #7A3D23",
"6X c #7B3D23",
"7X c #7C3D23",
"8X c #7C3E24",
"9X c #7D3E24",
"0X c #7E3E24",
"qX c #7F3E24",
"wX c #7F3F24",
"eX c #803F24",
"rX c #803F25",
"tX c #813F25",
"yX c #814025",
"uX c #824025",
"iX c #834125",
"pX c None",
/* pixels */
"pXpXpXpXpXpXpXpXpX9X9X9X9X9X9X9X9X9X9X9X9X9X9X9X9X9X9XpXpXpXpXpX9X9X9X9X9X9X9X9X9X9X9X9X9XqXqX7X;X`.C.8.#.Y G pXpXpXpXpXpXpXpXpX",
"pXpXpXpXpXpXpXpXpX9X9X9X9X9X9X9X9X9X9X9X9X9X9X9X9X9X9XpXpXpXpXpX9X9X9X9X9X9X9X9X9X9X9X9X9XqXqX7X;X`.C.8.#.Y G pXpXpXpXpXpXpXpXpX",
"pXpXpXpXpXpXpXpXpX9X9X9X9X8X8X9X9X9X9X9X9X9X9X9X9X9X9XpXpXpXpXpX9X9X9X9X9X9X9X9X9X9X9X9X9XqXqX7X;X`.V.8.#.` ` pXpXpXpXpXpXpXpXpX",
"pXpXpXpXpXpXpXpX0X9X9X9X7X7X7X9X9X9X9X9X9X9X9X9X9X9X7X7XpXpXpX9X9X9X9X9X9X9X9X9X9X9X9X9X9XqXqX7X;X_.V.8.#. .&.u.pXpXpXpXpXpXpXpX",
"pXpXpXpXpXpXpXeXwX0X9X9X7X7X7X9X9X9X0X0X0X0X0X9X9X9X7X7X7X8X9X9X9X9X9X9X9X9X9X9X9X9X9X9X9XqXqX7X;X_.V.8.$.$.8.Z.}.pXpXpXpXpXpXpX",
"pXpXpXpXpXpXwXwX0X9X9X9X7X7X7X9X9X9X0X0X0X0X0X9X9X9X7X7X7X9X9X9X9X9X9X9X9X9X9X9X9X9X9X9X9XqXqX7X;X_.V.8.%.>.d.I.+X4XpXpXpXpXpXpX",
"pXpXpXpXpX4X6X6X7X7X7X7X9X9X9X7X7X7X7X6X6X6X7X7X7X7X9X9X9X9X9X9X9X9X9X9X9X9X9X9X9X9X9X9X9XqXqX7X;X).B.6.&.1.z.!.%X6XwXpXpXpXpXpX",
"pXpXpXpX}.+X*X;X,X3X6X7X9X9X9X7X6X3X,X:X-X;X,X3X6X7X9X9X9X9X8X7X7X8X9X9X9X9X9X9X9X9X9X9X9X0XqX7X;X).B.6.&.5.m.(.*X4X7X<XpXpXpXpX",
"pXpXpXd.A.U.(.}.+X;X4X9X0XwX0X9X4X;X+X}.'.}.OX-X3X7X9X9X9X9X7X7X7X7X9X9X9X0X0X0X0X9X9X9X9X0X0X7X;X).B.6.&.5.B._.-X4X<XOXK.pXpXpX",
"P E X.>.0.f.B.J.).OX,X9XeXrXwX9X<X@X).I.F.J.(.OX,X7X0X0X9X9X7X7X7X7X9X9X0X0X0X0X0X0X9X9X9X0X0X7X;X).B.6.=.6.V.`.;X3X=X_.n.>.Y D ",
"E E }  .#.:.6.f.G.'.=X6XwXrXeX7X>X|.K.l.u.j.H.].;X6X0X0X9X9X7X7X7X7X9X9X9X9X9X9X9X9X9X9X9X0X0X7X;X).B.6.&.5.B._.=X,XOXT.d.&.E F ",
"E E ` E E ` +.4.l.Y.XX>X6X0X0X7X;X'.Z.r.,.8.M.(.=X6X0XqX9X9X9X9X9X9X7X6X5X4X3X3X4X6X7X7X9XwXwX7X;X_.B.6.&.4.b.~.+X%X'.F.r.$.E J ",
") ) W E I P E $.r.C.!..X=X3X7X6X;X`.B.5.$.1.l.~.*X6X0XwX0X9X9X9X9X9X6X2X:X%X@X#X*X>X4X7X0XwXwX7X;X_.V.8.&.,.d.H.).`.U.b.6.@.E P ",
"[ [ [ E Y P Y  .,.u.V.U.'.$X<X4X>X'.V.4.$.,.l.!.*X6X0XwX0X9X9X9X9X9X4X;XoX_.!.~.'.+X,X6X0XeXwX7X;X`.V.8.$.&.6.j.A.F.m.u.,. .E Y ",
"[ [ [ W E Y E } #.,.q.j.H.'.*X1X>X].Z.6.$.<.l.~.*X6X0XwX0X9X9X0X0X9X3X#X).G.m.B.L.].=X5X0XeXwX7X;X`.Z.8.#.X.&.4.t.u.9.,.$.} E Y ",
"Q Q Q Q E E Q ` }  .$.1.g.U..X;X=X'.C.8.&.4.b.~.*X6X0XwX0X9X9X0X0X9X<XXXI.j.9.r.n.!.#X4X0XrXeX7X;X'.Z.8.#.` } +.%.&.$.+.| ` E E ",
"~ H K L T R Q E E Y E @.8.V.^.XX.X!.b.4.&.4.b.^.*X6XqXwX0X9X9X0XwX9X<X|.G.t.:.,.f.U.+X4XwXyXeX7X;X'.Z.9.+.E Y Y ` ` ` ` ` ` Q E ",
"m M N V S K R E Y P P ` >.d.F.R.R.A.i.>.$.4.m.).-X9XeXeXwX0X0XeXrX0X2X XF.q.%.;.s.U.@X6XeXuXyX9X>X].A.9.+.Y J P U Y Y Y E E ` ` ",
"0 r p h N S T E E I Y ` $.5.d.b.b.a.4.$.#.5.B._.;X9XyXyXeXwXwXtXyXwX3X.XF.r.%.;.s.U.#X7XyXiXuX0X,X{.S.q.+.Y J P U Y Y E E E ` ` ",
"- 3 k e h C L E W E E `  .&.,.5.4.>.#. .+.5.B.).-X7XeXeXwX0X0XeXeX0X2X XG.r.=.>.d.U.@X6XeXuXyX9X>X].A.9.+.Y P P Y E E E E E ` ` ",
"@ % = k u N K Q [ [ ) ` ` }  .X.X.} E E X.4.n.~.#X<X6X7X5X4X4X6X7X4X;X'.A.r.=.>.s.J..X,X7X0X9X3X&X).V.8.+.E P Y E Q Q ` ` ` ` ` ",
". o & 6 r M K _ [ [ ) E E E E E E Y I E  .<.j.J.'.+X$X%X#X#X#X$X%X#X.XR.n.8.&.=.t.Z.(.XX%X=X*X+X[.U.l.4.X.E Y Y E ` ` ` ` ` ` ` ",
"  o % 3 r M K _ [ [ ) E E E E E E I Y W | -.e.n.J.R.Q.~.W.E.E.Q.~.E.P.N.i.<.O.%.3.h.D.Y.~./.^.E.J.M.t.>. .E Y E E ` ` ` ` ` ` ` ",
". o % 3 r M K _ [ [ ) E E E E E W E W W { O.<.w.p.k.x.c.x.x.x.x.c.x.h.y.2.*.o.o.-.7.i.k.c.n.v.x.p.w.<.$.} E E E E ` ` ` ` ` ` ` ",
"X O & 6 r N K Q [ [ ) E E E E E E E E E ` } +.$.;.>.,.,.,.,.,.,.,.,.>.&.#. .} }  .$.=.>.,.,.,.,.;.&.@. .` E E E E ` ` ` ` ` ` ` ",
"X O & 6 i N K ` [ [ ) Q Q R T L K K K K K K L ^ ' ' ] ] ' ' ' ] ] ' ' ^ L K K K L ^ ' ' ' ' ' ] ] / ( _ _ ) ) ) ) ) ) ) ) ` ` _ ",
"X O & 6 i N K ) { { [ Q T H A V N N N N N N M b b v v v v v v v v v v b M N N N N M b v v v v v n C H T E [ [ [ ) ) ) ) ) ) _ Q ",
"X O & 6 i N K ) { ..{ Q L C m s p i i i i i w w q q q q q q q q q q q w w y i i y w w q q 8 8 q t d V K E [ { { [ [ [ ) ) ) _ Q ",
"X O & 6 i N K ) { ..[ R ! M u x 5 3 3 6 4 4 4 1 1 1 , , , 1 1 , , 1 1 1 4 4 4 4 4 4 1 1 , > > 1 7 y m ! R [ { { [ ) ) ) ) ) _ Q ",
"X O & 6 i N K Q [ [ Q L V g x < & % % % & & & & & & & & & & & & & & & & & & & & & & & & % % % & < x g V L Q Q Q R R R Q Q Q ) ) ",
"X O & 4 i N K Q ) R K C f r 4 ; @ o o O O O O O O O O O O O O O O O O O O O O O O O O O O o o @ ; 5 r f C ! ! ! S ! H L R Q ) ) ",
"X O & 5 p B L R T ! N h r l = # o X X o o o o o o o o o o o o o o o o o o o o o o o o o o X X o # - l i g j f j j m B S L Q [ { ",
"X O & 5 u B L T ! N a 9 5 - & @ o o o o o o o o o o o o o o o o o o o o o o o o o o o o o o o o @ ; < k x 9 9 x 9 r g B ~ Q [ ..",
"X O & 5 p B K K V s x 2 ; % # @ O O O O O O O O O O O O O O O O O O O O O O O O O O O O O O O O @ % & * = - = = - 5 e j Z T ) { ",
"X O & 6 r m A C f e 3 & @ O O @ @ O O O $ $ $ $ $ $ $ $ $ $ $ $ $ $ $ $ $ $ $ $ $ $ $ $ O O O @ @ @ @ # # # @ @ # : k u N ! L R ",
"o O % < c s f f p l * @ o o o O + @ @ @ $ $ $ $ $ $ $ $ $ $ $ $ $ $ $ $ $ $ $ $ $ $ $ $ @ @ @ + O O O O o o X X o % 2 9 s M V C ",
"o O # * 5 9 r e z 2 & O o o o O + @ @ @ $ $ $ $ $ $ $ $ $ $ $ $ $ $ $ $ $ $ $ $ $ $ $ $ @ @ @ + O O O o o o X X o @ * 5 9 i a s ",
"O O # & = 3 4 6 < ; # O O O O O + @ @ @ $ $ $ $ $ $ $ $ $ $ $ $ $ $ $ $ $ $ $ $ $ $ $ $ @ @ @ + O O O O O O o o O @ & = 3 5 k l ",
"O O @ # % & & & % # @ @ O O O O $ $ $ $ $ $ $ $ $ $ $ $ $ $ $ $ $ $ $ $ $ $ $ $ $ $ $ $ $ $ $ $ + O O O O O O O O @ # % & & ; ; ",
"$ $ $ $ $ @ @ @ @ $ $ $ $ $ $ $ $ $ $ $ $ $ $ $ $ $ $ $ $ $ $ $ $ $ $ $ $ $ $ $ $ $ $ $ $ $ $ $ $ $ $ $ $ $ $ $ $ $ $ @ @ @ @ @ ",
"@ @ O O O o o o o O O O @ @ @ $ $ $ $ $ $ $ $ $ $ $ $ $ $ $ $ $ $ $ $ $ $ $ $ $ $ $ $ $ $ $ $ $ $ $ $ $ $ @ @ @ $ O O O o o o o ",
"@ @ O O O O o o O O O O @ @ @ $ $ $ $ $ $ $ $ $ $ $ $ $ $ $ $ $ $ $ $ $ $ $ $ $ $ $ $ $ $ $ $ $ $ $ $ $ $ @ @ @ $ O O O O o o o ",
"@ $ O O O O O O O O O O $ @ $ $ $ $ $ $ $ $ $ $ $ $ $ $ $ $ $ $ $ $ $ $ $ $ $ $ $ $ $ $ $ $ $ $ $ $ $ $ $ $ @ @ $ O O O O O O O ",
"$ $ $ $ $ $ $ $ $ $ $ $ $ $ $ $ $ $ $ $ $ $ $ $ $ $ $ $ $ $ $ $ $ $ $ $ $ $ $ $ $ $ $ $ $ $ $ $ $ $ $ $ $ $ $ $ $ $ $ $ $ $ $ $ ",
"$ $ $ $ $ $ $ $ $ $ $ $ $ $ $ $ $ $ $ $ $ $ $ $ $ $ $ $ $ $ $ $ $ $ $ $ $ $ $ $ $ $ $ $ $ $ $ $ $ $ $ $ $ $ $ $ $ $ $ $ $ $ $ $ ",
"$ $ $ $ $ $ $ $ $ $ $ $ $ $ $ $ $ $ $ $ $ $ $ $ $ $ $ $ $ $ $ $ $ $ $ $ $ $ $ $ $ $ $ $ $ $ $ $ $ $ $ $ $ $ $ $ $ $ $ $ $ $ $ $ ",
"$ $ $ $ $ $ $ $ $ $ $ $ $ $ $ $ $ $ $ $ $ $ $ $ $ $ $ $ $ $ $ $ $ $ $ $ $ $ $ $ $ $ $ $ $ $ $ $ $ $ $ $ $ $ $ $ $ $ $ $ $ $ $ $ ",
"$ $ $ $ $ $ $ $ $ $ $ $ $ $ $ $ $ $ $ $ $ $ $ $ $ $ $ $ $ $ $ $ $ $ $ $ $ $ $ $ $ $ $ $ $ $ $ $ $ $ $ $ $ $ $ $ $ $ $ $ $ $ $ $ ",
"$ $ $ $ $ $ $ $ $ $ $ $ $ $ $ $ $ $ $ $ $ $ $ $ $ $ $ $ $ $ $ $ $ $ $ $ $ $ $ $ $ $ $ $ $ $ $ $ $ $ $ $ $ $ $ $ $ $ $ $ $ $ $ $ ",
"$ $ $ $ $ $ $ $ $ $ $ $ $ $ $ $ $ $ $ $ $ $ $ $ $ $ $ $ $ $ $ $ $ $ $ $ $ $ $ $ $ $ $ $ $ $ $ $ $ $ $ $ $ $ $ $ $ $ $ $ $ $ $ $ ",
"$ $ $ $ $ $ $ $ $ $ $ $ $ $ $ $ $ $ $ $ $ $ $ $ $ $ $ $ $ $ $ $ $ $ $ $ $ $ $ $ $ $ $ $ $ $ $ $ $ $ $ $ $ $ $ $ $ $ $ $ $ $ $ $ ",
"$ $ $ $ $ $ $ $ $ $ $ $ $ $ $ $ $ $ $ $ $ $ $ $ $ $ $ $ $ $ $ $ $ $ $ $ $ $ $ $ $ $ $ $ $ $ $ $ $ $ $ $ $ $ $ $ $ $ $ $ $ $ $ $ ",
"$ $ $ $ $ $ $ $ $ $ $ $ $ $ $ $ $ $ $ $ $ $ $ $ $ $ $ $ $ $ $ $ $ $ $ $ $ $ $ $ $ $ $ $ $ $ $ $ $ $ $ $ $ $ $ $ $ $ $ $ $ $ $ $ ",
"$ $ $ $ $ $ $ $ $ $ $ $ $ $ $ $ $ $ $ $ $ $ $ $ $ $ $ $ $ $ $ $ $ $ $ $ $ $ $ $ $ $ $ $ $ $ $ $ $ $ $ $ $ $ $ $ $ $ $ $ $ $ $ $ ",
"$ $ $ $ $ $ $ $ $ $ $ $ $ $ $ $ $ $ $ $ $ $ $ $ $ $ $ $ $ $ $ $ $ $ $ $ $ $ $ $ $ $ $ $ $ $ $ $ $ $ $ $ $ $ $ $ $ $ $ $ $ $ $ $ ",
"$ $ $ $ $ $ $ $ $ $ $ $ $ $ $ $ $ $ $ $ $ $ $ $ $ $ $ $ $ $ $ $ $ $ $ $ $ $ $ $ $ $ $ $ $ $ $ $ $ $ $ $ $ $ $ $ $ $ $ $ $ $ $ $ ",
"$ $ $ $ $ $ $ $ $ $ $ $ $ $ $ $ $ $ $ $ $ $ $ $ $ $ $ $ $ $ $ $ $ $ $ $ $ $ $ $ $ $ $ $ $ $ $ $ $ $ $ $ $ $ $ $ $ $ $ $ $ $ $ $ ",
"$ $ $ $ $ $ $ $ $ $ $ $ $ $ $ $ $ $ $ $ $ $ $ $ $ $ $ $ $ $ $ $ $ $ $ $ $ $ $ $ $ $ $ $ $ $ $ $ $ $ $ $ $ $ $ $ $ $ $ $ $ $ $ $ ",
"$ $ $ $ $ $ $ $ $ $ $ $ $ $ $ $ $ $ $ $ $ $ $ $ $ $ $ $ $ $ $ $ $ $ $ $ $ $ $ $ $ $ $ $ $ $ $ $ $ $ $ $ $ $ $ $ $ $ $ $ $ $ $ $ ",
"pXpX$ $ $ $ $ $ $ $ $ $ $ $ $ $ $ $ $ $ $ $ $ $ $ $ $ $ $ $ $ $ $ $ $ $ $ $ $ $ $ $ $ $ $ $ $ $ $ $ $ $ $ $ $ $ $ $ $ $ $ $ pXpX",
"pXpXpXpX$ $ $ $ $ $ $ $ $ $ $ $ $ $ $ $ $ $ $ $ $ $ $ $ $ $ $ $ $ $ $ $ $ $ $ $ $ $ $ $ $ $ $ $ $ $ $ $ $ $ $ $ $ $ $ $ pXpXpXpX",
"pXpXpXpX$ $ $ $ $ $ $ $ $ $ $ $ $ $ $ $ $ $ $ $ $ $ $ $ $ $ $ $ $ $ $ $ $ $ $ $ $ $ $ $ $ $ $ $ $ $ $ $ $ $ $ $ $ $ $ $ pXpXpXpX",
"pXpXpXpXpX$ $ $ $ $ $ $ $ $ $ $ $ $ $ $ $ $ $ $ $ $ $ $ $ $ $ $ $ $ $ $ $ $ $ $ $ $ $ $ $ $ $ $ $ $ $ $ $ $ $ $ $ $ $ pXpXpXpXpX",
"pXpXpXpXpX$ $ $ $ $ $ $ $ $ $ $ $ $ $ $ $ $ $ $ $ $ $ $ $ $ $ $ $ $ $ $ $ $ $ $ $ $ $ $ $ $ $ $ $ $ $ $ $ $ $ $ $ $ $ pXpXpXpXpX"
};
