/* XPM */
static char *result[] = {
/* columns rows colors chars-per-pixel */
"64 64 230 2 ",
"   c #040D0E",
".  c #040E11",
"X  c #051113",
"o  c #0B1313",
"O  c #071A1E",
"+  c #151916",
"@  c #171817",
"#  c #1A1916",
"$  c #261A18",
"%  c #231D1B",
"&  c #3B171E",
"*  c #371A1E",
"=  c #1E2018",
"-  c #28231C",
";  c #2C221C",
":  c #33241E",
">  c #392B1D",
",  c #0B1C20",
"<  c #2A1D24",
"1  c #371B22",
"2  c #3D1920",
"3  c #07222B",
"4  c #0B242B",
"5  c #0C292D",
"6  c #172629",
"7  c #142B2E",
"8  c #0F2F38",
"9  c #162D30",
"0  c #153033",
"q  c #1B3031",
"w  c #252929",
"e  c #342621",
"r  c #392922",
"t  c #3C2E23",
"y  c #20302F",
"u  c #3D3123",
"i  c #293532",
"p  c #383733",
"a  c #40171F",
"s  c #421A1F",
"d  c #432A1C",
"f  c #48291F",
"g  c #502F1E",
"h  c #5F341F",
"j  c #60351F",
"k  c #411A21",
"l  c #5F1E28",
"z  c #472925",
"x  c #452D24",
"c  c #453524",
"v  c #453A24",
"b  c #4A3A25",
"n  c #493729",
"m  c #5D3521",
"M  c #58372A",
"N  c #473A32",
"B  c #513F31",
"V  c #653728",
"C  c #72362C",
"Z  c #52472F",
"A  c #444531",
"S  c #4B4431",
"D  c #494538",
"F  c #68432C",
"G  c #744527",
"H  c #6A4734",
"J  c #754333",
"K  c #7B4535",
"L  c #7B4939",
"P  c #765433",
"I  c #1A3D45",
"U  c #683F50",
"Y  c #194957",
"T  c #2B4C4F",
"R  c #1C5363",
"E  c #245663",
"W  c #355C62",
"Q  c #245E70",
"!  c #356469",
"~  c #3E6B6D",
"^  c #2A6B7F",
"/  c #3C707B",
"(  c #474D59",
")  c #535B57",
"_  c #7E5549",
"`  c #6D5452",
"'  c #5A635F",
"]  c #7C6442",
"[  c #74586D",
"{  c #4B666C",
"}  c #426C6D",
"|  c #5B6A6B",
" . c #556970",
".. c #6B726A",
"X. c #8F2B36",
"o. c #A52B3B",
"O. c #AD2B3D",
"+. c #B12C3D",
"@. c #A7393D",
"#. c #BD3D3A",
"$. c #8C4B2A",
"%. c #804736",
"&. c #8E4C35",
"*. c #854B38",
"=. c #8A4B39",
"-. c #964D3A",
";. c #875738",
":. c #96523D",
">. c #9B5639",
",. c #99533E",
"<. c #B0572E",
"1. c #B3582E",
"2. c #BC5B2F",
"3. c #A44C3F",
"4. c #A6573D",
"5. c #AC563A",
"6. c #AD593C",
"7. c #B75E37",
"8. c #BC5C32",
"9. c #B15A3C",
"0. c #876138",
"q. c #97643D",
"w. c #9A683E",
"e. c #B66437",
"r. c #C05D31",
"t. c #D95F38",
"y. c #C36233",
"u. c #CB6336",
"i. c #C4643B",
"p. c #D46637",
"a. c #D86737",
"s. c #DA6836",
"d. c #D36738",
"f. c #D56838",
"g. c #D96A39",
"h. c #DF743C",
"j. c #E56C36",
"k. c #E96E37",
"l. c #E8653B",
"z. c #EB7037",
"x. c #E6773E",
"c. c #EC7138",
"v. c #EC7C3F",
"b. c #8E3645",
"n. c #D73648",
"m. c #E1344A",
"M. c #E9364D",
"N. c #865B4C",
"B. c #9E5740",
"V. c #A74D42",
"C. c #BD4143",
"Z. c #A35D41",
"A. c #B7455B",
"S. c #8B6F4C",
"D. c #986741",
"F. c #996642",
"G. c #AA6846",
"H. c #B86A45",
"J. c #AC7A44",
"K. c #B57745",
"L. c #8D5166",
"P. c #827B60",
"I. c #C64345",
"U. c #D34A4D",
"Y. c #E94546",
"T. c #E7564E",
"R. c #E84853",
"E. c #ED5853",
"W. c #C26C43",
"Q. c #C5794B",
"!. c #DB7D44",
"~. c #EC7E40",
"^. c #EA625D",
"/. c #EE6F61",
"(. c #7B857A",
"). c #B98348",
"_. c #B18A5C",
"`. c #938D70",
"'. c #BA8D66",
"]. c #BDAB6C",
"[. c #C5824C",
"{. c #CC8648",
"}. c #C58A4B",
"|. c #CD8651",
" X c #C59757",
".X c #D99856",
"XX c #ED8041",
"oX c #EC884B",
"OX c #F6984F",
"+X c #FA994F",
"@X c #EC8656",
"#X c #F38E50",
"$X c #E79954",
"%X c #F79756",
"&X c #F99D52",
"*X c #C5A15F",
"=X c #EFA759",
"-X c #EDA85A",
";X c #F3A557",
":X c #FAA154",
">X c #F2AA5B",
",X c #FFAF5D",
"<X c #FFB15E",
"1X c #C4966F",
"2X c #DB9F60",
"3X c #EF8369",
"4X c #C9A767",
"5X c #DBAE6C",
"6X c #C4B271",
"7X c #EAA568",
"8X c #FFB561",
"9X c #FFB969",
"0X c #FCB874",
"qX c #FFC66F",
"wX c #FFCC7D",
"eX c #FFD17C",
"rX c #266B80",
"tX c #296C81",
"yX c #337484",
"uX c #4C868C",
"iX c #548B8E",
"pX c #648E89",
"aX c #C4A188",
"sX c #FBBB82",
"dX c #F9B792",
"fX c #FDC789",
"gX c #FCDA86",
"hX c #FFC79B",
"jX c #FEEA92",
"kX c #FFCDA4",
/* pixels */
"[.[.[.K.[.[.[.[.[.Q.[.[.[.Q.[.[.[.[.[.[.Q.[.Q.[.[.[.[.[.[.Q.[.[.[.[.[.F.u o X X X . .   X X X X . . o X o > q.K.|.}.[.|.[.[.[.[.",
"F.F.w.q.q.q.q.q.q.D.D.F.D.D.q.D.q.D.D.D.F.D.q.D.D.q.q.q.q.D.D.q.q.D.D.P - # * x N A A N x & s k c c z * # - P q.F.D.D.D.F.D.D.D.",
"v u t > t t > t u u t u t u t t t t u t u u t u u t t t u t t t t t c - o 1 C C._.].]._.V.o.o.3.K.H.3.X.* + ; c u u u t t u u c ",
"o = > b c v c c c c c c c c c c c c c c c c c c c c c c c c c c c c c r @ 2 O.^.sXjXjXsX^.m.n.R.%X#XR.o.* + > d d t c c n u # o ",
"o r 0.).J.J.J.J.J.J.J.J.J.J.J.J.J.J.J.J.J.J.J.J.J.J.J.J.J.J.J.J.J.J.J.0.e k O.^.sXjXjXfXE.m.m.E.%X%XE.+.a * C $.$.>.w.).J.0.r X ",
"X v ).-X-X-X=X=X=X=X=X=X-X-X=X=X=X=X=X=X=X=X=X=X>X-X=X=X=X=X=X=X>X>X-X).u 2 +.^.0XfXfX7XE.m.m.T.%X%XT.O.& > <.j.j.x.$X-X>X).v X ",
". b }.<X<X<X<X<X<X<X<X<X<X<X<X<X<X<X<X<X<X<X<X<X,X,X,X<X<X<X<X<X<X<X8X}.v 2 +.R./.3X3X/.R.m.n.T.%X%XE.O.a d <.k.z.XX:X<X<X}.b X ",
". b }.<X<X<X<X<X<X,X,X,X<X,X,X<X,X,X,X<X,X,X,X,X,X8X,X<X,X,X<X,X<X<X8X}.v 2 o.m.U.U.R.U.n.n.n.T.3X%XE.O.& d <.k.k.v.:X<X8X}.v X ",
"X b }.<X,X,X,X,X,X,X,X,X,X,X,X,X,X,X,X,X,X,X,X,X,X,X,X,X,X,X,X,X<X<X<X}.v * X.C.C.C.C.C.C.C.C.U.!.~.U.@.* d <.k.k.v.:X<X<X}.b   ",
". n }.8X,X,X,X,X,X,X,X,X,X,X,X,X,X,X,X,X,X,X,X,X,X,X,X,X,X,X,X,X<X<X<X}.b $ K 4.V.3.3.,.3.,.,.9.!.!.e.C - > <.k.k.v.&X<X<X}.b   ",
". N 1X0X,X,X,X,X,X,X,X,X,X,X<X,X,X,X,X,X,X,X,X,X,X,X,X,X,X<X,X,X,X<X<X}.c % F :.:.:.-.:.:.:.:.4.t.u.6.F $ > <.z.k.v.&X<X<X}.b X ",
"  D 1XdX9X,X,X,X,X,X,X,X,X,X,X,X,X,X<X,X,X8X,X,X,X,X,X,X,X,X,X,X,X<X<X}.Z ; J >.,.:.,.:.:.:.:.6.d.d.9.G ; d <.z.j.v.&X<X<X}.v X ",
"  D aXhX9X,X,X,X,X,X,X,X,X,X,X,X,X,X,X,X,X,X,X,X<X,X,X,X,X,X,X,X,X<X<X.X;.F >.6.9.6.6.6.6.6.6.7.d.s.i.-.V C y.j.j.~.&X<X<X}.b X ",
"  D aXhX0X,X,X,X,X,X,X,X,X,X,X,X,X,X,X,X,X,X,X,X,X,X,X,X,X,X,X,X,X,X,X=X.X{.f.s.p.p.p.p.p.p.p.a.l.g.a.u.8.2.s.j.j.~.:X<X<X}.v X ",
"  S aXkXsX0X0X0X0X9X<X,X,X,X,X,X,X,X,X,X,X,X,X,X,X,X,X,X,X,X,X,X,X,X,X<X<X;XoXXXv.XXXXXXXXXXXX~.XXv.v.XXXXXXXX~.x.oX:X8X<X}.b . ",
"  ( aXkXhXhXhXhXhXdX9X,X,X,X,X8X,X<X,X,X,X8X,X<X,X<X,X<X<X,X<X<X<X,X<X<X<X,X:X:X:X:X:X:X:X:X:X:X:X:X:X:X:X:X:X:X:X:X,X<X8X}.b . ",
"  N 1XdXdXdXdXdXdXsX;X%X%X&X&X&X&X&X&X&X&X&X&X&X&X:X&X&X:X&X&X:X&X&X:X&X&X&X&X:X:X&X&X&X:X:X:X:X:X:X:X;X:X:X:X:X:X:X:X:X:XK.b   ",
"  x H.@X@X@X@X@X@XoX~.~.~.XX~.~.~.~.~.~.~.~.~.~.~.~.~.~.~.~.XXv.XX~.~.XXXX~.XXXX~.XXXXv.~.~.~.XX~.~.~.v.~.XXv.~.~.~.XXXXXXe.d X ",
"X d <.k.j.j.j.j.j.z.k.j.j.j.j.j.j.j.j.j.j.j.j.j.k.j.k.j.j.j.k.j.j.j.j.j.j.j.j.j.k.k.j.j.j.j.j.j.j.k.j.j.j.j.j.k.j.j.j.j.z.<.d X ",
"X d <.k.j.j.k.k.k.k.k.j.j.s.j.j.j.j.j.j.j.j.j.x.k.k.k.z.j.j.k.k.k.j.k.k.z.j.k.j.k.k.j.k.j.j.k.j.z.k.k.j.k.k.z.z.k.j.j.k.j.1.d X ",
"X d 1.k.k.s.u.2.2.8.2.y.h.v.x.g.y.y.!.oX~.~.i.2.2.2.2.2.2.y.i.i.W.i.y.8.2.2.2.2.2.e.d.Q.W.W.8.2.2.2.2.2.2.2.2.2.8.r.s.k.z.<.d X ",
"X d 1.z.k.y.$.j m h V $.!.&X+X!.$.*..X0X0X X;.h h j j j j H ` ....` H j h h h h h H ] `.`.S.H V j m j j j V j V j $.y.c.z.<.d X ",
"X d <.z.z.1.f # # # # Z }.,X<X}.b Z 6XgXgX6XZ @ = w w - % y W ^ ^ W y $ * & s * % i  .iXiX| i $ ; ; : ; % # # # # g 1.c.z.<.d X ",
"X d 1.z.z.<.d   .     v }.<X<X}.v A 6XjXjX6XD , T T T T , 4 R ^ ^ R 3 $ l X.C l $ 0 ~ iXiX~ 9 @ x M M r #   X X . d <.c.c.1.d X ",
"X d <.c.c.1.d X X X . b }.8X8X}.c A ].jXjX6XS 7 W (./ ! 9 4 E ^ ^ R 5 & o.n.n.X.* q ~ iXiX} q $ V =.N.V e + o X . d <.c.c.<.d X ",
"X d 1.c.z.1.d X X o X b }.8X<X}.c A 6XjXjX4XS q ~ iXiX~ y 4 E ^ ^ R 5 s O.M.M.O.s q ~ iXiX} q ; K ,.3.*.M r # X X d 1.c.c.<.d X ",
"X d <.z.c.1.d o X X X b }.8X<X}.v A 6XjXjX6XZ 9 ~ iXiX~ y 5 R ^ ^ R 5 s +.M.M.+.s 0 ~ iXiX~ q ; J ,.B.-.=.V % X X d <.c.c.<.d X ",
"X d 1.z.c.1.d X X o X b }.<X<X}.c A 6XjXjX6XS 9 ~ iXiX~ y 4 E ^ ^ R 5 s +.M.M.O.& 7 ! uXuX! 7 ; J ,.,.,.B.L e X X d 1.c.c.<.d X ",
"X d <.c.c.<.d X o o X b }.<X<X}.c A 6XjXjX6XS 9 ~ iXiX} y 4 R ^ ^ E 7 s O.M.M.O.s 7 E yXyXE 7 : J ,.,.,.,.K : o X d <.c.c.<.d X ",
"X d <.c.c.<.d o % - o v }.8X<X}.c A 6XjXjX6XA 7 ~ iXiX~ y 4 R ^ ^ R 3 a O.M.M.O.s 5 E yXyXE 5 ; J ,.,.,.:.L z % o d <.c.c.<.d X ",
"X d <.z.c.1.d % M M % v }.8X<X}.u A 6XjXjX6XS 7 ~ iXiX~ 7 4 R ^ rXR 4 a O.M.M.O.a 7 ! uXuX! 9 $ C B.,.-.:.-.L M % > <.z.c.<.d X ",
"X d <.z.c.7.m z -.-.m G {.:X:X{.G H 4XwXwX4XP N ..(.(...Z b ) |  .) n j #.Y.Y.#.j N ..(.(...Z M &.6.6.6.6.6.9.-.z m 8.c.c.<.d X ",
"X > <.z.z.u.&.&.8.u.8.y.h.XXXXh.y.y.!.oXoX~.e.7.H.Q.Q.W.7.7.H.H.H.H.e.2.t.l.l.t.8.7.W.Q.Q.W.7.8.u.f.p.d.d.d.a.7.&.&.i.z.z.<.d X ",
"X x <.z.k.u.6.4.i.f.a.f.p.p.d.u.d.d.f.p.u.p.g.d.p.p.p.p.f.d.d.p.p.a.f.f.f.p.p.p.p.p.d.d.d.d.d.p.d.p.d.d.d.a.a.i.4.6.p.k.z.<.d X ",
"X d <.z.k.p.5.,.6.6.9.6.6.6.4.6.6.6.5.5.6.6.6.6.5.5.6.9.6.9.5.5.6.6.9.6.6.6.6.6.6.6.5.4.6.6.6.5.6.6.6.6.6.Z.4.V.B.V.d.k.z.<.d X ",
"X d <.z.k.p.5.,.:.B.,.,.,.:.B.=.:.B.,.,.:.:.-.:.,.,.,.:.:.:.-.B.,.,.,.>.,.:.:.:.-.B.-.B.B.-.:.B.,.,.:.B.-.B.-.B.-.6.d.z.z.1.d X ",
"X d <.z.k.p.6.,.B.B.-.B.B.B.B.B.:.:.:.B.-.-.B.:.,.,.:.:.-.B.B.B.,.,.-.,.B.:.-.-.B.=.B.B.:.:.=.B.:.B.B.-.B.B.B.B.,.6.d.k.z.<.d X ",
"X d <.z.k.u.,.L K K K K %.=.X.V.V.-.*.*.4.G.G.:.&.=.-.V.V.B.K K %.%.%.%.L =.F.G.G.F.*.%.-.V.V.-.*.L %.%.K K %.*.L ,.u.k.z.<.d X ",
"X d <.c.k.y.J z z n x x n C b.n.I.@.V V K.|.|.K.F V @.I.I.@.V c f x z z z H '.5X5X_.H V @.I.I.V.V z x x z x n x x C y.z.z.<.d X ",
"X d <.c.z.8.x @ # # # # # z b.n.U.b.2 B [.>X,X).n z o.m.m.+.z + + w 6 6 @ S ].gXfX].D z o.m.m.O.k % % - # # # @ + g 1.c.z.<.d X ",
"X d <.c.c.1.d X X X X X X w U L.L.U < c }.8X8X}.u 2 O.M.M.O.s O 8 I I 8 O S  XeXeX*XA & O.M.M.O.k # r t # o X X X d 1.z.c.<.d X ",
"X d <.c.c.<.d X o o + + o 6 W  . .( 6 c }.8X<X}.v 2 O.M.M.O.s 5 Y ! Q Y 4 b }.qX8X Xv & O.M.M.O.2 w V F e o o o X d 1.c.c.<.d X ",
"X d <.c.c.1.d X X + e e @ w ( [ [ U 6 n }.<X<X}.v 2 o.M.M.O.k 5 R tXrXR 4 b }.<X<X}.v * O.M.M.O.k $ J *.M e @ . X d 1.c.c.<.d X ",
"X d <.c.c.1.d X o e V V $ 1 b.n.A.b.< z }.8X<X}.v 2 O.M.M.+.s 5 R rXrXR 4 b }.<X<X}.v & O.M.M.O.2 e J B.=.V ; o X d 1.c.c.<.d X ",
"X d <.c.z.<.d o % M *.J < 1 b.A.A.b.< v }.8X8X}.c 2 O.M.M.O.2 4 R tXtXR 3 n  XqXqX Xv & O.M.M.O.2 - J B.B.*.n % o d 1.c.c.<.d X ",
"X d <.c.c.1.d % M *.-.K < 6 W  . .T 6 v }.<X<X}.c & O.M.M.O.s 5 R tXtXR 3 S 4XgXgX4XS & O.M.M.O.2 - C B.:.:.*.M % d 1.c.c.<.d X ",
"X d <.c.k.7.m x -.9.9.&.V n )  . .) n G {.:X,X{.G V #.Y.Y.#.C c { | | ) n P 4XwXeX*XP V #.m.Y.#.C M &.Z.6.6.9.&.x m 7.z.c.<.d X ",
"X d 1.z.z.u.&.&.7.s.s.u.2.9.H.H.H.H.e.y.j.XX~.h.r.r.t.l.l.t.8.e.H.H.W.H.7.y.!.#XoXoXe.2.t.l.j.t.r.8.u.f.d.a.a.7.&.-.y.z.z.<.d X ",
"X d <.z.k.p.6.4.i.f.f.f.g.s.s.g.g.g.s.a.p.p.d.d.d.p.u.d.d.f.f.a.a.s.s.p.p.p.p.p.p.s.f.g.f.f.p.p.s.s.s.p.d.a.a.u.V.6.d.z.z.<.d X ",
"X d <.z.z.p.6.B.6.6.6.6.9.Z.9.9.9.9.5.5.5.5.6.6.6.6.4.6.6.6.9.9.5.5.9.6.9.6.5.6.5.9.Z.6.6.6.6.6.5.5.5.6.6.9.Z.9.B.6.d.z.z.<.d X ",
"X d <.z.z.u.-.J J L J K K J K K H P ` ] N.N.L *.Z.G.G.4.=.L _ _ N._ L L N.N.N.N.L K J J J J J P _ _ N._ K K J K K &.u.z.z.<.d X ",
"X d <.z.z.2.V e e e e e e e e e > p ' (...| p V K.$X$XK.M t W { { ( p N | ....' N : : ; e e > u ( { { ( p e > e e V 8.c.z.<.d X ",
"X d <.z.c.1.f o o # % ; % e w $ + y } (.(.} y v }.<X<X}.b 5 R ^ ^ E 6 q } iXiX} y # > c v > = 5 R ^ ^ R 7 o o o o f 1.c.z.<.x X ",
"X d <.c.c.1.d . X % z V V V V z = q ~ iXuX~ 7 v }.<X<X}.b 3 R ^ ^ R 4 6 ~ iXiX~ 0 : P J.J.P > 5 R ^ ^ R 7   X   X d <.z.z.<.d X ",
"X d <.c.c.<.d X @ r C N.=.=.=.C - q yXiXuX~ 0 v }.9X9X}.v 3 R ^ ^ R 4 q ~ iXiX~ 7 u ).-X-X).u 4 R ^ ^ R 5 o # + o d 1.z.z.<.d X ",
"X x <.z.c.1.> # t V %.B.B.B.B.J = 5 ~ iXuX~ 0 Z *XeXeX*Xv 3 R ^ ^ E 4 6 ~ iXiX~ 7 v }.8X<X}.v , R ^ ^ R 3 # x x # > 1.c.z.<.d X ",
"X d 1.z.c.1.f : J B.Z.Z.Z.Z.Z.*.d p | pXpX(.i Z 6XjXeX4XZ i W / / W i p | pXpX(.i Z {.8X8X XZ i W ^ / W i > P J e x 1.c.c.<.d X ",
"X d <.z.c.y.V H G.Q.Q.Q.Q.Q.Q.K.0.] `.`.`.`.] w.5XeXeX5XJ.P (.`.`.P.] N.`.`.`.`.] q.$X<X<X$Xw.] ..`.`.`.] q.K.G.F C 8.z.c.1.d X ",
"X d <.z.z.u.-.>.|.;X$X$X$X$X$X$X.X.X.X-X5X.X.X$X<X8X8X>X.X.X.X.X2X.X.X.X2X-X2X2X.X$X;X,X<X;X$X.X$X2X.X.X.X.X$X{.q.,.u.k.z.<.d X ",
"X > 1.z.z.a.i.W.oX&X+X&X&X&X+X&X&X&XOX+XOXOX+X+XOXOXOXOX+X+X+XOXOXOXOX&XOXOXOX&X+XOXOXOXOXOXOXOX+X+X+X+X+X+X&XoXW.r.s.k.z.<.d X ",
"o d <.z.z.j.f.g.x.~.v.~.v.v.v.v.v.~.v.v.v.v.~.~.~.~.v.v.~.~.v.v.v.v.~.~.~.~.~.~.v.v.v.x.v.v.v.v.XXv.v.v.v.XXv.x.g.g.g.k.z.<.d X ",
"; V 1.z.j.k.j.j.j.j.j.j.k.j.j.j.j.s.j.j.j.j.j.j.j.j.j.j.j.j.j.j.j.j.j.j.j.j.j.j.j.j.j.j.j.j.j.j.j.j.j.j.h.j.j.j.k.j.k.k.j.8.V : ",
"J &.u.z.j.j.j.j.j.s.j.j.j.j.j.j.j.j.j.j.j.j.j.j.j.j.s.j.j.j.j.j.j.j.j.s.j.j.j.j.j.h.j.j.j.s.j.j.j.j.j.j.j.j.j.j.j.j.j.j.k.u.&.J ",
",.6.d.j.j.j.j.j.j.j.j.j.j.j.j.j.j.j.j.j.j.j.j.j.j.j.j.j.j.j.j.j.j.j.j.j.j.j.j.j.j.j.j.k.j.k.j.j.j.j.j.j.j.j.j.j.j.j.j.k.j.d.6.:."
};
