/* XPM */
static char *result[] = {
/* columns rows colors chars-per-pixel */
"64 64 196 2 ",
"   c #061010",
".  c #071111",
"X  c #091111",
"o  c #091212",
"O  c #0A1212",
"+  c #0A1313",
"@  c #0B1313",
"#  c #0C1414",
"$  c #0D1414",
"%  c #0D1515",
"&  c #0E1717",
"*  c #101717",
"=  c #101718",
"-  c #111818",
";  c #111819",
":  c #121819",
">  c #131A1A",
",  c #141A1A",
"<  c #141A1B",
"1  c #151B1B",
"2  c #151B1C",
"3  c #181E1E",
"4  c #191E1F",
"5  c #1A1F1F",
"6  c #1B2020",
"7  c #1C2121",
"8  c #1E2121",
"9  c #1C2122",
"0  c #1C2223",
"q  c #1E2222",
"w  c #212324",
"e  c #212424",
"r  c #212425",
"t  c #222525",
"y  c #222527",
"u  c #232527",
"i  c #232727",
"p  c #242728",
"a  c #252828",
"s  c #252829",
"d  c #272929",
"f  c #27292A",
"g  c #282A2A",
"h  c #282A2B",
"j  c #2B2A2A",
"k  c #282B2C",
"l  c #2A2B2C",
"z  c #2B2C2D",
"x  c #2E2E30",
"c  c #303031",
"v  c #323132",
"b  c #333233",
"n  c #333334",
"m  c #343334",
"M  c #353335",
"N  c #343435",
"B  c #353435",
"V  c #363436",
"C  c #363536",
"Z  c #373536",
"A  c #383637",
"S  c #383638",
"D  c #3D393A",
"F  c #3D393C",
"G  c #3D3C3E",
"H  c #3F3C3E",
"J  c #403C3E",
"K  c #443F41",
"L  c #444042",
"P  c #454042",
"I  c #464143",
"U  c #444144",
"Y  c #454144",
"T  c #474244",
"R  c #474345",
"E  c #4E4140",
"W  c #4F4241",
"Q  c #494345",
"!  c #4B4446",
"~  c #4C4547",
"^  c #4D4547",
"/  c #4D4647",
"(  c #4F4647",
")  c #4A4549",
"_  c #4B4549",
"`  c #4C4549",
"'  c #4C4649",
"]  c #4D4649",
"[  c #4E4649",
"{  c #4E4749",
"}  c #4C474A",
"|  c #4D474B",
" . c #4E474A",
".. c #4F474A",
"X. c #4F474B",
"o. c #4E494B",
"O. c #4F494B",
"+. c #4F4A4C",
"@. c #504647",
"#. c #514647",
"$. c #534647",
"%. c #554746",
"&. c #564746",
"*. c #574746",
"=. c #5F4540",
"-. c #584947",
";. c #5B4946",
":. c #5D4946",
">. c #514749",
",. c #544749",
"<. c #50494B",
"1. c #514A4C",
"2. c #544C4E",
"3. c #604945",
"4. c #644A44",
"5. c #654A44",
"6. c #654A45",
"7. c #6C4B43",
"8. c #6F4C43",
"9. c #684B44",
"0. c #694B44",
"q. c #684B45",
"w. c #6A4B44",
"e. c #764C42",
"r. c #764D42",
"t. c #7B4D41",
"y. c #794D42",
"u. c #7C4D41",
"i. c #7C4E41",
"p. c #7E4E41",
"a. c #675349",
"s. c #67534A",
"d. c #695449",
"f. c #69554A",
"g. c #844E3F",
"h. c #884F3F",
"j. c #8D503F",
"k. c #8F503E",
"l. c #8E503F",
"z. c #8F503F",
"x. c #8F513F",
"c. c #90513E",
"v. c #91513E",
"b. c #92513E",
"n. c #93513E",
"m. c #97523D",
"M. c #95513E",
"N. c #96513E",
"B. c #96523E",
"V. c #97523E",
"C. c #97533E",
"Z. c #98523D",
"A. c #99523D",
"S. c #9A523D",
"D. c #9B523D",
"F. c #98523E",
"G. c #9A543E",
"H. c #9C583F",
"J. c #804E41",
"K. c #814F42",
"L. c #854F40",
"P. c #864F40",
"I. c #884F40",
"U. c #895040",
"Y. c #9D5940",
"T. c #9E5840",
"R. c #A15C41",
"E. c #A25C40",
"W. c #A35D41",
"Q. c #A35E41",
"!. c #A35E42",
"~. c #996B4B",
"^. c #9A6C4D",
"/. c #A66043",
"(. c #A66143",
"). c #A76245",
"_. c #A86343",
"`. c #A86344",
"'. c #A96344",
"]. c #A96444",
"[. c #AA6545",
"{. c #AB6546",
"}. c #B06B44",
"|. c #B47047",
" X c #B57047",
".X c #B47048",
"XX c #B67149",
"oX c #B5724A",
"OX c #B6734B",
"+X c #BA7448",
"@X c #BF7A49",
"#X c #BE794B",
"$X c #BF7A4B",
"%X c #C5804D",
"&X c #C5814D",
"*X c #C68350",
/* pixels */
"&X&X|.V.V.V.V.V.F..X&X$XY.V.V.V.F..X&X$XY.V.`.%X%X`.V.V.V.V.`.%X%X`.V.V.V.V.V.V.V.V.V.Y.#X*XOXF.V.V.V.H.+X@X}.F.V.V.V.V.F..X&X&X",
"*XXXR.V.V.V.V.V.C.Q.{.).G.V.V.V.C.Q.{.).G.V.T._._.T.V.V.V.V.T._.].T.V.V.V.V.V.V.V.V.V.G.(.[.Q.C.V.V.V.G./.'.E.V.V.V.V.V.C.R. X&X",
"oX!.V.V.V.V.V.V.V.V.N.m.Z.m.N.V.V.N.m.Z.m.N.m.Z.m.N.V.B.V.Z.Z.V.B.V.V.V.V.V.V.V.V.V.N.m.Z.m.N.V.V.N.m.Z.m.N.V.V.V.V.V.V.V.V.W..X",
"F.C.B.m.m.m.B.V.V.V.m.M.l.n.m.V.V.m.n.l.M.m.n.l.M.m.V.m.N.c.c.N.m.V.V.V.V.m.m.V.V.B.m.M.l.n.m.V.V.m.n.l.M.m.V.V.V.B.m.m.m.B.C.F.",
"V.V.V.N.N.N.V.V.V.V.Z.l.3.p.A.V.V.A.p.3.j.S.p.3.l.Z.V.m.N.7.7.N.m.V.V.V.B.N.N.B.V.V.Z.l.3.p.A.V.V.A.p.3.l.Z.V.V.V.V.N.N.N.V.V.V.",
"V.N.A.b.8.P.S.V.B.N.A.l.%.t.D.V.V.D.i.( 4.w.;.%.z.A.N.m.Z.5.5.Z.m.N.N.m.Z.y.y.A.A.D.h.4.( i.D.V.V.D.t.%.l.A.N.B.V.S.P.8.b.A.N.V.",
"V.A.k.e.#.q.U.Z.A.A.k.r.,.0.h.Z.Z.I.w.` ) ) ) $.r.z.S.M.J.:.:.J.M.A.A.M.K.;.;.u.i.p.0.) ` w.I.Z.Z.h.0.,.r.k.A.A.Z.U.q.#.e.k.A.V.",
"m.n.e./ ' U =.j.j.z.r.~ P R 6.j.j.5._ ] ] ] ] ] / r.v.L.%.Y Y %.L.l.x.g.W R ] / / / ] ] ] _ 5.j.j.6.R P ~ r.z.j.j.=.U ' / e.n.m.",
"N.8.@.' ~ f j &.&.*.,.L 9 C >.&.&.@.~ ~ ~ ~ ~ ~ ~ $.*.%.^ f f ^ %.&.-.E 8 C  .` ` ` ~ ~ ~ ~ @.&.&.>.C 9 L ,.*.&.&.j f ~ ' @.8.N.",
"9.%.} Q l : ; k R +.H e % 3 N } | O.H p p y w h Q o.o.R g & & g R +.G 0 @ 2 n  ...<.H p p H O.| } N 3 % e H +.R k ; : l Q } %.9.",
") ' P c * O O * c A s O @ X 5 B B Z s O o 4 t p b V V b p u u p v V x t i t h m B Z s o o s Z B B 5 X @ O s A c * O O * c P ' ) ",
"]  .B # @ @ @ # # # # # # @ # # # # # @ # B <.K 1 + + 1 K  .] P 7 @ p ~ ~  .S , $ # # # # # # # # # @ # # # # # # @ @ @ # B  .] ",
"] ..B # @ # # @ @ @ @ # # # @ @ @ @ @ @ # B <.K < O O < K  .] ~ L q t ~ ] ] ! F > O @ # # @ @ @ @ @ # # # @ @ @ @ # # @ # B ..] ",
"] <.Z # @ # # # # # # # # # # # # # # @ # 6 s e & @ @ & r J <.X.<.u y  .] ~ O.T 1 O # # # # # # # # # # # # # # # # # @ # Z <.] ",
"~ J s # @ # # # # # # # # # # # # # # # @ O o O @ # # @ O s Z B m 3 3 S ! O.I c - @ # # # # # # # # # # # # # # # # # @ # s J ~ ",
"~ s O # # # # # # # # # # # # # # # # # # # # # # # # # # # # % , 1 = , F T c # @ @ # # # # # # # # # # # # # # # # # # # O s ~ ",
"~ a o # # # # # # # # # # # # # # # # # # # # # # # # # # @ O > D T c $ > 1 - @ @ # # # # # # # # # # # # # # # # # # # # o a ~ ",
"~ i . @ # # # # # # # # # # # # # # # # # # # # # # # # # # O 1 T 2.A # O O @ @ # # # # # # # # # # # # # # # # # # # # @ . i ~ ",
"~ M 5 # @ # # # # # # # # # # # # # # # # # # # # # # # # # @ ; c A d # @ # # # # # # # # # # # # # # # # # # # # # # @ # 5 M ~ ",
"]  .B # @ # # # # # # # # # # # # # # # # # # # # # # # # # @ # # # # # # # # # # # # # # # # # # # # # # # # # # # # @ # B  .] ",
"]  .B # @ # # # # # # # # # # # # # # # # # # # # # # # # # # @ @ @ @ # # # # # # # # # # # # # # # # # # # # # # # # @ # B ..] ",
"~ M 5 # @ # # # # # # # # # # # # # # # # # # # # # # # # # # # # # # # # # # # # # # # # # # # # # # # # # # # # # # @ # B  .] ",
"~ i . @ # # # # # # # # # # # # # # # # # # # # # # # # # # # # # # # # # # # # # # # # # # # # # # # # # # # # # # # @ # C O.] ",
"~ a o # # # # # # # # # # # # # # # # # # # # # # # # # # # # # # # # # # # # # # # # # # # # # # # # # # # # # # # # @ # c Q ~ ",
"~ s O # # # # # # # # # # # # # # # # # # # # # # # # # # # # # # # # # # # # # # # # # # # # # # # # # # # # # # # # @ # * z ~ ",
"~ J s # @ # # # # # # # # # # # # # # # # # # # # # # # # # # # # # # # # # # # # # # # # # # # # # # # # # # # # # # # @ . p ~ ",
"] <.Z # @ # # # # # # # # # # # # # # # # # # # # # # # # # # # # # # # # # # # # # # # # # # # # # # # # # # # # # # # @ . p ~ ",
"] ..B # @ # # # # # # # # # # # # # # # # # # # # # # # # # # # # # # # # # # # # # # # # # # # # # # # # # # # # # # @ # * z ~ ",
"]  .B # @ # # # # # # # # # # # # # # # # # # # # # # # # # # # # # # # # # # # # # # # # # # # # # # # # # # # # # # @ # c Q ~ ",
"~ M 5 # @ # # # # # # # # # # # # # # # # # # # # # # # # # # # # # # # # # # # # # # # # # # # # # # # # # # # # # # @ # C O.] ",
"~ y   @ # # # # # # # # # # # # # # # # # # # # # # # # # # # # # # # # # # # # # # # # # # # # # # # # # # # # # # # @ # C O.] ",
"~ z * # @ # # # # # # # # # # # # # # # # # # # # # # # # # # # # # # # # # # # # # # # # # # # # # # # # # # # # # # @ # c Q ~ ",
"~ Q c # @ # # # # # # # # # # # # # # # # # # # # # # # # # # # # # # # # # # # # # # # # # # # # # # # # # # # # # # @ # * z ~ ",
"] O.C # @ # # # # # # # # # # # # # # # # # # # # # # # # # # # # # # # # # # # # # # # # # # # # # # # # # # # # # # # @   y ~ ",
"] O.C # @ # # # # # # # # # # # # # # # # # # # # # # # # # # # # # # # # # # # # # # # # # # # # # # # # # # # # # # @ # 5 M ~ ",
"~ Q c # @ # # # # # # # # # # # # # # # # # # # # # # # # # # # # # # # # # # # # # # # # # # # # # # # # # # # # # # @ # B  .] ",
"~ z * # @ # # # # # # # # # # # # # # # # # # # # # # # # # # # # # # # # # # # # # # # # # # # # # # # # # # # # # # @ # B ..] ",
"~ p . @ # # # # # # # # # # # # # # # # # # # # # # # # # # # # # # # # # # # # # # # # # # # # # # # # # # # # # # # @ # Z <.] ",
"~ p . @ # # # # # # # # # # # # # # # # # # # # # # # # # # # # # # # # # # # # # # # # # # # # # # # # # # # # # # # @ # s J ~ ",
"~ z * # @ # # # # # # # # # # # # # # # # # # # # # # # # # # # # # # # # # # # # # # # # # # # # # # # # # # # # # # # # O s ~ ",
"~ Q c # @ # # # # # # # # # # # # # # # # # # # # # # # # # # # # # # # # # # # # # # # # # # # # # # # # # # # # # # # # o a ~ ",
"] O.C # @ # # # # # # # # # # # # # # # # # # # # # # # # # # # # # # # # # # # # # # # # # # # # # # # # # # # # # # # @ . i ~ ",
"]  .B # @ # # # # # # # # # # # # # # # # # # # # # # # # # # # # # # # # # # # # # # # # # # # # # # # # # # # # # # @ # 5 M ~ ",
"] ..B # @ # # # # # # # # # # # # # # # # # # # # # # # # # # # # # # # # # # # # # # # # # # # # # # # # # # # # # # @ # B  .] ",
"]  .B # @ # # # # # # # # # # # # # # # # # # # # # # # # # # # # # # # # # # # # # # # # # # # # # # # # # # # # # # @ # B  .] ",
"~ M 5 # @ # # # # # # # # # # # # # # # # # # # # # # # # # # # # # # # # # # # # # # # # # # # # # # # # # # # # # # @ # 5 M ~ ",
"~ i . @ # # # # # # # # # # # # # # # # # # # # # # # # # # # # # # # # # # # # # # # # # # # # # # # # # # # # # # # # @ . i ~ ",
"~ a o # # # # # # # # # # # # # # # # # # # # # # # # # # # # # # # # # # # # # # # # # # # # # # # # # # # # # # # # # # o a ~ ",
"~ s O # # # # # # # # # # # # # # # # # # # # # # # # # # # # # # # # # # # # # # # # # # # # # # # # # # # # # # # # # # O s ~ ",
"~ J s # @ # # # # # # # # # # # # # # # # # # # # # # # # # # # # # # # # # # # # # # # # # # # # # # # # # # # # # # @ # s J ~ ",
"] <.Z # @ # # # # # # # # # # # # # # # # # # # # # # # # # # # # # # # # # # # # # # # # # # # # # # # # # # # # # # @ # Z <.] ",
"] ..B # @ # # # # # # # # # # # # # # # # # # # # # # # # # # # # # # # # # # # # # # # # # # # # # # # # # # # # # # @ # B ..] ",
"]  .B # @ # # # # # # # # # # # # # # # # # # # # # # # # # # # # # # # # # # # # # # # # # # # # # # # # # # # # # # @ # B  .] ",
"~ M 5 # @ # # # # # # # # # # # # # # # # # # # # # # # # # # # # # # # # # # # # # # # # # # # # # # # # # # # # # # @ # 5 M ~ ",
"~ y   @ # # # # # # # # # # # # # # # # # # # # # # # # # # # # # # # # # # # # # # # # # # # # # # # # # # # # # # # # @   y ~ ",
"~ z * # @ # # # # # # # # # # # # # # # # # # # # # # # # # # # # # # # # # # # # # # # # # # # # # # # # # # # # # # @ # * z ~ ",
"~ Q c # @ # # # # # # # # # # # # # # # # # # # # # # # # # # # # # # # # # # # # # # # # # # # # # # # # # # # # # # @ # c Q ~ ",
"] O.C # @ # # # # # # # # # # # # # # # # # # # # # # # # # # # # # # # # # # # # # # # # # # # # # # # # # # # # # # @ # C O.] ",
"] ..B + @ # # # # # # # # # # # # # # # # # # # # # # # # # # # # # # # # # # # # # # # # # # # # # # # # # # # # # # @ + B ..] ",
"]  .S > # @ @ @ @ @ @ # # @ @ @ @ @ # # # # # # # @ @ @ @ @ # @ @ @ @ @ @ # # @ @ @ @ # # # @ @ @ @ @ # # @ @ @ @ @ @ # > S  .] ",
"[ { ! F > + # # # # # # # # # # # # @ # # # # # # # # # # # @ # # # # # # @ @ # # # # # # @ # # # # # # # # # # # # + > F ! { [ ",
"~.d.[ ! S B B B B Z s o o s Z B B 5 . o o o o o O s Z B B 5   * c C C c * . . * c A s O o . 5 B B Z s o o s Z B B B B S ! [ f.~.",
"&X~.a.{  ... . . .<.J s s J <... .M i a a a a a s J <... .M y z Q O.O.Q z p p z Q 1.J s a i M  ...<.J s s J <. . . ... .{ s.^.&X",
"&X&X~.[ ] ] ] ] ] ] ~ ~ ~ ~ ] ] ] ~ ~ ~ ~ ~ ~ ~ ~ ~ ] ] ] ~ ~ ~ ~ ] ] ~ ~ ~ ~ ~ ~ ] ~ ~ ~ ~ ~ ] ] ] ~ ~ ~ ~ ] ] ] ] ] ] [ ~.&X&X"
};
