/* XPM */
static char *result[] = {
/* columns rows colors chars-per-pixel */
"64 64 88 1 ",
"  c #061314",
". c #0C1414",
"X c #141412",
"o c #1A1511",
"O c #141917",
"+ c #171B18",
"@ c #1A1C18",
"# c #25160E",
"$ c #29160E",
"% c #26180E",
"& c #2B180D",
"* c #33180C",
"= c #3C1A0A",
"- c #221710",
"; c #23211B",
": c #2C271D",
"> c #2F281E",
", c #342B20",
"< c #3B2F22",
"1 c #421D0C",
"2 c #481F0D",
"3 c #47200E",
"4 c #4B210E",
"5 c #4E2411",
"6 c #4E2813",
"7 c #522511",
"8 c #562913",
"9 c #5C2A14",
"0 c #5E3019",
"q c #622D16",
"w c #682F17",
"e c #673017",
"r c #65331A",
"t c #6B3219",
"y c #6C3A1E",
"u c #75361B",
"i c #78371C",
"p c #77381C",
"a c #7D3B1E",
"s c #473726",
"d c #563F2A",
"f c #6A3D21",
"g c #733D20",
"h c #7F3D20",
"j c #5C422B",
"k c #64472E",
"l c #764022",
"z c #7B4726",
"x c #6C4D32",
"c c #7D5432",
"v c #803C1F",
"b c #813E20",
"n c #844223",
"m c #894726",
"M c #864826",
"N c #8B4926",
"B c #854C2B",
"V c #8D4B28",
"C c #914E2B",
"Z c #86512E",
"A c #8C542E",
"S c #95532D",
"D c #99562F",
"F c #865936",
"G c #895D39",
"H c #995731",
"J c #9D5B33",
"K c #A15F35",
"L c #99653B",
"P c #A46237",
"I c #A56339",
"U c #A9663A",
"Y c #A6683C",
"T c #AB6A3E",
"R c #B16E3E",
"E c #B3703F",
"W c #9A6740",
"Q c #A96E40",
"! c #B26F44",
"~ c #B67342",
"^ c #B97642",
"/ c #BD7A45",
"( c #B67749",
") c #BE7B49",
"_ c #C07C47",
"` c #C27E4B",
"' c #C5814D",
"] c #C68451",
/* pixels */
"'''/`''''''''''''''`'''''''''''''''''''''''''''''''^))/`]]]]]'''",
"]''/'''''']]]'''`]]]]]'''`''''''''''''''E'''''''''''`'``]]]']'''",
"]]'/`''''']]]'''`]]]]]''']''']''''''''''/''''''''''']'''']''''''",
"'''/`''''''''''']`]``'']]]]]]]]'''''']]])''''''''']']]]]]]]'''''",
"'))/'''`__`]]]]'`]`_```']']'']'']'''''''/'']]]''''''''`)`)```'`'",
"'``/'''`_``]]]]'`]]_``]'''```_`''''']'']/)''']]'''''''_)`````'''",
"]]]/`'''`]``'`''`]]]`]']''`___`'''']]]]])'''''''''''`'''``']]]''",
"''')`'']]]`/__'']`]`))``__''`'```''''']'/'''''''''_))))'`]''''''",
"_)/~//))_`///!PCvaaaaaalaavNKR~UJNvvaabhaavap944rAY/^^/)`^_/____",
"/)///`)```/)~QPCnaavabahavvNKURIDbvvavaaahvapq44rAY~)/)//^__////",
"'''']]]]]]]``!ICvaavaahavavNHURKSvvvaaaaaavau9430FU/''`'`/``''''",
"'_)`'']'``)!KHCnvaaahaavahvnVSHCNvvvavavaavapq428lAPE/']`^'']]]]",
"'__``]']))~YHNmbaaaaaaaaaaabnNVmnvaaaaaahavapq418yMDY~))`^'''']]",
"'''````])(QJmaaaaaaaiaiiiaavbbbbvvvaavaahavap9416rpVPY~)`^''''''",
"'''``)``FZzgeqtpabbaiuqqquiaaaaavavavvavabaapq227epnMBZZ`/''''''",
"'']'````ffr088quaabaiw98qtivvaaavvaaaaaaaavau9227wpplgfy`^'']]''",
"']]]]''`2742249tivvapq748wiavaavaaaiaaaaaavapq425euuw964'^''']]'",
"'''''''`=====129wtiapq412quvvvahaaiutttpaavau94148q972=='/''''''",
"''''']]]=1====249quip9417qpavaaaaapwq9euaavauq41248721==`/''''''",
"___//```=======149wipq414quavvavaapq779tivvipq4==22311==/^)_'_/'",
"//)E////*****====49wq9317qpavvvvvat9417wavvapq41========/E_EE_E'",
"'''/`'''$$$*=====17997117wpavvvvvat9317wavbapq41=*=*====_/_)''''",
"'''/`'''oo#$*====12744117wivvvvvvat9337wabbvie41========'''']]''",
"'''^'''' Xo#*======1====4qtpiiiiiue9434euiiit921=*======''''''''",
"'''E'''' .o%*==1=======128qwwwwwww973249etttq82=====1===]''/))''",
"'''E_''' .X%*===========2799999q99852=279999872=========''''`'''",
"]]'E''''..X%*=1======*====1=1==11=======================''''''''",
"]]'/'''' .X%*=====****&**************&*******======1====''')`'`'",
"'''E''''..X%&=1==**&$$#$#$###$##$$$$%%%%####$**==1======]]`//``'",
"'''_''''..X#*====*#oXXXXXXXXXXXXXXXXXXXXXXXXo$*=========]''''`''",
"''___'_' .o#*===*&#XXX.XXX.XXXXX....X.X.XX.XXo&**==*====_/_``_``",
"E'EEE__/..o#*==*&#o.   .   .    X . .....   Xo$&**&**===/^//////",
"'```````..X#*=*-oXX..  .. .  ...   .. . .. ...XooXo-$*==`/```_`'",
"''''']]'..o-**$-XX.............................XXXXo#*==_~]`]'''",
"'']]]```..X-$*-o................................. .X#$**`^`]`'''",
"']]]]```..XoooXX.  ............................... .Xoo#`^]`''''",
"''''''``...XOXXX.................................. XXXXo_^''']]]",
"']'''`''.........................X....................X._/''']]]",
"]]''`]]`............................................ . .`_''`'''",
"'''']]]]... ............................................_^'''''`",
"'''']']'................................................__''']''",
"_'`__''_.......................O........................_/___``_",
"_///E///................................................/E__/___",
"_'_/''`'................................................___'_'`_",
"'''_''''................................................]]]`''''",
"'''_''''....................................X...........``````''",
"'''E_''_...............................................X`]____''",
"'']E`'''...............................................X`````_''",
"'''E''''................................................`]''']''",
"'''_''''........................................X.......]`'`']]'",
"]]]E_'''oOOO........................................XOOO`'''']''",
"']]_''''<,:;O......................................+;:,<`'''''''",
"'''_''''jjs,@......................X........X......@,sdj_'`'``'`",
"'EEE_E__YLcj:......................................:jcLQ/E//////",
"'_'_'E'E~TGx>.................................XX...>kFQ(_/``_``_",
"'''''''_`)Lx,.........XX.....O.................o..O,xW(`'/'``'''",
"'']]]''''']]]]]]'']]]]]`_]]]]]'']'''''']]]]]]]]``]``']]]_/'_`)`'",
"'''''''''''']`]'`'''''``_''''''']]]]''''```]]`]`]`_``''''E'']]]]",
"''`)``'']]]]''``'''''``__`''''`']]]''''```````]]```_`'''_E'`'']'",
"''`)))'''']]''''''']']__E`'''''''``'''''`````]``']''']']'E__`'`'",
"'''''''))/`'']``'`']]]`_/_`]']'']`]`']]]]''```_`'''']]]]'E'``'''",
"'''''''''''`___`'''''''`__`]]`'']]``''']''``````'`''''']`_'']]]'",
"'''''']]'''`````'''''']`_'`]`]``````````''````'']]]']''''/'']]]'",
"'''''']]]'''`'`'''''''`__''']`__`')/`)))`''`'`''']]]]]''`/]`]'''"
};
