/* XPM */
static char *result[] = {
/* columns rows colors chars-per-pixel */
"64 64 196 2 ",
"   c #02090C",
".  c #0A0F0F",
"X  c #030D11",
"o  c #0E1312",
"O  c #121212",
"+  c #1E1A16",
"@  c #161C19",
"#  c #181D1B",
"$  c #231E18",
"%  c #1F231F",
"&  c #22231D",
"*  c #2D221B",
"=  c #34261C",
"-  c #362A1D",
";  c #3A2A1D",
":  c #1F2420",
">  c #222520",
",  c #342F23",
"<  c #3D2D20",
"1  c #343227",
"2  c #3B3224",
"3  c #37362A",
"4  c #3A3529",
"5  c #3E382B",
"6  c #40291F",
"7  c #5E341F",
"8  c #432D21",
"9  c #443424",
"0  c #493625",
"q  c #4B3826",
"w  c #463628",
"e  c #4B3B2A",
"r  c #5B3421",
"t  c #593625",
"y  c #623622",
"u  c #663A23",
"i  c #6A3B23",
"p  c #673A2C",
"a  c #773F28",
"s  c #4E402F",
"d  c #5B422D",
"f  c #4A4738",
"g  c #4C4839",
"h  c #564C3A",
"j  c #63432C",
"k  c #69492D",
"l  c #77422C",
"z  c #79502F",
"x  c #724E32",
"c  c #7C4C36",
"v  c #645034",
"b  c #6A5439",
"n  c #755434",
"m  c #7C5435",
"M  c #7A573A",
"N  c #7C5739",
"B  c #74593C",
"V  c #5D5642",
"C  c #5E5945",
"Z  c #645542",
"A  c #645B45",
"S  c #6A5D45",
"D  c #645D48",
"F  c #715C40",
"G  c #676049",
"H  c #6C634B",
"J  c #78694F",
"K  c #7F6C51",
"L  c #89482D",
"P  c #984E2D",
"I  c #904E34",
"U  c #815634",
"Y  c #885A36",
"T  c #845A39",
"R  c #8A5D3B",
"E  c #93513D",
"W  c #9A533D",
"Q  c #975B3E",
"!  c #A04F2B",
"~  c #A3512C",
"^  c #AF572E",
"/  c #AF582E",
"(  c #B1582F",
")  c #A65935",
"_  c #A95A35",
"`  c #AB593C",
"'  c #BA5C31",
"]  c #B25E39",
"[  c #8C623E",
"{  c #9C663E",
"}  c #AF603E",
"|  c #AA6C3C",
" . c #BC623C",
".. c #BD753E",
"X. c #C96335",
"o. c #C16139",
"O. c #D46635",
"+. c #D66936",
"@. c #D66937",
"#. c #DB6935",
"$. c #DD743B",
"%. c #D9773D",
"&. c #E56C36",
"*. c #E86E37",
"=. c #E7743B",
"-. c #E9733A",
";. c #EB763C",
":. c #985440",
">. c #9C5B41",
",. c #A35E42",
"<. c #A95F41",
"1. c #9B6743",
"2. c #87785B",
"3. c #8A7C5E",
"4. c #AA6242",
"5. c #A56D42",
"6. c #AC6C44",
"7. c #B56441",
"8. c #B36B45",
"9. c #B36F49",
"0. c #AE7244",
"q. c #AF7549",
"w. c #B47545",
"e. c #B97643",
"r. c #B27A43",
"t. c #BD7A45",
"y. c #B57349",
"u. c #BB764A",
"i. c #B6794B",
"p. c #BE7B4A",
"a. c #8B7E60",
"s. c #C07C47",
"d. c #C27E4B",
"f. c #EC7F41",
"g. c #B4844E",
"h. c #AE8A5B",
"j. c #968464",
"k. c #AB936B",
"l. c #BE9661",
"z. c #A79571",
"x. c #A99671",
"c. c #AC9974",
"v. c #B59E75",
"b. c #B6A17A",
"n. c #BAA57D",
"m. c #C5814D",
"M. c #DF8A48",
"N. c #C68451",
"B. c #E78645",
"V. c #EF8444",
"C. c #F28947",
"Z. c #EA914B",
"A. c #F5924B",
"S. c #E79C55",
"D. c #F79B51",
"F. c #F99D52",
"G. c #EDA257",
"H. c #FCA455",
"J. c #FEA958",
"K. c #FEAD5B",
"L. c #FEB05D",
"P. c #EAA962",
"I. c #FBB467",
"U. c #FDB668",
"Y. c #E1AF70",
"T. c #E9B574",
"R. c #F6BD79",
"E. c #F9BF7A",
"W. c #FAC17B",
"Q. c #C2AC81",
"!. c #D9BA8A",
"~. c #DABF92",
"^. c #E3BD87",
"/. c #DDC294",
"(. c #DFC699",
"). c #F0C78E",
"_. c #F2C98F",
"`. c #E1C594",
"'. c #E2C699",
"]. c #E6CA9B",
"[. c #EBCE9C",
"{. c #F4CB91",
"}. c #F1D29E",
"|. c #ECCFA1",
" X c #EED1A0",
".X c #F1D4A1",
"XX c #F3D7AC",
"oX c #F4D9AD",
"OX c #FADBAC",
"+X c #F1D7B0",
"@X c #FBDEB4",
"#X c #F6DDBC",
"$X c #FBDEBB",
"%X c #FCE0BD",
"&X c #FADFC2",
"*X c #FBE0C3",
/* pixels */
"m.m.m.t.m.m.m.m.m.m.m.m.m.m.m.m.m.m.m.m.m.m.m.m.m.m.m.m.m.m.m.m.m.m.m.m.m.m.m.m.t.s.m.m.m.m.N.m.m.m.d.s.d.d.s.d.d.N.N.N.N.N.d.N.",
"N.m.m.t.d.m.m.m.m.m.m.N.N.m.m.m.m.m.N.N.N.m.m.m.m.m.d.m.m.d.m.m.m.m.m.m.m.m.m.m.s.d.m.m.m.m.m.m.m.m.d.d.d.d.d.d.N.d.N.N.N.d.d.N.",
"N.N.m.t.m.m.m.m.m.m.N.N.N.m.m.m.m.N.N.N.N.N.m.m.m.N.N.m.m.N.N.m.m.m.m.m.m.m.m.m.s.d.m.m.m.m.m.m.m.m.m.m.N.d.N.d.N.N.d.N.m.d.N.d.",
"m.m.m.t.d.m.m.d.m.m.m.m.m.m.m.m.d.m.m.d.m.d.m.N.N.N.N.N.N.N.N.m.m.m.m.m.m.N.N.M.s.d.m.m.m.m.m.m.m.N.N.N.N.N.N.N.N.N.N.d.m.N.d.N.",
"m.p.p.t.d.m.m.d.d.d.d.N.N.N.N.N.d.m.d.d.p.d.s.m.m.N.N.m.N.m.m.m.m.m.m.d.d.d.m.N.t.d.m.N.N.N.N.N.m.m.m.m.m.m.d.d.d.d.d.d.d.d.m.m.",
"m.d.m.t.m.m.m.d.d.d.d.N.N.N.N.m.d.N.N.d.d.d.d.N.m.m.d.d.d.d.d.m.m.m.m.N.N.N.N.m.s.d.m.N.m.N.N.m.d.m.m.m.m.d.d.d.d.d.d.d.d.N.m.m.",
"N.N.N.t.d.m.m.m.d.d.d.d.d.m.m.m.d.N.N.N.N.N.N.N.m.d.d.s.s.d.d.m.m.m.m.N.N.N.N.N.s.d.m.m.m.m.m.m.m.m.m.d.m.d.d.m.d.d.m.N.N.N.m.m.",
"m.m.m.t.d.m.N.N.N.N.s.s.s.s.d.m.d.N.N.d.p.p.s.t.s.d.m.m.d.d.d.d.m.m.m.m.m.m.m.m.s.d.m.m.m.m.d.d.m.m.d.s.s.s.d.m.d.d.m.m.d.d.M.d.",
"s.s.t.e.t.s.p.d.d.s.s.t.t.t.t.t.s.s.s.t...t.t.t.e.t.s.t.s.t.t.t.s.s.s.t.s.s.s.s.e.t.s.t.t.s.t.t.s.s.s.t.t.e.t.s.d.s.s.s.s.s.s.s.",
"t.t.t.e.t.p.p.d.s.d.s.d.p.p.s.t.s.s.t.t.t.t.t.t.e.t.t.t.t.d.t.t.s.s.s.t.t.s.t.t.e.u.t.t.t.u.t.t.t.t.t.s.s.t.s.s.t.e.s.d.t.t.t.t.",
"m.m.m.m.N.N.N.N.N.N.N.N.N.N.N.N.m.d.m.m.m.m.m.d.t.m.m.m.m.m.m.m.m.m.d.d.m.d.m.m.s.s.t.s.d.d.d.d.d.m.m.d.d.m.m.m.s.t.d.d.m.m.d.d.",
"m.d.p.d.m.m.N.m.d.N.m.m.N.m.N.d.m.m.m.m.m.m.m.s.t.m.m.m.m.m.m.m.m.m.m.m.m.m.m.m.d.m.d.d.d.d.d.d.m.m.m.m.m.m.m.m.d.e.d.N.N.N.N.N.",
"m.s.d.d.d.m.m.m.N.m.m.m.d.m.m.d.m.m.d.m.m.m.d.d.t.m.m.m.d.d.d.m.m.m.d.d.d.d.d.d.N.d.m.m.d.d.d.d.m.m.N.N.m.m.m.m.d...m.m.N.m.N.N.",
"m.m.m.d.d.d.m.N.N.N.m.d.d.m.m.m.m.m.m.m.m.m.m.d.e.m.m.m.p.p.m.m.d.m.d.s.s.d.s.d.N.d.d.d.d.d.s.s.d.N.N.N.m.m.m.m.d.e.m.m.m.m.m.m.",
"m.m.m.t.p.p.s.d.m.m.d.p.p.5.m ; .               O < U 0.p.N.m.m.m.m.m.d.6.x = o               O 9 m i.m.m.m.m.m.d.t.m.m.m.m.m.d.",
"m.N.N.m.N.d.d.m.m.m.d.d.u.5.m q & @ @ @ @ # @ # & e U 0.p.m.N.N.m.m.s.t.5.m 2 % # # @ @ @ @ @ * e N q.m.N.N.N.m.d.e.m.m.N.N.N.m.",
"m.N.N.N.N.m.m.d.d.d.d.y.5.[ B h h f f f f f f g f v B [ 5.p.N.N.m.t.w.{ R B h f f f f f f f g h v B R 1.N.N.N.m.m.e.m.m.N.N.m.m.",
"m.m.m.m.m.m.d.d.d.s.y.{ m n B K 2.3.3.3.3.3.a.a.2.J B b T 5.p.m.d.w.{ m x S K j.j.3.3.j.3.3.j.2.K S k j m.m.m.m.m.t.m.m.m.m.m.m.",
"m.m.m.m.m.N.N.N.N.N.p.R j s S j.v.Q.Q.Q.Q.Q.Q.Q.b.j.b s j { r.m.m.w.R j s S j.n.n.n.Q.n.n.Q.n.b.j.S w * m.m.m.m.m.t.m.m.m.m.m.m.",
"s.s.s.t.d.d.d.d.d.g.w.m 0 4 H x.~.}..X|.|.|.|.[./.z.V 1 q R w.t.t.0.m 0 5 H b./. X X X X X.X[.!.z.G > . s.s.d.t.e.e.s.s.s.s.s.m.",
"t.e.e...t.t.t.t.e.t.0.z 9 4 G v.[.OX@X@X@X@X@XOX].c.A 1 0 Y 0.e.w.| m 8 3 J n.[.OX%X%X%X@X%XOX`.x.A &   t.t.t.e.t.e.e.e.t.t.t.t.",
"m.m.m.t.d.m.d.m.m.m.r.m 9 5 G c.].@X%X%X&X&X$XOX'.x.C 1 0 Y w.m.p.0.m 9 3 H n.|.OX%X%X%X%X%XXX`.x.D %   m.m.p.t.t.p.t.p.m.m.m.m.",
"m.m.m.t.m.m.m.m.m.m.u.m 9 4 S c.'.@X#X*X&X&X$XoX'.z.h 1 0 [ i.N.m.0.m 0 3 H n.].oX%X%X*X*X$XXX/.x.D %   m.m.d.m.d.d.d.m.N.N.m.m.",
"m.N.m.t.d.m.m.m.m.p.w.m 9 4 G c.'.oX#X#X&X#X#XoX(.z.C 1 0 R i.m.t.0.U 9 3 H n.].oX#X#X%X#XoXXX/.x.G %   m.N.m.m.N.m.m.m.m.m.m.m.",
"m.m.m...d.m.m.m.d.s.w.z 0 3 A c.'.XXXXoX+X+XoX.X(.z.V 1 0 R u.m.m.0.m 0 3 H n.].XXOXoX+XoXoX}./.z.D :   N.N.N.N.N.N.d.s.s.d.d.N.",
"m.m.m.w.m.m.m.m.m.d.w.m 0 2 A c.`.}..X}. X}..X}./.z.C 1 0 Y w.m.m.0.z 8 3 H b.`.}.}. X X X.X[./.x.A >   N.m.N.m.m.m.m.m.d.d.d.d.",
"N.N.m...d.m.m.m.m.N.i.m 9 2 H k.^.{.{._.)._._.{.^.k.V , 0 Y w.d.p.0.U 9 1 H v.)._._.).)._._._.!.k.Z >   d.s.d.d.d.m.m.m.N.N.N.m.",
"N.N.m.| d.m.m.m.m.N.i.m 9 2 B h.T.W.E.R.R.R.E.W.T.h.v , 9 T w.p.p.0.U 0 2 F l.T.W.W.R.R.W.W.W.Y.h.b & X d.p.d.p.d.m.m.d.d.d.d.m.",
"m.m.m...g.m.m.m.m.m.i.M 9 2 b g.P.U.U.I.I.I.I.I.P.q.v - q [ r.m.m.r.U 9 2 n g.I.I.U.I.I.I.I.I.G.g.v &   m.N.N.N.N.N.d.s.s.d.d.N.",
"m.m.m.t.d.m.m.m.N.N.i.m 9 2 k t.G.L.L.K.L.L.L.K.S.r.d , 9 [ r.m.g.| U 9 < n g.G.L.L.L.L.L.I.K.S.r.k & X m.m.N.m.m.m.d.m.d.d.N.d.",
"m.t.m.e.d.s.s.m.m.g.u.m 9 < k | Z.H.J.K.K.K.J.H.Z.| 7 - 9 Y | t.s.| m 9 ; k %.Z.H.J.K.L.K.J.H.M.| j +   d.d.t.d.d.s.t.g.g.m.d.d.",
"t.t.e.e...s.t.t.t.t.0.m 9 ; u _ B.A.H.K.L.K.H.A.f.Q 7 - 9 U | ..e.| z 9 - k / M.A.H.L.L.K.H.A.%._ u + X t.t.t.t.t...t.r.%.m.o.s.",
"d.m.d.d.d.d.d.d.d.d.y.m 9 = y ^ $.C.F.J.J.J.F.C.@.~ r = 0 T w.p.d.0.m 9 ; i / $.A.F.J.K.H.D.V.@.~ r + X m.m.m.m.s.t.m.m.d.m.d.m.",
"m.m.m.m.m.m.m.N.N.N.y.N 9 < y ~ $.V.A.D.F.D.A.f.@.! 7 * 0 [ i.m.t.0.m 9 = i ( $.V.A.D.H.D.A.V.X.~ 7 $ X N.N.m.m.m.e.m.m.m.m.m.m.",
"m.m.N.N.N.m.d.d.d.d.y.n 9 < y ~ #.;.f.V.C.C.V.;.@.~ r * 0 [ i.d.u.5.m 9 - u ( #.;.V.V.V.V.f.;.O.~ 7 + X N.N.m.m.t.w.m.m.m.m.m.s.",
"m.N.N.N.N.d.d.s.s.d.y.N 8 < y ~ #.-.=.=.=.=.-.*.+.~ 7 = e T i.p.m.0.U 9 ; i / #.*.-.=.*.=.-.*.O.~ 7 + X m.m.m.m.d.e.m.m.m.m.m.m.",
"m.m.m.N.m.m.d.d.N.N.i.N 0 < y ~ O.*.&.&.&.&.&.&.+.! 7 * w T w.N.N.q.T 9 = i ^ #.&.&.&.&.&.*.&.O.~ r + X m.m.m.m.s...m.m.m.N.m.N.",
"m.N.m.m.m.d.m.m.N.N.i.N w ; y ~ O.*.&.&.#.&.*.&.+.! 7 = 9 T w.N.p.0.T 9 = i ^ #.&.&.&.&.&.&.&.X.~ y + X m.m.N.N.m...m.m.m.m.N.N.",
"N.N.m.m.N.m.d.N.m.m.y.M w ; y ~ O.*.&.&.&.&.&.&.+.~ 7 * w [ i.m.p.q.U 9 = u ^ #.&.&.&.&.&.&.&.O.~ r $ X m.N.N.N.s.e.m.m.m.m.m.m.",
"m.m.m.m.N.N.N.N.N.N.i.N 0 ; y ~ O.*.*.&.&.&.&.&.O.~ 7 * 9 1.i.m.p.0.U 9 = i ^ #.&.&.&.&.*.*.&.O.~ 7 + X m.m.m.m.g...m.m.m.m.m.m.",
"m.m.m.m.m.m.m.m.m.m.i.m w - r ~ #.*.*.&.&.&.&.&.O.~ r = 0 :.i.d.m.0.N 9 = i ^ #.&.*.&.&.&.*.&.X.P 7 + X m.m.m.d.d.s.m.m.m.m.m.m.",
"d.d.t.m.m.m.p.m.m.p.w.n 9 = y ~ O.*.*.&.&.&.*.&.O.~ r $ w T r.d.p.0.m 9 = i ^ #.*.&.&.&.*.*.&.O.~ 7 + X d.d.d.d.s...d.d.d.d.s.d.",
"s.s.......s.t.t.t.t.0.m 0 8 i ^ O.*.*.&.&.&.&.&.O.~ y = q U 0.e.e.| m 0 ; i ( #.*.&.&.&.&.*.&.O.~ i $ O s.t.s.s.t...t.t.t.e.t.t.",
"d.d.m.t.d.g.m.m.m.N.i.R j t l ( #.*.*.&.&.&.&.*.O.^ a t p 1.w.d.p.w.R d t L ' #.*.*.&.&.*.*.&.@.^ a 6 = d.s.d.d.s.d.d.d.m.m.p.m.",
"m.m.m.t.d.m.m.m.N.m.g.1.c l I ' #.*.&.&.&.&.&.*.#.' L a c 5.p.N.m.p.1.c l I o.#.*.*.&.&.&.*.&.@.' P p t N.N.m.m.m.m.m.m.m.m.m.m.",
"m.m.d.s.m.m.m.m.d.d.p.6.Q E _ X.#.&.&.&.&.&.&.&.#.' ` I >.q.p.N.g.p.9.Q E _ X.#.&.&.&.&.&.&.&.@.o.) I c N.N.N.d.m.m.m.d.m.m.m.m.",
"m.m.d.e.d.m.m.s.p.p.u.y.6.}  .o.O.O.O.O.O.O.O.+.O.s.] <.6.u.d.m.m.d.y.4.4.] X.@.O.O.O.O.O.O.O.O.o.7.>.>.d.N.m.d.m.d.t.p.p.s.m.m.",
"m.m.m.e.d.m.m.d.d.p.m.p.y.8.}  .o.o.o.o.o.o. . . . .7.8.y.w.p.p.m.d.u.9.8.7. .o.o. .o.o. .o.o.' 7.7.8.4.d.s.s.s.d.m.d.m.d.s.s.m.",
"m.N.m.e.d.m.m.m.m.m.d.p.u.y.7.} ] ` ` ` ` ` ` ` ` 7.8.9.u.p.p.p.d.d.d.p.y.8.} ` ` ` ` ` ` ` ` ` 7.8.u.d.d.d.d.d.d.d.d.N.d.N.N.d.",
"m.m.m.s.d.m.m.m.m.m.d.t.p.u.6.4.W W :.W W W W W :.<.y.u.m.N.N.N.d.N.d.d.u.8.<.:.E W W E W W W W <.9.d.d.N.d.d.N.N.N.N.d.N.N.N.N.",
"N.N.m.e.m.m.m.m.m.m.m.m.m.p.w.,.:.E E E E :.E :.:.,.9.d.m.m.m.m.N.N.m.d.p.8.,.E E E E :.E E E W ,.u.d.d.d.d.d.d.d.N.d.N.N.d.d.N.",
"N.N.N.e.d.m.m.m.m.m.m.m.d.d.d.d.m.m.m.d.s.d.u.d.N.d.N.d.m.m.m.m.m.d.d.N.d.N.m.m.t.s.m.m.m.d.d.d.d.d.d.d.d.d.d.d.d.d.N.d.d.N.N.d.",
"d.d.d.e.d.m.d.d.m.m.d.m.p.t.u.t.d.d.d.d.d.d.d.d.d.d.d.m.d.m.m.s.d.d.d.d.d.d.d.d.t.s.d.d.d.d.d.d.d.d.d.d.d.d.d.d.p.p.d.m.d.d.d.d.",
"r.%.t...t.e.t.t...e.t.t.t.t.t.t.t.s.s.e.s.e.s.e.e.p.t.t.t.e.t.t.s.t.t.t.t.e.t.t.e.e.t.t.s.s.%.t.d.d.d.d.u.d.t.t.e...t.t.d.s.e.%.",
"p.g.d.s.s.t.t.t.t.p.m.p.d.m.d.d.d.d.d.s.s.t.s.s.e.d.d.d.s.m.m.p.d.d.t.t.u.s.s.d.s.d.s.d.d.d.d.d.d.d.d.d.s.s.u.d.m...d.s.d.m.d.d.",
"m.m.m.N.m.m.d.d.p.m.N.m.m.m.m.m.d.N.N.d.d.s.d.d.t.m.N.m.m.m.m.m.m.m.d.s.d.d.s.d.N.m.N.m.d.N.N.N.d.d.d.d.d.d.d.d.m.t.m.d.d.d.m.m.",
"N.N.N.N.N.N.m.m.m.m.N.N.N.N.N.N.m.m.N.N.N.N.N.d.e.N.N.N.N.M.m.m.m.m.m.m.m.m.m.m.N.N.N.N.N.N.N.d.N.d.m.d.m.N.N.m.g.s.d.d.d.d.d.d.",
"d.d.d.d.N.m.m.m.m.m.m.m.m.m.m.m.m.m.m.m.m.N.d.d.s.N.m.N.d.m.m.m.N.N.N.N.m.m.m.m.d.d.d.N.d.N.N.d.d.d.s.s.d.m.m.m.s...d.d.N.N.N.N.",
"N.d.d.s.d.d.m.N.m.N.N.N.m.m.m.m.m.d.m.m.m.d.d.s.t.d.m.d.d.N.m.m.N.N.m.N.m.m.m.m.d.d.d.d.d.N.d.N.N.d.d.d.m.m.m.m.s.e.s.d.d.N.N.N.",
"N.d.d.s.s.s.d.m.m.m.N.N.m.m.m.m.m.m.m.m.m.m.s.s.e.d.d.N.N.d.m.d.d.m.m.d.m.m.m.m.d.s.s.d.d.N.d.d.d.N.m.m.m.m.N.m.d.e.s.s.d.N.d.d.",
"N.d.d.m.m.d.m.d.s.s.d.m.m.m.m.m.m.d.N.N.N.N.d.d.e.s.d.N.N.m.m.m.d.N.d.d.m.N.N.N.N.N.d.d.d.d.d.d.N.m.m.N.N.N.N.N.d...m.d.d.N.d.m.",
"d.N.d.M.m.m.m.d.d.d.m.d.p.p.t.d.m.m.m.m.m.m.m.d.s.d.d.N.m.N.m.m.N.d.N.d.m.m.N.m.m.m.d.d.d.d.d.d.m.d.d.m.m.N.N.N.d.s.m.N.N.N.N.m.",
"m.m.d.d.m.m.N.N.N.d.m.d.s.d.d.d.m.m.m.m.m.m.m.d.s.N.m.d.N.d.d.d.d.N.d.d.d.d.d.d.m.N.d.d.d.d.d.m.d.N.N.m.N.m.m.m.d.s.N.d.N.N.N.m.",
"N.m.m.N.m.d.N.N.N.N.m.m.d.m.m.m.m.m.m.m.m.m.d.d.s.m.m.m.d.d.d.d.d.d.d.s.s.u.s.s.d.d.d.N.d.d.N.d.N.N.N.M.N.m.d.m.d.t.m.m.m.m.m.m."
};
