/* XPM */
static char *result[] = {
/* columns rows colors chars-per-pixel */
"64 64 150 2 ",
"   c #3D0606",
".  c #3F0A06",
"X  c #440C06",
"o  c #430B08",
"O  c #441407",
"+  c #4E1507",
"@  c #461C06",
"#  c #4A1D07",
"$  c #47120B",
"%  c #4C150D",
"&  c #47180C",
"*  c #4C1B0B",
"=  c #531C0C",
"-  c #4E1910",
";  c #521B11",
":  c #4B2206",
">  c #4F2A06",
",  c #4D2309",
"<  c #522307",
"1  c #512C07",
"2  c #52230C",
"3  c #5E230B",
"4  c #532B0A",
"5  c #5B2E09",
"6  c #533307",
"7  c #553509",
"8  c #59350C",
"9  c #573909",
"0  c #5B3C0B",
"q  c #562112",
"w  c #5B2416",
"e  c #5F2619",
"r  c #5D2918",
"t  c #5C3414",
"y  c #5E3A17",
"u  c #5D3519",
"i  c #62260B",
"p  c #632A0B",
"a  c #63350B",
"s  c #6C320C",
"d  c #61380B",
"f  c #73350D",
"g  c #602610",
"h  c #632F16",
"j  c #612718",
"k  c #632C1B",
"l  c #6A2E1D",
"z  c #613213",
"x  c #683C16",
"c  c #65321E",
"v  c #6A331E",
"b  c #663C1C",
"n  c #74371F",
"m  c #6C3520",
"M  c #6C3A22",
"N  c #733721",
"B  c #743C22",
"V  c #7A3E26",
"C  c #5E410C",
"Z  c #5F4212",
"A  c #63460C",
"S  c #664D0E",
"D  c #684A0D",
"F  c #69520E",
"G  c #664511",
"H  c #674B10",
"J  c #694D11",
"K  c #64441A",
"L  c #6A431F",
"P  c #674E18",
"I  c #694E1A",
"U  c #6C5411",
"Y  c #6F5A11",
"T  c #6B531B",
"R  c #735B12",
"E  c #755F1A",
"W  c #756213",
"Q  c #796613",
"!  c #7C6B15",
"~  c #75601E",
"^  c #7B6819",
"/  c #754226",
"(  c #7B4225",
")  c #704A24",
"_  c #774528",
"`  c #784629",
"'  c #7E4D2B",
"]  c #715521",
"[  c #755C24",
"{  c #786324",
"}  c #837517",
"|  c #82741A",
" . c #877A1A",
".. c #897E1A",
"X. c #804226",
"o. c #814827",
"O. c #83462A",
"+. c #844B2D",
"@. c #8B4D2E",
"#. c #82512E",
"$. c #8D502E",
"%. c #92532F",
"&. c #864B30",
"*. c #8C4E30",
"=. c #855430",
"-. c #8F5131",
";. c #935433",
":. c #985735",
">. c #965836",
",. c #9B5B35",
"<. c #9D5D38",
"1. c #816E21",
"2. c #836D2E",
"3. c #887A22",
"4. c #9E6039",
"5. c #867331",
"6. c #897B30",
"7. c #A26037",
"8. c #A3633B",
"9. c #AA693D",
"0. c #B16F3F",
"q. c #B2703E",
"w. c #A66740",
"e. c #AD6B41",
"r. c #B16E42",
"t. c #B67342",
"y. c #B97643",
"u. c #BD7A45",
"i. c #BB7648",
"p. c #BF7B49",
"a. c #C07C47",
"s. c #C27E4B",
"d. c #8C831A",
"f. c #8D8125",
"g. c #958D22",
"h. c #90842E",
"j. c #968F29",
"k. c #979125",
"l. c #999325",
"z. c #979029",
"x. c #9E9A2D",
"c. c #8E8232",
"v. c #938636",
"b. c #948A35",
"n. c #999037",
"m. c #9E9933",
"M. c #9F9839",
"N. c #A09C32",
"B. c #C5814D",
"V. c #C68451",
/* pixels */
"B.B.B.u.B.B.B.B.B.B.B.B.B.B.B.B.B.B.B.B.B.B.B.B.B.B.B.B.B.B.B.B.B.B.B.B.B.B.B.B.a.a.s.s.s.V.V.V.B.B.s.a.s.s.a.s.s.V.V.V.V.V.s.V.",
"V.B.B.u.s.B.B.B.B.B.V.V.V.B.B.B.B.B.V.V.V.V.B.s.s.B.B.B.B.B.B.B.B.B.B.B.B.B.B.B.a.s.s.V.s.V.B.V.s.B.s.s.s.s.s.s.V.s.V.V.V.s.V.s.",
"V.V.B.u.B.B.B.B.B.B.V.V.V.B.B.B.B.V.V.V.V.V.V.V.B.V.B.B.B.V.B.B.B.B.B.B.B.B.B.B.a.s.s.V.B.B.B.s.s.B.B.V.V.s.V.V.V.V.s.V.B.V.V.s.",
"B.B.B.u.s.B.B.s.B.B.B.B.B.B.B.B.s.B.V.s.s.s.B.V.V.V.V.V.V.V.V.B.B.B.B.B.B.V.V.V.s.s.V.s.B.B.B.B.B.V.V.V.V.V.V.s.V.V.V.s.s.s.s.V.",
"B.p.p.u.s.B.B.s.s.s.s.V.V.V.V.B.B.B.s.a.p.p.s.B.B.V.B.V.B.B.B.B.s.V.s.s.B.V.s.B.a.a.s.V.V.V.V.V.B.B.B.B.V.B.s.s.s.s.s.s.s.B.s.B.",
"B.s.B.u.B.B.B.s.s.s.s.V.V.V.V.B.s.B.V.s.s.s.V.B.B.B.s.s.s.s.s.B.V.s.s.s.s.s.s.s.i.a.s.V.V.V.V.s.s.B.s.B.B.s.s.s.s.s.s.s.s.V.B.B.",
"V.V.V.u.s.B.B.B.s.s.s.s.B.s.B.B.B.V.V.V.V.V.V.B.B.s.B.a.a.a.s.B.s.s.e.-.&.O.&.&.%.0.B.B.s.V.s.s.B.B.B.s.B.s.s.B.s.s.B.V.V.V.B.B.",
"B.B.B.u.s.B.V.V.V.V.a.a.a.a.s.B.s.B.V.s.p.p.p.p.a.a.B.B.s.B.s.s.V.s.;.w $ % % % g ,.s.B.s.s.s.s.B.B.s.a.s.s.s.s.s.s.B.B.B.B.B.B.",
"a.a.a.y.a.a.s.s.s.a.p.y.y.y.a.a.a.a.a.u.u.u.u.u.y.u.a.a.u.a.a.u.9.%.( b y t 4 O % @.y.a.a.a.a.a.a.a.a.a.u.u.a.a.s.a.a.a.a.a.a.a.",
"y.u.p.a.p.a.a.s.a.a.a.a.a.s.a.a.u.u.u.u.u.u.u.u.y.u.u.u.u.a.u.t.@.j L 5.h. .Y < - @.u.y.a.a.q.a.u.a.a.B.a.a.a.B.a.a.a.a.a.a.a.a.",
"s.V.s.s.s.V.V.V.V.V.V.V.V.V.V.V.B.s.B.B.B.B.B.a.u.B.s.B.B.a.r.<.` z [ b.N.g.! 4 - *.y.a.s.s.s.s.a.a.B.B.a.a.B.B.a.a.a.s.B.s.a.s.",
"s.a.a.s.s.V.B.B.s.V.V.V.V.B.V.s.B.B.B.B.B.B.B.s.u.B.B.B.B.i.+.v ) 2.h.z.j.d.R 4 ; *.s.s.s.s.s.s.s.s.B.s.s.s.B.B.a.u.s.s.V.V.V.s.",
"V.a.s.s.s.s.V.V.V.V.s.s.s.B.B.s.B.B.B.s.s.B.B.s.u.B.B.s.y.<.k * ] n.m.g. .Q J q j :.s.V.s.s.s.s.s.V.V.V.V.s.V.B.a.u.B.B.V.V.V.V.",
"s.V.B.s.s.s.s.V.V.V.V.s.s.B.s.V.B.B.B.B.B.B.B.s.y.B.B.r.+.k ; 4 E j.l...R 0 z ( :.t.s.s.s.s.s.s.s.V.V.V.V.s.s.B.a.a.B.B.B.s.s.B.",
"s.s.s.s.s.a.s.V.s.B.s.a.a.s.s.V.B.B.V.V.V.V.V.B.y.s.p.<.v O : 7 R  . .! J 2 k <.s.s.V.s.s.s.s.s.B.B.B.B.s.V.s.s.a.a.B.B.B.B.V.s.",
"B.V.V.V.s.s.s.s.B.B.s.s.s.s.s.B.s.B.B.B.V.V.B.s.y.r.%.B x 0 7 6 A F S 0 x V :.t.V.V.V.V.V.V.V.V.B.B.V.V.V.V.V.s.a.a.B.B.V.V.V.B.",
"B.V.B.V.V.B.B.s.s.s.s.s.s.B.B.B.B.V.V.V.B.p.p.p.t.,.e , H R C 7 6 7 > O k ,.i.p.s.V.V.V.V.V.s.V.B.B.V.V.V.V.V.V.s.a.B.B.B.V.V.B.",
"B.B.B.B.B.B.B.s.p.a.s.p.s.B.B.s.B.V.V.V.V.e.;.&.O.N ; : C S 0 7 C H 0 @ q V *.*.;.r.s.B.s.B.B.s.B.B.B.B.B.B.B.B.a.a.B.s.B.B.B.B.",
"B.B.B.s.B.V.V.V.B.V.V.s.B.B.B.B.B.B.B.B.p.*.w $ $ = , 4 7 7 6 7 Y  .W 9 , % - $ e :.s.s.V.V.V.V.B.s.B.B.s.B.s.s.s.a.s.s.B.s.B.B.",
"s.a.a.a.s.s.s.s.s.s.s.a.s.a.a.a.s.u.s.u.t.O.$ & u K T ] T P 0 7 W d.! 0 > 4 , . - *.u.s.s.s.s.s.s.a.B.s.a.a.a.a.a.u.a.a.a.a.B.s.",
"u.u.a.q.a.a.a.u.a.u.u.a.u.u.u.a.u.u.u.u.t.( % u 2.v.v.v.b.6.T 9 W d.! C 0 J G # - @.y.u.p.p.p.p.a.a.a.a.a.a.a.a.y.y.a.a.a.a.a.a.",
"B.s.B.u.s.s.s.s.B.s.s.B.B.s.B.s.B.s.B.B.p.;.k L 2.v.n.N.M.b.~ A W d.Q 9 0 U H > = V 8.y.s.s.s.V.B.B.B.B.s.a.a.a.u.a.a.s.s.s.B.B.",
"B.B.B.u.s.B.B.B.V.B.B.V.B.B.B.B.B.B.s.B.s.t.<.+.b I 1.f.f.3.^ W  .d.Q C 6 0 7 > , q m ,.s.V.s.s.B.B.B.B.s.B.s.s.a.s.s.s.V.V.s.B.",
"B.B.B.u.B.B.B.B.s.s.s.s.s.s.B.B.B.B.V.B.V.V.s.:.j 4 J W W W W Q d.d.Q 9 6 0 Z C 7 O % O.s.s.s.s.a.s.B.B.B.B.B.B.s.s.B.s.B.B.B.B.",
"B.B.B.q.s.B.B.B.s.a.a.a.a.s.B.B.B.V.V.V.V.V.V.e.>.V t 7 C A A S ! d.Q 9 C { ^ 3.R < $ X.y.s.s.s.s.V.V.V.V.V.V.V.V.V.s.s.s.s.s.s.",
"B.B.B.q.s.B.B.B.B.s.s.s.s.s.B.B.B.B.B.V.B.B.B.B.p.,.j + , > > 9 W d.Q C F c.M.z.} 8 % O.p.s.V.V.V.s.V.V.V.V.s.s.V.B.B.B.s.s.s.V.",
"V.V.B.u.s.B.B.B.B.B.V.V.s.s.u.B.s.s.s.s.B.B.V.B.s.t.;.N = @ @ 9 W d.Q 9 P j.x.k.1.8 % O.p.V.s.V.V.s.s.s.s.s.s.s.s.s.V.B.s.V.V.s.",
"V.V.B.q.s.B.B.B.s.V.V.B.s.u.s.s.s.s.a.a.B.V.V.V.V.B.i.,.j O @ 7 W d.Q C S ! d. .R 4 % O.p.s.s.V.s.V.V.s.s.s.s.s.s.s.s.s.s.s.s.V.",
"B.B.B.q.B.B.B.B.B.B.B.B.B.B.B.B.s.s.B.s.B.B.B.B.B.t.<.o.x 8 1 7 Y } W 0 9 S U G x v X.7.a.a.s.s.V.s.V.s.s.V.V.V.V.V.s.a.s.s.s.B.",
"B.B.B.u.B.B.B.B.V.V.V.B.B.B.B.B.s.V.B.s.B.B.B.B.V.8.v 2 G U C 9 F ! Y 9 > @ @ O = O.0.s.s.s.s.s.s.V.B.B.s.s.V.s.V.s.s.a.s.s.B.B.",
"B.a.a.u.a.a.a.B.B.s.s.B.s.s.a.s.s.a.s.s.s.s.s.a.p.8.B h G J 0 9 U ! U 4 2 w e j f 7.a.s.a.a.a.a.a.a.s.s.a.a.a.a.s.a.a.a.a.a.s.s.",
"a.u.u.q.u.u.a.u.a.a.u.u.u.u.u.u.a.u.u.u.u.u.u.y.t.t.9.$.k # , 7 W  .Y # w @.4.8.7.q.a.a.a.a.u.u.a.a.a.B.u.u.u.a.a.a.u.a.a.a.a.B.",
"s.s.s.V.s.B.s.s.s.s.s.s.a.B.B.B.s.B.B.s.V.s.s.a.y.s.a.e.V q # 4 W ..R & k 8.s.s.s.B.s.B.s.B.s.s.s.s.s.V.s.s.s.B.s.a.s.s.B.s.B.s.",
"B.B.B.B.B.B.B.s.V.V.s.a.s.s.B.B.V.V.B.V.V.s.V.s.y.s.s.p.e.;.k # F ..R & j 9.V.V.V.V.B.s.s.s.s.s.s.s.V.V.V.V.B.B.a.u.B.B.B.B.B.B.",
"B.B.V.B.B.B.s.s.s.s.s.a.a.s.B.B.V.B.B.V.s.B.V.s.y.p.r.r.r.8.v & U  .Y # j :.p.s.V.V.B.s.p.p.y.s.B.B.s.V.V.V.V.B.a.y.s.B.s.B.B.B.",
"B.V.V.V.V.B.s.a.s.s.B.B.B.B.B.B.B.B.B.B.V.s.s.a.t.e.O.N N v q < S | Y < 2 l &.e.B.B.B.s.a.a.a.s.s.B.s.V.B.B.V.B.s.y.B.B.B.B.B.B.",
"B.B.B.B.B.B.s.B.V.V.V.V.V.V.B.B.B.B.s.B.s.s.V.a.0.,.j o X X # 6 U Q U 9 # O e :.i.s.V.B.s.s.s.s.s.B.B.B.B.s.B.B.a.y.B.B.B.V.V.V.",
"B.V.B.B.B.B.B.B.V.V.V.B.V.B.B.B.V.B.B.B.V.V.s.0.O.n i = = = < 9 S Q Y 7 4 < g N *.e.s.V.B.V.V.B.B.B.B.s.V.B.B.B.a.u.B.B.B.B.V.V.",
"V.V.B.B.B.B.s.V.B.B.s.s.B.B.B.B.B.V.V.V.V.V.s.;.w + i f s s 5 7 S Q F 9 5 s i + e :.V.V.V.V.B.B.B.B.B.B.B.V.V.V.a.a.B.B.s.B.B.B.",
"B.B.B.B.V.V.V.V.V.B.B.B.s.B.B.B.B.B.B.B.V.s.s.-.- X = i f f s d A U D a 5 i = o = %.B.B.B.B.V.s.B.B.B.B.B.B.B.V.a.u.B.B.B.B.B.B.",
"B.B.B.B.B.B.B.V.V.s.B.B.B.B.B.B.B.B.B.B.B.B.B.%.-   o + p f f s a 0 a s p + X   - ;.s.s.B.B.B.B.B.B.B.s.B.B.B.s.a.u.B.B.B.B.B.B.",
"s.B.s.a.s.s.s.s.s.a.s.s.s.s.s.a.s.s.s.s.a.a.a.$.% . $ - 3 i i i < # < i 3 ; $ . - -.p.s.s.a.s.s.a.s.s.a.s.s.s.a.a.u.s.a.s.s.s.a.",
"a.a.u.u.q.u.u.u.a.a.a.a.a.u.u.a.a.a.q.q.q.u.q.$.- $ r r ; X X X o X X X ; r r $ + @.i.u.a.a.y.a.a.a.a.u.a.a.a.a.u.y.u.a.a.a.a.a.",
"s.s.s.u.B.s.B.B.V.s.V.B.B.s.s.s.s.s.B.s.s.s.s.,.l w k m q % % % % $ $ O q r k w k ,.s.s.s.s.s.s.s.a.s.s.s.a.s.s.a.a.a.s.a.s.s.a.",
"B.B.B.a.B.B.B.B.B.V.V.V.V.B.B.B.B.B.B.B.B.B.B.u.w.O.e ; c M M M M M M u w ; e O.<.q.s.s.s.V.s.V.B.B.B.V.V.V.V.V.B.B.B.s.B.B.B.B.",
"B.B.B.a.B.B.B.B.s.s.s.s.B.s.B.B.V.B.B.s.B.B.s.a.t.;.w % M ' ' ' ' ' ` M e - w ;.9.y.a.a.s.B.V.V.B.B.V.V.V.V.V.s.B.B.s.s.s.s.B.B.",
"B.B.B.q.s.B.B.a.a.s.a.s.B.B.B.B.s.V.s.V.s.s.s.e.*.m r r c M M M M m c c r r e M X.8.s.B.V.V.V.V.B.B.B.B.s.s.B.s.B.s.a.a.a.a.B.B.",
"B.B.B.q.s.B.B.B.s.s.s.B.B.B.V.s.V.s.s.s.s.s.s.:.; % c m u r r r r r r r c M c % = ;.s.B.s.V.s.s.B.B.B.B.a.s.s.s.s.B.s.s.s.s.s.B.",
"B.B.B.u.s.B.B.B.B.B.s.s.s.s.s.B.B.B.B.u.a.s.p.-.- - v B M M M M M M M M M / m % + %.s.s.s.s.s.a.s.V.B.B.s.s.s.s.s.s.V.s.V.V.V.B.",
"B.B.B.u.s.B.B.B.B.B.a.a.a.a.s.B.B.B.B.B.B.s.a.;.- % m / ' ' ' ' ' ' ' ' ' / k - + 7.s.V.s.s.s.s.B.V.V.V.V.V.V.V.V.s.V.s.s.V.V.B.",
"V.V.B.q.B.B.B.B.B.B.B.B.s.s.s.V.B.B.B.s.a.a.p.@.- % c _ #.=.=.=.=.=.=.' ' _ m $ = %.s.V.s.s.a.a.B.V.B.V.s.s.s.s.s.s.V.s.s.V.B.B.",
"V.B.V.a.s.B.B.B.B.B.B.B.s.s.s.s.B.B.B.B.s.s.p.@.; $ m / ' =.=.=.=.=.' _ / / l % + %.s.s.s.s.a.B.B.B.B.B.s.s.s.s.s.V.s.V.B.B.B.B.",
"B.B.B.q.B.B.B.B.s.s.s.s.s.a.u.a.B.s.B.B.B.B.s.<.m w j M _ ' ' #.' ' ' / N l k j l 7.a.s.a.B.a.a.s.s.a.s.s.s.s.s.a.a.s.s.s.s.s.s.",
"u.u.a.q.q.u.a.q.u.u.u.a.a.a.u.y.u.u.y.y.y.u.y.q.<.O.w q m ` ` _ _ _ _ / l ; ; &.7.r.a.a.a.a.a.a.a.a.u.a.u.a.q.a.a.y.a.a.a.a.a.a.",
"a.a.B.s.B.a.a.a.a.a.s.s.s.s.a.s.B.p.s.s.u.u.p.i.u.7.k % w m m c c c m m w % j 7.s.s.a.a.B.B.s.s.a.s.s.s.a.a.a.a.a.u.s.s.s.s.a.a.",
"B.B.B.B.B.B.s.a.a.s.V.s.V.V.V.s.B.B.B.B.s.s.s.s.u.e.@.l q - - - - - - - w l &.i.s.s.s.s.V.V.V.s.B.B.B.B.s.s.s.s.a.u.B.s.s.s.B.s.",
"s.V.V.s.V.V.B.s.s.s.B.V.V.V.V.V.B.B.V.V.V.V.V.s.i.i.w.*.l % % % % - $ - k @.8.i.V.V.V.V.V.V.V.s.V.s.s.s.V.V.V.V.s.a.s.s.s.s.s.V.",
"V.s.V.s.B.B.B.B.B.B.B.s.B.B.B.B.s.B.B.B.V.B.B.s.p.s.i.r.;.@.O.O.+.&.&.&.;.w.i.s.s.s.s.s.V.V.V.s.s.s.s.a.s.B.B.B.a.y.s.s.s.V.V.V.",
"s.B.s.a.s.s.B.V.B.V.V.V.B.B.V.B.B.B.B.B.B.s.s.p.i.s.s.s.s.i.s.s.p.p.p.p.p.p.s.s.s.s.s.s.s.V.V.V.B.s.s.s.s.s.B.B.a.y.a.s.s.V.V.B.",
"B.B.s.s.s.s.s.B.V.V.V.V.V.B.B.B.B.B.B.B.B.B.a.u.y.s.s.V.s.s.B.B.s.V.V.s.B.V.B.V.s.s.s.s.s.s.s.s.B.B.B.B.B.V.B.B.s.y.a.a.s.V.s.s.",
"B.s.V.s.s.B.B.s.a.s.s.V.s.s.s.B.B.B.B.V.V.B.B.s.t.s.B.V.V.B.B.B.V.s.V.s.B.V.V.V.V.B.s.s.s.s.s.s.B.B.B.V.V.V.V.V.a.a.s.B.s.V.s.V.",
"B.B.B.V.B.V.B.s.s.s.s.s.a.s.a.s.B.B.B.B.B.B.B.s.y.B.B.B.V.B.B.B.s.V.s.s.B.B.B.V.V.B.s.s.s.s.s.s.B.B.B.B.B.B.V.V.s.a.B.B.V.V.V.s.",
"B.B.B.B.B.s.V.V.V.s.B.s.s.s.s.s.B.B.B.B.B.B.B.s.a.B.B.s.s.B.s.s.B.s.s.s.s.a.s.s.s.V.s.s.s.s.B.B.V.V.B.B.V.B.B.s.s.a.B.B.V.V.V.B.",
"B.B.B.B.B.s.V.V.V.V.B.s.s.B.B.s.B.B.B.B.B.B.B.s.u.B.B.B.s.s.s.s.B.B.a.p.a.p.p.p.s.V.s.B.s.s.B.s.V.V.V.V.V.V.B.s.s.a.B.B.B.B.B.B."
};
