/* XPM */
static char *result[] = {
/* columns rows colors chars-per-pixel */
"64 64 225 2 ",
"   c #030B0D",
".  c #040E12",
"X  c #061112",
"o  c #0C1313",
"O  c #121716",
"+  c #151816",
"@  c #1C1A16",
"#  c #161C1A",
"$  c #1B1C1C",
"%  c #251F1C",
"&  c #281F1B",
"*  c #26221C",
"=  c #2C241D",
"-  c #34271E",
";  c #3B2A1D",
":  c #231F28",
">  c #2A2424",
",  c #362725",
"<  c #3B2B22",
"1  c #3E3123",
"2  c #35342C",
"3  c #382A33",
"4  c #373930",
"5  c #393A30",
"6  c #432A1C",
"7  c #492F1F",
"8  c #4E311F",
"9  c #52311F",
"0  c #462D24",
"q  c #443325",
"w  c #4C3326",
"e  c #4E3529",
"r  c #493829",
"t  c #513224",
"y  c #583925",
"u  c #523329",
"i  c #5A362C",
"p  c #553C2A",
"a  c #5B3B2B",
"s  c #493438",
"d  c #593739",
"f  c #623C27",
"g  c #6E3C24",
"h  c #653C2F",
"j  c #693C2F",
"k  c #733E24",
"l  c #673D35",
"z  c #6B3E30",
"x  c #574029",
"c  c #5A422C",
"v  c #4D4033",
"b  c #564835",
"n  c #6B442B",
"m  c #68472E",
"M  c #754125",
"N  c #774429",
"B  c #694633",
"V  c #6B4B31",
"C  c #734233",
"Z  c #7D4636",
"A  c #764A38",
"S  c #67553E",
"D  c #7C5434",
"F  c #7A583B",
"G  c #5B3B47",
"H  c #5E3D4D",
"J  c #653E45",
"K  c #613E4C",
"L  c #5C5745",
"P  c #5F5B48",
"I  c #64404C",
"U  c #6B424A",
"Y  c #6D4548",
"T  c #764646",
"R  c #794746",
"E  c #7C4845",
"W  c #724549",
"Q  c #774A4B",
"!  c #645A45",
"~  c #725051",
"^  c #7A6B50",
"/  c #88492A",
"(  c #944D2B",
")  c #9B4E2A",
"_  c #9F502B",
"`  c #804736",
"'  c #824937",
"]  c #884A35",
"[  c #864A39",
"{  c #8D4D3B",
"}  c #944F34",
"|  c #914F3D",
" . c #815537",
".. c #855837",
"X. c #835A39",
"o. c #8B5D3B",
"O. c #95513E",
"+. c #9A533E",
"@. c #985A3D",
"#. c #A1512C",
"$. c #AB562E",
"%. c #B3582E",
"&. c #A75739",
"*. c #A4563C",
"=. c #AA593D",
"-. c #BB5C31",
";. c #B45C3B",
":. c #BB5E3C",
">. c #8D613D",
",. c #94623D",
"<. c #9B653D",
"1. c #9E683E",
"2. c #A46B3E",
"3. c #BB613C",
"4. c #C35F32",
"5. c #C56032",
"6. c #CA6233",
"7. c #C4623A",
"8. c #CC653A",
"9. c #CF6939",
"0. c #D46636",
"q. c #D66836",
"w. c #DB6936",
"e. c #D16639",
"r. c #D5693A",
"t. c #DB6A38",
"y. c #D9713E",
"u. c #E46731",
"i. c #E56C36",
"p. c #E96F37",
"a. c #E56E38",
"s. c #EA6F38",
"d. c #EB7037",
"f. c #E6723C",
"g. c #EB7138",
"h. c #854B43",
"j. c #8B4D41",
"k. c #824E49",
"l. c #904F41",
"z. c #885449",
"x. c #935241",
"c. c #9B5441",
"v. c #9E5A41",
"b. c #965B48",
"n. c #975E51",
"m. c #A45743",
"M. c #A35C41",
"N. c #9A6645",
"B. c #8F6A58",
"V. c #85765A",
"C. c #A66041",
"Z. c #AA6342",
"A. c #A26D42",
"S. c #AB6D43",
"D. c #A5684A",
"F. c #B86545",
"G. c #B26C45",
"H. c #AE7245",
"J. c #AB754B",
"K. c #B57544",
"L. c #B97642",
"P. c #BD7A45",
"I. c #B67749",
"U. c #B6794A",
"Y. c #BD7C4A",
"T. c #A86B54",
"R. c #A9745A",
"E. c #BA7B58",
"W. c #8E6B62",
"Q. c #CB6D43",
"!. c #C37848",
"~. c #C17E4B",
"^. c #D67243",
"/. c #C37F5B",
"(. c #D47D52",
"). c #E67741",
"_. c #E57943",
"`. c #E87C46",
"'. c #E97F49",
"]. c #BE804F",
"[. c #BF8150",
"{. c #8E8366",
"}. c #918363",
"|. c #BA8B6A",
" X c #A48573",
".X c #AD9270",
"XX c #B6A27B",
"oX c #BFA47A",
"OX c #C5814D",
"+X c #D7804F",
"@X c #C68351",
"#X c #CD885A",
"$X c #D88455",
"%X c #E9814B",
"&X c #E78954",
"*X c #E98952",
"=X c #E7915C",
"-X c #EE935D",
";X c #C58E67",
":X c #C7916C",
">X c #CF946B",
",X c #D7976B",
"<X c #D79B70",
"1X c #E79A66",
"2X c #CEA578",
"3X c #D9A679",
"4X c #E5A06D",
"5X c #ECA26D",
"6X c #E7A875",
"7X c #F1A670",
"8X c #F2A871",
"9X c #E8B17E",
"0X c #F0B57F",
"qX c #BE9F80",
"wX c #C7A783",
"eX c #D4A980",
"rX c #D7B688",
"tX c #DABA8B",
"yX c #EDB581",
"uX c #E5B987",
"iX c #E9BC89",
"pX c #F1B580",
"aX c #F3B882",
"sX c #EDC38F",
"dX c #EBC391",
/* pixels */
"OXOXOXP.~.OXOXOXOXOXOXOXOXOXOXOXOXOXOXOXOXOXOXOXOXOXOXOXOXOXOXOXOXOXOXOXOXOXOXOXP.~.OXOXOXOX@X@XOXOXOXP.P.Y.!.~.@X@X@X#X@XOXOXOX",
"@XOXOXP.OXOXOXOXOXOX@X@X@XOXOXOXOX[.OX@X@XOXOXOXOXOX~.OX(.!.OX~.OXOXOXOXOXOXOXOXP.~.OXOXOXOXOXOXOXOXOXOX~.~.~.~.@X@XOX@XOXOXOXOX",
"@X@XOXP.~.OXOXOXOXOX@X@XOXY.S.o.V r * + X X X X . X . . . .     . . . . . . . .   X X X o + * r V ,.H.OX~.@X@X@X~.@X@XOXOXOXOXOX",
"OXOXOXP.~.OXOX~.OXOXOXOXY.U.2.>.m r = @ + O X o o o X o o o o o o o o o o o O O o o o o O @ = r V ,.H.].@X@X@X@X@X@X@X~.OXOXOXOX",
"OX~.~.P.~.OXOX~.P.P.~.OXY.U.N.>.V p - * % @ @ @ @ @ @ @ @ @ % @ @ @ @ @ @ @ @ @ @ @ @ @ @ * ; y V ,.A.U.~.~.Y.~.~.~.~.~.~.OXOXOX",
"OX~.~.P.~.OXOX~.Y.P.I.K.A.N.>.D n y 8 7 6 6 6 6 6 6 6 6 6 6 6 6 6 6 6 6 6 6 6 6 6 6 6 6 7 7 9 y V X.,.1.H.K.I.P.!.!.~.OX~.OXOXOX",
"@X@X@XP.~.OXOX~.~.U.2.<.o.D V n n n M g g g k g g k g k g g g g g g g g g k g g g g g k M n g n n V D D o.N.H.U.~.OXOX@X@X@XOXOX",
"OXOXOXP.OXOX@X@X@XH.,.D m y y y M N ( ) #.#.#.#._ _ _ _ _ _ _ _ _ _ #._ _ _ _ _ #.#.#.#.#.( ( N n y y x V  .<.K.U.~.OXOXOXOX~.OX",
"P.~.OX2.P.OX2.].H.N...V x r 9 m N ( $.3.5.6.6.6.5.5.5.5.4.4.4.4.4.4.4.4.5.5.5.4.5.5.6.6.4.-.$.( M 9 8 q x n ..1.K.2.P.P.].P.OXP.",
"P.P.P.P.P.OX2.2.2.,.D b v r x n / $.3.q.i.i.s.u.a.t.u.u.i.i.t.u.u.u.a.a.i.w.w.i.i.i.p.p.i.0.4.#./ y 8 7 x m D ,.2.2.L.P.3.].P.P.",
"OXOXOXOX@X@X>.>.>.F F S S S S >.<.3.9.t.p.p.d.d.g.p.s.s.a.s.s.s.s.s.a.s.p.p.p.p.d.g.d.g.p.w.6.%.) M f f f n V ..o.,.2.U.].OXOXOX",
"OXOXP.OXOX@Xm m V S ! ^ ^ V.V.J.I.!.y.f.p.p.d.d.d.g.s.s.s.s.s.s.s.g.s.s.g.d.p.g.g.g.g.g.d.p.w.5.%.) / M M n m V A D ,.2.].OX@X@X",
"OXP.OXP.OXOX1 7 1 b ! ^ V..X|.|.#X+X_.f.p.s.p.p.p.p.p.p.s.s.s.s.s.s.p.p.p.p.p.p.d.d.f.p.p.i.w.q.5.%.$.) N M x x x x D ,.2.].@X@X",
"OXOXOXOXOXOX@ * 2 v ! V..XoX2X<X,X&X`.f.i.u.i.i.p.p.p.a.s.a.i.i.p.p.f.p.i.p.i.p.i.p.p.i.i.i.i.t.w.0.5.$.( k 9 8 1 r m >.2.].OX].",
"OXOXOXP.P.P.X o # 5 L {.XXrX9X9X5X-X%Xf.i.u.i.i.i.i.i.i.a.i.i.a.i.i.i.i.i.i.f.i.i.i.i.i.i.p.i.p.d.u.q.-._ M 9 ; = 1 c >.2.].].OX",
"OX@XOXOXOXOX  o # 5 L {.XXrXsXaX7X-X%Xf.i.u.u.i.i.a.i.a.i.i.a.a.i.i.i.a.i.i.i.i.i.i.i.i.f.i.p.d.d.d.w.5.#.M 9 ; - 1 c F 2.].].OX",
"OX+X@X@X@XOX  o # 5 P {.XXtXsX0X5X-X%Xf.i.i.i.i.i.i.i.u.s.i.a.a.a.i.i.i.i.i.i.i.i.i.i.i.a.s.s.s.d.d.w.5.#.M 9 6 = ; x X.2.].].OX",
"OXOXOX@XOXOX  o # 5 P {.XXtXsX0X8X-X%Xf.u.u.i.u.i.i.i.^.s.i.a.u.a.i.a.a.a.a.i.i.i.i.i.i.a.u.s.s.d.d.w.5._ M 9 6 - 1 x X.2.].].OX",
"OXOXOXOXOX@X  o # 4 P {.XXtXiX0X8X-X%Xf.i.i.u.i.i.i.i.i.a.u.a.a.i.a.i.i.s.i.i.a.i.i.a.a.a.s.s.s.d.p.w.-.) k 9 ; = 1 x X.2.OXOXOX",
"P.OXP.P.P.P.  o # 4 P {.XXtXiXuX5X-X%Xf.u.u.u.i.i.i.i.i.u.a.a.a.i.i.i.i.a.i.a.i.i.i.a.u.i.i.s.s.d.p.w.5.) k 9 ; = ; x D 2.2.].P.",
"P.P.~.2.P.P.  o # 4 P {.XXtXuX0X5X-X%Xf.u.u.u.u.u.u.i.i.i.u.u.).i.u.i.i.i.a.i.i.i.i.i.i.i.i.s.s.d.d.w.4.) k 9 ; * ; x D 1.2.].P.",
"OXOXOXP.OXOX  o # 4 P {.XXtXiX0X8X-X%Xf.i.u.u.i.a.u.i.u.u.u.u.u.i.i.i.i.a.i.i.a.i.i.t.i.i.i.i.s.d.d.w.-.) M 9 ; = ; x ..2.].OXOX",
"OXOXOXP.P.OX  X # 4 L {.XXrXtX0X8X-X%Xf.i.i.i.i.a.a.u.).).u.).i.i.a.i.i.a.a.a.a.u.a.a.a.i.s.s.s.d.i.q.-.) M 9 ; = 1 x F A.].OXOX",
"OXOXOXP.OXOX  o # 2 S {..XwX9X9X5X-X&X%Xf._.f.f.).).).).).).).).).a.a.i.a.u.s.a.a.a.a.a.i.i.s.u.u.i.0.-.( k 8 ; = 1 x X.N.].OXOX",
"OXOXOX9.OXOX  o # 2 b ^ }.2X2X6X6X1X=X=X&X&X*X*X*X*X*X*X'.'.'.'.).).s.a.i.i.p.i.i.s.i.u.s.i.i.^.i.t.4.%./ g 7 ; = 1 x F 1.U.].OX",
"OXOXOXL.P.OXX o + - v ^ B.|.;X<X<X4X4X4X5X5X5X5X5X5X5X5X5X1X5X-X%X`.).s.i.i.p.p.i.s.s.s.s.i.i.i.e.8.:.#./ f 0 - = 1 x D 2.].].OX",
"OXOX].L.OXOXX o + = q S z.R.E.;X>X3X6X9XyXpXyXpXyXyXyXyXyXyXpX1X-X%X_.s.i.a.u.i.i.i.i.s.u.a.t.r.8.4.&.} k h 0 = = 1 x >.2.OXOXOX",
"@XOXOXL.P.OXX o + * < p R b.T./.:X2X9XsXsXsXsXdXdXdXdXdXiXyXyX5X=X'._.^.u.u.u.i.u.).u.i.a.t.r.8.7.m.+.] j u < = * 1 c F 2.2.].OX",
"OXOXOXL.~.OXX o + % , d l h.n.R.|.>XeXuXiXiXiXiXtXtXtXtXtXrXeX>X#X(.^.^.e.e.4.Q.0.0.0.r.0.Q.8.4.:.=.O.` j w , = = 1 x ..2.].].].",
"OXOXOXP.~.OXX o o $ > 0 j J z.T.E.:X<X6XyXyXeXeXeXwXwXwXqXqXqX:X/.Q.Q.4.4.7.:.:.m.F.:.7.4.7.4.:.F.*.| ` h w , = * 1 x X.2.].].OX",
"OX~.~.L.P.~.X o O $ > 0 d J k.n.R./.>X1X,X,X,X:X:X|..X.X X XW.W.T.F.:.F.m.m.m.m.m.m.m.=.F.;.;.;.=.*.} z f w ; = * 1 x X.2.OX2.OX",
"P.P.P.L.P.P.X o o $ : 3 s J k.z.T.F.(.$X$X(./.E.R.R.W.W.W.W.W.W.n.n.m.m.m.l.j.h.k.j.l.c.+.m.=.=.m.*.| [ n r - = * 1 x D 2.2.P.~.",
"~.OX~.OX~.~.X o o $ : 3 G K K j.m.F.Q.^.^.Q.F.F.m.n.z.k.~ ~ ~ Q k.x.c.l.j.E J J K k.R l.l.m.m.*.+.+.| ` j t , = & 0 c X.2.U.].OX",
"OXOXOXOXOXOXX o O : : 3 s K R j.m.:.e.t.r.4.F.m.b.z.Q k.K K K J k.k.j.l.k.k.Q K K K J k.h.l.+.+.+.+.| ` j u , & * ; c X.A.].].OX",
"OXOXOX@XOXOXX o O $ : 3 s J R c.m.7.8.0.0.4.;.#.l.h.J J H H H J J h.j.h.h.J K K K K K R k.j.l.+.+.+.| Z j u 0 = * 1 c X.A.P.P.OX",
"OX@X@X@X@XOXX o o : , 0 l J [ m.F.8.e.t.e.4.;.*.O.h.J K H H J K J l.j.h.j.k.K K K K J R j.l.c.c.+.+.} Z j u , = * < c X.A.P.].OX",
"OXOX@XOXOXOXo o O $ , u l [ c.m.F.8.0.0.e.4.;.*.O.h.J J K H H K J h.j.h.k.k.K K K K J R h.| +.+.+.+.} ` j t , & * ; c X.A.[.[.@X",
"OX@XOXOXOX~.X o O & , i z { +.;.:.e.u.0.0.Q.:.*.O.j.j.J K H K U k.h.j.j.h.J J K K K k.k.h.| +.+.+.+.| Z j t 0 & * 1 c F A.[.OX@X",
"@X@XOXOX~.~.. o O & , i z O.*.;.7.8.t.t.0.4.;.m.c.j.h.J K H K I J l.j.j.j.E J K K K J R h.| +.+.+.+.| Z j t , > * 1 x >.A.P.].OX",
"OXOXOXOX/.(.. o O & , i z { #.;.7.8.t.t.0.4.;.m.c.j.k.J K H K U J j.j.j.h.k.K K K J J R h.| +.+.+.+.| Z j t , & * 1 x >.A.P.].OX",
"OXOXOXOXOXOXX o O % , i z { *.;.7.8.t.t.e.7.F.*.c.h.R U K H H U k.h.l.l.h.J K K K K K j.h.l.+.c.+.+.{ Z z t , = * 1 x >.2.].].OX",
"~.OXOX].~.~.X o O % 0 i z { *.;.7.8.r.0.e.4.;.*.O.j.R U K K K U R h.j.h.h.R R K K K J k.h.| +.+.+.+.| ` j t < = @ 1 x X.1.].].P.",
"9.].3.P.P.P.X o O % , i z | *.;.:.8.0.e.8.4.;.*.O.h.E W K K K W R h.j.j.h.R J K K K R k.h.| +.+.+.+.{ ` j t ; = * ; x X.1.L.2.P.",
"].].OXP.~.].X o o % 0 u z O.+.=.F.:.8.7.4.;.=.*.O.j.h.R T W T R h.j.j.j.k.Q k.K K K K R h.| +.+.+.+.{ Z j u , = * 1 x F 2.P.~.OX",
"OXOXOXP.OXOXX o O & , i z ] +.*.;.;.;.:.F.=.*.+.O.{ j.h.E R E E j.j.l.j.h.J J K K K J k.j.l.l.+.+.+.{ ` j u , - = 1 c F 2.].].].",
"OXOX~.P.~.OXX o O & 0 i z ] O.*.m.*.=.*.*.*.*.+.O.O.j.j.j.j.j.j.l.l.O.j.j.E K K K K J k.j.l.+.+.*.+.{ ` h t , = * q x >.2.].P.].",
"OXOXOXL.~.OXX o O & 0 i z O.| +.+.*.+.*.+.+.+.+.O.O.O.O.| j.O.O.l.O.| j.h.R J K K K J R h.l.c.c.+.+.| ` h t 1 = = 1 x F 2.2.OXOX",
"OXOXOXL.~.OXX o O & , j z { | +.+.c.+.+.+.+.O.O.+.O.O.O.O.+.} +.c.c.O.j.h.J K K K K k.k.j.l.c.c.+.+.{ Z n w - = * 1 x >.2.P.].OX",
"OXOXOXP.OXOXX o O * 0 i C [ O.O.O.+.O.O.O.O.| +.O.+.+.O.+.+.+.+.+.+.O.j.h.R I K H I W E h.| +.+.+.+.| ` j u , = & 0 c X.A.].].OX",
"OXOXOXP.OXOXX o o * ; a C { | O.c.+.O.O.| c.c.O.O.+.+.+.O.+.O.+.+.| c.{ h.R I K K K W R h.j.+.+.+.+.| Z j 0 , & * 1 c X.A.@XOXOX",
"@XOXOXL.].OXX o O * 1 y C ] | +.c.+.+.O.| +.| O.O.+.O.+.O.+.+.+.+.+.+.j.h.Q U H H I W R h.| O.+.+.+.{ ` j u , = * 1 c X.A.Y.].OX",
"OXOXOXP.OXOXX o O * ; y C ] O.+.+.c.O.O.+.O.+.O.O.O.O.| x.| | l.+.| | h.h.Q I K K K W E j.l.+.+.+.+.| ` j u 0 = * 1 c X.A.Y.OXOX",
"OXOXP.P.~.OXX X O & 0 i C ] O.+.+.c.+.+.+.O.O.+.O.O.l.j.j.j.{ j.| | | l.h.T I K H K Y E h.l.+.c.+.+.| ` j t < = * 1 x D N.OXOXOX",
"P.P.P.L.P.P.X o O & < i C { O.+.c.+.+.+.O.+.O.O.O.{ j.{ h.h.h.h.h.| l.j.k.T U H H K U E j.| +.+.*.+.| ' z u < = * 1 x D 1.2.OX2.",
"OX~.~.~.P.P.X o + & 0 i C { O.@.c.+.O.+.O.+.O.O.O.j.h.E T W T E h.j.l.j.h.T I H H K W E h.| +.+.+.+.| ` j u < = * 1 c >.2.2.OXP.",
"OXOXOXOXOXOXo o + & ; i C [ { O.+.+.+.+.} +.+.O.l.j.E T U K U Y E j.j.j.h.T U I H I W E h.| +.+.+.+.| ` j u 0 & = 1 c >.2.].OXOX",
"OXOX@XOX@X@X* * * < 0 a z Z ' { { O.O.O.+.+.O.O.l.h.E W I I I Y R h.j.j.h.E W K K U R h.h.l.| | | | ] z h u 0 1 ; x V >.2.].].OX",
"OXOXOXOX@XOX1 1 q w p a h B C Z ' { | O.O.+.+.O.l.j.R W I H H I R h.j.j.l.h.R W W Q E h.j.{ | { ] [ z z a e w r x x D 1.J.].OXOX",
"OXOX~.~.OXY.m V B B c a a i a z C ' { } +.+.+.@.l.h.E Y K H I I T h.j.j.l.h.h.E E E h.j.l.| { ' z j i u p p c m m D o.2.K.].OX@X",
"OXOXY.!.~.Y.>.>.X.D V c e 0 w i h Z ] | +.+.+.+.x.j.R Y K I I I R h.j.c.| l.j.h.h.j.j.c.| | [ C z u w w p c V F >.>.2.2.U.OX].OX",
"OXOXOXOXOXOXK.S.2.>.D c r , < w i C ' | +.*.+.+.l.j.E W I I I I R j.l.x.c.O.O.x.O.O.x.+.c.{ [ z i 0 , < v m F N.H.2.P.OXOXOXOXOX",
"OXOXOXOXOXOXY.U.I.N.o.V p q q u h Z ..+.@.M.M.v.x.x.z.Q Q ~ ~ Q k.z.x.v.m.@.+.v.v.*.N.@.@.x.[ C h t q w x D >.A.U.2.OXOXOX@X@XOX",
"OXOXOXOXOXOXOX].OXH.<.D m c a c V ..@.M.Z.M.Z.M.M.b.b.z.z.~ k.z.b.b.v.M.M.=.Z.C.Z.Z.Z.Z.M.M.@.D B m c c V >.<.H.P.P.OXOX@X@X@XOX",
"OXOXOXOXOXOX@X@X@XK.A.,.o. . .X.>.N.Z.G.G.G.G.G.S.S.D.D.n.N.n.N.N.D.S.Z.G.G.G.S.G.G.G.G.G.S.A.@.o.X.F X.>.N.H.L.].P.OXOXOXOXOXOX"
};
