/* XPM */
static char *result[] = {
/* columns rows colors chars-per-pixel */
"64 64 162 2 ",
"   c #1D3D21",
".  c #2C3722",
"X  c #223B21",
"o  c #2B3A23",
"O  c #333623",
"+  c #3C3524",
"@  c #323C23",
"#  c #3E3A24",
"$  c #433525",
"%  c #4C3526",
"&  c #443C25",
"*  c #483B26",
"=  c #523427",
"-  c #503827",
";  c #553528",
":  c #5C3529",
">  c #553B29",
",  c #5B3C2B",
"<  c #613629",
"1  c #623C2B",
"2  c #683F2C",
"3  c #1D4321",
"4  c #1F4C21",
"5  c #234222",
"6  c #2D4222",
"7  c #224D21",
"8  c #2A4E23",
"9  c #324424",
"0  c #3A4526",
"q  c #334D25",
"w  c #245222",
"e  c #2A5522",
"r  c #255922",
"t  c #2C5B22",
"y  c #345425",
"u  c #385426",
"i  c #325D23",
"p  c #3A5D26",
"a  c #3D5428",
"s  c #3D5A28",
"d  c #2F6122",
"f  c #346423",
"g  c #3A6525",
"h  c #366824",
"j  c #3B6B24",
"k  c #3F6329",
"l  c #3F7025",
"z  c #444126",
"x  c #4A4027",
"c  c #4D4429",
"v  c #424F28",
"b  c #4C4D2C",
"n  c #5D422E",
"m  c #544F2D",
"M  c #405527",
"N  c #4A542B",
"B  c #435B29",
"V  c #4D5A2D",
"C  c #51532D",
"Z  c #59552F",
"A  c #535A2E",
"S  c #5B5C2F",
"D  c #5E4030",
"F  c #5D4D30",
"G  c #5D5330",
"H  c #565C31",
"J  c #65422D",
"K  c #6A442E",
"L  c #644C2F",
"P  c #6C492F",
"I  c #644532",
"U  c #6A4731",
"Y  c #664933",
"T  c #6C4C33",
"R  c #724D33",
"E  c #645332",
"W  c #6D5234",
"Q  c #645B31",
"!  c #735435",
"~  c #795536",
"^  c #765936",
"/  c #795A37",
"(  c #775738",
")  c #7C5638",
"_  c #7B5B39",
"`  c #406226",
"'  c #416D26",
"]  c #436429",
"[  c #4B642B",
"{  c #446A29",
"}  c #4C692B",
"|  c #53632D",
" . c #59612F",
".. c #536B2E",
"X. c #437425",
"o. c #497726",
"O. c #477827",
"+. c #4A7A27",
"@. c #457429",
"#. c #49722A",
"$. c #4C7C28",
"%. c #507F28",
"&. c #5C6531",
"*. c #5C6A31",
"=. c #636333",
"-. c #6C6335",
";. c #646B32",
":. c #6C6B34",
">. c #726335",
",. c #726B36",
"<. c #7D6339",
"1. c #756A39",
"2. c #7C6A3A",
"3. c #757037",
"4. c #7A7038",
"5. c #845637",
"6. c #805A37",
"7. c #825638",
"8. c #845C3A",
"9. c #8B5E3C",
"0. c #81653A",
"q. c #8E623D",
"w. c #846A3B",
"e. c #93633E",
"r. c #99653E",
"t. c #916D3E",
"y. c #9B6E3E",
"u. c #83713C",
"i. c #8C723C",
"p. c #93733E",
"a. c #9F743F",
"s. c #A46B3E",
"d. c #A6733F",
"f. c #8D6F40",
"g. c #956540",
"h. c #996640",
"j. c #966940",
"k. c #9E6941",
"l. c #957242",
"z. c #9C7442",
"x. c #997844",
"c. c #A46D43",
"v. c #A86F44",
"b. c #A47543",
"n. c #AC7345",
"m. c #A57845",
"M. c #AC7946",
"N. c #AB7249",
"B. c #AB7A49",
"V. c #B57544",
"C. c #B97642",
"Z. c #B37946",
"A. c #BD7A45",
"S. c #B37649",
"D. c #B57B49",
"F. c #BD7C4A",
"G. c #C07C47",
"H. c #C27E4B",
"J. c #528129",
"K. c #BE804D",
"L. c #C5814D",
"P. c #C68351",
/* pixels */
"L.L.L.A.H.L.L.L.L.L.L.L.L.P.L.L.H.P.P.H.L.L.L.L.L.L.L.L.L.L.L.L.L.L.L.L.L.L.L.L.G.G.H.L.L.L.P.L.L.L.H.G.H.H.G.H.H.H.P.P.P.H.P.H.",
"P.L.L.A.L.L.L.L.L.L.P.P.P.L.L.L.H.P.P.P.P.P.L.L.H.L.L.L.L.L.L.L.L.L.L.L.L.L.L.L.G.H.L.L.L.L.L.L.L.L.H.H.H.H.H.H.H.P.P.P.P.P.P.P.",
"P.P.L.A.H.L.L.L.L.L.P.P.P.L.L.L.P.P.P.P.P.P.L.P.P.L.L.L.L.P.L.L.L.L.L.L.L.P.L.L.G.H.L.L.L.L.L.L.L.L.L.L.P.P.P.H.P.P.P.H.L.L.H.P.",
"L.L.L.A.H.L.L.H.L.L.L.L.L.L.L.L.H.H.P.H.H.H.L.P.P.P.P.P.P.P.P.L.L.L.L.L.L.P.P.P.G.H.L.L.L.L.L.L.L.P.P.P.P.P.P.P.P.P.P.H.L.H.P.H.",
"L.F.H.A.H.L.L.H.H.H.H.P.P.P.P.L.H.P.H.G.H.H.G.L.P.L.L.L.L.P.L.L.L.L.L.L.L.L.L.P.G.G.L.P.P.P.P.P.L.L.L.L.P.L.H.G.H.H.H.H.H.H.H.L.",
"L.H.H.A.H.L.L.H.H.H.H.P.P.P.P.L.H.P.P.H.H.H.H.P.L.L.H.H.H.H.H.L.L.L.L.L.L.L.P.L.G.H.L.P.P.P.P.L.L.H.H.L.P.H.H.H.H.H.H.H.H.P.L.L.",
"P.P.P.A.L.L.L.L.H.H.H.H.H.H.L.L.H.P.P.P.P.P.P.P.L.H.L.G.H.G.H.L.L.L.L.P.P.P.P.P.G.H.L.L.L.L.L.L.L.L.L.H.H.H.H.H.H.H.L.P.P.P.L.L.",
"L.L.L.A.H.L.P.P.P.P.G.G.G.G.L.L.H.P.H.H.F.F.F.F.G.H.H.L.H.L.H.H.L.L.L.L.P.L.L.L.G.H.L.L.L.H.H.H.L.L.H.G.G.G.H.P.H.H.L.L.L.L.L.L.",
"G.G.A.C.A.A.F.H.H.H.G.G.C.A.G.G.A.A.A.A.C.A.F.D.V.A.G.A.A.A.G.G.L.G.G.A.F.G.G.A.C.A.G.A.G.F.G.A.G.G.G.G.A.A.G.L.H.G.G.G.G.G.G.G.",
"A.F.A.A.A.F.H.H.G.G.G.G.G.G.A.A.Z.p.:.k t r r r r t f [ :.p.d.u.>.` d e t ] =.p.d.C.A.A.C.A.A.A.G.G.G.G.A.G.G.G.G.A.G.G.G.G.G.G.",
"H.L.H.L.P.P.P.P.P.P.P.P.P.P.H.F.B.l.;.] f t t r t t f | :.p.p.i.;.` i t t ] ;.i.b.Z.A.F.H.H.G.H.G.H.H.L.G.G.H.P.G.G.G.H.P.H.G.H.",
"H.G.G.H.L.L.L.L.H.P.P.P.P.K.D.B.x.4.*.] g f h f d f f } ;.4.u.3.*.` f f f { *.1.i.m.Z.F.H.H.H.H.H.H.L.L.H.H.L.P.G.G.H.H.P.P.P.H.",
"L.H.H.H.H.L.L.P.P.L.L.L.K.D.m.i.3.;...@.@.l X.j j j g { | *.;.*.} ' j h h ' } *.,.i.m.K.K.A.H.G.L.P.P.L.P.L.L.L.G.A.L.L.P.P.P.P.",
"L.L.L.H.H.H.H.P.P.P.L.F.F.B.i.3.*...#.$.@.+.+.+.@.X.l @.{ [ [ } ' ' j j j j { [ *.:.p.B.Z.F.F.F.H.P.P.P.P.H.H.L.H.G.L.L.H.H.H.L.",
"L.H.L.G.F.F.F.L.L.L.F.Z.M.p.4.*.} { @.$.J.$.%.+.+.o.@.l j ' g j g j X.X.X.j j k { *.1.l.m.D.F.L.L.L.L.L.P.H.H.H.G.G.L.L.L.L.P.H.",
"L.P.P.P.L.H.H.L.L.H.Z.m.i.4.;...@.@.$.J.J.J.J.$.+.o.X.' l l l j j ' j j j j j j g [ *.1.i.z.Z.F.H.P.P.P.P.P.P.H.G.A.L.L.P.P.P.L.",
"L.P.P.P.P.L.L.H.L.F.b.i.,.;...@.@.$.J.J.J.J.$.O.o.X.X.X.X.X.X.l l j h h h h j j j g ] V =.w.b.D.H.L.P.P.P.P.P.L.H.A.L.L.P.P.L.L.",
"L.L.L.L.L.L.L.G.F.Z.p.2.*.} { @.$.$.$.J.$.+.O.X.X.X.X.o.o.+.O.X.l h h h g h h j j g g a V -.p.M.H.L.H.L.L.L.L.L.H.A.L.L.L.L.L.L.",
"L.L.L.H.L.P.P.P.L.K.x.,.| k j @.$.$.$.O.X.' j j h j l X.+.J.+.o.l h f d d f h h j g i i a H 2.p.n.G.H.L.L.L.L.H.H.A.L.L.L.L.L.L.",
"G.G.G.G.G.H.H.H.G.K.p.:.[ g g l @.@.l g f f d i d h h l o.+.J.o.X.h d t t t d h j f f t i s A -.w.d.d.G.G.G.G.G.G.C.G.G.G.G.G.H.",
"G.G.G.d.G.G.A.A.C.Z.p.,.| ` j j l l h t t e t t t d h l O.$.$.+.X.h t t r t t d f f f f d y y N Q w.d.A.A.A.A.A.C.C.A.A.G.A.A.A.",
"H.L.H.A.H.H.L.H.L.F.d.4.;.[ { ` j g f t t e e e t d h j X.+.$.+.X.h d t e t t t t f f f f e y u S w.m.A.L.K.F.A.A.F.A.G.L.L.H.L.",
"H.P.L.A.H.L.L.L.L.K.M.x.u.:...] ` f f d d d d d d d f j X.+.J.+.X.l h d t r t t t t f d d t e y A 2.n.L.L.L.H.L.H.H.H.H.P.P.L.L.",
"L.P.L.G.H.L.L.L.L.F.F.M.z.i.;.[ p i f g g j g h j f f j X.+.$.+.o.l j h f t t t t t d d d e e y N 2.M.F.L.L.L.L.H.P.L.L.L.L.P.L.",
"H.L.L.C.H.L.L.L.H.G.G.C.d.p.:.[ p i f j j l l j j j j j X.O.+.+.o.l j h h f d t w t t t t r 8 q C 2.B.P.P.P.P.P.P.P.H.H.G.H.H.H.",
"L.L.H.C.H.L.L.L.L.H.F.V.a.w.:.V ` f h j l l l j l j l l X.O.O.o.X.l l j h h d t t t t t t w e q H 2.m.H.H.P.H.H.H.P.P.H.H.H.P.H.",
"P.P.H.A.H.L.L.L.L.K.M.l.<.=.| ] p g g j h j j j l l X.X.X.X.l l j j j j j j h d t t e e w w 7 y A 2.n.H.H.H.H.H.H.H.L.P.L.L.H.P.",
"P.P.H.d.H.L.L.L.L.K.b.<.Q B p g j j j f h h h j l o.o.o.X.l j h h h j j l j j h f t w e 7 7 8 M H w.F.H.H.H.H.H.H.P.H.H.H.H.P.H.",
"L.L.H.A.G.H.H.L.L.D.z.-.V u i g l l j f d d f f j o.+.J.O.l h h f h h j j l j j h d e 7 5 8 u C -.f.B.H.P.P.P.P.P.P.H.G.G.H.H.P.",
"L.L.H.C.H.L.L.L.P.D.z.-.N y f j X.l j i t t f h l o.+.+.+.l j h h f h h j j j j h i e 7 8 u A -.w.b.D.H.H.H.P.L.P.P.H.H.H.H.P.H.",
"H.G.G.A.H.G.G.H.P.D.l.Q N p f ' X.' ` e e t i f l o.+.J.+.X.l h h f f h f j j j j f t 8 q N >.t.b.Z.F.F.G.H.G.G.H.G.G.G.H.G.H.H.",
"G.G.G.C.G.A.G.A.A.Z.y.>.A B B ' o.' ` p y y d f j X.+.J.+.O.l j h h f f f f h l j g t 8 y S 0.a.n.C.C.A.A.G.G.A.A.C.A.A.A.A.A.G.",
"L.H.L.H.H.L.H.H.L.F.n.w.-. .[ { { } [ V V M u g f X.$.$.+.X.l l j h f d d d h j j g t 8 u Z 0.s.d.A.F.H.H.H.H.H.H.A.H.H.L.H.L.H.",
"L.L.L.L.L.L.L.L.L.H.Z.a.t.2. .[ ] [ &.1.>.&.B i f X.+.$.+.l j j l j h d t t f j j h t 8 q b ^ q.s.A.F.P.P.P.P.L.H.A.L.L.L.L.L.L.",
"L.L.P.L.L.L.H.H.G.L.F.Z.n.p.1.S V &.1.l.f.>.N i i ' O.+.+.l h h j h f t e e t f g g i e q b L 6.g.c.D.F.K.P.H.P.G.C.H.L.H.L.L.L.",
"L.P.P.P.P.L.F.F.A.L.K.L.F.M.i.-.=.>.j.m.z.1.V y i g +.+.O.l h h h f d t 7 e e i f f y y M b Q ~ 8.g.c.D.F.F.P.P.H.V.L.L.L.L.L.L.",
"L.L.P.L.L.L.H.L.L.P.P.P.L.K.z.w.w.f.c.M.b.<.V y i g +.$.O.j h f d d r w 7 7 e e i y M N C G Q ! ) 9.g.c.S.D.P.H.H.d.L.H.L.P.P.P.",
"L.L.L.L.L.L.L.L.L.P.L.P.L.K.Z.m.b.m.D.D.B.2.V y i h o.+.o.j f t t e w w 7 7 w w e y N Z Q E ! ^ / ) 8.g.c.S.F.H.H.A.L.L.L.P.P.P.",
"P.P.L.L.P.L.L.L.L.L.L.L.K.K.F.F.D.D.P.K.B.w.Z u p g ' X.' h t t w 7 7 7 7 w 7 4 7 0 b Q R ^ ^ / / ^ _ 9.e.N.S.F.H.G.L.L.L.L.L.L.",
"L.L.L.L.P.P.P.P.P.L.L.L.L.L.L.L.P.L.L.F.Z.q.Q N M s g g h d w 7 7 3 3 4 w 7 4 3 7 0 c L P ! / / / ^ ( _ 8.g.k.c.G.A.L.L.L.H.L.L.",
"L.L.L.L.L.L.L.L.L.L.L.L.L.L.L.L.L.L.L.H.Z.r.^ Z N u y t e w w 4 3 3 3 4 w w 4 3 3 6 x 1 P R / / ( / ^ / 6.8.q.9.G.A.H.L.L.L.L.L.",
"H.L.H.G.H.H.L.L.H.H.H.H.H.H.H.H.F.H.A.C.n.e./ E m v y 8 7 7 5       3 4 4 w 4 4 3 . x > 2 P R / ( / ( / / ~ ~ ~ G.A.H.H.H.H.H.H.",
"A.A.A.A.C.C.C.A.A.A.A.G.A.A.A.A.A.C.n.s.r.e.) W F b 0 6 6 6 6 5     3 7 w 4 4 3 X . & = 1 K P P ! ( ! ^ ! ! ! T A.C.A.A.A.G.G.G.",
"H.L.G.A.L.L.L.L.P.P.H.P.L.L.H.F.F.D.b.r.q.0.( ! P m x & & # # @ .   3 3 w w 4 3 X . & = < 1 P P P ! ( ! ! ! T T G.G.G.H.G.H.H.G.",
"L.L.H.G.L.L.L.L.P.P.P.P.P.L.L.P.H.S.k.q.6.) / ! P n n % % % $ + .     7 w w 4 3 X . $ % : < < 2 P T ! ( ! R T T L.P.L.H.L.L.L.L.",
"H.L.L.G.L.L.L.L.H.H.H.H.L.H.L.H.F.n.e.6.~ ! ( ! ! P , : : : % $ . X   4 w w 4 3 5 . $ = : < : < J T ! ^ ! ! W T L.H.H.G.H.L.L.L.",
"L.L.L.d.H.L.L.A.G.G.F.H.L.L.L.L.F.n.e./ ! ! ( ! R K 1 < < : = $ O X   7 w w 4 3   . $ = : : : < J P ! ! ! ! R R H.L.G.H.G.G.H.L.",
"L.P.P.d.H.L.L.L.H.H.H.L.L.L.L.P.F.n.e.) ! ! ^ ! R K 2 < < : ; $ O .   7 w w 4 3 X . $ % : : : < J P ! ! ! ! R R H.L.H.H.H.H.L.L.",
"L.P.L.A.H.L.L.L.L.L.H.H.H.H.H.H.F.N.e.) ! ! ^ ( ! P K < < < ; % O . 5 7 8 e 8 5 o . $ ; : : < 1 K T ! ! ! T T T H.L.L.L.L.L.P.L.",
"L.L.H.A.L.L.L.L.L.L.H.G.G.G.H.P.F.n.e.( ! ! / _ / R P 2 1 < ; % $ O @ 9 9 9 9 @ @ + % ; : 1 1 2 P T ! / ! ! ! T P.H.L.L.L.P.P.L.",
"P.P.L.A.H.L.L.H.L.L.L.H.H.H.H.H.F.N.e.~ ( / _ <.<./ R P 1 1 = = % $ & & z z z & * % ; : : 1 I T R ! ! / ! ! T R H.L.L.L.L.L.L.L.",
"P.L.L.A.H.L.L.H.L.L.L.L.P.H.H.H.F.n.e.7.) / 2.0.0.6./ R P J 1 : = = - - > > > , , , : : 1 I T ! ! ^ / ^ ~ ! ! ! H.L.L.L.L.L.L.L.",
"H.H.G.A.G.H.H.H.H.H.H.H.H.G.G.G.F.n.h.9.8.<._ f.0.<.<.^ W P J 1 1 1 1 1 , 1 1 K 2 J 1 1 2 I R ( / / / / / ~ ~ ~ H.H.L.H.L.H.H.H.",
"A.G.A.A.A.A.A.C.A.G.G.G.G.G.G.C.V.S.c.r.q.8.<.0.0.<.<./ ^ ! T P P K J P K K P R R R R P T T ( ( / ^ / ) 6.9.9.q.A.A.d.A.A.A.A.A.",
"H.H.H.H.G.G.G.G.G.G.H.H.H.H.G.G.H.F.S.v.k.g.8._ / <.2.w.0.<.<.^ ! ! R ! ! ! / / _ / ! ! W ! ( ( ^ ! ~ ) 9.r.s.v.G.A.H.H.H.H.H.H.",
"H.L.L.L.L.H.H.H.G.H.P.P.P.H.H.H.H.H.P.F.N.g.8.R ( / <.w.0.<.<.<.( ! ! ! ! ~ / <.<.<./ ~ ( W ( ( ! W ! ) e.c.S.F.H.A.L.H.H.H.L.L.",
"P.H.P.H.P.P.L.H.H.H.P.P.P.P.P.P.H.P.P.H.F.c.) R W ( ( 1.<.<.<.( ! ! ! ! ! ( ( ( ( ( ( ( ( T ( T T T T ) g.N.H.P.G.G.H.H.H.H.H.P.",
"P.P.H.H.P.L.L.L.H.H.H.P.P.P.P.H.H.P.H.H.S.h.) U I Y W ( ( W ( ( W T T T Y W W ! ( ) ( T W Y T T Y I 2 R 9.N.H.H.G.A.H.H.H.P.P.P.",
"H.H.H.G.H.H.H.P.P.P.P.P.L.L.H.H.P.H.H.H.S.h.~ 2 D I Y Y Y Y Y Y Y Y Y I Y Y Y Y Y T Y Y Y I Y I I , 2 ~ 9.c.H.H.G.C.H.H.H.P.P.P.",
"P.P.G.G.L.H.H.P.P.P.H.P.L.L.L.L.H.P.H.H.S.c.5.U Y D D D I I I I Y Y I I I I Y Y I Y I I I D D D 2 Y R 7.g.N.H.P.H.d.G.G.H.H.H.H.",
"H.H.P.H.H.L.L.H.H.H.H.L.L.H.H.H.P.H.P.P.H.N.h.7.T Y 2 D D I I Y Y Y Y Y I I I Y Y Y Y I I D D D I R 7.g.n.G.H.P.G.A.L.H.P.H.P.H.",
"P.H.L.L.L.L.L.H.H.H.L.H.H.H.H.H.P.H.H.P.H.S.N.g.8.R D , D I Y T T Y T Y T T T T T Y T Y I D D , Y ) g.N.G.H.H.H.G.L.L.L.P.P.P.L.",
"L.L.L.L.P.H.P.P.L.H.L.H.H.H.H.H.P.H.H.H.H.H.F.N.g.) I , , Y T T T T T T T T T T Y T T T Y I D D T 9.N.F.L.L.H.H.H.G.L.L.P.P.P.P.",
"L.L.L.L.P.H.P.P.P.P.H.L.H.H.L.H.H.P.P.H.H.H.H.S.g.( I , D Y T R T R W T ( T T R ( T W W Y , D D R g.S.H.P.P.L.H.G.G.L.L.H.P.P.H."
};
