/* XPM */
static char *result[] = {
/* columns rows colors chars-per-pixel */
"64 64 193 2 ",
"   c #010B0F",
".  c #06100E",
"X  c #030D11",
"o  c #071111",
"O  c #0D1415",
"+  c #0C181A",
"@  c #111615",
"#  c #141916",
"$  c #191B16",
"%  c #141B1B",
"&  c #1C1D1B",
"*  c #271C15",
"=  c #291A17",
"-  c #2A1C18",
";  c #1F211B",
":  c #24221B",
">  c #2C231C",
",  c #2F281E",
"<  c #34271C",
"1  c #1A1E22",
"2  c #191F25",
"3  c #1E2322",
"4  c #1F2824",
"5  c #1C312D",
"6  c #232524",
"7  c #2D2C25",
"8  c #262728",
"9  c #242B29",
"0  c #2A2B2D",
"q  c #332D25",
"w  c #3A2F22",
"e  c #332C2D",
"r  c #24332D",
"t  c #2D312B",
"y  c #3D3124",
"u  c #37372D",
"i  c #272730",
"p  c #2A2A31",
"a  c #2F2C39",
"s  c #302F30",
"d  c #332F3B",
"f  c #2E3230",
"g  c #343334",
"h  c #373637",
"j  c #3A333D",
"k  c #3D3A3B",
"l  c #47281E",
"z  c #5A2C1E",
"x  c #63271D",
"c  c #442D23",
"v  c #502E22",
"b  c #5B2D24",
"n  c #433424",
"m  c #4C3524",
"M  c #4E3926",
"N  c #41362C",
"B  c #4D3A29",
"V  c #5B3320",
"C  c #543C26",
"Z  c #513D29",
"A  c #5C3E29",
"S  c #443A3A",
"D  c #523538",
"F  c #672E22",
"G  c #683627",
"H  c #7C3425",
"J  c #3C443B",
"K  c #3B493F",
"L  c #5D4027",
"P  c #55412D",
"I  c #5D432B",
"U  c #454132",
"Y  c #5D4433",
"T  c #584A35",
"R  c #61452D",
"E  c #68492D",
"W  c #76472C",
"Q  c #674A36",
"!  c #6A4B30",
"~  c #764638",
"^  c #775436",
"/  c #7C5434",
"(  c #363240",
")  c #3A3441",
"_  c #3D3944",
"`  c #423D43",
"'  c #533C41",
"]  c #3C4C42",
"[  c #464144",
"{  c #494346",
"}  c #464945",
"|  c #4C4549",
" . c #4E4C4B",
".. c #544243",
"X. c #514B4C",
"o. c #4B5649",
"O. c #4D554B",
"+. c #51524E",
"@. c #5B5A4A",
"#. c #515651",
"$. c #535A53",
"%. c #5D5B52",
"&. c #614644",
"*. c #784742",
"=. c #695549",
"-. c #725C4C",
";. c #7D5D4D",
":. c #5E604C",
">. c #546555",
",. c #5D6A57",
"<. c #586258",
"1. c #596459",
"2. c #566959",
"3. c #5B6A5C",
"4. c #5E715F",
"5. c #6E604F",
"6. c #646C5A",
"7. c #6A6D5A",
"8. c #786F51",
"9. c #6C735B",
"0. c #73765D",
"q. c #787458",
"w. c #5F7260",
"e. c #607462",
"r. c #893D29",
"t. c #9B3C2C",
"y. c #AC3E2A",
"u. c #B33F2A",
"i. c #8E402D",
"p. c #98482C",
"a. c #84483C",
"s. c #835734",
"d. c #855935",
"f. c #8D5A34",
"g. c #855A39",
"h. c #8A5D3A",
"j. c #965737",
"k. c #905F3B",
"l. c #B64B33",
"z. c #A45531",
"x. c #8C613C",
"c. c #966338",
"v. c #93633D",
"b. c #9D663B",
"n. c #A16238",
"m. c #A36A3B",
"M. c #B56A39",
"N. c #C14E35",
"B. c #CC5B37",
"V. c #D55436",
"C. c #DC5534",
"Z. c #D85E36",
"A. c #CC6038",
"S. c #D6753D",
"D. c #ED643B",
"F. c #EC6B3F",
"G. c #F46D3F",
"H. c #E1723F",
"J. c #875B43",
"K. c #965341",
"L. c #975B44",
"P. c #A85541",
"I. c #84614D",
"U. c #8C654A",
"Y. c #936843",
"T. c #8B7756",
"R. c #927D59",
"E. c #A36C41",
"W. c #AA6F42",
"Q. c #AB7144",
"!. c #B57443",
"~. c #B97642",
"^. c #BD7A45",
"/. c #BE7B49",
"(. c #CF6841",
"). c #C07C47",
"_. c #C27E4B",
"`. c #CE7C49",
"'. c #D37644",
"]. c #E27540",
"[. c #F87E44",
"{. c #9C845C",
"}. c #B7804D",
"|. c #B68051",
" X c #C5814D",
".X c #D68246",
"XX c #DE8747",
"oX c #DD8448",
"OX c #C68451",
"+X c #CD8C54",
"@X c #D49155",
"#X c #EA8749",
"$X c #F5884A",
/* pixels */
" X X X^._. X X X X X X X X X X X X X X X X X X X X X X X X X X X X X X X X X X X^. X X X X XOX X X X X^.)._./._._.OXOXOXOXOXOX_.",
"OX X X^. X X X X X X XOXOX X X X X XOX XOXOX X X X X X X X X X X X X X X X X X X^.). X X X X X X X X_._._._.)._.OX_.OXOXOX`._.OX",
"OXOX X^._. X X X XOXOXOXOX X X X XOXOXOXOXOX X X X X X X X XOX X X X X X X X XOX^. X X X X X X X X X X XOXOXOX_.OXOX_.OX X XOX X",
" X X X^._. X X_. X X X X X X X X_. X XOX X_. XOXOXOXOXOXOXOXOX X X X X X XOXOXOX^. X X X X X X X X XOXOXOXOXOXOXOXOXOX_. X`. X X",
" X/._.^._. X X_.)._._.OXOXOXOXOX X X_./._./._. XOX X X X X X X X X X_. X X X X X^. X XOXOXOXOX X X X X X X X_._./._./._./._. X X",
" X_._.^._. X X_._._.`. XOXOXOX X X`.OX/._._. X X X X_._._. X_. X X X XOX XOX XOX^.). XOXOXOX X X X X X X X X_.)._._._._. XOX X X",
"OXOXOX^. X X X X_.OX_._. X_. X X_.OXOXOXOXOXOXOX X_. X/.)._.)._. X X XOXOX+XOXOX^. X X X X X X X X X X_. X_. X X_.OX XOXOXOX X X",
" X X X^._. XOXOXOX X_.).).)._. XOX_.OX_././././.)._. X X X_._. X X X_.OX`. X X X^. X X X X X X X X X_.^././.). X_._. X X X X X X",
"^.)./.~.^./.)._._./.^.^.^.^.^.^.).).).^.^.~.^.~.~.^.).^.^.).).).^.).^.).^.).).).~.^.).^.^.!.!.!.!.!.!.!.!.~.~.).).^.).).).).).^.",
"^.^.).^./._.)._._./././././._.^.^.).^.^.^.).^.^.~.^.^.^.^.^.^./.^.).^.^.^.^.^.^.~.~.^.!.b.f.d.s.s.d.d.d.h.b.Q.^.^.~.^.).^.^.^.^.",
"_. X_._.OXOXOXOXOXOXOXOXOXOXOX X X X X}. X X_._.^. X X_. X X X_. X X X X X X X_./././.Q.h.R B B B Z B B R / Y._._.^._._. X X X X",
"_._.)._. X_.OX_. X XOX XOX X X X X X_.OX_._._._.^._. X_._._._././._._._._._._._._._./.W.! w : * : : ; : w R x./._.~. X XOXOXOXOX",
" X_._._._._.OXOXOXOX X X X X X X X X/.Q.Y.v.c.h.f.v.v.v.x.k.v.c.v.v.c.h.k.k.k.v.v.c.v.g.P 7 6 3 3 3 % @ : Z h./. XM. X XOX XOX X",
" X X X_._._._.OXOXOX X_. X_. X X XOX!.h.E B m m m B M M M M M Z Z M Z M M m M Z M Z M B u g g g g 0 9 % : Z x./. X~. X X X X X X",
"`._. X).)._.)._._. X_.).)./._. XOX/.Q.^ n : & : : : : : : : : : : : : : : : : : : * : 7 u S ` [ ` k p 3 : Z x.^. X~. X X X X X X",
" XOXOXOXOX_._. X X X_._._._._._.!.E.x.Y t 4 4 4 4 4 4 4 4 4 4 4 4 4 4 4 6 4 4 4 4 4 4 9 h { | X.| [ g 3 : n ! Y.E.~. X XOXOXOX X",
" XOXOXOXOX X X_._._._._._.OXOX!.d.! P U K K K K K K K K K K ] K K K K K K K K K K K K ] }  .| X.X.{ h 3 # : n Z I ^. X XOXOXOX X",
" X X X X X X X_././._./._._. XY.! y 7 J o.2.2.2.>.>.>.>.>.>.>.>.>.>.>.>.>.>.>.>.>.>.>.>.+.X.| | | U g 3 @ # & : : ^. X X X X X X",
" X X X X XOXOXOXOXOXOXOX_./.W.x.P 7 r K >.9.4.4.w.w.4.w.3.w.w.w.4.4.w.w.4.4.4.4.4.w.w.3.$.X.| { [ k s 6 % % @ O O ^. X X X X X X",
"/._.^.^.^._._._._./._./.W.f.! Y U J K O.4.e.e.e.e.e.w.e.w.e.w.e.w.w.w.e.e.e.e.e.e.e.w.6.$.X.[ k g 0 p p 0 6 % O O ~.^.).).).).).",
"^.).}.M.^.^.^.^./.^.^.~.c.I y 7 K O.>.4.w.w.w.w.w.w.w.w.w.w.w.w.w.w.w.w.e.4.e.e.w.w.w.3.$.+.{ g 6 3 9 h k e 3 O o ~.^.^.).^.^.^.",
" X X X^. X X X X_._./.W.g.B , r ] >.w.w.w.w.w.w.w.w.w.e.w.w.w.w.w.w.w.e.4.4.3.e.w.w.e.3.$.#.| g 6 3 0 k [ h 4 + o ^.^./. X_. X X",
" X X X^._. X X X_.Q.Y.g.Y u q h o.2.w.w.4.w.4.4.w.w.w.w.w.w.w.w.e.w.w.w.4.e.e.4.4.e.4.4.1.$.+.] f f h [ [ h 6 @ o _._. XOXOX X X",
" XOX X~._. X X X^.k.E n q u k | >.3.w.w.w.w.4.w.w.w.w.w.w.w.w.w.4.4.e.w.e.4.4.e.4.w.4.4.4.3.$.O.[ S [ | [ g 6 @ o OX X_. X XOX X",
" X X XM.). X X XM.f.C : 1 g ` +.$.3.e.e.w.w.w.w.w.w.w.w.w.w.w.w.4.e.e.4.4.e.e.e.w.w.w.w.w.4.4.$. .S ` ` S s 3 @ o OX_.).)._._.OX",
" X X+XM. X X X X}.x.M : 3 g [ +.1.3.w.w.w.w.4.4.w.w.w.w.w.w.w.w.e.4.w.w.e.3.e.4.4.4.w.w.w.w.2.O.J h g g a 9 % O O _. X_._._.OX`.",
"OXOX XM. X X X X^.x.P : 3 g [ +.1.3.e.4.w.w.w.w.e.4.w.e.w.w.w.w.3.w.e.w.e.4.3.e.4.4.w.w.w.w.2.} f 3 3 3 ; % # @ O _. XOX XOX_. X",
"OXOXOX^.). X X X!.d.P : & g [  .%.3.3.4.w.w.w.w.4.e.4.4.w.w.w.w.e.w.4.w.4.e.4.e.w.w.w.w.w.4.>.] 9 % O O O % & : * OX_._._._. X X",
" X X}.M.+X X X X/.x.P ; ; f [  .#.%.1.3.4.w.w.w.e.e.e.e.w.w.w.w.w.w.w.e.e.e.e.6.w.w.w.w.3.1.$.} f 3 % @ @ : y U P OX_././._. X X",
" X X X~. X X X X/.x.P : 3 f S  .+.#.$.<.3.w.w.w.6.e.e.w.w.w.w.w.w.w.w.e.e.e.e.w.w.w.w.4.1.#.O.} k f 6 1 $ y I / v. X X_._._. X X",
"}. X}.}.}. X}. X!.g.B : 3 g ` | | | X.%.3.6.6.3.2.2.2.2.4.6.7.7.6.6.3.,.4.2.2.2.,.6.6.6.%. .| | { S a 3 : m / Q.^.^.)._._.)._._.",
"M. XS.M.M. X^.^.Q.x.B : 3 g ` | { ` | =.;.;.=.O.] ] ] o.@.-.I.I.I.8.-.@.o.] ] ] o.=.;.;.=.| [ { | [ g 3 : M d.!.^.!.^.^.^.^.^.^.",
"_. X_. X X_. X_.^.h.B : 3 g ` { ` ` ' *.K.j.~ N 5 5 r u Y a.P.P.P.P.a.Y k r 5 r N ~ j.K.*.' ` ` ' ` j 3 : B h.!. X~. X X X X X X",
" X X X X X X X X/.g.Z : 3 g [ [ ` ) ' a.l.l.i.v ; + ; > b i.N.V.V.N.r.b , % + ; c r.l.l.K.' ) ` | ` d 3 > Z h./. X~. X X X X X X",
" X XOX X X X_._.^.g.B : 3 g [ [ _ ( D K.B.B.z.W m , $ * b p.Z.D.D.C.p.b * $ , m i.z.B.B.K.' ( ) [ [ g 4 : U g./._.M.OX X X X X X",
" XOXOXOXOX_././.!.g.Z : 3 g ` [ _ ) ' L.(.'.S.M.f.R > * V z.H.$X[.].z.V * > R f.M.S.'.S.K.` ( ) [ ` g 3 ; B x./._.!. X X X X X X",
" X X X X X X_. X/.h.B 6 3 g ` [ _ ) ' L.).#X#XXXM.d.n , A n.#X$X$X#Xm.L < y d.M.oX#X#X XL.' ) _ { ` g 4 : M h./.}.^. X X X X XOX",
" XOX X X X_. X X/.h.Z : 4 g [ | ` ` | I.}.+X@X+X}.Y.P J T U.}.@X@X}.v.T u P Y.}.@X@X+X|.I...` ` { [ g 3 : Z h./. XM. X X X XOX X",
"OXOX X X XOX XOX/.h.Z : ; g [ | | ` X.5.T.{.{.{.{.8.:.o.%.T.R.{.{.{.8.:.o.:.q.{.{.{.{.T.5. .[ { | [ g 3 : Z x./. XM. X X X X X X",
" X X X XOXOXOXOX/.x.Z : 3 g [ | | | X.%.9.0.0.q.9.6.2.>.7.e.e.0.0.9.9.,.>.,.6.9.0.0.0.7.%. .| | | [ g 3 : Z h./. X^. X X X X X X",
" X X X X X XOX X/.Y.! N q g k ` | |  .$.1.3.3.3.3.3.3.3.3.3.3.1.4.2.2.2.3.3.3.1.3.3.1.1.$.X.| { U S g q n ! v./. XM. X X X X X X",
"_. X^. X X^. X X/.Q.c./ I N q g S |  .X.#.#.#.#.$.%.$.$.$.#.$.$.$.$.$.$.$.$.$.$.$.#.$.#.+. .{ k f t N I / v.Q.). X}.). X X).). X",
"^.~.^.^.^.~.~.^./.!.!.E./ B : 6 s `  . . . . . .+.X.X.X.X. . . . . .O. .+.X.X.X. . . . .X.| ` p 6 8 B / m.!.~.^.M.M.}.^.^.^.^.M.",
" X_. X~.}. X X XOXOXOX/.Y.Z : % i k ` { { { { { ` | ` ` ' | ` | { { { { | ' ` ` ` | | ` [ ` k i % : B v./. X_._. X X X X X X X X",
" X X X^. X X X X_.OXOXOXY.m * O 1 8 p d ) ` ` ` ` ` ` ` ` ` _ ` _ _ ` ` ` _ ` ` ` ` ` _ ( p i 1 @ ; B Y.OXOX X X X X X X X X X X",
" X X X X X X X X_._._._.k.Z 3 @ @ % 3 i d ) _ ) ) ) ) ) ) ) ) ) ) ) ) ) ) ) ) _ ) _ ) ( i 1 % O O : Z v.|.OXOX X X X}.}. X X X X",
" X X XM._. X X)././.!.W.h.A < = - = - e j ) ) ( ) ( ) ) ) ) ) ) ) ) ) ) ) ( ( ( ) ) ) ( e - = = - < A g.Q./._. X X XS.^.}.^. X X",
" XOXOXM._. X X_./.W.Y./ W G F x z F z D ` _ _ ) ( ) _ _ ` ` ` ` ` ` ` ` ` _ _ ( ) ) _ ` D F F x F F G W / c.W.^.). X X). X X). X",
" XOX XM. X X X X}.c.E n v H t.y.u.y.t.H ' ` _ ) ) _ ` ` { { { { { { { { ' ` ` ) ) _ ' ' ~ t.y.u.y.t.H v N ! v././.OX X X XOX X X",
" X X X}. X X X X^.x.B : l r.l.C.C.V.N.K.&.` ` ) ) _ ` ' { ` S [ S ` [ { ` ` ) ) ) _ | &.K.N.C.C.V.l.r.l : B h./.OX_. X X XOXOX X",
"OX X+XM.}. X X X^.x.m > l p.B.F.[.D.(.K.&.` ` ( ) _ ` ` S j j d h h j _ ` ` ` ( ) _ ` &.K.(.D.G.G.A.p.l : B h.!./. X X X XOX X X",
"OX X+X^. X X X X}.d.B : v j.S.$X$X$X'.Y.X.` ( ( ) ) _ _ d 0 3 1 3 3 i ( ) ` ) ) ( ( ` ' L.'.#X$X#XS.j.l - B g.~._.OX X X X X X X",
" X X XM.OX X X X^.x.I w C f.M.XXXX.X~.J.' ( ( ( ) ) ( ( i 2 @ O O O 1 i d ) ) ( ( ( ( | J.)..XXX.XS.f.C w L x./. X X_. X_._._. X",
"}.M.}.M. XM.M.}.!.c./ I I / c.m.m.n.h.~ ` ( ( ( ) ) ( ( i 2 O o . O 1 i d ( ( ) ( ( ( ` Q h.b.m.b.h./ R L / c.!.~.M.^.^.^.^.^.^.",
" X X X). X^.}.!.~.!.b.x./ E L L A C C D ` ( ( ( ( ( ) ( i 1 X X o O 1 i d ) ) ( ( ( ( j D Z A A L L E / x.b.Q.^.^.^._.)._. X^._.",
" X X X X X X XS._.}. X!.x.P , ; # $ & i d ( ( ) ( ) ( ( i 2 O o O O 1 i d ( ) ) ) ) ( d i & $ # # , P x.!./._. X X^. X_._._. X X",
"OX_.OXOXOXOX X_. X XOX XY.B & X   . O 2 d ( ) ) ) ) ) d i 1 O O o O 3 i d ) ) ( ) ) ( d 2 + X X X & B c. XOXOXOX X~. X^././. X X",
"`.OX_._. X X X X X X X X X X X X_. X_.OX_._._._.^. X X X X X X XOXOXOXOX X X X X_._._.OX_._.OXOX_._./.)._. X X X XM. X XOXOXOXOX",
"OX_._._._._. XOX XOXOXOX X X_. X X X X XOX_._.).~. X X X X X X XOX XOX X X X X_._._._._._.OX_.`._._._._._. X X X X^. X X_. X XOX",
" X X_._.).)._. X X XOXOX X X X X X X XOXOX_.).).~._. X X X X X X_. X X_. X X XOX_._.).)._._._.OX XOX X X X X X X}.M.^._./. X X X",
" X X X_. X X X_.).)._. X X_._. X X_. XOXOXOX_._.~._.OXOXOX X X X_.OX_._. XOXOXOXOXOX X_._._.)._. X X`.OXOXOXOXOXOXM. X X X X X X",
" X X X X X X X_._._. X_.)._._._. X X X X X X X_.~._. X X X X X XOXOX`._. X X XOX X X_./.)._._._. X X X X XOXOXOX X^. X XOXOXOX X",
" X X X X X_.OXOXOX_. X_./._._._. X X X X X X X_.). X_. X_. X_._._.OX)._._._._._. X X_._._._. X X XOX XOXOX X X X X^. X XOXOXOX X",
" X X X XOX`.OXOXOXOX X X_._.OX`. X X X X X X X_.^. X X XOX X/./.`._././._.).)./._.OX`._._.OX X XOXOXOXOXOX X X X}.^. X X X X X X"
};
