/* XPM */
static char *result[] = {
/* columns rows colors chars-per-pixel */
"64 64 84 1 ",
"  c #071314",
". c #0C1414",
"X c #121413",
"o c #1A1511",
"O c #121816",
"+ c #181A17",
"@ c #1C1E19",
"# c #23160E",
"$ c #2B170D",
"% c #2D180D",
"& c #35190C",
"* c #3C1A0B",
"= c #231710",
"- c #20201B",
"; c #29251D",
": c #362D21",
"> c #3F3223",
", c #431D0C",
"< c #46200E",
"1 c #4A210E",
"2 c #4E2310",
"3 c #532511",
"4 c #562A14",
"5 c #5B2A14",
"6 c #5A3117",
"7 c #632D16",
"8 c #663017",
"9 c #663119",
"0 c #6A3219",
"q c #74361B",
"w c #74391D",
"e c #7D3B1F",
"r c #443525",
"t c #483626",
"y c #553E2A",
"u c #6C3C22",
"i c #723E21",
"p c #7D3D20",
"a c #64482F",
"s c #724224",
"d c #7B4324",
"f c #674A31",
"g c #6F4E32",
"h c #755134",
"j c #803D1F",
"k c #813E20",
"l c #844223",
"z c #894626",
"x c #8A4827",
"c c #854A28",
"v c #8C4A28",
"b c #914D2A",
"n c #95512D",
"m c #885330",
"M c #8F5933",
"N c #8C5F3B",
"B c #925530",
"V c #9A5730",
"C c #925B32",
"Z c #9D5A33",
"A c #A15E36",
"S c #8D613E",
"D c #97663F",
"F c #99663F",
"G c #A36036",
"H c #A5633A",
"J c #A9663B",
"K c #AD6A3D",
"L c #B06C3E",
"P c #B1703E",
"I c #9D6B42",
"U c #A76F44",
"Y c #AD6D40",
"T c #B56F41",
"R c #A87147",
"E c #B47244",
"W c #BA7645",
"Q c #BD7946",
"! c #B57748",
"~ c #B77A4B",
"^ c #BE7B4A",
"/ c #C27E4B",
"( c #C5814D",
") c #C68351",
/* pixels */
"(((Q/(/QJAvljeejeeeeeejejkVHT/TKVkkpppejeeeeejjeq05214uC!/))))/)",
")((Q///QJVvkeeeeejjejeeeeknHY/TKAbkpppeeejjeejjeq7311tiN!///)/)/",
")((Q///PJVvleeeeeejeeejekknAY!EJVvkkeepeeejeejjeq032<4uNR^//)//)",
"((/W/WTJAbzjeeeeeeeeeeeekkkZJRKAnkkkpejpeeeeejjeq03224umH!/^///)",
"(/QPWLJAnvljeeeejejejejekkbBZAZBvkkejepjeeeeejjjq032,39pBAYT////",
"(/QPLGVbzlkjeeeejjejejejkkkkvbbbkkpeeeeeeejeejjjq032,27uznAY////",
"))^JGVxljjeeeeeeeqeeeeeekpkkkkkkkkjeepepejjeejjqq032,149pzVJT///",
"!EKFncewqeeeeeeeeeqqqqqekpkpkpkkkkpkeeejeeeeejeeq032,247ikvZJLTW",
"CMMdki00qqejjjeeeq0070qqqeeeqjqjkepeejejeeekejeeq851,,58qkzvmBCC",
"sssu97577qqpjkjpqq07777qqejjjjjjpeepjjjejeeeejjeq951,,58qpkpdsss",
"6664321350qjjjjee0732270qjjejjqjqeepeepkeeepejjeq85,,357qpq09666",
",,<<**,,370qejjeq032,137qejjejjjjeeeeeqeqeeeejjeq051,,57qq952<,*",
"*****&*,2570qqjee732,137qeejjjjjjjeqqqqqqqjjjjjjq05,,,2799742***",
"*****&**,2578qqeq032,137qejjjjqjeeeqq7777qqqjjjjq053,,,35542<***",
"**,****,,,2358qqq031,,37qqejjqqjjeqq753370qejjjqq05,,*,,221,,***",
"*********,,,37qqe031,137qejjjjjjjee0732237qjejjeq07,,*,,,,,,****",
"&*&*********,37q0731,1370jjjjjjjjjj053,,370jjjjjq05,,***********",
"%%%&&&&**&**,157751,,137qjjjjjjjjjj051,,25qqjjjjq053**&*&*******",
"===$%&*****,,113331,,150qjjjjjjjjjj751,,37qjjjjjq051**&**&******",
"Xooo$&&*****,,111,,,,157qjjjjjjjjjj053,127qjjjjjq052***&********",
"..Xo#%&*,******,,***,,37qjjjqjjjjjj753,,270jjjjjq05,,,*****,,***",
" ..o=$**************,,377q0qqq0q000531,,2307qqq0075,,*********,*",
" ..o=%&*,*,*********,,137777777777731,,,13570077752,********,***",
"  .o=%&************,,,11333333333333,,,,,13333333,,,************",
"..Xo=%**************,,*,,,,,,,,,1,,,,,**,,,,,,,,,,*,******,****,",
" ..o#%&,,******&&&&*&&&&*&*,&&**,,&*&*&**&&&**&&********,*******",
" .Xo=%&*,*,*&&&$$$$$$$$$$$$$$$$$$$$$$$$$$$$$$$$$$$&**,,***,*****",
". XX=%&,*,***&$#$################################$$*************",
" .Xo=$***,,*&$##oooooooooXoXoooXoXooooooXooooXoo##$&*,*,*****,**",
"...o=$&****&&##XX.X...XXXXXX XXXXXXXo XXXXX.X. XXo$&&,**********",
"...o=%&***&&$#oX.... . . X    XX  X X   .... ....o#$$&&&$*******",
"...o=&&**&$$#oX.   ....    XX   X    X  . . .   .oo##$$$$$$$***,",
"...o#%**&$##oXX. . .. . .... ...   .. . ..  .. ..XXo##o##o$$&*,,",
" .Xo=$&&&##XXX..... ..... ...  . X................XXXXXXXo##&***",
"...o#%&&$=XX. ..................XX X........ ............Xo#$&&*",
" ..oo$$$=oX... ........X........  X ................. . ..o#$$&$",
"....oo#ooo.. . ...............................X.... .  ...Xoo##$",
"...XXoooo.X...................O........................ ...Xoooo",
"....XXX......................................... ...........XXXX",
"................................................................",
"..... . .. ..............O.................................. .. ",
".X ...............................X............X............. ..",
"..... ... .............................................X..... ..",
".......................X........X...............................",
".............................O............X........X............",
"................................................................",
"...X............................................................",
".........O.........X.....................................X......",
"............................................O...................",
"...........................O............................X.......",
"..................O................O............................",
"........................................................X.......",
".X..............................................................",
"............X...................................................",
".............................O..................................",
"..............X.........................O.......................",
"... ..................O.................................OX......",
"---@+OO...................................................O++---",
"tr>:;-O...........................O..............O.......O-;:rtt",
"hgay>;+.......................O..............O...........+;>yfgh",
"UINgy:@....................O.............................+:yhSDI",
"^~USf>-........OO........................................->fSR~/",
"//!Igr-X..................................O..............-rgI~//",
")/!Sgr-O.............................O...................-rgI~)/"
};
