/* XPM */
static char *result[] = {
/* columns rows colors chars-per-pixel */
"64 64 66 1 ",
"  c #542C11",
". c #5B2E12",
"X c #5A3215",
"o c #5C3318",
"O c #643516",
"+ c #6A3514",
"@ c #693817",
"# c #6B3A18",
"$ c #713817",
"% c #763C18",
"& c #7B3E19",
"* c #6D4114",
"= c #724317",
"- c #784716",
"; c #7C4C15",
": c #76421B",
"> c #7E431B",
", c #7E4F18",
"< c #764623",
"1 c #784725",
"2 c #774826",
"3 c #7A4926",
"4 c #7B4B29",
"5 c #85451D",
"6 c #854B1E",
"7 c #8A4A1F",
"8 c #855115",
"9 c #8C5515",
"0 c #8F5816",
"q c #8F5C1B",
"w c #915816",
"e c #935C18",
"r c #9C661C",
"t c #A06519",
"y c #AA6E1C",
"u c #B5771F",
"i c #844E24",
"p c #8D4C20",
"a c #814E2A",
"s c #924F22",
"d c #8C5024",
"f c #85522B",
"g c #8C562E",
"h c #955223",
"j c #9C5725",
"k c #9D5927",
"l c #945E35",
"z c #A55D29",
"x c #966036",
"c c #9B6337",
"v c #A6602B",
"b c #AD642C",
"n c #B1662D",
"m c #BB7C21",
"M c #AB6D3F",
"N c #AB6E41",
"B c #AB7042",
"V c #B67442",
"C c #B97642",
"Z c #BD7A45",
"A c #BF7B49",
"S c #C07C47",
"D c #C27E4B",
"F c #C18122",
"G c #C5814D",
"H c #C68451",
/* pixels */
"GGGZGGGGGGGGGGGGGGGGGGGGGGGGGGGGGGGGGGGGZDGGGGHHGGDZAAAAHHHHHGGG",
"HGGZDGGGGGGHHGGGGGHGHHGGGDGGGGGGGGGGGGGGZDGGGGGGGGGDAGDGHHGGHGGG",
"HHGZGGGGGGHHHGGGGGHHHHGGGGGGHGGGGGGGGGGGZGGGGGGDGGGGHGGHGHGGGGGG",
"GGGZDGGDGGGGGGGGGGGc444a42MHHHHGGGGGGHHHZAGGGGGGGHHHHHHHHHHGGGGG",
"GAAZDGGDSDDHHHHHGGD3X::&::flllxlNGDDGGGGZGHHHHHGGGGGGGAAAAAADGGG",
"HDDZGGDDDDDHHHHGGGG3:nbnbnpOOOOOfNMBBBBVAGGHHHHHDGGGGGDADDDDGGGG",
"HHHZDGGGDDDDGDGGGGH3@ssshskbbbbni.XXXX 4VVAZZAGGGGGDDGGGHGGHHHGG",
"GGGZGGHHHHSSSSDGDGG3@ssspshhhhhhkvvvvvvdXoooXfGDGGDAAAAGGGGGGGGG",
"SSZCZSSDDSZZCCAZSSZ<@sssssspsssphjjjkjzjjhkj#2AZSSZZZZZZZZSSSSSZ",
"ZZSAADSDSDDSSDAASSZ<@sssssssssssss7s7s7hzzzz%<ZZZZZZZZZZZVZZZZSZ",
"DDDDDHHHHHHHHHHHGGG3@ssssssssssssshsssh7psds@1DDGGGGGGGGDZDGGGGG",
"DDDDDHHDDHHHGHGDGGG3@ssssssssssssssssssshsph@3DDGGGGGGGGDVGGHHHH",
"GDDDDDHHHHDDGGGGGGG3@sssssssshssssssssssssss@1DDGHGHGGGGDCGGGHGH",
"HDGDDDDHHHHDDDGGGGG3@sssssssssssssssssssssss@1SSDHHHGGGGDCGGGGGG",
"GDDDSDDDDGDDDSDGHDD4@ssssssssssshsssssssssss@3DGGGGGGGGGDZGGGGGG",
"GHHHHDDDGGDDDDDGDDH4@sssssssssssssssssssssss@3GGGGHHHHHGGCGGHHGG",
"GHHHHGGDDDDDDHGDGGG4@sssssssssssssssssssssss@4GDGGHHHHHHDZGGHHHG",
"GGGGGGDDAAAADGGGHHH4@sssssssssssssssssssssss@1HGGGGGGGGGDZGHGGGG",
"GGGDGHHHHHHDDGGGGGG3@sssssssssssssssssssssss@4HHGGGGGGGGDZGGGGGG",
"SSSSDDDDDDDDDSSSDSS1@sssssssssssssssssssssss@1DDDSSSSSSSZVSSSSSS",
"ZSSMSSZZSSZSSSZSSSS1@sssssssssssssssssssssss+1AAZZZZZZZCSMCZSMGS",
"DGGZDDDDGGDDDDDGDDD3@sssssssssssssssssssssss@3DDGGGGGGAZSSSSGGGG",
"GGGSGGGGGGGGGGGGGGD3#sssssssssssssssssssssss@4DDGGGGGGDDDDDGHHGG",
"GHDSDGGGDDDDDDGGGGH3@sssssssssssssssssssssss#aDDDGGGGGGHHGGGGGGG",
"GGGMGGGGSSSDDDDDGHH4@sssssssssssssssssssssss@3DDDHHHHHHHHHDDDDDD",
"GGGZSGGGGDDDDDHGGGG4@sssssssssssssssssssssss#3HHDHHDDHDDHDGGDDDG",
"GGGMGGGGDHHGDSSDDDD1@sssssssssssssssssssssss@3HHHDDHDDDDDDHGGGGG",
"HGGZSGGGGHHGDSSDDDS1@sssssssssssssssssssssss+3DDGGDHDDDDDDDDDDGG",
"GGDCDGGGHDGGGDGGDDD3#sssssssssssssssssshssss+1DDGGGGDHHHHGDSDDDG",
"GGGSDGGGHHHHGGGGDHG3#sssssssssssssssssssssss@iHDGGGGHDHHHGDDDDHG",
"GSSSSSSDDDDDDSSDDSS1@sssssssssssssssssssssss@1SSSSDDSSSSDDSDDSDD",
"SSSMSZZZSSSSSSZZSZA1@sssssssssssssssssssssss@1CSSSSDCSSZSCZZZZSS",
"GDDDDHDDDDDDGDGGDDD1@ssssssssssssssssssshhsh@1DDDDDDGDGGSSDGDGDD",
"GGGHGGGDGHDSSGGHHHH4@ssssssssssssssssssp-57h@1DDDHHHHHGGSZGGGGGG",
"GGGHGGDDDGDSZDGGHHH4@ssssssssssssssp76i6,,77@<ZDDGGHHHGGSMGGGGGG",
"GHHHHDSDSDGGGGGGGGD4@ssssssssssssssp=*@8Fm-7@1SSDGGGGGGGSSGGGGGG",
"GGHGHDDDHHHHHHGGGDG3@sssssssssssss7=euq*8t*6#3DDGGDGGDGGSCGDGHHH",
"GGGGDHHGHHHHGGGGGGG4@ssssssssssssss6-,ryw;@6#aGGGGHDGHGHSSGGGGGH",
"HHGGHDGHGGDDGDGGDHH4@ssssssssssssshh5#,q88@7#4HDGGHDGHHHDSGGGGGG",
"GGGGHHHHHGGDGGGGGGG3@sssssssssssss7h75#*89*7#3GDGGDHGGGGSCGGGGGG",
"GGSGHHGHGDGGGGGGGGG3#sssssssssshssssss>;0**7@1DHGGGDGGGDSZDGGGGG",
"SGDSSDSSDDDDDDSDDDS<@sssssssssssssssssh5*@pq@1DDDDDSDDDDSZSDDSDD",
"SSSZMSSSSSSSSZZZSSC<#ssssssssssssssssphpppss@1SSSZSZSSSSZCZSZSSS",
"DDDZGGDGGDDHGGDDDDD1@sssssssssssssssssssssss@3DDDSDDSSDDSDDSSGSS",
"GGGSGGGGHHDHHGGGGGD3@sssssssssssssssh7ssssss@3DHGGHGHHGHDHDDGGGG",
"GDGDGGGGDDDHGGGGGGG1@sssssssssssssssshssssss@3HDGGHHHHHDGHDDDGGG",
"GGGMSGGSSDDDGGGGGGDa@sssssssssssssssssssssss@3HHGGGGDDGDDDDSDSGG",
"GGDZDGGGDDDDGGGGGGD1@sssssssssssssssssssssss@3DDGGGGDDDDDGDDDSGD",
"GGGSDGGGGGDDDDDDGGD1#sssssssssssssssssssssss#3DDDHGGDDDDDDDHDHHD",
"GGSSGGGGGGDSSSDHGGG3@sssssssssssssssssssssss#3DDGHHHHDDHHHHDHHHH",
"HHHZDGGGGGGGDDDGGGG1@sssssssssssssssssssssss@1DDGGGGDDDSDHDHHHDH",
"HGDZDGGDGGGGDDDDGGG3@sssssssssssssssssssssss@3DDGGGGDDDDDDHDDDHD",
"SGDSDDSDDDDDDSSSDGD1@sssssssssssssssssssssss+1DDHDSSDGDDDSDDDDDD",
"ZSDMCSZZSSSSSSCSCSS<@sssssssssssssssssssssss@1ZCSSSSSSZSZZSSDSSS",
"SSSSDSSSCSDDDDSDDDD1@sssssssssssssssssssssss@1DDSSDDSSCSSZDDDDSD",
"GGHHGSDSDDHDHHDDDGH3#sssssssssssssssssssssss@aGHGGGGDDDDSZDDDDDD",
"GDHDHHGGDDGHHHHHHHH3@55555pssssssssssssssssh+1HDDDDDHHHHDZDDDDDD",
"GHDDGGGGHDHDHHGDDHDa.+OO++%p5pp5sssssssspsss+3HDGDDDDGGGDCDDDHHH",
"GDDDDDDHHHHHGGDGGDDh.ooXooO$$$$$5s7ppppssssh#3DHGDDDDDGGSCSDDHHH",
"GGDDDDDHHDHHGGGGGDHDAZVVNAg    oO%%%%&$>sssh+3DDGGGGHGGHDCSSDHDD",
"GDGGGGGDDDDHGDDDGDHHHHDDVDANVNNVa   .. .>&>&.iDDGGGHHHHHDZGDDGGG",
"HGDHGGDDDDDDDDDDGGHGHHHDCDDDDDDDNlllllla.....sDDGGDGHGHGDSGGHHHH",
"DHHDGDHHDDHDDDDDGGDDDDDDDDDDDDDDDDSDDDDMaaaa1lGGGHGHHGGDDSGGHHHD",
"GDHHHDHHHHDGDDGDGGHHDHDDDHDDDDDDDDSSSSSSDDDHDDGGHHHHHHDDDSGGDHDH"
};
