/* XPM */
static char *result[] = {
/* columns rows colors chars-per-pixel */
"64 64 164 2 ",
"   c #1D3D21",
".  c #273722",
"X  c #2B3622",
"o  c #223B21",
"O  c #2C3C22",
"+  c #343623",
"@  c #3D3524",
"#  c #3D3B24",
"$  c #453425",
"%  c #4E3426",
"&  c #423B25",
"*  c #533526",
"=  c #553428",
"-  c #5D3429",
";  c #543A29",
":  c #5B3D2C",
">  c #5D3F30",
",  c #61362A",
"<  c #633C2B",
"1  c #683F2C",
"2  c #1C4421",
"3  c #1E4B21",
"4  c #204321",
"5  c #2C4222",
"6  c #224D21",
"7  c #2D4C23",
"8  c #314424",
"9  c #3E4025",
"0  c #334D25",
"q  c #384E26",
"w  c #245322",
"e  c #2A5522",
"r  c #265B23",
"t  c #2B5B22",
"y  c #345525",
"u  c #3A5227",
"i  c #325D24",
"p  c #3A5B26",
"a  c #3C5328",
"s  c #3E5A28",
"d  c #2F6122",
"f  c #336423",
"g  c #3B6525",
"h  c #376823",
"j  c #3C6B24",
"k  c #3D6229",
"l  c #3F6C28",
"z  c #3F7025",
"x  c #424226",
"c  c #404628",
"v  c #4F422A",
"b  c #4C4D2B",
"n  c #5E422E",
"m  c #564C2E",
"M  c #415327",
"N  c #435529",
"B  c #4B522B",
"V  c #445B2A",
"C  c #4B5A2B",
"Z  c #54532E",
"A  c #535C2E",
"S  c #595D2F",
"D  c #5E4030",
"F  c #5F5531",
"G  c #545B31",
"H  c #5D5C31",
"J  c #66412D",
"K  c #6A442E",
"L  c #634E2F",
"P  c #6D492F",
"I  c #615C2F",
"U  c #644532",
"Y  c #6B4630",
"T  c #654932",
"R  c #6C4C33",
"E  c #734D33",
"W  c #645131",
"Q  c #6D5234",
"!  c #645F33",
"~  c #6A5F32",
"^  c #735435",
"/  c #7A5537",
"(  c #765837",
")  c #795A37",
"_  c #765438",
"`  c #7C5738",
"'  c #775C38",
"]  c #7B5B39",
"[  c #406427",
"{  c #416E25",
"}  c #446529",
"|  c #4C642B",
" . c #446B29",
".. c #4C6B2B",
"X. c #53642E",
"o. c #5A652E",
"O. c #55682E",
"+. c #5D6A2F",
"@. c #437325",
"#. c #487726",
"$. c #477827",
"%. c #4B7A27",
"&. c #467228",
"*. c #4C7C28",
"=. c #507F29",
"-. c #5D6A31",
";. c #6B6334",
":. c #646932",
">. c #6A6B34",
",. c #756436",
"<. c #7D6536",
"1. c #746D36",
"2. c #7C6D37",
"3. c #766638",
"4. c #7D6339",
"5. c #766A38",
"6. c #7E7239",
"7. c #805436",
"8. c #865836",
"9. c #815639",
"0. c #845C3B",
"q. c #8B5E3C",
"w. c #915F3B",
"e. c #81653B",
"r. c #8C613D",
"t. c #836A3B",
"y. c #8D6B3C",
"u. c #93643E",
"i. c #9D653C",
"p. c #936D3E",
"a. c #9B6F3D",
"s. c #84703A",
"d. c #8E723C",
"f. c #95723D",
"g. c #9A723E",
"h. c #A4693E",
"j. c #A96E3F",
"k. c #A2713F",
"l. c #AC733F",
"z. c #936340",
"x. c #996740",
"c. c #9D6942",
"v. c #947341",
"b. c #9B7341",
"n. c #A46D43",
"m. c #AA6F43",
"M. c #A37444",
"N. c #AC7444",
"B. c #A37944",
"V. c #AC7A45",
"C. c #AC7448",
"Z. c #AF7C49",
"A. c #B47544",
"S. c #B97642",
"D. c #B47945",
"F. c #BD7A45",
"G. c #B37748",
"H. c #B47B49",
"J. c #BD7B4A",
"K. c #C07C47",
"L. c #C27E4B",
"P. c #528129",
"I. c #C5814D",
"U. c #C68451",
/* pixels */
"I.I.I.F.L.I.I.I.I.I.I.I.I.I.I.I.I.I.I.I.I.I.I.I.I.U.I.I.I.I.I.I.I.I.I.I.I.I.I.I.K.K.I.I.I.U.U.U.I.I.K.K.L.K.K.L.L.U.U.U.U.L.U.L.",
"U.I.I.F.L.I.I.I.I.U.U.I.U.I.I.I.I.I.U.U.U.I.I.I.L.I.I.L.I.L.I.I.I.I.I.I.I.I.I.I.K.L.I.I.I.I.I.I.I.I.L.L.L.L.L.L.L.U.U.U.U.U.L.U.",
"U.U.I.F.L.I.L.U.I.U.U.U.U.I.I.I.L.U.U.U.U.U.I.I.I.U.U.I.I.U.U.L.I.I.I.I.I.I.I.I.K.K.I.L.I.I.L.I.L.I.U.I.U.L.U.L.U.U.U.L.I.I.U.L.",
"I.I.I.F.L.U.U.L.I.L.I.I.I.I.I.I.I.L.U.L.I.I.I.U.U.U.U.U.U.U.U.U.I.I.I.I.I.U.U.U.K.K.I.I.I.I.I.I.I.U.U.U.U.U.U.U.U.U.U.L.I.L.I.U.",
"I.K.J.F.L.I.I.K.K.K.L.U.U.U.U.U.L.U.L.J.J.J.J.U.U.I.U.U.L.U.U.L.U.I.I.I.I.I.I.I.K.K.U.U.U.U.U.U.I.I.U.I.I.I.L.L.L.K.L.L.L.L.I.I.",
"U.L.L.F.L.I.I.L.L.L.L.U.U.U.U.I.L.U.U.L.L.J.I.U.I.I.L.K.L.L.L.U.I.I.I.I.I.U.I.U.K.L.U.U.U.U.U.I.L.I.I.I.I.L.L.L.L.L.L.I.L.U.I.I.",
"U.U.U.F.I.I.I.I.L.U.L.L.I.L.I.I.L.U.U.U.U.U.U.U.L.I.I.K.K.K.K.L.I.I.U.U.U.U.U.U.K.K.I.I.L.I.U.I.I.I.I.L.L.L.L.L.L.L.I.U.U.U.I.I.",
"I.I.I.F.L.I.U.U.U.L.K.K.K.K.L.I.U.J.B.5.} t r r t t r g >.b.B.v.:.p r r i O.s.H.K.L.I.L.I.I.L.L.I.I.K.K.L.K.L.U.L.L.I.I.I.I.L.I.",
"K.K.F.S.F.F.F.L.L.K.K.K.K.S.S.K.F.V.f.>.} d d r t t t [ +.d.f.t.+.p r d i | 5.g.V.S.F.F.K.K.J.K.K.K.K.K.F.K.K.K.L.K.K.K.K.K.K.K.",
"F.F.K.S.F.J.L.L.L.L.L.L.K.K.J.S.B.f.2.+.{ g h h h f f g o.1.6.1.O.g d d f | >.s.f.l.A.F.F.S.S.K.K.K.K.K.K.K.K.K.K.F.K.K.K.K.K.K.",
"I.I.L.I.U.U.U.U.U.U.U.U.U.U.I.Z.v.1.-...&.&.@.@.z z j  ...O.-.O. .l j j j } | +.5.f.D.F.L.J.L.L.K.L.I.L.K.L.I.L.K.K.K.L.U.L.K.L.",
"L.L.L.L.I.I.I.I.L.U.U.L.U.L.H.b.1.O. .&.*.*.*.*.*.$.#.{ j [ k l  .z z z { j j } +.2.B.H.J.L.L.L.I.L.I.I.L.L.I.I.K.K.L.L.U.U.U.L.",
"I.L.L.K.L.U.I.U.U.U.I.I.H.Z.v.6.+. .&.@.%.P.P.P.*.*.$.&.j g h j j j z @.j j h h } :.y.b.H.J.K.L.L.U.U.U.U.L.I.I.K.S.I.I.U.U.U.U.",
"I.I.I.L.L.L.L.U.U.U.I.J.V.d.1.-.O.&.$.*.P.P.P.P.*.$.@.&.@.@.z z j j j j j j j j [ | o.3.p.N.J.J.I.U.U.U.U.L.I.I.K.K.I.I.L.U.L.L.",
"I.L.I.K.J.J.J.J.I.I.L.G.b.1.O.&.{ #.*.P.P.P.%.#.@.@.@.@.#.#.#.#.z h h f h h j j g p s A ,.b.H.L.I.I.I.I.L.U.U.L.L.K.I.I.I.I.I.L.",
"I.U.U.U.U.L.L.I.I.I.L.H.v.:.} f z #.=.*.#.@.@.j g j j @.$.*.P.#.@.h d d d f g j j t t a H t.b.H.L.I.U.I.U.U.U.L.K.F.I.I.U.U.U.I.",
"I.U.U.U.U.I.I.L.L.L.L.H.v.:.k f l $.#.@.j g i f d d h z #.%.=.#.@.f d t e d f h h f t p V H 3.v.S.I.I.U.U.U.U.U.L.F.I.I.U.U.U.I.",
"I.I.I.I.L.U.L.L.J.J.J.G.v.>.} f j z { h f t e e t d f h @.%.*.*.j f d t r t d f f f f t i u G 3.V.J.I.I.I.I.I.I.L.F.I.I.I.I.I.I.",
"I.I.I.I.U.U.U.U.U.U.U.H.B.6.-.| l g g f d e e e t t d h @.%.=.%.@.g d t t w t d f f f d e w a ;.b.H.I.I.I.I.I.I.L.F.I.I.I.I.I.I.",
"K.K.K.F.K.L.L.L.L.L.I.F.V.f.2.:.| g f f d d d f f d f h { %.=.%.#.z f f t t r r t d f i t 6 u ! f.D.L.F.K.K.K.F.F.S.K.K.K.K.K.K.",
"K.K.K.l.F.K.F.F.F.F.F.F.D.l.g.2.o.p i d h j j j h h h h z %.P.*.#.z j h d t e e t d d d e w u ! p.A.F.F.F.F.F.F.S.S.F.F.K.K.F.F.",
"L.L.L.K.L.L.I.L.I.I.I.L.J.H.b.t.o.s d f j { { { z j j j @.$.$.$.@.z j h h d d e r e r t e 6 a ! v.F.I.I.I.I.J.F.S.K.F.K.L.I.I.K.",
"I.I.I.K.L.I.I.I.I.I.I.L.H.b.t.:.A g f h h z j z z z @.z @.@.@.@.z j j j j h d t e e e e w 6 u ! b.J.I.I.I.I.L.L.L.L.L.L.U.U.U.I.",
"I.U.U.l.I.I.I.I.L.L.L.H.M.5.S V [ g j z h h h h j z $.$.$.z j h h h j z z j h d d e w 6 3 6 a ! f.H.U.I.I.I.I.U.U.U.I.L.I.U.U.I.",
"I.I.L.F.L.I.I.I.L.K.K.S.p.! a y f { { j h d f f h @.%.%.#.@.j h h h h j z z j f d e 6 6 7 0 C 3.N.L.U.U.U.U.U.U.U.U.L.L.K.L.L.L.",
"I.I.K.S.L.I.I.I.I.L.L.J.p.H y e g @.@.j d e d d h @.%.P.%.@.j h h f h h j j j j f t 6 7 u A 3.v.H.L.U.U.U.U.L.L.U.L.I.L.L.L.L.U.",
"U.I.L.F.L.I.I.L.U.U.U.H.f.H u t g #.#.g d e e i h @.*.=.*.#.z j f h d h h j z j h t e u G 4.b.Z.L.L.L.L.L.L.L.L.L.L.U.U.I.U.U.I.",
"U.I.L.S.L.I.I.I.L.U.U.H.c.~ C p [ &.{ [ p y y d h { %.=.*.@.z j h h h d f h j z g t 7 u H y.C.J.L.U.U.L.L.L.L.L.L.L.L.L.L.L.L.I.",
"I.I.L.F.K.L.I.I.I.I.I.J.M.t.;.X.| { { | S A V p f j %.*.*.#.z j j j f d d d h z h i e q F e.m.H.L.L.U.L.U.U.U.U.U.U.L.K.K.L.L.U.",
"I.I.L.F.L.I.L.I.U.U.U.U.H.V.f.5.S V C +.2.<.o.M p h &.*.#.@.j j j j h t r t h j j t 6 0 B ( u.n.G.L.U.U.L.L.U.L.U.U.L.K.L.L.I.I.",
"L.K.K.F.K.K.K.L.L.L.L.L.L.J.V.y.I C S <.f.y.~ V e f @.*.#.z j h j j f e w e d h h i 7 q b W 9.u.n.S.F.J.K.K.K.K.K.K.K.K.K.K.L.L.",
"K.K.K.l.K.K.K.K.K.K.K.F.F.F.A.k.e.~ ~ y.k.a.,.M y f @.*.#.@.h f h d d w 6 6 e d i p a B F W _ q.u.h.N.S.l.K.K.K.K.F.F.F.K.K.K.K.",
"L.L.I.L.L.L.L.L.L.I.L.L.L.L.L.H.M.v.g.C.H.M.3.N e f @.%.%.{ f d e e w 6 6 6 w e y M Z L ~ ^ ^ ` 0.u.n.A.J.L.I.L.L.F.L.L.I.L.I.K.",
"I.I.I.I.U.L.U.U.I.I.L.L.L.I.I.I.J.H.J.U.J.M.3.B y p @.#.@.j d t e 6 3 6 6 6 3 6 0 b F ~ ( ^ ) ( ) 0.z.N.J.J.U.I.L.S.I.I.I.I.I.I.",
"I.U.U.U.U.L.L.L.L.I.L.L.H.I.I.I.U.U.U.U.I.M.e.Z M s g { j f t w 4 2 2 6 6 6 3 4 8 b L ^ / ) ) ( _ ` 0.c.M.C.U.I.L.S.I.I.I.I.I.I.",
"I.U.U.U.U.L.K.K.K.L.I.I.I.I.I.I.I.U.I.I.L.Z.y.Q Z N y d t e w 6 4 2 2 6 w 6 3 4 5 & n E ^ / ) ) ( ' ] 0.r.u.I.I.L.A.I.I.I.I.I.I.",
"I.I.I.I.I.I.L.I.I.U.U.U.I.U.I.I.I.I.I.J.J.C.u.( L b q 7 6 6 6 4     2 6 w 3 3 2 O & ; K E ^ ( ) ( ( _ / / _ I.I.L.l.I.I.I.U.U.U.",
"I.U.I.I.I.L.I.I.I.U.I.U.I.I.I.I.I.I.I.J.Z.n.u.' W m c 8 5 5 O O     2 w w w 3   . $ ; < K P ^ _ ' ' ^ ^ Q Q I.U.L.F.I.I.I.U.U.I.",
"U.U.I.I.I.U.I.I.I.I.I.I.I.I.I.I.L.U.H.C.c.z.0./ Q L v & & # # + .   2 3 w w 2   . @ * , < K K Q _ ( ^ ^ E R U.U.L.K.I.I.I.K.I.I.",
"I.I.I.I.U.U.U.U.U.I.I.I.I.I.I.I.U.L.H.c.r.9./ ^ ^ L J ; * * % $ . o 2 3 w 6 3   . @ * - , , J Y ^ _ ( ^ R Q I.I.K.S.I.I.I.I.I.I.",
"I.I.I.I.I.I.I.U.I.I.I.I.I.I.I.I.L.L.S.x.` ^ _ _ ^ E J , , - * $ + o   3 w w 3   o @ * - , - , K Q ( ^ ^ E Q I.I.L.F.I.I.I.I.I.I.",
"I.K.K.L.L.L.L.L.L.L.L.L.L.L.L.L.L.J.N.u.` _ _ ( ^ P 1 , , , - $ X o 2 3 w w 2   . + % - - - < K ^ ^ ( ^ Q R L.K.K.S.L.L.K.L.L.L.",
"K.K.l.F.F.F.K.F.F.F.F.F.S.F.F.S.J.F.j.w./ ^ ( ( / E K < , , - $ + o 2 3 e w 3 o X @ % - - - < K E ^ _ Q R R F.F.F.S.F.F.F.F.F.F.",
"K.I.I.K.K.L.L.I.U.I.U.I.I.I.I.I.L.J.N.u./ ^ ( ( ) ^ K K , , * % + O 5 5 7 7 5 O + $ % - - < J P ^ ( _ ^ E Q I.L.L.L.L.L.K.I.L.L.",
"I.I.L.K.I.I.I.I.U.U.U.U.I.I.I.I.I.J.C.x.9._ ] <.4.' ^ P 1 < = * $ @ 8 9 x x 9 # $ % * < < K P Q ^ ( ^ ^ R R U.I.I.I.I.L.I.I.I.I.",
"I.L.L.F.I.I.I.I.L.L.L.I.I.I.I.I.I.L.G.x.0./ ] 4.e.e.] ^ Y J - = * * * * ; ; ; ; * - - < J P ^ ( ) ( ^ ^ ^ E U.I.I.I.L.L.I.L.I.I.",
"I.I.I.F.L.I.I.K.J.K.F.L.I.I.I.I.I.I.G.i.r.0.] e.t.e.4.) ^ T U < , < < < n J J K J J J K P ^ ( ) ( ) ) ` 0.9.I.L.I.L.K.K.K.K.I.I.",
"I.I.I.l.L.I.I.L.L.L.I.I.I.I.I.I.I.I.J.m.a.r.r.e.4.e.e.e.' / ^ R P P K K P P P E E P P P E ( ( ) ) ( 0.r.w.i.K.K.L.I.L.L.L.K.I.I.",
"I.U.I.F.I.I.I.I.I.I.L.L.L.L.L.L.L.I.L.K.A.n.z.0.` ] t.z.e.e.4.' _ ^ R _ _ _ ] 4.] ) _ ^ ^ ( ( ( _ ) q.c.n.C.L.L.L.L.U.L.U.U.U.U.",
"I.I.L.K.L.I.I.I.I.I.K.K.L.L.L.U.U.U.L.L.J.N.z.` _ ( 3.5.t.e.e.] ( _ _ _ _ ' ] e.4.' ( _ ^ ^ ^ Q R _ q.M.J.J.U.U.U.L.U.L.L.U.U.L.",
"U.U.I.F.L.U.L.L.I.I.I.L.L.L.L.U.L.L.U.L.F.C.w.E T Q _ ' 4.' ] ' _ Q Q Q Q Q _ ' ' ( ^ Q Q ^ R R U E q.n.J.J.L.L.L.L.U.L.L.U.U.L.",
"I.I.I.F.L.L.U.L.I.I.I.I.L.L.L.L.U.U.L.L.F.m.w.E D D T R Q R Q R R R R T T R R Q Q R R T R T T D D R 9.n.J.L.L.L.L.U.L.U.U.U.L.U.",
"L.L.L.F.K.L.K.L.L.K.L.L.L.K.K.K.L.L.L.L.K.A.w.E T D U U U U U T U U U U U U U U U T U U U U > > D R 8.m.J.L.L.L.K.L.L.L.L.K.L.L.",
"K.K.K.l.F.K.K.K.K.K.K.K.K.K.S.K.K.K.K.S.S.m.h.8.E U > > > U U U U U T T U U U R U U U U U > > U E 7.w.n.A.F.F.F.F.S.K.K.K.K.F.K.",
"K.L.L.L.K.K.K.K.K.K.L.L.L.L.K.K.L.L.L.K.K.S.A.h.w./ U : > U T T R T R R T R R R R R R U D : > E q.c.N.J.J.F.F.J.K.F.L.L.L.L.K.K.",
"I.I.I.I.I.L.K.K.K.L.U.L.U.U.L.L.L.U.L.L.L.L.L.K.h.q.Y > : D R R R R R R R R R R R R R T < : U / c.S.L.L.L.L.L.L.L.F.L.L.L.L.U.L.",
"U.U.U.U.U.U.I.I.L.L.U.U.U.U.U.U.I.I.U.U.U.U.U.L.m.z.R : < K P / R _ R R R R R R 8.7.P E 1 - K 8.l.L.L.L.I.U.U.U.K.K.L.L.L.L.L.U.",
"L.L.L.L.I.I.I.I.L.L.U.L.L.U.U.L.I.I.I.I.I.U.L.L.S.I.I.I.I.U.L.I.U.U.U.U.U.U.I.U.L.L.L.L.U.L.I.L.L.L.L.L.L.I.I.I.K.F.L.L.L.U.U.U.",
"U.L.L.K.L.L.L.U.U.U.U.U.I.L.L.I.I.L.I.I.I.L.L.K.S.U.I.I.I.I.L.U.U.U.L.U.I.L.I.I.L.L.L.L.L.U.U.I.L.L.L.L.L.I.I.I.K.l.K.L.L.U.U.L.",
"U.L.K.K.L.L.L.U.U.U.U.U.U.I.I.I.I.I.I.U.I.I.K.K.F.L.I.I.I.I.I.I.L.U.L.U.I.U.I.I.L.L.L.L.L.L.L.L.L.L.U.I.I.I.I.U.K.S.L.K.L.L.L.U.",
"I.L.I.I.L.I.I.L.L.L.L.I.I.L.L.U.I.I.I.U.U.U.L.L.l.K.L.U.U.L.U.L.U.U.L.L.I.U.U.U.U.U.L.L.L.L.L.L.U.L.U.U.U.U.U.U.L.K.I.L.U.L.U.L.",
"I.I.I.I.I.I.I.L.L.L.I.L.K.K.L.L.I.I.I.I.I.I.I.L.K.L.U.L.U.U.L.U.L.L.U.L.I.I.I.U.I.I.L.L.L.L.L.L.U.L.L.L.I.U.U.I.L.K.I.I.U.U.U.U.",
"I.I.I.I.U.L.U.U.L.L.I.L.L.L.L.L.I.I.L.I.I.I.I.L.K.U.L.L.U.L.L.L.L.U.L.L.L.K.L.L.I.I.L.L.L.L.U.I.U.U.U.U.U.I.L.L.L.K.I.I.U.U.U.L.",
"I.I.I.I.U.L.U.U.U.U.I.L.L.I.L.L.I.I.I.I.I.I.L.K.K.L.U.U.L.L.L.L.L.L.K.F.K.K.J.J.L.U.L.L.L.L.L.L.U.U.U.U.U.I.I.L.K.K.U.L.U.I.L.U."
};
