/* XPM */
static char *result[] = {
/* columns rows colors chars-per-pixel */
"64 64 207 2 ",
"   c #020B0D",
".  c #040D10",
"X  c #061112",
"o  c #0C1414",
"O  c #111615",
"+  c #141817",
"@  c #191917",
"#  c #1C1A16",
"$  c #1D1C19",
"%  c #211E1A",
"&  c #2B1F1B",
"*  c #301F1B",
"=  c #1F221D",
"-  c #25221D",
";  c #2B221D",
":  c #32231F",
">  c #31291F",
",  c #272520",
"<  c #292720",
"1  c #292B23",
"2  c #352721",
"3  c #3D2721",
"4  c #342C22",
"5  c #3C2C22",
"6  c #3C3125",
"7  c #3C3428",
"8  c #3F392C",
"9  c #432B23",
"0  c #4B2E25",
"q  c #453225",
"w  c #4B3226",
"e  c #4D3A27",
"r  c #4B362A",
"t  c #413C2E",
"y  c #4E3A2B",
"u  c #553628",
"i  c #5C362B",
"p  c #533C2C",
"a  c #5E3A2D",
"s  c #413F31",
"d  c #4F3D30",
"f  c #543E30",
"g  c #5B3E30",
"h  c #62362B",
"j  c #653A2D",
"k  c #683C2E",
"l  c #643D30",
"z  c #6B3E30",
"x  c #56412D",
"c  c #5C422D",
"v  c #414031",
"b  c #4C4332",
"n  c #524333",
"m  c #5E4232",
"M  c #594A34",
"N  c #554E3A",
"B  c #56503C",
"V  c #5A513B",
"C  c #62442C",
"Z  c #6E492E",
"A  c #724D2F",
"S  c #624532",
"D  c #6C4233",
"F  c #624935",
"G  c #6C4B35",
"H  c #654A38",
"J  c #6E4B38",
"K  c #764434",
"L  c #734E32",
"P  c #744D39",
"I  c #7C4A38",
"U  c #65523C",
"Y  c #695339",
"T  c #69583F",
"R  c #745235",
"E  c #7C5434",
"W  c #78573A",
"Q  c #7D533D",
"!  c #6B5741",
"~  c #675A41",
"^  c #6B5D43",
"/  c #7D5640",
"(  c #775D43",
")  c #7E5A42",
"_  c #6D6347",
"`  c #6D6449",
"'  c #776549",
"]  c #7A6549",
"[  c #834736",
"{  c #844A37",
"}  c #854B38",
"|  c #8A4D3A",
" . c #855737",
".. c #8D523E",
"X. c #835B3A",
"o. c #8A5D3A",
"O. c #96523E",
"+. c #98533F",
"@. c #925F3A",
"#. c #8D613C",
"$. c #95623C",
"%. c #9A653C",
"&. c #A66B3E",
"*. c #825640",
"=. c #895741",
"-. c #815C44",
";. c #8D5C43",
":. c #955540",
">. c #9B5641",
",. c #945C44",
"<. c #9D5C44",
"1. c #A25D45",
"2. c #A85F46",
"3. c #846347",
"4. c #8E6449",
"5. c #846B4E",
"6. c #996748",
"7. c #9C654A",
"8. c #926B4E",
"9. c #936E50",
"0. c #837453",
"q. c #8A7453",
"w. c #8A7A56",
"e. c #8D7D59",
"r. c #977956",
"t. c #A46147",
"y. c #AA6047",
"u. c #A36B42",
"i. c #AA6F43",
"p. c #A5644A",
"a. c #AB654B",
"s. c #A66B4F",
"d. c #AD6A4E",
"f. c #B1674C",
"g. c #B16A4E",
"h. c #AC7245",
"j. c #AA7348",
"k. c #B37545",
"l. c #B77746",
"z. c #BE7A46",
"x. c #B6794A",
"c. c #B97B4A",
"v. c #A56E50",
"b. c #AD6D50",
"n. c #B36E50",
"m. c #A37353",
"M. c #AB7554",
"N. c #AA7A58",
"B. c #B57253",
"V. c #B97555",
"C. c #B37856",
"Z. c #BC7856",
"A. c #B37D5A",
"S. c #BD7C5A",
"D. c #C27E4B",
"F. c #C07957",
"G. c #C27D5B",
"H. c #99845E",
"J. c #A6835E",
"K. c #AC835E",
"L. c #B2805C",
"P. c #BD815D",
"I. c #9A8760",
"U. c #9B8961",
"Y. c #A88D64",
"T. c #B38660",
"R. c #BD8760",
"E. c #B58C64",
"W. c #BD8C64",
"Q. c #AB9066",
"!. c #AC9669",
"~. c #B5966A",
"^. c #B79B6D",
"/. c #BA9B6D",
"(. c #B99E70",
"). c #BCA272",
"_. c #C5814D",
"`. c #C68351",
"'. c #C2835E",
"]. c #C38761",
"[. c #C88761",
"{. c #C48B64",
"}. c #C98B64",
"|. c #C59167",
" X c #C99167",
".X c #C59569",
"XX c #CA956A",
"oX c #C59B6D",
"OX c #CB9A6D",
"+X c #D09C6E",
"@X c #C49F71",
"#X c #CC9E70",
"$X c #C6A574",
"%X c #CDA373",
"&X c #C5AA76",
"*X c #CDA977",
"=X c #CDAD79",
"-X c #D2A474",
";X c #D3A976",
":X c #D1AE79",
">X c #CFB17B",
",X c #D3B47D",
"<X c #D9B37D",
"1X c #D7B780",
"2X c #D9B780",
"3X c #D6B981",
"4X c #DABB83",
/* pixels */
"_._._.z.D._._._._._.j.E e #     . . .       . .   . . . . .         .             . .               # w E &.z.z._.`.`.`.`._._._.",
"`._._.z._._._._._._.j.X.e - o o o o . o X X o o . o o X o o X o o X o o X X X o X o o o X o o o X o - e E i.P._._._._._.`._._._.",
"_.`._.z.D._._._.D.c.u.W x 4 - = = = = = , = = $ $ $ $ $ = = , = $ = = = = = = % $ $ $ $ $ = = = = - 4 x W u.l._._._._._._._._._.",
"_._._.z.D._.D.l.i.%.#.W M b v v v 8 s v s 8 s 8 7 7 7 7 8 8 8 s v s s v s s s t t 7 7 7 8 s s s v v b M W #.6.h.P._._._._._._._.",
"_.z.z.z.D._.l.u.o.A G Y T _ _ _ ` _ _ _ _ _ ^ ~ ! H H H ! _ _ ` ` ` ` ` ` _ ^ ! U H H U ! _ ` ` ` _ ^ T Y G A o.&.z.z.P._._._._.",
"`.D.D.z.D._.k.@.Z e b V ] H.H.H.U.I.U.U.U.I.I.r.8.4.4.9.r.I.U.U.I.I.I.U.I.I.I.r.8.4.4.8.r.H.H.U.U.H.w.' M b p Z $.&.z._._._._._.",
"`.`.`.z._.D.h. .p 5 7 B 0.Q.).&X$X).$X).$X)./.E.A.M.M.L.E./.(.).).).$X).$X)./.E.L.M.M.L.E./.).&X=X).!.0.V 7 4 x  .h._.`._._._._.",
"_._._.l.l.h.6.R e 6 8 T H.).,X,X1X:X=X:X=X*X%X.XR.S.S.R..X%X:X:X:X:X=X:X=X=X#X.X].S.S.]..X%X:X4X3X,X).H.T t 6 e A %.z.&.z.P._._.",
"z.D.&.&.%. .L C p p F ] Y.&X2X2X<X;X;X-X-X-X#X X'.Z.Z.'. X+X-X-X:X-X-X-X-X-X+X X].F.Z.G.|.+X;X<X4X3X&XY.] H u p C A  .%.&.&._._.",
"z._.&.%.E C p p C G -.r.~.=X2X<X-X#X+X+X+X+X X].Z.n.n.Z.].}.+X+X+XOXOX+XOXOX X].Z.n.n.Z.'. X+X;X<X<X*X~.r.-.G S p p C E %.&.z.z.",
"_._.h.#.C q 6 p L ;.m.T.oX*X:X;XOX|.].].'.].'.V.d.y.p.d.V.P.].{.[.[.].[.{.].P.V.d.p.y.d.V.P.}.OX;X:X=XoXT.m.o.P e 5 q C #.x._._.",
"_.&.&.E x 6 7 g / v.S.|.%X*X*X#X}.'.Z.Z.Z.Z.V.a.<.:.:.<.d.V.Z.G.S.S.Z.Z.S.Z.V.d.<.>.:.<.d.C.P. X#X*X;X#X|.P.m.Q x 6 4 c #.&._._.",
"&.%.@.R M y b ! 8.A.}.OX%X%X#X.XR.Z.B.B.n.B.d.7.=.} { ..1.d.n.B.B.B.n.V.B.n.b.<...{ { ..<.d.C.]..X%X%X#XOX'.L.8.T b b M R #.u.u.",
"E R R Y T ~ ' q.J.{.OX+X+XOX.X].Z.n.f.f.f.a.2.:.K k k K =.2.f.g.f.f.f.n.f.f.1...K k h K ..t.n.Z.]..XOXOX+XOX|.K.q.' T Y Y R A Y ",
"q q x U ' q.I.Q./.#X%X+XXX X].S.n.a.2.2.y.2.:.I a 0 w a I :.2.2.2.2.2.y.y.2.>.I a 0 0 a I >.a.B.S.].}.OXOX-X#X/.Q.H.w.' V x q q ",
"# - 6 V 0.Y.).&X=X*X*X#X X].Z.M.p.1.>.>.>.>.| z 0 2 < w z | >.1.>.>.>.>.1.>.| z w 2 < 0 l | <.a.B.S.]. XOX*X=X>X&X@XY.0.V 6 - = ",
"  O 1 B H.^.>X3X4X,X=X#X{.S.B.t.:...} | | } K i 4 % % 2 i K | | | | [ =.| | z i 2 $ $ 2 i z :.<.d.V.P.|.#X:X,X3X2X,X(.w.N 1 + . ",
"  o 1 V w.(.3X4X4X3X=XOXR.C.p.,.} K z z z z a 9 ; + + & 9 a z z z z z z z z h 9 & @ + & 9 h z =.7.n.S. X%X:X3X4X4X3X).e.B 1 o   ",
"  o 1 B H.).3X4X4X,X=XoXP.b.<.} D i w 0 0 0 9 * $ O o = : 9 0 0 0 0 0 0 0 0 9 : $ O O @ * 9 g I ,.b.'. X#X:X3X4X4X2X).e.B 1 o   ",
"  o 1 V H.).3X4X4X,X=X.XL.p.O.K u 3 ; & ; & & % + o o + % & ; ; : * : : : : - $ + O o O @ ; 9 l =.b.P. X%X=X1X3X4X2X).w.V 1 o   ",
"X o 1 N ] (.>X4X4X,X&X.XA.t.| k 9 - + O O + + O o o o + + + + + + + + + + + + + O o o o o + , g *.b.G. X-X:X1X3X4X>X(.w.N 1 o   ",
". X 1 B H.^.3X4X4X,X*XW.M.<.} h 3 $ o X X o o o o o o o X o o o o o o o o o o o o o o . . o - r Q v.]. X%X:X1X3X4X1X(.w.V 1 o   ",
"  o 1 B w.(.>X4X4X3X%X/.C.<.[ h 3 $ X . . X X X o o o o o X X X X X . . X X X o o o o . . X - r Q v.G. X-X,X1X3X4X1X(.w.N 1 o   ",
"  o 1 B w.).3X4X4X<X*XW.C.7.} h 3 $ X X X X o o o o X o o X X X X X X o X X X X o o o . . o - r Q v.'. X+X:X1X3X3X1X(.e.B 1 o   ",
"  o 1 B w./.,X4X4X,X$X|.C.<.} h 3 $ o . X o o o o o o o o o o o o o o o o o o o o o o X . o ; r / v.]. X-X:X,X3X3X1X(.w.N 1 o   ",
"  o 1 N q.^.=X2X<X,X$XW.M.<.} j 9 $ o X X o o o o o o o o o o o o o o o o o o o o o o X X o , y / b.S. X#X*X:X<X,X=X^.q.N 1 o   ",
"  o 1 M 5.~.%X;X;X%X.XR.B.<.} h 9 % o X o o o o o o o o o o o + o o o O o O o o o o o X . O , y } v.G.}. X#X%X;X:X#XE.5.N < o . ",
"X o - b 3.K.|.+XOX.XR.P.b.<.} h 9 % o X o o o o o o o o o o o o o o o o o o o o o o o X X o = y / v.S.[.}.|. XOXOX XT.] n < o   ",
"  o ; b -.N.].}.}.{.P.V.d.>.} j 3 % o o X o o o o o o o o o o o o o o o o o o o o o o X . o ; y *.v.F.G.].].].[.}.].N.-.d < o . ",
"X o - y Q M.'.'.'.'.Z.B.a.>.} j 3 % o X X o o o o o o O o o o o o o + o o o o o o o o X X o - y / v.G.G.G.G.'.].].S.M./ y - o . ",
"  o - b ) M.P.[.[.].S.B.a.>.{ h 9 $ o X X o o o o o o o o + o o o o o o o o o o o o o X . o , y *.s.S.G.'.'.].].].'.M.-.f , o . ",
"  O > b 3.K.{.XX X}.R.C.d.>.[ a 3 @ X . X o o o o o o o o o o o o o o o o o o O o o o X . o % r Q v.G.[.{.{.}. X X}.N.] f < o   ",
". o 1 b 5.T.#X%X%XOX|.P.b.>.[ h 3 @ o . X o o o o o o o o o o O + o o o o o o o o o o .   o % r / v.S.}. XXXOX-X-XOXT.5.n 1 X   ",
"  o < N 0.~.*X<X<X*X$XW.M.<.} h 9 $ o . X X o o o o O o o o o o o o o o o o o o o o o   X o - r } v.P.}.OX%X:X;X;X*X~.0.N 1 o   ",
"  o 1 N w./.>X3X<X,X%X.XA.p.| z 0 & @ o o o o o o o o o o o o o o o o o o o o o O o o o o @ 2 g -.M.]. X%X:X>X3X4X>X(.w.B 1 o   ",
"  o 1 B w.).3X4X4X,X=XoXE.M.7.Q g 5 & % O O o X X X X X X X X X X o X o o X X X . X o O # ; q H 4.A.}.#X*X>X1X4X4X1X).w.B 1 o   ",
"  o 1 B w.).1X4X4X3X>X&XoXT.N.4.I a 0 : # O         X . X   X X . X . X X X . . . . o # ; 0 g / r.R.OX;X:X,X,X4X4X3X).e.B 1 o   ",
"  o 1 B w.).1X3X4X,X,X*X$XoXE.N.4.I h 9 & + . . . X X X X X   X X X X . X X . . . X O & 9 h I 6.K..X%X:X,X,X1X3X4X>X).w.B < o   ",
"  o 1 B w./.>X3X3X,X,X,X>X*XoXE.m.,.I i 3 - + o o + + O + + + o O O O O O + o O o + - 3 h I ,.M.E.$X*X,X,X,X,X3X3X>X/.w.B 1 o   ",
"  o < N 0.^.>X<X<X,X,X,X3X,X*X|.C.t...K f 7 1 1 1 1 1 1 1 1 1 1 1 , , 1 1 1 1 1 1 1 7 p K ,.s.L.{.%X=X,X,X,X,X<X<X>X~.q.N 1 O   ",
"  o < n 5.E.%X;X;X<X1X3X3X1X=XoXP.b.7.=.Q U N N B B B N N N N n d d d d n N N N N B ~ ^ 4.m.A.P. XoX%X*X:X>X<X<X,X%XE.5.n 1 o . ",
". o < n 5.K.XX;X:X,X1X3X3X1X,XoXR.V.v.v.8.0.w.] 0.0.] H.H.' 0.] ( / / ( 5.] 0.0.] w.w.r.K.E.W.|.|.}.oX#X*X,X,X:X;X.XK.3.n < o   ",
". o < p -.M.{.#X;X,X>X1X3X3X&XOX].S.C.A.T.!.!.!.!.!.!.!.!.!.!.J.r.v.v.r.Y.Y.!.!.!.!.^.^.(.@XOXoX{.].}.oX%X,X:X:XOX}.N.) y , o . ",
". o - y / v.S. X#X=X>X1X>X>X>XoX{.P.P.].oX&X&X>X&X=X=X=X).>X).).R.A.S.R..X&X=X=X&X=X=X=X>X>X*XOX|.].R. X#X*X*X#X XP.v.Q r , o . ",
". O % r P t.C.]. X%X*X:X,X,X:X#X{.'.].}.%X:X3X3X3X4X3X3X3X2X:X#X X].]. X#X<X3X2X4X3X3X3X3X3X>X$XoX{.].oX#X%X#XXX].V.7.P r - o . ",
". o % q D ,.b.Z.].oX#X*X=X,X:X#X}.].]. X%X<X4X4X4X4X4X4X4X4X<X-X X[.[. X#X2X4X4X4X4X3X3X3X3X1X>X%XOXoX XOXXX XW.Z.d.,.K q % o . ",
". o % 9 z =.2.n.S.]. X%X:X:X=X%X|.].]. X#X<X3X4X3X3X3X3X4X3X<X%X X[.]. X#X<X3X3X4X3X3X3X3X3X3X>X=X%X#XOXoX|.].S.B.t.=.z 9 % o . ",
"X o % 9 l | <.f.B.Z.]..X%X:X=X%X{.P.P.{.OX*X,X3X,X,X1X,X3X,X=XOX}.G.G.|.+X:X,X1X3X1X>X1X3X>X>X>X,X:X%XOX X].S.B.a.<.| l 9 % o X ",
"X o $ 6 z | <.y.n.V.S.{.#X%X%XOX].S.S.R.oX%X:X:X,X:X:X:X,X=X%XoXR.S.S.R.oX%X:X:X:X:X:X:X:X:X:X:X:X,X%XoXW.S.B.f.a.<.| l 9 % o . ",
"X o % q D =.1.a.a.f.n.R.|.oXoX|.S.B.C.P.{.#X%X%X%X%X%X%X%X%XOX{.S.V.C.S.{.#X#X*X%X%X%X#X%X%X%X%X%X%X@X}.S.B.b.f.f.1.=.D q % o X ",
". o - r P <.a.f.f.2.a.B.R.{.}.R.C.b.b.B.P.{.oXXXXXXX.XXXoXXX{.P.C.v.n.B.R.].XXXXXXoX.XXXXXoXoXXXOXOX|.P.C.a.a.a.f.f.<.P r % o . ",
". o % r Q p.n.n.2.2.t.v.V.R.S.C.b.1.1.a.C.P.].].{.].].{.].].P.V.d.1.1.v.B.R.].{.].[.[.].].].].[.{.].P.C.a.1.2.y.f.n.p.Q r , O . ",
"o $ < p Q p.b.b.1.<.1.p.b.V.V.b.1.>.1.1.b.B.S.G.Z.S.Z.S.G.S.V.b.p.<.>.1.b.V.S.G.S.S.S.S.Z.S.S.G.Z.Z.V.n.p.1.<.p.d.d.7.Q y , $ o ",
"- 2 6 p P ;.7.t.1.<.1.a.d.n.n.a.1.>.>.1.a.n.B.B.V.B.B.B.B.B.n.y.1.+.>.2.a.n.n.n.B.B.B.n.B.B.V.n.B.B.n.a.p.1.1.1.t.7.4.P f q ; ; ",
"p x c F G J / =.,.p.y.a.a.y.p.1.>.O.:.>.1.y.a.a.a.a.d.a.a.a.p.1.>.O.O.>.1.2.a.a.d.d.f.f.a.a.a.a.a.a.a.a.a.y.1.,.=.Q P G S c x x ",
"#.X.E L m x m P ,.a.g.n.a.2.1.>.+.O.O.>.>.1.1.1.2.1.1.2.2.1.1.>.+.O.O.>.>.1.1.1.1.1.1.1.1.1.1.1.2.1.1.a.f.n.d.;.P m x c G E X.o.",
"k.h.6.W x 6 6 m *.v.B.b.y.1.>.+.:.:.O.+.>.>.>.>.>.>.>.>.>.>.>.>.O.O.:.>.>.>.>.>.>.>.>.>.>.>.>.>.>.>.<.a.n.n.s.*.m 7 6 p R %.h.j.",
"_.D.h.X.x 5 5 b P 7.b.a.p.<.>.>.>.>.>.>.>.>.>.>.+.+.+.:.>.>.>.>.>.>.>.>.>.>.+.>.+.+.+.+.>.>.>.>.>.>.<.t.a.s.6.Q p 4 5 x o.j._.`.",
"_.D.h.$.A e e x J *.;.,.<.<.1.1.1.1.1.1.1.1.>.>.+.+.O.>.>.<.1.1.1.1.1.1.1.1.<.>.+.+.O.>.>.1.1.1.1.1.<.<.,.4.*.J a q e A $.x._.`.",
"_._.l.&.o.L Z S F H J / ;.1.a.a.d.f.f.a.2.a.a.1.>.+.>.>.1.p.a.a.a.a.a.a.a.a.y.1.>.:.>.>.2.1.a.a.a.a.t.,.Q J H m F C R o.&.x._._.",
"_._.z.l.h.%.#.G p r y H =.p.n.B.B.n.B.n.B.n.n.y.1.>.+.1.a.b.n.n.B.n.B.n.B.n.b.p.1.>.>.<.a.f.n.V.B.n.p.*.H p r x G  .%.h.l.c._._.",
"_._._._._.x.%.W e 4 2 g *.v.V.Z.Z.Z.V.Z.Z.V.B.a.1.>.>.1.a.B.V.Z.Z.V.V.Z.Z.V.B.a.1.>.>.1.a.B.V.F.G.V.s.*.x 4 2 e R %.x.D.`.`.`._.",
"_._._._._._.h.E r - , r *.v.Z.G.G.G.Z.S.Z.S.V.d.2.>.>.2.f.B.S.S.G.Z.Z.G.G.Z.V.d.1.>.>.2.b.V.G.G.G.Z.s.Q e - - e E &._._.`.`.`._.",
"_._._._._._.h.Q w $ $ w Q v.G.'.G.G.G.G.G.G.V.b.1.>.>.1.n.V.G.G.G.G.S.G.G.G.V.g.1.>.>.1.n.V.G.G.[.G.v.Q w = # q E &._._._._._._."
};
