/* XPM */
static char *result[] = {
/* columns rows colors chars-per-pixel */
"64 64 176 2 ",
"   c #020C0E",
".  c #061212",
"X  c #151514",
"o  c #3A2720",
"O  c #3C2B23",
"+  c #422D24",
"@  c #462E28",
"#  c #433326",
"$  c #4C3526",
"%  c #443529",
"&  c #4C342A",
"*  c #4B392A",
"=  c #553C27",
"-  c #543B2A",
";  c #593E2A",
":  c #5B3F31",
">  c #633D33",
",  c #56402C",
"<  c #5D422C",
"1  c #4D4533",
"2  c #544432",
"3  c #5A4433",
"4  c #574A35",
"5  c #5C4B36",
"6  c #5E4F38",
"7  c #664227",
"8  c #63442D",
"9  c #6A462C",
"0  c #63482F",
"q  c #6D492E",
"w  c #704729",
"e  c #744B2C",
"r  c #7E522F",
"t  c #644433",
"y  c #6C4336",
"u  c #644C33",
"i  c #6C4C32",
"p  c #6D4638",
"a  c #634E39",
"s  c #6E4B39",
"d  c #704337",
"f  c #724E32",
"g  c #734639",
"h  c #774F3C",
"j  c #7C4B3C",
"k  c #63543D",
"l  c #6C543C",
"z  c #735033",
"x  c #7E5434",
"c  c #7B533D",
"v  c #645640",
"b  c #6F5741",
"n  c #6E5841",
"m  c #7D5541",
"M  c #725A42",
"N  c #785E46",
"B  c #6F6449",
"V  c #706347",
"C  c #7B6047",
"Z  c #76674C",
"A  c #854D3E",
"S  c #8D4B3D",
"D  c #914E3F",
"F  c #845734",
"G  c #875936",
"H  c #8B5A36",
"J  c #8A503F",
"K  c #8E5D39",
"L  c #915D36",
"P  c #915F39",
"I  c #976137",
"U  c #94623C",
"Y  c #9B653B",
"T  c #A06639",
"R  c #A4693C",
"E  c #AC6E3E",
"W  c #AF713F",
"Q  c #914E40",
"!  c #815641",
"~  c #8C5241",
"^  c #855A43",
"/  c #8B5B45",
"(  c #965544",
")  c #995644",
"_  c #945945",
"`  c #9C5A46",
"'  c #915F48",
"]  c #9E5D49",
"[  c #A25B47",
"{  c #A15E49",
"}  c #886B4E",
"|  c #9C6741",
" . c #9A6841",
".. c #9E624B",
"X. c #8C6F50",
"o. c #916E50",
"O. c #8B7E59",
"+. c #957453",
"@. c #9F7956",
"#. c #A36C41",
"$. c #AB6E41",
"%. c #A3634C",
"&. c #AB664D",
"*. c #A5694F",
"=. c #AC694F",
"-. c #B2664F",
";. c #B57443",
":. c #B97642",
">. c #BD7A45",
",. c #B27748",
"<. c #B77A4B",
"1. c #BE7B49",
"2. c #A56C51",
"3. c #AE6B50",
"4. c #B26D52",
"5. c #A67456",
"6. c #AC7355",
"7. c #A47D5B",
"8. c #AD7C5B",
"9. c #B57255",
"0. c #BB7556",
"q. c #BD7857",
"w. c #BD7758",
"e. c #B37C5B",
"r. c #BE7A59",
"t. c #C07C47",
"y. c #C27E4B",
"u. c #C17758",
"i. c #C17D5B",
"p. c #99855E",
"a. c #AA815D",
"s. c #B6835E",
"d. c #B9815D",
"f. c #9D8861",
"g. c #A38E65",
"h. c #B38760",
"j. c #BB8560",
"k. c #B58963",
"l. c #BC8C64",
"z. c #AF9B6E",
"x. c #BF956A",
"c. c #B59F70",
"v. c #C5814D",
"b. c #C68451",
"n. c #C3825D",
"m. c #C38660",
"M. c #C38C64",
"N. c #CA8E66",
"B. c #C59267",
"V. c #C79569",
"C. c #C9966A",
"Z. c #C3996D",
"A. c #CB9A6C",
"S. c #D29C6E",
"D. c #C49F70",
"F. c #CDA06F",
"G. c #C4A473",
"H. c #CDA473",
"J. c #CFA976",
"K. c #CFAB78",
"L. c #D3A473",
"P. c #DBA372",
"I. c #D3AB77",
"U. c #DBA977",
"Y. c #D2AE79",
"T. c #D3B37D",
"R. c #DCB27D",
"E. c #E0A673",
"W. c #E0B27C",
"Q. c #D6BA81",
"!. c #DCBD84",
"~. c #E4BE85",
"^. c #DEC387",
"/. c #E2C286",
"(. c #E7C689",
"). c #EBC88A",
/* pixels */
"v.v.v.>.y.v.v.v.v.v.v.v.v.v.v.v.v.v.v.v.v.v.v.v.v.v.v.v.v.v.v.v.v.v.v.v.v.v.v.v.>.t.v.v.v.b.b.v.v.v.y.t.t.t.t.y.i.b.b.b.b.y.b.v.",
"b.v.v.>.v.v.v.v.v.v.b.v.b.v.v.v.v.v.v.b.b.v.v.v.v.v.v.v.v.v.v.v.v.v.v.v.v.v.v.v.t.y.v.v.v.v.v.v.v.v.y.t.y.y.y.y.b.y.v.b.b.b.v.v.",
"b.b.v.>.y.v.v.v.v.b.b.b.b.v.v.v.v.v.b.b.b.b.v.v.v.v.v.v.b.v.v.v.v.v.v.v.v.v.v.b.>.y.v.v.v.v.v.v.v.v.v.v.b.b.b.y.b.v.v.b.v.v.v.v.",
"v.v.v.>.y.v.v.v.v.v.v.v.v.v.v.v.v.v.v.v.v.v.v.b.b.b.b.b.b.b.b.v.v.v.v.v.v.b.b.b.t.y.v.v.v.v.v.v.v.b.b.b.b.b.b.b.b.b.b.y.v.y.v.v.",
"v.1.y.>.y.v.v.y.y.y.y.b.b.b.b.v.v.v.v.t.t.>.v.v.b.v.v.v.v.v.v.v.v.v.v.v.v.v.v.v.>.y.v.b.b.b.b.b.v.v.v.v.v.v.y.y.t.t.y.y.t.v.y.v.",
"v.y.y.>.y.v.v.y.y.y.y.b.b.b.b.v.v.v.v.y.v.v.v.v.v.v.v.t.t.v.y.v.v.v.v.v.v.b.v.b.t.y.b.b.b.b.v.v.v.v.v.v.v.v.y.y.y.y.y.y.y.b.v.v.",
"b.b.b.>.v.v.v.v.y.y.y.y.v.y.v.v.v.v.v.v.v.v.v.v.v.v.v.>.y.t.t.y.v.v.v.b.b.b.b.b.>.y.v.v.v.v.v.v.v.v.y.y.y.y.v.v.y.y.v.b.v.b.v.v.",
"v.v.v.1.y.v.v.b.b.v.t.t.t.t.v.v.v.v.v.v.>.d.>.d.>.1.v.v.y.y.v.y.y.v.v.y.v.v.v.v.t.y.v.y.v.v.v.y.v.v.y.t.t.t.y.y.y.v.y.b.b.b.y.b.",
">.t.>.:.>.1.t.y.y.y.>.>.>.>.>.>.d.W t.W t.W L w 7 e z e e e e e e e e e e e 7 x T :.1.1.>.t.t.>.>.t.t.t.W t.t.t.y.t.t.t.t.t.t.t.",
">.t.>.1.>.1.y.y.t.t.t.t.t.1.1.1.>.R T T Y F < # O # # # # # # % # # # # # # O * q I T W ;.>.>.>.t.>.t.t.t.t.t.t.t.:.t.t.t.t.t.t.",
"v.y.y.y.b.b.b.b.b.b.b.b.b.b.b.b.$.q 0 7 7 7 a M V l n n l n l l n n l n n n N b < < 9 F $.t.>.y.t.y.y.y.y.y.v.y.t.t.t.y.v.v.t.y.",
"v.y.t.y.v.v.v.b.b.y.b.b.b.b.y.1.K , * # , 5 } a.l.a.a.a.a.a.a.a.a.a.a.a.a.a.l.@.l * $ 0 U ,.R E t.v.v.y.b.b.v.v.t.t.y.y.b.v.b.b.",
"y.y.y.y.y.b.y.b.b.b.v.v.y.y.t.U < n Z C C o.s.S.P.S.S.S.F.S.S.S.A.S.A.S.S.S.P.B.a.C l k 0 7 < ; Y 1.b.b.b.y.y.v.t.:.v.v.b.b.b.b.",
"v.v.v.y.y.y.y.b.b.b.y.y.y.,.Y u k s.C.C.V.V.A.A.A.A.A.A.A.F.C.A.A.A.A.A.A.A.S.C.A.A.l.+.6 % 1 1 i Y <.b.b.y.v.v.t.:.b.y.y.v.v.y.",
"v.y.v.t.t.>.t.y.v.v.y.>.;.P i 5 +.S.P.E.P.L.C.V.B.V.B.B.B.B.B.B.C.B.B.B.B.B.B.C.L.E.P.d.X.Z O.O.k z U 1.b.b.v.v.y.t.v.v.v.v.b.y.",
"v.b.b.b.b.y.y.v.v.v.y.<.U t 3 } S.V.V.V.V.V.V.V.V.V.C.B.V.V.C.V.C.C.C.C.C.C.Z.B.C.V.B.V.A.T.Q.^.O.6 u  .y.v.b.v.t.:.v.v.b.b.b.v.",
"v.b.b.b.b.v.v.y.y.t.,.I 8 6 X.C.A.C.V.V.V.V.V.V.V.V.V.V.V.V.V.V.C.C.C.B.C.V.V.V.V.V.V.C.S.U.!.!.Q.p.k 3  .1.b.b.y.>.v.v.b.b.b.v.",
"v.v.v.v.v.v.v.y.1.,.K > : / j.P.C.C.C.V.V.V.V.C.V.C.V.C.V.V.V.V.C.C.B.Z.B.V.V.C.V.B.V.B.Z.H.Q.Q.).c.V , H >.b.y.y.>.v.v.v.v.v.v.",
"v.v.v.y.v.b.b.b.b.| 8 $ p 2.N.L.C.B.C.V.V.V.V.V.V.V.C.V.V.V.V.C.B.C.C.C.C.C.V.V.V.V.V.V.Z.J.Q.Q.).c.B , H <.v.y.y.>.v.v.v.v.v.v.",
"t.t.t.t.t.y.y.y.1.H $ + g e.N.A.C.C.V.V.C.V.V.V.V.V.V.V.C.V.V.V.V.V.B.C.V.C.V.V.V.V.V.C.C.A.D.Q.(.z.B , H ;.t.t.>.:.1.t.t.t.t.t.",
">.t.t.W >.t.>.>.>.F $ @ c w.C.A.V.C.V.V.V.V.V.V.V.V.C.V.V.V.C.V.V.C.V.V.V.V.C.V.V.V.V.V.V.V.A.K.~.g.v - H ;.>.>.>.:.>.>.>.>.>.>.",
"y.v.v.>.y.y.y.v.y.P = * / m.S.C.V.V.V.V.V.V.V.V.V.V.V.V.V.V.V.V.V.V.V.V.V.V.V.V.C.V.V.V.C.B.C.Q.W.7.k = H >.1.1.>.>.>.1.v.v.v.v.",
"v.v.v.>.v.v.v.v.y.K = 2 +.S.P.B.V.V.V.V.V.V.C.B.C.V.V.V.V.V.V.V.V.V.V.V.V.V.V.V.V.V.V.V.V.B.V.Q.P.6.m < x #.<.y.t.y.y.v.b.b.v.v.",
"v.b.v.>.y.v.v.v.t.H ; 2 f.Y.U.V.V.V.V.V.V.V.V.Z.V.V.V.V.C.V.V.V.V.C.V.V.V.V.C.V.V.V.V.C.V.B.A.K.C.i.2.h < f #.y.y.b.v.y.v.v.b.v.",
"v.v.y.W v.v.v.v.t.L = 4 f.Y.U.M.V.V.V.V.V.V.V.V.V.V.C.V.V.V.V.V.V.V.C.V.V.V.V.V.V.V.V.V.V.V.C.Y.M.m.w.' - - K b.b.b.y.y.y.y.y.y.",
"v.v.v.:.y.v.v.v.y.L ; 4 f.Y.U.B.V.V.V.V.V.V.V.V.V.V.V.V.V.V.C.V.V.V.V.V.V.V.C.V.V.V.C.V.V.V.V.Q.k.w.w.' - * H y.y.b.y.y.y.y.y.b.",
"b.b.v.W y.v.v.v.v.K ; 2 f.R.R.C.V.V.V.V.V.V.V.V.V.V.V.V.V.V.V.V.V.V.V.V.V.V.V.V.V.C.V.V.V.V.A.Q.e.4.4./ - - H >.y.y.b.b.v.v.v.v.",
"b.b.v.:.t.v.v.v.1.U , 5 g.!./.H.V.V.V.V.V.V.V.V.V.V.V.C.V.C.V.V.C.V.V.V.V.V.V.V.V.V.V.V.V.V.A.K.h.4.4./ - = H 1.y.b.y.y.y.y.v.v.",
"b.v.y.:.y.v.v.v.I < t } G.^.^.T.F.V.V.B.B.B.V.V.V.C.C.C.V.V.V.V.V.V.C.C.C.C.C.C.V.V.V.C.A.S.A.h...-.4./ - - U i.b.b.y.t.y.y.y.v.",
"v.v.y.>.y.v.v.v.f $ c 8.L.Y.Y.T.T.A.A.Z.A.Z.V.B.B.B.B.B.B.V.V.V.V.V.V.C.V.Z.A.Z.A.S.C.V.B.j.j.*.( %.4./ - ; P y.b.y.y.y.y.y.v.v.",
"t.t.t.>.t.t.t.t.7 # ! e.N.C.B.H.T.Y.K.Y.Y.Y.F.A.C.C.C.C.A.C.C.V.C.C.C.C.C.C.C.C.A.C.V.k.6.%.2.) Q &.4./ - = H t.y.t.t.t.t.t.y.y.",
"t.t.t.W t.t.t.:.7 # h 3.u.u.i.M.J.T.Q.Q.T.T.Y.H.F.I.J.H.F.A.A.A.A.Z.A.A.C.j.d.e.e.j.e.6.] ( ) Q ..i.M.o.- = H :.t.:.t.t.t.t.t.t.",
"v.y.v.v.y.v.y.y.9 O p ..q.u.q.n.C.T.T.Q.Q.T.K.K.K.K.K.K.A.A.V.B.V.V.V.C.M.6.*.*.*.3.*...( D D ) 6.H.L.p.4 = L >.v.W v.v.t.v.v.t.",
"v.v.v.v.v.v.v.v.i O > _ 0.i.r.w.m.A.H.H.Z.x.x.x.x.x.D.x.l.j.e.j.d.d.d.d.e...( ( ( ( ( ( ( ( D ` B./.^.g.4 , K v.v.W v.v.v.v.v.v.",
"v.v.b.v.v.v.y.y.y o > _ 0.i.i.w.w.m.m.r.6.2.%.%...2.%.%.%...] ] %.] ..%.] ( D ( ( D ( ( ( ( ..=.A./.!.p.2 , I >.v.>.v.v.v.v.v.v.",
"v.b.b.b.b.y.1.1.9 o > ` 0.i.r.w.0.0.u.9.%.[ ` ) Q Q S S S ( Q Q S D D D ( ( ( ( ( ( ( ( ( ] *.r.N.L.A.o., = I d.v.W v.v.v.v.v.v.",
"v.v.v.v.v.v.v.y.q O > _ 0.i.i.w.r.w.r.r.w.u.w.&.) ~ ( ( ( ( ( ( ) ( ( ( ( ( ( ( ( ( ( ( ` =.r.r.n.i.9.j @ - K v.t.W v.v.v.v.b.b.",
"v.v.v.v.v.v.v.y.q o ; J =.e.A.I.A.n.r.i.i.w.3...) ( ) ( ( ( ( ( ) ( ( ) ( ( ( ( ( D ( ` 3.w.i.i.9.-.[ > + = K v.v.>.v.v.v.v.b.v.",
"b.b.v.v.v.v.v.U t : A ` =.e.l.D.x.9.9.9.4.3.] ( ( ( ) ( _ ( ) ( ( ) ) ( ( ( ] %.%.%.&.=.r.n.r.0.%.[ ( j > < c ,.t.t.v.v.v.v.v.v.",
"v.v.v.v.b.b.b.* t ^ 2.3.4.6.5.8.6.%.%.%.%.] ) ( ( ( _ ) ) ( ) ) ( _ ) ( ( ( &.=.9.3.9.0.r.i.w.&.` ( ( ( J s 0 K t.:.v.v.v.v.v.v.",
"v.v.v.v.v.v.v.X t 6.i.i.u.4.%.] ( _ ( ( ) ( ) ( ( ( ) ) ( ) ( ( ( ( ) ) ( ( %.=.9.4.4.9.9.4.4.] ( Q ` -.2.m * e t.>.v.v.v.v.v.v.",
"d.v.v.t.v.t.t.  5 9.i.m.i.w.4.%.( ( ( ( ( ( ( ) ) ( ( ) ( ) ( ( ( ) ) ( ( ( ] ] { %...] ` ` ` ) ( ] 3.u.0.! $ 7 t.>.t.t.v.t.y.v.",
"W >.>.>.>.>.t.  - %.w.i.i.r.w.9.] ( ( ( ( ( ) ) ( ( ) ( ) ( _ ( ( ) _ ( ( ( ( ( ( ( ( ( ( ( ( ( ..e.M.S.e.! # 7 W :.t.t.>.>.>.>.",
"v.v.t.>.t.t.v.  & _ 0.u.i.i.i.w.3.] _ ) ( ( ( ( ( ( ( ) ( ( ( ( ) ) ( ( ( ( ( ( J ( D ( J ( ( ( 8.G.T.L.e.m @ 9 t.v.t.t.t.y.v.y.",
"v.v.v.t.v.v.v.  + _ 4.u.i.r.r.i.q.3.3.%.` ( ( ( ( ( ( ( ( ( ( ) _ ( ( ( ) ) ( ( ( ( ( ( ( %.=.&.Z.Q.^.Y.5.p + q v.b.b.y.v.v.v.v.",
"v.v.v.t.v.v.v.  @ ~ 4.q.i.n.r.r.w.w.u.9.%.] ) ) ] ` ` ` ` ] ` ] ) ( ( ) _ ( ( ( ( ` ] ] %.4.r.u.C.Y.T.C...> o 9 y.y.y.y.v.v.v.v.",
"v.v.v.W v.v.v.  & J %.4.0.i.r.r.r.i.i.w.4.=.&.3.4.3.3.3.2.3.3.%.` ( ( ( ( ) ) ( ( ] &.=.9.q.i.i.N.B.l.e./ > o q y.y.t.t.t.t.v.v.",
"v.v.v.W v.v.v.  & S ` %.4.9.w.q.i.r.n.m.M.M.m.i.d.w.w.w.w.u.w.9.2.] ) ` ( ( ( ( ( %.=.9.9.9.0.0.w.4.&.{ ~ > + w y.v.y.y.y.y.v.t.",
"v.v.v.>.y.v.v.. & ( ) ` ` { %.4.i.r.M.H.Y.T.K.Z.n.q.u.i.i.i.r.w.w.0.4.%.( ( ( ( ) ` ] ] { ] ] ] ] ) ) ` ~ > O t y.v.v.v.v.v.b.v.",
"v.v.v.>.y.v.v.< ; t A ( ) ( ) { =.=.e.l.x.x.l.s.9.=.=.=.4.=.=.,.3.3.3.%.( ( ( ( _ ( ) ( ( ( ) ( _ ( ) [ ) d o < v.v.v.v.v.b.b.v.",
"b.b.v.W v.v.v.#.< & d _ ) ) ( ) ] ] %.*.*.5.*.*...%.%.{ ] ] ..%.] { ] ` ( ( ) _ ( ( ( ( ( ( ( ( ( ( ` [ ( > O 9 1.v.v.v.v.v.v.v.",
"b.v.v.t.v.v.v.y.9 O y ~ [ ) ) ) ( ( ( ( D ( ( ( D D ( ( ( ( ( ) ) ) ) ) ( ) ( ) ) ( ( ( ) ( ( ( ( [ [ ( > - : Y y.v.v.v.v.v.v.v.",
"v.v.t.>.t.v.t.t.r $ : j ] ` ) ( ( ( ( ( D ( ( ( ) ( ( D ( ( ( D _ ( ( ( ( ( ( ) ) _ ( ( ( ( ( ( ) [ ( y - t P t.y.v.y.v.v.y.y.v.",
">.>.t.W >.>.>.>.L > - t ~ ` ` ) ( ( ( ( ( ( ( ( ( ( ( ( ( ( ( ( ( ( ( ( ( _ ) ( ( ) ( ( ) ( ) ) ] ) g - ; F $.>.>.W >.>.>.>.>.>.",
"t.v.t.v.t.t.t.>.;.H 8 - d ) ` ) ( ( ` ( ( ( ) ) ( ( ( ( ( ( _ ( ( ( ( ( ( ) ( ( ( ) ) ( ) ( ) ) ( g : ; H $.t.t.t.W y.t.y.y.t.y.",
"v.v.v.v.v.v.t.t.y.;.I d - > ~ ` ( ( ( ) ( ( ( ) ( ) ) ( ( ) ) ) ) ( ( ( ) ) ( ( _ ) ( ) ( ) ( [ d & ; G <.y.y.y.v.t.v.y.y.y.v.v.",
"y.b.b.y.b.b.v.b.y.v.v. .* & j { [ D ` ) ) ( ) ) ( ( ) ) ) ) ) ) ( ) ) ) ) ( ( ) [ ) ) [ ) ) [ [ & $ F t.b.v.b.b.v.>.y.t.y.y.y.v.",
"v.b.y.y.v.v.v.v.v.v.v.v.v.v.b.v.y.v.v.v.v.v.y.y.t.v.v.v.y.v.v.v.b.b.b.b.v.v.v.v.y.y.y.y.y.y.v.y.y.y.t.t.y.v.v.v.t.W b.y.v.b.b.b.",
"v.y.y.y.y.y.y.v.v.b.b.v.v.v.y.y.v.v.v.v.v.v.y.t.>.y.v.v.v.v.y.b.v.b.b.b.v.v.v.v.y.y.y.y.y.v.v.b.y.y.y.t.y.y.v.v.v.W y.y.y.b.b.v.",
"v.v.y.t.y.t.y.b.b.v.b.b.v.v.v.v.v.v.v.v.v.v.t.>.>.y.v.v.v.v.v.y.y.v.y.y.v.v.v.v.y.y.y.y.y.y.y.y.b.b.v.v.b.b.v.v.t.:.y.t.y.y.y.b.",
"v.v.v.y.b.y.b.y.y.y.y.b.v.y.v.y.v.y.v.b.b.b.v.t.W y.y.b.b.v.v.b.v.v.y.b.v.b.b.b.b.v.v.y.y.y.y.y.y.b.y.b.b.b.b.b.y.>.y.v.v.v.v.v.",
"v.v.v.v.v.v.y.y.y.y.y.y.t.y.y.y.v.v.v.b.v.b.v.y.t.y.v.v.b.v.v.v.v.v.v.y.v.v.v.v.v.v.y.y.y.y.y.y.v.y.v.v.v.v.b.b.y.t.v.v.b.b.b.v.",
"v.v.v.v.v.v.b.b.y.b.v.y.y.y.y.y.v.v.v.v.y.v.v.y.t.v.y.b.b.y.y.y.v.y.y.y.y.y.y.y.b.y.y.y.y.y.v.v.v.b.v.b.b.b.b.y.y.t.y.v.b.b.v.v.",
"v.v.v.v.y.y.b.b.b.b.v.y.y.v.v.y.v.v.v.v.v.v.y.t.t.v.v.v.y.y.t.y.v.v.1.>.1.1.1.1.y.b.y.v.y.y.v.b.v.b.b.v.b.b.y.v.t.t.b.b.v.v.v.v."
};
