/* XPM */
static char *result[] = {
/* columns rows colors chars-per-pixel */
"16 29 10 1 ",
"  c #3E0E0E",
". c #58281C",
"X c #523310",
"o c #733816",
"O c #7D6C1D",
"+ c #72422A",
"@ c #835433",
"# c #928B22",
"$ c #A29C43",
"% c None",
/* pixels */
"%%%%%%%%%%%%%%%%",
"%%%%%%%%%%%%%%%%",
"%%%%%%%%%%%%%%%%",
"%%%%%%%%%   %%%%",
"%%%%%%%% $# %%%%",
"%%%%%%% $#O %%%%",
"%%%%%% X#O %%%%%",
"%%%%% OXX %%%%%%",
"%%%  XXX#X  %%%%",
"%%% $$$X#XO %%%%",
"%%%% OOO#XXX %%%",
"%%%%% XX#X$# %%%",
"%%%%%% X#X#O %%%",
"%%%%% OXOX  %%%%",
"%%%%%% X# %%%%%%",
"%%%%%%% # %%%%%%",
"%%%%%  XOX %%%%%",
"%%%% ooXOXo %%%%",
"%%%%  ooXo  %%%%",
"%%%% +    + %%%%",
"%%%%% @@@+ %%%%%",
"%%%% +....+ %%%%",
"%%%% +@@@@+ %%%%",
"%%%% +@@@++ %%%%",
"%%%%% ++++ %%%%%",
"%%%%%%    %%%%%%",
"%%%%%%%%%%%%%%%%",
"%%%%%%%%%%%%%%%%",
"%%%%%%%%%%%%%%%%"
};
