/* XPM */
static char *result[] = {
/* columns rows colors chars-per-pixel */
"64 64 218 2 ",
"   c #040C0D",
".  c #0A0D0E",
"X  c #0B110F",
"o  c #000F12",
"O  c #041112",
"+  c #0C1413",
"@  c #0B161F",
"#  c #111715",
"$  c #141816",
"%  c #1A1A16",
"&  c #141A1B",
"*  c #1B1E1C",
"=  c #231C19",
"-  c #2C1D1A",
";  c #301E1A",
":  c #16211E",
">  c #18221F",
",  c #232017",
"<  c #242119",
"1  c #2D251B",
"2  c #39251C",
"3  c #332A1C",
"4  c #0D1723",
"5  c #161C21",
"6  c #1A1F21",
"7  c #121A29",
"8  c #0F2B2A",
"9  c #1C2222",
"0  c #1D212B",
"q  c #132B2A",
"w  c #19302C",
"e  c #212423",
"r  c #262827",
"t  c #22252A",
"y  c #262A2A",
"u  c #2C2C2D",
"i  c #382E27",
"p  c #3D3122",
"a  c #3B342A",
"s  c #38362E",
"d  c #262933",
"f  c #2C2B33",
"g  c #2B2B39",
"h  c #302E35",
"j  c #312E3B",
"k  c #2E3233",
"l  c #2D3A32",
"z  c #343335",
"x  c #323C35",
"c  c #36323D",
"v  c #3A3639",
"b  c #3D3B3D",
"n  c #4E271A",
"m  c #4A341E",
"M  c #522920",
"N  c #453524",
"B  c #493624",
"V  c #463827",
"C  c #4C3925",
"Z  c #42352A",
"A  c #4E3B29",
"S  c #5D3323",
"D  c #543C26",
"F  c #533E2A",
"G  c #5A3E29",
"H  c #4E363F",
"J  c #413C3F",
"K  c #68362E",
"L  c #7E3324",
"P  c #36443B",
"I  c #3C443E",
"U  c #3A493F",
"Y  c #4F432F",
"T  c #56422F",
"R  c #5B412C",
"E  c #574236",
"W  c #66462C",
"Q  c #67492F",
"!  c #704C2F",
"~  c #6D4933",
"^  c #765336",
"/  c #7C5434",
"(  c #2E3041",
")  c #333242",
"_  c #3A3443",
"`  c #373947",
"'  c #3C3945",
"]  c #3B3B48",
"[  c #433C44",
"{  c #4D3D42",
"}  c #433E48",
"|  c #3F4640",
" . c #3C4C41",
".. c #3F564A",
"X. c #454245",
"o. c #4A4346",
"O. c #454C46",
"+. c #45424A",
"@. c #4C4549",
"#. c #4D4B4D",
"$. c #594343",
"%. c #51464A",
"&. c #514B4D",
"*. c #5C4B4B",
"=. c #455648",
"-. c #4E544D",
";. c #4C5A4D",
":. c #58584C",
">. c #584D51",
",. c #4B5252",
"<. c #4D5A55",
"1. c #535251",
"2. c #5A5253",
"3. c #545C55",
"4. c #5A5D56",
"5. c #565E58",
"6. c #654B48",
"7. c #7B4944",
"8. c #64524C",
"9. c #79594B",
"0. c #675550",
"q. c #4E6051",
"w. c #546656",
"e. c #556857",
"r. c #55655A",
"t. c #5B6259",
"y. c #546B5E",
"u. c #5C6D5D",
"i. c #5E705F",
"p. c #6A6251",
"a. c #7A6453",
"s. c #776850",
"d. c #65735D",
"f. c #69735E",
"g. c #5A6E60",
"h. c #567462",
"j. c #5F7260",
"k. c #5D7966",
"l. c #617562",
"z. c #657965",
"x. c #6C7962",
"c. c #697D68",
"v. c #727B61",
"b. c #873526",
"n. c #9C3D2B",
"m. c #86552F",
"M. c #8A463B",
"N. c #96473B",
"B. c #895C35",
"V. c #8B5E3A",
"C. c #985738",
"Z. c #A74529",
"A. c #BE452F",
"S. c #B05730",
"D. c #8E613D",
"F. c #93633D",
"G. c #9A663D",
"H. c #9E693F",
"J. c #A16A3F",
"K. c #AB6F3F",
"L. c #B46938",
"P. c #C2452E",
"I. c #C94A34",
"U. c #C4503C",
"Y. c #DA5533",
"T. c #E34F35",
"R. c #E65834",
"E. c #FD6038",
"W. c #E1743B",
"Q. c #F6773F",
"!. c #974F44",
"~. c #875C46",
"^. c #975943",
"/. c #A65241",
"(. c #B65641",
"). c #87624C",
"_. c #8A6349",
"`. c #936546",
"'. c #9C6942",
"]. c #816754",
"[. c #956950",
"{. c #847653",
"}. c #957D58",
"|. c #A36D42",
" X c #A86E43",
".X c #A76F4C",
"XX c #A17245",
"oX c #AC7245",
"OX c #AE7448",
"+X c #B57543",
"@X c #B97642",
"#X c #BD7A45",
"$X c #B77848",
"%X c #BF7B49",
"&X c #DF6D40",
"*X c #C07C47",
"=X c #C27E4B",
"-X c #A6875B",
";X c #AC8D5E",
":X c #B6915F",
">X c #C5814D",
",X c #D38246",
"<X c #D7864D",
"1X c #DA844A",
"2X c #C68451",
"3X c #D88E52",
"4X c #DA9354",
"5X c #E28B4B",
"6X c #E88E4E",
"7X c #FF8245",
"8X c #F6904C",
"9X c #FD954D",
"0X c #FF9B4F",
"qX c #E99B57",
"wX c #FF9D52",
"eX c #F49E59",
"rX c #FFA354",
"tX c #F5A058",
/* pixels */
">X>X>X#X=X>X>X>X>X>X>X>X>X>X>X>X>X>X>X>X>X>X>X>X>X>X>X>X>X>X>X>X>X>X>X>X>X>X>X>X#X=X>X>X>X>X2X>X>X>X=X*X*X*X%X=X=X2X2X2X2X=X2X=X",
"2X>X>X#X=X>X>X>X>X2X2X2X2X>X>X>X>X>X2X2X2X>X>X>X=X>X>X>X>X>X>X>X>X>X>X>X>X>X>X>X*X=X>X>X>X>X>X>X>X>X=X=X=X=X*X=X=X2X2X2X2X2X=X2X",
"2X2X>X#X>X>X>X>X>X>X2X2X2X>X>X>X=X2X2X2X2X>X>X2X2X>X>X>X2X>X>X>X>X>X>X>X>X>X>X2X*X=X>X>X>X>X>X>X>X>X>X>X2X2X2X=X2X2X2X=X>X2X<X=X",
">X>X>X#X=X>X>X=X>X>X>X>X>X>X>X>X>X>X>X=X>X>X>X2X2X2X2X2X2X2X2X>X>X>X>X>X>X2X2X2X*X=X>X>X>X>X>X>X>X2X2X2X2X2X2X2X2X2X2X=X=X=X=X2X",
">X%X%X#X>X>X>X=X*X*X=X2X2X2X2X>X>X>X=X=X%X%X=X>X>X>X>X>X>X>X>X>X>X>X>X>X>X>X>X2X#X*X>X2X2X2X2X2X>X>X>X>X>X>X=X=X=X*X*X=X=X=X>X>X",
">X=X=X#X=X>X>X=X=X=X>X>X2X2X2X>X=X>X2X=X=X=X2X>X>X2X=X=X=X=X=X>X>X>X>X>X2X>X>X2X*X=X>X2X>X2X2X>X=X>X>X>X>X>X=X*X=X=X=X=X=X2X>X2X",
"2X2X2X#X>X>X>X>X=X2X=X=X=X=X>X>X>X2X2X2X2X2X2X>X>X=X>X=X=X=X*X=X>X>X>X2X2X2X2X2X*X=X>X>X>X>X>X>X>X>X>X=X=X=X=X>X=X=X>X2X2X2X>X>X",
">X>X>X#X=X>X2X2X2X=X=X*X*X*X>X>X=X>X2X=X%X%X%X%X*X=X=X>X>X=X=X>X>X>X>X2X>X>X>X>X*X=X>X>X>X>X=X=X>X>X=X*X=X=X=X=X2X=X>X>X2X=X2X=X",
"*X#X#X@X#X#X=X=X=X*X#X@X#X#X#X#X#X*X#X*X#X#X#X@X@X#X*X*X#X*X*X*X*X*X*X*X*X*X#X*XL.#X#X#X*X*X*X*X#X#X#X#X#X#X#X#X*X*X*X*X*X*X*X*X",
"#X#X#X#X#X%X%X=X=X=X=X=X%X%X=X#X#X#X#X#X#X#X#X#X@X#X#X*X#X#X#X=X*X*X*X#X*X*X#X*X#X#X#X#X@X#X@X#X#X#X#X#X#X#X#X#X*X@X*X*X*X*X*X@X",
">X>X=X=X2X2X2X2X2X2X2X2X2X2X2X=X>X>X>X>X>X>X>X=X#X=X>X>X>X=X=X>X=X>X*X=X>X>X>X=X%X%X%X%X=X*X%X=X>X>X>X>X>X>X>X>X*X@X=X=X>X>X=X=X",
"=X=X=X=X>X2X>X>X=X2X2X>X2X>X2X>X>X>X>X>X>X>X>X=X*X>X>X>X>X>X>X>X>X>X>X>X>X>X>X>X=X>X=X=X=X=X=X=X>X>X>X>X>X>X>X>X=X@X=X2X2X2X2X2X",
"=X=X=X=X=X2X=X2X>X2X>X=X>X>X>X>X>X>X=X=X>X>X>X=X@X>X>X>X=X=X=X>X>X>X>X=X=X*X=X=X>X>X>X>X+XH.G.F.G.'.'.G.'.OX#X>X>XL.>X>X2X>X2X2X",
">X>X>X=X=X=X=X2X2X2X>X=X=X=X>X>X2X=X>X2X>X>X>X=X@X>X>X>X%X=X=X>X>X>X=X=X*X=X=X=X>X>X>X=XF.R B N A F A A R /  X>X>X@X>X>X>X>X=X>X",
">X=X>X=X=X=X=X=X>X>X=X%X=X=X=X>X>X=X2X2X2X2X2X=X@X>X>X>X>X>X>X>X>X>X=X>X=X=X=X>X>X>X>XOX! 1 + + $ $ + + * T G.>X>X*X>X2X>X>X>X>X",
">X2X2X>X=X=X=X>X>X>X=X=X=X=X=X>X>X=X>X$XoX|.J.J.G.|.|.J.|.XX|.|.K.|.J.J.|.|.|.|.oXOXOXF.T > 9 9 : : & & + N '.2X*X@X>X>X2X2X>X>X",
">X2X2X2X2X>X>X=X=X=X=X=X>X>X>X=X>X>X*XG.! D C D D G G G G G R R G G D D D G G R R G W D Z u z v z k e & + B '.2X>X#X>X>X2X2X2X>X",
">X>X>X>X=X>X>X=X=X$X%X%X=X>X>X>X2X2X:X^ 2 + . % % % % % % % % $ % % % % % % % % % $ $ > u b o.%.@.[ z 9 + C G.>X:X#X>X>X>X>X>X>X",
">X>X>X>X>X2X2X2X2X>X>X>X>X>X>X>X>X+XF.R e 9 9 > > > > > 9 9 : 9 > > > > > > > > % : : t z o.>.2.1.@.z 9 + p B.OXL.>X>X>X>X>X>X>X",
"*X*X*X*X*X=X=X=X>X%X>X*X%X#X=X#XG.! F s x P  .P P P P P P P P P P P P P P P P P P P P P X.#.&.>.2.&.v & X = B Q ! L.*X*X*X*X*X*X",
"#X*X*XK.#X#X#X#X#X#X#X#X#X#X#XK.W 1 > l ;.e.u.e.w.w.w.w.w.w.w.w.w.e.e.w.w.w.w.w.w.e.w.w.-.#.@.&.>.@.z & + + * < 1 L.#X#X*X#X#XL.",
">X>X>X#X=X>X>X=X>X>X>X=X>X>X$XF.D $ y  .u.c.c.z.z.l.l.z.l.z.l.z.l.l.z.l.z.l.z.l.z.z.z.i.t.&.@.@.o.[ z 9 $ + + + + #X#X#X>X>X2X2X",
">X>X>X#X=X>X>X>X>X>X>X>X%XH.^ R a l U q.i.c.c.z.z.z.x.l.z.z.l.z.z.z.z.z.l.z.z.z.z.c.z.d.4.&.{ v h u u u y 9 & + + >X>X>X2X2X2X>X",
">X>X>X#X=X>X>X>X>X=X=X*XoXQ 3 < P ;.u.i.i.l.l.l.l.l.l.l.l.l.l.l.l.l.d.l.l.l.l.l.j.l.z.u.t.&.[ u * $ r v J z 9 + O 2X>X>X>X>X2X>X",
">X>X>XL.#X>X>X>X*X>X*X#XV.N # t U u.c.c.l.j.j.i.j.i.l.i.i.l.i.i.d.g.u.l.i.i.l.i.j.j.l.u.t.1.X.u & # u [ @.b 0 + O 2X=X*X*X=X=X>X",
">X>X>X#X>X>X>X>X>XK.H./ W p 0 z =.d.c.z.l.j.j.j.j.j.j.d.l.u.i.l.l.j.l.i.l.i.l.i.j.j.j.j.u.4.-.b y r v %.&.b e + + >X>X>X=X=X=X>X",
"2X2X>X@X>X>X>X>X>X|.Q 3 r u v O.w.i.z.j.j.j.j.i.j.j.j.j.j.l.l.j.u.l.d.l.j.j.i.d.j.j.j.j.i.u.t.1.X.[ o.&.&.b e + O >X>X>X>X>X>X>X",
"2X2X2XK.>X>X>X>X>XF.B + * z o.2.t.i.j.i.d.j.j.j.j.j.j.j.i.j.j.j.l.g.j.g.j.j.j.j.j.j.d.i.l.l.u.4.&.@.@.%.o.z 6 + O >X>X*X>X=X>X>X",
">X>X>XK.>X>X>X>X>XD.p + > z @.2.t.d.l.l.i.j.j.j.j.j.j.j.j.j.j.j.l.j.j.j.j.j.j.j.j.j.j.l.k.z.j.;.I z v v z y * + + 2X=X=X*X=X=X>X",
">X>X>X#X>X>X>X>X>X`.N + 9 z o.2.t.j.k.l.j.l.j.j.j.i.j.d.j.j.j.j.u.j.j.j.j.i.d.j.j.j.j.j.z.z.u.O.y * * * 9 & & + + >X=X=X=X=X2X>X",
"*X*X*X#X>X>X>X>X>XD.N # * h o.1.t.u.l.j.i.j.j.j.l.l.i.l.i.j.j.j.l.j.j.j.l.g.j.j.j.j.j.j.z.z.e. .9 +   + + + + + # %X*X*X=X*X=X=X",
"*X*X*XL.L.>XK.>X#XD.m + 6 z o.&.4.t.t.j.j.j.k.j.l.l.l.l.l.j.j.h.j.j.j.l.l.l.l.z.j.k.j.j.j.u.3.| y & + X + % 3 N N @X#X#X*X@X*X*X",
"=X=X>X>X=X>X=X>X=XF.B # 9 z o.&.&.1.3.r.h.k.k.k.z.c.c.z.k.j.h.h.h.h.k.j.z.c.c.z.z.k.k.h.e.3.&.o.b z e & + 3 Q D.F.#X>X*X>X>X*X>X",
">X>X>X>X>X>X>X>X>XF.N # 6 z o.&.%.@.&.4.u.j.k.j.i.j.j.i.l.l.l.i.j.j.i.i.j.j.j.j.j.j.j.i.5.#.@.%.&.o.z 9 # V F.>X*X#X>X>X>X>X>X>X",
">X>X>X>X>X>X=X=X=XF.N # 6 z o.@.o.} o.8.a.a.p.-.=.....<.4.a.].].a.a.s.t.;.=.....<.p.a.a.8.o.} @.&.#.z 9 $ C '.>X=X#X>X>X>X>X>X>X",
">X2X2X2X2X>X%X%X#XF.B # 9 z o.#.} ' { 7./.N.~ i q 8 w k F M.C.(.(./.M.E l w 8 q z K C./.7.{ _ +.#.@.v 9 $ C H.>X=XK.>X>X>X>X>X>X",
">X>X>X>X>X>X=X>X>XF.B & 9 z @.@.] ` H M.I.P.L - O O O & M n.I.T.T.I.n.M $ O o O - L P.I.M.H ` ] @.o.z 9 $ N F.>X>XL.>X>X>X2X2X2X",
">X2X>X>X>X>X>X>X>XF.B $ 9 z o.@.] ( H N.Y.Y.Z.S 1 +     n Z.R.E.E.R.Z.n X   + 1 S Z.Y.Y.N.H ( ` @.o.z 9 $ B F.2X>X#X>X>X>X>X2X2X",
"2X2X>X>X>X2X>X>X>XF.N $ > z o.@.` ( H C.W.Q.W.L.m.m X   n S.Q.7X7XQ.S.n . X m m.L.W.Q.&XC.{ ( ` @.@.z 9 # V F.>X*X*X>X>X>X>X>X>X",
">X>X>X>X2X2X2X2X2XF.N $ 0 z o.@.` ) { ^.1X9X0X9X,Xm.< X m L.8XrXwX8XL.B X < m.,X0XwXwX&X^.{ ( ` @.+.z 9 # V F.>X>XL.>X>X>X*X>X>X",
">X>X=X,X2X>X2X>X>XF.V + > z o.@.] _ @.).2X4XtXtX3XF.a 9 Y XX4XtXeX4XXXY q a D.4XeXtXqX2X).{ ) ' #.+.k 9 + C F.>X>X#X>X>X>X*X*X,X",
":X>X*X*X=X=X=X=X#XD.p + 9 v %.&.} } @.9.-X-X:X:X-Xs.=.U :.{.-X;X;X-X{.:.Y =.s.-X:X:X-X}.a.@.' +.+.| k 9 # m D.>X>XK.>X>X>X:X>X*X",
"@X#X#X#X#X#X*X#X#XB.p + 9 v O.&.%.o.&.4.f.v.x.v.x.d.u.y.d.d.f.v.v.f.d.u.y.u.d.x.v.v.x.f.4.&.o.@.,.} j 9 # m B.#X#XL.>XL.#XL.L.>X",
"*X*X*X#X*X>X=X=X2X'.R 1 e u [ o.@.@.&.3.e.y.y.y.y.g.d.l.i.i.y.y.y.y.u.i.l.j.u.y.y.y.h.e.3.#.%.*.6.$.Z < + N D.>X>X>X>X>X,X:X>X>X",
">X>X>X#X>X>X>X>X2X+XV.~ T a k z } o.#.1.<.<.<.<.3.5.t.t.w.3.<.<.<.<.3.w.t.4.t.<.<.<.<.<.,.#.&.7.!.!.K - # V `.>X>X>X>X>X>X>X>X>X",
">X=X>X#X=X>X>X>X=X=X%XOXV.A > 9 z o.&.&.#.#.#.-.#.#.#.#.%.#.#.#.#.#.&.&.#.&.&.&.#.#.#.#.+.#.*.!.U.I.b.2 # V D.>X>X>X=X=X*X>X>X>X",
">X>X=X@X=X>X>X=X=X*X*X=X|.D # & f o.&.@.o.o.o.o.o.o.o.@.@.@.@.@.@.o.@.o.@.@.o.o.o.o.@.o.+.X.$.M.A.P.b.; + V F.=X>X=X*X*X*X*X>X>X",
">X>X>X@X=X>X>X=X=X=X=X>X|.D # & i X.&.@.} } ' ` _ [ o.@.@.%.%.#.#.%.%.%.@.o.} [ } o.@.o.` k z S L b.M - + p V.=X=X>X=X*X*X*X>X>X",
">X2X>X@X=X>X>X>X>X>X=X=XG.D # $ z X.%.#.+.| ` ( ( _ { @.&.%.&.%.&.%.&.@.%.} [ _ ' o.@.o.z 9 & = - ; = % + Z V.=X=X=X>X>X>X2X2X>X",
">X>X>X#X>X>X>X>X>X>X=X#XG.A $ 6 k X.%.*.*.%.@.{ [ [ o.@.@.o.o.o.o.o.o.@.@.{ _ _ _ } @.J u $ O O + @ + + * F '.2X2X2X>X>X>X2X2X>X",
"2X2X2X@X=X>X>X>X>X>X>X>XG.B + 6 k +.2.9.)._._.~.9.6.%.} ' z f f u z v J } } _ _ _ } +.[ u &   % p F A A G /  X*X=X>X>X=X>X>X>X>X",
"2X>X>X#X>X>X>X>X>X>X>X>XG.N + & k +.0.[.%X<X<X<X*X`.6.' g 9 & & & $ e h c [ _ _ _ [ } _ y & O p / |.|.'.J. X%X=X=X=X2X=X>X2X>X>X",
">X=X*X#X%X>X%X>X>X#X=X=XG.D % & y ` 8..X3X0XwXwX6X.X6.c 0 4 + . O + 5 d j _ _ _ _ _ _ j r & = W  X>X=X=X=X=X=X=X>X>X=X=X=X*X=X=X",
"#X#X#X@X#X#X#X#X#X#X#X#XJ./ F a u f E '.5XwXrXrX8X XH t 7 5 5 & & 5 0 f ) _ _ _ ) j f t u p F B.+X#X#X*X#X*X@X*X#XL.*X*X*X*X*X*X",
"*X=X=X=X#X#X#X#X#X#X>X>X$X+XG.^ Z 0 a B.1X0XrXwX6XG.Z & 4 0 g f f d f j _ _ _ _ j d 6 - A / H.+X:X*X=X=X*X*X*X*X#X#X=X=X=X=X*X*X",
">X>X>X>X>X>X%X=X%X>X>X2X>X>X>XJ.G # 1 / ,XwXrXwX5XC.2 O @ d ) ' _ _ _ _ _ _ _ _ j t @ = Q OX>X>X*X=X=X>X=X=X*X=X>X#X>X=X=X=X>X=X",
"2X2X2X2X2X2X>X>X>X>X2X2X2X2X2XOXG % , m.=X0XrXwX5XC.2 . 4 g [ } [ _ } _ _ _ _ _ c t # - ~ %X2X>X>X=X=X=X>X2X2X2X*X#X>X%X%X%X>X>X",
"=X=X=X=X2X>X>X>X>X>X>X>X2X>X>X>X>X>X>X>X>X>X=X=X#X>X2X2X=X=X=X=X=X=X2X2X=X=X2X=X=X=X=X=X>X2X>X=X>X=X=X%X=X2X>X>X>XL.>X=X2X2X2X2X",
"2X=X=X=X*X=X>X2X>X2X2X>X>X>X>X>X>X>X>X>X>X=X=X*X#X>X2X=X=X=X=X2X2X2X2X2X2X=X=X=X=X=X=X=X=X>X>X>X>X=X=X=X=X>X>X>X>X#X*X=X>X>X>X2X",
"<X=X=X*X*X*X=X>X2X>X2X2X>X>X>X>X>X>X>X>X>X>X*X*XK.>X=X2X=X2X2X=X=X=X=X=X=X2X2X2X=X*X*X=X>X>X=X>X>X>X>X>X2X>X>X>X>XK.*X=X=X=X>X>X",
"=X=X>X>X>X=X>X=X*X=X=X>X>X>X=X>X>X>X>X2X2X>X*X@XL.>X>X>X2X=X<X2X<X=X=X=X2X2X2X2X2X2X=X=X=X=X=X=X>X>X>X>X2X2X2X2X=X@X>X>X>X>X>X>X",
"2X=X>X>X>X>X>X=X=X=X>X=X%X%X%X=X>X>X>X>X>X,X=X:X>X>X>X>X2X2X=X=X=X=X=X=X=X2X=X2X=X2X=X=X=X*X=X=X>X>X>X>X>X>X2X2X>X#X>X>X2X2X2X>X",
"=X2X>X2X>X>X2X2X>X=X>X=X=X=X=X=X>X>X>X>X>X>X>X>X#X>X>X>X=X=X=X=X=X2X=X=X=X=X=X=X=X2X=X=X=X=X>X>X2X2X2X>X2X>X>X>X=X#X>X>X2X>X2X>X",
"2X>X>X>X>X=X2X2X2X2X>X>X=X=X>X>X>X>X>X>X>X>X>X>X#X>X>X>X=X=X=X=X2X=X*X*X*X*X=X*X=X2X>X=X>X=X>X>X>X2X2X2X2X>X>X>X=X#X>X>X>X>X>X>X"
};
