/* XPM */
static char *result[] = {
/* columns rows colors chars-per-pixel */
"64 64 215 2 ",
"   c #01090B",
".  c #080D0F",
"X  c #1A0F0E",
"o  c #0E110E",
"O  c #020D11",
"+  c #0B0F10",
"@  c #011214",
"#  c #0B1313",
"$  c #0E1817",
"%  c #0A151B",
"&  c #111614",
"*  c #1A1413",
"=  c #151916",
"-  c #1A1A16",
";  c #151B1C",
":  c #1A1E1D",
">  c #251815",
",  c #301D19",
"<  c #15201D",
"1  c #18221F",
"2  c #23221C",
"3  c #2A241B",
"4  c #2D281E",
"5  c #32291D",
"6  c #3B2D1E",
"7  c #3E301F",
"8  c #1A1F20",
"9  c #141D2C",
"0  c #1B2121",
"q  c #1B2929",
"w  c #12302C",
"e  c #242523",
"r  c #272825",
"t  c #24252C",
"y  c #212D29",
"u  c #2B2C2D",
"i  c #352D24",
"p  c #392E22",
"a  c #322E2B",
"s  c #22342E",
"d  c #3D3023",
"f  c #3B372D",
"g  c #3C342C",
"h  c #262835",
"j  c #2C2C32",
"k  c #312F32",
"l  c #322E3C",
"z  c #2B3630",
"x  c #2C3932",
"c  c #343235",
"v  c #3A3536",
"b  c #3A3B35",
"n  c #35323D",
"m  c #3A3639",
"M  c #3D3A3C",
"N  c #411C15",
"B  c #51231B",
"V  c #4A341F",
"C  c #69251A",
"Z  c #77281C",
"A  c #412B2A",
"S  c #453523",
"D  c #493625",
"F  c #4C3926",
"G  c #453429",
"H  c #453A2C",
"J  c #4B392A",
"K  c #533B26",
"L  c #5A3B27",
"P  c #533E2A",
"I  c #5A3F29",
"U  c #403D3F",
"Y  c #5D393D",
"T  c #622D24",
"R  c #64372B",
"E  c #7B3426",
"W  c #64393C",
"Q  c #36443B",
"!  c #3B443E",
"~  c #42402F",
"^  c #57412B",
"/  c #5B422C",
"(  c #584234",
")  c #62452B",
"_  c #69472C",
"`  c #6C4B2E",
"'  c #70482B",
"]  c #6C4D32",
"[  c #714B34",
"{  c #765235",
"}  c #7C5333",
"|  c #79573A",
" . c #2F3343",
".. c #363241",
"X. c #3A3442",
"o. c #363A46",
"O. c #3E3945",
"+. c #443E45",
"@. c #443E48",
"#. c #543F43",
"$. c #384841",
"%. c #3D4C42",
"&. c #3D564A",
"*. c #464244",
"=. c #4A4346",
"-. c #434B42",
";. c #45444A",
":. c #4D4649",
">. c #444A4D",
",. c #4E494A",
"<. c #5A4645",
"1. c #51474A",
"2. c #524A4D",
"3. c #5C4B48",
"4. c #425549",
"5. c #4C554D",
"6. c #445A4C",
"7. c #4A5A4D",
"8. c #52524F",
"9. c #59574D",
"0. c #554E50",
"q. c #475755",
"w. c #4D5C54",
"e. c #545451",
"r. c #5B5656",
"t. c #555B54",
"y. c #595D56",
"u. c #515E5A",
"i. c #6D4F48",
"p. c #635444",
"a. c #63524A",
"s. c #4E6051",
"d. c #536556",
"f. c #55635A",
"g. c #546759",
"h. c #5B655A",
"j. c #5C6C5D",
"k. c #5E715F",
"l. c #61665D",
"z. c #65695A",
"x. c #776855",
"c. c #68725D",
"v. c #566F60",
"b. c #577362",
"n. c #5F7260",
"m. c #617562",
"M. c #657965",
"N. c #6A7C67",
"B. c #677E68",
"V. c #6A7D68",
"C. c #832D1D",
"Z. c #833526",
"A. c #933020",
"S. c #B13B26",
"D. c #C63E27",
"F. c #89443C",
"G. c #9C4437",
"H. c #835834",
"J. c #8A5B35",
"K. c #865C3B",
"L. c #8D5E3A",
"P. c #925B38",
"I. c #AB4636",
"U. c #AF4934",
"Y. c #8E613C",
"T. c #946137",
"R. c #93633D",
"E. c #99653C",
"W. c #9C683F",
"Q. c #A2693E",
"!. c #AA6D3E",
"~. c #B2713F",
"^. c #CC432A",
"/. c #DA482D",
"(. c #C24730",
"). c #CD4D35",
"_. c #D84B31",
"`. c #D55439",
"'. c #E54C2F",
"]. c #895E48",
"[. c #935344",
"{. c #A65B45",
"}. c #BF5940",
"|. c #946641",
" X c #9E6A42",
".X c #92664F",
"XX c #986748",
"oX c #A36D42",
"OX c #A96E43",
"+X c #A46A4B",
"@X c #AD684F",
"#X c #A77045",
"$X c #AB7145",
"%X c #AE7549",
"&X c #B47544",
"*X c #B97642",
"=X c #BD7A45",
"-X c #B27648",
";X c #B6794A",
":X c #BE7B49",
">X c #8E7860",
",X c #C07C47",
"<X c #C27E4B",
"1X c #CA7F49",
"2X c #7A816B",
"3X c #C5814D",
"4X c #DA874A",
"5X c #C68451",
"6X c #E28B4B",
"7X c #EA8F4D",
"8X c #F5954F",
"9X c #E88F50",
"0X c #FE9C52",
"qX c #FFA555",
"wX c #FFAD59",
/* pixels */
"3X3X3X=X3X3X3X3X3X3X3X3X3X3X3X3X3X3X3X3X3X3X3X3X3X3X3X3X3X3X3X3X3X3X3X3X3X3X3X3X=X3X3X3X3X3X5X3X3X3X<X=X:X:X*X<X5X5X5X5X5X3X3X3X",
"5X3X3X=X<X3X3X3X3X3X5X5X5X3X3X3X3X3X5X5X5X5X<X1X3X3X3X3X3X3X3X3X3X3X3X3X3X3X3X3X=X,X3X3X3X3X3X3X3X3X3X<X<X<X<X<X5X5X5X5X5X3X3X3X",
"5X5X3X=X3X3X3X3X3X3X5X5X5X3X3X3X3X5X5X5X5X5X5X5X3X3X3X3X3X3X5X3X3X3X3X3X3X5X3X3X=X3X3X3X3X3X3X3X3X3X3X3X3X5X5X3X5X5X1X3X3X3X3X5X",
"3X3X3X=X<X3X3X<X3X3X3X3X3X3X3X3X<X3X3X<X<X<X3X5X5X5X5X5X5X5X5X3X3X3X3X3X3X5X5X5X=X3X3X3X3X3X3X3X3X3X5X5X5X5X5X5X5X5X5X<X3X<X5X<X",
"3X:X:X=X3X3X3X<X,X,X<X5X5X5X5X3X3X3X<X<X<X:X<X3X3X3X3X3X3X3X5X3X3X3X1X3X3X3X3X3X=X3X3X5X5X5X5X3X3X3X3X3X3X3X<X:X:X<X<X,X,X1X3X3X",
"3X<X<X=X3X3X3X<X,X<X<X5X5X5X5X3X<X3X5X<X<X<X<X5X5X3X<X<X<X<X<X<X3X3X3X5X3X5X3X5X=X<X3X5X5X5X5X3X3X3X3X3X3X3X<X<X<X<X<X<X<X5X3X3X",
"5X5X5X=X<X3X3X3X1X5X<X<X<X<X3X3X<X5X5X5X5X5X5X3X3X3X<X,X<X,X<X3X3X3X3X5X5X5X5X5X=X<X3X3X3X3X3X3X3X3X3X3X<X<X3X3X<X<X3X5X5X5X3X3X",
"3X3X3X=X<X3X5X5X5X5X<X,X,X,X3X3X5X<X5X<X:X:X:X<X,X<X3X3X3X3X<X<X3X3X3X3X5X3X3X3X=X1X3X3X3X3X3X<X3X3X:X=X:X:X<X3X5X<X3X5X3X5X<X3X",
"=X<X=X*X=X=X=X<X<X:X=X=X*X=X=X=X=X,X,X=X=X=X=X*X*X=X=X=X=X<X,X=X,X,X=X,X,X,X,X,X*X=X,X,X<X,X,X,X,X,X=X=X=X=X=X,X,X*X,X=X,X,X,X=X",
"=X=X=X*X=X:X<X<X:X:X:X<X<X:X:X=X=X=X=X=X=X=X=X=X*X=X=X=X=X=X=X=X=X,X=X=X=X=X=X=X*X*X*X=X*X*X*X=X=X=X=X=X=X=X=X=X,X*X,X=X=X=X=X=X",
"3X3X<X3X5X5X5X5X5X5X5X5X5X5X5X5X3X3X3X3X3X3X3X<X=X3X3X3X3X3X3X3X3X1X3X3X3X3X3X3X<X<X<X=X<X:X<X<X3X3X3X3X3X<X3X3X<X*X<X1X3X3X3X3X",
"3X<X<X<X3X3X3X3X3X3X5X3X5X3X3X3X3X3X3X3X3X3X3X<X=X3X3X3X3X3X3X3X3X3X3X3X3X3X3X3X<X<X<X<X<X<X<X<X3X3X3X3X3X3X3X3X<X*X5X3X5X5X5X5X",
"<X<X<X<X<X5X3X5X3X5X3X<X3X3X3X<X3X3X3X<X3X3X3X<X=X3X3X3X<X<X<X:X#XW.E.R.E.E.R.E.oX;X3X3X<X<X<X<X3X3X5X3X5X3X3X3X<X*X3X3X5X3X5X3X",
"3X3X3X<X<X<X<X5X5X5X3X<X3X3X3X3X3X3X3X3X3X3X3X<X*X3X3X3X=X<X<X$X} K S D K F S F _ E.3X3X<X<X,X<X<X5X5X5X3X3X3X3X<X=X3X3X3X3X3X3X",
"3X3X3X,X:X:X<X<X3X3X<X<X=X<X<X3X3X<X5X5X5X5X5X3X=X3X3X<X3X3X3XR.F - # # = = # # i } ;X3X<X3X3X3X3X3X3X3X3X3X3X3X,X=X3X3X3X3X3X3X",
"3X5X5X3X5X<X<X3X3X3X<X<X<X<X<X3X<X3X3X;X#XoXoXQ.T.oXQ.oX%X-XoX{ d ; 0 1 ; : ; 8 e ) XX-X%XoXoX&X<X3X5X5X5X5X5X3X<X*X3X3X5X5X3X3X",
"3X3X5X5X5X3X3X<X:X<X<X<X3X3X3X3X3X3X3XE.] P K K K I I I / ) ^ J a k v k k j k k u H / / ^ ^ _ Y.:X5X5X5X5X5X5X5X<X*X3X3X5X5X5X5X",
"3X3X3X3X3X3X5X<X:X:X:X:X<X3X3X3X5X5X;X| 5 # # = - - - - = X - r v +.:.=.+.#.=.+.M a e - & # 3 ] &X3X3X3X3X<X3X3X<X=X3X3X3X3X3X3X",
"3X3X3X3X3X5X5X3X5X5X3X3X3X3X3X3X<X;XR./ 1 0 1 1 0 1 1 1 < ; 1 u U 1.0.0.8.e.r.e.=.z ; # # ; : P Y.&X3X3X3X3X3X3X<X=X3X3X3X3X3X3X",
"<X,X=X=X,X<X<X<X3X:X3X,X:X,X,X=XE.' P f Q ! ! ! Q Q Q Q Q Q Q ! *.1.2.r.y.h.l.l.5.z # # 0 c c g ^ ` P.;X,X,X,X,X=X*X,X,X,X,X,X,X",
"=X=X=X~.=X=X=X=X,X=X=X=X=X=X=XOX' 3 < x 7.g.j.d.d.d.d.d.d.g.d.e.,.:.2.t.j.m.M.m.w.x $ # t U +.k 1 3 ) Q.=X=X=X=X*X*X=X=X,X=X=X=X",
"3X3X3X=X<X3X3X3X<X3X3X<X3X<X=XT.V < q &.j.B.2XB.m.m.M.M.M.B.m.j.t.,.8.h.m.m.M.m.t.x < ; u +.#.c 0 & S L.&X3X=X=X=X=X=X:X3X<X3X3X",
"3X3X3X=X<X3X3X<X5X3X3X3X:XW.} ^ f x Q d.k.2XM.m.M.M.M.M.M.B.M.j.f.e.f.j.n.m.c.h.5.M u r u a k z k r g / | E.%X3X<X<X<X3X5X5X3X3X",
"3X3X3X*X3X3X3X3X<X<X<X<X$X_ 4 e Q 7.g.k.k.n.m.k.m.m.n.c.m.m.m.m.j.j.j.c.n.j.f.8.2.=.+.m t ; ; r M U c e 5 / W.3X3X5X3X<X3X3X5X3X",
"3X3X3X~.<X3X3X3X<X:X:X*XL.G & q ! j.2Xk.n.n.n.n.n.n.n.n.k.k.m.n.m.m.n.m.m.j.8.,.:.1.0.=.z ; ; u =.:.M 0 # S |.5X5X5X<X<X<X<X<X<X",
"3X3X3X*X<X3X3X3X3X&XW.| ) p e m 7.k.2X2Xn.c.n.n.n.n.m.n.m.b.k.n.k.m.m.m.m.j.8.=.=.e.t.e.-.x x M 2.:.M 0 # d Y.5X3X3X<X<X<X<X1X5X",
"5X5X3X~.3X3X3X3X3XoX_ p r u m :.s.b.b.k.m.n.k.n.k.m.k.k.n.c.k.m.m.m.m.m.k.h.8.=.,.e.h.j.d.s.7.8.2.=.c 8 # S R.:X<X5X1X5X3X5X3X3X",
"5X5X3X=X,X3X3X3X3X|.S # 0 c =.e.d.s.2Xk.k.k.m.k.k.k.k.m.k.m.k.k.k.k.n.m.n.j.e.,.2.t.k.m.M.m.m.h.e.=.c 8 # S Y.:X<X<X<X3X<X<X3X3X",
"3X3X3X~.3X3X3X3X3XY.5 # 0 m 1.r.j.k.M.n.n.n.k.m.m.k.m.k.k.m.n.n.k.k.k.m.n.j.f.9.e.h.n.M.M.N.M.l.e.=.k 8 & D |.5X5X5X<X:X<X<X<X3X",
"3X3X3X=X3X3X3X3X5XY.d # 0 m :.r.j.k.n.n.n.n.n.n.k.n.n.n.k.k.n.k.m.m.n.k.m.j.j.h.j.j.n.m.M.M.m.h.e.+.k 8 = D R.3X5X3X3X<X<X<X3X3X",
",X,X,X*X,X,X,X3X3XR.D = 0 c *.8.h.j.k.n.n.n.k.n.m.n.k.m.m.n.n.k.k.k.k.n.n.n.n.n.n.n.n.m.m.n.j.h.0.=.k 8 & S Y.<X,X,X<X,X,X<X<X<X",
"=X=X=X*X=X=X=X=X=XE.` S i a v *.5.d.j.n.m.M.M.m.m.m.n.b.n.n.m.m.m.m.m.m.n.m.m.m.m.m.m.n.j.j.h.t.2.=.c 8 & V J.=X*X*X=X=X=X=X=X=X",
"<X3X<X3X3X<X3X<X<X=XoXY.] H e u M >.r.v.m.B.V.M.M.M.b.b.b.n.M.m.m.m.m.m.m.m.m.m.m.M.n.k.h.t.2.0.2.=.c 0 # D R.3X<X*X3X3X3X,X3X3X",
"3X3X3X3X3X3X3X3X3X5X<X<XR.F - ; z +.0.y.j.m.m.n.n.m.m.l.n.n.n.n.n.k.k.k.n.n.n.n.n.n.n.k.t.,.:.1.,.=.c 0 = D R.3X3X*X3X3X3X3X3X3X",
"3X3X5X3X3X3X<X<X<X3X1X=XOXL o = g W i.a.5.7.6.4.q.y.x.x.x.l.u.l.g.h.j.j.j.g.j.h.j.j.j.y.e.,.=.1.2.=.c 0 $ D R.3X<X*X3X3X3X1X3X3X",
"3X5X5X5X5X<X:X=X<X<X3X<X$XI o > R A.G.[ b s w w s ( [.{.[.3.>.>.5.e.e.e.8.e.e.e.e.e.e.e.8.:.:.:.,.*.c 0 = D R.3X<X~.3X3X3X3X3X3X",
"3X3X3X3X3X3X<X3X<X5X5X5XQ.^ $ , Z.(.(.E > @ O @ = T U.^.I.Y X.o.*.:.,.1.,.:.,.,.:.:.:.:.:.:.:.2.2.=.c 0 $ D T.5X3X~.3X3X3X3X5X5X",
"3X5X3X3X3X3X3X3X3X<X;XoX} ~ q S G._.^.Z >   O * N C.D./.S.#. . .O.=.:.:.:.=.=.=.:.:.:.:.=.:.:.1.,.=.c 0 & D R.5X3X~.3X3X3X3X5X3X",
"5X5X3X3X3X5X3X5X3X$X| / Q Q %.p.U.'.D.Z X   X C A.S.'./.S.#. ...O.=.:.:.=.:.:.=.:.=.:.:.:.:.1.2.2.=.c 8 $ J |.3X3X~.3X3X3X3X3X3X",
"3X3X3X3X5X5X5X5X5XR.F > q $.g.c.@X`.S.Z * o B S./.'.'./.S.Y ..o.$.,.1.:.:.:.:.1.:.:.:.:.:.:.:.2.0.*.c 8 & D R.3X3X~.3X3X3X3X3X3X",
"3X3X3X3X3X3X3X3X3XY.6 # q &.b.>X@X}.I.R r y R U.`.`.).S.F.#.X.o.@.:.1.:.:.:.:.:.:.:.:.:.,.:.:.2.2.=.m 0 # S T.3X3X=X3X3X3X3X3X3X",
"3X3X3X3X=X3X<X3X<XJ.5 # y 6.M.2X>X.X].p.-.~ 9..X+X{.[.[.W #.@.@.=.:.:.:.,.:.:.:.:.:.,.:.:.:.,.2.0.:.m 0 # d Y.3X,X=X3X,X,X3X,X,X",
"*X*X=X*X=X*X*X=X=XJ.6 # y 4.k.V.V.N.z.l.g.j.c.m.c.l.3.<.#.#.;.;.:.:.:.:.:.:.:.:.:.:.:.:.:.:.:.2.2.:.c 0 # 7 J.=X~.~.,X=X,X~.=X=X",
"3X3X,X=X,X3X3X3X5XE.^ 3 r Q s.j.n.b.n.n.n.n.n.n.v.u.>.;.:.:.2.:.:.:.:.:.:.:.:.:.:.:.:.:.:.:.:.:.=.O.a 1 3 ^ R.<X3X3X3X3X3X,X3X3X",
"3X3X3X=X3X3X3X3X3X-XY.] ^ b Q %.q.f.f.f.f.u.q.q.q.q.>.>.:.,.1.1.2.:.,.:.1.:.:.:.,.:.,.1.1.2.,.*.b u a ^ [ |.%X3X3X3X3X3X3X3X3X3X",
"3X3X3X=X3X3X3X3X<X3X:X-XK.G ; y M 2.e.,.>.>.>.>.>.:.=.:.:.1.1.1.:.:.:.:.:.,.1.:.:.,.:.1.2.8.:.m 0 ; G K.;X<X5X3X3X3X<X<X3X3X3X3X",
"3X3X3X&X<X3X3X<X:X:X=X3X#X/ > ; y M #.1.3.3.3.3.3.2.1.;.:.;.:.@.:.:.=.=.:.=.:.=.:.:.=.=.1.=.U r : 3 / #X3X5X3X<X<X3X<X=X,X,X3X3X",
"3X3X3X~.<X3X3X<X<X<X<X3X=XT._ D a u U p.]..X+X+XXXi.1.@.@.@.@.@.@.@.+.+.@.+.+.+.+.@.@.+.M c a g ^ ` E.=X*X<X<X<X<X3X,X,X1X,X3X3X",
"3X5X3X~.,X3X3X3X3X3X3X<X<X=XOXK.J : i { *X4X9X6X5XXX3.X. .X.O.X...+.X.X.+.X.+.X.X.O.+.n j 0 > P Y.;X3X3X:X<X<X<X<X5X3X3X3X5X3X3X",
"3X3X3X3X3X3X3X3X3X3X,X,X=X:X<XOXL & 3 H.4X0XqX0X7X#X<...h  .............l ..l X.X.X.X.l t ; : R  X5X5X5X5X5X5X5X5X<X3X3X3X5X5X3X",
"5X5X3X~.3X3X3X3X3X3X3X,X<X<X3X$XL . 3 J.6XqXwXqX8XOXY 0 9 t h j l X.X.X...............l h 0 e G ] Y.$X;X3X<X<X:X<X5X3X<X3X5X3X3X",
"5X3X5X=X3X3X3X3X3X3X3X3X<X<X<XoXK . 4 J.6XqXwXwX8XoXJ % @ % ; t l X.+.X.......n ..X.......l j t r S { $X<X<X<X:X<X<X3X3X3X3X3X3X",
"3X3X3X=X3X3X3X3X<X<X<X<X<X,X=XoXI - 4 } 1X8X0X8X4XP.S + . . # 0 h ....+.X.X...X.......X.X.X...t : = F E.3X3X3X3X1X3X,X3X<X<X3X<X",
",X~.~.~.,X~.,X~.=X=X=X=X=X*X*X!.} K F ` P.!.&X!.P.H./ S V V S d i h h l n X.X...X.....X.X.@...h ; # D T.=X*X*X=X*X~.=X=X=X=X=X=X",
"3X3X3X,X3X=X=X=X=X=X<X<X<X<X<X:X$XW.K._ K D K J K _ H.R.W.Q.T.] A 8 t h X.X.X...X.....X.@.X.n h ; $ F E.,X=X=X:X,X*X<X<X<X<X,X<X",
"3X3X3X3X3X3X,X1X<X3X5X3X5X3X3X3X3X3X%X_ 2 # # # = P  X3X3X3X3XY.A + 8 j ..X.X.X...X...X.X.X.n t ; ; K W.3X3X:X3X3X=X3X<X<X<X3X3X",
"5X1X5X5X5X5X3X3X<X3X5X5X5X5X5X5X<X3X;X] - O O O # P #X5X5X5X3XR.V . 8 h n X.X...X.X.X.X.O.X.n t ; = P E.3X5X5X5X3X=X3X:X:X:X3X3X",
"<X5X<X<X3X3X3X3X3X3X3X3X3X5X3X3X3X3X5X5X5X5X3X<X,X3X5X3X3X3X3X3X5X5X5X5X3X3X3X3X<X<X<X1X5X<X5X<X3X<X:X:X<X5X3X3X3X~.3X3X5X5X5X5X",
"5X<X<X,X<X<X3X5X3X5X5X3X3X3X<X3X3X3X3X3X<X<X<X,X*X3X3X3X3X3X1X3X3X5X3X3X3X3X3X3X<X,X<X<X<X5X5X5X3X3X3X<X<X3X3X3X,X~.<X<X<X3X3X5X",
"5X<X<X,X<X,X<X3X3X5X5X5X3X3X3X3X3X3X3X3X3X<X,X,X*X<X3X3X3X3X3X3X3X<X3X3X3X3X3X3X<X:X<X<X<X<X<X<X3X3X3X3X3X3X3X3X3X~.1X=X<X3X3X3X",
"5X1X<X3X<X3X3X<X<X<X<X3X3X<X3X<X3X3X3X5X5X5X<X<X*X<X5X5X5X3X3X<X<X5X5X<X3X5X5X5X5X3X3X<X<X<X<X<X3X3X3X3X5X5X5X5X<X*X3X3X3X3X3X3X",
"<X5X3X3X1X5X3X<X<X<X3X<X<X:X<X<X3X3X3X3X3X3X3X<X*X<X1X5X5X3X3X5X5X<X5X1X3X3X5X3X3X3X<X<X<X<X<X3X3X3X3X3X3X3X5X5X3X=X3X3X5X5X5X3X",
"3X5X3X3X<X3X5X5X<X3X1X<X<X<X<X<X3X3X3X3X3X3X3X<X,X3X<X3X<X3X<X<X1X<X,X<X<X<X<X<X3X3X<X<X<X<X3X3X5X5X3X3X5X3X<X3X<X=X3X3X3X5X5X3X",
"3X3X3X3X5X3X5X5X5X3X5X<X<X3X<X3X3X3X3X3X3X3X3X<X=X3X3X3X3X<X:X<X3X3X<X*X:X:X<X:X<X1X5X<X<X<X3X<X5X5X5X5X5X3X3X3X3X=X3X3X3X3X3X3X"
};
