/* XPM */
static char *result[] = {
/* columns rows colors chars-per-pixel */
"64 64 209 2 ",
"   c #01090B",
".  c #1A0F0E",
"X  c #0E110E",
"o  c #031214",
"O  c #0B1313",
"+  c #0E1817",
"@  c #0F1718",
"#  c #111614",
"$  c #1A1413",
"%  c #131916",
"&  c #1A1A16",
"*  c #151B1B",
"=  c #1A1E1D",
"-  c #241713",
";  c #2B1A14",
":  c #2B1E1A",
">  c #301E19",
",  c #15201D",
"<  c #18221F",
"1  c #23221C",
"2  c #2A241A",
"3  c #32211D",
"4  c #332A1D",
"5  c #3B2D1E",
"6  c #0D1C24",
"7  c #161E23",
"8  c #1A1F21",
"9  c #1C2122",
"0  c #1A2A28",
"q  c #12302C",
"w  c #242523",
"e  c #242824",
"r  c #24252B",
"t  c #212D29",
"y  c #2C2C2D",
"u  c #352C23",
"i  c #392E22",
"p  c #332E2B",
"a  c #22342E",
"s  c #3B3429",
"d  c #2D2D32",
"f  c #2C2C38",
"g  c #312F32",
"h  c #312E3B",
"j  c #2B3630",
"k  c #2C3932",
"l  c #333234",
"z  c #3A3435",
"x  c #323D36",
"c  c #3A3B35",
"v  c #34323C",
"b  c #39353A",
"n  c #3C3A3C",
"m  c #411C15",
"M  c #45251D",
"N  c #48291F",
"B  c #51231B",
"V  c #69251A",
"C  c #77281C",
"Z  c #412B2A",
"A  c #463524",
"S  c #493624",
"D  c #4B3926",
"F  c #48322A",
"G  c #453A2C",
"H  c #4D3B2A",
"J  c #533B26",
"K  c #583A25",
"L  c #523E2A",
"P  c #5A3F29",
"I  c #403C3F",
"U  c #5D393D",
"Y  c #622D24",
"T  c #792F20",
"R  c #673628",
"E  c #743324",
"W  c #7E3223",
"Q  c #63393B",
"!  c #36443B",
"~  c #3B443E",
"^  c #42402F",
"/  c #55422F",
"(  c #5C432C",
")  c #594332",
"_  c #62442B",
"`  c #6B452A",
"'  c #65482E",
"]  c #6B4B2E",
"[  c #70482B",
"{  c #6D4D33",
"}  c #774338",
"|  c #775537",
" . c #7B5434",
".. c #2F3343",
"X. c #363241",
"o. c #3A3543",
"O. c #363A46",
"+. c #3E3943",
"@. c #433E45",
"#. c #433C48",
"$. c #543F43",
"%. c #384841",
"&. c #3D4C42",
"*. c #3D564A",
"=. c #464145",
"-. c #4A4346",
";. c #45454A",
":. c #4D4649",
">. c #444B4D",
",. c #4E494B",
"<. c #524244",
"1. c #50474B",
"2. c #5B4748",
"3. c #524A4D",
"4. c #425549",
"5. c #4C554D",
"6. c #445A4C",
"7. c #4A594E",
"8. c #52524F",
"9. c #59574D",
"0. c #554E50",
"q. c #4D5A54",
"w. c #545451",
"e. c #5B5655",
"r. c #555B54",
"t. c #595D56",
"y. c #505F58",
"u. c #624C4A",
"i. c #704A46",
"p. c #635444",
"a. c #63524A",
"s. c #4E6051",
"d. c #536556",
"f. c #556759",
"g. c #55645A",
"h. c #5B655A",
"j. c #5C6C5D",
"k. c #5E715F",
"l. c #61665D",
"z. c #65695A",
"x. c #776855",
"c. c #68725D",
"v. c #566F60",
"b. c #567563",
"n. c #5F7260",
"m. c #617562",
"M. c #657965",
"N. c #6A7C67",
"B. c #677E68",
"V. c #6A7D68",
"C. c #7F7C65",
"Z. c #832D1D",
"A. c #853626",
"S. c #973827",
"D. c #B13B26",
"F. c #C63E27",
"G. c #98412E",
"H. c #9C4437",
"J. c #8B5C36",
"K. c #855A38",
"L. c #8D5E3A",
"P. c #92583B",
"I. c #B9432D",
"U. c #AB4333",
"Y. c #AA4A37",
"T. c #AF4934",
"R. c #8E613C",
"E. c #97643B",
"W. c #94643D",
"Q. c #99653D",
"!. c #A86D3E",
"~. c #C9452D",
"^. c #D7482D",
"/. c #C24730",
"(. c #CE4C33",
"). c #C84D38",
"_. c #D24C35",
"`. c #DA4C32",
"'. c #D55439",
"]. c #E54C2F",
"[. c #E64F33",
"{. c #F55234",
"}. c #FF5636",
"|. c #934B41",
" X c #895E49",
".X c #935344",
"XX c #A65B45",
"oX c #BF5940",
"OX c #946641",
"+X c #996740",
"@X c #9D6A42",
"#X c #92664F",
"$X c #A36D42",
"%X c #A86E42",
"&X c #AD684F",
"*X c #AB7144",
"=X c #AE7549",
"-X c #B47544",
";X c #B97642",
":X c #BD7A45",
">X c #B37648",
",X c #B57849",
"<X c #BE7B49",
"1X c #8E7860",
"2X c #C07C47",
"3X c #C27E4B",
"4X c #7A816B",
"5X c #C5814D",
"6X c #C68451",
/* pixels */
"5X5X5X:X5X5X5X5X5X5X5X5X5X5X5X5X5X5X5X5X5X5X5X5X5X5X5X5X5X5X5X5X5X5X5X5X5X5X5X5X2X3X5X5X5X5X6X5X5X5X3X:X3X2X<X3X3X6X6X6X6X6X3X6X",
"6X5X5X:X3X5X5X5X5X5X6X6X6X5X5X5X5X5X6X6X6X5X5X5X5X3X5X5X5X5X5X5X5X5X5X5X5X5X5X5X:X3X5X5X5X5X5X5X5X5X5X3X3X2X3X3X6X3X6X6X6X3X3X6X",
"6X6X5X:X5X5X5X5X5X5X6X6X6X5X5X5X3X6X6X6X6X6X5X5X6X5X5X5X6X5X5X5X5X5X5X5X5X6X5X5X2X3X5X5X5X5X5X5X5X5X5X5X6X6X6X3X6X6X3X6X5X3X6X3X",
"5X5X5X:X3X5X5X3X5X5X5X5X5X5X5X5X5X5X6X3X5X5X5X6X6X6X6X6X6X6X6X5X5X5X5X5X5X6X6X6X2X3X5X5X5X5X5X5X5X6X6X6X6X6X6X6X6X6X6X3X5X6X5X5X",
"5X<X<X:X3X5X5X3X2X2X3X6X6X6X6X5X3X5X3X2X<X<X3X5X5X5X5X5X5X5X6X5X5X5X5X5X5X5X5X5X2X2X5X6X6X6X6X6X5X5X5X5X6X5X3X3X3X3X3X3X3X5X3X5X",
"5X3X5X:X5X5X5X3X3X3X5X6X6X6X6X5X5X5X6X3X6X3X5X5X5X5X5X3X3X3X3X3X5X5X5X5X5X6X5X6X:X3X5X6X5X6X6X5X5X3X3X5X5X5X3X3X3X3X3X3X3X5X5X5X",
"6X6X6X:X3X5X5X5X3X6X3X3X3X3X5X5X3X6X6X6X6X6X6X6X5X3X5X:X3X2X2X5X5X5X5X6X6X6X6X6X2X3X5X5X5X5X5X5X5X5X5X3X3X3X3X5X3X3X5X6X6X6X5X5X",
"5X5X5X:X3X5X6X6X6X3X2X2X2X2X5X5X5X5X5X3X<X<X<X<X3X3X5X5X3X5X3X5X5X5X5X5X6X5X5X5X2X3X5X5X5X5X3X3X5X5X3X2X2X2X3X5X5X3X5X5X5X5X5X5X",
"2X2X<X;X:X<X2X3X3X2X:X:X;X:X:X<X<X:X2X:X:X:X;X:X;X:X:X:X<X:X:X<X2X2X2X2X2X2X:X2X;X:X2X2X2X<X2X:X2X2X2X2X2X;X2X2X3X2X2X2X2X2X2X2X",
":X:X:X:X:X<X3X2X2X3X3X2X2X<X<X<X:X:X:X:X:X:X:X:X;X2X:X:X:X:X:X:X2X2X:X:X:X2X:X2X;X;X;X:X;X:X:X:X;X2X2X2X2X2X2X2X2X;X2X2X2X2X2X;X",
"3X5X3X3X6X6X6X6X6X6X6X6X6X6X6X5X5X3X5X5X5X5X5X2X:X5X5X5X5X5X5X5X5X5X3X3X5X5X5X3X2X3X2X<X3X<X3X3X2X5X5X3X3X2X5X5X2X2X2X3X5X5X3X3X",
"3X3X3X2X3X6X6X5X6X3X6X6X6X5X5X5X5X5X5X5X5X5X5X5X:X5X5X5X5X5X5X5X5X5X5X5X5X5X5X3X3X3X3X3X3X3X3X3X5X5X5X5X5X3X5X5X2X2X3X3X6X6X6X6X",
"5X3X3X3X3X3X6X6X6X6X3X3X5X5X5X5X5X5X3X5X5X5X5X3X:X5X5X5X3X3X3X<X*XQ.Q.W.Q.Q.E.Q.$X,X6X3X3X3X3X3X3X6X6X6X5X5X5X5X3X!.5X5X5X6X5X6X",
"5X5X5X3X3X3X3X6X6X6X6X3X3X5X3X5X6X5X5X5X5X5X5X3X;X5X5X5X2X<X5X*X .P S S J D A D ] +X3X6X3X3X2X<X5X6X6X6X6X5X5X5X3X2X5X5X5X5X3X5X",
"5X3X3X2X2X3X2X3X3X5X3X3X2X2X3X5X5X<X6X6X6X6X6X<X;X5X5X5X3X5X5XE.D & O O % O O O u  .<X3X3X3X5X5X5X5X3X5X5X5X5X5X3X2X5X5X5X5X5X5X",
"5X6X6X6X6X3X3X5X5X5X3X3X3X3X5X5X5X3X5X,X*X$X$X!.E.$X@X!.*X>X$X| i = < = = = 8 8 w _ OX=X>X$X%X,X3X5X6X6X6X6X5X5X2X:X3X6X6X6X6X5X",
"5X6X6X6X6X5X5X3X3X3X3X3X3X5X5X5X6X5X6XW.{ J J J K P P P ( R ( G p g z l g g z g y G ) _ ( J ' W.2X5X6X6X6X6X6X6X3X:X5X5X6X6X6X5X",
"5X5X5X5X5X5X3X3X<X<X<X<X3X5X5X3X6X6X,X| 4 O O $ & % & & & % & w z =.:.-.@.@.-.@.n p 1 & O # 2 ] -X5X5X5X5X5X3X6X3X2X5X5X5X5X5X5X",
"5X5X5X3X5X6X6X6X6X6X6X5X5X5X5X5X3X,XW.) < 9 9 < 9 < < < , , , y n 1.0.0.3.w.e.0.-.j * o # = = / W.;X5X5X3X5X3X3X3X:X3X5X5X5X5X5X",
"3X2X2X2X2X3X3X3X3X3X3X2X2X2X2X:XE.[ L G ! ~ %.! ! ! ! ! ! ! ! ~ -.1.3.e.t.l.l.l.5.j + O 9 y g z H ] P.:X2X2X3X2X:X;X2X2X2X2X2X2X",
"2X2X2X!.2X:X:X:X2X:X:X:X:X:X:X!.` 2 , k 7.f.j.d.d.d.d.d.f.d.d.r.,.:.3.t.j.m.M.n.q.j O O r I @.p < 2 _ !.:X:X<X:X;X;X:X:X2X2X2X:X",
"5X5X5X:X3X5X5X3X5X5X3X5X5X3X:XW.J , 0 *.j.B.4XB.n.M.M.M.M.M.M.h.r.,.8.g.n.M.M.m.y.x , * y @.-.z w % A L.,X2X2X2X<X2X:X2X3X5X3X3X",
"5X5X5X:X3X5X5X5X5X5X5X5X<XQ. ./ s j ! d.k.4XM.m.M.M.M.M.M.M.M.j.t.r.d.j.m.n.n.h.w.^ y e y p j y d y s ( | L.>X3X3X3X3X5X6X6X5X5X",
"5X5X5X:X3X5X5X5X3X3X3X3X*X] 4 1 ! 6.f.k.k.n.m.k.c.m.m.m.m.m.m.n.j.j.j.c.m.v.t.w.,.-.@.b r * * y n I j w 4 _ @X3X6X3X5X3X5X5X6X5X",
"5X5X5X!.2X5X5X5X3X2X2X;XL.F # 0 ~ j.4Xk.m.n.n.m.k.m.k.k.n.n.k.n.n.m.m.m.n.j.w.:.:.1.3.-.y = * y -.,.b 9 O A W.6X6X6X3X3X3X3X3X3X",
"5X5X5X:X5X5X5X5X5X:X+XK.( i w b 7.c.4X4Xn.n.n.k.n.k.k.m.n.n.n.n.m.n.m.m.m.j.8.-.:.w.e.r.&.k j ~ ,.1.b w O s R.5X6X3X3X3X3X3X3X6X",
"6X6X5X;X2X5X5X5X3X@X' i w p n ;.s.k.b.b.n.n.n.n.n.n.k.m.n.n.n.c.n.n.m.m.n.h.8.-.,.w.j.j.f.s.7.8.3.:.l = O A R.2X3X3X6X6X5X5X5X5X",
"6X6X5X!.2X5X5X5X3XOXA O < l -.e.d.k.k.k.n.n.n.n.n.c.n.k.n.n.n.n.n.n.m.n.n.j.w.,.,.t.j.n.m.m.m.h.w.-.l < O A R.3X3X3X3X5X3X3X5X5X",
"5X5X5X;X2X5X5X5X6XL.5 O 9 b 1.e.j.k.n.n.n.n.c.n.n.n.n.m.n.n.n.n.m.n.k.m.n.j.g.8.r.g.c.M.B.V.m.l.w.-.g 8 # S W.6X6X6X3X2X3X3X3X5X",
"5X5X3X:X3X5X5X5X6XW.i O 9 b ,.e.j.c.M.n.n.n.n.k.n.n.n.n.n.k.n.k.k.k.n.n.n.k.j.h.j.k.k.n.M.M.m.h.w.@.g = # S W.6X6X6X3X3X3X3X5X5X",
"5X2X2X;X2X2X2X2X3XW.S % 9 l =.3.g.j.m.m.n.n.n.m.n.n.n.n.m.n.n.k.k.m.n.n.n.n.c.k.n.n.n.n.c.n.k.g.0.-.g 8 # A P.3X3X2X2X2X2X2X3X3X",
"2X2X2X;X2X:X2X2X<XQ.] S u p z =.5.r.f.n.m.M.M.m.m.n.b.n.n.n.m.m.k.m.m.m.n.m.m.n.m.m.n.n.n.f.h.e.3.-.l 8 . A E.2X2X!.;X2X2X2X2X3X",
"5X3X5X3X3X3X5X3X3X,X%XL.{ G w y x >.q.j.M.M.N.M.B.n.b.b.b.n.n.M.m.m.m.n.m.m.m.m.n.n.M.c.f.r.8.3.3.-.l < # S W.5X:X:X5X5X5X5X5X2X",
"5X5X5X5X5X5X6X3X5X6X3X2XE.H # = l @.0.g.j.m.M.m.n.n.m.m.n.n.n.n.k.n.k.k.n.k.n.n.c.k.b.k.t.3.:.1.1.:.l 9 + S W.5X5X;X5X5X5X5X5X5X",
"5X5X6X6X5X5X3X3X3X5X3X2X!.K X % Z Q i.a.8.6.6.*.7.e.x.x.x.l.g.g.f.h.j.j.g.j.j.j.h.j.j.h.r.,.-.:.1.-.l 9 # D W.5X<X!.6X5X5X5X5X5X",
"5X6X6X6X6X3X2X2X2X3X5X3X-XP X - Y H.H.} c a q q a ) |.XX.Xu.#.>.5.r.w.w.8.w.w.8.r.9.8.8.,.-.:.1.1.-.l 9 + D W.5X5X-X5X5X5X5X5X5X",
"5X5X5X5X5X5X3X5X6X6X6X6X$X/ X 3 A././.W ; o o o * Y U.(.XXU o.o.=.:.1.1.,.:.:.:.1.1.1.,.:.:.:.3.1.-.l 9 % S W.5X5X!.5X5X5X5X6X6X",
"5X6X5X5X3X3X5X5X6X3X,X$X .G 0 A G._.~.C -     . m Z.F.^.D.Q X...+.-.:.:.:.:.-.:.-.-.-.-.:.:.:.3.3.-.l 9 # S W.5X5X;X5X5X5X5X6X5X",
"6X6X5X5X6X6X3X6X3X%XK.P ! ! &.p.Y.`.~.C .   . V S.D.].^.U.Q X...+.,.:.:.-.:.:.:.-.:.:.:.:.:.:.3.3.:.l < # D W.6X5X:X5X5X5X5X5X5X",
"5X5X5X5X6X6X6X6X6XQ.J * q %.f.x.&X`.F.V . X B D.^.].].^.S.U X.O.%.,.,.<.:.:.:.:.:.:.:.:.:.:.1.1.1.;.l 9 # S W.5X2X;X5X5X5X5X5X5X",
"5X5X5X5X5X5X5X5X5XR.5 O 0 *.n.C.&XoXY.R e e R Y.'.'.).T.A.$.o.O.#.:.:.1.:.:.:.:.:.:.:.:.:.1.:.3.3.-.l 9 O S W.3X5X:X5X5X5X5X5X5X",
"3X5X3X2X5X3X3X5X5XK.4 O t 4.m.4X1X#X Xp.^ 4.9.#XXXXX.X|.i.$.#.#.-.:.:.:.:.:.:.1.:.:.:.:.:.:.1.3.0.,.b 9 O i L.3X2X;X2X2X5X2X2X5X",
"2X:X:X:X:X;X:X:X:XJ.5 O t 4.k.V.V.c.c.z.j.j.c.c.c.z.9.2.$.#.:.:.:.:.:.:.:.:.:.,.,.:.:.:.:.:.1.1.0.:.l 9 O A J.2X:X;X:X:X:X:X2X;X",
"3X3X2X:X2X5X3X5X5XQ.( 2 e ! d.j.n.n.v.n.m.m.n.b.v.y.,.;.:.1.1.1.1.:.:.:.:.:.:.1.:.:.:.:.:.;.,.;.-.I p < 2 P Q.3X2X2X2X5X5X2X5X5X",
"5X5X5X2X5X5X5X5X5X>XR.{ / c ! &.7.y.h.l.h.h.h.h.y.q.>.;.;.,.1.1.1.,.,.1.:.1.1.3.,.,.;.;.>.;.;.+.l p G L { W.>X6X3X6X5X5X5X5X5X5X",
"5X5X5X5X5X5X5X5X3X5X<X>XK.G * t O.,.w.w.w.0.w.0.8.3.1.:.:.,.1.1.,.:.:.1.:.1.1.1.,.:.;.;.>.,.@.v 9 < H  X,X6X3X3X6X5X3X3X2X5X5X5X",
"5X5X5X!.3X5X5X<X<X<X:X5X!._ : # y I -.-.@.@.@.@.@.-.-.-.:.:.-.-.:.-.-.:.:.-.=.@.-.<.2.2.u.u.$.z * % J %X3X3X5X3X3X3X2X2X2X2X5X5X",
"5X5X6X!.3X5X5X5X3X3X3X5X:XR._ F u y g g g p y y y l +.@.@.@.@.@.@.@.@.@.=.n v j z Q } P.|.|.} F = O J !.2X2X3X3X3X5X3X3X2X2X5X5X",
"5X5X5X:X5X5X5X5X5X5X2X3X3X2X*XP.H < = = = * % % * r h X.+.o.o.o.o.o.o.#.+.f 0 7 3 R U.(._.).U.R : # / Q.3X3X3X3X3X3X5X5X5X6X6X3X",
"5X5X5X2X5X5X5X5X5X5X3X3X3X2X3X%X' 2 o O o O o O @ r h X.o.o.o.X.o.X.o.o.o.f 6 o : T ~.[.{.]./.W > # H @X6X6X6X6X6X6X5X3X5X6X6X5X",
"6X6X5X!.2X5X5X5X5X5X3X5X5X3X3X3XE.] A 2 O X O * 7 d v #.#.#.+.+.o.X.o.o.o.f 6 o ; Z.~.{.}.{.^.A.4 o D +X3X3X3X<X3X6X3X6X5X6X5X5X",
"6X6X5X2X5X5X5X5X5X5X5X5X3X3X3X3X5X,XR.J & O 7 r h o.@.$.:.:.-.@.o.X.o.o.o.f 6 o ; W (.{.}.{.(.A.3 o S +X3X3X3X3X3X3X6X3X5X5X5X5X",
"5X5X5X2X2X3X2X2X3X3X3X3X3X:X<X2X3X3X%X' : * r h +.#.:.1.1.1.1.-.#.X.X.o.v f 6 @ 3 E I.^.[.`.I.E : % H Q.5X3X3X3X5X5X5X3X3X3X3X3X",
":X:X2X!.:X:X2X;X:X:X2X:X:X:X:X-X!.E. .J r 8 d X.+.#.#.#.-.-.#.#.o.o.h h f y p S K E A.S.S.S.A.R S J  .!.:X;X:X:X:X!.:X2X2X2X:X:X",
"2X5X2X5X2X2X2X:X:X2X3X3X3X3X2X%X .J u y d f X.X.o.o.+.+.+.#.+.+.o.X.h r 8 u ' R.J.` N M N M N R K.Q.*X<X3X:X:X<X2X;X3X2X3X3X2X3X",
"5X5X5X5X5X5X2X2X3X3X5X6X5X6X6X$XP * * r h o.o.o.X.X.o.X.o.v v o.o.o.h 8 O 4 K.5X,X] < O + O < ( %X3X5X5X5X3X3X3X2X2X5X3X3X3X5X5X",
"5X5X6X6X6X6X5X5X3X5X6X6X6X6X6X$XR # = y v +.+.o.v #.v #.X.o.b @.o.o.h 8 O 5 L.6X3X} < o o o = _ ;X3X3X3X5X6X6X6X2X2X3X3X3X3X3X3X",
"5X5X3X3X5X5X5X5X5X5X5X5X6X5X6X5X5X5X5X5X5X5X5X3X2X3X3X6X3X3X3X5X6X6X6X6X3X5X5X5X3X3X5X5X5X5X5X3X3X3X3X3X3X5X5X5X2X;X3X3X6X6X6X6X",
"5X3X3X2X3X3X3X5X5X6X6X5X5X5X5X3X5X3X5X5X3X5X3X<X2X3X3X6X3X3X5X5X3X6X6X6X5X5X5X3X3X3X3X3X3X5X5X5X6X3X3X3X3X3X5X5X2X2X2X3X6X5X6X6X",
"5X5X2X3X3X3X3X6X6X5X6X6X5X5X5X5X5X5X5X5X5X5X<X:X;X3X3X6X6X3X5X5X6X3X3X3X5X5X5X5X3X3X3X3X5X5X3X5X3X6X5X5X5X6X6X5X5X!.3X3X3X3X5X3X",
"5X5X5X3X3X5X5X3X3X3X3X5X5X3X5X5X5X5X6X6X6X6X3X3X;X2X3X3X6X5X5X5X6X6X3X3X5X6X6X6X6X5X5X3X3X3X3X3X6X5X5X5X6X6X6X6X3X;X5X5X3X5X5X5X",
"5X5X5X6X5X5X5X3X3X3X5X3X2X2X2X3X5X5X5X5X5X6X6X3X;X3X3X3X5X5X5X5X3X3X6X3X5X5X5X6X5X5X3X3X3X3X3X5X3X5X5X5X6X5X5X6X3X2X5X5X5X6X6X5X",
"5X5X5X5X6X3X6X6X6X3X5X3X3X3X3X3X5X5X3X5X3X5X3X3X3X3X3X6X6X3X3X3X3X6X2X3X3X3X3X3X5X5X3X3X3X3X5X5X5X6X6X5X6X5X5X5X3X2X5X5X6X6X6X5X",
"5X6X3X6X6X3X6X6X6X5X5X3X3X3X3X6X5X5X5X5X3X6X3X3X3X6X3X6X3X3X3X3X3X3X<X<X3X2X2X2X5X5X3X5X3X3X5X5X5X6X6X5X6X6X3X5X2X2X5X5X5X5X5X5X"
};
