/* XPM */
static char *result[] = {
/* columns rows colors chars-per-pixel */
"64 64 208 2 ",
"   c #01090B",
".  c #080D0F",
"X  c #1A0F0E",
"o  c #0E110E",
"O  c #020D11",
"+  c #0A0F10",
"@  c #011214",
"#  c #0B1313",
"$  c #0E1817",
"%  c #0A151B",
"&  c #121614",
"*  c #1A1413",
"=  c #151916",
"-  c #191A16",
";  c #151B1C",
":  c #1A1E1C",
">  c #251815",
",  c #301D19",
"<  c #15201D",
"1  c #18221F",
"2  c #23231D",
"3  c #2A251B",
"4  c #2D281E",
"5  c #32281D",
"6  c #3C2C1E",
"7  c #1A1F20",
"8  c #141D2C",
"9  c #1B2121",
"0  c #1B2929",
"q  c #12302C",
"w  c #242523",
"e  c #272825",
"r  c #24252C",
"t  c #212D29",
"y  c #2B2C2D",
"u  c #352C24",
"i  c #382E20",
"p  c #322E2B",
"a  c #22342E",
"s  c #3D3023",
"d  c #3C332B",
"f  c #3B372E",
"g  c #262835",
"h  c #2C2C32",
"j  c #2F2D3B",
"k  c #312F32",
"l  c #322E3C",
"z  c #2B3630",
"x  c #2C3932",
"c  c #343235",
"v  c #3A3536",
"b  c #323D36",
"n  c #3A3B35",
"m  c #35323D",
"M  c #3A3639",
"N  c #3D3A3C",
"B  c #411C15",
"V  c #51231B",
"C  c #4A341F",
"Z  c #69251A",
"A  c #77281C",
"S  c #412B2A",
"D  c #453423",
"F  c #493624",
"G  c #4C3926",
"H  c #453429",
"J  c #443C2D",
"K  c #4B3829",
"L  c #523727",
"P  c #513B26",
"I  c #593C26",
"U  c #533E2A",
"Y  c #593E28",
"T  c #403D3F",
"R  c #5D393D",
"E  c #64372B",
"W  c #64393C",
"Q  c #36443B",
"!  c #3B443E",
"~  c #57412B",
"^  c #5B432C",
"/  c #564037",
"(  c #5B4432",
")  c #62452B",
"_  c #68472C",
"`  c #6D4B2E",
"'  c #714A2E",
"]  c #6C4D32",
"[  c #704A33",
"{  c #765235",
"}  c #7B5332",
"|  c #7B5739",
" . c #2F3343",
".. c #363241",
"X. c #3A3442",
"o. c #363A46",
"O. c #3E3945",
"+. c #443E45",
"@. c #443E48",
"#. c #543F43",
"$. c #384841",
"%. c #3D4C42",
"&. c #3D564A",
"*. c #464244",
"=. c #4A4346",
"-. c #434B42",
";. c #45444A",
":. c #4D4649",
">. c #444A4D",
",. c #4E494A",
"<. c #5A4645",
"1. c #51474A",
"2. c #524A4D",
"3. c #5C4B48",
"4. c #425549",
"5. c #4C554D",
"6. c #445A4C",
"7. c #4A5A4D",
"8. c #52524F",
"9. c #554E50",
"0. c #475755",
"q. c #4D5C54",
"w. c #545451",
"e. c #5B5656",
"r. c #555B54",
"t. c #595D56",
"y. c #515E5A",
"u. c #6D4F48",
"i. c #635444",
"p. c #63524A",
"a. c #4E6051",
"s. c #536556",
"d. c #55635A",
"f. c #546759",
"g. c #5B655A",
"h. c #5C6C5D",
"j. c #5E715F",
"k. c #61665D",
"l. c #65695A",
"z. c #776855",
"x. c #68725D",
"c. c #566F60",
"v. c #577362",
"b. c #5F7260",
"n. c #617562",
"m. c #657965",
"M. c #6A7B67",
"N. c #677E68",
"B. c #7F7C65",
"V. c #832D1D",
"C. c #833526",
"Z. c #933020",
"A. c #B13B26",
"S. c #C63E27",
"D. c #89443C",
"F. c #9C4437",
"G. c #825835",
"H. c #8A5B35",
"J. c #855B3A",
"K. c #8D5E3A",
"L. c #925B38",
"P. c #AF4934",
"I. c #8E613C",
"U. c #97643B",
"Y. c #93633C",
"T. c #9B663D",
"R. c #A36A3E",
"E. c #AA6D3E",
"W. c #B2713F",
"Q. c #DA482D",
"!. c #CD4D35",
"~. c #D84B31",
"^. c #D55439",
"/. c #E54C2F",
"(. c #895E48",
"). c #935344",
"_. c #A65B45",
"`. c #966641",
"'. c #9C6A41",
"]. c #92664F",
"[. c #98674A",
"{. c #A46D42",
"}. c #AA6F43",
"|. c #A46A4B",
" X c #AD684F",
".X c #AC7246",
"XX c #B57544",
"oX c #B97642",
"OX c #BD7A45",
"+X c #B37748",
"@X c #B6794B",
"#X c #BE7B49",
"$X c #8E7860",
"%X c #C07C47",
"&X c #C27E4B",
"*X c #CA7F49",
"=X c #7A816B",
"-X c #BF8050",
";X c #C5814D",
":X c #DA874A",
">X c #C68451",
",X c #E28B4B",
"<X c #EA8F4D",
"1X c #F5954F",
"2X c #E88F50",
"3X c #FE9C52",
"4X c #FFA655",
"5X c #FFAD59",
/* pixels */
";X;X;XOX&X;X;X;X;X;X;X;X;X;X;X;X;X;X;X;X;X;X;X;X;X;X;X;X;X;X;X;X;X;X;X;X;X;X;X;XoX;X;X;X;X;X>X>X;X;X&X%X%X&X#X&X&X>X>X>X>X*X>X&X",
">X;X;XOX&X;X;X;X;X>X>X>X>X;X;X;X;X;X>X>X>X;X;X;X;X&X;X;X;X;X;X;X;X;X;X;X;X;X;X;X%X&X;X;X;X;X;X;X;X;X&X%X&X&X%X&X&X>X>X>X>X>X&X>X",
">X>X;XOX;X;X;X;X;X;X>X>X>X;X;X;X&X>X>X>X>X>X;X;X>X;X;X;X;X>X;X;X;X;X;X;X;X>X;X;X%X%X;X;X;X;X;X;X;X;X;X;X>X>X&X>X>X>X>X&X;X;X>X&X",
";X;X;XOX&X;X;X&X;X;X;X;X;X;X;X;X;X;X>X&X;X;X;X>X>X>X>X>X>X>X>X;X;X;X;X;X;X>X>X>X%X&X;X;X;X;X;X;X;X>X>X>X>X>X>X>X>X>X>X*X;X*X;X>X",
";X#X#XOX;X;X;X&X%X%X&X>X>X>X>X;X&X;X&X%X&X#X&X;X;X;X;X;X>X;X>X;X;X;X;X;X;X;X;X>XoX;X>X>X>X>X>X;X;X;X;X;X;X;X%X&X#X&X&X%X&X&X&X>X",
";X&X&XOX&X;X;X&X&X&X*X>X>X>X>X;X;X;X>X&X&X&X;X;X;X;X&X&X&X&X&X&X;X;X;X;X;X;X>X;X%X&X;X>X>X>X>X>X;X;X;X;X;X;X&X&X&X&X&X;X&X>X;X;X",
">X>X>XOX;X;X;X;X&X>X&X&X&X&X;X;X&X>X>X>X>X>X>X>X;X&X;XOX&X%X%X;X;X;X;X>X>X>X>X>XoX;X;X;X;X;X;X;X;X;X&X&X&X&X;X;X&X&X;X>X>X>X;X;X",
";X;X;XOX&X;X>X>X>X>X%X%X%X%X;X;X;X;X>X&X#X#X#X#X&X&X;X;X&X;X&X;X;X;X;X>X;X;X;X;X%X&X;X;X;X;X&X;X;X;X&X%X%X%X&X&X&X>X;X;X;X;X&X;X",
"OX%XOXoXOXOX#X&X%X%XOXoXOXoXOX&X%XOX%XOXOXoXOXOXoXoX%X%XOX%XOX%X%X%X%X%X%XOX%X%XoXOXOX%X%X%XOXOX%X%X%XoXoX%XoX%X%XoX%X%X%X%XOX%X",
"OXOX#XoX#X&X#X%X&X#X#X#X%X#X&XOXOXoXOXOXOX%XOXoXoXOX%XoXOX%XOXOX%X%X%XoXOX%XOXOXoXOXoXOXOXoXOXOX%X%XoX%X%XoX%X%X#XoX%X%XOXOXOXOX",
";X;X&X>X>X>X>X>X>X>X>X>X>X>X>X;X;X;X;X-X;X;X;X%X%X;X;X;X;X;X&X;X;X;X&X&X;X&X;X;X%X&X%X#X%X#X#X&X;X&X;X;X;X;X;X;X&XoX;X;X;X;X;X;X",
"&X&X%X%X;X;X>X;X&X>X>X>X>X;X;X;X;X;X;X;X;X;X;X;X%X;X;X;X;X;X;X;X;X;X;X;X;X;X;X;X&X&X&X&X&X&X&X;X;X;X;X;X;X;X;X;X&XoX;X;X>X>X>X>X",
";X&X&X&X&X>X;X>X>X>X;X;X;X;X;X;X;X;X;X;X;X;XXXR.Y.U.T.T.U.U.'..XOX;X;X&X&X&X&X&X>X&X;X;X;X#X&X&X;X>X>X>X;X;X;X;X&XoX;X;X;X;X>X>X",
";X;X;X&X&X&X&X>X>X>X;X&X;X&X&X;X;X;X;X;X;X;X`._ C F G P F D P { .X;X&X&X%X%X&X&X>X;X;X;X&X#X#X#X&X;X>X>X>X;X;X;X&XoX;X;X;X;X;X;X",
";X&X;X%X%X#X%X&X;X;X&X%X#X#X&X;X;X;X>X>X>X#X| u # # = = # # - K U.;X;X&X&X&X;X&X*X;X;X;X;X;X;X&X;X;X;X;X;X;X;X;X&XoX;X;X;X;X;X;X",
";X>X>X;X>X&X&X&X;X;X&X&X&X&X&X;X+X}.{..X.X`.^ w : 9 < : : 9 < s { {.}.E.{.{.{.{.{.|.{..X@X;X;X;X;X;X>X>X>X>X>X;X;XoX;X;X>X>X;X;X",
";X>X>X>X>X;X;X&X&X&X&X&X;X;X;X#XY._ U Y ) ( J y k k k p c c c p F ~ I I I ~ ~ ~ ~ P ~ ` U.;X;X;X;X;X;X>X>X>X>X>X&XW.;X;X>X>X;X;X",
";X;X;X;X&X;X;X&X#X#X#X#X&X;X;X.X] 4 & & - 2 p N +.+.+.=.*.:.*.v w - * = - * - - = o & 5 { @X;X;X;X;X;X;X;X;X;X;X;X%X;X;X;X;X;X;X",
";X;X;X;X;X>X>X>X>X>X;X;X;X&XXXI.~ : ; $ # ; y *.e.e.9.9.9.9.1.T y 1 - < 1 1 < 1 1 1 1 1 ( `.OX;X;X;X;X;X;X;X;X;X;X%X;X;X;X;X;X;X",
"&X%X%XOX%X&X&X&X&X&X;X&XXXY.` U f h z 7 # $ z 5.k.k.k.t.e.2.1.=.! Q Q Q Q Q Q Q Q ! Q Q f ~ ' U.#X%X%X%X%X%X%X&X%XW.%X%X%X%X%X;X",
"OXOXOXoXOXOXOXOXOXOXOXoXR.) 3 1 p *.+.e # $ z q.n.m.n.h.s.2.:.,.r.s.f.f.s.s.s.s.f.h.f.7.Q < 3 _ E.OXoXOXOXOX@XoXoXoXoXoXOXOXOXOX",
";X;X;XoX&X;X&X;X;X;X;X@XK.F = 9 v +.+.y ; ; b s.n.m.m.j.g.8.2.w.g.m.m.m.m.m.m.m.M.N.M.h.! t - G Y.#X;X;X;X;XOXOX%X%X%X%X;X;X;X;X",
";X;X;XOX;X;X;X;X;XXXY.{ ^ d y y k k h y e y N 7.g.j.b.b.g.g.r.s.j.M.m.m.m.m.m.m.v.=X=Xh.a.! z f ^ } T.;X;X;X;X&X&X&X%X;X>X>X;X;X",
";X;X;XoX&X;X;X;X&XT.^ 5 w c O.N r ; - r M +.=.,.8.s.h.x.j.h.j.j.b.b.b.x.j.m.b.m.b.b.v.j.j.g.6.Q 9 5 ` .X;X;X;X;X;X>X;X;X;X;X;X;X",
";X;X;XW.;X;X;X;X%XH.C # 9 N 1.=.y $ 9 a *.2.2.1.:.w.g.n.b.m.b.b.b.b.b.x.b.b.b.b.j.n.j.n.M.M.h.%.0 & H `.>X>X>X>X>X>X;X%X%X&X&X&X",
";X;X;XoX%X;X;X;X;XY.6 # 9 M ,.1./ a x %.r.t.8.=.=.8.g.n.b.m.b.b.b.j.b.b.b.b.b.b.j.n.b.n.M.M.j.5.M w u ) | `.@X;X;X;X;X&X&X*X&X>X",
">X>X;XW.%X;X;X;X;XY.D # w c =.8.8.7.q.f.g.g.8.:.:.8.g.n.b.b.b.j.b.b.b.j.b.b.b.b.b.j.b.n.b.m.b.s.;.N y e i _ T.&X&X>X&X;X;X>X>X>X",
">X>X;XoX;X;X;X;X;XY.F $ 7 k *.2.g.j.m.m.m.j.t.5.,.w.g.b.m.b.j.m.b.b.b.b.j.b.b.j.j.n.j.b.b.b.j.g.e.*.c 7 # D I.#X&X&X;X&X&X&X&X*X",
";X;X;XW.;X;X;X;X;XY.F & 1 c +.e.h.n.=Xv.b.b.f.q.w.s.h.j.n.j.b.b.n.b.b.b.b.j.n.j.b.b.b.b.b.b.j.k.e.1.v 9 # i I.>X>X>X&X%X%X&X&X>X",
";X;X;XOX;X;X;X;X>X`.F & : k *.w.k.n.m.m.b.b.h.f.g.g.j.n.x.j.b.b.j.b.b.b.b.b.j.b.b.b.b.b.m.b.x.k.e.1.M 9 # 6 I.>X;X>X&X&X&X&X;X;X",
";X%X%XOX%X;X%X;X;XI.D $ 9 c *.9.t.h.n.n.b.j.b.j.n.j.j.j.b.b.b.b.b.j.b.b.b.b.n.j.b.b.b.b.b.b.h.g.w.*.k 7 = D Y.&X&X%X&X&X%X&X&X%X",
"oX%XOXW.W.;XW.;XOXI.C $ : c *.9.e.g.g.j.b.m.b.=Xm.n.n.b.b.b.b.b.x.m.b.v.b.b.b.m.b.m.m.b.b.h.y.5.+.M p u C ` T.OXoXoXOXOXOXOXOX#X",
"&X;X&X;X&X&X;X&X&XI.F & 9 c +.9.2.8.w.g.j.m.b.m.=Xv.b.b.b.b.b.m.b.b.b.v.v.v.m.m.=X=Xv.v.h.a.>.N y 9 H ] I.}.@X;X;XW.;X;X;X;X;X%X",
";X;X;X;X;X;X;X;X;XY.F & 7 c =.1.2.:.8.r.j.b.b.m.j.b.b.x.b.b.b.b.b.b.n.c.b.b.b.b.b.j.j.j.d.q.@.h 7 ; U '.>X>X;X;X;XOX;X;X;X;X;X;X",
";X;X>X;X;X;X;X&X&XY.F & 9 c =.,.:.=.:.8.s.h.g.g.f.f.h.f.h.g.g.g.f.d.k.z.z.z.g.6.6.6.7.5.p.u.W k - o I .X>X>X;X;XOXoX>X;X;X;X;X;X",
";X>X>X>X>X;X#X#X#XY.F & 9 c =.,.1.=.:.8.8.w.w.8.q.w.w.w.w.w.w.>.4.>.p.)._.).Y a q q 0 v [ F.A.E > o I .X;X;X;X;X%XW.;X;X;X;X;X;X",
";X>X;X;X>X;X&X&X;XY.F = 9 c =.9.1.,.:.,.1.2.:.2.,.2.:.:.1.1.:.;.o.X.W ).~.P.Z & O @ @ , C.P.!.C., $ F T.;X;X;X;X;XW.;X;X;X;X;X>X",
";X;X;X;X&X;X;X;X;X`.F $ 9 c =.,.1.1.:.:.=.=.=.=.:.*.=.:.1.@.*.@. ...W A.Q.S.V.B *     > A Q.~.Z.H 0 ~ } {.+X-X;X;XW.;X;X;X;X>X>X",
">X>X;X;X;X;X;X>X>XY.F & 9 c :.2.1.:.:.:.:.=.=.:.=.:.:.=.:.1.=.@. . .R A.Q./.A.Z.Z X   X A S.~._.i.$.Q Q ~ G..X>X;XW.;X;X;X;X;X;X",
";X;X;X;X>X>X>X>X>XY.F & 9 c *.1.1.:.:.:.:.:.1.:.:.:.:.:.:.,.:.$. ...#.A.Q././.Q.A.V & * Z S.^. Xz.f.$.0 < P U.;X;XOX;X;X;X;X;X;X",
";X;X;X;X;X;X;X;X;XY.D # 1 v :.1.2.,.:.:.:.:.:.:.:.:.:.:.2.:.:.*.X.X.#.D.A.!.^.^._.R w w E P.!.|.B.b.&.t # i K.&X*XW.;X;X;X;X;X;X",
"#X;X;X;XOX;X-X;X&XI.s # 9 v ,.9.1.,.:.:.:.:.:.:.:.:.:.:.:.:.:.=.@.@.#.W ).)._.|.(.p.$./ i.(.].$X=Xm.4.t # 5 H.&X%XOX%X;X;X%X%X;X",
"OXoXoXOXW.W.W.;XOXH.i # 9 M :.2.9.,.:.:.:.:.:.:.:.:.:.:.:.:.:.:.;.;.#.#.<.p.l.l.x.j.h.h.h.x.x.M.N.b.4.t # 6 H.OXW.W.*XW.%XW.W.%X",
";X;X;XoX;X;X;X;X>X`.^ 4 9 y T =.:.:.:.,.:.:.:.:.:.:.:.:.:.:.:.:.1.1.1.1.;.>.q.c.v.b.b.v.b.v.h.j.c.a.Q w 3 I U.&X;X;X;X;X;X;X;X;X",
";X;X;XOX;X;X;X;X>X+X`.] U p t v *.1.2.2.1.,.:.:.:.:.1.,.,.1.:.,.2.1.,.;.;.>.0.0.0.a.y.y.c.t.d.0.-.Q n ~ ] I.+X>X;X;X;X;X;X;X;X;X",
";X;X;XOX;X;X;X;X&X&X#X.XJ.H ; w M :.9.2.,.,.:.,.:.1.:.:.:.:.:.,.1.1.:.2.,.,.;.;.>.>.>.>.9.9.1.N t ; f I.+X>X>X&X;X;X;X;X;X;X;X;X",
";X;X;XW.;X;X;X;X%X%XOX&X}.^ 2 : y N *.1.=.:.:.:.1.=.=.+.:.=.@.#.;.:.:.@.:.1.1.3.3.p.3.3.2.=.T r & 2 ) }.;X;X;X;X;X%XOXOXOX%X*X;X",
";X;X;XW.%X;X;X;X&X&X&X;X&XU.` ~ d p c M @.@.+.+.+.+.+.@.@.@.+.+.@.@.@.@.@.1.u.[.[.[.[.(.u.v y u F ) L.@X%X%XOX&X%X;X%X;X;X%X;X;X",
";X>X;XW.%X;X;X;X;X;X;X&X&X&XoXU.Y w 7 g l O.O.X.X.X.+.X.X.X.X.+.X.+.X. .O.<.[.*X,X2X:XoX{ u 7 H H..X#X>X&X&X&X&X&X&X>X&X;X>X>X;X",
";X;X;X%X;X;X;X;X;X;X%XOX%X%X&X{.Y * 7 r l X.X.X.X.........X.......l  . .l <.}.<X3X4X3X:XG.3 & I }.>X>X>X>X>X>X>X>X&X&X>X;X>X>X;X",
">X>X>XOX;X;X;X;X;X;X;X;X#X}.K.] L 2 8 g l X.X...m ..l ..X.X...l g r 0 8 r R E.1X4X5X4X,XG.3 + I .X;X;X>X&X&X&X%X&X&X>X*X;X;X;X;X",
">X;X:XW.;X;X;X;X;X;X;X;X{.' D e r h l ..X.m ..........X.X.+.X.l r 7 % @ % H R.1X5X5X4X,XH.4 + L {.;X;X;X&X%X&X&X&X>X&X>X;X;X;X;X",
";X;X;XOX;X;X;X;X;X;X;X;XU.F & ; r l +...X.m X...X.X.X...X.X.m h 7 * + . # D L.:X3X3X1X*X} 3 - Y {.&X;X;X;X;X;X;X;X;X;X%X&X&X&X&X",
";XW.W.W.OXW.OX%XoXoXoXOXY.D # ; g ..X.@.X.X.......X.X...l j g p s S C F D ~ } U.E.XXR.L.` G P } E.oXoXoXoXoXoX@XoXW.oX%X%XOX%XoX",
";XOX;X-X%X%XOXW.OXOX;X#XT.F = ; r ..X.+.X.....X...X.X.X.j r 7 i ] L.T.T.L.G.) F G G F P _ J.T.XX#X#X;X&X%XOXOX#X&XW.%X&X&X&X&X&X",
";X;X;X;X;X;X;X%X&X;X;X>X'.U = ; r ..X.X...X.X.X.X.X.X.m y : + S K.*X%X%X%XT.U = $ # # 2 ] +X;X;X;X;X;X;X;X;X&X&X;X%X;X&X;X&X;X;X",
">X&X>X>X>X>X;X;X;X;X>X>X'.~ = ; r m X.O.X...X.X.X.X.O.m g : # D Y.;X;X;X;X{.U $ O O O 7 [ #X>X&X>X&X&X&X;X>X>X>X;XOX;XOX%X%X>X&X",
"&X>X*X&X;X;X;X;X;X;X;X;X;X>X;X;X;X;X;X;X>X&X&X&XoX>X&X;X;X;X;X;X>X>X>X>X;X;X;X&X&X&X&X&X>X>X>X&X;X&X%X%X&X;X;X;X;XW.;X*X>X>X>X>X",
">X&X&X&X&X&X;X;X;X>X;X>X;X;X;X;X;X;X;X;X&X&X&X%XOX;X;X;X&X;X&X;X>X;X>X;X;X&X;X;X&X%X&X&X&X>X>X;X;X&X&X&X;X;X;X;X%XW.;X&X&X>X>X>X",
">X;X&X%X%X%X&X;X;X>X>X>X;X;X;X;X;X;X;X;X;X&X&X%XoX&X;X;X;X;X>X&X;X;X&X;X;X>X;X;X&X&X#X&X&X&X&X&X;X;X;X;X;X;X;X>X&XW.*X%X&X;X&X&X",
"*X;X&X;X;X;X;X&X#X%X&X;X;X;X;X;X;X;X;X>X>X;X;X&XoX&X;X>X>X;X;X;X>X&X*X&X;X>X>X>X>X*X;X&X&X&X%X&X;X;X;X;X>X>X>X>X&XoX;X*X;X;X;X;X",
">X&X;X;X;X;X;X&X&X&X;X%X#X#X#X#X;X;X;X;X;X;X;X&XoX&X;X>X>X*X;X;X*X>X&X&X;X;X;X>X>X;X&X&X&X&X&X&X;X;X;X;X;X>X>X;X&XOX;X;X>X>X>X;X",
";X;X;X;X;X;X>X>X;X;X;X&X#X&X&X&X;X;X;X;X;X;X;X&X%X;X&X;X&X>X&X&X&X>X&X&X&X&X&X&X>X;X&X&X&X&X;X;X>X>X>X;X>X;X;X;X;X@X;X;X>X>X>X;X",
";X;X;X;X;X;X>X>X>X;X;X;X;X;X;X;X;X;X;X;X;X;X&X&X%X;X;X;X&X&X#X&X>X&X#X#X&X%X%X%X&X&X&X>X&X*X>X*X;X>X>X>X>X;X;X;X;XoX;X;X;X;X;X;X"
};
