/* XPM */
static char *result[] = {
/* columns rows colors chars-per-pixel */
"64 64 219 2 ",
"   c #00070C",
".  c #020A0D",
"X  c #0E120F",
"o  c #16120F",
"O  c #021113",
"+  c #0B1313",
"@  c #0E1816",
"#  c #07131B",
"$  c #0C161A",
"%  c #0C191B",
"&  c #121614",
"*  c #1A1615",
"=  c #151915",
"-  c #191B15",
";  c #101719",
":  c #141B1B",
">  c #1A1D1D",
",  c #221412",
"<  c #281B16",
"1  c #321F1A",
"2  c #17231F",
"3  c #1B211E",
"4  c #24221A",
"5  c #2A241A",
"6  c #332A1E",
"7  c #392D1E",
"8  c #151D23",
"9  c #1A1F21",
"0  c #0D2B28",
"q  c #1C2222",
"w  c #1B2A27",
"e  c #1D222B",
"r  c #232422",
"t  c #222A26",
"y  c #292927",
"u  c #24252B",
"i  c #232C2B",
"p  c #2C2B2D",
"a  c #342D27",
"s  c #342D2A",
"d  c #3A2C2A",
"f  c #2D302F",
"g  c #3E3122",
"h  c #3C342B",
"j  c #3A362D",
"k  c #242631",
"l  c #272B32",
"z  c #2B2B33",
"x  c #2E2C38",
"c  c #312F32",
"v  c #322F3C",
"b  c #2D3233",
"n  c #2E3B33",
"m  c #333234",
"M  c #3A3632",
"N  c #313E36",
"B  c #34323C",
"V  c #3A353C",
"C  c #363A3A",
"Z  c #3D3A3D",
"A  c #4A1D16",
"S  c #46251B",
"D  c #57271C",
"F  c #69281D",
"G  c #76281B",
"H  c #61331E",
"J  c #432C28",
"K  c #502621",
"L  c #443423",
"P  c #4B3624",
"I  c #4B3925",
"U  c #43352A",
"Y  c #48362B",
"T  c #4D3B2A",
"R  c #533723",
"E  c #543B25",
"W  c #523E2A",
"Q  c #43333F",
"!  c #44383F",
"~  c #5C3838",
"^  c #653C2A",
"/  c #713126",
"(  c #66373A",
")  c #7B3938",
"_  c #354338",
"`  c #3D433D",
"'  c #3A493F",
"]  c #57402D",
"[  c #5C432B",
"{  c #4C4230",
"}  c #62452B",
"|  c #67462B",
" . c #6A4A2E",
".. c #724F2E",
"X. c #6B4C30",
"o. c #714F32",
"O. c #79433A",
"+. c #765234",
"@. c #785537",
"#. c #2F3343",
"$. c #353342",
"%. c #3A3543",
"&. c #353A46",
"*. c #3C3A45",
"=. c #433C45",
"-. c #453D49",
";. c #533F43",
":. c #344E44",
">. c #3D4C42",
",. c #3C5448",
"<. c #444145",
"1. c #4A4346",
"2. c #414E44",
"3. c #45454A",
"4. c #4D4649",
"5. c #444C4D",
"6. c #4E4A4B",
"7. c #524649",
"8. c #524B4D",
"9. c #435144",
"0. c #43554A",
"q. c #4E544C",
"w. c #4C5C4F",
"e. c #52514F",
"r. c #5B564C",
"t. c #564E50",
"y. c #4B5452",
"u. c #4E5D54",
"i. c #545351",
"p. c #5A5554",
"a. c #545D55",
"s. c #5A5C56",
"d. c #535F58",
"f. c #674744",
"g. c #754A44",
"h. c #645647",
"j. c #516354",
"k. c #586057",
"l. c #5B645A",
"z. c #566A5B",
"x. c #5C6C5D",
"c. c #5E715F",
"v. c #77624F",
"b. c #626155",
"n. c #60665D",
"m. c #636E5E",
"M. c #786A58",
"N. c #63725E",
"B. c #68735F",
"V. c #5B6F61",
"C. c #577563",
"Z. c #5F7260",
"A. c #617562",
"S. c #647965",
"D. c #697B66",
"F. c #677E68",
"G. c #697D68",
"H. c #8A2E1E",
"J. c #983727",
"K. c #843A39",
"L. c #B43E29",
"P. c #C83E26",
"I. c #924C35",
"U. c #9A4838",
"Y. c #835937",
"T. c #855A35",
"R. c #8B5D36",
"E. c #8C5E3A",
"W. c #AD462C",
"Q. c #A74536",
"!. c #B54333",
"~. c #AA523B",
"^. c #8F6037",
"/. c #8E613C",
"(. c #93633C",
"). c #99663E",
"_. c #9D683E",
"`. c #A36A3D",
"'. c #A96E3F",
"]. c #B06B3C",
"[. c #B1743F",
"{. c #C9432B",
"}. c #DC482E",
"|. c #C74934",
" X c #D34A31",
".X c #DB4E32",
"XX c #D45339",
"oX c #E2492D",
"OX c #E45032",
"+X c #F35736",
"@X c #C7713D",
"#X c #F26E3E",
"$X c #8E5043",
"%X c #975848",
"&X c #B55941",
"*X c #87634D",
"=X c #916440",
"-X c #9D6A42",
";X c #826652",
":X c #966852",
">X c #A36D42",
",X c #A96F42",
"<X c #AC7244",
"1X c #AF7549",
"2X c #B37444",
"3X c #B97642",
"4X c #BD7A45",
"5X c #B37748",
"6X c #BE7B49",
"7X c #AB6950",
"8X c #857B64",
"9X c #C07C47",
"0X c #C27E4B",
"qX c #FE7742",
"wX c #79826B",
"eX c #C5814D",
"rX c #C68351",
"tX c #F38F4D",
"yX c #FF9C53",
/* pixels */
"eXeXeX4X0XeXeXeXeXeXeXeXeXeXeXeXeXeXeXeXeXeXeXeXeXeXeXeXeXeXeXeXeXeXeXeXeXeXeXeX4X9XeXeXeXrXrXeXeXeX0X9X9X9X6X0X0XrXrXrXrX0XrX0X",
"rXeXeX4X0XeXeXeXeXrXeXrXrXrXeXeX0XeXrXrXrXrXeXeXeXeX0XeXeX0XeX0XeXeXeXeXeXeXeXeX9X0XeXeXeXeXeXeXeXeX0X9X0X0X9X0XrX0XrXrXrXrX0XrX",
"rXrXeX4XeXeXeXeXeXeXrXrXrXeXeXeXeXrXrXrXrXrXeXeXeXrXeXeXeXrXrXeXeXeXeXeXeXeXeXeX9X0XeXeXeXeXeXeXeXeXeXeXrXrXrX0XrXrXrX0XeXeXrXrX",
"eXeXeX4X0XeXeX0XeXeXeXeXeXeXeXeX0XeXrX0X0XeXeXrXrXrXrXrXrXrXrXeXeXeXeXeXeXrXrXrX9X9XeXeXeXeXeXeXeXrXrXrXrXrXrXrXrXrXrX0X0X0XrX0X",
"eX6X6X4XeXeXeX0X9X0X0XrXrXrXrXeX0XeX0X9X6X0X9XrXrXrXeXeXeXeXrXeXeXeXeXeXeXeXrXeX4X0XrXrXrXrXrXeXeXeXeXeXeXeX9X0X0X0X0X0X0X0XeXrX",
"eX0X0X4XeXeXeX0X0X0X0XrXeXrXrXeX0XrXrX0X0X0X0XeXeXeX0X0X0X0X0XeXeXeXeXrXrXeXeXrX9X0XeXrXrXrXrXeXeXeXeXeXeXeX0X0X0X0X0X0X0XrXeXeX",
"rXrXrX4X0XeXeXeX0X0X0X0X0XeXeXeX0XrXrXrXrXrXrXrXeX0XeX0X0X0X9X0XeXeXeXrXrXrXrXrX4X9XeXeXeXeXeXeXeXeX0X0X0X0XeXrX0X0XeXrXrXrXeXeX",
"eXeXeX4X0XeXrXrXrXrX9X9X9X9XeXeXrX0XrX0X6X6X9X0X9X9XeX0XeX0X0XeXeXeXeXeXeXeXeXeX9X0XeXeXeXeXeX0XeXeX0X9X9X9X0X0X0X0XeXeXeXeXeX0X",
"4X0X4X3X4X4X6X6X0X9X4X4X4X4X4X4X9X4X9X4X4X4X4X3X3X3X4X4X9X9X9X9X9X9X9X9X9X4X9X9X[.4X9X9X9X6X9X9X4X9X9X3X3X4X4X9X0X9X9X9X9X9X9X4X",
"4X4X4X3X4X0X6X0X9X9X0X9X6X6X6X4X9X4X4X4X4X4X'.(.R.R.^.^.R.R.R._.[.9X9X9X4X4X4X4X4X4X4X3X3X4X3X4X4X4X9X9X9X4X4X9X9X@X9X9X9X4X4X4X",
"eXeXeXeXrXrXrXrXrXrXrXrXrXrXrXrXeXeX0XeXeX0X(.[ g g L P L 7 P o.[.0X0X0XeX0XeXeX9X9X9X9X0X0X6X0XeXeXeXeXeX0XeXeX0X9X0X0XeXeXeXeX",
"eX0X6X0XeXeXrXeXrX0XrXrXrXeXrX0XeXeXeX0XeX6X+.6 + + + & + + = L (.eXeXeXeXeXeXeX0X0X0X0X0X0X0X0XeXeXeXeXeXeXeXeX9X3X0XeXrXrXrXrX",
"eX9X0X0X0XeXeXeXrXrXeXeX0XeXeX0X1X>X-X>X>X(.[ 4 q q 9 9 9 q q h o._.'.`.(.).).).-X).).>X<X0X0X0X0XrXeXrXeXeXeXeX0X3XeXeXeXeXrXrX",
"eXeXeX0X0X0XeXrXrXrXeXeX0X0XeX0XE.[ P I W { U f m m m c m V m s U R R R R P P R P P P } E.6X9X4XeXeXrXrXrXeXeXeX0X3XeXeXeXeXeXeX",
"eXeXeX6X6X6X6X0X0XeX6X6X6X6X0X<XX.4 + + = 3 p ! 1.4.1.1.4.4.3.B r * & & & = & & & + + 5 o.5XeXeXeXeXeXeXeXeXeXeX9X4XeXeXeXeXeXeX",
"eXeXrXeXrX0X0XeXeXeX0X0X6X6X<XE.W > : ; + : f 1.p.p.i.t.i.t.6.{ p w 2 2 q q q w q w q r ] /.<X0XeXeXrXrXeXrXrXrX0X3XeXeXrXrXeXeX",
"eXrXrXrXrXeXeX0X0X0X0X0X6X/.} T M m m q + @ b q.n.m.n.l.p.8.6.1.{ ' ' ' ' ' ' ' ' :.' _ j T | (.0XeXrXrXrXrXrXrX0X4XeXeXrXrXeXeX",
"eXeXeXeXeXeXeX0X6X6X6X6X>X} 4 > m <.<.p + @ n u.A.S.A.x.s.8.1.6.a.z.z.z.l.z.z.z.x.c.x.w.N = 5  .2XeXeXeXrX0X0XeX9X9XeXeXeXeXeXeX",
"eXeXeXeXeXrXrXrXrXrX0X1XT.U ; r m <.! p > > n w.A.S.S.c.l.i.6.i.x.S.F.S.S.S.S.S.S.wXwXz.2.i > T /.2X0XeXeXeX0X0X0X4XeXeXeXeXeXeX",
"9X9X9X4X4X0X0X0X6X<XE.X.W j p c p p p y u c >.q.k.c.c.S.x.k.k.l.V.S.S.S.S.A.S.S.S.Z.F.c.j.2.n j W  .(.3X9X9X0X4X4X3X0X9X9X9X9X9X",
"4X4X9X[.4X3X4X4X6X(.E 5 q m { Z u : : y V 1.4.4.e.a.x.c.c.c.c.c.Z.Z.A.A.Z.Z.A.A.Z.Z.S.Z.A.x.w._ 3 5 } `.3X9X4X4X3X3X4X4X9X9X4X4X",
"eXeXeX4XeXeXeXeX0X(.L + q $.6.1.f : > p 4.8.7.4.4.a.l.N.c.S.c.c.Z.Z.Z.Z.Z.Z.Z.Z.Z.Z.Z.Z.S.G.x.>.i & L E.3X9X4X6X6X4X6X9X0XeXeX0X",
"eXeXeX3XeXeXeXeX0X(.g + q Z 7.8.` N _ 2.p.s.i.4.1.e.x.Z.S.Z.S.c.Z.Z.Z.Z.Z.N.c.Z.c.Z.Z.S.F.F.N.w.C t a ] @.(.2X0X9X0X0X0XrXrXeXeX",
"eXeXeX3XeXeXeXeX0X^.L @ 9 m 4.8.i.w.j.z.x.x.i.4.1.e.x.c.S.c.c.c.Z.Z.Z.Z.Z.Z.Z.Z.Z.Z.c.Z.A.S.x.s.6.Z p r 6 } -XrXrXrXeX0XrXeXrXeX",
"eXeXeX[.0XeXeXeX0X^.P & 9 m =.i.l.A.S.S.S.c.a.q.6.i.z.A.Z.Z.c.c.Z.c.x.A.A.Z.A.c.A.x.A.A.A.Z.x.l.i.4.m q + L =XrXrXrX0X0X0X0X0X0X",
"eXeXeX3X0XeXeXeXeX(.P & 9 c 1.i.n.S.F.F.S.Z.z.p.i.k.x.N.c.S.S.c.x.A.A.c.x.A.A.c.A.x.A.c.A.A.A.n.p.6.V r + 6 /.eXeX0XeX0X0X0X0XrX",
"eXrXeX[.0XeXeX0XeX=XP @ 9 m 1.i.l.A.S.S.Z.Z.c.x.z.x.c.Z.Z.Z.Z.Z.A.A.A.A.Z.Z.c.Z.A.A.x.A.Z.S.c.n.p.7.m q + a E.6X0XrX0XeXeXrXrX0X",
"rXeXeX3X0XeXeXeX0X(.P & > c 1.i.l.x.Z.c.Z.c.c.Z.A.Z.Z.Z.Z.c.Z.c.A.x.x.A.Z.Z.Z.N.x.A.A.A.A.Z.x.k.t.-.b > - I (.6X0X0XeX0X0X0X0XrX",
"eXeXeX[.0XeXeXeXeX(.I @ 9 m 1.8.p.k.z.x.A.A.S.Z.A.A.c.Z.S.c.S.c.Z.S.Z.Z.C.Z.Z.A.S.S.S.A.V.z.a.5.{ m s U W @.<XrXrXrX0X9X0X0X0XeX",
"eXeXeX3XeXeXeXeXrX=XI & q m <.8.8.8.i.l.c.A.A.S.S.A.S.A.Z.Z.Z.Z.S.S.Z.C.C.C.Z.S.S.D.S.A.z.u.5.C k w Y +._.1X6XrXrXeXeXeX0X0XeXeX",
"0X9X0X3X9X9X9X0XeX(.L & 9 m 1.8.6.4.7.a.x.A.A.N.c.c.N.c.Z.N.c.c.c.c.c.c.Z.A.Z.Z.c.Z.c.x.s.t.1.c > = E ).6X9X0X0X9X4X9X9X0X9X0X0X",
"9X9X4X3X9X9X4X4X4X^.L & q m 1.7.4.1.6.i.k.l.z.l.l.l.z.l.z.x.l.k.d.j.b.M.;Xv.r.0.,.,.0.q.h.g.( J * X E `.4X4X4X4X3X3X4X4X9X@X9X9X",
"0XeX0XeXeX0XeX0X0X(.L & q m 3.7.7.4.4.8.e.i.i.i.e.i.i.i.i.i.i.5.>.3.f.%X&X$X~ i 0 0 i h O.U.Q./ - X E '.0X0XeXeX6X3X0XeX0XeX9XeX",
"eXeXeXeXeXeXeXeXeX(.P @ 9 m 1.8.8.4.4.4.6.4.4.7.4.4.4.7.4.6.6.<.&.$.( $X|.L.F * . . O 5 / {.|.H.1 + W >XrXrXeXeXeX3XeXeXeXeXeXeX",
"eXeXrXeXeXeX0X0X0X(.L & q m 1.8.7.6.4.4.1.1.1.1.1.1.1.1.4.4.1.=.#.$.( L.}.P.H.A ,     , G {.}.U.I i _ @.-X1X6XeX6X3XeXeXeXeXeXeX",
"eXrXrXrXrX0X6X6X4X(.I * 9 m 1.8.8.4.7.1.4.4.1.4.4.4.4.1.4.4.6.*.#.#.( L.}.}.P.J.G <   o G {.oX~.h.,._ U W @.,XeXeX3XeXeXeXeXeXeX",
"eXeXeXeXeXeX0XeXeX=XI & 9 m 1.7.8.4.4.4.4.4.6.4.4.4.4.4.4.7.6.*.$.%.( Q. XOXOX XL.K @ * F P. X7XM.z.:.w 2 P (.eX0X[.eXeXeXeXeXrX",
"eXrXeXeXeXeXeXeXrX(.L + w m 4.8.7.6.4.4.4.4.4.4.4.4.4.4.4.6.4.<.%.%.;.K.!.|.XXXX~.} t y ^ Q.&X7XwXZ.,.i X 7 /.eXeX[.eXeXeXeXrXrX",
"rXrXeXeXeXeXrXeXrX/.g + r m 6.e.8.6.4.4.4.4.4.4.4.4.4.4.4.4.4.4.-.-.;.f.g.$X%X:X*Xh.9.9.h.*X:X8XwXC.0.i X 7 /.eX9X9XeXeXeXeXeXeX",
"eXeXeXeXrXrXrXrXrX/.L + q m 4.8.8.4.4.4.4.4.7.4.4.4.4.4.4.4.4.4.4.4.7.;.;.h.b.S.B.N.x.x.m.m.S.S.wXx.0.t O g ^.eX0X[.eXeXeXeXeXeX",
"eXeXeXeXeXeXeXeXeX-X} 6 r f ! 1.4.7.7.8.6.4.4.4.4.4.4.6.4.4.4.4.4.6.4.3.3.5.d.z.C.Z.V.A.Z.V.z.V.z.w.' y 6 [ _.0X0X9XeXeXeXeXeXeX",
"0XeX4XeXeXeX4XeX4X1X(.+.] a u m =.6.8.8.4.7.4.6.4.6.4.7.6.4.4.7.6.7.4.4.3.6.y.d.d.d.l.s.l.l.d.0.' n j [ o.(.2X0X4X@X9X0XeX9X4XeX",
"3X3X4X4X4X3X4X4X4X4X3X2XT.L : q m 1.8.8.7.4.6.4.7.6.4.6.4.7.7.4.4.4.4.4.4.4.4.7.6.6.t.8.e.t.4.V t : L T.[.4X9X4X3X[.4X4X4X4X4X4X",
"eXeXeX3X0XeX0XeXeXrXeXrX<X} 5 2 p ! 1.4.4.1.1.4.4.4.-.3.-.3.3.4.4.3.4.4.4.1.3.-.3.;.3.-.1.1.Z u > 5 | ,X0X9XeX0XeXeXeX9XeX6XeXeX",
"eXeXeX4XeXeXeXeXrXeXrXeX6X).X.W h s m B *.=.-.-.-.=.%.*.&.&.&.*.-.=.-.=.=.=.=.=.=.-.-.=.V x u d I X.).6XrXrXrXeX0XeXeXeXeXeXeXeX",
"eXeXeX3X0XeXeXeXeX0XeXeXeX0X5X(.W 3 q p V %.=.%.=.%.$.#.&.#.B V %.*.%.%.%.%.V %.%.=.=.V z 9 : T ^.5XrXrXrXrXrX0XeXeXeX0X9XeXeXeX",
"eXeXeX3X4XeXeX0X6X6X6X0XeXeXeX<X[ - ; u B %.%.v v V Q Q ! Q Q Q B v v %.%.%.%.$.%.$.v x e & 5 X.1XeXrXeX0X0XrX0XeX0X6X9X6X9XeXeX",
"eXeXeX[.eXeXeXeX0X0X0XeXeXeXeX<X} - $ p %.*.B k u J ( K.K.K.) ~ d k k B *.=.%.%.v x k u d R  .(.0X0XeX0X0X9X9X9X0XeX0X0X0X4XeXeX",
"eXrXeX3XeXeXeXeXeXeX0X0X0X0X0X<X[ - : f <.1.x 0 > D J.!.|.|.!.H.d % q B -.-.-.%.x u 8 4 W /.<X6X0XrXrXeX0X0X0X0X0X0XrXeXeXrXeXeX",
"eXeXeX4X0XeXeXeXeXeX0X9X9X9X0X>X[ - 2 f 1.1.l # o D W.OX+X+X.XI.S + % x 7.8.-.%.x e @ <  .5X0X0XeXrXrXrXrXrXrXrXrX0X0XrXeXrXrXeX",
"rXrXeX3X0XeXeXeXeXeXeX0X0X0X0X>X] + > x =.=.i # o H !.qX#XqX#XW.D X # l -.-.-.%.B e $ - | 2X9X0XeXeX0XrX0X0X6X0X0X0XrX0X0XrXeXeX",
"rXrXrX3X0XeXeXeXeXeXeXeX0X0X0X>X] + : z *.Z e O o ^ @XyXyXyXtX].P X # k =.-.-.=.B u $ * } <X0X0XeXeXeXeX0X0X0X0X0XrXrX0XrXeXeXeX",
"eXeX9X9X9X0X0X0X0X0X0X0X0X6X6X>X} < : u $.#.8 # 3 } 3XtXyXyXtX_.P + $ e v %.=.%.x q $ 5  .,X0X9X0X0X0XeX0X0X0XeX0X9X0X0X0X9X0X0X",
"9X[.9X[.4X4X4X4X4X4X4X4X6X3X4X`.Y.E h a z l e 8 4 T T.`.[.<X_...6 X $ k $.%.v k p a L [ R.].9X9X4X4X4X4X4X3X4X3X9X[.9X9X9X9X9X9X",
"eX9X9X9X9X9X4X4X4X6X0X0X0X0X9X6X1X-XY.T r 9 u k c j U L I I P 6 > + 8 k v v z 9 y W Y.-X3X9X0X0X0X0X0X0X9X3X4X4X9X3X0X0X0X0X9X9X",
"eXeXrXrXeX0X9X0X0XeXeXeXrXeXrXeX0X0X1X| < ; u v $.z : + X O + X + + 9 z $.v u & 5 o.5XrXrXrXrX0XeXeXeXeXeXeX0XrX9X9XeX0X0X0XeX0X",
"rXrXrXrXrXrXeXeX0XeXrXrXrXrXrXrXeXeX0X..< @ u %.=.k ; X   . . X . + 9 z %.v q @ 7 Y.0X0XrXrXrX0XeX0X0X0XrXrXrXrX0X9XrX9X0X0X0XrX",
"0X0X0X0XeXeXeXeXeX0XeXeXeXeXeXeXeXeXeXeXeXeXeX0X3X0X0XrX0XrX0XeXrXrXrXrXeXeXrX0X0X0X0X0X0XrXrX0XeX0X0X0X0XeXeXeX0X[.0X0X0XrXrXrX",
"rX0X0X9X0X0X0XrXeXeXrXrXeXeXeXeXeXeXeXeXeX0X0X6X3X0X0XeX0XrX0XeXeXeXrXeXeXeX0X0X0X0X0X0X0X0XrXrXeX0X0X0X0X0XeXeX0X@X0X0X0XrXrXrX",
"rX0X9X9X0X0X0XrXrXrXrXrXeXeXeXeX0XeXeXrXeXeX9X4X6X0X0XrXrX0XrX0XeXeXeXeXeXeXeXrX0X9X9X0X0XrX0X0XeXeXeXeXrXeXeXeX0X[.9X9X0XeX0X0X",
"eX0XeXeX0XeXeX0X9X0X0XeXeX0XeXeXeXeXeXrXrXrX0X0X3X0X0XrXrXrX0XrXrX0X0X0XeXrXrXrXrXeXeX0X0X0X0X0XeXeX0XrXrXrXrXrX0X[.eX0X0XrXeXeX",
"eXeXeXeXeXrXeX0X0X0XeX0X6X9X9X0XeXeXeXeXeXeXeX0X3X0XrX0XrX0XrX0XrXrX0X0XeXeXeXrXrXeX0X0X0X0X0X0XeXeXeXeXeXrXrXrX0X9XeXeXrXrXrXeX",
"eXeXeXeX0X0XrXrXrX0XrX0X0X0X0X0XeXeX0XeXeXeX0X0X0XrX0X0X0XrX0X0X0X0X9X0X0X0X0X0XeXeX0X0X0X0XeXeXrXrXeXeXrXeX0XeXeX9XrXeXrXrXrX0X",
"eXeXeXeXrX0XrXrXrXrX0XeX0X0XeX0XeXeXeXeXeXeX0X0X9X0XrXrX0X0X0X0X0XrX9X6X9X9X9X9X0XeX0XeX0X0XeXeXeXrXrXrXrXrXeX0X0X9X0XrXeXeXeXeX"
};
