/* XPM */
static char *result[] = {
/* columns rows colors chars-per-pixel */
"64 64 212 2 ",
"   c #01090B",
".  c #1A0F0E",
"X  c #0E110E",
"o  c #031214",
"O  c #0B1413",
"+  c #0E1816",
"@  c #0F1718",
"#  c #121614",
"$  c #1A1413",
"%  c #131816",
"&  c #191A15",
"*  c #151B1B",
"=  c #1A1E1D",
"-  c #241713",
";  c #2B1A14",
":  c #2B1E1A",
">  c #301E19",
",  c #15201D",
"<  c #18221F",
"1  c #24231C",
"2  c #2A241B",
"3  c #32211D",
"4  c #332A1E",
"5  c #3C2C1E",
"6  c #0D1C24",
"7  c #161E23",
"8  c #1A1F21",
"9  c #1C2122",
"0  c #1A2A28",
"q  c #12302C",
"w  c #252523",
"e  c #242924",
"r  c #24252B",
"t  c #212D29",
"y  c #2C2C2D",
"u  c #352C23",
"i  c #382E20",
"p  c #332E2B",
"a  c #22342E",
"s  c #3D3022",
"d  c #3A362D",
"f  c #3C342C",
"g  c #2D2D32",
"h  c #2C2C38",
"j  c #312F32",
"k  c #312E3B",
"l  c #2B3630",
"z  c #2C3932",
"x  c #333234",
"c  c #3A3435",
"v  c #323D36",
"b  c #3A3B35",
"n  c #34323C",
"m  c #39353A",
"M  c #3C3A3C",
"N  c #411C15",
"B  c #45251D",
"V  c #48281E",
"C  c #51231B",
"Z  c #69251A",
"A  c #77281C",
"S  c #453523",
"D  c #493624",
"F  c #4C3927",
"G  c #48322A",
"H  c #443C2D",
"J  c #4D3A29",
"K  c #533B26",
"L  c #5A3D27",
"P  c #533D29",
"I  c #593E28",
"U  c #403C3F",
"Y  c #5D393D",
"T  c #622D24",
"R  c #792F20",
"E  c #673628",
"W  c #743324",
"Q  c #7E3223",
"!  c #63393B",
"~  c #36443B",
"^  c #3B443E",
"/  c #55422F",
"(  c #5B432D",
")  c #5B4432",
"_  c #62452B",
"`  c #6B4429",
"'  c #65482D",
"]  c #6C4A2D",
"[  c #714A2E",
"{  c #664635",
"}  c #6C4D32",
"|  c #774338",
" . c #765234",
".. c #795333",
"X. c #7B5739",
"o. c #2F3343",
"O. c #363241",
"+. c #3A3543",
"@. c #363A46",
"#. c #3E3943",
"$. c #433E45",
"%. c #433C48",
"&. c #543F43",
"*. c #384841",
"=. c #3D4C42",
"-. c #3D564A",
";. c #464145",
":. c #4A4346",
">. c #434B42",
",. c #45454A",
"<. c #4D4649",
"1. c #444B4D",
"2. c #4E494B",
"3. c #524244",
"4. c #50474B",
"5. c #5B4748",
"6. c #524A4D",
"7. c #4C554D",
"8. c #445A4C",
"9. c #4A594E",
"0. c #52524F",
"q. c #59574D",
"w. c #554E50",
"e. c #4D5A54",
"r. c #545451",
"t. c #5B5655",
"y. c #555B54",
"u. c #595D56",
"i. c #505F58",
"p. c #624C4A",
"a. c #704A46",
"s. c #635444",
"d. c #63524A",
"f. c #4E6051",
"g. c #536556",
"h. c #556759",
"j. c #55645A",
"k. c #5B655A",
"l. c #5C6C5D",
"z. c #5E715F",
"x. c #61665D",
"c. c #65695A",
"v. c #776855",
"b. c #68725D",
"n. c #566F60",
"m. c #567563",
"M. c #5F7260",
"N. c #617562",
"B. c #657965",
"V. c #6A7B67",
"C. c #677E68",
"Z. c #6A7D68",
"A. c #832D1D",
"S. c #853626",
"D. c #973827",
"F. c #B13B26",
"G. c #C63E27",
"H. c #98412E",
"J. c #86443C",
"K. c #9C4437",
"L. c #815637",
"P. c #8A5C36",
"I. c #845B3A",
"U. c #8C5E3A",
"Y. c #92583A",
"T. c #B9432D",
"R. c #AB4333",
"E. c #AA4A37",
"W. c #AF4934",
"Q. c #8E613D",
"!. c #93633C",
"~. c #99653C",
"^. c #9B663E",
"/. c #A36A3E",
"(. c #AA6E3F",
"). c #C9452D",
"_. c #D7482D",
"`. c #C24730",
"'. c #CE4C33",
"]. c #C84D38",
"[. c #DA4C32",
"{. c #D55439",
"}. c #E54C2F",
"|. c #E64F33",
" X c #F55234",
".X c #FF5636",
"XX c #934B41",
"oX c #895E49",
"OX c #935344",
"+X c #A65B45",
"@X c #BF5940",
"#X c #966641",
"$X c #9C6941",
"%X c #92664F",
"&X c #A46D42",
"*X c #A86C46",
"=X c #AD684F",
"-X c #AB7346",
";X c #AC7245",
":X c #B57544",
">X c #B97642",
",X c #BD7A45",
"<X c #B37649",
"1X c #B6794B",
"2X c #BE7B49",
"3X c #8E7860",
"4X c #C07C47",
"5X c #C27E4B",
"6X c #7A816B",
"7X c #BF8050",
"8X c #C5814D",
"9X c #C68451",
/* pixels */
"8X8X8X,X5X8X8X8X8X8X8X8X8X8X8X8X8X8X8X8X8X8X8X8X8X8X8X8X8X8X8X8X8X8X8X8X8X8X8X8X>X5X8X8X8X8X9X9X8X8X5X4X4X4X4X5X5X9X9X9X9X9X5X9X",
"9X8X8X,X8X8X8X8X8X9X9X9X8X9X8X8X8X8X9X9X9X8X8X8X8X5X8X8X8X8X8X8X8X8X8X8X8X8X8X8X4X5X8X8X8X9X8X8X8X8X5X5X5X5X5X5X9X5X9X9X9X5X5X9X",
"9X9X8X,X5X8X8X8X8X8X9X9X9X8X8X8X5X9X9X9X9X9X8X8X8X9X8X8X9X8X8X8X8X8X8X8X8X8X8X9X4X5X8X8X8X8X8X5X8X8X8X8X9X9X9X5X9X9X5X9X8X5X9X5X",
"8X8X8X,X5X8X8X5X8X8X8X8X8X8X8X8X8X8X9X5X8X8X8X9X9X9X9X9X9X9X9X8X8X8X8X8X8X9X9X9X4X5X8X8X8X8X8X8X8X8X9X9X9X9X9X9X9X9X9X5X8X9X5X9X",
"8X2X2X,X8X8X8X5X4X5X8X8X9X9X9X9X8X8X5X4X4X2X5X8X9X8X8X9X8X8X8X8X8X8X8X8X8X8X8X8X4X4X8X9X9X9X9X8X8X8X8X8X8X8X5X5X5X5X5X5X5X5X5X9X",
"8X5X5X,X5X8X8X5X5X5X5X9X9X8X9X8X5X9X8X5X5X2X9X8X8X8X5X5X5X5X5X8X8X8X8X8X8X9X8X9X4X5X8X9X9X9X9X9X8X8X8X8X8X8X5X5X4X5X5X5X5X9X5X9X",
"9X9X9X,X8X8X8X8X5X5X5X5X5X5X8X8X5X9X9X9X9X9X9X8X8X5X8X4X5X5X4X8X8X8X8X9X9X9X9X9X4X5X8X8X8X8X9X5X8X8X5X5X8X5X5X8X5X5X8X9X9X9X9X5X",
"8X8X8X,X5X8X9X9X9X9X4X4X4X4X8X8X5X9X9X5X2X2X5X5X4X5X8X5X5X8X5X5X8X8X8X8X9X8X8X8X4X5X8X8X8X5X5X5X8X8X5X4X4X4X5X5X9X5X8X8X8X8X8X8X",
",X4X2X>X,X2X5X4X5X4X,X,X,X,X,X,X4X,X4X,X>X,X,X>X>X,X4X,X4X4X,X4X4X4X4X4X4X4X,X4X>X,X,X4X4X4X2X,X,X4X4X4X>X,X4X4X4X4X4X4X4X4X4X4X",
",X,X,X,X,X5X4X5X5X4X4X4X2X2X2X2X,X,X,X,X,X4X,X>X>X,X,X,X,X,X,X,X4X4X4X4X,X4X,X,X>X,X,X>X>X,X,X,X4X4X4X4X4X4X4X4X,X>X4X4X4X4X,X,X",
"5X8X5X5X9X9X9X9X9X9X9X9X9X9X9X8X8X8X8X5X8X8X8X8X,X8X8X8X8X8X8X8X8X5X4X5X8X5X8X8X5X5X4X4X5X2X5X5X4X5X5X8X4X5X5X8X4X,X5X5X8X8X5X5X",
"5X4X5X4X9X5X8X9X9X5X9X9X9X8X9X5X8X8X8X8X8X8X8X4X>X8X8X8X8X8X8X8X8X8X8X8X8X8X8X8X5X5X5X5X5X5X5X5X8X5X8X8X8X8X8X8X5X,X5X5X9X9X9X9X",
"9X5X5X4X5X5X9X9X9X9X9X5X8X8X8X8X8X8X8X8X8X8X1X^.!.^.^.^.!.!.^.;X5X8X8X5X5X5X5X5X5X9X8X8X5X5X5X5X8X8X9X9X9X5X9X8X4X>X8X8X8X8X9X9X",
"8X8X8X5X5X5X5X9X9X9X5X5X5X5X5X8X8X8X8X8X8X8X~.' D D K P D S K ..;X8X5X4X4X4X5X5X8X5X8X5X5X5X4X4X5X9X9X9X9X5X5X9X4X,X8X8X8X8X5X8X",
"5X5X8X4X4X4X5X5X8X8X5X5X4X4X5X8X8X8X9X9X9X2X..u O O # # O O & J !.5X5X5X5X5X8X5X8X8X8X9X5X5X5X8X8X8X8X8X8X8X8X8X5X4X8X8X8X8X8X8X",
"9X9X9X9X9X5X5X5X8X8X5X5X5X5X5X8X1X&X&X-X-X#X{ 1 = < = , * 9 9 s ..&X;X(.*X&X&X&X*X&X&X-X1X9X8X8X8X9X9X9X9X9X9X5X4X,X9X8X9X9X8X8X",
"8X9X8X9X9X8X8X5X5X5X5X5X5X8X8X2X!.' K ( _ / H y j x j g x x j p S ( L L L L L ( K K P ] ~.8X8X8X5X8X9X9X9X9X9X9X5X,X8X8X9X9X8X8X",
"8X8X8X8X8X8X8X5X2X2X2X2X5X8X8X;X} 2 # # & 1 p M $.:.$.&.:.:.;.m 1 & . & & & & , & O # 4  .:X8X8X8X8X5X8X8X8X8X8X5X,X8X8X8X8X8X8X",
"8X5X8X5X8X9X9X9X9X9X9X5X8X5X<XQ./ = * @ O % g ;.r.t.r.6.q.w.4.M y < , , , , < < < < < 2 / #X7X8X9X5X9X8X8X8X8X8X8X4X8X8X8X8X8X8X",
"5X4X5X4X4X5X5X5X5X5X5X5X>X!.] P f l j 8 O @ l 7.x.x.x.u.r.w.4.:.*.~ ~ ~ ~ ~ ~ ~ ~ ^ ^ z ~ / [ ~.4X4X4X4X4X,X2X,X,X(.8X4X4X4X4X5X",
",X4X5X(.4X4X,X,X,X,X,X,X/._ : = y ;.$.r O + z e.N.B.N.l.y.6.:.2.y.g.h.h.h.h.g.h.h.h.h.8.~ , 2 ` (.4X,X,X,X,X,X,X4X(.4X(.4X(.8X4X",
"8X8X8X>X5X5X8X5X8X5X8X1XU.D @ w c :.$.p * * z g.N.C.N.N.k.0.6.q.h.N.V.B.B.M.M.B.B.6X6Xz.^ t & D Y.4X8X8X8X2X,X,X4X5X4X4X8X8X8X8X",
"8X8X8X4X5X8X8X8X8X:X!. .( f e l x y p r e y ^ 0.k.x.N.M.k.g.i.g.z.B.B.C.6Xm.B.B.m.6Xm.z.f.^ z d _ ..^.2X8X8X8X8X5X5X5X8X9X9X8X8X",
"8X8X8X>X8X8X8X8X5X~.( u w j $.M y * * r m ;.:.2.0.j.l.M.b.l.l.z.M.M.M.b.M.M.b.N.z.B.M.z.z.l.9.v 2 4 ] :X8X8X8X8X8X8X8X8X8X8X8X8X",
"8X8X8X(.4X8X8X8X5XY.S X w m 2.:.y % % l :.6.6.:.6.0.k.N.M.B.z.B.M.M.M.b.M.M.M.M.z.N.z.N.V.B.l.=.0 # D !.9X9X9X8X9X9X5X5X5X5X5X5X",
"8X8X8X,X8X8X8X8X8X!.s O 9 m <.2.^ l z =.y.u.6.4.:.0.h.N.B.N.M.M.M.M.z.N.M.M.M.M.M.M.z.N.V.Z.N.9.m w p _ X.^.1X8X8X8X8X8X5X5X5X8X",
"9X9X8X>X4X8X8X8X8X!.S O 8 c :.6.7.9.i.g.l.k.r.2.2.r.k.N.N.M.M.N.M.M.z.z.z.M.M.M.M.M.M.M.N.B.z.y.<.b y w s _ ~.4X5X5X8X8X8X9X9X8X",
"9X9X8X(.4X8X8X8X8X!.D + 8 j :.r.k.b.N.B.N.z.y.6.2.r.h.b.N.N.z.z.N.z.N.z.M.M.M.z.z.M.M.M.N.M.l.k.r.:.x 9 O S Q.7X5X9X8X5X5X5X5X8X",
"8X8X8X>X4X8X8X8X8X!.D % < x :.r.x.B.C.C.M.M.h.y.0.u.l.M.M.M.N.z.z.M.M.M.M.z.N.z.M.M.M.M.M.M.b.x.t.6.m 9 O i Q.9X9X9X5X4X4X5X5X9X",
"8X8X4X4X8X8X8X8X9X!.D # < j $.r.k.N.B.B.B.M.l.l.h.k.M.M.M.M.M.z.N.M.M.N.M.M.N.z.b.z.M.M.B.M.z.x.t.4.m 9 O 5 Q.8X9X5X5X5X5X5X9X8X",
"8X4X4X>X4X4X4X8X8XQ.S # = j :.r.u.l.N.M.M.M.M.M.N.N.b.M.M.z.M.z.z.M.M.M.M.M.z.M.N.N.z.N.M.M.l.j.w.:.j 8 $ S Y.4X5X4X4X4X4X4X4X4X",
"4X4X,X>X,X,X,X,X,XQ.S # < x :.6.t.k.k.M.M.M.N.N.N.N.M.M.M.N.N.N.N.N.M.M.m.M.N.N.N.B.N.N.m.l.i.7.;.m p u D [ /.,X,X,X,X4X4X4X4X4X",
"5X8X5X8X8X5X8X5X8X!.S # 9 x :.6.6.0.y.k.M.B.B.M.M.M.N.N.M.N.N.N.N.N.M.m.m.m.B.B.6X6Xm.m.l.i.1.@.y w H } Q.-X1X8X8X(.8X8X8X8X8X4X",
"8X8X8X8X8X8X8X8X8X!.D # 9 x :.4.4.<.6.y.z.M.M.M.M.b.N.N.M.M.M.N.M.b.M.M.M.M.M.M.M.b.m.z.k.2.$.j * & K $X9X9X8X8X8X,X8X8X8X8X8X8X",
"8X8X9X8X8X8X8X5X5X!.S # 8 x ;.6.2.:.2.0.j.h.k.k.l.k.h.h.k.k.j.j.g.g.k.v.v.v.u.9.8.-.9.7.d.a.{ p $ O I -X9X9X8X8X4X,X8X8X8X8X8X8X",
"8X9X9X9X9X5X2X2X,X!.D # 9 x :.6.4.:.2.6.r.y.y.r.7.y.r.r.r.y.r.7.1.1.p.OX+XY.) a q q a c | K.K.T - X L ;X8X8X8X8X4X(.8X8X8X8X8X8X",
"8X9X8X8X8X8X5X5X8X#XD + 8 x :.6.6.2.<.<.<.2.2.<.2.2.2.2.6.2.2.;.+.+.! XX'.F.T & o   o : Q `.`.S.> @ F ^.8X8X8X8X8X(.8X8X8X8X8X9X",
"8X8X8X8X8X8X8X8X8X!.D # 9 x :.6.4.4.4.:.<.:.&.:.<.:.:.:.3.:.:.#.o.+.! R._.G.A.N .     - A ).[.K.G 0 ~  .&X:X8X8X8X>X8X8X8X8X9X9X",
"9X9X8X8X9X8X8X9X8X!.S % 9 x :.6.6.<.<.<.3.2.%.<.<.<.<.<.:.4.:.$.o.O.! F.}._.F.D.Z ;   . A ).[.E.s.*.~ / ( L.;X8X4X4X8X8X8X8X8X8X",
"8X8X8X8X9X9X9X9X9X!.S % 9 x :.6.6.4.<.<.:.2.4.<.<.<.<.3.<.4.2.*.o.O.Y F.G.}.}._.D.C # . Z G.[.=Xv.g.*.0 , K !.8X4X>X8X8X8X8X8X8X",
"8X8X8X8X8X8X9X8X9X!.S O 9 x :.6.4.<.<.<.<.<.<.<.<.4.<.<.<.2.<.;.@.+.&.K.W.].{.{.E.L e e E E.@X=X3XM.-.0 O 5 U.8X8X>X8X8X8X8X8X8X",
"2X8X8X,X8X,X7X8X5XP.s O 9 m 2.w.6.4.<.<.<.<.<.<.<.<.<.<.<.4.<.:.%.%.&.! XXOX+X=X%Xq./ >.s.oX%X3X6XN.8.t O 4 P.5X4X4X4X4X8X4X4X8X",
",X,X,X,X4X(.(.8X,XP.s O 9 b :.6.6.2.<.<.<.<.<.<.<.<.<.<.<.<.<.<.4.%.&.&.5.5.c.b.N.N.n.h.z.b.b.V.6Xm.-.t O 5 P.,X>X>X4X4X,X>X,X,X",
"8X8X,X,X8X8X8X8X9X#X( 2 9 j U :.<.<.<.2.:.<.<.2.<.4.<.<.<.<.<.2.4.4.4.1.,.1.r.n.M.N.N.m.M.l.l.n.n.8.~ w 2 L ~.5X4X4X8X4X8X8X8X4X",
"8X8X8X4X8X8X8X8X9X<XU.} / G y x #.,.,.,.,.1.:.6.6.2.<.<.2.2.<.4.6.4.2.:.,.1.e.g.j.x.k.x.x.j.i.9.=.v b / [ !.<X5X8X8X8X5X8X8X8X8X",
"8X8X8X4X8X8X8X8X5X5X2X<XI.J = w z %.1.,.,.,.2.2.6.6.4.<.2.4.<.<.4.4.<.2.<.2.6.6.w.w.w.q.t.r.2.M t 9 d Q.1X9X5X9X8X8X5X5X4X8X8X8X",
"8X8X8X>X8X8X8X4X4X5X4X5X&XP # * j 3.p.p.5.3.4.:.;.:.:.<.<.:.<.:.,.<.:.2.:.:.:.$.$.$.$.$.%.:.U y & 1 _ &X5X5X8X5X5X8X4X4X4X4X8X8X",
"8X8X8X(.4X8X8X8X5X5X5X8X&XK # : G | XXXXY.J.! c g x #.%.%.$.$.%.%.%.%.%.%.#.x g y y p g k x y u S _ Q.,X5X4X5X5X5X8X5X5X5X4X8X8X",
"8X8X8X>X8X8X8X8X8X8X5X5X/.J # : E R.'.].].R.W 4 * 0 h +.#.#.+.+.+.+.+.+.+.k r * @ & = * * 8 * J I.;X5X8X2X5X5X5X5X5X5X8X8X9X9X8X",
"8X8X8X,X5X8X8X8X8X8X5X4X~.F @ > Q `.}. X|.).A ; o 6 h +.+.+.O.+.+.+.+.+.+.k 8 @ O o X o O O 2 ] ;X9X9X9X9X9X9X9X9X9X9X8X8X9X9X8X",
"9X9X8X,X8X8X8X8X8X8X8X5X#XD o > S._. X.X X_.R ; o 6 h +.+.+.+.+.%.%.%.$.%.n g 8 % O X # 1 S ' !.5X8X9X8X8X5X2X2X5X9X5X5X8X8X8X8X",
"9X8X8X>X5X8X8X5X8X8X8X8X!.D o 3 S.'. X.X X'.R > o 6 h +.+.+.+.+.$.$.<.<.<.%.M k r 7 O & K U.:X5X8X8X8X8X5X5X5X5X5X5X9X8X8X8X8X8X",
"8X8X8X4X4X4X4X5X8X2X8X5X~.K * : W T.[.|.[.T.R ; @ 7 h O.+.O.+.#.$.4.6.4.2.%.%.+.k 9 7 : ' *X5X4X5X5X8X8X4X8X5X5X4X8X8X8X5X5X5X5X",
">X,X4X(.,X,X,X,X,X,X,X,X/...K D E S.D.H.D.S.W L S x r g h n +.+.$.$.:.:.:.%.%.%.O.h 8 w J ..~.(.:X,X,X>X,X,X,X,X4X,X(.>X4X,X>X4X",
"8X4X8X4X4X4X4X4X,X,X2X5X,X:X~.L.E V B V B V ' P.P.{ u 9 r k +.+.%.+.$.+.%.+.+.+.O.O.h h y u K ..-X5X5X5X,X,X,X2X4X,X5X5X5X5X5X5X",
"8X8X8X8X8X8X4X4X5X5X9X8X9X9X8X*X( = O @ O < } ;X>XU.u O 9 h +.+.+.+.+.n O.O.+.+.+.#.+.k r * = _ &X8X8X8X8X5X5X5X5X,X8X8X5X5X8X8X",
"5X9X9X9X9X9X8X5X8X5X9X9X9X9X9X-X_ & o o o & } 1X,XOXi # : k U U n O.+.n O.+.+.O.U &.%.O.r 7 $ I (.5X8X5X9X9X9X8X4X,X5X5X5X5X5X8X",
"9X5X5X5X9X8X8X8X8X8X8X8X9X8X8X9X8X8X8X8X8X8X8X8X4X9X5X9X5X5X5X9X9X9X9X9X5X8X8X5X5X5X5X5X5X5X9X5X5X5X5X5X5X8X8X8X8X(.8X8X8X9X9X9X",
"9X5X5X5X5X5X8X9X8X9X9X8X8X8X8X8X8X8X8X8X8X8X2X2X>X8X5X5X5X5X9X5X9X9X8X9X8X5X5X8X5X5X4X5X5X5X5X9X8X5X5X5X5X8X8X8X5X(.5X5X5X9X9X8X",
"9X5X4X4X4X5X5X8X8X9X9X9X8X8X8X8X8X8X8X8X8X7X,X,X>X8X9X9X5X5X5X9X5X5X5X8X8X9X8X8X5X5X5X5X5X5X5X5X8X9X8X8X8X8X9X8X8X>X4X4X5X8X5X8X",
"5X5X5X9X8X8X8X5X5X4X5X8X8X5X8X8X8X8X8X9X9X8X8X4X(.5X8X9X9X5X9X5X5X9X5X5X8X9X9X9X9X8X5X5X5X5X5X5X8X8X8X9X9X9X9X9X5X>X9X5X8X8X8X8X",
"9X9X9X5X8X8X5X8X5X5X8X5X2X4X4X5X8X8X8X8X8X8X8X5X4X8X8X8X9X9X5X9X9X5X5X5X8X8X8X9X9X8X5X5X5X5X5X5X8X5X5X8X8X8X9X9X5X4X8X8X9X9X9X8X",
"8X8X8X8X8X5X9X9X9X5X8X5X5X5X5X5X8X8X8X8X8X8X8X5X4X8X8X8X9X5X5X5X5X9X5X5X5X5X5X5X9X8X5X5X5X5X8X8X8X9X9X8X8X9X8X5X5X4X8X8X9X9X9X8X",
"8X8X8X8X8X5X9X9X9X9X8X5X5X8X8X5X8X8X8X8X8X8X8X5X4X8X8X8X5X5X5X5X5X5X4X4X4X4X4X5X5X5X5X9X5X5X8X8X9X9X9X9X9X8X8X8X4X4X8X8X8X8X8X8X"
};
