/* XPM */
static char *result[] = {
/* columns rows colors chars-per-pixel */
"64 64 179 2 ",
"   c #050E0E",
".  c #090D0E",
"X  c #07100E",
"o  c #000F10",
"O  c #041314",
"+  c #0B1313",
"@  c #0E1816",
"#  c #051518",
"$  c #0D1D1F",
"%  c #121615",
"&  c #1C1713",
"*  c #141916",
"=  c #1E1B15",
"-  c #121719",
";  c #141B1C",
":  c #1C1C1B",
">  c #201A17",
",  c #16201E",
"<  c #1B231F",
"1  c #2A221A",
"2  c #2D291E",
"3  c #35201B",
"4  c #3C241E",
"5  c #312A1F",
"6  c #3A2C1E",
"7  c #1A1F20",
"8  c #1B2322",
"9  c #1E2825",
"0  c #1C2329",
"q  c #252422",
"w  c #222A25",
"e  c #24252C",
"r  c #2A252B",
"t  c #232D2A",
"y  c #2C2B2D",
"u  c #3E2420",
"i  c #352D23",
"p  c #3B2E21",
"a  c #3B2A2E",
"s  c #26312C",
"d  c #3E3123",
"f  c #30302F",
"g  c #3D362B",
"h  c #272730",
"j  c #272E32",
"k  c #2A2934",
"l  c #302F31",
"z  c #312E3B",
"x  c #2E3A33",
"c  c #343335",
"v  c #333C37",
"b  c #3A3C35",
"n  c #35323C",
"m  c #38313B",
"M  c #3C3A3D",
"N  c #43231B",
"B  c #672A1D",
"V  c #5C2B23",
"C  c #453423",
"Z  c #4B3624",
"A  c #4C3826",
"S  c #4D3C2A",
"D  c #513323",
"F  c #523B26",
"G  c #523E2A",
"H  c #5B3D29",
"J  c #47343E",
"K  c #403B3E",
"L  c #513331",
"P  c #652E22",
"I  c #6B2E21",
"U  c #6C3424",
"Y  c #663827",
"T  c #733224",
"R  c #7F3425",
"E  c #613434",
"W  c #344138",
"Q  c #3A453C",
"!  c #3A493F",
"~  c #56412C",
"^  c #5C422D",
"/  c #444434",
"(  c #574530",
")  c #64452C",
"_  c #69452C",
"`  c #6D4C31",
"'  c #714E31",
"]  c #7E433A",
"[  c #755234",
"{  c #7C5334",
"}  c #785639",
"|  c #2F3343",
" . c #353341",
".. c #393442",
"X. c #343845",
"o. c #3D3A45",
"O. c #423C44",
"+. c #543B41",
"@. c #3C4C41",
"#. c #3F5143",
"$. c #464145",
"%. c #4B4346",
"&. c #414D44",
"*. c #434349",
"=. c #4D4649",
"-. c #4F4A4B",
";. c #50474B",
":. c #524B4D",
">. c #425245",
",. c #455649",
"<. c #4B544B",
"1. c #4C5B4E",
"2. c #52514F",
"3. c #554D50",
"4. c #535451",
"5. c #595453",
"6. c #565C54",
"7. c #585D56",
"8. c #5A5F58",
"9. c #614846",
"0. c #526354",
"q. c #586057",
"w. c #576558",
"e. c #5A6459",
"r. c #576959",
"t. c #5C6C5C",
"y. c #5E705F",
"u. c #5F7260",
"i. c #617562",
"p. c #647965",
"a. c #687967",
"s. c #6A7D69",
"d. c #883626",
"f. c #81362A",
"g. c #893728",
"h. c #8F3929",
"j. c #923826",
"k. c #9A3A27",
"l. c #953A29",
"z. c #813D38",
"x. c #A73F2B",
"c. c #93473D",
"v. c #99493E",
"b. c #8A5C36",
"n. c #8C5E3A",
"m. c #925F39",
"M. c #BE442D",
"N. c #B74532",
"B. c #8E613C",
"V. c #93633C",
"C. c #9A663E",
"Z. c #9E683D",
"A. c #A76C3E",
"S. c #D44A2F",
"D. c #CC4B34",
"F. c #D64E35",
"G. c #DC4D33",
"H. c #E24D31",
"J. c #EC5134",
"K. c #F25133",
"L. c #FD5536",
"P. c #946540",
"I. c #976842",
"U. c #9D6A41",
"Y. c #A36C42",
"T. c #A86D42",
"R. c #A77147",
"E. c #AD7245",
"W. c #B47443",
"Q. c #B97642",
"!. c #BD7A45",
"~. c #B17548",
"^. c #B77949",
"/. c #BF7A49",
"(. c #C07C47",
"). c #C27E4B",
"_. c #6D806C",
"`. c #C5814D",
"'. c #C68451",
/* pixels */
"`.`.`.!.).`.`.`.`.`.`.`.`.`.`.`.`.`.`.`.`.`.`.`.`.`.`.`.`.`.`.`.`.`.`.`.`.`.`.`.!.(.`.`.`.`.'.'.`.`.).(.).).!.).).).'.'.'.'.).'.",
"'.`.`.!.`.`.`.`.`.`.'.'.'.`.`.`.).`.'.'.'.'.`.`.`.`.).`.`.`.`.`.`.`.`.`.`.`.`.`.!.).`.`.`.`.`.`.`.`.).(.).).).).'.'.).'.'.'.'.).",
"'.'.`.!.).`.`.`.`.`.'.'.'.`.`.`.`.'.'.'.'.'.`.`.'.'.`.`.`.`.'.`.`.`.`.`.`.`.`.'.(.).`.`.`.`.`.`.`.`.`.`.'.'.'.).).'.'.'.`.'.).'.",
"`.`.`.!.).`.`.`.`.`.`.`.`.`.`.`.).`.'.).`.).`.'.'.'.'.'.'.'.'.`.`.`.`.`.`.'.'.'.(.).`.`.`.`.`.`.`.'.'.'.'.'.'.'.'.'.'.).).).).'.",
"`././.!.`.`.`./.(.).).'.'.'.'.'.`.`.).(.)./.).`.`.'.`.`.`.`.`.`.`.`.`.`.`.`.`.`.(.).`.'.'.'.'.`.`.`.`.'.`.`.).).).).).).).).`.`.",
"`.).).!.`.`.`.).).).).'.'.'.'.`.).`.'.).).).`.`.`.`.).).).).).`.`.`.`.`.`.'.`.'.(.(.`.'.'.'.'.'.`.).).`.`.`.).).).).).).).'.`.`.",
"'.'.'.!.).`.`.`.).`.).).).).`.`.).'.'.'.'.'.'.'.`.).`.(.).).(.).`.`.`.'.'.'.'.'.(.).`.`.`.`.`.`.`.`.`.).).).).).).).`.'.'.'.`.`.",
"`.`.`.!.).`.'.'.'.'.(.(.(.(.`.`.).'.'.)./././.(.(.(.`.`.`.).).`.`.`.`.`.'.`.`.`.(.).`.`.`.).).).`.`.).(.(.(.).'.).).`.`.`.`.`.`.",
"!.!.!.Q.!.!././.(.(.!.Q.!.!.!.!.(.!.(.(.A.(.!.Q.Q.!.(.!.(.(.(.!.(.(.(.(.(.(.!.(.A.!.(.(.(.(.!.!.!.(.(.(.Q.!.(.(.).(.(.(.(.(.(.(.",
"!.!.!.Q./././.).).W.Y.V.n.n.m.n.b.b.V.A.(.(.(.!.Q.!.!.!.!.!.!.!.(.(.(.(.!.(.!.!.(.(.(.A.!.^.!.!.!.!.(.(.(.(.(.(.(.Q.(.(.(.(.(.(.",
"`.`.`.`.'.'.'.'.'.R.} G C C C C 6 d H B.(.`.`.).!.`.`.`.`.`.`.`.).`.(.).`.`.`.).(.(.).(.).)./.).).).`.).).).`.`.(.(.).).`.).(.).",
"`.`./.`.`.`.`.`.'.P.G : + + % . + O 1 ` Q.`.`.(.!.`.`.`.`.`.`.`.`.`.`.`.`.`.`.`.).`.).).).).).).`.`.`.`.`.).`.`.(.(.).).'.'.'.`.",
"`.!.).).).'.`.'.'.I.C + ; 8 8 9 w s w ~ B.A.A.C.V.Z.Z.C.C.V.C.C.A.C.C.V.V.V.C.C.A.C.C.Y.W./.).).`.'.`.'.'.).`.`.).A.`.`.'.'.'.`.",
"`.`.`.`.).).).'.'.U.C + 8 x @.,.,.,.! / S A H F D F F A D A F D Z F F F D D A D D Z C ) n.!.(.(.).'.'.'.'.).`.`.).(.`.`.`.).`.`.",
"`.`.`./././.).).).I.C % 9 @.0.u.a.u.0.Q < @ % % * % % % % % % % % % % % * % % % % . + 2 ' W.'.).`.`.`.`.`.`.`.).`.(.`.`.`.`.`.`.",
"`.'.'.`.'.).).E.T.{ p + 9 #.u._._.i.w.! w - - ; : < < 9 9 8 9 8 9 8 9 < 9 9 < 9 8 9 8 w ( B.E.).`.`.'.'.'.'.'.'.(.!.`.`.'.'.`.`.",
"`.`.'.'.'.`.`._ ^ C > . < >.i.s.a.e.6.$.c y y l f v Q #.@.! ! ! ! ! ! ! ! ! ! ! ! #.! W b S _ V.).`.'.`.'.'.'.'.).!.`.`.'.'.'.`.",
"`.`.`.`.`.`.`.< : % .   8 @.t.i.e.4.=.%.$.K K O.$.:.q.r.y.r.r.r.r.r.r.r.r.r.r.r.r.y.y.1.W * 1 _ Q.).`.`.'.).).`.).!.`.`.`.`.`.`.",
"`.`.`.`.`.'.'.@ + @ @ , s >.r.t.7.;.%.;.:.3.3.:.3.8.t.t.p.p.p.p.p.p.a.p.a.a.p.i.p._._.r.! s : S n.Q.`.`.`.`.`.`.).!.`.`.`.`.`.`.",
").!.!.!.!.).).+ @ , s W >.<.6.5.:.;.=.:.7.8.e.e.8.8.e.t.r.i.p.a.a.i.i.p.p.p.p.a.p.s.p.y.0.>.x b G ` m.!.(.(.(.(.!.Q.(.(.(.(.(.(.",
"(.(.(.A.!.!.!.  + 9 @.0.e.6.-.=.%.%.-.6.t.t.i.u.t.6.2.2.5.t.u.p.i.u.i.i.u.u.i.u.i.i.i.u.u.t.1.x < 1 ) A.Q.!.!.Q.Q.Q.Q.!.(.!.!.!.",
").`.`.!.).`.`.  + t ,.i.p.q.:.=.%.%.-.6.t.i.p.a.i.6.:.%.2.r.y.u.i.u.u.u.u.u.u.u.u.u.u.i.a.s.y.#.t % C n.Q.).!././.!./.).).`.`.`.",
"`.`.`.!.).`.`.  + s 1.a.s.a.q.5.:.%.-.0.y._.p.p.i.q.-.%.-.e.i.i.u.u.u.u.u.u.u.u.u.u.u.i.p.a.i.1.b e i ~ [ V.W.).).).).).'.'.`.`.",
"`.'.`.!.).`.`.  + s ,.p.s.a.i.e.6.;.-.0.r.y._.p.y.6.-.%.2.r.y.i.i.u.u.u.u.u.u.u.u.u.u.u.i.a.y.6.-.M y q i ^ U.'.`.'.`.).`.`.'.`.",
"`.`.`.A.).`.`.  + w @.r.u.u.y.r.2.-.-.5.t.t.i.u.t.6.:.-.4.r.u.i.u.u.u.u.u.u.u.u.u.u.u.u.u.u.u.e.5.%.m 7 + C P.'.'.'.).).(.).).'.",
"`.`.`.!.).`.`.+ + 8 x ! #.#.@.@.&.%.-.2.6.0.q.7.q.6.2.6.q.t.u.i.u.u.u.u.u.u.u.u.u.u.u.u.u.p.u.e.5.=.c 7 + d B.`.`.`.`.`.).).).).",
"`.'.`.Q.).`.`.+ @ * < 9 9 < 8 t v $.:.:.-.:.:.;.2.2.e.t.y.y.y.u.u.u.u.u.u.u.u.u.u.u.u.u.u.u.u.e.4.%.c 7 + C B.).).).`.`.`.'.`.`.",
"'.'.`.A.`.`.`.* * @ + + +   + ; l $.:.;.-.-.%.%.-.6.t.i.y.p.i.u.u.u.u.u.u.u.u.u.u.u.u.u.u.p.u.e.3.%.l 7 @ C B./.).'.).).).).`.`.",
"`.`.).Q.).`.`.H A p = X + @ : r c %.:.2.2.2.2.2.2.e.y.p.p.y.i.y.u.u.u.y.i.i.i.u.i.i.i.u.t.r.7.5.3.$.c : @ Z V.'.'.'.).(.).).).`.",
"`.`.`.!.`.`.`.A.I.' 6 + - e c K O.%.;.6.e.t.t.t.r.y.y.p.u.p.u.p.u.p.u.p.i.u.u.p.i.i.p.u.e.4.3.3.:.%.c 8 % Z V.'.'.`.).).).).`.`.",
"`.(.(.Q.(.(.(.).).V.C * 8 c %.:.;.=.;.6.t.i.i.y.u.u.u.y.y.i.u.y.u.u.y.u.u.u.u.u.i.i.u.t.6.-.%.;.:.%.c 7 % Z m.(.).(.(.).(.(.).).",
"(.(.(.Q.!.!.!.!.!.V.A @ 7 m -.:.:.;.;.6.e.t.t.t.t.e.e.e.r.r.e.e.r.t.e.e.e.e.r.e.e.r.r.q.4.-.%.=.-.$.c 7 % C b.(.Q.Q.(.Q.(.(.(.(.",
").`.).).).`.).`.`.V.Z - 8 c =.:.:.%.-.:.2.4.4.5.4.4.4.4.4.4.4.4.4.2.4.2.4.4.2.4.2.5.2.2.:.-.=.;.:.%.c < @ C V.`.).Q.).).`.).).`.",
"`.`.`.`.`.`.`.`.`.V.C % 7 c %.:.;.-.=.=.-.%.-.;.=.=.;.%.%.;.%.%.=.-.=.=.=.=.=.=.=.=.-.%.%.-.=.:.:.%.c : * C V.`.`.Q.`.`.`.`.`.`.",
"`.`.'.'.`.`.).).).V.C % 7 c %.;.:.-.=.%.%.%.%.%.%.%.;.%.%.%.;.;.%.%.%.%.%.%.%.%.=.%.=.%.%.-.-.:.:.%.c 8 % A V.`.).Q.`.`.(.`.`.`.",
"`.'.'.'.'.`./.(./.V.Z % 7 c %.:.;.=.-.=.%.=.%.=.;.%.%.%.;.%.O.=.%.=.=.=.=.%.=.=.=.%.=.%.%.;.%.;.;.%.c 7 @ A V.`.).Q.`.`.`.`.`.`.",
"`.`.`.`.'.`.).).`.V.A @ 8 c %.:.:.%.;.=.=.-.=.=.=.=.=.=.=.=.=.=.=.=.=.=.;.=.=.=.%.;.-.%.%.-.;.;.:.%.c 7 % Z V.`.`.!.`.`.`.'.'.'.",
"`.'.`.`.).`.`.`.`.P.C @ 8 c %.:.:.;.%.-.=.;.=.=.=.=.=.;.=.=.=.-.;.=.=.=.=.=.=.=.%.-.%.-.=.%.-.:.:.%.c 8 + C B.'.`.A.`.`.`.'.'.'.",
"'.'.`.`.`.`.'.`.`.B.d + 8 m ;.:.:.-.=.=.=.=.=.=.=.=.=.=.=.=.=.=.%.-.=.-.=.=.=.=.%.;.%.-.;.%.;.2.3.=.m 8 + d P.'.(.!.`.`.`.(.`.`.",
"`.`.`.`.'.'.'.'.'.V.d + 8 b %.:.:.;.%.-.=.=.=.-.=.=.=.=.=.-.=.=.;.%.%.-.=.=.;.=.-.%.-.%.-.;.;.:.:.=.c 9 + C B.`.(.Q.`.`.`.`.`.`.",
"`.`.`.`.`.`.`.`.`.U.^ 2 q f M $.%.;.=.:.=.=.=.=.=.-.%.=.=.=.=.=.-.%.=.=.=.=.=.=.=.=.-.=.;.;.-.%.%.K f q 2 ) Y.).).!.`.`.`.`.`.`.",
").`.!.`.`.`.!.`./.E.V.[ ~ g y c / ;.:.:.;.-.-.=.;.=.-.=.-.;.=.-.=.-.-.;.=.-.:.=.=.;.-.;.:.:.=.O.c y g ~ [ m.E.(.(.!.(.(.`.(.(.`.",
"Q.Q.!.!.!.Q.!.!.!.!.!.W.b.Z : 9 m -.:.:.-.-.%.;.;.-.;.:.=.-.=.:.=.-.%.;.=.=.-.;.-.-.%.;.:.:.=.c < : Z b.A.(.(.(.!.A.(.(.!.!.!.!.",
"`.`.`.Q.).).`.`.'.`.`.'.R.H + * e M $.=.%.=.%.%.%.%.%.O.%.%.O.=.%.=.%.%.%.%.%.%.%.=.%.%.=.$.M e @ % H A.).).).).(.(.`.`.(.`.(.`.",
"`.`.`.(.`.`.`.`.'.'.'.'.~.H @ O $ 0 k z o.O.O.O.O.O.O.O.O.O.o.O.O.O.O.O.o.O.O.O.O.O.O.O.m j 0 $ O + ^ ~.'.'.'.'.`.`.`.).`.`.`.`.",
"`.`.`.`.).`.`.`.).`.).`.T.G @ O O O 7 e n ..O.....................................o...z e $ # O O @ ~ R.'.'.'.).).`.).).`.).`.`.",
"`.`.`.A.).`.`././././.~.V.H 1 > & % : r z ..o. . ..... .................n .... .....o.z r : & & > > H V./.).`.).`.).(.(.(.(.`.`.",
"`.`.'.A.).`.`.`.).E.V.[ _ Y P I B B P L O.o.o. .....o.O.O.O.O.O.O.o.O.O.O.O... ...o.o.O.L V B B I P Y _ ' m.W.).).`.).).).(.`.`.",
"`.'.`.!.`.`.`.`.`.A.^ 2 4 T x.M.M.x.x.] +.O.o.X. .o.O.=.;.O.;.*.:.O.+.O.+.O.O...X.o.;.+.R x.x.M.M.x.T 4 2 ~ C./.).`.`.`.`.'.'.`.",
"`.`.`.!.).`.`.`.(.V.d + 4 g.D.J.K.H.F.v.9.*.o.....o.O.;.3.+.;.;.:.;.3.3.O.O.J ..X.o.O.5.v.D.J.K.J.F.d.4 @ d P.'.'.).`.`.`.'.'.`.",
"'.'.`.A.`.`.`.`.`.n.6 O 4 j.G.L.L.K.F.v.9.o.X.X...o.O.O.O.O.O.O.O.O.O.O.O.O.O.z X.X.@.+.v.F.K.L.L.G.h.u O 5 n.).).`.`.).`.`.`.`.",
"'.'.'.(.`.`.`.`.`.V.i O 4 h.F.L.L.J.F.c.+.X.X.| ....O.O.O.O.O.O.O.O.O.O.O.O..... .X.X.+.c.D.J.L.L.F.h.4 + i n.).).'.`.`.`.`.`.`.",
"`.`.(.!.(.`.`.`.).B.A * 3 f.D.S.G.S.x.z.+. .|  ... ... ... . . .X.|  . . . . . . .| | +.z.N.F.H.G.M.f.3 * A V.).`.`.(.`.).).).`.",
"!.!.!.!.!.!.A.(.!.A.' A Z U d.j.k.j.g.E m | |  . ... . .z k h h k k k | z  ..... .| | O.E f.h.k.l.d.U D A ' C.!.(.A.!.!.!.!.!.!.",
"(.(.`.(.(.(.!.(.!.W.E.V.{ H N N N N u a m  . ... ..... .k 0 - 7 - 7 0 k  .O... . . . .z a N N N N N H { V.T.W./.(.A.).).).).).(.",
"`.`.`.`.`.(.(.(.).`.`.).Y.^ * + + + - 0 z ............ .r 7 + . . + ; k  .........O...z 7 - + + @ * G Y.`.).).).`.`.`.).).).`.`.",
").'.'.).'.'.`.).`.).'.'.R.~ - O     # 0 z o...o.......J k : . & . . 7 k  .O... .O..... .0 # + . o - H W.`.'.'.`.`.!.`.(.(.(.).'.",
"'.'.).).'.`.`.`.`.`.`.`.`.'.`.).`.`.`.`.'.).`.).(.'.).'.).'.).).).).'.'.).).).).).).).).).).).'.`.(.(.(.).'.`.`.(.Q.`.).'.'.'.'.",
").'.).).).).`.'.'.'.`.'.`.`.`.).`.`.`.`.).).)./.!.).).`.).).).'.).'.'.'.'.).).).).).).).).'.).).`.).).).).`.`.`.(.(.(.).).'.'.'.",
"'.).).(.).).).`.'.'.'.'.`.`.`.`.`.`.`.`.'.)./.!.Q.).`.'.).'.'.).).).).'.).'.'.'.).).).).).).).'.`.`.`.`.'.`.'.`.).A.(.).).).).).",
").`.).`.`.).`.).(.(.).`.`.).`.`.`.`.`.'.'.`.`.).Q.).).'.'.).'.'.).).).).'.'.'.'.'.`.).).).).(.).`.`.`.`.'.'.'.'.).!.).`.`.`.`.`.",
"`.`.`.`.`.`.`.).).).`.)./.).(.).`.`.`.`.`.`.`.).!.).).'.'.'.'.).).).).).).'.'.'.'.`.).).).).).).`.`.`.`.`.`.'.'.).(.`.`.'.'.'.`.",
"`.`.`.`.).`.'.'.'.).`.).).).(.).`.`.`.`.`.`.`.).(.`.).`.).).).).).'.).).).).).).`.`.).).).).`.`.'.'.'.`.'.`.`.).).(.`.`.'.'.'.`.",
"`.`.`.`.'.).'.'.'.'.`.`.).).).'.`.`.`.`.`.`.).).(.`.).'.).).).).'.).(.(.(.).).).).`.).'.).).`.`.`.'.'.'.'.`.`.`.).!.`.`.`.`.`.`."
};
