/* XPM */
static char *result[] = {
/* columns rows colors chars-per-pixel */
"64 64 190 2 ",
"   c #060D0F",
".  c #080E0F",
"X  c #020E11",
"o  c #080F10",
"O  c #061213",
"+  c #0C1313",
"@  c #031218",
"#  c #0B161B",
"$  c #0E181A",
"%  c #111615",
"&  c #1D1713",
"*  c #141916",
"=  c #1A1C16",
"-  c #121719",
";  c #131B1B",
":  c #1B1D1A",
">  c #231D16",
",  c #291A15",
"<  c #251D18",
"1  c #2B1E1A",
"2  c #16211D",
"3  c #1A211E",
"4  c #232017",
"5  c #22221A",
"6  c #2B241D",
"7  c #2E281E",
"8  c #34231C",
"9  c #37251D",
"0  c #3A2A1E",
"q  c #161C20",
"w  c #1A1E21",
"e  c #172125",
"r  c #1B2121",
"t  c #1F2A26",
"y  c #1C232C",
"u  c #232322",
"i  c #212A25",
"p  c #2C2822",
"a  c #23252B",
"s  c #232B2B",
"d  c #292A2C",
"f  c #342C23",
"g  c #392E21",
"h  c #322C28",
"j  c #25312B",
"k  c #2A352F",
"l  c #3D3122",
"z  c #32322D",
"x  c #3E322B",
"c  c #393B2F",
"v  c #272830",
"b  c #2A2A33",
"n  c #2D2D3A",
"m  c #302E31",
"M  c #312E3A",
"N  c #2A3332",
"B  c #343335",
"V  c #373833",
"C  c #35333D",
"Z  c #393639",
"A  c #3B3B3C",
"S  c #52261D",
"D  c #432F21",
"F  c #453423",
"G  c #4A3624",
"H  c #4B3926",
"J  c #41352B",
"K  c #4D3B29",
"L  c #553D27",
"P  c #5C3D27",
"I  c #543B28",
"U  c #543D29",
"Y  c #403C3F",
"T  c #4B3A3B",
"R  c #583532",
"E  c #7C2F20",
"W  c #673526",
"Q  c #733225",
"!  c #7B3223",
"~  c #7D3C37",
"^  c #35433A",
"/  c #3A473D",
"(  c #394A3D",
")  c #55412D",
"_  c #5D442C",
"`  c #464635",
"'  c #63452D",
"]  c #65492F",
"[  c #6C4A2D",
"{  c #714D2E",
"}  c #654930",
"|  c #6D4D32",
" . c #765134",
".. c #7D5433",
"X. c #7F5835",
"o. c #2F3343",
"O. c #363342",
"+. c #3A3542",
"@. c #3D3A45",
"#. c #4D3740",
"$. c #423C44",
"%. c #4C3D43",
"&. c #453E48",
"*. c #3E4544",
"=. c #3E4D42",
"-. c #454245",
";. c #4A4346",
":. c #404F44",
">. c #474148",
",. c #4D4649",
"<. c #4E4A4B",
"1. c #584547",
"2. c #50474B",
"3. c #524A4D",
"4. c #425145",
"5. c #47574A",
"6. c #4D564D",
"7. c #47594B",
"8. c #4B5A4E",
"9. c #52514F",
"0. c #564E50",
"q. c #545451",
"w. c #595554",
"e. c #565C54",
"r. c #595D57",
"t. c #5A5F58",
"y. c #674946",
"u. c #4F6051",
"i. c #556556",
"p. c #576558",
"a. c #5A6459",
"s. c #5C6C5C",
"d. c #5E705F",
"f. c #5F7260",
"g. c #617562",
"h. c #647965",
"j. c #687C67",
"k. c #6A7E6A",
"l. c #843424",
"z. c #933928",
"x. c #85403B",
"c. c #825533",
"v. c #855935",
"b. c #8C5C36",
"n. c #865B39",
"m. c #8C5D39",
"M. c #915F37",
"N. c #925F3B",
"B. c #AE412E",
"V. c #BA442D",
"C. c #A54737",
"Z. c #BC4937",
"A. c #8E603B",
"S. c #936037",
"D. c #94633C",
"F. c #9B663D",
"G. c #9D693F",
"H. c #A66B3E",
"J. c #AA6E3F",
"K. c #C9452B",
"L. c #D5492D",
"P. c #D94D33",
"I. c #8B5E48",
"U. c #956642",
"Y. c #946444",
"T. c #9C6A43",
"R. c #A46C42",
"E. c #A96F42",
"W. c #AC7245",
"Q. c #B47443",
"!. c #B97642",
"~. c #BD7A45",
"^. c #B1774A",
"/. c #BF7B49",
"(. c #C07C47",
"). c #CD7F45",
"_. c #C27E4B",
"`. c #C87D4C",
"'. c #6C806C",
"]. c #C5814D",
"[. c #DF894A",
"{. c #C68451",
"}. c #E58D4C",
"|. c #EB904D",
" X c #F1944F",
".X c #FB9951",
"XX c #FFA455",
"oX c #FFA956",
"OX c #FFAD5A",
"+X c #FFB25B",
/* pixels */
"].].].~._.].].].].].].].].].].].].].].].].].].].].].].].].].].].].].].].].].].].~.(.].].].].{.].].].].~./././._.{.{.{.{.{.].].].",
"{.].].~.].].].].].].{.{.{.].].].].].{.].{.{.].].].]._.].].].].].].].].].].].].].~._.].].].].].].].]._._._./.(._.{.{.].{.{.].].].",
"{.{.].~._.].].].].].{.{.{.].].]._.{.{.{.{.].].].].{.].].{.].].].].].].].].].].].~.].].].].].].].].].].].{.{.{.`.`.{.{.].].].].].",
"].].].~._.].]._.].].].].].].].].].].].].].].].{.{.{.{.{.{.{.{.].].].].].].{.{.{.~.].].].].].].].].{.{.{.{.{.{.{.{.{.{._.].].].].",
"]././.~.].].]._.(.(.].].{.{.{.]._.]._./././._.].].{.].].].].].].].].].].].].{.].~.].].{.{.{.{.{.].].].].].]._._./._._._._.].].].",
"]._._.~._.].]._.(.(.].].{.{.{.].].`.{._._._.{.].].].]._._._./.].].].].{.].].].{.~.(.].{.{.].{.].].].].].].].(.(._./._._._.].].].",
"{.{.{.~.].].].].{.`.].].].].].]._.{.{.{.{.{.{.].].].]./._.(.(.].].].].{.{.{.{.{.~.].].].].].].].].]._.]._._.].].`.{.].{.{.{.].].",
"].].].~._.].{.{.{.U.H % + o . .     > | ^././.~.~._.]._.]._.`.].].].].].].].].].~._.].].].].`._.].]._.~././._.].]._.].].].]._.].",
"(.~.(.!.~.(./././.D.H * + + + + + + 5 ] H.~.~.~.~.J.~.~.].J.~.(.(.(.(.(.(.~.(.(.J.(.(.~.(.(.(.~.(.(.~.~.~.~.~.(.~.~.(.~.(.(.(.~.",
"~.(.~.!.(././././.D.H % ; r t s j j z _ X.S.S.S.M.M.M.M.S.A.A.A.b.b.b.b.M.b.b.b.M.b.b.M.R.!.~.~.~.~.~.(.~.~.~.~.~.Q.~.~.~.~.(.~.",
"].].].].{.{.{.{.{.T.U * e k =.7.6.5.4.` H F G F F G F F F F F F F F G F F F G F D 0 0 P m.~./._.]._._.]._.].].]._.~._.].].].].].",
"]./././.].].{.].].D.G + t =.p.h.j.g.i.^ 3 + o % & % % % % % % $ % % % % % % + % % + o 4 | W._.`.].].].].].].].]._.!.].].{.{.{.{.",
"]./././.].].].W.R.{ 0 + t 4.d.'.k.j.t./ a ; ; : 3 t t t j t t t u t t t t t t t i i t i ) n.E.!.].].{.{.].].].].].J.].].{.].{.].",
"].].].].`._._._ ) l &   t =.d.'.g.s.w.;.Z m m m z V =.=.=.` =.=.=.=.4.( =.=.=.=.4.4.4.^ c F P b./.{.{.{.].].].].].~.].].].].].].",
"].].]./.(./.(.3 = + . . t =.d.g.a.3.,.;.;.%.$.%.;.9.i.s.d.s.s.s.s.s.s.s.s.s.s.s.s.d.d.u.^ $ 5 ' W.].].].].].].].(.(.].].].].].].",
"].{.{.].]._._.+ + $ ; 2 k 4.p.s.e.,.;.<.3.q.q.0.q.r.s.g.h.g.h.h.g.h.h.h.h.h.g.h.h.'.'.s.=.k 2 H n.W.].].{.{.{.{.(.!.].].{.{.].].",
"].{.{.{.{.].].+ + e k ( 4.8.q.9.3.,.;.9.t.a.t.t.t.t.r.a.a.g.g.h.h.g.h.h.h.h.h.j.h.j.'.f.i.4.V c K ] D./.{.{.{.].].!.].].{.{.{.].",
"].].].].].].].  + t =.i.p.e.3.2.;.;.2.e.s.d.g.g.s.r.9.3.w.a.g.g.g.g.f.f.f.f.f.f.f.f.f.f.f.d.u.^ e 4 _ E.].].].].].~.].].].].].].",
"].].].].].].{.  + j 7.g.h.t.3.2.;.;.9.i.d.h.h.h.d.i.3.;.9.a.f.g.g.f.f.f.f.f.f.f.f.f.f.f.'.j.d.4.s % F n.^._.].]./.~.].].].].].].",
"(.(.(.~.(.(.].  + j 8.j.k.h.a.w.3.2.<.e.d.d.'.h.f.i.2.;.3.a.f.g.g.f.f.f.f.f.f.f.f.f.f.f.h.j.d.6.A d h K [ b.J.~.~.~.~.~.(.(.(.(.",
").J.).~.~.(.~.X + j 5.g.k.k.g.s.q.,.,.e.d.g.h.h.d.e.3.;.9.s.f.g.f.f.f.f.f.f.f.f.f.f.f.f.g.g.d.a.<.Y d u 6 L D.~.!.Q.~.~.~.~.~.~.",
"].].].J./.].].. + i ( i.f.s.s.i.6.,.3.e.s.d.d.d.s.i.9.2.9.p.f.g.g.f.f.f.f.f.f.f.f.f.f.f.g.g.d.a.w.,.B r + F m.~.~.~.~./.].].].].",
"].].].].].].].O + e k ( =.( ( / :.;.,.9.q.i.i.e.e.q.w.e.p.s.f.f.f.d.f.f.f.f.f.f.f.f.f.f.g.g.g.a.w.;.B w + l m.]._.`._.].{.{.].].",
"].].].J.].].].+ + * 2 e r 2 ; t V ;.3.3.3.<.<.,.9.q.p.s.d.d.f.f.f.f.f.f.f.f.f.f.f.f.f.f.g.g.g.a.q.;.B w + F D.].{.].].].].{.].].",
"].].].J.].].].2 * % + . . . + : m ;.2.2.2.,.;.,.3.q.d.g.h.g.f.f.f.f.f.f.f.f.f.f.f.f.f.f.g.f.s.r.q.%.B w $ H U.{.{.{._./././.].].",
"].].[.J.(.].]._ ) F 4 . + - w d Z ;.2.9.9.e.q.q.e.p.d.g.g.g.g.g.g.g.g.f.f.g.g.f.g.g.f.f.s.s.r.e.3.-.B 2 % H D.].].].]._.`.].].].",
"{.{.].J.].].].J.G. .g + ; d Z $.;.;.3.e.a.s.s.s.d.d.g.g.g.g.g.g.f.g.f.f.f.f.f.h.g.g.g.d.p.q.<.3.3.;.B r % F A.]._.].].].].].].].",
"{.{.].~.(.].].].].G.H % w V ;.3.2.;.<.e.s.g.g.d.d.d.d.d.d.d.d.d.d.d.f.f.f.f.d.f.f.g.d.s.e.<.;.2.,.;.V 3 % F A./._.].]._._._.].].",
"].].].J.].].].].].G.) + 2 V ,.0.2.,.<.q.p.s.s.s.p.p.a.p.a.a.a.a.a.a.a.a.p.p.p.a.a.a.a.r.q.,.;.,.3.;.B w % H D.{.{.{.]././.(.`.].",
"].].].).].].].].{.G.H % r V ;.3.3.,.<.3.9.9.9.9.9.9.9.9.9.9.9.9.9.9.3.q.q.9.q.3.9.9.9.9.2.2.;.2.3.;.B r % F D.{.].].].]._.].].].",
"].].).J.).].(.].].A.F % r B -.3.2.,.,.,.;.2.,.2.2.2.,.2.;.,.,.,.,.,.,.,.,.,.,.,.2.,.,.,.,.,.,.3.3.-.B r % F A./.~./.].~.~.]././.",
"J.].J.(.~.~.~.~.~.A.F % r B ;.3.3.2.,.;.;.;.;.;.;.;.;.;.;.,.;.;.;.;.;.,.;.;.;.;.;.;.;.;.,.,.,.3.3.;.B w % F S.~.~.!.~.~.~.~.~.~.",
"]./.]._._.]._.]._.D.G % r B ;.3.3.,.,.,.,.,.;.,.,.;.,.,.;.,.,.,.;.,.,.;.,.,.;.,.,.,.,.,.,.,.,.3.3.;.B r + G D.].~.~.].].].].].).",
"].].].].].].].].].D.F % w B ;.3.3.,.,.,.,.,.,.<.,.,.,.,.,.,.,.,.,.,.,.,.,.,.,.,.,.,.,.,.,.,.,.<.3.;.B w $ G D.]._.~.].].].].].].",
"].].{.].].]._.`._.D.F + r V ;.3.3.,.,.,.,.,.,.,.,.,.,.,.,.,.,.,.,.,.,.,.,.,.,.,.,.,.,.,.,.,.,.3.3.;.V w * H D.]./.J.{.].(.].].].",
"].{.{.{.{.]./.(.(.m.g + r Z 2.0.9.,.,.,.,.,.,.,.,.,.,.,.,.,.,.,.,.,.,.,.,.,.,.,.,.,.,.,.,.,.,.3.0.,.C r * H D.]._.Q.].].].].].].",
"].].].{.].]._._.{.D.F + r V ;.3.1.<.,.,.,.,.,.,.,.,.,.,.,.,.,.,.,.,.,.,.,.,.,.,.,.,.,.,.,.,.<.3.3.,.V w % G D.].].J.].).].{.{.{.",
"{.].].].].].].].{.R.} f p z A &.;.,.,.3.,.,.,.,.,.,.2.,.,.,.,.2.2.,.,.2.2.,.2.,.,.,.<.,.<.,.,.-.$.Z s 2 + H D.{.].J.].].].].{.{.",
"{.{.].].].].{.].].^.T.c.] J s B Y 2.3.3.3.,.,.,.,.2.,.,.<.,.,.<.,.,.<.,.,.2.,.,.<.,.<.<.<.>.*.o.s e $ $ ; K U.{.].~.].].].].].].",
"].].].].{.{.{.{.{.].]./.D.K = 3 V ,.3.3.,.3.,.3.,.,.,.2.,.,.,.,.,.3.,.2.,.,.,.2.,.,.<.<.<.<.@.N q @ O $ * K D.].].!.].].].].].].",
"].].].].].{.].].{.].].].R.) + * s Z $.-.-.>.>.,.>.;.>.;.;.&.;.%.;.;.-.;.%.-.;.;.;.>.>.,.1.y.y.R 9 , & * $ H D.].).J.].].].].].].",
"]././.(.]./.(.]././.]./.H.) % $ ; r y n o.+.@.@.$.$.$.$.$.$.$.@.Y $.$.@.$.$.$.@.@.@.@.%.y.C.C.C.z.E S < O l A.(.].~.].].].).~.].",
"~.~.~.~.~.~.~.~.~.~.~.~.S.L * + O O # y n O.O.@.@.O.O.+.+.O.+.+.C +.C +.+.+.+.+.O.o.O.%.x.Z.P.P.P.V.! 9 O g b.~.J.!.).J.).J.J.).",
"/.].(.~.(./.].].].{.].{.T.) = % * > 7 x T %.$.@.+.o.+.+.+.+.+.+.+.+.+.+.+.+.C +.O.o.o.#.~ B.K.L.L.V.! 0 5 ) D.].].].(.].].].].].",
"].].].).].].].{.{.{.{.{.T.I * 3 G { c.N.Y.I.y.&.+.+.@.>.&.&.$.$.&.$.&.$.&.$.+.+.O.@.$.T R Q E l.l.Q W ' | I.^.].].].].].].].].].",
"].].].].].].].].`._._._.F.G % 7 ..J.}.|.}.`.I.1.o.+.>.3.2.,.;.;.;.;.,.,.;.&.+.C O.&.;.;.x p , , 1 , I m.^.{.].].].].].].].].].].",
"].].].J.].].].(././._._.F.H + 0 M.}.XXoX.X|.R.%.n n @.;.;.,.2.2.,.,.,.,.,.;.@.+.@.&.,.$.b # X   O 3 } W.`.].].]._._.~.~.~.~.].].",
"].].{.J./.].]./._._._._.F.G   0 F. XOX+XoX XH.T y y d B A $.&.&.;.-.&.-.-.$.+.+.@.@.&.@.s # O 5 F ' I.~.(.(.(./._.].(.].].~.].].",
"].].].J.].].].].].].].].S.F   0 S.|.oXOXoX|.S.l $ @ ; : a C $.&.$.+.+.#.O.#.O.O.+.@.@.+.a * * F v.W./.{._._._./.].{.].].].{.{.].",
"].].].).].].].].].].].J.F.L = 7 c.]. X.X X).v.0 + + + * u b M +.O.O.O.O.O.O.O.$.+.+.+.M a * 3 _ W.{.{.{.{.{.{.{.{._.].].].{.{.].",
"{.{.{.J.(.].].].].].).].E.c._ ) [ v.F.H.F.v.{ ) L L P K x a d n O.O.O.O.O.O.O.O.+.+.+.M s ; % _ W.].].{.]././././.].].].].].].].",
"{.{.].(.].].].].].].].]./.Q.R.m._ g F H F 0 ' b.R.W.W.G.] p q a M +.$.O.O.O.O.O.+.$.@.O.a ; % L R.].].].]./.]./._.].].].].].].].",
"].].).J.].].].]././.]._./.~.~.R.' : o O o : _ E._._.(.].v.l % 2 v O.O.#.O.+.O.O.O.+.+.M a ; 3 _ R.].].].(.]./.].].]./.].]./.]./.",
").J.~.J.~.~.].J.~.~.~.~./.~.!.Q...I 9 8 9 I ..Q.J.~.~.(.F.[ F f v b n M O.+.+.O.O.M b v h l L c.J.~.~.~.~.~.~.~.J.J.~.~.~.~.~.~.",
"].].].].(.(.J.).~.~.]._._._._./.E.D.m.n.v.N.R.Q.(.].(.(.~.J.A.] g w y n O.+.+.+.M v w u K n.G.Q.~./.]./.~.~.~./.].~.~.].].(./.].",
"].].].].].].].]._.].].{.].].{.].].].{.].`._._./.(.].].{.].].].A.D + q v O.+.&.+.M a - < } W.].].].].].].]./._.].].).].].~.].].].",
"{.`.{.{.{.{.].].].].{.{.{.{.{.{.].].{.{.{.{.{.].!.{.{.{.{.].].D.D + ; v O.@.@.+.n y + 4 | /.].].]._.].`.].{.{.{.(.J._.(.(.(.].].",
"].{._.`.].].].].].].].].].].{.].].].].].{.].].].~.].].].].].].].{.{.{.{.].]._.`.{.`.].].].{.]._.]._./.(.].{.].].].~.].].{.{.{.{.",
"]._._._._._.].].].{.].{.].].]._.].].].].]._././.~.].].].].].].].`.{.].{.{._.{._._._._._._.].].].]._._._._.].].].].J.].(.].].{.{.",
"].]._.(.(.(.].].].{.{.{.].].].].].].].].].]./.~.Q._.].].].].].].`.{._.].`.].].{._.(././.].]._.].].].].].].].].].].J.).)./.].`._.",
"].].]._.].].].(././._.].].].].].].].].{.{.].].(.Q./.].{.{.].].].].].].{.].{.{.{.{.].].].]._./._.].].].].{.{.{.{.].J.].].].].].].",
"].].].].].].]._._._.]._././.~._.].].].].].].]._.~.].].].].].].].].].].`.].].].{.].]./././._._.`.].].].].].].{.{.].~.].].{.{.{.].",
"].].].].].].{.{.].].]._._./._._.].].].].].].]._.~.].].].].]._._._.].(._.(._._._.].]._.(.(._.].].].{.{.].].].].].].~.].].{.{.{.].",
"].].].].].].{.{.{.]._.].].].`.].].].].].].].]._.~.].].].].]././.`.]././././././.].].`.].].].].].{.{.{.{.{.].].]._.~.].].].].].]."
};
